<svg xmlns="http://www.w3.org/2000/svg" xmlns:xlink="http://www.w3.org/1999/xlink" width="200" zoomAndPan="magnify" viewBox="0 0 150 149.999998" height="200" preserveAspectRatio="xMidYMid meet" version="1.0"><defs><clipPath id="3645c9da99"><path d="M 55 89 L 98 89 L 98 134.855469 L 55 134.855469 Z M 55 89 " clip-rule="nonzero"/></clipPath><clipPath id="f110bceddc"><path d="M 60 74 L 132.238281 74 L 132.238281 113 L 60 113 Z M 60 74 " clip-rule="nonzero"/></clipPath><clipPath id="68de742a3b"><path d="M 43 19.355469 L 82 19.355469 L 82 92 L 43 92 Z M 43 19.355469 " clip-rule="nonzero"/></clipPath></defs><path fill="#f7994e" d="M 44.554688 106.019531 L 53.523438 98.195312 C 54.058594 97.730469 54.242188 97.0625 53.933594 96.710938 C 53.625 96.355469 52.9375 96.449219 52.402344 96.917969 L 43.433594 104.742188 C 39.257812 108.382812 34.808594 111.644531 30.328125 114.851562 C 29.988281 115.09375 29.644531 115.363281 29.304688 115.660156 C 27.144531 117.546875 25.957031 119.714844 26.652344 120.507812 C 27.34375 121.296875 29.660156 120.410156 31.820312 118.527344 C 32.160156 118.230469 32.476562 117.925781 32.761719 117.621094 C 36.546875 113.621094 40.378906 109.660156 44.554688 106.019531 " fill-opacity="1" fill-rule="nonzero"/><path fill="#f7994e" d="M 96.890625 84.253906 C 105.714844 76.6875 113.625 66.984375 113.320312 56.746094 C 113.078125 48.574219 114.558594 45.019531 115.570312 43.554688 C 113.980469 44.363281 110.25 45.351562 102.160156 44.023438 C 92.023438 42.363281 81.328125 48.890625 72.628906 56.601562 C 72.351562 56.835938 72.074219 57.066406 71.796875 57.304688 C 70.394531 58.53125 69.089844 59.800781 67.871094 61.101562 C 67.839844 61.132812 67.808594 61.167969 67.777344 61.199219 L 67.78125 61.203125 C 57.71875 72.027344 54.246094 85.019531 60.140625 91.898438 C 66.199219 98.640625 79.574219 96.941406 91.675781 88.433594 L 91.679688 88.4375 C 91.714844 88.410156 91.75 88.382812 91.785156 88.355469 C 93.242188 87.328125 94.679688 86.207031 96.082031 84.984375 C 96.355469 84.742188 96.625 84.496094 96.890625 84.253906 " fill-opacity="1" fill-rule="nonzero"/><g clip-path="url(#3645c9da99)"><path fill="#f7994e" d="M 87.917969 100.652344 C 93.949219 107.40625 98.945312 115.8125 97.230469 124.054688 C 95.863281 130.628906 96.550781 133.605469 97.15625 134.863281 C 95.988281 134.09375 93.121094 133.019531 86.402344 133.496094 C 77.984375 134.09375 70.292969 128.042969 64.378906 121.179688 C 64.1875 120.972656 63.996094 120.765625 63.808594 120.550781 C 62.851562 119.460938 61.980469 118.339844 61.1875 117.199219 L 61.121094 117.117188 L 61.125 117.113281 C 54.554688 107.640625 53.617188 96.902344 59.359375 91.785156 C 65.210938 86.789062 75.761719 89.144531 84.304688 96.894531 L 84.308594 96.894531 L 84.382812 96.964844 C 85.410156 97.902344 86.410156 98.914062 87.367188 100.003906 C 87.554688 100.21875 87.734375 100.4375 87.917969 100.652344 " fill-opacity="1" fill-rule="nonzero"/></g><g clip-path="url(#f110bceddc)"><path fill="#f7994e" d="M 90.492188 112.050781 C 101.871094 112.664062 114.152344 111.066406 121.257812 103.308594 C 126.925781 97.113281 130.464844 95.535156 132.195312 95.167969 C 130.542969 94.644531 127.3125 92.757812 122.777344 86.101562 C 117.097656 77.765625 105.195312 75.070312 93.800781 74.652344 C 93.445312 74.628906 93.089844 74.601562 92.730469 74.585938 C 90.910156 74.503906 89.117188 74.523438 87.363281 74.628906 C 87.320312 74.628906 87.273438 74.628906 87.230469 74.632812 L 87.230469 74.636719 C 72.6875 75.550781 61.0625 82.691406 60.140625 91.898438 C 59.433594 101.117188 69.707031 109.25 83.972656 111.472656 L 83.972656 111.476562 C 84.015625 111.480469 84.058594 111.484375 84.101562 111.492188 C 85.824219 111.753906 87.597656 111.9375 89.421875 112.019531 C 89.78125 112.035156 90.136719 112.042969 90.492188 112.050781 " fill-opacity="1" fill-rule="nonzero"/></g><path fill="#f7994e" d="M 48.238281 108.261719 C 47.632812 114.515625 48.238281 121.210938 52.398438 124.925781 C 55.722656 127.890625 56.523438 129.792969 56.6875 130.734375 C 57.015625 129.816406 58.144531 128 61.964844 125.359375 C 66.746094 122.050781 68.527344 115.460938 69.027344 109.203125 C 69.046875 109.007812 69.070312 108.8125 69.089844 108.617188 C 69.175781 107.613281 69.207031 106.632812 69.1875 105.675781 L 69.191406 105.601562 L 69.1875 105.601562 C 69.015625 97.648438 65.300781 91.4375 60.1875 91.148438 C 55.0625 90.976562 50.285156 96.800781 48.714844 104.671875 L 48.710938 104.671875 L 48.699219 104.746094 C 48.511719 105.695312 48.371094 106.671875 48.28125 107.675781 C 48.265625 107.871094 48.25 108.066406 48.238281 108.261719 " fill-opacity="1" fill-rule="nonzero"/><path fill="#f7994e" d="M 54.34375 62.386719 C 48.429688 55.527344 40.734375 49.472656 32.316406 50.070312 C 25.597656 50.546875 22.734375 49.472656 21.5625 48.707031 C 22.171875 49.960938 22.855469 52.9375 21.488281 59.511719 C 19.777344 67.753906 24.769531 76.160156 30.804688 82.914062 C 30.988281 83.132812 31.167969 83.347656 31.355469 83.5625 C 32.3125 84.652344 33.3125 85.664062 34.335938 86.601562 L 34.410156 86.675781 L 34.414062 86.671875 C 42.957031 94.421875 53.507812 96.777344 59.359375 91.785156 C 65.101562 86.664062 64.164062 75.925781 57.597656 66.453125 L 57.597656 66.449219 L 57.535156 66.367188 C 56.742188 65.226562 55.871094 64.105469 54.914062 63.015625 C 54.726562 62.800781 54.53125 62.59375 54.34375 62.386719 " fill-opacity="1" fill-rule="nonzero"/><g clip-path="url(#68de742a3b)"><path fill="#f7994e" d="M 43.351562 58.324219 C 44.257812 47 47.476562 35.074219 56.136719 29.085938 C 63.046875 24.308594 65.085938 21.023438 65.683594 19.359375 C 65.984375 21.0625 67.429688 24.507812 73.441406 29.871094 C 80.976562 36.59375 82.070312 48.714844 80.972656 60.03125 C 80.949219 60.386719 80.925781 60.738281 80.894531 61.09375 C 80.734375 62.90625 80.476562 64.675781 80.136719 66.394531 C 80.128906 66.4375 80.125 66.480469 80.117188 66.523438 L 80.113281 66.523438 C 77.265625 80.773438 68.625 91.3125 59.347656 90.996094 C 50.09375 90.472656 43.375 79.238281 43.0625 64.84375 L 43.058594 64.84375 C 43.058594 64.800781 43.058594 64.753906 43.058594 64.710938 C 43.027344 62.976562 43.082031 61.199219 43.242188 59.386719 C 43.273438 59.03125 43.3125 58.679688 43.351562 58.324219 " fill-opacity="1" fill-rule="nonzero"/></g><path fill="#f7994e" d="M 41.503906 100.582031 C 35.207031 100.351562 28.625 98.863281 25.488281 94.253906 C 22.984375 90.578125 21.195312 89.535156 20.28125 89.246094 C 21.242188 89.042969 23.195312 88.167969 26.328125 84.746094 C 30.253906 80.460938 37.042969 79.578125 43.328125 79.914062 C 43.527344 79.917969 43.722656 79.921875 43.921875 79.933594 C 44.929688 79.980469 45.910156 80.078125 46.859375 80.226562 L 46.933594 80.234375 L 46.929688 80.234375 C 54.816406 81.464844 60.492188 85.957031 60.101562 91.050781 C 59.59375 96.136719 53.167969 100.085938 45.132812 100.589844 L 45.132812 100.59375 L 45.058594 100.59375 C 44.089844 100.652344 43.097656 100.664062 42.089844 100.617188 C 41.894531 100.609375 41.699219 100.597656 41.503906 100.582031 " fill-opacity="1" fill-rule="nonzero"/><path fill="#c2743f" d="M 109.46875 48.878906 C 106.664062 51.730469 103.753906 54.460938 100.824219 57.171875 C 97.90625 59.894531 94.910156 62.527344 91.917969 65.160156 C 88.898438 67.769531 85.878906 70.371094 82.78125 72.890625 L 78.132812 76.664062 C 76.546875 77.878906 74.996094 79.132812 73.378906 80.3125 C 74.769531 78.875 76.226562 77.511719 77.648438 76.105469 L 82.023438 72.019531 C 84.941406 69.296875 87.933594 66.664062 90.929688 64.03125 C 93.949219 61.425781 96.96875 58.820312 100.066406 56.304688 C 103.15625 53.773438 106.257812 51.265625 109.46875 48.878906 " fill-opacity="1" fill-rule="nonzero"/><path fill="#c2743f" d="M 124.191406 94.0625 C 120.324219 94.144531 116.464844 94.066406 112.605469 93.960938 C 108.746094 93.875 104.894531 93.671875 101.042969 93.464844 C 97.195312 93.222656 93.34375 92.980469 89.503906 92.621094 L 83.738281 92.074219 C 81.820312 91.835938 79.898438 91.652344 77.984375 91.371094 C 79.917969 91.3125 81.847656 91.351562 83.78125 91.339844 L 89.570312 91.464844 C 93.429688 91.554688 97.28125 91.757812 101.132812 91.964844 C 104.980469 92.210938 108.832031 92.453125 112.671875 92.816406 C 116.515625 93.160156 120.359375 93.527344 124.191406 94.0625 " fill-opacity="1" fill-rule="nonzero"/><path fill="#c2743f" d="M 91.929688 130.285156 C 89.894531 127.746094 88 125.121094 86.121094 122.476562 C 84.230469 119.847656 82.4375 117.148438 80.648438 114.453125 C 78.886719 111.734375 77.125 109.015625 75.464844 106.234375 L 72.976562 102.058594 C 72.191406 100.632812 71.363281 99.242188 70.621094 97.792969 C 71.648438 99.054688 72.597656 100.367188 73.589844 101.652344 L 76.429688 105.597656 C 78.320312 108.234375 80.113281 110.929688 81.902344 113.628906 C 83.664062 116.347656 85.421875 119.066406 87.085938 121.847656 C 88.761719 124.621094 90.414062 127.40625 91.929688 130.285156 " fill-opacity="1" fill-rule="nonzero"/><path fill="#c2743f" d="M 56.152344 123.707031 C 55.832031 119.925781 55.964844 116.175781 56.207031 112.433594 C 56.496094 108.695312 56.894531 104.964844 57.757812 101.265625 C 58.085938 105.050781 57.949219 108.796875 57.703125 112.539062 C 57.414062 116.277344 57.011719 120.011719 56.152344 123.707031 " fill-opacity="1" fill-rule="nonzero"/><path fill="#c2743f" d="M 66.492188 28.300781 C 66.511719 32.160156 66.371094 36.007812 66.199219 39.847656 C 66.046875 43.695312 65.777344 47.53125 65.507812 51.367188 C 65.203125 55.199219 64.894531 59.035156 64.46875 62.859375 L 63.824219 68.59375 C 63.558594 70.503906 63.339844 72.414062 63.023438 74.320312 C 63 72.390625 63.070312 70.464844 63.089844 68.539062 L 63.316406 62.773438 C 63.46875 58.925781 63.738281 55.089844 64.011719 51.253906 C 64.320312 47.421875 64.625 43.585938 65.054688 39.761719 C 65.460938 35.9375 65.894531 32.113281 66.492188 28.300781 " fill-opacity="1" fill-rule="nonzero"/><path fill="#c2743f" d="M 26.195312 55.363281 C 28.851562 57.242188 31.402344 59.25 33.9375 61.273438 C 36.480469 63.285156 38.949219 65.382812 41.417969 67.484375 C 43.859375 69.613281 46.304688 71.742188 48.671875 73.960938 L 52.21875 77.292969 C 53.363281 78.445312 54.542969 79.558594 55.660156 80.742188 C 54.320312 79.816406 53.046875 78.8125 51.738281 77.851562 L 47.917969 74.835938 C 45.371094 72.824219 42.902344 70.722656 40.4375 68.621094 C 37.992188 66.492188 35.550781 64.363281 33.183594 62.144531 C 30.808594 59.9375 28.445312 57.714844 26.195312 55.363281 " fill-opacity="1" fill-rule="nonzero"/><path fill="#c2743f" d="M 27.976562 91.589844 C 31.765625 91.234375 35.527344 91.332031 39.28125 91.542969 C 43.035156 91.796875 46.78125 92.164062 50.496094 92.992188 C 46.707031 93.351562 42.945312 93.253906 39.1875 93.039062 C 35.4375 92.78125 31.691406 92.414062 27.976562 91.589844 " fill-opacity="1" fill-rule="nonzero"/></svg>