<svg xmlns="http://www.w3.org/2000/svg" xmlns:xlink="http://www.w3.org/1999/xlink" width="200" zoomAndPan="magnify" viewBox="0 0 150 149.999998" height="200" preserveAspectRatio="xMidYMid meet" version="1.0"><path fill="#a97bb6" d="M 6.757812 121.722656 L 133.050781 10.695312 C 133.324219 10.453125 133.632812 10.277344 133.976562 10.160156 C 134.316406 10.042969 134.671875 9.996094 135.035156 10.019531 C 135.394531 10.042969 135.738281 10.132812 136.066406 10.292969 C 136.390625 10.453125 136.671875 10.667969 136.914062 10.941406 L 144.242188 19.28125 C 144.480469 19.550781 144.660156 19.859375 144.777344 20.203125 C 144.894531 20.546875 144.941406 20.898438 144.917969 21.261719 C 144.894531 21.625 144.804688 21.96875 144.644531 22.292969 C 144.484375 22.621094 144.265625 22.902344 143.996094 23.140625 L 17.703125 134.171875 C 17.429688 134.410156 17.121094 134.589844 16.777344 134.707031 C 16.433594 134.824219 16.082031 134.871094 15.71875 134.847656 C 15.355469 134.824219 15.011719 134.730469 14.6875 134.570312 C 14.359375 134.410156 14.078125 134.195312 13.839844 133.921875 L 6.507812 125.585938 C 6.269531 125.3125 6.089844 125.003906 5.972656 124.660156 C 5.855469 124.316406 5.808594 123.964844 5.832031 123.601562 C 5.855469 123.242188 5.949219 122.898438 6.109375 122.570312 C 6.269531 122.246094 6.484375 121.960938 6.757812 121.722656 Z M 6.757812 121.722656 " fill-opacity="1" fill-rule="nonzero"/><path fill="#cfb8d9" d="M 9.144531 128.558594 L 139.535156 13.925781 L 144.238281 19.277344 C 144.480469 19.550781 144.65625 19.855469 144.773438 20.199219 C 144.890625 20.542969 144.9375 20.898438 144.914062 21.257812 C 144.890625 21.621094 144.800781 21.964844 144.640625 22.292969 C 144.480469 22.617188 144.261719 22.898438 143.992188 23.140625 L 17.699219 134.167969 C 17.425781 134.40625 17.117188 134.582031 16.773438 134.699219 C 16.429688 134.8125 16.078125 134.859375 15.71875 134.835938 C 15.359375 134.808594 15.015625 134.71875 14.691406 134.558594 C 14.367188 134.398438 14.085938 134.183594 13.847656 133.910156 Z M 9.144531 128.558594 " fill-opacity="1" fill-rule="nonzero"/><path fill="#20a5ad" d="M 2.101562 98.492188 L 13.382812 88.574219 L 49.183594 129.292969 L 37.902344 139.214844 C 37.628906 139.453125 37.320312 139.632812 36.976562 139.75 C 36.632812 139.867188 36.28125 139.914062 35.917969 139.890625 C 35.554688 139.867188 35.210938 139.773438 34.886719 139.613281 C 34.5625 139.453125 34.277344 139.238281 34.039062 138.964844 L 1.84375 102.34375 C 1.605469 102.070312 1.429688 101.761719 1.316406 101.421875 C 1.199219 101.078125 1.152344 100.726562 1.179688 100.363281 C 1.203125 100.003906 1.292969 99.660156 1.453125 99.335938 C 1.613281 99.011719 1.832031 98.730469 2.101562 98.492188 Z M 2.101562 98.492188 " fill-opacity="1" fill-rule="nonzero"/><path fill="#6285dc" d="M 10.757812 85.628906 L 27.097656 71.265625 C 27.371094 71.027344 27.679688 70.847656 28.023438 70.730469 C 28.367188 70.613281 28.71875 70.566406 29.082031 70.589844 C 29.441406 70.613281 29.785156 70.703125 30.113281 70.863281 C 30.4375 71.023438 30.71875 71.242188 30.960938 71.515625 L 68.363281 114.058594 C 68.601562 114.332031 68.78125 114.640625 68.898438 114.984375 C 69.015625 115.328125 69.0625 115.679688 69.039062 116.042969 C 69.015625 116.402344 68.921875 116.746094 68.761719 117.074219 C 68.601562 117.398438 68.386719 117.683594 68.113281 117.921875 L 51.777344 132.285156 C 51.503906 132.523438 51.195312 132.703125 50.851562 132.820312 C 50.507812 132.9375 50.15625 132.984375 49.792969 132.960938 C 49.429688 132.9375 49.085938 132.84375 48.761719 132.683594 C 48.4375 132.523438 48.152344 132.308594 47.914062 132.035156 L 10.511719 89.492188 C 10.269531 89.21875 10.09375 88.910156 9.976562 88.566406 C 9.859375 88.222656 9.8125 87.871094 9.835938 87.507812 C 9.859375 87.148438 9.949219 86.804688 10.109375 86.476562 C 10.269531 86.152344 10.488281 85.867188 10.757812 85.628906 Z M 10.757812 85.628906 " fill-opacity="1" fill-rule="nonzero"/><path fill="#49d0d8" d="M 24.117188 73.886719 L 27.101562 71.265625 C 27.375 71.027344 27.679688 70.851562 28.023438 70.734375 C 28.367188 70.617188 28.71875 70.574219 29.078125 70.597656 C 29.441406 70.621094 29.78125 70.710938 30.109375 70.871094 C 30.433594 71.03125 30.714844 71.246094 30.953125 71.519531 L 68.359375 114.066406 C 68.597656 114.335938 68.777344 114.644531 68.894531 114.988281 C 69.011719 115.332031 69.058594 115.6875 69.035156 116.046875 C 69.011719 116.410156 68.917969 116.753906 68.757812 117.078125 C 68.597656 117.40625 68.382812 117.6875 68.109375 117.925781 L 65.132812 120.542969 Z M 24.117188 73.886719 " fill-opacity="1" fill-rule="nonzero"/><path fill="#20a5ad" d="M 147.90625 42.535156 L 136.625 52.453125 L 100.824219 11.734375 L 112.105469 1.8125 C 112.378906 1.574219 112.6875 1.394531 113.03125 1.28125 C 113.375 1.164062 113.726562 1.117188 114.089844 1.136719 C 114.453125 1.160156 114.796875 1.253906 115.121094 1.414062 C 115.449219 1.574219 115.730469 1.789062 115.96875 2.0625 L 148.15625 38.675781 C 148.394531 38.949219 148.574219 39.253906 148.691406 39.597656 C 148.808594 39.941406 148.855469 40.296875 148.832031 40.65625 C 148.808594 41.019531 148.71875 41.363281 148.558594 41.6875 C 148.398438 42.015625 148.179688 42.296875 147.910156 42.539062 Z M 147.90625 42.535156 " fill-opacity="1" fill-rule="nonzero"/><path fill="#6285dc" d="M 139.246094 55.402344 L 122.90625 69.765625 C 122.632812 70.007812 122.328125 70.183594 121.984375 70.300781 C 121.640625 70.417969 121.285156 70.464844 120.925781 70.441406 C 120.5625 70.417969 120.21875 70.328125 119.890625 70.167969 C 119.566406 70.007812 119.285156 69.789062 119.042969 69.519531 L 81.640625 26.972656 C 81.402344 26.703125 81.222656 26.394531 81.105469 26.050781 C 80.988281 25.707031 80.941406 25.351562 80.964844 24.992188 C 80.988281 24.628906 81.082031 24.285156 81.242188 23.960938 C 81.402344 23.632812 81.617188 23.351562 81.890625 23.109375 L 98.226562 8.746094 C 98.5 8.507812 98.808594 8.328125 99.152344 8.210938 C 99.496094 8.09375 99.847656 8.046875 100.210938 8.070312 C 100.574219 8.09375 100.917969 8.1875 101.242188 8.347656 C 101.570312 8.507812 101.851562 8.722656 102.089844 8.996094 L 139.492188 51.539062 C 139.734375 51.8125 139.910156 52.121094 140.027344 52.464844 C 140.144531 52.808594 140.191406 53.160156 140.167969 53.523438 C 140.144531 53.886719 140.054688 54.230469 139.894531 54.554688 C 139.734375 54.882812 139.519531 55.164062 139.246094 55.402344 Z M 139.246094 55.402344 " fill-opacity="1" fill-rule="nonzero"/><path fill="#49d0d8" d="M 81.886719 23.097656 L 84.871094 20.476562 L 125.886719 67.132812 L 122.902344 69.753906 C 122.628906 69.992188 122.320312 70.171875 121.980469 70.285156 C 121.636719 70.402344 121.285156 70.449219 120.921875 70.425781 C 120.5625 70.402344 120.21875 70.308594 119.894531 70.148438 C 119.570312 69.992188 119.289062 69.773438 119.046875 69.503906 L 81.644531 26.957031 C 81.40625 26.683594 81.226562 26.378906 81.109375 26.035156 C 80.992188 25.691406 80.945312 25.339844 80.96875 24.976562 C 80.992188 24.617188 81.082031 24.273438 81.238281 23.949219 C 81.398438 23.621094 81.613281 23.339844 81.886719 23.097656 Z M 81.886719 23.097656 " fill-opacity="1" fill-rule="nonzero"/></svg>