<svg xmlns="http://www.w3.org/2000/svg" xmlns:xlink="http://www.w3.org/1999/xlink" width="200" zoomAndPan="magnify" viewBox="0 0 150 149.999998" height="200" preserveAspectRatio="xMidYMid meet" version="1.0"><defs><g/><clipPath id="19f627e4be"><path d="M 3.117188 68.578125 L 48.144531 68.578125 L 48.144531 114.664062 L 3.117188 114.664062 Z M 3.117188 68.578125 " clip-rule="nonzero"/></clipPath><clipPath id="fc25d4235b"><path d="M 9.867188 68.578125 L 41.394531 68.578125 C 43.1875 68.578125 44.902344 69.289062 46.167969 70.554688 C 47.433594 71.820312 48.144531 73.539062 48.144531 75.328125 L 48.144531 107.769531 C 48.144531 109.558594 47.433594 111.277344 46.167969 112.542969 C 44.902344 113.808594 43.1875 114.519531 41.394531 114.519531 L 9.867188 114.519531 C 8.074219 114.519531 6.359375 113.808594 5.09375 112.542969 C 3.828125 111.277344 3.117188 109.558594 3.117188 107.769531 L 3.117188 75.328125 C 3.117188 73.539062 3.828125 71.820312 5.09375 70.554688 C 6.359375 69.289062 8.074219 68.578125 9.867188 68.578125 Z M 9.867188 68.578125 " clip-rule="nonzero"/></clipPath><clipPath id="084ae01387"><path d="M 0.117188 0.578125 L 45.144531 0.578125 L 45.144531 46.664062 L 0.117188 46.664062 Z M 0.117188 0.578125 " clip-rule="nonzero"/></clipPath><clipPath id="3a6216e2a9"><path d="M 6.867188 0.578125 L 38.394531 0.578125 C 40.1875 0.578125 41.902344 1.289062 43.167969 2.554688 C 44.433594 3.820312 45.144531 5.539062 45.144531 7.328125 L 45.144531 39.769531 C 45.144531 41.558594 44.433594 43.277344 43.167969 44.542969 C 41.902344 45.808594 40.1875 46.519531 38.394531 46.519531 L 6.867188 46.519531 C 5.074219 46.519531 3.359375 45.808594 2.09375 44.542969 C 0.828125 43.277344 0.117188 41.558594 0.117188 39.769531 L 0.117188 7.328125 C 0.117188 5.539062 0.828125 3.820312 2.09375 2.554688 C 3.359375 1.289062 5.074219 0.578125 6.867188 0.578125 Z M 6.867188 0.578125 " clip-rule="nonzero"/></clipPath><clipPath id="44189ce921"><rect x="0" width="46" y="0" height="47"/></clipPath><clipPath id="a98fb4c189"><path d="M 3.117188 68.582031 L 48.117188 68.582031 L 48.117188 114.328125 L 3.117188 114.328125 Z M 3.117188 68.582031 " clip-rule="nonzero"/></clipPath><clipPath id="b75b97b4ae"><path d="M 9.863281 68.582031 L 41.390625 68.582031 C 43.179688 68.582031 44.898438 69.292969 46.164062 70.558594 C 47.429688 71.824219 48.140625 73.539062 48.140625 75.332031 L 48.140625 107.765625 C 48.140625 109.554688 47.429688 111.273438 46.164062 112.539062 C 44.898438 113.804688 43.179688 114.515625 41.390625 114.515625 L 9.863281 114.515625 C 8.074219 114.515625 6.359375 113.804688 5.09375 112.539062 C 3.828125 111.273438 3.117188 109.554688 3.117188 107.765625 L 3.117188 75.332031 C 3.117188 73.539062 3.828125 71.824219 5.09375 70.558594 C 6.359375 69.292969 8.074219 68.582031 9.863281 68.582031 Z M 9.863281 68.582031 " clip-rule="nonzero"/></clipPath><clipPath id="170a2b29ae"><path d="M 52.324219 68.578125 L 97.355469 68.578125 L 97.355469 114.664062 L 52.324219 114.664062 Z M 52.324219 68.578125 " clip-rule="nonzero"/></clipPath><clipPath id="7a97a5bb2f"><path d="M 59.074219 68.578125 L 90.605469 68.578125 C 92.394531 68.578125 94.109375 69.289062 95.375 70.554688 C 96.644531 71.820312 97.355469 73.539062 97.355469 75.328125 L 97.355469 107.769531 C 97.355469 109.558594 96.644531 111.277344 95.375 112.542969 C 94.109375 113.808594 92.394531 114.519531 90.605469 114.519531 L 59.074219 114.519531 C 57.28125 114.519531 55.566406 113.808594 54.300781 112.542969 C 53.035156 111.277344 52.324219 109.558594 52.324219 107.769531 L 52.324219 75.328125 C 52.324219 73.539062 53.035156 71.820312 54.300781 70.554688 C 55.566406 69.289062 57.28125 68.578125 59.074219 68.578125 Z M 59.074219 68.578125 " clip-rule="nonzero"/></clipPath><clipPath id="555698b101"><path d="M 0.324219 0.578125 L 45.355469 0.578125 L 45.355469 46.664062 L 0.324219 46.664062 Z M 0.324219 0.578125 " clip-rule="nonzero"/></clipPath><clipPath id="2e3ad111ad"><path d="M 7.074219 0.578125 L 38.605469 0.578125 C 40.394531 0.578125 42.109375 1.289062 43.375 2.554688 C 44.644531 3.820312 45.355469 5.539062 45.355469 7.328125 L 45.355469 39.769531 C 45.355469 41.558594 44.644531 43.277344 43.375 44.542969 C 42.109375 45.808594 40.394531 46.519531 38.605469 46.519531 L 7.074219 46.519531 C 5.28125 46.519531 3.566406 45.808594 2.300781 44.542969 C 1.035156 43.277344 0.324219 41.558594 0.324219 39.769531 L 0.324219 7.328125 C 0.324219 5.539062 1.035156 3.820312 2.300781 2.554688 C 3.566406 1.289062 5.28125 0.578125 7.074219 0.578125 Z M 7.074219 0.578125 " clip-rule="nonzero"/></clipPath><clipPath id="112eb6c680"><rect x="0" width="46" y="0" height="47"/></clipPath><clipPath id="632c78028c"><path d="M 52.324219 68.582031 L 97.324219 68.582031 L 97.324219 114.328125 L 52.324219 114.328125 Z M 52.324219 68.582031 " clip-rule="nonzero"/></clipPath><clipPath id="f21f32c963"><path d="M 59.070312 68.582031 L 90.597656 68.582031 C 92.386719 68.582031 94.105469 69.292969 95.371094 70.558594 C 96.636719 71.824219 97.347656 73.539062 97.347656 75.332031 L 97.347656 107.765625 C 97.347656 109.554688 96.636719 111.273438 95.371094 112.539062 C 94.105469 113.804688 92.386719 114.515625 90.597656 114.515625 L 59.070312 114.515625 C 57.28125 114.515625 55.566406 113.804688 54.300781 112.539062 C 53.035156 111.273438 52.324219 109.554688 52.324219 107.765625 L 52.324219 75.332031 C 52.324219 73.539062 53.035156 71.824219 54.300781 70.558594 C 55.566406 69.292969 57.28125 68.582031 59.070312 68.582031 Z M 59.070312 68.582031 " clip-rule="nonzero"/></clipPath><clipPath id="8bf7773906"><path d="M 101.855469 68.578125 L 146.882812 68.578125 L 146.882812 114.664062 L 101.855469 114.664062 Z M 101.855469 68.578125 " clip-rule="nonzero"/></clipPath><clipPath id="9d4c8f3e46"><path d="M 108.605469 68.578125 L 140.132812 68.578125 C 141.925781 68.578125 143.640625 69.289062 144.90625 70.554688 C 146.171875 71.820312 146.882812 73.539062 146.882812 75.328125 L 146.882812 107.769531 C 146.882812 109.558594 146.171875 111.277344 144.90625 112.542969 C 143.640625 113.808594 141.925781 114.519531 140.132812 114.519531 L 108.605469 114.519531 C 106.8125 114.519531 105.097656 113.808594 103.832031 112.542969 C 102.566406 111.277344 101.855469 109.558594 101.855469 107.769531 L 101.855469 75.328125 C 101.855469 73.539062 102.566406 71.820312 103.832031 70.554688 C 105.097656 69.289062 106.8125 68.578125 108.605469 68.578125 Z M 108.605469 68.578125 " clip-rule="nonzero"/></clipPath><clipPath id="6b6096bd75"><path d="M 0.855469 0.578125 L 45.882812 0.578125 L 45.882812 46.664062 L 0.855469 46.664062 Z M 0.855469 0.578125 " clip-rule="nonzero"/></clipPath><clipPath id="a09798ebc4"><path d="M 7.605469 0.578125 L 39.132812 0.578125 C 40.925781 0.578125 42.640625 1.289062 43.90625 2.554688 C 45.171875 3.820312 45.882812 5.539062 45.882812 7.328125 L 45.882812 39.769531 C 45.882812 41.558594 45.171875 43.277344 43.90625 44.542969 C 42.640625 45.808594 40.925781 46.519531 39.132812 46.519531 L 7.605469 46.519531 C 5.8125 46.519531 4.097656 45.808594 2.832031 44.542969 C 1.566406 43.277344 0.855469 41.558594 0.855469 39.769531 L 0.855469 7.328125 C 0.855469 5.539062 1.566406 3.820312 2.832031 2.554688 C 4.097656 1.289062 5.8125 0.578125 7.605469 0.578125 Z M 7.605469 0.578125 " clip-rule="nonzero"/></clipPath><clipPath id="134c691c89"><rect x="0" width="46" y="0" height="47"/></clipPath><clipPath id="1331ec44f8"><path d="M 101.855469 68.582031 L 146.855469 68.582031 L 146.855469 114.328125 L 101.855469 114.328125 Z M 101.855469 68.582031 " clip-rule="nonzero"/></clipPath><clipPath id="fb320b6374"><path d="M 108.601562 68.582031 L 140.128906 68.582031 C 141.917969 68.582031 143.636719 69.292969 144.902344 70.558594 C 146.167969 71.824219 146.878906 73.539062 146.878906 75.332031 L 146.878906 107.765625 C 146.878906 109.554688 146.167969 111.273438 144.902344 112.539062 C 143.636719 113.804688 141.917969 114.515625 140.128906 114.515625 L 108.601562 114.515625 C 106.8125 114.515625 105.097656 113.804688 103.832031 112.539062 C 102.566406 111.273438 101.855469 109.554688 101.855469 107.765625 L 101.855469 75.332031 C 101.855469 73.539062 102.566406 71.824219 103.832031 70.558594 C 105.097656 69.292969 106.8125 68.582031 108.601562 68.582031 Z M 108.601562 68.582031 " clip-rule="nonzero"/></clipPath><clipPath id="79d30941c8"><path d="M 57 35 L 93 35 L 93 60.972656 L 57 60.972656 Z M 57 35 " clip-rule="nonzero"/></clipPath><clipPath id="41ef5630ac"><path d="M 51 8.472656 L 98 8.472656 L 98 25 L 51 25 Z M 51 8.472656 " clip-rule="nonzero"/></clipPath><clipPath id="d7f95dd7c8"><path d="M 41.191406 35 L 49 35 L 49 58 L 41.191406 58 Z M 41.191406 35 " clip-rule="nonzero"/></clipPath><clipPath id="87e663ee7c"><path d="M 101 35 L 108.691406 35 L 108.691406 58 L 101 58 Z M 101 35 " clip-rule="nonzero"/></clipPath></defs><g clip-path="url(#19f627e4be)"><g clip-path="url(#fc25d4235b)"><g transform="matrix(1, 0, 0, 1, 3, 68)"><g clip-path="url(#44189ce921)"><g clip-path="url(#084ae01387)"><g clip-path="url(#3a6216e2a9)"><path fill="#ffffff" d="M 0.117188 0.578125 L 45.144531 0.578125 L 45.144531 46.488281 L 0.117188 46.488281 Z M 0.117188 0.578125 " fill-opacity="1" fill-rule="nonzero"/></g></g></g></g></g></g><g clip-path="url(#a98fb4c189)"><g clip-path="url(#b75b97b4ae)"><path stroke-linecap="butt" transform="matrix(0.75, 0, 0, 0.75, 3.11555, 68.581887)" fill="none" stroke-linejoin="miter" d="M 8.996975 0.000192601 L 51.033436 0.000192601 C 53.418853 0.000192601 55.71052 0.948109 57.39802 2.635609 C 59.08552 4.32311 60.033437 6.609568 60.033437 9.000193 L 60.033437 52.244987 C 60.033437 54.630404 59.08552 56.922071 57.39802 58.609571 C 55.71052 60.297071 53.418853 61.244988 51.033436 61.244988 L 8.996975 61.244988 C 6.611558 61.244988 4.3251 60.297071 2.6376 58.609571 C 0.9501 56.922071 0.00218304 54.630404 0.00218304 52.244987 L 0.00218304 9.000193 C 0.00218304 6.609568 0.9501 4.32311 2.6376 2.635609 C 4.3251 0.948109 6.611558 0.000192601 8.996975 0.000192601 Z M 8.996975 0.000192601 " stroke="#78d0b1" stroke-width="8" stroke-opacity="1" stroke-miterlimit="4"/></g></g><g fill="#9dafbb" fill-opacity="1"><g transform="translate(20.35383, 98.579315)"><g><path d="M 7.125 -13.171875 C 7.144531 -13.546875 7.269531 -13.804688 7.5 -13.953125 C 7.738281 -14.097656 8.046875 -14.171875 8.421875 -14.171875 C 8.929688 -14.171875 9.316406 -14.09375 9.578125 -13.9375 C 9.835938 -13.789062 9.953125 -13.507812 9.921875 -13.09375 C 9.785156 -11.113281 9.671875 -9.066406 9.578125 -6.953125 C 9.492188 -4.847656 9.40625 -2.78125 9.3125 -0.75 C 9.300781 -0.394531 9.144531 -0.144531 8.84375 0 C 8.539062 0.144531 8.207031 0.21875 7.84375 0.21875 C 7.4375 0.21875 7.128906 0.140625 6.921875 -0.015625 C 6.710938 -0.171875 6.609375 -0.359375 6.609375 -0.578125 C 6.609375 -0.691406 6.613281 -0.796875 6.625 -0.890625 C 6.632812 -0.992188 6.648438 -1.109375 6.671875 -1.234375 C 6.691406 -1.359375 6.703125 -1.5 6.703125 -1.65625 C 6.484375 -1.21875 6.222656 -0.863281 5.921875 -0.59375 C 5.628906 -0.332031 5.304688 -0.132812 4.953125 0 C 4.597656 0.125 4.226562 0.1875 3.84375 0.1875 C 3.25 0.1875 2.742188 0.0625 2.328125 -0.1875 C 1.910156 -0.445312 1.570312 -0.785156 1.3125 -1.203125 C 1.0625 -1.628906 0.875 -2.082031 0.75 -2.5625 C 0.632812 -3.050781 0.578125 -3.523438 0.578125 -3.984375 C 0.578125 -4.648438 0.679688 -5.304688 0.890625 -5.953125 C 1.097656 -6.597656 1.390625 -7.175781 1.765625 -7.6875 C 2.148438 -8.207031 2.609375 -8.625 3.140625 -8.9375 C 3.671875 -9.25 4.269531 -9.40625 4.9375 -9.40625 C 5.25 -9.40625 5.5625 -9.359375 5.875 -9.265625 C 6.195312 -9.179688 6.515625 -9.050781 6.828125 -8.875 C 6.867188 -9.394531 6.898438 -9.90625 6.921875 -10.40625 C 6.953125 -10.90625 6.984375 -11.390625 7.015625 -11.859375 C 7.054688 -12.328125 7.09375 -12.765625 7.125 -13.171875 Z M 3.46875 -4.078125 C 3.46875 -3.753906 3.503906 -3.441406 3.578125 -3.140625 C 3.648438 -2.835938 3.765625 -2.59375 3.921875 -2.40625 C 4.085938 -2.21875 4.289062 -2.125 4.53125 -2.125 C 4.78125 -2.125 5.015625 -2.21875 5.234375 -2.40625 C 5.460938 -2.59375 5.65625 -2.828125 5.8125 -3.109375 C 5.976562 -3.398438 6.113281 -3.707031 6.21875 -4.03125 C 6.332031 -4.363281 6.398438 -4.675781 6.421875 -4.96875 C 6.429688 -5.019531 6.445312 -5.070312 6.46875 -5.125 C 6.5 -5.175781 6.539062 -5.222656 6.59375 -5.265625 L 6.6875 -6.765625 C 6.457031 -6.941406 6.25 -7.0625 6.0625 -7.125 C 5.875 -7.1875 5.664062 -7.21875 5.4375 -7.21875 C 5.125 -7.21875 4.816406 -7.101562 4.515625 -6.875 C 4.210938 -6.644531 3.960938 -6.296875 3.765625 -5.828125 C 3.566406 -5.367188 3.46875 -4.785156 3.46875 -4.078125 Z M 3.46875 -4.078125 "/></g></g></g><g clip-path="url(#170a2b29ae)"><g clip-path="url(#7a97a5bb2f)"><g transform="matrix(1, 0, 0, 1, 52, 68)"><g clip-path="url(#112eb6c680)"><g clip-path="url(#555698b101)"><g clip-path="url(#2e3ad111ad)"><path fill="#ffffff" d="M 0.324219 0.578125 L 45.355469 0.578125 L 45.355469 46.488281 L 0.324219 46.488281 Z M 0.324219 0.578125 " fill-opacity="1" fill-rule="nonzero"/></g></g></g></g></g></g><g clip-path="url(#632c78028c)"><g clip-path="url(#f21f32c963)"><path stroke-linecap="butt" transform="matrix(0.75, 0, 0, 0.75, 52.323209, 68.581887)" fill="none" stroke-linejoin="miter" d="M 8.996138 0.000192601 L 51.032599 0.000192601 C 53.418016 0.000192601 55.709682 0.948109 57.397182 2.635609 C 59.084683 4.32311 60.032599 6.609568 60.032599 9.000193 L 60.032599 52.244987 C 60.032599 54.630404 59.084683 56.922071 57.397182 58.609571 C 55.709682 60.297071 53.418016 61.244988 51.032599 61.244988 L 8.996138 61.244988 C 6.610721 61.244988 4.324263 60.297071 2.636763 58.609571 C 0.949263 56.922071 0.0013458 54.630404 0.0013458 52.244987 L 0.0013458 9.000193 C 0.0013458 6.609568 0.949263 4.32311 2.636763 2.635609 C 4.324263 0.948109 6.610721 0.000192601 8.996138 0.000192601 Z M 8.996138 0.000192601 " stroke="#83b8f4" stroke-width="8" stroke-opacity="1" stroke-miterlimit="4"/></g></g><g fill="#9dafbb" fill-opacity="1"><g transform="translate(69.831021, 98.579315)"><g><path d="M 5.25 -9.40625 C 5.519531 -9.40625 5.835938 -9.375 6.203125 -9.3125 C 6.566406 -9.257812 6.910156 -9.179688 7.234375 -9.078125 C 7.554688 -8.972656 7.800781 -8.847656 7.96875 -8.703125 C 8.507812 -8.285156 8.90625 -7.734375 9.15625 -7.046875 C 9.40625 -6.367188 9.53125 -5.644531 9.53125 -4.875 C 9.53125 -4.25 9.445312 -3.640625 9.28125 -3.046875 C 9.113281 -2.453125 8.851562 -1.914062 8.5 -1.4375 C 8.144531 -0.96875 7.703125 -0.585938 7.171875 -0.296875 C 6.640625 -0.015625 6.007812 0.125 5.28125 0.125 C 4.457031 0.125 3.742188 0 3.140625 -0.25 C 2.546875 -0.5 2.050781 -0.84375 1.65625 -1.28125 C 1.269531 -1.726562 0.984375 -2.234375 0.796875 -2.796875 C 0.609375 -3.367188 0.515625 -3.972656 0.515625 -4.609375 C 0.515625 -5.222656 0.609375 -5.8125 0.796875 -6.375 C 0.984375 -6.945312 1.269531 -7.457031 1.65625 -7.90625 C 2.050781 -8.351562 2.546875 -8.710938 3.140625 -8.984375 C 3.734375 -9.265625 4.4375 -9.40625 5.25 -9.40625 Z M 3.34375 -4.6875 C 3.34375 -4.269531 3.40625 -3.859375 3.53125 -3.453125 C 3.65625 -3.054688 3.851562 -2.726562 4.125 -2.46875 C 4.394531 -2.207031 4.742188 -2.078125 5.171875 -2.078125 C 5.453125 -2.078125 5.691406 -2.15625 5.890625 -2.3125 C 6.085938 -2.476562 6.242188 -2.691406 6.359375 -2.953125 C 6.484375 -3.222656 6.570312 -3.515625 6.625 -3.828125 C 6.675781 -4.140625 6.703125 -4.445312 6.703125 -4.75 C 6.703125 -5.394531 6.617188 -5.898438 6.453125 -6.265625 C 6.285156 -6.640625 6.066406 -6.925781 5.796875 -7.125 C 5.671875 -7.15625 5.5625 -7.175781 5.46875 -7.1875 C 5.375 -7.207031 5.269531 -7.21875 5.15625 -7.21875 C 4.820312 -7.21875 4.535156 -7.144531 4.296875 -7 C 4.054688 -6.851562 3.867188 -6.660156 3.734375 -6.421875 C 3.597656 -6.179688 3.5 -5.914062 3.4375 -5.625 C 3.375 -5.332031 3.34375 -5.019531 3.34375 -4.6875 Z M 3.34375 -4.6875 "/></g></g></g><g clip-path="url(#8bf7773906)"><g clip-path="url(#9d4c8f3e46)"><g transform="matrix(1, 0, 0, 1, 101, 68)"><g clip-path="url(#134c691c89)"><g clip-path="url(#6b6096bd75)"><g clip-path="url(#a09798ebc4)"><path fill="#ffffff" d="M 0.855469 0.578125 L 45.882812 0.578125 L 45.882812 46.488281 L 0.855469 46.488281 Z M 0.855469 0.578125 " fill-opacity="1" fill-rule="nonzero"/></g></g></g></g></g></g><g clip-path="url(#1331ec44f8)"><g clip-path="url(#fb320b6374)"><path stroke-linecap="butt" transform="matrix(0.75, 0, 0, 0.75, 101.853833, 68.581887)" fill="none" stroke-linejoin="miter" d="M 8.996973 0.000192601 L 51.033434 0.000192601 C 53.418851 0.000192601 55.710518 0.948109 57.398018 2.635609 C 59.085518 4.32311 60.033435 6.609568 60.033435 9.000193 L 60.033435 52.244987 C 60.033435 54.630404 59.085518 56.922071 57.398018 58.609571 C 55.710518 60.297071 53.418851 61.244988 51.033434 61.244988 L 8.996973 61.244988 C 6.611557 61.244988 4.325098 60.297071 2.637598 58.609571 C 0.950098 56.922071 0.00218112 54.630404 0.00218112 52.244987 L 0.00218112 9.000193 C 0.00218112 6.609568 0.950098 4.32311 2.637598 2.635609 C 4.325098 0.948109 6.611557 0.000192601 8.996973 0.000192601 Z M 8.996973 0.000192601 " stroke="#ffc05d" stroke-width="8" stroke-opacity="1" stroke-miterlimit="4"/></g></g><g fill="#9dafbb" fill-opacity="1"><g transform="translate(119.185863, 98.579315)"><g><path d="M 0.5625 -4.109375 C 0.5625 -4.816406 0.675781 -5.488281 0.90625 -6.125 C 1.144531 -6.757812 1.472656 -7.320312 1.890625 -7.8125 C 2.304688 -8.300781 2.796875 -8.691406 3.359375 -8.984375 C 3.921875 -9.273438 4.53125 -9.421875 5.1875 -9.421875 C 5.519531 -9.421875 5.835938 -9.378906 6.140625 -9.296875 C 6.453125 -9.222656 6.734375 -9.109375 6.984375 -8.953125 C 7.054688 -9.140625 7.171875 -9.257812 7.328125 -9.3125 C 7.484375 -9.375 7.703125 -9.40625 7.984375 -9.40625 C 8.515625 -9.40625 8.878906 -9.351562 9.078125 -9.25 C 9.285156 -9.15625 9.378906 -8.992188 9.359375 -8.765625 L 9.34375 -8.1875 C 9.4375 -8.09375 9.503906 -7.984375 9.546875 -7.859375 C 9.597656 -7.742188 9.625 -7.566406 9.625 -7.328125 C 9.625 -6.898438 9.523438 -6.570312 9.328125 -6.34375 L 9.328125 -5.984375 C 9.328125 -5.710938 9.332031 -5.429688 9.34375 -5.140625 C 9.351562 -4.847656 9.359375 -4.472656 9.359375 -4.015625 C 9.359375 -3.398438 9.34375 -2.738281 9.3125 -2.03125 C 9.28125 -1.332031 9.238281 -0.675781 9.1875 -0.0625 C 9.09375 0.925781 8.859375 1.78125 8.484375 2.5 C 8.109375 3.226562 7.625 3.785156 7.03125 4.171875 C 6.4375 4.554688 5.757812 4.75 5 4.75 C 4.675781 4.75 4.3125 4.691406 3.90625 4.578125 C 3.5 4.472656 3.085938 4.316406 2.671875 4.109375 C 2.253906 3.910156 1.859375 3.65625 1.484375 3.34375 C 1.316406 3.195312 1.195312 3.0625 1.125 2.9375 C 1.050781 2.820312 1.015625 2.6875 1.015625 2.53125 C 1.015625 2.375 1.070312 2.195312 1.1875 2 C 1.3125 1.800781 1.457031 1.628906 1.625 1.484375 C 1.789062 1.335938 1.945312 1.265625 2.09375 1.265625 C 2.207031 1.265625 2.328125 1.289062 2.453125 1.34375 C 2.585938 1.394531 2.710938 1.460938 2.828125 1.546875 C 3.035156 1.679688 3.25 1.816406 3.46875 1.953125 C 3.6875 2.085938 3.90625 2.195312 4.125 2.28125 C 4.351562 2.363281 4.578125 2.40625 4.796875 2.40625 C 5.085938 2.40625 5.332031 2.332031 5.53125 2.1875 C 5.726562 2.039062 5.894531 1.828125 6.03125 1.546875 C 6.164062 1.273438 6.273438 0.957031 6.359375 0.59375 C 6.441406 0.25 6.5 -0.0234375 6.53125 -0.234375 C 6.570312 -0.453125 6.609375 -0.640625 6.640625 -0.796875 C 6.679688 -0.960938 6.710938 -1.15625 6.734375 -1.375 C 6.441406 -0.882812 6.078125 -0.519531 5.640625 -0.28125 C 5.210938 -0.0507812 4.722656 0.0625 4.171875 0.0625 C 3.453125 0.0625 2.820312 -0.125 2.28125 -0.5 C 1.738281 -0.882812 1.316406 -1.390625 1.015625 -2.015625 C 0.710938 -2.648438 0.5625 -3.347656 0.5625 -4.109375 Z M 4.8125 -2.109375 C 5.113281 -2.109375 5.363281 -2.207031 5.5625 -2.40625 C 5.757812 -2.613281 5.914062 -2.894531 6.03125 -3.25 C 6.15625 -3.613281 6.257812 -4.035156 6.34375 -4.515625 C 6.363281 -4.648438 6.378906 -4.832031 6.390625 -5.0625 C 6.410156 -5.300781 6.425781 -5.546875 6.4375 -5.796875 C 6.445312 -6.054688 6.457031 -6.285156 6.46875 -6.484375 C 6.476562 -6.679688 6.484375 -6.800781 6.484375 -6.84375 C 6.328125 -7 6.15625 -7.109375 5.96875 -7.171875 C 5.78125 -7.234375 5.617188 -7.265625 5.484375 -7.265625 C 5.191406 -7.265625 4.921875 -7.179688 4.671875 -7.015625 C 4.421875 -6.859375 4.203125 -6.632812 4.015625 -6.34375 C 3.835938 -6.0625 3.695312 -5.726562 3.59375 -5.34375 C 3.5 -4.96875 3.453125 -4.5625 3.453125 -4.125 C 3.453125 -3.707031 3.507812 -3.34375 3.625 -3.03125 C 3.75 -2.726562 3.910156 -2.5 4.109375 -2.34375 C 4.316406 -2.1875 4.550781 -2.109375 4.8125 -2.109375 Z M 4.8125 -2.109375 "/></g></g></g><path fill="#ff66c4" d="M 48.394531 33.464844 C 48.527344 32.765625 48.679688 32.070312 48.855469 31.386719 C 49.410156 29.230469 50.179688 27.175781 51.140625 25.25 C 51.578125 25.71875 52.117188 26.082031 52.726562 26.292969 C 51.871094 28.046875 51.179688 29.90625 50.679688 31.851562 C 50.542969 32.382812 50.421875 32.921875 50.316406 33.464844 Z M 48.394531 33.464844 " fill-opacity="1" fill-rule="evenodd"/><path fill="#ff66c4" d="M 99.359375 33.464844 C 99.25 32.921875 99.128906 32.382812 98.992188 31.851562 C 98.492188 29.90625 97.800781 28.042969 96.945312 26.292969 C 97.554688 26.082031 98.09375 25.71875 98.535156 25.25 C 99.492188 27.175781 100.261719 29.230469 100.816406 31.386719 C 100.992188 32.070312 101.144531 32.765625 101.277344 33.464844 Z M 99.359375 33.464844 " fill-opacity="1" fill-rule="evenodd"/><g clip-path="url(#79d30941c8)"><path fill="#ff66c4" d="M 92.542969 47.445312 L 87.480469 47.445312 C 87.140625 47.445312 86.832031 47.265625 86.664062 46.972656 L 83.859375 42.152344 L 79.003906 59.902344 C 78.820312 60.871094 77.4375 60.941406 77.164062 59.984375 L 71.5625 40.371094 L 68.574219 55.601562 C 68.410156 56.425781 67.316406 56.648438 66.851562 55.929688 L 61.40625 47.445312 L 57.128906 47.445312 L 57.128906 45.554688 L 61.921875 45.554688 C 62.277344 45.554688 62.589844 45.753906 62.75 46.042969 L 67.171875 52.933594 L 70.464844 36.152344 C 70.65625 35.175781 72.035156 35.132812 72.300781 36.078125 L 78.054688 56.222656 L 82.636719 39.484375 C 82.859375 38.671875 83.949219 38.546875 84.363281 39.261719 L 88.019531 45.554688 L 92.542969 45.554688 Z M 92.542969 47.445312 " fill-opacity="1" fill-rule="evenodd"/></g><g clip-path="url(#41ef5630ac)"><path fill="#ff66c4" d="M 55.402344 23.804688 C 55.105469 24.167969 54.691406 24.425781 54.226562 24.5 C 53.0625 24.6875 52.136719 23.734375 51.988281 22.640625 C 51.910156 22.058594 52.039062 21.464844 52.367188 20.976562 C 53.660156 19.066406 55.164062 17.296875 56.855469 15.730469 C 58.507812 14.199219 60.335938 12.863281 62.304688 11.769531 C 66.160156 9.628906 70.421875 8.488281 74.835938 8.488281 C 79.25 8.488281 83.511719 9.628906 87.371094 11.769531 C 89.335938 12.863281 91.164062 14.199219 92.816406 15.730469 C 94.511719 17.296875 96.011719 19.066406 97.304688 20.976562 C 97.632812 21.464844 97.761719 22.058594 97.683594 22.640625 C 97.535156 23.734375 96.609375 24.6875 95.445312 24.5 C 94.980469 24.425781 94.570312 24.167969 94.273438 23.804688 C 92.933594 22.167969 91.871094 20.601562 90.296875 19.144531 C 88.878906 17.832031 87.308594 16.679688 85.613281 15.742188 C 83.964844 14.824219 82.207031 14.117188 80.382812 13.636719 C 78.570312 13.164062 76.707031 12.925781 74.835938 12.925781 C 72.964844 12.925781 71.101562 13.164062 69.289062 13.636719 C 67.464844 14.113281 65.707031 14.824219 64.058594 15.742188 C 62.367188 16.679688 60.796875 17.832031 59.375 19.144531 C 57.800781 20.601562 56.738281 22.164062 55.402344 23.804688 Z M 55.402344 23.804688 " fill-opacity="1" fill-rule="evenodd"/></g><g clip-path="url(#d7f95dd7c8)"><path fill="#ff66c4" d="M 47.851562 57.644531 L 47.851562 39.355469 C 47.851562 38.003906 47.9375 36.667969 48.101562 35.359375 L 47.269531 35.359375 C 45.613281 35.359375 44.105469 36.109375 43.007812 37.316406 C 41.886719 38.550781 41.191406 40.257812 41.191406 42.140625 L 41.191406 50.863281 C 41.191406 52.746094 41.886719 54.453125 43.007812 55.683594 C 44.105469 56.890625 45.613281 57.644531 47.269531 57.644531 Z M 47.851562 57.644531 " fill-opacity="1" fill-rule="evenodd"/></g><path fill="#ff66c4" d="M 50.003906 35.359375 C 49.832031 36.660156 49.742188 37.996094 49.742188 39.355469 L 49.742188 57.644531 L 52.734375 57.644531 C 53.121094 57.644531 53.34375 57.222656 53.34375 56.875 L 53.34375 36.125 C 53.34375 35.777344 53.121094 35.359375 52.734375 35.359375 Z M 50.003906 35.359375 " fill-opacity="1" fill-rule="evenodd"/><g clip-path="url(#87e663ee7c)"><path fill="#ff66c4" d="M 101.570312 35.359375 C 101.738281 36.667969 101.820312 38.003906 101.820312 39.355469 L 101.820312 57.644531 L 102.402344 57.644531 C 104.058594 57.644531 105.566406 56.890625 106.664062 55.683594 C 107.785156 54.453125 108.480469 52.746094 108.480469 50.863281 L 108.480469 42.140625 C 108.480469 40.257812 107.785156 38.550781 106.664062 37.316406 C 105.566406 36.109375 104.058594 35.359375 102.402344 35.359375 Z M 101.570312 35.359375 " fill-opacity="1" fill-rule="evenodd"/></g><path fill="#ff66c4" d="M 99.929688 57.644531 L 99.929688 39.355469 C 99.929688 37.996094 99.839844 36.660156 99.667969 35.359375 L 96.9375 35.359375 C 96.550781 35.359375 96.328125 35.777344 96.328125 36.125 L 96.328125 56.875 C 96.328125 57.222656 96.550781 57.644531 96.9375 57.644531 Z M 99.929688 57.644531 " fill-opacity="1" fill-rule="evenodd"/></svg>