<svg xmlns="http://www.w3.org/2000/svg" xmlns:xlink="http://www.w3.org/1999/xlink" width="200" zoomAndPan="magnify" viewBox="0 0 150 149.999998" height="200" preserveAspectRatio="xMidYMid meet" version="1.0"><defs><clipPath id="ddf61743b5"><path d="M 1 70 L 149 70 L 149 148.5 L 1 148.5 Z M 1 70 " clip-rule="nonzero"/></clipPath></defs><path fill="#ffd87d" d="M 47.125 115.800781 C 47.914062 120.675781 48.597656 124.886719 49.449219 129.957031 C 49.457031 129.996094 49.460938 130.035156 49.460938 130.082031 C 49.75 135.210938 46.769531 139.789062 41.5 142.320312 C 39.753906 143.160156 37.921875 143.730469 36.007812 144.027344 C 30.90625 144.824219 25.734375 143.578125 22.253906 140.464844 C 22.085938 140.3125 21.976562 140.125 21.925781 139.90625 C 18.515625 124.925781 16.125 109.785156 14.753906 94.480469 C 14.71875 94.105469 14.847656 93.800781 15.140625 93.5625 C 18.707031 90.632812 23.53125 88.59375 28.046875 88.089844 C 36.027344 87.207031 43.144531 91.707031 44.253906 98.335938 C 45.453125 105.539062 46.335938 110.992188 47.125 115.800781 Z M 129.109375 76.640625 C 129.027344 76.273438 128.808594 76.019531 128.460938 75.882812 C 124.171875 74.179688 118.953125 73.707031 114.507812 74.601562 C 106.636719 76.191406 101.226562 82.648438 102.191406 89.296875 C 103.238281 96.519531 104.058594 101.988281 104.78125 106.800781 C 105.515625 111.6875 106.140625 115.902344 106.875 121 C 106.878906 121.039062 106.886719 121.082031 106.898438 121.121094 C 108.1875 126.097656 112.417969 129.550781 118.210938 130.359375 C 120.128906 130.625 122.046875 130.609375 123.964844 130.3125 C 129.0625 129.515625 133.609375 126.753906 135.976562 122.730469 C 136.089844 122.535156 136.136719 122.320312 136.117188 122.097656 C 134.800781 106.785156 132.464844 91.636719 129.101562 76.640625 Z M 129.109375 76.640625 " fill-opacity="1" fill-rule="nonzero"/><path fill="#f599b1" d="M 139.875 107.765625 C 139.65625 107.800781 139.441406 107.820312 139.222656 107.832031 C 138.816406 107.851562 138.414062 107.832031 138.011719 107.773438 C 137.609375 107.714844 137.21875 107.617188 136.835938 107.480469 C 136.453125 107.34375 136.085938 107.171875 135.738281 106.964844 C 135.390625 106.753906 135.066406 106.515625 134.765625 106.242188 C 134.464844 105.96875 134.191406 105.671875 133.949219 105.34375 C 133.707031 105.019531 133.5 104.671875 133.324219 104.304688 C 133.152344 103.9375 133.015625 103.558594 132.914062 103.164062 C 132.816406 102.769531 132.757812 102.371094 132.734375 101.964844 C 131.542969 78.21875 127.484375 58.257812 120.320312 40.929688 C 118.765625 37.175781 116.871094 32.90625 114.015625 29.742188 C 112.546875 28.117188 110.644531 26.546875 108.015625 24.796875 C 95.300781 16.335938 79.007812 12.644531 63.304688 14.660156 C 47.601562 16.675781 32.710938 24.382812 22.457031 35.804688 C 19.863281 38.695312 17.933594 41.394531 16.5625 44.058594 C 12.660156 51.648438 12.417969 60.851562 12.699219 68.855469 C 13.171875 82.34375 13.941406 96.660156 17.625 110.332031 C 17.730469 110.726562 17.796875 111.125 17.824219 111.53125 C 17.851562 111.933594 17.839844 112.339844 17.785156 112.742188 C 17.734375 113.144531 17.644531 113.539062 17.511719 113.921875 C 17.382812 114.308594 17.214844 114.675781 17.015625 115.027344 C 16.8125 115.378906 16.574219 115.710938 16.308594 116.015625 C 16.042969 116.320312 15.746094 116.597656 15.425781 116.84375 C 15.101562 117.09375 14.757812 117.304688 14.394531 117.488281 C 14.03125 117.667969 13.652344 117.808594 13.261719 117.914062 C 12.867188 118.019531 12.46875 118.085938 12.066406 118.113281 C 11.660156 118.140625 11.253906 118.128906 10.851562 118.078125 C 10.449219 118.023438 10.054688 117.933594 9.671875 117.800781 C 9.285156 117.671875 8.917969 117.507812 8.566406 117.304688 C 8.214844 117.101562 7.886719 116.867188 7.578125 116.597656 C 7.273438 116.332031 6.996094 116.035156 6.75 115.714844 C 6.503906 115.390625 6.289062 115.050781 6.109375 114.683594 C 5.929688 114.320312 5.785156 113.941406 5.679688 113.550781 C 1.65625 98.613281 0.8125 82.871094 0.335938 69.289062 C 0 59.691406 0.359375 48.515625 5.5625 38.398438 C 7.425781 34.78125 9.941406 31.230469 13.253906 27.539062 C 25.457031 13.945312 43.117188 4.773438 61.722656 2.390625 C 80.328125 0.00390625 99.699219 4.410156 114.863281 14.496094 C 118.371094 16.832031 121.019531 19.042969 123.195312 21.453125 C 127.371094 26.082031 129.804688 31.488281 131.746094 36.203125 C 139.457031 54.859375 143.824219 76.167969 145.089844 101.34375 C 145.105469 101.722656 145.089844 102.101562 145.042969 102.476562 C 144.992188 102.851562 144.90625 103.21875 144.789062 103.578125 C 144.671875 103.9375 144.523438 104.28125 144.339844 104.617188 C 144.160156 104.949219 143.949219 105.261719 143.710938 105.554688 C 143.472656 105.847656 143.210938 106.117188 142.921875 106.363281 C 142.632812 106.609375 142.324219 106.824219 141.996094 107.015625 C 141.667969 107.203125 141.328125 107.363281 140.96875 107.488281 C 140.613281 107.613281 140.246094 107.707031 139.875 107.765625 Z M 139.875 107.765625 " fill-opacity="1" fill-rule="nonzero"/><g clip-path="url(#ddf61743b5)"><path fill="#a97bb6" d="M 25.636719 141.945312 C 25.644531 142.058594 25.640625 142.171875 25.613281 142.285156 C 24.914062 145.390625 22.609375 147.5625 19.550781 148.035156 C 19.417969 148.058594 19.28125 148.074219 19.144531 148.089844 C 15.292969 148.492188 11.648438 146.253906 9.855469 142.367188 C 5.261719 133.382812 2.429688 119.636719 1.203125 100.351562 C 1.203125 100.335938 1.203125 100.316406 1.203125 100.300781 C 1.101562 93.675781 5.628906 89.710938 9.945312 89.339844 C 13.800781 89.011719 16.707031 91.460938 17.351562 95.582031 C 18.28125 101.554688 19.601562 107.945312 20.875 114.132812 C 22.785156 123.40625 24.765625 133 25.636719 141.945312 Z M 143.796875 78.105469 C 143.796875 78.089844 143.789062 78.070312 143.785156 78.054688 C 141.863281 71.714844 136.339844 69.320312 132.117188 70.28125 C 128.34375 71.136719 126.320312 74.359375 126.964844 78.480469 C 127.894531 84.453125 128.585938 90.945312 129.257812 97.222656 C 130.261719 106.640625 131.300781 116.382812 133.195312 125.167969 C 133.21875 125.277344 133.261719 125.382812 133.320312 125.484375 C 134.933594 128.226562 137.789062 129.59375 140.847656 129.117188 C 140.980469 129.097656 141.117188 129.074219 141.25 129.042969 C 145.042969 128.257812 147.828125 125.003906 148.347656 120.765625 C 149.996094 110.800781 148.503906 96.847656 143.796875 78.105469 Z M 143.796875 78.105469 " fill-opacity="1" fill-rule="nonzero"/></g><path fill="#ffecc5" d="M 43.261719 133.980469 C 42.332031 134.96875 41.265625 135.78125 40.0625 136.414062 C 38.859375 137.046875 37.585938 137.460938 36.242188 137.664062 C 34.039062 138.019531 31.898438 137.773438 29.832031 136.929688 C 29.59375 136.832031 29.386719 136.695312 29.207031 136.515625 C 29.027344 136.335938 28.886719 136.128906 28.789062 135.890625 C 28.691406 135.65625 28.640625 135.410156 28.640625 135.15625 C 28.640625 134.902344 28.691406 134.65625 28.789062 134.421875 C 28.886719 134.183594 29.023438 133.976562 29.203125 133.796875 C 29.382812 133.617188 29.59375 133.476562 29.828125 133.378906 C 30.0625 133.28125 30.308594 133.234375 30.5625 133.234375 C 30.820312 133.234375 31.0625 133.28125 31.300781 133.382812 C 34.359375 134.644531 38.199219 133.800781 40.441406 131.371094 C 40.613281 131.191406 40.816406 131.050781 41.046875 130.949219 C 41.277344 130.847656 41.515625 130.792969 41.765625 130.789062 C 42.015625 130.78125 42.257812 130.820312 42.496094 130.910156 C 42.730469 130.996094 42.9375 131.125 43.121094 131.296875 C 43.308594 131.464844 43.453125 131.664062 43.558594 131.890625 C 43.664062 132.117188 43.726562 132.355469 43.738281 132.609375 C 43.75 132.859375 43.714844 133.101562 43.632812 133.339844 C 43.550781 133.574219 43.425781 133.789062 43.261719 133.976562 Z M 128.59375 120.242188 C 128.410156 120.066406 128.199219 119.933594 127.960938 119.839844 C 127.726562 119.75 127.480469 119.707031 127.222656 119.710938 C 126.96875 119.71875 126.726562 119.773438 126.492188 119.875 C 126.261719 119.980469 126.058594 120.125 125.882812 120.308594 C 123.609375 122.691406 119.332031 123.015625 116.726562 121 C 116.527344 120.847656 116.300781 120.734375 116.054688 120.667969 C 115.8125 120.601562 115.5625 120.585938 115.308594 120.617188 C 115.058594 120.648438 114.820312 120.726562 114.597656 120.855469 C 114.378906 120.980469 114.191406 121.144531 114.035156 121.347656 C 113.878906 121.546875 113.765625 121.773438 113.699219 122.015625 C 113.632812 122.261719 113.617188 122.511719 113.648438 122.765625 C 113.679688 123.015625 113.761719 123.253906 113.886719 123.476562 C 114.015625 123.695312 114.179688 123.882812 114.378906 124.039062 C 116.722656 125.851562 119.753906 126.503906 122.609375 126.058594 C 124.878906 125.703125 127.039062 124.660156 128.660156 122.953125 C 128.835938 122.769531 128.96875 122.558594 129.0625 122.324219 C 129.152344 122.085938 129.195312 121.839844 129.191406 121.585938 C 129.183594 121.332031 129.128906 121.085938 129.027344 120.855469 C 128.921875 120.621094 128.777344 120.417969 128.59375 120.242188 Z M 128.59375 120.242188 " fill-opacity="1" fill-rule="nonzero"/><path fill="#cfb8d9" d="M 10.207031 129.980469 C 7.878906 121.296875 6.355469 112.472656 5.628906 103.511719 C 5.617188 103.261719 5.648438 103.019531 5.730469 102.78125 C 5.8125 102.542969 5.933594 102.332031 6.101562 102.140625 C 6.265625 101.953125 6.457031 101.800781 6.683594 101.6875 C 6.90625 101.574219 7.144531 101.507812 7.394531 101.488281 C 7.644531 101.46875 7.886719 101.496094 8.128906 101.570312 C 8.367188 101.648438 8.582031 101.765625 8.773438 101.925781 C 8.96875 102.085938 9.125 102.277344 9.242188 102.496094 C 9.359375 102.71875 9.433594 102.953125 9.457031 103.203125 C 10.164062 111.933594 11.648438 120.527344 13.917969 128.984375 C 13.984375 129.230469 14 129.480469 13.96875 129.734375 C 13.933594 129.984375 13.855469 130.222656 13.726562 130.441406 C 13.601562 130.664062 13.433594 130.851562 13.234375 131.007812 C 13.03125 131.160156 12.808594 131.273438 12.5625 131.339844 C 12.492188 131.355469 12.425781 131.371094 12.355469 131.382812 C 12.125 131.417969 11.890625 131.410156 11.660156 131.363281 C 11.425781 131.3125 11.210938 131.222656 11.015625 131.09375 C 10.816406 130.964844 10.644531 130.804688 10.507812 130.613281 C 10.367188 130.417969 10.269531 130.210938 10.207031 129.980469 Z M 17.652344 140.535156 C 16.792969 138.703125 16.039062 136.832031 15.386719 134.917969 C 15.304688 134.675781 15.179688 134.460938 15.011719 134.269531 C 14.84375 134.078125 14.644531 133.925781 14.417969 133.8125 C 14.1875 133.703125 13.945312 133.636719 13.691406 133.621094 C 13.4375 133.605469 13.191406 133.636719 12.949219 133.71875 C 12.707031 133.800781 12.492188 133.925781 12.300781 134.09375 C 12.109375 134.261719 11.957031 134.460938 11.84375 134.6875 C 11.734375 134.917969 11.667969 135.160156 11.652344 135.414062 C 11.636719 135.667969 11.667969 135.914062 11.75 136.15625 C 12.445312 138.203125 13.253906 140.207031 14.171875 142.164062 C 14.355469 142.550781 14.632812 142.84375 15.007812 143.046875 C 15.386719 143.246094 15.785156 143.3125 16.207031 143.246094 C 16.386719 143.21875 16.558594 143.167969 16.726562 143.089844 C 16.957031 142.980469 17.15625 142.832031 17.328125 142.644531 C 17.5 142.457031 17.632812 142.242188 17.71875 142.003906 C 17.804688 141.765625 17.84375 141.515625 17.832031 141.261719 C 17.820312 141.007812 17.757812 140.765625 17.652344 140.535156 Z M 140.035156 82.542969 C 139.980469 82.292969 139.878906 82.0625 139.730469 81.855469 C 139.582031 81.644531 139.402344 81.472656 139.183594 81.335938 C 138.96875 81.203125 138.734375 81.113281 138.480469 81.070312 C 138.226562 81.027344 137.976562 81.035156 137.726562 81.09375 C 137.480469 81.152344 137.25 81.253906 137.042969 81.40625 C 136.835938 81.554688 136.664062 81.738281 136.53125 81.957031 C 136.394531 82.175781 136.308594 82.410156 136.269531 82.660156 C 136.226562 82.914062 136.238281 83.164062 136.296875 83.414062 C 138.285156 91.945312 139.484375 100.582031 139.902344 109.332031 C 139.914062 109.585938 139.972656 109.828125 140.082031 110.058594 C 140.191406 110.289062 140.339844 110.488281 140.527344 110.660156 C 140.714844 110.832031 140.929688 110.960938 141.171875 111.046875 C 141.410156 111.132812 141.65625 111.167969 141.910156 111.15625 C 141.980469 111.15625 142.050781 111.144531 142.117188 111.136719 C 142.351562 111.097656 142.570312 111.023438 142.777344 110.902344 C 142.980469 110.785156 143.15625 110.636719 143.308594 110.453125 C 143.457031 110.269531 143.570312 110.066406 143.640625 109.839844 C 143.714844 109.613281 143.746094 109.382812 143.738281 109.148438 C 143.308594 100.167969 142.074219 91.300781 140.035156 82.542969 Z M 142.261719 113.546875 C 142.007812 113.539062 141.761719 113.585938 141.523438 113.675781 C 141.289062 113.769531 141.078125 113.90625 140.894531 114.082031 C 140.710938 114.257812 140.566406 114.460938 140.464844 114.695312 C 140.363281 114.929688 140.308594 115.175781 140.304688 115.429688 C 140.265625 117.449219 140.117188 119.464844 139.859375 121.46875 C 139.824219 121.722656 139.84375 121.96875 139.910156 122.214844 C 139.976562 122.460938 140.085938 122.6875 140.242188 122.886719 C 140.398438 123.089844 140.585938 123.253906 140.804688 123.378906 C 141.027344 123.507812 141.261719 123.585938 141.515625 123.621094 C 141.695312 123.644531 141.878906 123.644531 142.058594 123.621094 C 142.480469 123.554688 142.839844 123.367188 143.136719 123.0625 C 143.433594 122.757812 143.609375 122.390625 143.664062 121.96875 C 143.941406 119.824219 144.101562 117.667969 144.144531 115.507812 C 144.148438 115.253906 144.105469 115.007812 144.011719 114.769531 C 143.921875 114.53125 143.785156 114.320312 143.609375 114.136719 C 143.433594 113.953125 143.230469 113.808594 142.996094 113.707031 C 142.761719 113.605469 142.519531 113.550781 142.261719 113.546875 Z M 142.261719 113.546875 " fill-opacity="1" fill-rule="nonzero"/></svg>