<svg xmlns="http://www.w3.org/2000/svg" xmlns:xlink="http://www.w3.org/1999/xlink" width="200" zoomAndPan="magnify" viewBox="0 0 150 149.999998" height="200" preserveAspectRatio="xMidYMid meet" version="1.0"><path fill="#00b8d4" d="M 62.5 47.746094 L 62.5 97.960938 C 62.5 99.6875 61.09375 101.097656 59.375 101.097656 L 25 101.097656 C 24.71875 101.097656 24.46875 101.066406 24.21875 100.972656 C 22.875 100.660156 21.875 99.402344 21.875 97.960938 L 21.875 47.746094 C 21.875 46.019531 23.28125 44.609375 25 44.609375 L 59.375 44.609375 C 61.09375 44.609375 62.5 46.019531 62.5 47.746094 Z M 62.5 47.746094 " fill-opacity="1" fill-rule="nonzero"/><path fill="#00b8d4" d="M 49.816406 36.984375 C 49.1875 33.824219 46.828125 31.296875 43.839844 30.667969 C 38.648438 29.5625 34.246094 33.511719 34.246094 38.40625 C 34.246094 39.984375 34.71875 41.25 35.347656 42.515625 C 35.902344 43.351562 35.441406 44.390625 34.460938 44.628906 L 49.640625 44.628906 C 48.773438 44.390625 48.316406 43.355469 48.871094 42.515625 C 49.816406 40.933594 50.289062 39.035156 49.816406 36.984375 Z M 49.816406 36.984375 " fill-opacity="1" fill-rule="nonzero"/><path fill="#00b8d4" d="M 49.816406 108.734375 C 49.1875 111.894531 46.828125 114.421875 43.839844 115.050781 C 38.648438 116.15625 34.246094 112.207031 34.246094 107.3125 C 34.246094 105.734375 34.71875 104.46875 35.347656 103.203125 C 35.902344 102.367188 35.441406 101.328125 34.460938 101.089844 L 49.640625 101.089844 C 48.773438 101.328125 48.316406 102.363281 48.871094 103.203125 C 49.816406 104.785156 50.289062 106.683594 49.816406 108.734375 Z M 49.816406 108.734375 " fill-opacity="1" fill-rule="nonzero"/><path fill="#00b8d4" d="M 70.109375 82.078125 C 73.257812 81.445312 75.773438 79.078125 76.398438 76.078125 C 77.5 70.863281 73.570312 66.441406 68.695312 66.441406 C 67.121094 66.441406 65.863281 66.914062 64.601562 67.546875 C 63.769531 68.105469 62.734375 67.640625 62.496094 66.65625 L 62.496094 81.902344 C 62.734375 81.027344 63.765625 80.570312 64.601562 81.128906 C 66.179688 82.078125 68.066406 82.550781 70.109375 82.078125 Z M 70.109375 82.078125 " fill-opacity="1" fill-rule="nonzero"/><path fill="#1976d2" d="M 84.375 44.601562 C 82.648438 44.601562 81.25 46.007812 81.25 47.738281 L 81.25 66.65625 C 81.488281 67.640625 82.519531 68.105469 83.355469 67.546875 C 84.617188 66.914062 85.871094 66.441406 87.445312 66.441406 C 92.320312 66.441406 96.253906 70.863281 95.152344 76.078125 C 94.523438 79.078125 92.007812 81.445312 88.863281 82.078125 C 86.820312 82.550781 84.929688 82.078125 83.359375 81.128906 C 82.523438 80.570312 81.492188 81.027344 81.253906 81.902344 L 81.253906 97.953125 C 81.253906 99.6875 82.652344 101.09375 84.378906 101.09375 L 125.003906 101.09375 C 126.726562 101.09375 128.128906 99.6875 128.128906 97.953125 L 128.128906 47.738281 C 128.128906 46.007812 126.726562 44.601562 125.003906 44.601562 Z M 84.375 44.601562 " fill-opacity="1" fill-rule="nonzero"/><path fill="#1976d2" d="M 112.445312 36.984375 C 111.820312 33.824219 109.460938 31.296875 106.472656 30.667969 C 101.277344 29.5625 96.875 33.511719 96.875 38.40625 C 96.875 39.984375 97.347656 41.25 97.976562 42.515625 C 98.53125 43.351562 98.070312 44.390625 97.089844 44.628906 L 112.269531 44.628906 C 111.398438 44.390625 110.945312 43.355469 111.5 42.515625 C 112.445312 40.933594 112.917969 39.035156 112.445312 36.984375 Z M 112.445312 36.984375 " fill-opacity="1" fill-rule="nonzero"/><path fill="#1976d2" d="M 112.445312 108.734375 C 111.820312 111.894531 109.460938 114.421875 106.472656 115.050781 C 101.277344 116.160156 96.875 112.210938 96.875 107.3125 C 96.875 105.734375 97.347656 104.46875 97.976562 103.203125 C 98.53125 102.367188 98.070312 101.328125 97.089844 101.089844 L 112.269531 101.089844 C 111.398438 101.328125 110.945312 102.363281 111.5 103.203125 C 112.445312 104.785156 112.917969 106.683594 112.445312 108.734375 Z M 112.445312 108.734375 " fill-opacity="1" fill-rule="nonzero"/><path fill="#0d47a1" d="M 117.523438 95.449219 C 119.648438 98.117188 122.523438 100.0625 125.773438 100.972656 C 127.117188 100.660156 128.117188 99.402344 128.117188 97.960938 L 128.117188 76.023438 L 124.992188 79.160156 L 121.085938 79.160156 L 111.492188 71.816406 C 109.460938 70.1875 103.90625 72.132812 103.90625 72.132812 Z M 117.523438 95.449219 " fill-opacity="1" fill-rule="nonzero"/><path fill="#ffb74d" d="M 104.226562 72.660156 L 117.539062 89.113281 C 119.871094 92.074219 123.15625 94.136719 126.832031 94.941406 L 150 101.09375 L 150 80.894531 L 144.953125 78.917969 L 133.417969 61.039062 C 132.671875 59.886719 131.542969 59.035156 130.230469 58.640625 L 128.125 57.941406 L 128.125 69.707031 L 125 72.847656 L 121.09375 72.847656 L 111.492188 65.488281 C 109.484375 63.84375 106.570312 63.957031 104.703125 65.761719 C 102.796875 67.59375 102.589844 70.582031 104.226562 72.660156 Z M 104.226562 72.660156 " fill-opacity="1" fill-rule="nonzero"/><path fill="#00838f" d="M 32.46875 95.449219 C 30.34375 98.117188 27.46875 100.0625 24.21875 100.972656 C 22.875 100.660156 21.875 99.402344 21.875 97.960938 L 21.875 76.023438 L 25 79.160156 L 28.90625 79.160156 L 38.5 71.816406 C 40.53125 70.1875 46.09375 72.132812 46.09375 72.132812 Z M 32.46875 95.449219 " fill-opacity="1" fill-rule="nonzero"/><path fill="#ffe0b2" d="M 106.09375 67.3125 C 103.792969 69.652344 106.757812 72.664062 106.757812 72.664062 C 106.757812 72.664062 109.054688 71.984375 110.007812 71.03125 C 110.953125 70.082031 111.492188 68.046875 111.492188 68.046875 C 111.492188 68.046875 108.476562 64.878906 106.09375 67.3125 Z M 106.09375 67.3125 " fill-opacity="1" fill-rule="nonzero"/><path fill="#ffb74d" d="M 45.296875 65.761719 C 43.429688 63.960938 40.519531 63.84375 38.507812 65.488281 L 28.90625 72.847656 L 25 72.847656 L 21.875 69.707031 L 21.875 57.941406 L 19.765625 58.640625 C 18.453125 59.039062 17.324219 59.886719 16.578125 61.039062 L 5.042969 78.917969 L 0 80.894531 L 0 101.09375 L 23.167969 94.941406 C 26.84375 94.136719 30.128906 92.074219 32.460938 89.113281 L 45.773438 72.660156 C 47.410156 70.582031 47.203125 67.59375 45.296875 65.761719 Z M 45.296875 65.761719 " fill-opacity="1" fill-rule="nonzero"/><path fill="#ffe0b2" d="M 38.507812 68.046875 C 38.507812 68.046875 39.046875 70.082031 39.992188 71.03125 C 40.941406 71.984375 43.242188 72.664062 43.242188 72.664062 C 43.242188 72.664062 46.207031 69.652344 43.90625 67.3125 C 41.523438 64.878906 38.507812 68.046875 38.507812 68.046875 Z M 38.507812 68.046875 " fill-opacity="1" fill-rule="nonzero"/></svg>