<svg xmlns="http://www.w3.org/2000/svg" xmlns:xlink="http://www.w3.org/1999/xlink" width="200" zoomAndPan="magnify" viewBox="0 0 150 149.999998" height="200" preserveAspectRatio="xMidYMid meet" version="1.0"><defs><clipPath id="af32d4c8be"><path d="M 107.3125 43.710938 L 138.550781 43.710938 L 138.550781 73.109375 L 107.3125 73.109375 Z M 107.3125 43.710938 " clip-rule="nonzero"/></clipPath><clipPath id="a3e9f65f93"><path d="M 114.0625 43.710938 L 131.734375 43.710938 C 133.523438 43.710938 135.242188 44.421875 136.507812 45.6875 C 137.773438 46.953125 138.484375 48.667969 138.484375 50.460938 L 138.484375 66.359375 C 138.484375 68.152344 137.773438 69.867188 136.507812 71.132812 C 135.242188 72.398438 133.523438 73.109375 131.734375 73.109375 L 114.0625 73.109375 C 112.269531 73.109375 110.554688 72.398438 109.289062 71.132812 C 108.023438 69.867188 107.3125 68.152344 107.3125 66.359375 L 107.3125 50.460938 C 107.3125 48.667969 108.023438 46.953125 109.289062 45.6875 C 110.554688 44.421875 112.269531 43.710938 114.0625 43.710938 Z M 114.0625 43.710938 " clip-rule="nonzero"/></clipPath><clipPath id="046c705ed7"><path d="M 0.3125 0.710938 L 31.550781 0.710938 L 31.550781 30.109375 L 0.3125 30.109375 Z M 0.3125 0.710938 " clip-rule="nonzero"/></clipPath><clipPath id="4419a4ec0e"><path d="M 7.0625 0.710938 L 24.734375 0.710938 C 26.523438 0.710938 28.242188 1.421875 29.507812 2.6875 C 30.773438 3.953125 31.484375 5.667969 31.484375 7.460938 L 31.484375 23.359375 C 31.484375 25.152344 30.773438 26.867188 29.507812 28.132812 C 28.242188 29.398438 26.523438 30.109375 24.734375 30.109375 L 7.0625 30.109375 C 5.269531 30.109375 3.554688 29.398438 2.289062 28.132812 C 1.023438 26.867188 0.3125 25.152344 0.3125 23.359375 L 0.3125 7.460938 C 0.3125 5.667969 1.023438 3.953125 2.289062 2.6875 C 3.554688 1.421875 5.269531 0.710938 7.0625 0.710938 Z M 7.0625 0.710938 " clip-rule="nonzero"/></clipPath><clipPath id="a5888025d5"><rect x="0" width="32" y="0" height="31"/></clipPath><clipPath id="8093d164cd"><path d="M 15 44.15625 L 46.238281 44.15625 L 46.238281 73.558594 L 15 73.558594 Z M 15 44.15625 " clip-rule="nonzero"/></clipPath><clipPath id="8cc7ed4a26"><path d="M 21.75 44.15625 L 39.421875 44.15625 C 41.210938 44.15625 42.929688 44.867188 44.195312 46.132812 C 45.460938 47.398438 46.171875 49.117188 46.171875 50.90625 L 46.171875 66.808594 C 46.171875 68.597656 45.460938 70.316406 44.195312 71.582031 C 42.929688 72.847656 41.210938 73.558594 39.421875 73.558594 L 21.75 73.558594 C 19.960938 73.558594 18.242188 72.847656 16.976562 71.582031 C 15.710938 70.316406 15 68.597656 15 66.808594 L 15 50.90625 C 15 49.117188 15.710938 47.398438 16.976562 46.132812 C 18.242188 44.867188 19.960938 44.15625 21.75 44.15625 Z M 21.75 44.15625 " clip-rule="nonzero"/></clipPath><clipPath id="e6e87e07b7"><path d="M 0 0.15625 L 31.238281 0.15625 L 31.238281 29.558594 L 0 29.558594 Z M 0 0.15625 " clip-rule="nonzero"/></clipPath><clipPath id="88d41770e4"><path d="M 6.75 0.15625 L 24.421875 0.15625 C 26.210938 0.15625 27.929688 0.867188 29.195312 2.132812 C 30.460938 3.398438 31.171875 5.117188 31.171875 6.90625 L 31.171875 22.808594 C 31.171875 24.597656 30.460938 26.316406 29.195312 27.582031 C 27.929688 28.847656 26.210938 29.558594 24.421875 29.558594 L 6.75 29.558594 C 4.960938 29.558594 3.242188 28.847656 1.976562 27.582031 C 0.710938 26.316406 0 24.597656 0 22.808594 L 0 6.90625 C 0 5.117188 0.710938 3.398438 1.976562 2.132812 C 3.242188 0.867188 4.960938 0.15625 6.75 0.15625 Z M 6.75 0.15625 " clip-rule="nonzero"/></clipPath><clipPath id="8dd8f3a1a9"><rect x="0" width="32" y="0" height="30"/></clipPath><clipPath id="dfc391c174"><path d="M 107.3125 7.5 L 138.550781 7.5 L 138.550781 36.902344 L 107.3125 36.902344 Z M 107.3125 7.5 " clip-rule="nonzero"/></clipPath><clipPath id="9de84415ab"><path d="M 114.0625 7.5 L 131.734375 7.5 C 133.523438 7.5 135.242188 8.210938 136.507812 9.476562 C 137.773438 10.742188 138.484375 12.460938 138.484375 14.25 L 138.484375 30.152344 C 138.484375 31.941406 137.773438 33.660156 136.507812 34.925781 C 135.242188 36.191406 133.523438 36.902344 131.734375 36.902344 L 114.0625 36.902344 C 112.269531 36.902344 110.554688 36.191406 109.289062 34.925781 C 108.023438 33.660156 107.3125 31.941406 107.3125 30.152344 L 107.3125 14.25 C 107.3125 12.460938 108.023438 10.742188 109.289062 9.476562 C 110.554688 8.210938 112.269531 7.5 114.0625 7.5 Z M 114.0625 7.5 " clip-rule="nonzero"/></clipPath><clipPath id="5084b8a345"><path d="M 0.3125 0.5 L 31.550781 0.5 L 31.550781 29.902344 L 0.3125 29.902344 Z M 0.3125 0.5 " clip-rule="nonzero"/></clipPath><clipPath id="6acc208d9f"><path d="M 7.0625 0.5 L 24.734375 0.5 C 26.523438 0.5 28.242188 1.210938 29.507812 2.476562 C 30.773438 3.742188 31.484375 5.460938 31.484375 7.25 L 31.484375 23.152344 C 31.484375 24.941406 30.773438 26.660156 29.507812 27.925781 C 28.242188 29.191406 26.523438 29.902344 24.734375 29.902344 L 7.0625 29.902344 C 5.269531 29.902344 3.554688 29.191406 2.289062 27.925781 C 1.023438 26.660156 0.3125 24.941406 0.3125 23.152344 L 0.3125 7.25 C 0.3125 5.460938 1.023438 3.742188 2.289062 2.476562 C 3.554688 1.210938 5.269531 0.5 7.0625 0.5 Z M 7.0625 0.5 " clip-rule="nonzero"/></clipPath><clipPath id="97b02071c0"><rect x="0" width="32" y="0" height="30"/></clipPath><clipPath id="2b66ec46db"><path d="M 15 7.949219 L 46.238281 7.949219 L 46.238281 37.351562 L 15 37.351562 Z M 15 7.949219 " clip-rule="nonzero"/></clipPath><clipPath id="d6dad41393"><path d="M 21.75 7.949219 L 39.421875 7.949219 C 41.210938 7.949219 42.929688 8.660156 44.195312 9.925781 C 45.460938 11.191406 46.171875 12.90625 46.171875 14.699219 L 46.171875 30.601562 C 46.171875 32.390625 45.460938 34.105469 44.195312 35.371094 C 42.929688 36.640625 41.210938 37.351562 39.421875 37.351562 L 21.75 37.351562 C 19.960938 37.351562 18.242188 36.640625 16.976562 35.371094 C 15.710938 34.105469 15 32.390625 15 30.601562 L 15 14.699219 C 15 12.90625 15.710938 11.191406 16.976562 9.925781 C 18.242188 8.660156 19.960938 7.949219 21.75 7.949219 Z M 21.75 7.949219 " clip-rule="nonzero"/></clipPath><clipPath id="4c6428c2f3"><path d="M 0 0.949219 L 31.238281 0.949219 L 31.238281 30.351562 L 0 30.351562 Z M 0 0.949219 " clip-rule="nonzero"/></clipPath><clipPath id="e18eb90ad7"><path d="M 6.75 0.949219 L 24.421875 0.949219 C 26.210938 0.949219 27.929688 1.660156 29.195312 2.925781 C 30.460938 4.191406 31.171875 5.90625 31.171875 7.699219 L 31.171875 23.601562 C 31.171875 25.390625 30.460938 27.105469 29.195312 28.371094 C 27.929688 29.640625 26.210938 30.351562 24.421875 30.351562 L 6.75 30.351562 C 4.960938 30.351562 3.242188 29.640625 1.976562 28.371094 C 0.710938 27.105469 0 25.390625 0 23.601562 L 0 7.699219 C 0 5.90625 0.710938 4.191406 1.976562 2.925781 C 3.242188 1.660156 4.960938 0.949219 6.75 0.949219 Z M 6.75 0.949219 " clip-rule="nonzero"/></clipPath><clipPath id="e9b7be09a4"><rect x="0" width="32" y="0" height="31"/></clipPath><clipPath id="3354a08f88"><path d="M 107.3125 116.519531 L 138.550781 116.519531 L 138.550781 145.921875 L 107.3125 145.921875 Z M 107.3125 116.519531 " clip-rule="nonzero"/></clipPath><clipPath id="c249867a9d"><path d="M 114.0625 116.519531 L 131.734375 116.519531 C 133.523438 116.519531 135.242188 117.230469 136.507812 118.496094 C 137.773438 119.761719 138.484375 121.476562 138.484375 123.269531 L 138.484375 139.171875 C 138.484375 140.960938 137.773438 142.675781 136.507812 143.941406 C 135.242188 145.207031 133.523438 145.921875 131.734375 145.921875 L 114.0625 145.921875 C 112.269531 145.921875 110.554688 145.207031 109.289062 143.941406 C 108.023438 142.675781 107.3125 140.960938 107.3125 139.171875 L 107.3125 123.269531 C 107.3125 121.476562 108.023438 119.761719 109.289062 118.496094 C 110.554688 117.230469 112.269531 116.519531 114.0625 116.519531 Z M 114.0625 116.519531 " clip-rule="nonzero"/></clipPath><clipPath id="f1c08ea539"><path d="M 0.3125 0.519531 L 31.550781 0.519531 L 31.550781 29.921875 L 0.3125 29.921875 Z M 0.3125 0.519531 " clip-rule="nonzero"/></clipPath><clipPath id="818c2e2f21"><path d="M 7.0625 0.519531 L 24.734375 0.519531 C 26.523438 0.519531 28.242188 1.230469 29.507812 2.496094 C 30.773438 3.761719 31.484375 5.476562 31.484375 7.269531 L 31.484375 23.171875 C 31.484375 24.960938 30.773438 26.675781 29.507812 27.941406 C 28.242188 29.207031 26.523438 29.921875 24.734375 29.921875 L 7.0625 29.921875 C 5.269531 29.921875 3.554688 29.207031 2.289062 27.941406 C 1.023438 26.675781 0.3125 24.960938 0.3125 23.171875 L 0.3125 7.269531 C 0.3125 5.476562 1.023438 3.761719 2.289062 2.496094 C 3.554688 1.230469 5.269531 0.519531 7.0625 0.519531 Z M 7.0625 0.519531 " clip-rule="nonzero"/></clipPath><clipPath id="3c55da0697"><rect x="0" width="32" y="0" height="30"/></clipPath><clipPath id="bf227a12c7"><path d="M 15 116.964844 L 46.238281 116.964844 L 46.238281 146.367188 L 15 146.367188 Z M 15 116.964844 " clip-rule="nonzero"/></clipPath><clipPath id="0760c4a767"><path d="M 21.75 116.964844 L 39.421875 116.964844 C 41.210938 116.964844 42.929688 117.675781 44.195312 118.941406 C 45.460938 120.210938 46.171875 121.925781 46.171875 123.714844 L 46.171875 139.617188 C 46.171875 141.410156 45.460938 143.125 44.195312 144.390625 C 42.929688 145.65625 41.210938 146.367188 39.421875 146.367188 L 21.75 146.367188 C 19.960938 146.367188 18.242188 145.65625 16.976562 144.390625 C 15.710938 143.125 15 141.410156 15 139.617188 L 15 123.714844 C 15 121.925781 15.710938 120.210938 16.976562 118.941406 C 18.242188 117.675781 19.960938 116.964844 21.75 116.964844 Z M 21.75 116.964844 " clip-rule="nonzero"/></clipPath><clipPath id="03e39b7c64"><path d="M 0 0.964844 L 31.238281 0.964844 L 31.238281 30.367188 L 0 30.367188 Z M 0 0.964844 " clip-rule="nonzero"/></clipPath><clipPath id="5d4768ddc1"><path d="M 6.75 0.964844 L 24.421875 0.964844 C 26.210938 0.964844 27.929688 1.675781 29.195312 2.941406 C 30.460938 4.210938 31.171875 5.925781 31.171875 7.714844 L 31.171875 23.617188 C 31.171875 25.410156 30.460938 27.125 29.195312 28.390625 C 27.929688 29.65625 26.210938 30.367188 24.421875 30.367188 L 6.75 30.367188 C 4.960938 30.367188 3.242188 29.65625 1.976562 28.390625 C 0.710938 27.125 0 25.410156 0 23.617188 L 0 7.714844 C 0 5.925781 0.710938 4.210938 1.976562 2.941406 C 3.242188 1.675781 4.960938 0.964844 6.75 0.964844 Z M 6.75 0.964844 " clip-rule="nonzero"/></clipPath><clipPath id="3ed8e2ce77"><rect x="0" width="32" y="0" height="31"/></clipPath><clipPath id="e7f0d8fc7d"><path d="M 107.3125 80.308594 L 138.550781 80.308594 L 138.550781 109.710938 L 107.3125 109.710938 Z M 107.3125 80.308594 " clip-rule="nonzero"/></clipPath><clipPath id="ee31acb2f7"><path d="M 114.0625 80.308594 L 131.734375 80.308594 C 133.523438 80.308594 135.242188 81.019531 136.507812 82.285156 C 137.773438 83.550781 138.484375 85.269531 138.484375 87.058594 L 138.484375 102.960938 C 138.484375 104.75 137.773438 106.46875 136.507812 107.734375 C 135.242188 109 133.523438 109.710938 131.734375 109.710938 L 114.0625 109.710938 C 112.269531 109.710938 110.554688 109 109.289062 107.734375 C 108.023438 106.46875 107.3125 104.75 107.3125 102.960938 L 107.3125 87.058594 C 107.3125 85.269531 108.023438 83.550781 109.289062 82.285156 C 110.554688 81.019531 112.269531 80.308594 114.0625 80.308594 Z M 114.0625 80.308594 " clip-rule="nonzero"/></clipPath><clipPath id="c4f135ecfb"><path d="M 0.3125 0.308594 L 31.550781 0.308594 L 31.550781 29.710938 L 0.3125 29.710938 Z M 0.3125 0.308594 " clip-rule="nonzero"/></clipPath><clipPath id="96c098b821"><path d="M 7.0625 0.308594 L 24.734375 0.308594 C 26.523438 0.308594 28.242188 1.019531 29.507812 2.285156 C 30.773438 3.550781 31.484375 5.269531 31.484375 7.058594 L 31.484375 22.960938 C 31.484375 24.75 30.773438 26.46875 29.507812 27.734375 C 28.242188 29 26.523438 29.710938 24.734375 29.710938 L 7.0625 29.710938 C 5.269531 29.710938 3.554688 29 2.289062 27.734375 C 1.023438 26.46875 0.3125 24.75 0.3125 22.960938 L 0.3125 7.058594 C 0.3125 5.269531 1.023438 3.550781 2.289062 2.285156 C 3.554688 1.019531 5.269531 0.308594 7.0625 0.308594 Z M 7.0625 0.308594 " clip-rule="nonzero"/></clipPath><clipPath id="fd8bb1ec40"><rect x="0" width="32" y="0" height="30"/></clipPath><clipPath id="12c765a24c"><path d="M 15 80.757812 L 46.238281 80.757812 L 46.238281 110.160156 L 15 110.160156 Z M 15 80.757812 " clip-rule="nonzero"/></clipPath><clipPath id="d88b55747a"><path d="M 21.75 80.757812 L 39.421875 80.757812 C 41.210938 80.757812 42.929688 81.46875 44.195312 82.734375 C 45.460938 84 46.171875 85.71875 46.171875 87.507812 L 46.171875 103.410156 C 46.171875 105.199219 45.460938 106.917969 44.195312 108.183594 C 42.929688 109.449219 41.210938 110.160156 39.421875 110.160156 L 21.75 110.160156 C 19.960938 110.160156 18.242188 109.449219 16.976562 108.183594 C 15.710938 106.917969 15 105.199219 15 103.410156 L 15 87.507812 C 15 85.71875 15.710938 84 16.976562 82.734375 C 18.242188 81.46875 19.960938 80.757812 21.75 80.757812 Z M 21.75 80.757812 " clip-rule="nonzero"/></clipPath><clipPath id="3cba0236f5"><path d="M 0 0.757812 L 31.238281 0.757812 L 31.238281 30.160156 L 0 30.160156 Z M 0 0.757812 " clip-rule="nonzero"/></clipPath><clipPath id="9ff13256f7"><path d="M 6.75 0.757812 L 24.421875 0.757812 C 26.210938 0.757812 27.929688 1.46875 29.195312 2.734375 C 30.460938 4 31.171875 5.71875 31.171875 7.507812 L 31.171875 23.410156 C 31.171875 25.199219 30.460938 26.917969 29.195312 28.183594 C 27.929688 29.449219 26.210938 30.160156 24.421875 30.160156 L 6.75 30.160156 C 4.960938 30.160156 3.242188 29.449219 1.976562 28.183594 C 0.710938 26.917969 0 25.199219 0 23.410156 L 0 7.507812 C 0 5.71875 0.710938 4 1.976562 2.734375 C 3.242188 1.46875 4.960938 0.757812 6.75 0.757812 Z M 6.75 0.757812 " clip-rule="nonzero"/></clipPath><clipPath id="ad4abbc1eb"><rect x="0" width="32" y="0" height="31"/></clipPath><clipPath id="f04c978901"><path d="M 47.621094 22 L 106 22 L 106 96 L 47.621094 96 Z M 47.621094 22 " clip-rule="nonzero"/></clipPath></defs><g clip-path="url(#af32d4c8be)"><g clip-path="url(#a3e9f65f93)"><g transform="matrix(1, 0, 0, 1, 107, 43)"><g clip-path="url(#a5888025d5)"><g clip-path="url(#046c705ed7)"><g clip-path="url(#4419a4ec0e)"><path fill="#72d1e5" d="M 0.3125 0.710938 L 31.433594 0.710938 L 31.433594 30.109375 L 0.3125 30.109375 Z M 0.3125 0.710938 " fill-opacity="1" fill-rule="nonzero"/></g></g></g></g></g></g><g clip-path="url(#8093d164cd)"><g clip-path="url(#8cc7ed4a26)"><g transform="matrix(1, 0, 0, 1, 15, 44)"><g clip-path="url(#8dd8f3a1a9)"><g clip-path="url(#e6e87e07b7)"><g clip-path="url(#88d41770e4)"><path fill="#ffbd59" d="M 0 0.15625 L 31.125 0.15625 L 31.125 29.558594 L 0 29.558594 Z M 0 0.15625 " fill-opacity="1" fill-rule="nonzero"/></g></g></g></g></g></g><g clip-path="url(#dfc391c174)"><g clip-path="url(#9de84415ab)"><g transform="matrix(1, 0, 0, 1, 107, 7)"><g clip-path="url(#97b02071c0)"><g clip-path="url(#5084b8a345)"><g clip-path="url(#6acc208d9f)"><path fill="#78d0b1" d="M 0.3125 0.5 L 31.433594 0.5 L 31.433594 29.902344 L 0.3125 29.902344 Z M 0.3125 0.5 " fill-opacity="1" fill-rule="nonzero"/></g></g></g></g></g></g><g clip-path="url(#2b66ec46db)"><g clip-path="url(#d6dad41393)"><g transform="matrix(1, 0, 0, 1, 15, 7)"><g clip-path="url(#e9b7be09a4)"><g clip-path="url(#4c6428c2f3)"><g clip-path="url(#e18eb90ad7)"><path fill="#ff66c4" d="M 0 0.949219 L 31.125 0.949219 L 31.125 30.351562 L 0 30.351562 Z M 0 0.949219 " fill-opacity="1" fill-rule="nonzero"/></g></g></g></g></g></g><g clip-path="url(#3354a08f88)"><g clip-path="url(#c249867a9d)"><g transform="matrix(1, 0, 0, 1, 107, 116)"><g clip-path="url(#3c55da0697)"><g clip-path="url(#f1c08ea539)"><g clip-path="url(#818c2e2f21)"><path fill="#72d1e5" d="M 0.3125 0.519531 L 31.433594 0.519531 L 31.433594 29.921875 L 0.3125 29.921875 Z M 0.3125 0.519531 " fill-opacity="1" fill-rule="nonzero"/></g></g></g></g></g></g><g clip-path="url(#bf227a12c7)"><g clip-path="url(#0760c4a767)"><g transform="matrix(1, 0, 0, 1, 15, 116)"><g clip-path="url(#3ed8e2ce77)"><g clip-path="url(#03e39b7c64)"><g clip-path="url(#5d4768ddc1)"><path fill="#ffbd59" d="M 0 0.964844 L 31.125 0.964844 L 31.125 30.367188 L 0 30.367188 Z M 0 0.964844 " fill-opacity="1" fill-rule="nonzero"/></g></g></g></g></g></g><g clip-path="url(#e7f0d8fc7d)"><g clip-path="url(#ee31acb2f7)"><g transform="matrix(1, 0, 0, 1, 107, 80)"><g clip-path="url(#fd8bb1ec40)"><g clip-path="url(#c4f135ecfb)"><g clip-path="url(#96c098b821)"><path fill="#78d0b1" d="M 0.3125 0.308594 L 31.433594 0.308594 L 31.433594 29.710938 L 0.3125 29.710938 Z M 0.3125 0.308594 " fill-opacity="1" fill-rule="nonzero"/></g></g></g></g></g></g><g clip-path="url(#12c765a24c)"><g clip-path="url(#d88b55747a)"><g transform="matrix(1, 0, 0, 1, 15, 80)"><g clip-path="url(#ad4abbc1eb)"><g clip-path="url(#3cba0236f5)"><g clip-path="url(#9ff13256f7)"><path fill="#ff66c4" d="M 0 0.757812 L 31.125 0.757812 L 31.125 30.160156 L 0 30.160156 Z M 0 0.757812 " fill-opacity="1" fill-rule="nonzero"/></g></g></g></g></g></g><g clip-path="url(#f04c978901)"><path fill="#c8e1f1" d="M 105.691406 88.980469 C 105.535156 87.503906 103.933594 85.945312 103.121094 84.792969 C 101.917969 83.089844 100.757812 81.367188 99.234375 79.933594 C 98.507812 79.246094 97.453125 80.183594 97.742188 81.023438 C 98.476562 83.15625 99.738281 85.625 101.121094 87.511719 C 98.660156 87.191406 96.34375 86.757812 94.007812 85.714844 C 91.359375 84.53125 88.945312 82.851562 86.820312 80.882812 C 82.128906 76.546875 79.050781 70.710938 76.816406 64.804688 C 74.4375 58.519531 72.96875 51.949219 71.226562 45.46875 C 69.625 39.511719 67.765625 33.164062 63.789062 28.3125 C 60.085938 23.792969 54.191406 20.828125 48.4375 22.769531 C 47.613281 23.046875 47.796875 24.433594 48.722656 24.316406 C 55.25 23.5 60.558594 27.878906 63.46875 33.316406 C 66.4375 38.875 67.683594 45.414062 69.230469 51.46875 C 72.25 63.3125 75.734375 75.972656 85.289062 84.335938 C 88.996094 87.578125 93.882812 90.300781 98.910156 91.027344 C 98.300781 91.476562 97.707031 91.941406 97.183594 92.46875 C 95.734375 93.921875 97.246094 96.871094 99.285156 95.695312 C 100.855469 94.789062 102.3125 93.570312 103.699219 92.40625 C 104.738281 91.527344 105.851562 90.472656 105.691406 88.980469 Z M 105.691406 88.980469 " fill-opacity="1" fill-rule="nonzero"/></g></svg>