<svg xmlns="http://www.w3.org/2000/svg" xmlns:xlink="http://www.w3.org/1999/xlink" width="200" zoomAndPan="magnify" viewBox="0 0 150 149.999998" height="200" preserveAspectRatio="xMidYMid meet" version="1.0"><defs><clipPath id="3d496b9cc3"><path d="M 18.125 32.65625 L 131.375 32.65625 L 131.375 116.628906 L 18.125 116.628906 Z M 18.125 32.65625 " clip-rule="nonzero"/></clipPath></defs><g clip-path="url(#3d496b9cc3)"><path fill="#ff66c4" d="M 97 48.398438 C 97.703125 48.300781 98.445312 48.46875 99.058594 48.933594 L 130.273438 72.578125 C 130.476562 72.734375 130.65625 72.914062 130.8125 73.117188 C 131.738281 74.339844 131.496094 76.085938 130.273438 77.011719 L 99.058594 100.660156 C 98.574219 101.023438 97.984375 101.222656 97.378906 101.222656 C 95.847656 101.222656 94.601562 99.976562 94.601562 98.441406 L 94.601562 87.136719 L 50.03125 87.136719 C 48.464844 87.136719 47.195312 85.734375 47.195312 84 C 47.195312 83.996094 47.195312 83.992188 47.195312 83.992188 L 47.195312 65.5625 C 47.195312 63.828125 48.464844 62.421875 50.03125 62.421875 L 94.601562 62.421875 L 94.601562 51.148438 C 94.601562 50.542969 94.800781 49.953125 95.164062 49.472656 C 95.628906 48.859375 96.292969 48.492188 97 48.398438 Z M 24.96875 32.65625 L 82.449219 32.65625 C 86.226562 32.65625 89.289062 35.714844 89.289062 39.484375 L 89.289062 55.125 L 80.175781 55.125 L 80.175781 45.011719 C 80.175781 43.195312 78.703125 41.726562 76.890625 41.726562 L 30.515625 41.726562 C 28.699219 41.726562 27.230469 43.195312 27.230469 45.011719 L 27.230469 104.582031 C 27.230469 106.394531 28.699219 107.867188 30.515625 107.867188 L 76.890625 107.867188 C 78.703125 107.867188 80.175781 106.394531 80.175781 104.582031 L 80.175781 94.46875 L 89.289062 94.46875 L 89.289062 110.132812 C 89.289062 113.90625 86.226562 116.964844 82.445312 116.964844 L 24.96875 116.964844 C 21.191406 116.964844 18.125 113.90625 18.125 110.132812 L 18.125 39.484375 C 18.125 35.714844 21.191406 32.65625 24.96875 32.65625 Z M 24.96875 32.65625 " fill-opacity="1" fill-rule="evenodd"/></g></svg>