<svg xmlns="http://www.w3.org/2000/svg" xmlns:xlink="http://www.w3.org/1999/xlink" width="200" zoomAndPan="magnify" viewBox="0 0 150 149.999998" height="200" preserveAspectRatio="xMidYMid meet" version="1.0"><defs><clipPath id="a9ede4dbb1"><path d="M 13 38.3125 L 138 38.3125 L 138 107 L 13 107 Z M 13 38.3125 " clip-rule="nonzero"/></clipPath><clipPath id="9f4f2d5319"><path d="M 4 95 L 51 95 L 51 111.8125 L 4 111.8125 Z M 4 95 " clip-rule="nonzero"/></clipPath><clipPath id="779e2d45fd"><path d="M 99 97 L 146 97 L 146 111.8125 L 99 111.8125 Z M 99 97 " clip-rule="nonzero"/></clipPath></defs><path fill="#a3d6ff" d="M 118.96875 106.8125 L 112.511719 106.8125 C 112.511719 94.582031 108.734375 83.371094 101.875 75.246094 C 97.128906 69.617188 88.636719 62.910156 75.152344 62.910156 C 61.671875 62.910156 53.179688 69.617188 48.429688 75.246094 C 41.574219 83.371094 37.796875 94.582031 37.796875 106.8125 L 31.339844 106.8125 C 31.339844 93.128906 35.800781 80.339844 43.59375 71.105469 C 47.453125 66.535156 52.027344 62.964844 57.191406 60.503906 C 62.625 57.914062 68.777344 56.429688 75.152344 56.429688 C 81.53125 56.429688 87.683594 57.914062 93.117188 60.503906 C 98.28125 62.964844 102.855469 66.535156 106.714844 71.105469 C 114.507812 80.339844 118.96875 93.128906 118.96875 106.8125 Z M 118.96875 106.8125 " fill-opacity="1" fill-rule="nonzero"/><path fill="#6aac96" d="M 125.089844 106.8125 L 118.632812 106.8125 C 118.632812 93.128906 114.34375 80.507812 106.550781 71.273438 C 102.691406 66.703125 98.113281 63.132812 92.949219 60.667969 C 87.519531 58.078125 81.53125 56.765625 75.152344 56.765625 C 68.777344 56.765625 62.789062 58.078125 57.359375 60.667969 C 52.195312 63.132812 47.617188 66.703125 43.757812 71.273438 C 35.964844 80.507812 31.671875 93.128906 31.671875 106.8125 L 25.214844 106.8125 C 25.214844 76.375 45.113281 50.289062 75.152344 50.289062 C 105.195312 50.289062 125.089844 76.375 125.089844 106.8125 Z M 125.089844 106.8125 " fill-opacity="1" fill-rule="nonzero"/><path fill="#feca7a" d="M 131.214844 106.8125 L 124.757812 106.8125 C 124.757812 76.375 105.195312 50.621094 75.152344 50.621094 C 45.113281 50.621094 25.550781 76.375 25.550781 106.8125 L 19.09375 106.8125 C 19.09375 90.222656 24.417969 74.445312 34.078125 62.996094 C 39.074219 57.082031 45.191406 52.453125 51.933594 49.238281 C 59.023438 45.855469 66.941406 44.144531 75.152344 44.144531 C 83.363281 44.144531 91.285156 45.855469 98.375 49.238281 C 105.117188 52.453125 111.234375 57.082031 116.226562 62.996094 C 125.890625 74.445312 131.214844 90.222656 131.214844 106.8125 Z M 131.214844 106.8125 " fill-opacity="1" fill-rule="nonzero"/><g clip-path="url(#a9ede4dbb1)"><path fill="#fe7e61" d="M 137.003906 106.8125 L 130.882812 106.8125 C 130.882812 90.222656 125.558594 74.78125 115.894531 63.328125 C 110.902344 57.417969 104.953125 52.789062 98.207031 49.570312 C 91.121094 46.191406 83.363281 44.476562 75.152344 44.476562 C 66.941406 44.476562 59.1875 46.191406 52.101562 49.570312 C 45.355469 52.789062 39.40625 57.417969 34.414062 63.328125 C 24.75 74.78125 19.425781 90.222656 19.425781 106.8125 L 13.304688 106.8125 C 13.304688 88.769531 19.140625 71.917969 29.742188 59.359375 C 41.1875 45.800781 57.316406 38.332031 75.152344 38.332031 C 92.992188 38.332031 109.121094 45.800781 120.566406 59.359375 C 131.167969 71.917969 137.003906 88.769531 137.003906 106.8125 Z M 137.003906 106.8125 " fill-opacity="1" fill-rule="nonzero"/></g><g clip-path="url(#9f4f2d5319)"><path fill="#e0eded" d="M 41.847656 103.660156 C 39.210938 103.265625 36.414062 103.855469 33.917969 102.90625 C 31.546875 102 29.890625 99.871094 27.886719 98.308594 C 23.300781 94.71875 16.496094 94.292969 11.5 97.273438 C 6.503906 100.257812 3.632812 106.050781 4.582031 111.804688 L 50.5625 111.804688 C 49.464844 107.839844 45.902344 104.265625 41.847656 103.660156 Z M 41.847656 103.660156 " fill-opacity="1" fill-rule="nonzero"/></g><g clip-path="url(#779e2d45fd)"><path fill="#e0eded" d="M 103.613281 107.367188 C 104.910156 106.796875 106.289062 107.007812 107.476562 106.230469 C 108.6875 105.4375 109.25 103.980469 109.992188 102.734375 C 111.488281 100.214844 114 98.320312 116.828125 97.574219 C 119.652344 96.828125 122.765625 97.242188 125.304688 98.695312 C 127.984375 100.230469 130.097656 102.882812 133.101562 103.578125 C 135.09375 104.039062 137.195312 103.554688 139.21875 103.863281 C 143.058594 104.449219 146.125 107.914062 145.894531 111.804688 L 99.925781 111.804688 C 100.785156 109.351562 101.691406 108.214844 103.613281 107.367188 Z M 103.613281 107.367188 " fill-opacity="1" fill-rule="nonzero"/></g></svg>