<svg xmlns="http://www.w3.org/2000/svg" xmlns:xlink="http://www.w3.org/1999/xlink" width="200" zoomAndPan="magnify" viewBox="0 0 150 149.999998" height="200" preserveAspectRatio="xMidYMid meet" version="1.0"><path fill="#20a5ad" d="M 46.460938 83.832031 C 45.867188 88.089844 49.949219 87.773438 51.160156 88.378906 C 49.976562 92.492188 44.824219 112.738281 52.949219 112.328125 C 56.675781 110.351562 55.460938 103.222656 55.597656 99.964844 C 55.765625 96.058594 56.492188 89.828125 57.449219 86.054688 L 65.089844 82.941406 C 65.144531 86.5625 62.089844 109.3125 69.167969 107.578125 C 73.816406 105.921875 71.585938 85.042969 71.585938 80.242188 C 74.730469 79.386719 80.851562 74.378906 81.777344 71.746094 C 79.378906 67.925781 72.804688 71.386719 71.335938 70.199219 C 70.027344 64.105469 69.964844 40.664062 67.9375 37.46875 C 66.824219 35.71875 64.589844 35.546875 64.589844 39.039062 C 64.589844 41.855469 58.820312 59.554688 57.785156 63.234375 C 57.417969 64.539062 57.058594 65.847656 56.695312 67.15625 C 55.726562 70.6875 54.664062 74.246094 53.8125 77.800781 C 52.792969 82.082031 49.5625 81.417969 46.460938 83.832031 M 84.6875 59.558594 C 84.582031 62.304688 82.714844 70.800781 87.472656 71.359375 C 91.34375 68.882812 87.535156 59.277344 90.273438 58.171875 C 95.1875 56.210938 98.191406 55.339844 99.015625 49.691406 C 85.894531 49.871094 91.171875 51.597656 91.25 42.128906 C 91.285156 38.125 89.070312 40.246094 88.105469 43.316406 C 85.703125 51.007812 88.710938 50.546875 80.613281 53.808594 C 77.082031 55.230469 77.53125 56.140625 79.203125 59.019531 C 80.605469 60.8125 82.535156 59.691406 84.6875 59.558594 Z M 60.046875 75.9375 L 59.558594 76.023438 L 59.632812 75.554688 C 59.636719 73.066406 61.703125 65.777344 62.339844 62.992188 C 63.285156 58.878906 64.195312 54.929688 65.394531 50.875 C 65.445312 58.289062 65.484375 65.707031 65.53125 73.121094 Z M 122.90625 102.867188 C 130.574219 89.039062 133.082031 77.539062 129.171875 61.960938 C 127.390625 55.230469 117.96875 26.574219 107.328125 36.878906 C 102.847656 41.21875 109.976562 51.390625 112.265625 56.015625 C 122.769531 77.230469 118.167969 91.707031 101.457031 108.175781 C 92.492188 116.6875 79.816406 126.011719 66.878906 122.511719 C 54.6875 119.210938 44.363281 109.097656 40.542969 97.109375 C 31.789062 68.277344 44.199219 31.261719 73.625 20.316406 C 93.933594 12.765625 105.535156 24.335938 107.621094 24.136719 C 109.710938 23.945312 102.644531 17.367188 101.046875 16.480469 C 91.609375 11.234375 74.421875 12.957031 64.59375 17.097656 C 20.011719 35.878906 11.957031 113.050781 59.96875 134.71875 C 84.109375 145.617188 111.578125 122.703125 122.90625 102.867188 Z M 122.90625 102.867188 " fill-opacity="1" fill-rule="evenodd"/></svg>