<svg xmlns="http://www.w3.org/2000/svg" xmlns:xlink="http://www.w3.org/1999/xlink" width="200" zoomAndPan="magnify" viewBox="0 0 150 149.999998" height="200" preserveAspectRatio="xMidYMid meet" version="1.0"><defs><g/><clipPath id="ae75b27667"><path d="M 3.117188 62.304688 L 48.144531 62.304688 L 48.144531 108.390625 L 3.117188 108.390625 Z M 3.117188 62.304688 " clip-rule="nonzero"/></clipPath><clipPath id="0f371187c5"><path d="M 9.867188 62.304688 L 41.394531 62.304688 C 43.1875 62.304688 44.902344 63.015625 46.167969 64.28125 C 47.433594 65.550781 48.144531 67.265625 48.144531 69.054688 L 48.144531 101.496094 C 48.144531 103.285156 47.433594 105.003906 46.167969 106.269531 C 44.902344 107.535156 43.1875 108.246094 41.394531 108.246094 L 9.867188 108.246094 C 8.074219 108.246094 6.359375 107.535156 5.09375 106.269531 C 3.828125 105.003906 3.117188 103.285156 3.117188 101.496094 L 3.117188 69.054688 C 3.117188 67.265625 3.828125 65.550781 5.09375 64.28125 C 6.359375 63.015625 8.074219 62.304688 9.867188 62.304688 Z M 9.867188 62.304688 " clip-rule="nonzero"/></clipPath><clipPath id="58cc72e187"><path d="M 0.117188 0.304688 L 45.144531 0.304688 L 45.144531 46.390625 L 0.117188 46.390625 Z M 0.117188 0.304688 " clip-rule="nonzero"/></clipPath><clipPath id="69cf4271b4"><path d="M 6.867188 0.304688 L 38.394531 0.304688 C 40.1875 0.304688 41.902344 1.015625 43.167969 2.28125 C 44.433594 3.550781 45.144531 5.265625 45.144531 7.054688 L 45.144531 39.496094 C 45.144531 41.285156 44.433594 43.003906 43.167969 44.269531 C 41.902344 45.535156 40.1875 46.246094 38.394531 46.246094 L 6.867188 46.246094 C 5.074219 46.246094 3.359375 45.535156 2.09375 44.269531 C 0.828125 43.003906 0.117188 41.285156 0.117188 39.496094 L 0.117188 7.054688 C 0.117188 5.265625 0.828125 3.550781 2.09375 2.28125 C 3.359375 1.015625 5.074219 0.304688 6.867188 0.304688 Z M 6.867188 0.304688 " clip-rule="nonzero"/></clipPath><clipPath id="40bf0761b4"><rect x="0" width="46" y="0" height="47"/></clipPath><clipPath id="db4236dd13"><path d="M 3.117188 62.308594 L 48.117188 62.308594 L 48.117188 108.054688 L 3.117188 108.054688 Z M 3.117188 62.308594 " clip-rule="nonzero"/></clipPath><clipPath id="4f27c2b8bd"><path d="M 9.863281 62.308594 L 41.390625 62.308594 C 43.179688 62.308594 44.898438 63.019531 46.164062 64.285156 C 47.429688 65.550781 48.140625 67.269531 48.140625 69.058594 L 48.140625 101.492188 C 48.140625 103.28125 47.429688 105 46.164062 106.265625 C 44.898438 107.53125 43.179688 108.242188 41.390625 108.242188 L 9.863281 108.242188 C 8.074219 108.242188 6.359375 107.53125 5.09375 106.265625 C 3.828125 105 3.117188 103.28125 3.117188 101.492188 L 3.117188 69.058594 C 3.117188 67.269531 3.828125 65.550781 5.09375 64.285156 C 6.359375 63.019531 8.074219 62.308594 9.863281 62.308594 Z M 9.863281 62.308594 " clip-rule="nonzero"/></clipPath><clipPath id="eb283f9ae9"><path d="M 52.324219 62.304688 L 97.355469 62.304688 L 97.355469 108.390625 L 52.324219 108.390625 Z M 52.324219 62.304688 " clip-rule="nonzero"/></clipPath><clipPath id="12b0df2509"><path d="M 59.074219 62.304688 L 90.605469 62.304688 C 92.394531 62.304688 94.109375 63.015625 95.375 64.28125 C 96.644531 65.550781 97.355469 67.265625 97.355469 69.054688 L 97.355469 101.496094 C 97.355469 103.285156 96.644531 105.003906 95.375 106.269531 C 94.109375 107.535156 92.394531 108.246094 90.605469 108.246094 L 59.074219 108.246094 C 57.28125 108.246094 55.566406 107.535156 54.300781 106.269531 C 53.035156 105.003906 52.324219 103.285156 52.324219 101.496094 L 52.324219 69.054688 C 52.324219 67.265625 53.035156 65.550781 54.300781 64.28125 C 55.566406 63.015625 57.28125 62.304688 59.074219 62.304688 Z M 59.074219 62.304688 " clip-rule="nonzero"/></clipPath><clipPath id="d0ebb0a86e"><path d="M 0.324219 0.304688 L 45.355469 0.304688 L 45.355469 46.390625 L 0.324219 46.390625 Z M 0.324219 0.304688 " clip-rule="nonzero"/></clipPath><clipPath id="533852bb45"><path d="M 7.074219 0.304688 L 38.605469 0.304688 C 40.394531 0.304688 42.109375 1.015625 43.375 2.28125 C 44.644531 3.550781 45.355469 5.265625 45.355469 7.054688 L 45.355469 39.496094 C 45.355469 41.285156 44.644531 43.003906 43.375 44.269531 C 42.109375 45.535156 40.394531 46.246094 38.605469 46.246094 L 7.074219 46.246094 C 5.28125 46.246094 3.566406 45.535156 2.300781 44.269531 C 1.035156 43.003906 0.324219 41.285156 0.324219 39.496094 L 0.324219 7.054688 C 0.324219 5.265625 1.035156 3.550781 2.300781 2.28125 C 3.566406 1.015625 5.28125 0.304688 7.074219 0.304688 Z M 7.074219 0.304688 " clip-rule="nonzero"/></clipPath><clipPath id="5a6d2d9767"><rect x="0" width="46" y="0" height="47"/></clipPath><clipPath id="442dd7e27a"><path d="M 52.324219 62.308594 L 97.324219 62.308594 L 97.324219 108.054688 L 52.324219 108.054688 Z M 52.324219 62.308594 " clip-rule="nonzero"/></clipPath><clipPath id="5812919602"><path d="M 59.070312 62.308594 L 90.597656 62.308594 C 92.386719 62.308594 94.105469 63.019531 95.371094 64.285156 C 96.636719 65.550781 97.347656 67.269531 97.347656 69.058594 L 97.347656 101.492188 C 97.347656 103.28125 96.636719 105 95.371094 106.265625 C 94.105469 107.53125 92.386719 108.242188 90.597656 108.242188 L 59.070312 108.242188 C 57.28125 108.242188 55.566406 107.53125 54.300781 106.265625 C 53.035156 105 52.324219 103.28125 52.324219 101.492188 L 52.324219 69.058594 C 52.324219 67.269531 53.035156 65.550781 54.300781 64.285156 C 55.566406 63.019531 57.28125 62.308594 59.070312 62.308594 Z M 59.070312 62.308594 " clip-rule="nonzero"/></clipPath><clipPath id="6db2a0fb1a"><path d="M 101.855469 62.304688 L 146.882812 62.304688 L 146.882812 108.390625 L 101.855469 108.390625 Z M 101.855469 62.304688 " clip-rule="nonzero"/></clipPath><clipPath id="afa0ee599f"><path d="M 108.605469 62.304688 L 140.132812 62.304688 C 141.925781 62.304688 143.640625 63.015625 144.90625 64.28125 C 146.171875 65.550781 146.882812 67.265625 146.882812 69.054688 L 146.882812 101.496094 C 146.882812 103.285156 146.171875 105.003906 144.90625 106.269531 C 143.640625 107.535156 141.925781 108.246094 140.132812 108.246094 L 108.605469 108.246094 C 106.8125 108.246094 105.097656 107.535156 103.832031 106.269531 C 102.566406 105.003906 101.855469 103.285156 101.855469 101.496094 L 101.855469 69.054688 C 101.855469 67.265625 102.566406 65.550781 103.832031 64.28125 C 105.097656 63.015625 106.8125 62.304688 108.605469 62.304688 Z M 108.605469 62.304688 " clip-rule="nonzero"/></clipPath><clipPath id="90415ff2c6"><path d="M 0.855469 0.304688 L 45.882812 0.304688 L 45.882812 46.390625 L 0.855469 46.390625 Z M 0.855469 0.304688 " clip-rule="nonzero"/></clipPath><clipPath id="62ed258e40"><path d="M 7.605469 0.304688 L 39.132812 0.304688 C 40.925781 0.304688 42.640625 1.015625 43.90625 2.28125 C 45.171875 3.550781 45.882812 5.265625 45.882812 7.054688 L 45.882812 39.496094 C 45.882812 41.285156 45.171875 43.003906 43.90625 44.269531 C 42.640625 45.535156 40.925781 46.246094 39.132812 46.246094 L 7.605469 46.246094 C 5.8125 46.246094 4.097656 45.535156 2.832031 44.269531 C 1.566406 43.003906 0.855469 41.285156 0.855469 39.496094 L 0.855469 7.054688 C 0.855469 5.265625 1.566406 3.550781 2.832031 2.28125 C 4.097656 1.015625 5.8125 0.304688 7.605469 0.304688 Z M 7.605469 0.304688 " clip-rule="nonzero"/></clipPath><clipPath id="75c4094ebd"><rect x="0" width="46" y="0" height="47"/></clipPath><clipPath id="f3a69cc9d1"><path d="M 101.855469 62.308594 L 146.855469 62.308594 L 146.855469 108.054688 L 101.855469 108.054688 Z M 101.855469 62.308594 " clip-rule="nonzero"/></clipPath><clipPath id="bfc6547ee6"><path d="M 108.601562 62.308594 L 140.128906 62.308594 C 141.917969 62.308594 143.636719 63.019531 144.902344 64.285156 C 146.167969 65.550781 146.878906 67.269531 146.878906 69.058594 L 146.878906 101.492188 C 146.878906 103.28125 146.167969 105 144.902344 106.265625 C 143.636719 107.53125 141.917969 108.242188 140.128906 108.242188 L 108.601562 108.242188 C 106.8125 108.242188 105.097656 107.53125 103.832031 106.265625 C 102.566406 105 101.855469 103.28125 101.855469 101.492188 L 101.855469 69.058594 C 101.855469 67.269531 102.566406 65.550781 103.832031 64.285156 C 105.097656 63.019531 106.8125 62.308594 108.601562 62.308594 Z M 108.601562 62.308594 " clip-rule="nonzero"/></clipPath></defs><g clip-path="url(#ae75b27667)"><g clip-path="url(#0f371187c5)"><g transform="matrix(1, 0, 0, 1, 3, 62)"><g clip-path="url(#40bf0761b4)"><g clip-path="url(#58cc72e187)"><g clip-path="url(#69cf4271b4)"><path fill="#ffffff" d="M 0.117188 0.304688 L 45.144531 0.304688 L 45.144531 46.214844 L 0.117188 46.214844 Z M 0.117188 0.304688 " fill-opacity="1" fill-rule="nonzero"/></g></g></g></g></g></g><g clip-path="url(#db4236dd13)"><g clip-path="url(#4f27c2b8bd)"><path stroke-linecap="butt" transform="matrix(0.75, 0, 0, 0.75, 3.11555, 62.308717)" fill="none" stroke-linejoin="miter" d="M 8.996975 -0.00016402 L 51.033436 -0.00016402 C 53.418853 -0.00016402 55.71052 0.947753 57.39802 2.635253 C 59.08552 4.322753 60.033437 6.61442 60.033437 8.999837 L 60.033437 52.244631 C 60.033437 54.630047 59.08552 56.921714 57.39802 58.609214 C 55.71052 60.296714 53.418853 61.244631 51.033436 61.244631 L 8.996975 61.244631 C 6.611558 61.244631 4.3251 60.296714 2.6376 58.609214 C 0.9501 56.921714 0.00218304 54.630047 0.00218304 52.244631 L 0.00218304 8.999837 C 0.00218304 6.61442 0.9501 4.322753 2.6376 2.635253 C 4.3251 0.947753 6.611558 -0.00016402 8.996975 -0.00016402 Z M 8.996975 -0.00016402 " stroke="#78d0b1" stroke-width="8" stroke-opacity="1" stroke-miterlimit="4"/></g></g><g fill="#9dafbb" fill-opacity="1"><g transform="translate(20.35383, 92.306145)"><g><path d="M 7.125 -13.171875 C 7.144531 -13.546875 7.269531 -13.804688 7.5 -13.953125 C 7.738281 -14.097656 8.046875 -14.171875 8.421875 -14.171875 C 8.929688 -14.171875 9.316406 -14.09375 9.578125 -13.9375 C 9.835938 -13.789062 9.953125 -13.507812 9.921875 -13.09375 C 9.785156 -11.113281 9.671875 -9.066406 9.578125 -6.953125 C 9.492188 -4.847656 9.40625 -2.78125 9.3125 -0.75 C 9.300781 -0.394531 9.144531 -0.144531 8.84375 0 C 8.539062 0.144531 8.207031 0.21875 7.84375 0.21875 C 7.4375 0.21875 7.128906 0.140625 6.921875 -0.015625 C 6.710938 -0.171875 6.609375 -0.359375 6.609375 -0.578125 C 6.609375 -0.691406 6.613281 -0.796875 6.625 -0.890625 C 6.632812 -0.992188 6.648438 -1.109375 6.671875 -1.234375 C 6.691406 -1.359375 6.703125 -1.5 6.703125 -1.65625 C 6.484375 -1.21875 6.222656 -0.863281 5.921875 -0.59375 C 5.628906 -0.332031 5.304688 -0.132812 4.953125 0 C 4.597656 0.125 4.226562 0.1875 3.84375 0.1875 C 3.25 0.1875 2.742188 0.0625 2.328125 -0.1875 C 1.910156 -0.445312 1.570312 -0.785156 1.3125 -1.203125 C 1.0625 -1.628906 0.875 -2.082031 0.75 -2.5625 C 0.632812 -3.050781 0.578125 -3.523438 0.578125 -3.984375 C 0.578125 -4.648438 0.679688 -5.304688 0.890625 -5.953125 C 1.097656 -6.597656 1.390625 -7.175781 1.765625 -7.6875 C 2.148438 -8.207031 2.609375 -8.625 3.140625 -8.9375 C 3.671875 -9.25 4.269531 -9.40625 4.9375 -9.40625 C 5.25 -9.40625 5.5625 -9.359375 5.875 -9.265625 C 6.195312 -9.179688 6.515625 -9.050781 6.828125 -8.875 C 6.867188 -9.394531 6.898438 -9.90625 6.921875 -10.40625 C 6.953125 -10.90625 6.984375 -11.390625 7.015625 -11.859375 C 7.054688 -12.328125 7.09375 -12.765625 7.125 -13.171875 Z M 3.46875 -4.078125 C 3.46875 -3.753906 3.503906 -3.441406 3.578125 -3.140625 C 3.648438 -2.835938 3.765625 -2.59375 3.921875 -2.40625 C 4.085938 -2.21875 4.289062 -2.125 4.53125 -2.125 C 4.78125 -2.125 5.015625 -2.21875 5.234375 -2.40625 C 5.460938 -2.59375 5.65625 -2.828125 5.8125 -3.109375 C 5.976562 -3.398438 6.113281 -3.707031 6.21875 -4.03125 C 6.332031 -4.363281 6.398438 -4.675781 6.421875 -4.96875 C 6.429688 -5.019531 6.445312 -5.070312 6.46875 -5.125 C 6.5 -5.175781 6.539062 -5.222656 6.59375 -5.265625 L 6.6875 -6.765625 C 6.457031 -6.941406 6.25 -7.0625 6.0625 -7.125 C 5.875 -7.1875 5.664062 -7.21875 5.4375 -7.21875 C 5.125 -7.21875 4.816406 -7.101562 4.515625 -6.875 C 4.210938 -6.644531 3.960938 -6.296875 3.765625 -5.828125 C 3.566406 -5.367188 3.46875 -4.785156 3.46875 -4.078125 Z M 3.46875 -4.078125 "/></g></g></g><g clip-path="url(#eb283f9ae9)"><g clip-path="url(#12b0df2509)"><g transform="matrix(1, 0, 0, 1, 52, 62)"><g clip-path="url(#5a6d2d9767)"><g clip-path="url(#d0ebb0a86e)"><g clip-path="url(#533852bb45)"><path fill="#ffffff" d="M 0.324219 0.304688 L 45.355469 0.304688 L 45.355469 46.214844 L 0.324219 46.214844 Z M 0.324219 0.304688 " fill-opacity="1" fill-rule="nonzero"/></g></g></g></g></g></g><g clip-path="url(#442dd7e27a)"><g clip-path="url(#5812919602)"><path stroke-linecap="butt" transform="matrix(0.75, 0, 0, 0.75, 52.323209, 62.308717)" fill="none" stroke-linejoin="miter" d="M 8.996138 -0.00016402 L 51.032599 -0.00016402 C 53.418016 -0.00016402 55.709682 0.947753 57.397182 2.635253 C 59.084683 4.322753 60.032599 6.61442 60.032599 8.999837 L 60.032599 52.244631 C 60.032599 54.630047 59.084683 56.921714 57.397182 58.609214 C 55.709682 60.296714 53.418016 61.244631 51.032599 61.244631 L 8.996138 61.244631 C 6.610721 61.244631 4.324263 60.296714 2.636763 58.609214 C 0.949263 56.921714 0.0013458 54.630047 0.0013458 52.244631 L 0.0013458 8.999837 C 0.0013458 6.61442 0.949263 4.322753 2.636763 2.635253 C 4.324263 0.947753 6.610721 -0.00016402 8.996138 -0.00016402 Z M 8.996138 -0.00016402 " stroke="#83b8f4" stroke-width="8" stroke-opacity="1" stroke-miterlimit="4"/></g></g><g fill="#9dafbb" fill-opacity="1"><g transform="translate(69.831021, 92.306145)"><g><path d="M 5.25 -9.40625 C 5.519531 -9.40625 5.835938 -9.375 6.203125 -9.3125 C 6.566406 -9.257812 6.910156 -9.179688 7.234375 -9.078125 C 7.554688 -8.972656 7.800781 -8.847656 7.96875 -8.703125 C 8.507812 -8.285156 8.90625 -7.734375 9.15625 -7.046875 C 9.40625 -6.367188 9.53125 -5.644531 9.53125 -4.875 C 9.53125 -4.25 9.445312 -3.640625 9.28125 -3.046875 C 9.113281 -2.453125 8.851562 -1.914062 8.5 -1.4375 C 8.144531 -0.96875 7.703125 -0.585938 7.171875 -0.296875 C 6.640625 -0.015625 6.007812 0.125 5.28125 0.125 C 4.457031 0.125 3.742188 0 3.140625 -0.25 C 2.546875 -0.5 2.050781 -0.84375 1.65625 -1.28125 C 1.269531 -1.726562 0.984375 -2.234375 0.796875 -2.796875 C 0.609375 -3.367188 0.515625 -3.972656 0.515625 -4.609375 C 0.515625 -5.222656 0.609375 -5.8125 0.796875 -6.375 C 0.984375 -6.945312 1.269531 -7.457031 1.65625 -7.90625 C 2.050781 -8.351562 2.546875 -8.710938 3.140625 -8.984375 C 3.734375 -9.265625 4.4375 -9.40625 5.25 -9.40625 Z M 3.34375 -4.6875 C 3.34375 -4.269531 3.40625 -3.859375 3.53125 -3.453125 C 3.65625 -3.054688 3.851562 -2.726562 4.125 -2.46875 C 4.394531 -2.207031 4.742188 -2.078125 5.171875 -2.078125 C 5.453125 -2.078125 5.691406 -2.15625 5.890625 -2.3125 C 6.085938 -2.476562 6.242188 -2.691406 6.359375 -2.953125 C 6.484375 -3.222656 6.570312 -3.515625 6.625 -3.828125 C 6.675781 -4.140625 6.703125 -4.445312 6.703125 -4.75 C 6.703125 -5.394531 6.617188 -5.898438 6.453125 -6.265625 C 6.285156 -6.640625 6.066406 -6.925781 5.796875 -7.125 C 5.671875 -7.15625 5.5625 -7.175781 5.46875 -7.1875 C 5.375 -7.207031 5.269531 -7.21875 5.15625 -7.21875 C 4.820312 -7.21875 4.535156 -7.144531 4.296875 -7 C 4.054688 -6.851562 3.867188 -6.660156 3.734375 -6.421875 C 3.597656 -6.179688 3.5 -5.914062 3.4375 -5.625 C 3.375 -5.332031 3.34375 -5.019531 3.34375 -4.6875 Z M 3.34375 -4.6875 "/></g></g></g><g clip-path="url(#6db2a0fb1a)"><g clip-path="url(#afa0ee599f)"><g transform="matrix(1, 0, 0, 1, 101, 62)"><g clip-path="url(#75c4094ebd)"><g clip-path="url(#90415ff2c6)"><g clip-path="url(#62ed258e40)"><path fill="#ffffff" d="M 0.855469 0.304688 L 45.882812 0.304688 L 45.882812 46.214844 L 0.855469 46.214844 Z M 0.855469 0.304688 " fill-opacity="1" fill-rule="nonzero"/></g></g></g></g></g></g><g clip-path="url(#f3a69cc9d1)"><g clip-path="url(#bfc6547ee6)"><path stroke-linecap="butt" transform="matrix(0.75, 0, 0, 0.75, 101.853833, 62.308717)" fill="none" stroke-linejoin="miter" d="M 8.996973 -0.00016402 L 51.033434 -0.00016402 C 53.418851 -0.00016402 55.710518 0.947753 57.398018 2.635253 C 59.085518 4.322753 60.033435 6.61442 60.033435 8.999837 L 60.033435 52.244631 C 60.033435 54.630047 59.085518 56.921714 57.398018 58.609214 C 55.710518 60.296714 53.418851 61.244631 51.033434 61.244631 L 8.996973 61.244631 C 6.611557 61.244631 4.325098 60.296714 2.637598 58.609214 C 0.950098 56.921714 0.00218112 54.630047 0.00218112 52.244631 L 0.00218112 8.999837 C 0.00218112 6.61442 0.950098 4.322753 2.637598 2.635253 C 4.325098 0.947753 6.611557 -0.00016402 8.996973 -0.00016402 Z M 8.996973 -0.00016402 " stroke="#ffc05d" stroke-width="8" stroke-opacity="1" stroke-miterlimit="4"/></g></g><g fill="#9dafbb" fill-opacity="1"><g transform="translate(119.185863, 92.306145)"><g><path d="M 0.5625 -4.109375 C 0.5625 -4.816406 0.675781 -5.488281 0.90625 -6.125 C 1.144531 -6.757812 1.472656 -7.320312 1.890625 -7.8125 C 2.304688 -8.300781 2.796875 -8.691406 3.359375 -8.984375 C 3.921875 -9.273438 4.53125 -9.421875 5.1875 -9.421875 C 5.519531 -9.421875 5.835938 -9.378906 6.140625 -9.296875 C 6.453125 -9.222656 6.734375 -9.109375 6.984375 -8.953125 C 7.054688 -9.140625 7.171875 -9.257812 7.328125 -9.3125 C 7.484375 -9.375 7.703125 -9.40625 7.984375 -9.40625 C 8.515625 -9.40625 8.878906 -9.351562 9.078125 -9.25 C 9.285156 -9.15625 9.378906 -8.992188 9.359375 -8.765625 L 9.34375 -8.1875 C 9.4375 -8.09375 9.503906 -7.984375 9.546875 -7.859375 C 9.597656 -7.742188 9.625 -7.566406 9.625 -7.328125 C 9.625 -6.898438 9.523438 -6.570312 9.328125 -6.34375 L 9.328125 -5.984375 C 9.328125 -5.710938 9.332031 -5.429688 9.34375 -5.140625 C 9.351562 -4.847656 9.359375 -4.472656 9.359375 -4.015625 C 9.359375 -3.398438 9.34375 -2.738281 9.3125 -2.03125 C 9.28125 -1.332031 9.238281 -0.675781 9.1875 -0.0625 C 9.09375 0.925781 8.859375 1.78125 8.484375 2.5 C 8.109375 3.226562 7.625 3.785156 7.03125 4.171875 C 6.4375 4.554688 5.757812 4.75 5 4.75 C 4.675781 4.75 4.3125 4.691406 3.90625 4.578125 C 3.5 4.472656 3.085938 4.316406 2.671875 4.109375 C 2.253906 3.910156 1.859375 3.65625 1.484375 3.34375 C 1.316406 3.195312 1.195312 3.0625 1.125 2.9375 C 1.050781 2.820312 1.015625 2.6875 1.015625 2.53125 C 1.015625 2.375 1.070312 2.195312 1.1875 2 C 1.3125 1.800781 1.457031 1.628906 1.625 1.484375 C 1.789062 1.335938 1.945312 1.265625 2.09375 1.265625 C 2.207031 1.265625 2.328125 1.289062 2.453125 1.34375 C 2.585938 1.394531 2.710938 1.460938 2.828125 1.546875 C 3.035156 1.679688 3.25 1.816406 3.46875 1.953125 C 3.6875 2.085938 3.90625 2.195312 4.125 2.28125 C 4.351562 2.363281 4.578125 2.40625 4.796875 2.40625 C 5.085938 2.40625 5.332031 2.332031 5.53125 2.1875 C 5.726562 2.039062 5.894531 1.828125 6.03125 1.546875 C 6.164062 1.273438 6.273438 0.957031 6.359375 0.59375 C 6.441406 0.25 6.5 -0.0234375 6.53125 -0.234375 C 6.570312 -0.453125 6.609375 -0.640625 6.640625 -0.796875 C 6.679688 -0.960938 6.710938 -1.15625 6.734375 -1.375 C 6.441406 -0.882812 6.078125 -0.519531 5.640625 -0.28125 C 5.210938 -0.0507812 4.722656 0.0625 4.171875 0.0625 C 3.453125 0.0625 2.820312 -0.125 2.28125 -0.5 C 1.738281 -0.882812 1.316406 -1.390625 1.015625 -2.015625 C 0.710938 -2.648438 0.5625 -3.347656 0.5625 -4.109375 Z M 4.8125 -2.109375 C 5.113281 -2.109375 5.363281 -2.207031 5.5625 -2.40625 C 5.757812 -2.613281 5.914062 -2.894531 6.03125 -3.25 C 6.15625 -3.613281 6.257812 -4.035156 6.34375 -4.515625 C 6.363281 -4.648438 6.378906 -4.832031 6.390625 -5.0625 C 6.410156 -5.300781 6.425781 -5.546875 6.4375 -5.796875 C 6.445312 -6.054688 6.457031 -6.285156 6.46875 -6.484375 C 6.476562 -6.679688 6.484375 -6.800781 6.484375 -6.84375 C 6.328125 -7 6.15625 -7.109375 5.96875 -7.171875 C 5.78125 -7.234375 5.617188 -7.265625 5.484375 -7.265625 C 5.191406 -7.265625 4.921875 -7.179688 4.671875 -7.015625 C 4.421875 -6.859375 4.203125 -6.632812 4.015625 -6.34375 C 3.835938 -6.0625 3.695312 -5.726562 3.59375 -5.34375 C 3.5 -4.96875 3.453125 -4.5625 3.453125 -4.125 C 3.453125 -3.707031 3.507812 -3.34375 3.625 -3.03125 C 3.75 -2.726562 3.910156 -2.5 4.109375 -2.34375 C 4.316406 -2.1875 4.550781 -2.109375 4.8125 -2.109375 Z M 4.8125 -2.109375 "/></g></g></g><g fill="#9dafbb" fill-opacity="1"><g transform="translate(65.237271, 44.249999)"><g><path d="M 1.480469 -13.695312 L 1.480469 -11.703125 L 5.910156 -11.703125 C 5.585938 -8.265625 4.101562 -5.738281 0.589844 -3.683594 L 2.050781 -1.9375 C 6.933594 -4.789062 8.378906 -8.796875 8.378906 -13.695312 Z M 13.414062 -15.863281 L 13.414062 -9.269531 L 11.855469 -9.269531 L 11.855469 -15.40625 L 9.519531 -15.40625 L 9.519531 0.894531 L 11.855469 0.894531 L 11.855469 -7.257812 L 13.414062 -7.257812 L 13.414062 1.632812 L 15.804688 1.632812 L 15.804688 -15.863281 Z M 13.414062 -15.863281 "/></g></g></g></svg>