<svg xmlns="http://www.w3.org/2000/svg" viewBox="0 0 160 160" role="img" aria-labelledby="title desc">
  <title id="title">Book Practice</title>
  <desc id="desc">A simple practice rocket taking off.</desc>
  <g fill="none" stroke-linecap="round" stroke-linejoin="round">
    <path d="M92 22c20 7 34 22 41 42-7 24-22 43-45 57L52 85c14-23 33-38 40-63z" stroke="#d9923b" stroke-width="7"/>
    <circle cx="99" cy="57" r="12" stroke="#21b3be" stroke-width="6"/>
    <path d="M58 80l-24 6-12 21 30-1M86 114l-6 25-21 12 1-31" stroke="#d9923b" stroke-width="7"/>
    <path d="M53 108c-11 3-20 10-26 21 13-1 23-5 31-13" stroke="#ff6fb0" stroke-width="7"/>
    <path d="M75 121c-4 10-11 18-22 24 1-13 5-23 13-31" stroke="#f6c56f" stroke-width="7"/>
  </g>
  <g fill="#f6c56f">
    <path d="M129 24l3 8 8 3-8 3-3 8-3-8-8-3 8-3 3-8z"/>
    <circle cx="28" cy="51" r="5"/>
  </g>
</svg>
