<svg xmlns="http://www.w3.org/2000/svg" xmlns:xlink="http://www.w3.org/1999/xlink" width="200" zoomAndPan="magnify" viewBox="0 0 150 149.999998" height="200" preserveAspectRatio="xMidYMid meet" version="1.0"><defs><clipPath id="84a7719e1e"><path d="M 49 32.703125 L 97 32.703125 L 97 102 L 49 102 Z M 49 32.703125 " clip-rule="nonzero"/></clipPath><clipPath id="bd786fa839"><path d="M 90 49 L 144.363281 49 L 144.363281 118.953125 L 90 118.953125 Z M 90 49 " clip-rule="nonzero"/></clipPath></defs><path fill="#f55376" d="M 64.046875 104.039062 L 58.496094 89.191406 L 44.058594 92.160156 L 52.574219 107.011719 Z M 64.046875 104.039062 " fill-opacity="1" fill-rule="nonzero"/><path fill="#f55376" d="M 64.03125 104.128906 L 63.261719 101.785156 L 58.96875 101.785156 C 54.023438 101.785156 50.410156 98.191406 50.410156 93.320312 L 50.410156 63.386719 L 49.613281 60.949219 L 48.546875 57.714844 C 47.035156 53.019531 44.3125 47.617188 36.316406 47.617188 C 28.175781 47.617188 25.390625 53.40625 24.03125 57.683594 L 8.722656 104.101562 C 7.714844 107.097656 8.070312 110.304688 9.726562 112.683594 C 11.238281 114.789062 13.636719 116.007812 16.332031 116.007812 C 20.625 116.007812 23.554688 113.542969 25.007812 108.644531 L 26.992188 101.785156 L 45.585938 101.785156 L 47.6875 108.734375 C 49.257812 113.574219 52.128906 116.007812 56.214844 116.007812 C 58.96875 116.007812 61.277344 114.878906 62.816406 112.800781 C 64.503906 110.515625 64.949219 107.308594 64.03125 104.128906 Z M 31.519531 87.527344 L 36.316406 72.058594 L 36.347656 72.175781 L 36.347656 72.207031 L 41.144531 87.320312 L 41.203125 87.527344 Z M 31.519531 87.527344 " fill-opacity="1" fill-rule="nonzero"/><path fill="#00b569" d="M 93.050781 65.464844 L 92.695312 65.316406 L 92.695312 65.285156 Z M 93.050781 65.464844 " fill-opacity="1" fill-rule="nonzero"/><path fill="#3ddab4" d="M 93.050781 65.464844 L 92.695312 65.316406 L 92.695312 65.285156 Z M 93.050781 65.464844 " fill-opacity="1" fill-rule="nonzero"/><path fill="#f5bc00" d="M 92.695312 65.285156 L 92.695312 65.316406 L 93.050781 65.464844 Z M 49.613281 60.949219 L 49.613281 62.730469 L 50.410156 65.109375 L 50.410156 63.386719 Z M 49.613281 60.949219 " fill-opacity="1" fill-rule="nonzero"/><path fill="#00b569" d="M 92.695312 65.285156 C 92.695312 65.285156 92.8125 65.078125 92.929688 64.898438 C 97.105469 67.929688 99.949219 73.691406 99.949219 80.253906 C 99.949219 84.351562 98.851562 88.152344 97.015625 91.183594 C 96.988281 91.183594 96.988281 91.183594 96.988281 91.210938 C 96.367188 92.222656 95.65625 93.113281 94.886719 93.945312 C 94.855469 93.945312 94.824219 93.972656 94.824219 94.003906 C 93.433594 95.816406 91.777344 97.152344 90.027344 98.128906 C 89.320312 96.289062 88.757812 94.359375 88.371094 92.339844 C 87.925781 90.410156 87.691406 88.359375 87.570312 86.28125 C 87.542969 85.65625 87.542969 85.003906 87.542969 84.382812 C 87.542969 83.492188 87.570312 82.597656 87.628906 81.738281 C 87.660156 81.085938 87.71875 80.429688 87.808594 79.808594 C 87.839844 79.539062 87.867188 79.304688 87.898438 79.066406 C 88.015625 78.144531 88.164062 77.222656 88.371094 76.332031 C 88.519531 75.621094 88.667969 74.90625 88.875 74.226562 C 88.875 74.164062 88.902344 74.105469 88.902344 74.078125 C 89.109375 73.332031 89.347656 72.621094 89.585938 71.910156 C 89.761719 71.375 89.96875 70.839844 90.175781 70.335938 C 90.238281 70.15625 90.324219 69.976562 90.414062 69.800781 C 90.445312 69.679688 90.503906 69.53125 90.5625 69.414062 C 90.769531 68.9375 91.007812 68.433594 91.242188 67.957031 C 91.421875 67.632812 91.570312 67.304688 91.746094 66.980469 C 92.011719 66.445312 92.398438 65.789062 92.695312 65.316406 " fill-opacity="1" fill-rule="nonzero"/><path fill="#f5bc00" d="M 76.261719 47.617188 C 75.757812 47.617188 75.253906 47.675781 74.78125 47.824219 C 78.746094 48.625 79.222656 50.941406 79.222656 53.316406 C 79.222656 55.992188 78.421875 58.484375 73.949219 59.019531 C 74.660156 59.316406 75.429688 59.496094 76.261719 59.496094 C 79.519531 59.496094 82.183594 56.824219 82.183594 53.554688 C 82.183594 50.289062 79.519531 47.617188 76.261719 47.617188 Z M 76.261719 47.617188 " fill-opacity="1" fill-rule="nonzero"/><path fill="#f5bc00" d="M 67.378906 47.617188 L 67.378906 47.644531 L 68.117188 47.617188 Z M 67.378906 47.617188 " fill-opacity="1" fill-rule="nonzero"/><g clip-path="url(#84a7719e1e)"><path fill="#f5bc00" d="M 96.988281 52.902344 C 96.988281 43.726562 92.574219 32.769531 71.730469 32.769531 L 58.199219 32.769531 C 53.253906 32.769531 49.613281 36.273438 49.613281 41.140625 L 49.613281 60.949219 L 50.410156 63.386719 L 50.410156 65.109375 L 62.523438 101.070312 L 73.269531 101.070312 C 77.148438 101.070312 83.8125 101.070312 89.792969 98.515625 C 89.910156 98.457031 90 98.429688 90.117188 98.367188 C 90.089844 98.28125 90.058594 98.21875 90.027344 98.128906 C 89.320312 96.289062 88.757812 94.359375 88.371094 92.339844 C 87.925781 90.410156 87.691406 88.359375 87.570312 86.28125 C 87.542969 85.65625 87.542969 85.003906 87.542969 84.382812 C 87.542969 83.492188 87.570312 82.597656 87.628906 81.738281 C 87.660156 81.085938 87.71875 80.429688 87.808594 79.808594 C 87.839844 79.539062 87.867188 79.304688 87.898438 79.066406 C 88.015625 78.144531 88.164062 77.222656 88.371094 76.332031 C 88.519531 75.621094 88.667969 74.90625 88.875 74.226562 C 88.875 74.164062 88.902344 74.105469 88.902344 74.078125 C 89.109375 73.332031 89.347656 72.621094 89.585938 71.910156 C 89.761719 71.375 89.96875 70.839844 90.175781 70.335938 C 90.238281 70.15625 90.324219 69.976562 90.414062 69.800781 C 90.445312 69.679688 90.503906 69.53125 90.5625 69.414062 C 90.769531 68.9375 91.007812 68.433594 91.242188 67.957031 C 91.421875 67.632812 91.570312 67.304688 91.746094 66.980469 C 92.011719 66.445312 92.398438 65.789062 92.695312 65.316406 C 92.695312 65.316406 92.8125 65.078125 92.929688 64.898438 L 92.929688 64.871094 C 93.050781 64.691406 93.167969 64.542969 93.316406 64.367188 C 93.671875 63.890625 93.996094 63.414062 94.324219 62.910156 C 94.410156 62.761719 94.5 62.613281 94.589844 62.464844 C 96.097656 59.851562 96.988281 56.824219 96.988281 53.554688 C 96.988281 53.4375 96.988281 53.316406 96.957031 53.199219 C 96.988281 53.109375 96.988281 52.992188 96.988281 52.902344 Z M 82.183594 80.28125 C 82.183594 80.667969 82.152344 81.054688 82.0625 81.410156 L 82.0625 81.5 C 81.945312 82.273438 81.679688 82.984375 81.175781 83.609375 C 81.085938 83.726562 81 83.816406 80.910156 83.9375 C 79.84375 85.332031 78.15625 86.222656 76.261719 86.222656 L 67.378906 86.222656 L 67.378906 74.34375 L 76.261719 74.34375 C 79.429688 74.34375 82.035156 76.898438 82.183594 80.046875 Z M 76.261719 59.496094 L 67.378906 59.496094 L 67.378906 47.617188 L 76.261719 47.617188 C 79.519531 47.617188 82.183594 50.289062 82.183594 53.554688 C 82.183594 56.824219 79.519531 59.496094 76.261719 59.496094 Z M 76.261719 59.496094 " fill-opacity="1" fill-rule="nonzero"/></g><g clip-path="url(#bd786fa839)"><path fill="#3ddab4" d="M 144.363281 105.4375 C 144.363281 108.671875 142.644531 111.40625 139.152344 113.78125 C 134.414062 117.105469 128.136719 118.890625 120.972656 118.890625 C 107.585938 118.890625 96.722656 111.941406 91.300781 101.070312 C 90.945312 100.359375 90.621094 99.644531 90.324219 98.933594 L 90.355469 98.933594 C 90.265625 98.753906 90.207031 98.578125 90.117188 98.367188 C 90.089844 98.28125 90.058594 98.21875 90.027344 98.128906 C 91.777344 97.152344 93.433594 95.8125 94.824219 94.003906 C 94.824219 93.972656 94.855469 93.945312 94.886719 93.945312 C 95.65625 93.113281 96.367188 92.222656 96.988281 91.210938 C 96.988281 91.183594 96.988281 91.183594 97.015625 91.183594 C 98.851562 88.152344 99.949219 84.351562 99.949219 80.253906 C 99.949219 73.691406 97.105469 67.929688 92.929688 64.898438 L 92.929688 64.871094 C 93.050781 64.691406 93.167969 64.542969 93.316406 64.367188 C 93.671875 63.890625 93.996094 63.414062 94.324219 62.910156 C 94.382812 62.792969 94.46875 62.703125 94.558594 62.582031 C 94.589844 62.554688 94.617188 62.496094 94.648438 62.464844 C 95.242188 61.664062 95.890625 60.921875 96.574219 60.179688 C 97.429688 59.257812 98.347656 58.394531 99.328125 57.59375 C 105.042969 52.753906 112.503906 49.992188 120.972656 49.992188 C 128.078125 49.992188 134.148438 51.65625 139.269531 55.21875 C 142.703125 57.625 144.363281 60.328125 144.363281 63.535156 C 144.363281 67.871094 141.164062 71.136719 136.929688 71.136719 C 134.058594 71.136719 131.925781 69.800781 130.238281 68.761719 C 127.605469 67.066406 124.996094 66.117188 121.179688 66.117188 C 111.230469 66.117188 104.566406 73.453125 104.566406 84.382812 C 104.566406 95.367188 111.230469 102.761719 121.179688 102.761719 C 125.351562 102.761719 127.574219 101.871094 130.210938 100.210938 C 131.867188 99.140625 134 97.746094 136.84375 97.746094 C 141.046875 97.746094 144.363281 101.128906 144.363281 105.4375 Z M 144.363281 105.4375 " fill-opacity="1" fill-rule="nonzero"/></g><path fill="#f5bc00" d="M 94.648438 62.464844 C 94.617188 62.496094 94.589844 62.554688 94.558594 62.582031 C 94.46875 62.703125 94.382812 62.792969 94.324219 62.910156 C 94.410156 62.761719 94.5 62.613281 94.589844 62.464844 Z M 94.648438 62.464844 " fill-opacity="1" fill-rule="nonzero"/><path fill="#eb0000" d="M 62.9375 101.070312 L 58.527344 101.070312 C 53.453125 101.070312 49.738281 97.515625 49.738281 92.644531 L 49.613281 60.980469 Z M 62.9375 101.070312 " fill-opacity="1" fill-rule="nonzero"/><path fill="#ffffff" d="M 82.183594 80.046875 L 82.183594 80.28125 C 82.183594 80.667969 82.152344 81.054688 82.0625 81.410156 L 82.0625 81.5 C 81.886719 82.273438 81.589844 82.984375 81.175781 83.609375 C 81.085938 83.726562 81 83.816406 80.910156 83.9375 C 79.84375 85.332031 78.15625 86.222656 76.261719 86.222656 L 67.378906 86.222656 L 67.378906 74.34375 L 76.261719 74.34375 C 79.429688 74.34375 82.035156 76.898438 82.183594 80.046875 Z M 82.183594 80.046875 " fill-opacity="1" fill-rule="nonzero"/><path fill="#ffffff" d="M 68.117188 47.617188 L 67.378906 47.644531 L 67.378906 47.617188 Z M 68.117188 47.617188 " fill-opacity="1" fill-rule="nonzero"/><path fill="#ffffff" d="M 82.183594 53.554688 C 82.183594 56.824219 79.519531 59.496094 76.261719 59.496094 L 67.378906 59.496094 L 67.378906 47.644531 L 68.117188 47.617188 L 76.261719 47.617188 C 79.519531 47.617188 82.183594 50.289062 82.183594 53.554688 Z M 82.183594 53.554688 " fill-opacity="1" fill-rule="nonzero"/></svg>