<svg xmlns="http://www.w3.org/2000/svg" xmlns:xlink="http://www.w3.org/1999/xlink" width="150" zoomAndPan="magnify" viewBox="0 0 112.5 112.499997" height="150" preserveAspectRatio="xMidYMid meet" version="1.0"><defs><clipPath id="3e1ad96eb4"><path d="M 7.742188 8.105469 L 102.574219 8.105469 L 102.574219 102.1875 L 7.742188 102.1875 Z M 7.742188 8.105469 " clip-rule="nonzero"/></clipPath></defs><path fill="#d9eef6" d="M 64.71875 21.335938 C 64.5 21.367188 64.285156 21.421875 64.082031 21.507812 C 64.195312 21.457031 63.835938 21.597656 64.003906 21.550781 C 63.953125 21.566406 63.960938 21.550781 63.953125 21.621094 C 63.921875 21.835938 63.917969 21.691406 63.914062 21.886719 C 63.90625 22.6875 64.230469 23.519531 64.523438 24.261719 C 65.25 26.128906 66.265625 27.898438 67.296875 29.613281 C 67.949219 30.703125 68.34375 31.769531 67.644531 32.972656 C 67.191406 33.761719 66.675781 34.515625 66.21875 35.304688 C 65.273438 36.925781 64.066406 38.828125 63.835938 40.730469 C 63.824219 40.863281 63.820312 40.996094 63.824219 41.128906 C 63.824219 41.128906 63.847656 41.355469 63.84375 41.265625 C 63.84375 41.335938 63.859375 41.300781 63.871094 41.308594 C 63.949219 41.367188 64.03125 41.402344 64.125 41.421875 C 64.898438 41.660156 65.789062 41.578125 66.585938 41.519531 C 68.714844 41.355469 70.828125 40.890625 72.902344 40.382812 C 74.050781 40.105469 75.195312 40.035156 76.082031 40.984375 C 76.683594 41.628906 77.152344 42.425781 77.699219 43.121094 C 78.90625 44.660156 80.214844 46.375 81.851562 47.492188 C 82.109375 47.683594 82.390625 47.832031 82.703125 47.929688 C 82.867188 47.972656 82.71875 47.980469 82.921875 47.945312 C 82.8125 47.964844 82.902344 47.890625 82.851562 47.945312 C 83.34375 47.433594 83.609375 46.632812 83.828125 45.921875 C 84.421875 43.9375 84.683594 41.847656 84.878906 39.789062 C 84.988281 38.65625 85.089844 37.582031 86.140625 36.886719 C 86.828125 36.429688 87.652344 36.128906 88.386719 35.753906 C 90.242188 34.804688 92.113281 33.796875 93.785156 32.546875 C 94.3125 32.15625 94.964844 31.648438 95.238281 31.128906 L 95.269531 31.050781 C 95.261719 31.027344 95.257812 30.976562 95.285156 31.015625 C 95.136719 30.800781 94.960938 30.613281 94.753906 30.449219 C 93.191406 29.207031 91.082031 28.519531 89.230469 27.863281 C 88.359375 27.554688 87.449219 27.320312 86.582031 26.980469 C 85.375 26.507812 84.910156 25.445312 84.863281 24.222656 C 84.789062 22.214844 84.660156 20.183594 84.273438 18.203125 C 84.128906 17.359375 83.9375 16.457031 83.515625 15.703125 C 83.457031 15.59375 83.386719 15.492188 83.304688 15.398438 C 83.269531 15.359375 83.234375 15.324219 83.191406 15.289062 C 83.058594 15.246094 83.019531 15.261719 82.746094 15.355469 C 82.023438 15.601562 81.332031 16.167969 80.738281 16.667969 C 79.921875 17.367188 79.144531 18.113281 78.40625 18.898438 C 77.714844 19.621094 77.050781 20.367188 76.402344 21.125 C 75.570312 22.097656 74.714844 22.664062 73.375 22.421875 C 72.492188 22.214844 71.605469 22.019531 70.710938 21.855469 C 68.808594 21.488281 66.65625 21.019531 64.71875 21.335938 Z M 83.703125 28.574219 C 83.824219 28.371094 83.996094 28.234375 84.226562 28.171875 C 84.464844 28.109375 84.6875 28.136719 84.902344 28.257812 C 85.085938 28.378906 85.210938 28.542969 85.28125 28.75 L 85.230469 28.632812 C 85.3125 28.820312 85.414062 28.996094 85.53125 29.160156 C 85.648438 29.304688 85.777344 29.433594 85.917969 29.550781 C 86.066406 29.65625 86.226562 29.746094 86.390625 29.824219 C 86.523438 29.875 86.660156 29.914062 86.800781 29.945312 C 87.03125 30.007812 87.203125 30.140625 87.324219 30.347656 C 87.449219 30.5625 87.476562 30.785156 87.414062 31.023438 C 87.347656 31.25 87.214844 31.425781 87.011719 31.546875 C 86.796875 31.664062 86.574219 31.695312 86.335938 31.636719 C 85.707031 31.492188 85.152344 31.210938 84.667969 30.789062 C 84.183594 30.367188 83.828125 29.851562 83.605469 29.25 C 83.539062 29.011719 83.570312 28.785156 83.703125 28.574219 Z M 83.703125 28.574219 " fill-opacity="1" fill-rule="nonzero"/><path fill="#fcbb3c" d="M 80.914062 95.109375 C 80.902344 95.125 80.890625 95.144531 80.882812 95.160156 C 80.898438 95.148438 80.90625 95.128906 80.914062 95.109375 Z M 87.992188 75.324219 C 87.992188 75.261719 87.953125 75.257812 87.972656 75.304688 Z M 87.992188 75.339844 C 87.992188 75.347656 87.992188 75.355469 87.992188 75.363281 C 87.992188 75.363281 88.015625 75.3125 87.96875 75.484375 C 87.78125 76.152344 87.292969 76.824219 86.835938 77.421875 C 85.582031 79.074219 84.074219 80.550781 82.578125 81.980469 C 81.980469 82.546875 81.253906 83.078125 80.746094 83.726562 C 79.972656 84.6875 80.351562 85.804688 80.554688 86.882812 C 80.96875 88.992188 81.339844 91.175781 81.265625 93.332031 C 81.261719 93.757812 81.210938 94.175781 81.113281 94.589844 C 81.078125 94.726562 81.035156 94.863281 80.976562 94.992188 C 80.960938 95.03125 80.9375 95.066406 80.914062 95.101562 L 80.902344 95.101562 C 80.902344 95.101562 80.882812 95.101562 80.882812 95.101562 C 80.847656 95.109375 80.816406 95.121094 80.863281 95.121094 C 80.785156 95.121094 80.503906 95.121094 80.535156 95.121094 C 80.140625 95.058594 79.765625 94.949219 79.398438 94.792969 C 77.507812 94.035156 75.765625 92.789062 74.121094 91.605469 C 73.394531 91.082031 72.65625 90.308594 71.851562 90.042969 C 70.703125 89.664062 69.769531 90.382812 68.835938 90.921875 C 66.960938 92 65.027344 93.070312 62.972656 93.78125 C 62.558594 93.929688 62.132812 94.050781 61.703125 94.140625 C 61.570312 94.167969 61.4375 94.1875 61.304688 94.199219 C 61.164062 94.203125 61.023438 94.199219 60.882812 94.183594 C 60.820312 94.183594 60.78125 94.183594 60.730469 94.027344 C 60.636719 93.71875 60.585938 93.402344 60.578125 93.082031 C 60.5 91.035156 61.039062 88.941406 61.542969 86.972656 C 61.757812 86.128906 62.199219 85.15625 62.199219 84.28125 C 62.199219 83.121094 61.300781 82.484375 60.535156 81.78125 C 60.019531 81.308594 59.503906 80.824219 58.996094 80.332031 C 59.007812 80.242188 59.019531 80.144531 59.023438 80.058594 C 59.023438 79.816406 58.9375 79.613281 58.765625 79.441406 C 58.597656 79.269531 58.390625 79.183594 58.148438 79.183594 C 58.066406 79.1875 57.988281 79.199219 57.914062 79.226562 C 57.332031 78.613281 56.789062 77.96875 56.285156 77.289062 C 56.023438 76.941406 55.789062 76.578125 55.578125 76.199219 C 55.449219 75.945312 55.347656 75.6875 55.269531 75.414062 C 55.261719 75.347656 55.261719 75.277344 55.269531 75.210938 C 55.269531 75.375 55.269531 75.261719 55.28125 75.210938 C 55.265625 75.296875 55.316406 75.179688 55.351562 75.144531 C 55.601562 74.945312 55.871094 74.789062 56.164062 74.671875 C 58.023438 73.90625 60.175781 73.710938 62.15625 73.527344 C 63.015625 73.445312 63.878906 73.382812 64.742188 73.335938 C 64.808594 73.332031 64.878906 73.324219 64.945312 73.304688 C 66.113281 73.085938 66.574219 72.3125 67.039062 71.261719 C 67.445312 70.34375 67.875 69.433594 68.332031 68.539062 C 68.824219 67.550781 69.375 66.589844 69.980469 65.660156 C 70.40625 65.015625 70.925781 64.25 71.558594 63.839844 C 71.644531 63.785156 71.738281 63.742188 71.835938 63.707031 C 71.90625 63.667969 71.835938 63.675781 71.90625 63.707031 C 71.988281 63.730469 72.0625 63.773438 72.125 63.832031 C 72.242188 63.929688 72.351562 64.039062 72.457031 64.148438 C 73.09375 64.832031 73.539062 65.714844 73.949219 66.542969 C 74.863281 68.375 75.527344 70.304688 76.207031 72.234375 C 76.640625 73.464844 77.5625 73.910156 78.808594 73.9375 C 79.746094 73.949219 80.683594 73.980469 81.625 74.03125 C 83.492188 74.136719 85.640625 74.199219 87.378906 74.9375 C 87.589844 75.027344 87.78125 75.144531 87.957031 75.289062 C 87.96875 75.308594 87.980469 75.328125 88 75.339844 Z M 65.214844 82.976562 C 64.082031 82.976562 64.082031 84.730469 65.214844 84.730469 C 66.351562 84.730469 66.351562 82.976562 65.214844 82.976562 Z M 88.003906 75.324219 C 88.015625 75.332031 88.074219 75.378906 88 75.324219 Z M 88.003906 75.355469 L 88.003906 75.339844 Z M 88.003906 75.355469 " fill-opacity="1" fill-rule="nonzero"/><path fill="#f59b9c" d="M 46.996094 40.644531 C 46.949219 40.628906 46.734375 40.566406 46.617188 40.535156 C 45.746094 40.328125 44.792969 40.382812 43.90625 40.433594 C 42.859375 40.488281 41.824219 40.605469 40.78125 40.757812 C 39.824219 40.898438 38.875 41.070312 37.925781 41.246094 C 36.589844 41.488281 35.570312 41.058594 34.886719 39.871094 C 33.855469 38.097656 32.765625 36.328125 31.480469 34.734375 C 30.9375 34.058594 30.347656 33.320312 29.601562 32.839844 C 29.480469 32.769531 29.355469 32.707031 29.222656 32.652344 C 29.074219 32.601562 29.175781 32.609375 29.054688 32.621094 C 29.011719 32.640625 28.96875 32.664062 28.929688 32.691406 C 28.996094 32.648438 28.765625 32.84375 28.714844 32.898438 C 28.175781 33.488281 27.839844 34.3125 27.550781 35.050781 C 27.152344 36.097656 26.808594 37.160156 26.523438 38.246094 C 26.273438 39.160156 26.054688 40.082031 25.851562 41.007812 C 25.597656 42.179688 25.175781 43.109375 23.941406 43.503906 C 23.09375 43.726562 22.253906 43.964844 21.417969 44.21875 C 19.5 44.8125 17.300781 45.425781 15.675781 46.65625 C 15.46875 46.8125 15.285156 46.996094 15.128906 47.203125 C 15.089844 47.28125 15.113281 47.238281 15.128906 47.3125 C 15.105469 47.097656 15.210938 47.5 15.1875 47.460938 C 15.496094 48.167969 16.1875 48.742188 16.753906 49.230469 C 18.289062 50.554688 20.042969 51.660156 21.785156 52.699219 C 22.730469 53.269531 23.632812 53.824219 23.75 55.046875 C 23.832031 55.894531 23.65625 56.8125 23.621094 57.664062 C 23.53125 59.621094 23.429688 61.730469 23.910156 63.644531 C 23.96875 63.960938 24.085938 64.261719 24.25 64.539062 C 24.277344 64.585938 24.308594 64.625 24.347656 64.660156 C 24.359375 64.671875 24.253906 64.648438 24.445312 64.683594 C 24.289062 64.65625 24.445312 64.667969 24.515625 64.667969 L 24.707031 64.636719 C 24.847656 64.601562 24.992188 64.558594 25.128906 64.507812 C 25.523438 64.351562 25.902344 64.160156 26.265625 63.941406 C 28.113281 62.863281 29.777344 61.460938 31.378906 60.054688 C 32.136719 59.390625 32.835938 58.539062 33.898438 58.453125 C 34.914062 58.363281 35.867188 59.019531 36.757812 59.425781 C 38.609375 60.269531 40.539062 61.097656 42.539062 61.503906 C 42.914062 61.589844 43.289062 61.632812 43.671875 61.636719 C 43.871094 61.65625 44.0625 61.621094 44.242188 61.535156 C 44.273438 61.429688 44.300781 61.320312 44.320312 61.210938 C 44.355469 60.820312 44.34375 60.433594 44.285156 60.050781 C 44.007812 57.890625 43.148438 55.765625 42.332031 53.761719 C 41.9375 52.796875 41.347656 51.839844 41.667969 50.757812 C 41.917969 49.933594 42.648438 49.183594 43.136719 48.488281 C 44.339844 46.757812 45.523438 44.976562 46.457031 43.078125 C 46.773438 42.433594 47.132812 41.546875 47.199219 40.976562 C 47.199219 40.890625 47.199219 40.808594 47.199219 40.722656 C 47.1875 40.914062 47.1875 40.757812 47.199219 40.738281 C 47.207031 40.714844 47.226562 40.722656 47.171875 40.710938 C 47.3125 40.765625 46.964844 40.632812 46.996094 40.644531 Z M 27.566406 44.488281 C 27.292969 45.351562 26.84375 46.109375 26.214844 46.761719 C 25.585938 47.414062 24.84375 47.890625 23.988281 48.191406 C 23.527344 48.355469 23.042969 48.003906 22.910156 47.578125 C 22.757812 47.105469 23.101562 46.65625 23.523438 46.5 L 23.671875 46.445312 L 23.707031 46.433594 L 23.859375 46.359375 C 24.015625 46.277344 24.167969 46.191406 24.316406 46.09375 C 24.386719 46.046875 24.457031 46 24.523438 45.949219 C 24.546875 45.929688 24.574219 45.910156 24.597656 45.890625 C 24.726562 45.777344 24.855469 45.65625 24.972656 45.53125 C 25.035156 45.464844 25.097656 45.398438 25.164062 45.328125 C 25.1875 45.300781 25.214844 45.269531 25.238281 45.238281 L 25.296875 45.167969 L 25.214844 45.273438 C 25.269531 45.25 25.339844 45.101562 25.375 45.050781 C 25.40625 44.996094 25.472656 44.894531 25.519531 44.816406 C 25.605469 44.671875 25.683594 44.523438 25.753906 44.371094 C 25.757812 44.359375 25.761719 44.347656 25.769531 44.339844 L 25.789062 44.285156 C 25.820312 44.199219 25.851562 44.109375 25.875 44.023438 C 25.945312 43.792969 26.082031 43.621094 26.292969 43.5 C 26.5 43.382812 26.722656 43.351562 26.953125 43.410156 C 27.183594 43.476562 27.359375 43.617188 27.480469 43.824219 C 27.597656 44.035156 27.625 44.253906 27.566406 44.488281 Z M 28.109375 42.128906 C 26.976562 42.128906 26.976562 40.375 28.109375 40.375 C 29.246094 40.375 29.238281 42.128906 28.109375 42.128906 Z M 44.222656 61.550781 C 44.222656 61.539062 44.222656 61.546875 44.222656 61.550781 Z M 44.222656 61.550781 " fill-opacity="1" fill-rule="nonzero"/><g clip-path="url(#3e1ad96eb4)"><path fill="#fff7ed" d="M 50.902344 56.652344 C 50.535156 55.265625 50.089844 53.902344 49.570312 52.566406 C 49.507812 52.40625 49.445312 52.25 49.378906 52.097656 C 50.039062 51.136719 50.617188 50.253906 51.136719 49.410156 L 51.359375 49.054688 C 52.527344 47.179688 54.125 44.609375 54.359375 41.480469 C 54.445312 40.484375 54.332031 39.511719 54.019531 38.558594 C 53.703125 37.609375 53.21875 36.761719 52.554688 36.007812 C 51.007812 34.273438 48.71875 33.332031 45.75 33.210938 C 45.4375 33.195312 45.125 33.191406 44.804688 33.191406 C 43.03125 33.210938 41.273438 33.367188 39.527344 33.664062 L 39.046875 32.925781 C 37.75 30.953125 35.976562 28.25 33.144531 26.582031 C 31.917969 25.832031 30.585938 25.453125 29.148438 25.445312 C 26.097656 25.445312 23.394531 27.273438 21.726562 30.460938 C 20.53125 32.730469 19.851562 35.089844 19.304688 37.324219 C 17.859375 37.765625 16.4375 38.28125 15.042969 38.863281 L 14.929688 38.914062 C 13.152344 39.671875 7.742188 41.960938 7.914062 47.472656 C 8.042969 51.824219 11.527344 54.394531 13.398438 55.773438 L 13.683594 55.984375 C 14.488281 56.585938 15.382812 57.195312 16.394531 57.847656 C 16.34375 59.171875 16.34375 60.289062 16.394531 61.363281 L 16.40625 61.605469 C 16.492188 63.707031 16.695312 68.628906 20.816406 70.945312 C 21.960938 71.585938 23.191406 71.902344 24.503906 71.890625 C 27.550781 71.890625 30.082031 70.113281 31.441406 69.15625 L 31.605469 69.042969 C 32.628906 68.324219 33.671875 67.519531 34.886719 66.503906 L 34.910156 66.484375 C 35.824219 66.875 36.652344 67.210938 37.464844 67.507812 C 38.792969 68.015625 40.160156 68.398438 41.5625 68.652344 C 42.257812 68.773438 42.964844 68.835938 43.671875 68.839844 C 45.003906 68.855469 46.265625 68.566406 47.453125 67.96875 C 51.191406 66.082031 52.355469 62.265625 50.902344 56.652344 Z M 48.921875 41.078125 C 48.78125 43.011719 47.492188 44.9375 46.503906 46.542969 C 45.90625 47.507812 45.277344 48.453125 44.625 49.378906 C 44.207031 49.980469 43.136719 51.003906 43.351562 51.769531 C 43.613281 52.695312 44.132812 53.601562 44.472656 54.503906 C 44.921875 55.652344 45.304688 56.820312 45.625 58.011719 C 46.003906 59.480469 46.722656 62.234375 44.976562 63.128906 C 44.207031 63.519531 43.273438 63.417969 42.453125 63.28125 C 41.386719 63.082031 40.347656 62.785156 39.335938 62.394531 C 38.246094 61.992188 37.175781 61.539062 36.121094 61.070312 C 35.492188 60.785156 34.316406 59.90625 33.648438 60.359375 C 32.847656 60.902344 32.144531 61.707031 31.398438 62.328125 C 30.453125 63.117188 29.492188 63.882812 28.484375 64.585938 C 27.265625 65.4375 25.066406 67.082031 23.496094 66.199219 C 21.921875 65.3125 21.910156 62.652344 21.839844 61.132812 C 21.792969 60.054688 21.804688 58.976562 21.847656 57.898438 C 21.867188 57.378906 21.894531 56.855469 21.929688 56.335938 C 21.957031 55.957031 22.078125 55.480469 21.980469 55.113281 C 21.867188 54.660156 21.308594 54.46875 20.945312 54.253906 C 20.539062 54.011719 20.136719 53.765625 19.734375 53.515625 C 18.789062 52.917969 17.84375 52.292969 16.941406 51.625 C 15.640625 50.652344 13.421875 49.164062 13.367188 47.320312 C 13.308594 45.476562 15.8125 44.484375 17.179688 43.894531 C 19.230469 43.050781 21.328125 42.355469 23.476562 41.816406 C 24.222656 41.574219 24.246094 40.128906 24.402344 39.46875 C 24.921875 37.273438 25.507812 35.003906 26.558594 32.996094 C 27.351562 31.484375 28.667969 30.261719 30.386719 31.273438 C 32.230469 32.363281 33.554688 34.488281 34.703125 36.234375 C 35.269531 37.082031 35.796875 37.949219 36.308594 38.824219 C 36.601562 39.328125 36.816406 39.648438 37.457031 39.550781 C 37.894531 39.484375 38.324219 39.390625 38.761719 39.3125 C 40.976562 38.933594 43.269531 38.558594 45.523438 38.652344 C 47.0625 38.722656 49.070312 39.125 48.921875 41.078125 Z M 102.226562 29.1875 C 101.621094 26.917969 100.042969 25.097656 97.410156 23.589844 C 95.648438 22.613281 93.8125 21.800781 91.902344 21.152344 C 91.878906 20.886719 91.859375 20.625 91.832031 20.367188 L 91.800781 20.019531 C 91.585938 17.777344 91.296875 14.710938 89.691406 12 C 88.238281 9.542969 85.828125 8.136719 83.078125 8.136719 C 81.320312 8.136719 79.5625 8.707031 77.867188 9.839844 C 75.671875 11.292969 73.929688 13.082031 72.351562 14.835938 C 70.832031 14.527344 69.300781 14.304688 67.757812 14.164062 C 67.210938 14.113281 66.457031 14.042969 65.605469 14.042969 C 59.726562 14.042969 57.777344 17.582031 57.210938 19.101562 C 55.820312 22.832031 57.542969 26.457031 58.472656 28.40625 L 58.613281 28.699219 C 59.03125 29.589844 59.515625 30.519531 60.082031 31.535156 C 60.003906 31.660156 59.925781 31.789062 59.851562 31.925781 C 59.1875 33.058594 58.589844 34.226562 58.050781 35.425781 L 58.007812 35.519531 C 57.207031 37.320312 54.773438 42.808594 59.058594 46.667969 C 61.210938 48.605469 63.949219 48.722656 64.847656 48.757812 C 65.074219 48.769531 65.300781 48.773438 65.523438 48.773438 C 66.753906 48.753906 67.980469 48.652344 69.195312 48.457031 C 70.171875 48.316406 71.195312 48.136719 72.308594 47.90625 C 73.199219 49.039062 73.988281 49.949219 74.785156 50.789062 L 74.890625 50.902344 C 76.199219 52.285156 78.921875 55.164062 82.773438 55.164062 C 83.421875 55.164062 84.054688 55.082031 84.679688 54.921875 C 89.597656 53.636719 90.707031 48.460938 91.179688 46.25 L 91.214844 46.078125 C 91.472656 44.894531 91.675781 43.652344 91.871094 42.058594 C 93.03125 41.460938 94.054688 40.898438 94.996094 40.34375 C 96.113281 39.699219 97.183594 38.988281 98.210938 38.214844 C 99.367188 37.332031 100.558594 36.308594 101.441406 34.792969 C 101.941406 33.949219 102.261719 33.039062 102.398438 32.070312 C 102.535156 31.097656 102.476562 30.136719 102.226562 29.1875 Z M 96.730469 32.046875 C 96.292969 32.800781 95.578125 33.371094 94.902344 33.882812 C 94.050781 34.523438 93.160156 35.109375 92.234375 35.640625 C 91.265625 36.207031 90.273438 36.746094 89.273438 37.261719 C 88.839844 37.484375 88.40625 37.703125 87.96875 37.917969 C 87.625 38.085938 87.132812 38.226562 86.890625 38.53125 C 86.613281 38.875 86.667969 39.441406 86.628906 39.855469 C 86.582031 40.332031 86.53125 40.804688 86.472656 41.28125 C 86.324219 42.5 86.148438 43.722656 85.886719 44.925781 C 85.574219 46.378906 85.039062 49.1875 83.304688 49.640625 C 81.570312 50.097656 79.789062 48.144531 78.742188 47.035156 C 77.953125 46.203125 77.226562 45.324219 76.507812 44.425781 C 76.164062 43.988281 75.828125 43.546875 75.496094 43.101562 C 75.253906 42.78125 75.023438 42.332031 74.707031 42.082031 C 74.28125 41.753906 73.761719 41.972656 73.300781 42.082031 C 72.84375 42.195312 72.382812 42.300781 71.921875 42.402344 C 70.765625 42.65625 69.597656 42.882812 68.425781 43.046875 C 67.320312 43.238281 66.203125 43.328125 65.078125 43.3125 C 64.28125 43.277344 63.332031 43.179688 62.707031 42.617188 C 61.328125 41.375 62.4375 38.984375 63.039062 37.628906 C 63.5 36.605469 64.015625 35.605469 64.582031 34.632812 C 65.070312 33.777344 65.671875 32.960938 66.132812 32.089844 C 66.59375 31.21875 65.550781 30.125 65.132812 29.390625 C 64.566406 28.40625 64.027344 27.402344 63.542969 26.367188 C 62.84375 24.882812 61.691406 22.683594 62.320312 20.996094 C 62.996094 19.183594 65.800781 19.453125 67.316406 19.589844 C 69.519531 19.808594 71.695312 20.1875 73.84375 20.722656 C 74.695312 20.875 75.460938 19.523438 75.953125 18.96875 C 77.433594 17.320312 79.019531 15.617188 80.878906 14.378906 C 82.308594 13.433594 84 13.089844 85 14.777344 C 86.042969 16.539062 86.214844 18.898438 86.40625 20.886719 C 86.511719 21.953125 86.574219 23.019531 86.617188 24.089844 C 86.636719 24.566406 86.632812 25.023438 87.097656 25.289062 C 87.460938 25.496094 87.957031 25.574219 88.355469 25.707031 C 90.515625 26.417969 92.722656 27.191406 94.707031 28.324219 C 96.023438 29.078125 97.707031 30.367188 96.730469 32.046875 Z M 88.03125 67.628906 C 86.019531 67.179688 83.984375 66.917969 81.925781 66.84375 L 81.773438 66.464844 C 80.878906 64.171875 79.769531 61.320312 77.515625 59.03125 C 75.90625 57.394531 73.945312 56.53125 71.855469 56.53125 C 71.324219 56.53125 70.800781 56.585938 70.28125 56.703125 C 67.535156 57.308594 65.875 59.273438 65.328125 59.917969 C 63.589844 61.96875 62.414062 64.222656 61.386719 66.386719 C 59.921875 66.53125 58.585938 66.714844 57.324219 66.957031 L 57.144531 66.988281 C 54.953125 67.394531 49.816406 68.347656 48.375 73.230469 C 47.035156 77.753906 50.175781 81.328125 51.6875 83.050781 L 51.855469 83.238281 C 52.597656 84.089844 53.410156 84.941406 54.402344 85.90625 C 54.105469 87.136719 53.886719 88.210938 53.71875 89.25 L 53.671875 89.535156 C 53.292969 91.804688 52.523438 96.507812 56.128906 99.632812 C 56.839844 100.242188 57.636719 100.707031 58.515625 101.023438 C 59.394531 101.339844 60.300781 101.492188 61.238281 101.476562 C 63.613281 101.476562 65.695312 100.546875 67.078125 99.933594 L 67.367188 99.800781 C 68.441406 99.332031 69.542969 98.785156 70.824219 98.097656 C 71.695312 98.710938 72.511719 99.246094 73.296875 99.722656 C 74.527344 100.496094 75.824219 101.140625 77.179688 101.664062 C 78.320312 102.105469 79.5 102.332031 80.722656 102.347656 C 81.523438 102.347656 82.308594 102.230469 83.074219 101.988281 C 87.015625 100.746094 88.820312 97.167969 88.445312 91.355469 C 88.347656 89.933594 88.175781 88.523438 87.933594 87.121094 C 87.921875 87.039062 87.90625 86.957031 87.890625 86.878906 C 88.738281 86.0625 89.488281 85.308594 90.175781 84.574219 C 91.121094 83.578125 92.003906 82.53125 92.828125 81.433594 C 93.621094 80.355469 94.496094 79.023438 94.9375 77.3125 C 95.195312 76.355469 95.257812 75.386719 95.125 74.40625 C 94.988281 73.421875 94.667969 72.503906 94.160156 71.652344 C 92.972656 69.671875 90.910156 68.316406 88.039062 67.628906 Z M 89.65625 75.949219 C 89.441406 76.769531 88.933594 77.519531 88.4375 78.191406 C 87.742188 79.117188 86.992188 80 86.191406 80.839844 C 85.40625 81.671875 84.597656 82.476562 83.769531 83.265625 C 83.421875 83.597656 83.074219 83.921875 82.722656 84.246094 C 82.445312 84.5 82 84.777344 82 85.191406 C 82 85.605469 82.191406 86.085938 82.269531 86.488281 C 82.367188 86.992188 82.460938 87.5 82.542969 88.015625 C 82.753906 89.238281 82.90625 90.464844 82.992188 91.699219 C 83.089844 93.210938 83.304688 96.195312 81.421875 96.789062 C 80.664062 97.03125 79.789062 96.808594 79.066406 96.539062 C 78.035156 96.136719 77.050781 95.640625 76.113281 95.046875 C 75.128906 94.453125 74.179688 93.800781 73.246094 93.128906 C 72.867188 92.851562 72.488281 92.570312 72.109375 92.285156 C 71.734375 92.007812 71.382812 91.566406 70.890625 91.769531 C 70.027344 92.117188 69.210938 92.753906 68.394531 93.199219 C 67.339844 93.765625 66.269531 94.316406 65.179688 94.796875 C 63.777344 95.410156 61.128906 96.738281 59.710938 95.507812 C 58.292969 94.277344 58.863281 91.660156 59.113281 90.105469 C 59.300781 88.972656 59.542969 87.851562 59.824219 86.742188 C 59.949219 86.238281 60.082031 85.742188 60.222656 85.246094 C 60.320312 84.890625 60.597656 84.351562 60.382812 84.007812 C 60.167969 83.664062 59.699219 83.378906 59.417969 83.121094 C 59.136719 82.863281 58.851562 82.589844 58.566406 82.316406 L 58.375 82.128906 C 57.96875 81.734375 57.566406 81.335938 57.167969 80.929688 C 56.773438 80.523438 56.378906 80.09375 55.984375 79.644531 C 54.960938 78.472656 53.105469 76.5 53.621094 74.757812 C 54.136719 73.019531 56.851562 72.582031 58.347656 72.300781 C 60.476562 71.921875 62.621094 71.6875 64.777344 71.59375 C 65.199219 71.542969 65.367188 70.839844 65.515625 70.5 C 65.703125 70.082031 65.894531 69.664062 66.082031 69.246094 C 67.027344 67.222656 68.058594 65.144531 69.511719 63.425781 C 70.023438 62.820312 70.679688 62.1875 71.484375 62.011719 C 72.324219 61.820312 73.082031 62.261719 73.65625 62.84375 C 75.203125 64.417969 76.0625 66.753906 76.851562 68.769531 C 77.226562 69.734375 77.535156 70.71875 77.898438 71.683594 C 78.089844 72.1875 78.347656 72.183594 78.84375 72.191406 C 79.277344 72.191406 79.707031 72.203125 80.136719 72.222656 C 82.351562 72.289062 84.625 72.410156 86.785156 72.925781 C 88.257812 73.289062 90.148438 74.074219 89.664062 75.949219 Z M 27.566406 44.488281 C 27.292969 45.351562 26.84375 46.109375 26.214844 46.761719 C 25.585938 47.414062 24.84375 47.890625 23.988281 48.191406 C 23.527344 48.355469 23.042969 48.003906 22.910156 47.578125 C 22.757812 47.105469 23.101562 46.65625 23.523438 46.5 L 23.671875 46.445312 L 23.707031 46.433594 L 23.859375 46.359375 C 24.015625 46.277344 24.167969 46.191406 24.316406 46.09375 C 24.386719 46.046875 24.457031 46 24.523438 45.949219 C 24.546875 45.929688 24.574219 45.910156 24.597656 45.890625 C 24.726562 45.777344 24.855469 45.65625 24.972656 45.53125 C 25.035156 45.464844 25.097656 45.398438 25.164062 45.328125 C 25.1875 45.300781 25.214844 45.269531 25.238281 45.238281 L 25.296875 45.167969 L 25.214844 45.273438 C 25.269531 45.25 25.339844 45.101562 25.375 45.050781 C 25.40625 44.996094 25.472656 44.894531 25.519531 44.816406 C 25.605469 44.671875 25.683594 44.523438 25.753906 44.371094 C 25.757812 44.359375 25.761719 44.347656 25.769531 44.339844 L 25.789062 44.285156 C 25.820312 44.199219 25.851562 44.109375 25.875 44.023438 C 25.945312 43.792969 26.082031 43.621094 26.292969 43.5 C 26.5 43.382812 26.722656 43.351562 26.953125 43.410156 C 27.183594 43.476562 27.359375 43.617188 27.480469 43.824219 C 27.597656 44.035156 27.625 44.253906 27.566406 44.488281 Z M 28.109375 42.128906 C 26.976562 42.128906 26.976562 40.375 28.109375 40.375 C 29.246094 40.375 29.238281 42.128906 28.109375 42.128906 Z M 59.046875 80.070312 C 59.046875 80.160156 59.03125 80.261719 59.023438 80.34375 C 58.652344 79.980469 58.289062 79.613281 57.9375 79.238281 C 58.011719 79.210938 58.09375 79.199219 58.171875 79.195312 C 58.414062 79.195312 58.621094 79.28125 58.792969 79.453125 C 58.960938 79.625 59.046875 79.828125 59.046875 80.070312 Z M 65.214844 84.730469 C 64.082031 84.730469 64.082031 82.976562 65.214844 82.976562 C 66.351562 82.976562 66.351562 84.730469 65.214844 84.730469 Z M 87.34375 30.347656 C 87.464844 30.5625 87.496094 30.785156 87.429688 31.023438 C 87.367188 31.25 87.230469 31.425781 87.027344 31.546875 C 86.8125 31.664062 86.589844 31.695312 86.351562 31.636719 C 85.726562 31.492188 85.171875 31.210938 84.6875 30.789062 C 84.203125 30.367188 83.847656 29.851562 83.621094 29.25 C 83.550781 29.011719 83.582031 28.789062 83.710938 28.574219 C 83.832031 28.371094 84.003906 28.234375 84.234375 28.171875 C 84.472656 28.109375 84.695312 28.136719 84.910156 28.257812 C 85.09375 28.378906 85.21875 28.542969 85.289062 28.75 L 85.238281 28.632812 C 85.320312 28.820312 85.417969 28.996094 85.539062 29.160156 C 85.65625 29.304688 85.785156 29.433594 85.925781 29.550781 C 86.074219 29.65625 86.230469 29.746094 86.394531 29.824219 C 86.53125 29.875 86.667969 29.914062 86.808594 29.945312 C 87.042969 30.007812 87.21875 30.140625 87.34375 30.347656 Z M 87.34375 30.347656 " fill-opacity="1" fill-rule="nonzero"/></g><path fill="#4d1339" d="M 45.523438 38.65625 C 43.269531 38.5625 40.976562 38.933594 38.761719 39.316406 C 38.324219 39.394531 37.894531 39.488281 37.457031 39.554688 C 36.816406 39.652344 36.601562 39.332031 36.308594 38.828125 C 35.796875 37.953125 35.265625 37.085938 34.703125 36.238281 C 33.554688 34.5 32.230469 32.363281 30.386719 31.277344 C 28.667969 30.265625 27.359375 31.492188 26.558594 33 C 25.507812 35.007812 24.921875 37.277344 24.402344 39.472656 C 24.246094 40.132812 24.214844 41.578125 23.476562 41.820312 C 21.328125 42.359375 19.230469 43.054688 17.179688 43.898438 C 15.8125 44.480469 13.3125 45.492188 13.367188 47.324219 C 13.421875 49.160156 15.636719 50.65625 16.941406 51.628906 C 17.84375 52.300781 18.78125 52.921875 19.734375 53.519531 C 20.136719 53.769531 20.539062 54.015625 20.945312 54.257812 C 21.308594 54.472656 21.867188 54.664062 21.980469 55.117188 C 22.078125 55.480469 21.957031 55.964844 21.929688 56.339844 C 21.894531 56.859375 21.867188 57.382812 21.847656 57.902344 C 21.804688 58.980469 21.792969 60.058594 21.839844 61.136719 C 21.90625 62.648438 21.929688 65.328125 23.488281 66.203125 C 25.042969 67.078125 27.257812 65.445312 28.476562 64.589844 C 29.484375 63.886719 30.449219 63.121094 31.390625 62.335938 C 32.148438 61.710938 32.839844 60.90625 33.640625 60.367188 C 34.308594 59.914062 35.484375 60.789062 36.113281 61.074219 C 37.175781 61.550781 38.246094 62.003906 39.328125 62.398438 C 40.339844 62.789062 41.378906 63.085938 42.445312 63.289062 C 43.261719 63.421875 44.199219 63.527344 44.96875 63.132812 C 46.714844 62.242188 45.996094 59.484375 45.617188 58.015625 C 45.300781 56.824219 44.914062 55.65625 44.464844 54.507812 C 44.125 53.609375 43.605469 52.699219 43.34375 51.777344 C 43.128906 51.007812 44.199219 49.988281 44.621094 49.382812 C 45.269531 48.449219 45.898438 47.503906 46.496094 46.546875 C 47.484375 44.945312 48.765625 43.019531 48.914062 41.082031 C 49.066406 39.148438 47.0625 38.722656 45.523438 38.65625 Z M 44.222656 61.554688 C 44.222656 61.539062 44.222656 61.554688 44.222656 61.554688 Z M 44.300781 61.226562 C 44.28125 61.339844 44.257812 61.445312 44.222656 61.554688 C 44.042969 61.636719 43.851562 61.671875 43.65625 61.65625 C 43.273438 61.652344 42.894531 61.605469 42.519531 61.523438 C 40.519531 61.105469 38.589844 60.28125 36.738281 59.441406 C 35.847656 59.035156 34.894531 58.378906 33.878906 58.46875 C 32.820312 58.566406 32.113281 59.414062 31.359375 60.070312 C 29.757812 61.476562 28.09375 62.878906 26.253906 63.957031 C 25.890625 64.175781 25.515625 64.367188 25.121094 64.523438 C 24.980469 64.574219 24.839844 64.617188 24.695312 64.652344 L 24.507812 64.683594 C 24.429688 64.683594 24.277344 64.671875 24.4375 64.703125 C 24.246094 64.664062 24.351562 64.6875 24.339844 64.679688 C 24.300781 64.640625 24.269531 64.601562 24.242188 64.554688 C 24.074219 64.277344 23.960938 63.980469 23.898438 63.660156 C 23.414062 61.746094 23.523438 59.636719 23.609375 57.679688 C 23.648438 56.828125 23.824219 55.910156 23.738281 55.066406 C 23.621094 53.839844 22.730469 53.285156 21.773438 52.71875 C 20.03125 51.675781 18.28125 50.578125 16.746094 49.246094 C 16.179688 48.757812 15.488281 48.183594 15.175781 47.480469 C 15.199219 47.511719 15.09375 47.117188 15.121094 47.328125 C 15.121094 47.253906 15.089844 47.296875 15.121094 47.222656 C 15.277344 47.011719 15.460938 46.832031 15.667969 46.671875 C 17.292969 45.445312 19.488281 44.828125 21.40625 44.238281 C 22.242188 43.984375 23.085938 43.746094 23.933594 43.519531 C 25.164062 43.121094 25.585938 42.195312 25.84375 41.015625 C 26.042969 40.089844 26.265625 39.167969 26.511719 38.253906 C 26.796875 37.171875 27.140625 36.105469 27.539062 35.058594 C 27.824219 34.324219 28.164062 33.496094 28.703125 32.90625 C 28.75 32.855469 28.980469 32.65625 28.917969 32.703125 C 28.957031 32.671875 28.996094 32.648438 29.042969 32.628906 C 29.164062 32.621094 29.058594 32.609375 29.210938 32.660156 C 29.339844 32.714844 29.464844 32.78125 29.589844 32.851562 C 30.324219 33.324219 30.921875 34.0625 31.46875 34.742188 C 32.761719 36.335938 33.851562 38.109375 34.871094 39.878906 C 35.558594 41.058594 36.574219 41.496094 37.910156 41.253906 C 38.855469 41.082031 39.8125 40.90625 40.769531 40.765625 C 41.804688 40.617188 42.847656 40.5 43.894531 40.441406 C 44.78125 40.394531 45.730469 40.339844 46.601562 40.546875 C 46.71875 40.574219 46.9375 40.636719 46.980469 40.65625 C 46.953125 40.644531 47.300781 40.773438 47.128906 40.734375 C 47.183594 40.746094 47.160156 40.734375 47.15625 40.757812 C 47.152344 40.78125 47.15625 40.945312 47.15625 40.746094 C 47.15625 40.828125 47.167969 40.914062 47.15625 40.996094 C 47.089844 41.5625 46.730469 42.453125 46.414062 43.097656 C 45.480469 44.992188 44.300781 46.777344 43.09375 48.511719 C 42.605469 49.210938 41.875 49.960938 41.628906 50.777344 C 41.304688 51.859375 41.894531 52.816406 42.292969 53.785156 C 43.109375 55.785156 43.964844 57.914062 44.242188 60.070312 C 44.308594 60.453125 44.328125 60.839844 44.296875 61.226562 Z M 94.707031 28.320312 C 92.726562 27.1875 90.515625 26.414062 88.355469 25.703125 C 87.957031 25.574219 87.464844 25.496094 87.101562 25.285156 C 86.632812 25.019531 86.636719 24.5625 86.621094 24.085938 C 86.578125 23.019531 86.511719 21.949219 86.40625 20.886719 C 86.21875 18.894531 86.046875 16.535156 85.003906 14.777344 C 84 13.089844 82.308594 13.433594 80.878906 14.378906 C 79.011719 15.617188 77.433594 17.320312 75.953125 18.984375 C 75.460938 19.539062 74.695312 20.890625 73.84375 20.738281 C 71.695312 20.203125 69.519531 19.824219 67.316406 19.605469 C 65.804688 19.46875 62.996094 19.195312 62.320312 21.011719 C 61.691406 22.699219 62.84375 24.898438 63.542969 26.382812 C 64.027344 27.410156 64.566406 28.414062 65.132812 29.40625 C 65.550781 30.140625 66.578125 31.257812 66.132812 32.105469 C 65.6875 32.953125 65.070312 33.792969 64.582031 34.648438 C 64.015625 35.621094 63.5 36.621094 63.039062 37.644531 C 62.4375 39 61.335938 41.390625 62.707031 42.632812 C 63.332031 43.203125 64.28125 43.292969 65.078125 43.328125 C 66.203125 43.339844 67.320312 43.25 68.429688 43.058594 C 69.601562 42.890625 70.769531 42.667969 71.925781 42.410156 C 72.386719 42.3125 72.847656 42.203125 73.304688 42.09375 C 73.765625 41.984375 74.285156 41.761719 74.710938 42.09375 C 75.027344 42.339844 75.257812 42.789062 75.5 43.109375 C 75.832031 43.554688 76.171875 43.996094 76.511719 44.433594 C 77.222656 45.332031 77.957031 46.214844 78.746094 47.046875 C 79.792969 48.152344 81.566406 50.105469 83.308594 49.652344 C 85.050781 49.199219 85.578125 46.390625 85.890625 44.933594 C 86.152344 43.734375 86.328125 42.511719 86.476562 41.289062 C 86.535156 40.816406 86.585938 40.339844 86.632812 39.867188 C 86.671875 39.449219 86.617188 38.882812 86.894531 38.542969 C 87.136719 38.238281 87.628906 38.09375 87.972656 37.925781 C 88.410156 37.710938 88.84375 37.492188 89.277344 37.269531 C 90.277344 36.757812 91.269531 36.222656 92.238281 35.648438 C 93.164062 35.117188 94.054688 34.53125 94.90625 33.890625 C 95.582031 33.375 96.296875 32.804688 96.734375 32.054688 C 97.707031 30.367188 96.023438 29.078125 94.707031 28.324219 Z M 95.273438 31.046875 L 95.242188 31.121094 C 94.972656 31.644531 94.316406 32.152344 93.789062 32.542969 C 92.117188 33.792969 90.246094 34.792969 88.394531 35.746094 C 87.660156 36.125 86.832031 36.429688 86.144531 36.882812 C 85.09375 37.574219 84.992188 38.640625 84.886719 39.785156 C 84.695312 41.84375 84.425781 43.929688 83.832031 45.917969 C 83.621094 46.628906 83.351562 47.429688 82.859375 47.9375 C 82.90625 47.886719 82.820312 47.964844 82.929688 47.9375 C 82.722656 47.976562 82.875 47.96875 82.707031 47.925781 C 82.398438 47.828125 82.113281 47.679688 81.855469 47.484375 C 80.222656 46.367188 78.914062 44.648438 77.703125 43.113281 C 77.160156 42.421875 76.6875 41.621094 76.085938 40.976562 C 75.203125 40.03125 74.058594 40.097656 72.90625 40.378906 C 70.828125 40.882812 68.722656 41.34375 66.589844 41.511719 C 65.796875 41.574219 64.90625 41.65625 64.132812 41.417969 C 64.039062 41.398438 63.953125 41.359375 63.875 41.300781 C 63.863281 41.300781 63.851562 41.332031 63.851562 41.261719 C 63.851562 41.351562 63.832031 41.132812 63.832031 41.125 C 63.824219 40.992188 63.828125 40.855469 63.84375 40.722656 C 64.070312 38.820312 65.285156 36.917969 66.222656 35.296875 C 66.679688 34.507812 67.195312 33.753906 67.652344 32.96875 C 68.347656 31.765625 67.957031 30.699219 67.300781 29.605469 C 66.269531 27.894531 65.257812 26.125 64.527344 24.257812 C 64.234375 23.511719 63.910156 22.683594 63.921875 21.878906 C 63.921875 21.691406 63.921875 21.828125 63.957031 21.617188 C 63.96875 21.546875 63.957031 21.558594 64.007812 21.546875 C 63.839844 21.59375 64.199219 21.453125 64.085938 21.5 C 64.292969 21.417969 64.503906 21.359375 64.726562 21.332031 C 66.664062 21.015625 68.816406 21.480469 70.71875 21.847656 C 71.613281 22.019531 72.5 22.214844 73.382812 22.414062 C 73.4375 22.425781 73.488281 22.433594 73.542969 22.4375 C 74.789062 22.605469 75.609375 22.046875 76.40625 21.113281 C 77.054688 20.355469 77.730469 19.601562 78.410156 18.886719 C 79.148438 18.101562 79.929688 17.359375 80.746094 16.65625 C 81.335938 16.15625 82.027344 15.589844 82.75 15.34375 C 83.023438 15.253906 83.0625 15.234375 83.199219 15.277344 C 83.238281 15.3125 83.277344 15.347656 83.3125 15.386719 C 83.394531 15.480469 83.460938 15.582031 83.519531 15.691406 C 83.945312 16.449219 84.125 17.34375 84.285156 18.179688 C 84.664062 20.15625 84.800781 22.1875 84.875 24.199219 C 84.921875 25.417969 85.386719 26.480469 86.59375 26.953125 C 87.453125 27.292969 88.363281 27.523438 89.242188 27.835938 C 91.09375 28.492188 93.210938 29.183594 94.765625 30.421875 C 94.972656 30.585938 95.148438 30.773438 95.296875 30.992188 C 95.257812 30.972656 95.261719 31.019531 95.269531 31.050781 Z M 86.773438 72.933594 C 84.613281 72.414062 82.339844 72.296875 80.125 72.226562 C 79.695312 72.214844 79.265625 72.203125 78.832031 72.199219 C 78.335938 72.199219 78.078125 72.199219 77.886719 71.691406 C 77.523438 70.726562 77.214844 69.742188 76.839844 68.777344 C 76.050781 66.761719 75.191406 64.429688 73.644531 62.851562 C 73.078125 62.269531 72.320312 61.832031 71.472656 62.019531 C 70.667969 62.195312 70.011719 62.828125 69.5 63.433594 C 68.046875 65.152344 67.019531 67.230469 66.070312 69.253906 C 65.882812 69.671875 65.691406 70.085938 65.503906 70.507812 C 65.359375 70.839844 65.1875 71.550781 64.765625 71.601562 C 62.609375 71.695312 60.464844 71.929688 58.335938 72.308594 C 56.847656 72.585938 54.128906 73.019531 53.609375 74.765625 C 53.089844 76.511719 54.949219 78.480469 55.972656 79.652344 C 56.351562 80.089844 56.746094 80.519531 57.15625 80.9375 C 57.570312 81.355469 57.972656 81.753906 58.363281 82.136719 L 58.554688 82.324219 C 58.835938 82.59375 59.121094 82.863281 59.40625 83.128906 C 59.695312 83.394531 60.175781 83.683594 60.371094 84.015625 C 60.570312 84.34375 60.308594 84.898438 60.210938 85.253906 C 60.070312 85.75 59.9375 86.246094 59.8125 86.75 C 59.53125 87.859375 59.285156 88.980469 59.101562 90.113281 C 58.851562 91.667969 58.3125 94.3125 59.699219 95.515625 C 61.085938 96.71875 63.765625 95.417969 65.167969 94.804688 C 66.261719 94.324219 67.332031 93.777344 68.382812 93.203125 C 69.199219 92.761719 70.015625 92.125 70.878906 91.773438 C 71.375 91.574219 71.730469 92.011719 72.097656 92.292969 C 72.46875 92.574219 72.855469 92.859375 73.234375 93.136719 C 74.167969 93.808594 75.125 94.460938 76.101562 95.054688 C 77.039062 95.648438 78.023438 96.144531 79.054688 96.546875 C 79.78125 96.816406 80.644531 97.039062 81.410156 96.796875 C 83.300781 96.203125 83.078125 93.226562 82.980469 91.707031 C 82.894531 90.472656 82.742188 89.242188 82.53125 88.019531 C 82.445312 87.515625 82.355469 87.007812 82.257812 86.492188 C 82.179688 86.089844 81.992188 85.601562 81.988281 85.195312 C 81.988281 84.785156 82.433594 84.507812 82.710938 84.25 C 83.0625 83.925781 83.410156 83.601562 83.757812 83.269531 C 84.585938 82.480469 85.394531 81.675781 86.179688 80.84375 C 86.980469 80.003906 87.730469 79.121094 88.425781 78.195312 C 88.921875 77.523438 89.433594 76.773438 89.644531 75.953125 C 90.148438 74.074219 88.257812 73.289062 86.773438 72.933594 Z M 82.59375 81.980469 C 81.996094 82.546875 81.269531 83.078125 80.761719 83.726562 C 79.988281 84.6875 80.367188 85.804688 80.570312 86.882812 C 80.984375 88.992188 81.355469 91.175781 81.277344 93.332031 C 81.273438 93.757812 81.226562 94.175781 81.128906 94.589844 C 81.09375 94.726562 81.050781 94.863281 80.992188 94.992188 C 80.972656 95.03125 80.953125 95.066406 80.929688 95.101562 L 80.917969 95.101562 C 80.917969 95.101562 80.898438 95.101562 80.898438 95.101562 C 80.863281 95.109375 80.832031 95.121094 80.878906 95.121094 C 80.800781 95.121094 80.519531 95.121094 80.550781 95.121094 C 80.15625 95.058594 79.777344 94.949219 79.414062 94.792969 C 77.523438 94.035156 75.78125 92.789062 74.136719 91.605469 C 73.410156 91.082031 72.671875 90.308594 71.867188 90.042969 C 70.71875 89.664062 69.785156 90.382812 68.851562 90.921875 C 66.976562 92 65.042969 93.070312 62.988281 93.78125 C 62.574219 93.929688 62.148438 94.050781 61.71875 94.140625 C 61.585938 94.167969 61.453125 94.1875 61.320312 94.199219 C 61.179688 94.203125 61.039062 94.199219 60.898438 94.183594 C 60.835938 94.183594 60.796875 94.183594 60.746094 94.027344 C 60.652344 93.71875 60.601562 93.402344 60.59375 93.082031 C 60.515625 91.035156 61.054688 88.941406 61.554688 86.972656 C 61.773438 86.128906 62.214844 85.15625 62.214844 84.28125 C 62.214844 83.121094 61.3125 82.484375 60.546875 81.78125 C 60.035156 81.308594 59.519531 80.824219 59.011719 80.332031 C 58.644531 79.972656 58.28125 79.601562 57.925781 79.226562 C 57.347656 78.613281 56.804688 77.96875 56.300781 77.289062 C 56.039062 76.941406 55.804688 76.578125 55.59375 76.199219 C 55.464844 75.945312 55.359375 75.6875 55.285156 75.414062 C 55.277344 75.347656 55.277344 75.277344 55.285156 75.210938 C 55.285156 75.375 55.285156 75.261719 55.292969 75.210938 C 55.28125 75.296875 55.332031 75.179688 55.367188 75.144531 C 55.613281 74.945312 55.886719 74.789062 56.179688 74.671875 C 58.035156 73.90625 60.1875 73.710938 62.171875 73.527344 C 63.03125 73.445312 63.890625 73.382812 64.757812 73.335938 C 64.824219 73.332031 64.890625 73.324219 64.957031 73.304688 C 66.128906 73.085938 66.589844 72.3125 67.054688 71.261719 C 67.460938 70.34375 67.890625 69.433594 68.34375 68.539062 C 68.839844 67.550781 69.390625 66.589844 69.996094 65.660156 C 70.421875 65.015625 70.941406 64.25 71.574219 63.839844 C 71.660156 63.785156 71.753906 63.742188 71.851562 63.707031 C 71.921875 63.667969 71.851562 63.675781 71.921875 63.707031 C 72.003906 63.730469 72.074219 63.773438 72.140625 63.832031 C 72.257812 63.929688 72.367188 64.039062 72.472656 64.148438 C 73.109375 64.832031 73.554688 65.714844 73.964844 66.542969 C 74.878906 68.375 75.542969 70.304688 76.222656 72.234375 C 76.65625 73.464844 77.578125 73.910156 78.824219 73.9375 C 79.761719 73.949219 80.699219 73.980469 81.636719 74.03125 C 83.507812 74.136719 85.65625 74.199219 87.394531 74.9375 C 87.605469 75.027344 87.796875 75.144531 87.972656 75.289062 C 87.953125 75.238281 87.996094 75.242188 87.996094 75.304688 C 88.070312 75.359375 88.011719 75.316406 87.996094 75.304688 L 87.976562 75.292969 C 87.980469 75.304688 87.988281 75.316406 87.996094 75.328125 L 87.996094 75.34375 L 87.996094 75.328125 C 87.996094 75.335938 87.996094 75.34375 87.996094 75.351562 C 87.996094 75.351562 88.019531 75.296875 87.972656 75.46875 C 87.785156 76.140625 87.296875 76.8125 86.839844 77.410156 C 85.589844 79.074219 84.085938 80.550781 82.585938 81.980469 Z M 80.914062 95.109375 C 80.902344 95.125 80.890625 95.144531 80.882812 95.160156 C 80.898438 95.148438 80.90625 95.128906 80.914062 95.109375 Z M 80.914062 95.109375 " fill-opacity="1" fill-rule="nonzero"/></svg>