<svg xmlns="http://www.w3.org/2000/svg" xmlns:xlink="http://www.w3.org/1999/xlink" width="200" zoomAndPan="magnify" viewBox="0 0 150 149.999998" height="200" preserveAspectRatio="xMidYMid meet" version="1.0"><defs><clipPath id="608898cf3c"><path d="M 78 57 L 81 57 L 81 139.75 L 78 139.75 Z M 78 57 " clip-rule="nonzero"/></clipPath><clipPath id="a1130f305b"><path d="M 79 77 L 109.863281 77 L 109.863281 88 L 79 88 Z M 79 77 " clip-rule="nonzero"/></clipPath><clipPath id="7656aaf690"><path d="M 79 94 L 109.863281 94 L 109.863281 104 L 79 104 Z M 79 94 " clip-rule="nonzero"/></clipPath><clipPath id="d2c4ed1830"><path d="M 49.113281 77 L 80 77 L 80 88 L 49.113281 88 Z M 49.113281 77 " clip-rule="nonzero"/></clipPath><clipPath id="a362c679a3"><path d="M 49.113281 94 L 80 94 L 80 104 L 49.113281 104 Z M 49.113281 94 " clip-rule="nonzero"/></clipPath><clipPath id="d51ef4aa17"><path d="M 69 15.25 L 88 15.25 L 88 41 L 69 41 Z M 69 15.25 " clip-rule="nonzero"/></clipPath></defs><g clip-path="url(#608898cf3c)"><path fill="#5ebf3a" d="M 78.273438 57.613281 L 80.546875 57.613281 L 80.546875 139.75 L 78.273438 139.75 Z M 78.273438 57.613281 " fill-opacity="1" fill-rule="nonzero"/></g><g clip-path="url(#a1130f305b)"><path fill="#5ebf3a" d="M 79.550781 85.546875 C 95.71875 92.160156 109.382812 79.773438 109.382812 79.773438 C 91.84375 73.191406 79.550781 85.546875 79.550781 85.546875 Z M 79.550781 85.546875 " fill-opacity="1" fill-rule="nonzero"/></g><g clip-path="url(#7656aaf690)"><path fill="#5ebf3a" d="M 79.550781 101.792969 C 95.71875 108.40625 109.382812 96.019531 109.382812 96.019531 C 91.84375 89.4375 79.550781 101.792969 79.550781 101.792969 Z M 79.550781 101.792969 " fill-opacity="1" fill-rule="nonzero"/></g><g clip-path="url(#d2c4ed1830)"><path fill="#5ebf3a" d="M 79.269531 85.546875 C 63.101562 92.160156 49.441406 79.773438 49.441406 79.773438 C 66.980469 73.191406 79.269531 85.546875 79.269531 85.546875 Z M 79.269531 85.546875 " fill-opacity="1" fill-rule="nonzero"/></g><g clip-path="url(#a362c679a3)"><path fill="#5ebf3a" d="M 79.269531 101.792969 C 63.101562 108.40625 49.441406 96.019531 49.441406 96.019531 C 66.980469 89.4375 79.269531 101.792969 79.269531 101.792969 Z M 79.269531 101.792969 " fill-opacity="1" fill-rule="nonzero"/></g><g clip-path="url(#d51ef4aa17)"><path fill="#77c6be" d="M 87.980469 26.550781 C 87.980469 34.269531 83.882812 40.507812 78.820312 40.507812 C 73.757812 40.507812 69.660156 34.253906 69.660156 26.550781 C 69.660156 18.847656 73.757812 15.25 78.820312 15.25 C 83.882812 15.25 87.980469 18.832031 87.980469 26.550781 Z M 87.980469 26.550781 " fill-opacity="1" fill-rule="nonzero"/></g><path fill="#80d8d1" d="M 87.980469 63.710938 C 87.980469 55.992188 83.882812 49.753906 78.820312 49.753906 C 73.757812 49.753906 69.660156 56.007812 69.660156 63.710938 C 69.660156 71.429688 73.757812 75.011719 78.820312 75.011719 C 83.882812 75.011719 87.980469 71.429688 87.980469 63.710938 Z M 87.980469 63.710938 " fill-opacity="1" fill-rule="nonzero"/><path fill="#80d8d1" d="M 99.550781 44.523438 C 92.730469 48.132812 85.285156 47.433594 82.917969 42.96875 C 80.546875 38.5 84.164062 31.949219 90.984375 28.339844 C 97.808594 24.726562 102.902344 26.671875 105.269531 31.15625 C 107.621094 35.621094 106.375 40.914062 99.550781 44.523438 Z M 99.550781 44.523438 " fill-opacity="1" fill-rule="nonzero"/><path fill="#77c6be" d="M 66.667969 61.921875 C 73.492188 58.3125 77.105469 51.761719 74.738281 47.292969 C 72.371094 42.828125 64.925781 42.128906 58.101562 45.738281 C 51.277344 49.347656 50.03125 54.640625 52.402344 59.121094 C 54.753906 63.589844 59.832031 65.535156 66.667969 61.921875 Z M 66.667969 61.921875 " fill-opacity="1" fill-rule="nonzero"/><path fill="#77c6be" d="M 89.054688 63.152344 C 82.667969 58.808594 79.800781 51.917969 82.652344 47.730469 C 85.503906 43.542969 92.980469 43.667969 99.367188 48.011719 C 105.753906 52.351562 106.40625 57.753906 103.554688 61.9375 C 100.707031 66.109375 95.441406 67.496094 89.054688 63.152344 Z M 89.054688 63.152344 " fill-opacity="1" fill-rule="nonzero"/><path fill="#80d8d1" d="M 58.273438 42.25 C 64.660156 46.59375 72.136719 46.71875 74.988281 42.53125 C 77.839844 38.34375 74.957031 31.4375 68.585938 27.109375 C 62.199219 22.769531 56.933594 24.152344 54.082031 28.339844 C 51.234375 32.507812 51.886719 37.925781 58.273438 42.25 Z M 58.273438 42.25 " fill-opacity="1" fill-rule="nonzero"/><path fill="#8cede4" d="M 89.597656 46.640625 C 88.992188 46.21875 88.367188 45.894531 87.746094 45.628906 C 88.398438 45.425781 89.054688 45.160156 89.707031 44.820312 C 93.289062 42.921875 93.945312 40.136719 92.699219 37.785156 C 91.453125 35.433594 88.789062 34.410156 85.191406 36.308594 C 84.535156 36.648438 83.945312 37.039062 83.414062 37.472656 C 83.539062 36.804688 83.617188 36.105469 83.617188 35.359375 C 83.617188 31.3125 81.46875 29.429688 78.804688 29.429688 C 76.140625 29.429688 73.992188 31.3125 73.992188 35.359375 C 73.992188 35.605469 74.007812 35.839844 74.007812 36.074219 C 73.820312 35.933594 73.617188 35.777344 73.414062 35.652344 C 70.066406 33.382812 67.292969 34.097656 65.796875 36.292969 C 64.300781 38.484375 64.644531 41.332031 68.007812 43.605469 C 68.617188 44.027344 69.238281 44.351562 69.863281 44.617188 C 69.207031 44.820312 68.554688 45.085938 67.898438 45.425781 C 64.316406 47.324219 63.664062 50.109375 64.910156 52.460938 C 66.15625 54.8125 68.820312 55.835938 72.417969 53.9375 C 73.070312 53.597656 73.664062 53.207031 74.191406 52.773438 C 74.070312 53.441406 73.992188 54.140625 73.992188 54.886719 C 73.992188 58.933594 76.140625 60.816406 78.804688 60.816406 C 81.46875 60.816406 83.617188 58.933594 83.617188 54.886719 C 83.617188 54.640625 83.601562 54.40625 83.601562 54.171875 C 83.789062 54.3125 83.992188 54.46875 84.195312 54.59375 C 87.542969 56.863281 90.316406 56.148438 91.8125 53.953125 C 93.304688 51.761719 92.964844 48.914062 89.597656 46.640625 Z M 77.042969 48.070312 C 77.074219 47.433594 76.964844 46.828125 76.667969 46.265625 C 76.375 45.707031 75.9375 45.269531 75.390625 44.945312 C 75.96875 44.679688 76.46875 44.289062 76.808594 43.761719 C 77.105469 43.339844 77.277344 42.859375 77.355469 42.34375 C 77.824219 42.578125 78.320312 42.6875 78.820312 42.6875 C 79.441406 42.6875 80.050781 42.5 80.59375 42.175781 C 80.5625 42.8125 80.671875 43.417969 80.96875 43.980469 C 81.265625 44.539062 81.703125 44.976562 82.246094 45.300781 C 81.671875 45.566406 81.171875 45.957031 80.828125 46.484375 C 80.53125 46.90625 80.363281 47.386719 80.285156 47.902344 C 79.816406 47.667969 79.316406 47.558594 78.820312 47.558594 C 78.195312 47.558594 77.589844 47.746094 77.042969 48.070312 Z M 77.042969 48.070312 " fill-opacity="1" fill-rule="nonzero"/><path fill="#ffffff" d="M 86.390625 43.824219 C 86.390625 42.96875 85.65625 42.28125 84.753906 42.28125 C 84.519531 42.28125 84.300781 42.328125 84.117188 42.40625 C 84.085938 42.34375 84.039062 42.28125 84.007812 42.234375 C 84.210938 42.003906 84.332031 41.691406 84.332031 41.363281 C 84.332031 40.601562 83.679688 39.980469 82.871094 39.980469 C 82.699219 39.980469 82.542969 40.011719 82.402344 40.058594 C 82.324219 39.636719 81.933594 39.324219 81.484375 39.324219 C 81.359375 39.324219 81.234375 39.355469 81.125 39.386719 C 81.09375 38.953125 80.734375 38.609375 80.285156 38.5625 C 80.035156 38.019531 79.457031 37.628906 78.789062 37.628906 C 77.886719 37.628906 77.152344 38.332031 77.152344 39.171875 C 77.152344 39.171875 77.152344 39.1875 77.152344 39.1875 C 76.996094 39.078125 76.808594 39.015625 76.609375 39.015625 C 76.296875 39.015625 76.03125 39.15625 75.859375 39.371094 C 75.46875 38.96875 74.910156 38.703125 74.285156 38.703125 C 73.117188 38.703125 72.167969 39.605469 72.167969 40.710938 C 72.167969 41.253906 72.402344 41.738281 72.761719 42.097656 C 72.339844 42.34375 72.058594 42.78125 72.058594 43.277344 C 72.058594 43.792969 72.355469 44.226562 72.777344 44.476562 C 72.324219 44.539062 71.964844 44.914062 71.964844 45.347656 C 71.964844 45.847656 72.386719 46.234375 72.898438 46.234375 C 72.960938 46.234375 73.023438 46.234375 73.085938 46.21875 C 73.070312 46.265625 73.054688 46.328125 73.054688 46.375 C 73.054688 46.546875 73.148438 46.71875 73.289062 46.796875 C 72.652344 46.953125 72.183594 47.496094 72.183594 48.132812 C 72.183594 48.898438 72.835938 49.519531 73.648438 49.519531 C 73.867188 49.519531 74.070312 49.472656 74.253906 49.394531 C 74.253906 49.410156 74.253906 49.425781 74.253906 49.441406 C 74.253906 49.941406 74.675781 50.328125 75.191406 50.328125 C 75.332031 50.328125 75.46875 50.296875 75.59375 50.234375 C 75.5 50.375 75.453125 50.53125 75.453125 50.703125 C 75.453125 51.199219 75.875 51.589844 76.390625 51.589844 C 76.667969 51.589844 76.902344 51.480469 77.074219 51.308594 C 77.449219 51.886719 78.117188 52.273438 78.882812 52.273438 C 79.863281 52.273438 80.671875 51.652344 80.921875 50.796875 C 80.953125 50.78125 80.984375 50.78125 81.015625 50.765625 C 81.28125 51.152344 81.730469 51.417969 82.261719 51.417969 C 83.070312 51.417969 83.726562 50.796875 83.726562 50.03125 C 83.726562 49.722656 83.617188 49.425781 83.429688 49.191406 C 83.945312 48.632812 84.363281 47.964844 84.628906 47.246094 C 84.675781 47.246094 84.707031 47.261719 84.753906 47.261719 C 85.269531 47.261719 85.6875 46.859375 85.6875 46.375 C 85.6875 46.1875 85.625 46.003906 85.519531 45.863281 C 85.625 45.769531 85.6875 45.628906 85.6875 45.488281 C 85.6875 45.363281 85.640625 45.238281 85.546875 45.144531 C 86.046875 44.898438 86.390625 44.398438 86.390625 43.824219 Z M 86.390625 43.824219 " fill-opacity="1" fill-rule="nonzero"/><path fill="#f4c16f" d="M 83.195312 44.320312 C 83.195312 43.839844 82.792969 43.449219 82.277344 43.449219 C 82.152344 43.449219 82.027344 43.480469 81.917969 43.511719 C 81.902344 43.480469 81.871094 43.449219 81.855469 43.417969 C 81.964844 43.277344 82.042969 43.125 82.042969 42.9375 C 82.042969 42.515625 81.6875 42.160156 81.234375 42.160156 C 81.140625 42.160156 81.046875 42.175781 80.96875 42.207031 C 80.921875 41.972656 80.703125 41.800781 80.453125 41.800781 C 80.378906 41.800781 80.316406 41.816406 80.253906 41.832031 C 80.238281 41.597656 80.035156 41.394531 79.785156 41.378906 C 79.644531 41.070312 79.316406 40.851562 78.945312 40.851562 C 78.445312 40.851562 78.023438 41.242188 78.023438 41.722656 C 78.023438 41.722656 78.023438 41.738281 78.023438 41.738281 C 77.929688 41.675781 77.839844 41.644531 77.714844 41.644531 C 77.542969 41.644531 77.386719 41.722656 77.292969 41.847656 C 77.074219 41.613281 76.761719 41.472656 76.40625 41.472656 C 75.75 41.472656 75.222656 41.972656 75.222656 42.59375 C 75.222656 42.890625 75.347656 43.171875 75.546875 43.371094 C 75.316406 43.511719 75.160156 43.746094 75.160156 44.042969 C 75.160156 44.320312 75.316406 44.570312 75.5625 44.710938 C 75.316406 44.742188 75.113281 44.945312 75.113281 45.207031 C 75.113281 45.488281 75.347656 45.707031 75.640625 45.707031 C 75.671875 45.707031 75.71875 45.707031 75.75 45.691406 C 75.734375 45.722656 75.734375 45.753906 75.734375 45.785156 C 75.734375 45.878906 75.78125 45.972656 75.875 46.019531 C 75.515625 46.097656 75.253906 46.40625 75.253906 46.765625 C 75.253906 47.183594 75.609375 47.542969 76.0625 47.542969 C 76.1875 47.542969 76.296875 47.511719 76.40625 47.480469 C 76.40625 47.496094 76.40625 47.496094 76.40625 47.511719 C 76.40625 47.792969 76.636719 48.011719 76.933594 48.011719 C 77.011719 48.011719 77.089844 47.996094 77.152344 47.964844 C 77.105469 48.042969 77.074219 48.117188 77.074219 48.226562 C 77.074219 48.507812 77.308594 48.726562 77.605469 48.726562 C 77.761719 48.726562 77.902344 48.664062 77.992188 48.570312 C 78.195312 48.898438 78.570312 49.113281 79.007812 49.113281 C 79.550781 49.113281 80.019531 48.773438 80.144531 48.289062 C 80.160156 48.289062 80.175781 48.273438 80.207031 48.273438 C 80.347656 48.492188 80.609375 48.632812 80.890625 48.632812 C 81.34375 48.632812 81.703125 48.289062 81.703125 47.855469 C 81.703125 47.683594 81.640625 47.511719 81.53125 47.386719 C 81.824219 47.078125 82.042969 46.703125 82.199219 46.296875 C 82.214844 46.296875 82.246094 46.296875 82.277344 46.296875 C 82.574219 46.296875 82.808594 46.082031 82.808594 45.800781 C 82.808594 45.691406 82.777344 45.597656 82.714844 45.519531 C 82.777344 45.472656 82.808594 45.394531 82.808594 45.300781 C 82.808594 45.222656 82.777344 45.160156 82.730469 45.117188 C 83.007812 44.929688 83.195312 44.648438 83.195312 44.320312 Z M 83.195312 44.320312 " fill-opacity="1" fill-rule="nonzero"/><path fill="#f4c16f" d="M 77.246094 37.195312 C 77.246094 37.367188 77.183594 37.511719 77.0625 37.632812 C 76.941406 37.753906 76.796875 37.816406 76.625 37.816406 C 76.449219 37.816406 76.304688 37.753906 76.183594 37.632812 C 76.0625 37.511719 76 37.367188 76 37.195312 C 76 37.023438 76.0625 36.875 76.183594 36.753906 C 76.304688 36.632812 76.449219 36.570312 76.625 36.570312 C 76.796875 36.570312 76.941406 36.632812 77.0625 36.753906 C 77.183594 36.875 77.246094 37.023438 77.246094 37.195312 Z M 77.246094 37.195312 " fill-opacity="1" fill-rule="nonzero"/><path fill="#ffffff" d="M 76.980469 36.867188 C 77.011719 37.023438 76.839844 37.195312 76.59375 37.242188 C 76.34375 37.289062 76.125 37.210938 76.09375 37.054688 C 76.0625 36.898438 76.234375 36.726562 76.484375 36.679688 C 76.730469 36.617188 76.949219 36.710938 76.980469 36.867188 Z M 76.980469 36.867188 " fill-opacity="1" fill-rule="nonzero"/><path fill="#f4c16f" d="M 77.945312 42.40625 L 77.605469 42.40625 C 77.605469 39.933594 76.578125 37.425781 76.5625 37.410156 L 76.871094 37.273438 C 76.933594 37.378906 77.945312 39.855469 77.945312 42.40625 Z M 77.945312 42.40625 " fill-opacity="1" fill-rule="nonzero"/><path fill="#f4c16f" d="M 73.101562 39.046875 C 73.367188 39.28125 73.757812 39.265625 73.992188 39 C 74.222656 38.734375 74.207031 38.34375 73.945312 38.113281 C 73.679688 37.878906 73.289062 37.894531 73.054688 38.160156 C 72.824219 38.40625 72.835938 38.8125 73.101562 39.046875 Z M 73.101562 39.046875 " fill-opacity="1" fill-rule="nonzero"/><path fill="#ffffff" d="M 73.039062 38.625 C 73.132812 38.75 73.367188 38.734375 73.570312 38.578125 C 73.773438 38.421875 73.851562 38.207031 73.757812 38.082031 C 73.664062 37.957031 73.429688 37.972656 73.226562 38.128906 C 73.023438 38.269531 72.945312 38.5 73.039062 38.625 Z M 73.039062 38.625 " fill-opacity="1" fill-rule="nonzero"/><path fill="#f4c16f" d="M 76.515625 43.046875 L 76.746094 42.796875 C 74.910156 41.132812 73.742188 38.703125 73.726562 38.671875 L 73.414062 38.8125 C 73.460938 38.921875 74.613281 41.347656 76.515625 43.046875 Z M 76.515625 43.046875 " fill-opacity="1" fill-rule="nonzero"/><path fill="#f4c16f" d="M 72.074219 42.050781 C 72.074219 42.222656 72.015625 42.367188 71.890625 42.488281 C 71.769531 42.609375 71.625 42.671875 71.453125 42.671875 C 71.28125 42.671875 71.132812 42.609375 71.011719 42.488281 C 70.890625 42.367188 70.828125 42.222656 70.828125 42.050781 C 70.828125 41.878906 70.890625 41.730469 71.011719 41.609375 C 71.132812 41.488281 71.28125 41.425781 71.453125 41.425781 C 71.625 41.425781 71.769531 41.488281 71.890625 41.609375 C 72.015625 41.730469 72.074219 41.878906 72.074219 42.050781 Z M 72.074219 42.050781 " fill-opacity="1" fill-rule="nonzero"/><path fill="#ffffff" d="M 71.0625 42.359375 C 71.21875 42.40625 71.40625 42.265625 71.484375 42.035156 C 71.574219 41.800781 71.515625 41.566406 71.375 41.519531 C 71.21875 41.472656 71.03125 41.613281 70.953125 41.847656 C 70.859375 42.066406 70.921875 42.296875 71.0625 42.359375 Z M 71.0625 42.359375 " fill-opacity="1" fill-rule="nonzero"/><path fill="#f4c16f" d="M 76.390625 44.167969 L 76.4375 43.824219 C 73.992188 43.433594 71.667969 42.035156 71.652344 42.019531 L 71.46875 42.3125 C 71.574219 42.375 73.882812 43.777344 76.390625 44.167969 Z M 76.390625 44.167969 " fill-opacity="1" fill-rule="nonzero"/><path fill="#f4c16f" d="M 81.28125 37.628906 C 81.109375 37.925781 80.71875 38.035156 80.425781 37.847656 C 80.128906 37.675781 80.019531 37.289062 80.207031 36.992188 C 80.378906 36.695312 80.765625 36.585938 81.0625 36.773438 C 81.359375 36.945312 81.453125 37.320312 81.28125 37.628906 Z M 81.28125 37.628906 " fill-opacity="1" fill-rule="nonzero"/><path fill="#ffffff" d="M 81.203125 37.195312 C 81.15625 37.351562 80.921875 37.394531 80.6875 37.320312 C 80.453125 37.242188 80.300781 37.054688 80.363281 36.898438 C 80.410156 36.742188 80.640625 36.695312 80.875 36.773438 C 81.109375 36.867188 81.265625 37.054688 81.203125 37.195312 Z M 81.203125 37.195312 " fill-opacity="1" fill-rule="nonzero"/><path fill="#f4c16f" d="M 79.238281 42.46875 L 78.945312 42.296875 C 80.207031 40.167969 80.578125 37.488281 80.578125 37.457031 L 80.921875 37.503906 C 80.90625 37.613281 80.53125 40.277344 79.238281 42.46875 Z M 79.238281 42.46875 " fill-opacity="1" fill-rule="nonzero"/><path fill="#f4c16f" d="M 86.949219 45.722656 C 86.625 45.597656 86.46875 45.222656 86.59375 44.914062 C 86.71875 44.585938 87.089844 44.429688 87.402344 44.554688 C 87.730469 44.679688 87.886719 45.054688 87.761719 45.363281 C 87.636719 45.691406 87.277344 45.847656 86.949219 45.722656 Z M 86.949219 45.722656 " fill-opacity="1" fill-rule="nonzero"/><path fill="#ffffff" d="M 87.355469 45.597656 C 87.199219 45.566406 87.105469 45.347656 87.152344 45.101562 C 87.199219 44.851562 87.355469 44.679688 87.511719 44.710938 C 87.667969 44.742188 87.761719 44.960938 87.714844 45.207031 C 87.667969 45.457031 87.511719 45.613281 87.355469 45.597656 Z M 87.355469 45.597656 " fill-opacity="1" fill-rule="nonzero"/><path fill="#f4c16f" d="M 81.839844 44.476562 L 81.964844 44.152344 C 84.269531 45.054688 86.980469 45.007812 87.011719 45.007812 L 87.011719 45.347656 C 86.902344 45.347656 84.210938 45.410156 81.839844 44.476562 Z M 81.839844 44.476562 " fill-opacity="1" fill-rule="nonzero"/><path fill="#f4c16f" d="M 86.46875 41.085938 C 86.15625 41.242188 86.03125 41.613281 86.1875 41.925781 C 86.34375 42.234375 86.71875 42.359375 87.027344 42.207031 C 87.339844 42.050781 87.464844 41.675781 87.308594 41.363281 C 87.152344 41.054688 86.78125 40.929688 86.46875 41.085938 Z M 86.46875 41.085938 " fill-opacity="1" fill-rule="nonzero"/><path fill="#ffffff" d="M 86.886719 41.179688 C 86.734375 41.226562 86.671875 41.441406 86.734375 41.691406 C 86.792969 41.925781 86.980469 42.097656 87.121094 42.050781 C 87.277344 42.003906 87.339844 41.785156 87.277344 41.535156 C 87.214844 41.285156 87.042969 41.132812 86.886719 41.179688 Z M 86.886719 41.179688 " fill-opacity="1" fill-rule="nonzero"/><path fill="#f4c16f" d="M 81.5 42.78125 L 81.65625 43.09375 C 83.867188 41.988281 86.578125 41.785156 86.59375 41.785156 L 86.5625 41.441406 C 86.453125 41.457031 83.773438 41.644531 81.5 42.78125 Z M 81.5 42.78125 " fill-opacity="1" fill-rule="nonzero"/><path fill="#f4c16f" d="M 83.695312 38.5 C 83.523438 38.796875 83.617188 39.1875 83.929688 39.355469 C 84.226562 39.527344 84.613281 39.433594 84.785156 39.125 C 84.957031 38.828125 84.863281 38.4375 84.550781 38.269531 C 84.253906 38.097656 83.867188 38.191406 83.695312 38.5 Z M 83.695312 38.5 " fill-opacity="1" fill-rule="nonzero"/><path fill="#ffffff" d="M 84.101562 38.34375 C 83.992188 38.46875 84.070312 38.6875 84.242188 38.859375 C 84.425781 39.03125 84.660156 39.0625 84.769531 38.9375 C 84.878906 38.8125 84.800781 38.59375 84.628906 38.421875 C 84.441406 38.269531 84.210938 38.238281 84.101562 38.34375 Z M 84.101562 38.34375 " fill-opacity="1" fill-rule="nonzero"/><path fill="#f4c16f" d="M 80.453125 42.640625 L 80.75 42.8125 C 81.996094 40.664062 84.164062 39.03125 84.179688 39.015625 L 83.976562 38.734375 C 83.882812 38.8125 81.746094 40.445312 80.453125 42.640625 Z M 80.453125 42.640625 " fill-opacity="1" fill-rule="nonzero"/><path fill="#f4c16f" d="M 82.011719 53.144531 C 81.964844 52.804688 82.214844 52.492188 82.558594 52.445312 C 82.902344 52.398438 83.210938 52.648438 83.257812 52.988281 C 83.304688 53.332031 83.054688 53.644531 82.714844 53.691406 C 82.371094 53.738281 82.058594 53.488281 82.011719 53.144531 Z M 82.011719 53.144531 " fill-opacity="1" fill-rule="nonzero"/><path fill="#ffffff" d="M 83.175781 53.164062 C 83.199219 53.234375 83.179688 53.3125 83.113281 53.390625 C 83.046875 53.472656 82.957031 53.53125 82.839844 53.574219 C 82.71875 53.613281 82.609375 53.621094 82.507812 53.597656 C 82.40625 53.574219 82.34375 53.527344 82.320312 53.453125 C 82.296875 53.378906 82.316406 53.300781 82.382812 53.222656 C 82.449219 53.140625 82.539062 53.082031 82.65625 53.042969 C 82.777344 53.003906 82.886719 52.992188 82.988281 53.015625 C 83.085938 53.039062 83.152344 53.089844 83.175781 53.164062 Z M 83.175781 53.164062 " fill-opacity="1" fill-rule="nonzero"/><path fill="#f4c16f" d="M 80.640625 48.070312 L 80.984375 48.027344 C 81.3125 50.484375 82.652344 52.835938 82.667969 52.851562 L 82.371094 53.019531 C 82.308594 52.925781 80.96875 50.59375 80.640625 48.070312 Z M 80.640625 48.070312 " fill-opacity="1" fill-rule="nonzero"/><path fill="#f4c16f" d="M 86 50.09375 C 85.71875 49.894531 85.316406 49.972656 85.128906 50.25 C 84.925781 50.53125 85.003906 50.9375 85.285156 51.121094 C 85.5625 51.324219 85.96875 51.246094 86.15625 50.96875 C 86.359375 50.6875 86.28125 50.296875 86 50.09375 Z M 86 50.09375 " fill-opacity="1" fill-rule="nonzero"/><path fill="#ffffff" d="M 86.125 50.515625 C 86.015625 50.40625 85.78125 50.453125 85.59375 50.625 C 85.425781 50.796875 85.363281 51.027344 85.472656 51.136719 C 85.578125 51.246094 85.8125 51.199219 86 51.027344 C 86.171875 50.859375 86.234375 50.625 86.125 50.515625 Z M 86.125 50.515625 " fill-opacity="1" fill-rule="nonzero"/><path fill="#f4c16f" d="M 82.105469 46.5625 L 81.902344 46.84375 C 83.945312 48.242188 85.425781 50.515625 85.441406 50.53125 L 85.734375 50.34375 C 85.65625 50.265625 84.195312 48.011719 82.105469 46.5625 Z M 82.105469 46.5625 " fill-opacity="1" fill-rule="nonzero"/><path fill="#f4c16f" d="M 86.09375 46.066406 C 85.75 46.050781 85.457031 46.328125 85.457031 46.671875 C 85.441406 47.015625 85.71875 47.308594 86.0625 47.308594 C 86.40625 47.324219 86.703125 47.046875 86.703125 46.703125 C 86.71875 46.359375 86.4375 46.066406 86.09375 46.066406 Z M 86.09375 46.066406 " fill-opacity="1" fill-rule="nonzero"/><path fill="#ffffff" d="M 86.421875 46.34375 C 86.265625 46.3125 86.09375 46.484375 86.046875 46.71875 C 85.984375 46.96875 86.078125 47.183594 86.234375 47.214844 C 86.390625 47.246094 86.5625 47.078125 86.609375 46.84375 C 86.65625 46.59375 86.578125 46.375 86.421875 46.34375 Z M 86.421875 46.34375 " fill-opacity="1" fill-rule="nonzero"/><path fill="#f4c16f" d="M 80.890625 45.222656 L 80.875 45.566406 C 83.351562 45.628906 85.828125 46.71875 85.859375 46.734375 L 86 46.421875 C 85.90625 46.375 83.445312 45.285156 80.890625 45.222656 Z M 80.890625 45.222656 " fill-opacity="1" fill-rule="nonzero"/><path fill="#f4c16f" d="M 78.304688 52.957031 C 78.304688 53.128906 78.246094 53.277344 78.121094 53.398438 C 78 53.519531 77.855469 53.582031 77.683594 53.582031 C 77.511719 53.582031 77.363281 53.519531 77.242188 53.398438 C 77.121094 53.277344 77.058594 53.128906 77.058594 52.957031 C 77.058594 52.785156 77.121094 52.640625 77.242188 52.519531 C 77.363281 52.398438 77.511719 52.335938 77.683594 52.335938 C 77.855469 52.335938 78 52.398438 78.121094 52.519531 C 78.246094 52.640625 78.304688 52.785156 78.304688 52.957031 Z M 78.304688 52.957031 " fill-opacity="1" fill-rule="nonzero"/><path fill="#ffffff" d="M 77.230469 53.128906 C 77.261719 52.972656 77.480469 52.898438 77.730469 52.941406 C 77.976562 52.988281 78.148438 53.160156 78.117188 53.316406 C 78.085938 53.472656 77.871094 53.550781 77.621094 53.503906 C 77.371094 53.441406 77.199219 53.285156 77.230469 53.128906 Z M 77.230469 53.128906 " fill-opacity="1" fill-rule="nonzero"/><path fill="#f4c16f" d="M 78.507812 47.636719 L 78.820312 47.777344 C 77.855469 50.0625 77.824219 52.757812 77.824219 52.789062 L 77.480469 52.789062 C 77.480469 52.679688 77.511719 49.988281 78.507812 47.636719 Z M 78.507812 47.636719 " fill-opacity="1" fill-rule="nonzero"/><path fill="#f4c16f" d="M 70.609375 45.285156 C 70.953125 45.363281 71.15625 45.707031 71.0625 46.050781 C 70.984375 46.390625 70.640625 46.59375 70.296875 46.5 C 69.957031 46.421875 69.753906 46.082031 69.847656 45.738281 C 69.925781 45.410156 70.269531 45.207031 70.609375 45.285156 Z M 70.609375 45.285156 " fill-opacity="1" fill-rule="nonzero"/><path fill="#ffffff" d="M 70.222656 45.472656 C 70.375 45.472656 70.5 45.691406 70.484375 45.941406 C 70.46875 46.1875 70.328125 46.375 70.175781 46.375 C 70.019531 46.375 69.894531 46.15625 69.910156 45.910156 C 69.925781 45.660156 70.066406 45.457031 70.222656 45.472656 Z M 70.222656 45.472656 " fill-opacity="1" fill-rule="nonzero"/><path fill="#f4c16f" d="M 75.828125 45.863281 L 75.75 46.1875 C 73.335938 45.597656 70.671875 45.988281 70.640625 46.003906 L 70.59375 45.660156 C 70.703125 45.644531 73.367188 45.253906 75.828125 45.863281 Z M 75.828125 45.863281 " fill-opacity="1" fill-rule="nonzero"/><path fill="#f4c16f" d="M 71.699219 49.816406 C 71.980469 49.628906 72.058594 49.222656 71.871094 48.945312 C 71.683594 48.664062 71.28125 48.585938 71 48.773438 C 70.71875 48.960938 70.640625 49.363281 70.828125 49.644531 C 71.015625 49.941406 71.40625 50.003906 71.699219 49.816406 Z M 71.699219 49.816406 " fill-opacity="1" fill-rule="nonzero"/><path fill="#ffffff" d="M 71.265625 49.769531 C 71.40625 49.707031 71.453125 49.472656 71.359375 49.238281 C 71.265625 49.007812 71.0625 48.882812 70.921875 48.929688 C 70.78125 48.992188 70.734375 49.222656 70.828125 49.457031 C 70.921875 49.691406 71.125 49.832031 71.265625 49.769531 Z M 71.265625 49.769531 " fill-opacity="1" fill-rule="nonzero"/><path fill="#f4c16f" d="M 76.40625 47.480469 L 76.21875 47.199219 C 74.160156 48.585938 71.515625 49.128906 71.484375 49.128906 L 71.546875 49.472656 C 71.667969 49.441406 74.300781 48.898438 76.40625 47.480469 Z M 76.40625 47.480469 " fill-opacity="1" fill-rule="nonzero"/><path fill="#f4c16f" d="M 74.769531 52.195312 C 74.910156 51.871094 74.753906 51.511719 74.425781 51.371094 C 74.097656 51.230469 73.742188 51.386719 73.601562 51.714844 C 73.460938 52.039062 73.617188 52.398438 73.945312 52.539062 C 74.269531 52.664062 74.628906 52.507812 74.769531 52.195312 Z M 74.769531 52.195312 " fill-opacity="1" fill-rule="nonzero"/><path fill="#ffffff" d="M 74.394531 52.398438 C 74.488281 52.273438 74.394531 52.054688 74.175781 51.917969 C 73.976562 51.777344 73.726562 51.777344 73.648438 51.902344 C 73.554688 52.023438 73.648438 52.242188 73.867188 52.382812 C 74.070312 52.507812 74.300781 52.523438 74.394531 52.398438 Z M 74.394531 52.398438 " fill-opacity="1" fill-rule="nonzero"/><path fill="#f4c16f" d="M 77.449219 47.667969 L 77.136719 47.527344 C 76.171875 49.816406 74.253906 51.714844 74.222656 51.730469 L 74.457031 51.976562 C 74.535156 51.902344 76.453125 50.003906 77.449219 47.667969 Z M 77.449219 47.667969 " fill-opacity="1" fill-rule="nonzero"/></svg>