<svg xmlns="http://www.w3.org/2000/svg" xmlns:xlink="http://www.w3.org/1999/xlink" width="200" zoomAndPan="magnify" viewBox="0 0 150 149.999998" height="200" preserveAspectRatio="xMidYMid meet" version="1.0"><defs><clipPath id="943facb443"><path d="M 79 76 L 124 76 L 124 121.261719 L 79 121.261719 Z M 79 76 " clip-rule="nonzero"/></clipPath><clipPath id="d6c191217e"><path d="M 32 76 L 76 76 L 76 121.261719 L 32 121.261719 Z M 32 76 " clip-rule="nonzero"/></clipPath></defs><path fill="#aad647" d="M 80.941406 71.640625 C 80.941406 71.640625 87.382812 54.957031 98.054688 45.792969 C 105.136719 39.710938 114.066406 32.042969 126.398438 33.507812 C 138.726562 34.976562 144.0625 43.226562 140.382812 48.90625 C 136.703125 54.589844 130.96875 62.105469 129.785156 66.140625 C 128.605469 70.171875 136.152344 76.589844 114.617188 77.6875 C 93.085938 78.789062 79.46875 78.421875 79.652344 76.773438 C 79.835938 75.121094 80.941406 71.640625 80.941406 71.640625 Z M 80.941406 71.640625 " fill-opacity="1" fill-rule="nonzero"/><g clip-path="url(#943facb443)"><path fill="#bce877" d="M 115.777344 80.820312 C 120.242188 83.234375 123.765625 88.121094 122.980469 93.121094 C 122.566406 95.773438 121.039062 98.089844 119.761719 100.453125 C 117.105469 105.363281 115.425781 110.792969 114.84375 116.34375 C 114.734375 117.375 114.65625 118.4375 114.230469 119.386719 C 113.800781 120.332031 112.933594 121.164062 111.890625 121.214844 C 110.929688 121.265625 110.066406 120.667969 109.292969 120.097656 C 103.578125 115.890625 97.726562 112.402344 93.453125 106.746094 C 81.527344 90.9375 78.394531 78.261719 79.648438 77.070312 C 80.910156 75.871094 96.0625 76.558594 101.21875 77.453125 C 106.214844 78.324219 111.183594 78.335938 115.777344 80.820312 Z M 115.777344 80.820312 " fill-opacity="1" fill-rule="nonzero"/></g><path fill="#aad647" d="M 74.449219 71.640625 C 74.449219 71.640625 68.007812 54.957031 57.332031 45.792969 C 50.25 39.710938 41.320312 32.042969 28.992188 33.507812 C 16.660156 34.976562 11.324219 43.226562 15.003906 48.90625 C 18.6875 54.589844 24.417969 62.105469 25.601562 66.140625 C 26.78125 70.171875 19.238281 76.589844 40.769531 77.6875 C 62.300781 78.789062 75.921875 78.421875 75.738281 76.773438 C 75.550781 75.121094 74.449219 71.640625 74.449219 71.640625 Z M 74.449219 71.640625 " fill-opacity="1" fill-rule="nonzero"/><g clip-path="url(#d6c191217e)"><path fill="#bce877" d="M 39.609375 80.820312 C 35.144531 83.234375 31.621094 88.121094 32.40625 93.121094 C 32.824219 95.773438 34.351562 98.089844 35.628906 100.453125 C 38.28125 105.363281 39.964844 110.792969 40.546875 116.34375 C 40.65625 117.375 40.730469 118.4375 41.160156 119.386719 C 41.585938 120.332031 42.457031 121.164062 43.496094 121.214844 C 44.460938 121.265625 45.320312 120.667969 46.097656 120.097656 C 51.8125 115.890625 57.664062 112.402344 61.933594 106.746094 C 73.863281 90.9375 76.992188 78.261719 75.738281 77.070312 C 74.476562 75.871094 59.328125 76.558594 54.171875 77.453125 C 49.171875 78.324219 44.203125 78.335938 39.609375 80.820312 Z M 39.609375 80.820312 " fill-opacity="1" fill-rule="nonzero"/></g><path fill="#333333" d="M 77.695312 62.910156 C 74.886719 62.910156 71.953125 71.835938 75.289062 73.625 C 74.019531 80.753906 75.820312 98.378906 76.929688 107.714844 C 77.039062 108.613281 78.351562 108.613281 78.457031 107.714844 C 79.566406 98.378906 81.367188 80.753906 80.097656 73.625 C 83.4375 71.835938 80.5 62.910156 77.695312 62.910156 Z M 77.695312 62.910156 " fill-opacity="1" fill-rule="nonzero"/><path fill="#333333" d="M 76.792969 66.574219 C 76.648438 66.574219 76.523438 66.46875 76.5 66.324219 C 75.035156 57.519531 72.539062 48.878906 69.070312 40.648438 C 69.007812 40.496094 69.078125 40.320312 69.234375 40.257812 C 69.386719 40.195312 69.558594 40.265625 69.625 40.417969 C 73.109375 48.691406 75.621094 57.375 77.089844 66.226562 C 77.117188 66.390625 77.007812 66.542969 76.84375 66.570312 C 76.828125 66.570312 76.808594 66.574219 76.792969 66.574219 Z M 76.792969 66.574219 " fill-opacity="1" fill-rule="nonzero"/><path fill="#333333" d="M 66.320312 38.40625 C 66.117188 37.890625 65.972656 37.332031 66.039062 36.78125 C 66.109375 36.230469 66.425781 35.6875 66.9375 35.460938 C 67.546875 35.191406 68.289062 35.4375 68.78125 35.890625 C 69.476562 36.527344 69.765625 37.488281 69.945312 38.414062 C 70.128906 39.402344 70.277344 42.972656 70.277344 42.972656 C 70.277344 42.972656 66.765625 39.515625 66.320312 38.40625 Z M 66.320312 38.40625 " fill-opacity="1" fill-rule="nonzero"/><path fill="#333333" d="M 77.570312 66.574219 C 77.554688 66.574219 77.535156 66.570312 77.519531 66.570312 C 77.355469 66.542969 77.246094 66.390625 77.273438 66.226562 C 78.746094 57.375 81.257812 48.691406 84.738281 40.417969 C 84.804688 40.265625 84.980469 40.195312 85.132812 40.257812 C 85.285156 40.320312 85.355469 40.496094 85.292969 40.648438 C 81.824219 48.878906 79.328125 57.519531 77.863281 66.324219 C 77.839844 66.46875 77.714844 66.574219 77.570312 66.574219 Z M 77.570312 66.574219 " fill-opacity="1" fill-rule="nonzero"/><path fill="#333333" d="M 88.042969 38.40625 C 88.246094 37.890625 88.390625 37.332031 88.324219 36.78125 C 88.253906 36.230469 87.9375 35.6875 87.429688 35.460938 C 86.816406 35.191406 86.074219 35.4375 85.582031 35.890625 C 84.886719 36.527344 84.597656 37.488281 84.421875 38.414062 C 84.234375 39.402344 84.085938 42.972656 84.085938 42.972656 C 84.085938 42.972656 87.597656 39.515625 88.042969 38.40625 Z M 88.042969 38.40625 " fill-opacity="1" fill-rule="nonzero"/></svg>