<svg xmlns="http://www.w3.org/2000/svg" xmlns:xlink="http://www.w3.org/1999/xlink" width="150" zoomAndPan="magnify" viewBox="0 0 112.5 112.499997" height="150" preserveAspectRatio="xMidYMid meet" version="1.0"><path fill="#c89edb" d="M 33.648438 42.878906 C 33.695312 42.449219 34.003906 42.097656 34.421875 41.992188 C 34.835938 41.882812 35.277344 42.046875 35.523438 42.398438 L 40.90625 50.078125 L 50.066406 48.226562 C 50.488281 48.140625 50.917969 48.328125 51.148438 48.691406 C 51.375 49.058594 51.359375 49.527344 51.101562 49.871094 L 45.496094 57.390625 L 50.078125 65.574219 C 50.289062 65.949219 50.25 66.417969 49.972656 66.75 C 49.699219 67.082031 49.25 67.210938 48.84375 67.070312 L 39.996094 64.039062 L 33.667969 70.949219 C 33.378906 71.265625 32.921875 71.371094 32.523438 71.210938 C 32.121094 71.050781 31.863281 70.660156 31.871094 70.226562 L 32.007812 60.835938 L 23.511719 56.921875 C 23.121094 56.742188 22.882812 56.339844 22.910156 55.90625 C 22.9375 55.476562 23.226562 55.105469 23.636719 54.980469 L 32.566406 52.207031 Z M 33.648438 42.878906 " fill-opacity="1" fill-rule="evenodd"/><path fill="#a7e2f2" d="M 61.472656 78.625 C 61.675781 78.507812 61.929688 78.523438 62.113281 78.667969 C 62.296875 78.8125 62.371094 79.058594 62.300781 79.285156 L 60.777344 84.164062 L 64.605469 87.53125 C 64.78125 87.6875 64.84375 87.933594 64.761719 88.15625 C 64.679688 88.375 64.472656 88.523438 64.238281 88.527344 L 59.148438 88.578125 L 57.144531 93.277344 C 57.050781 93.492188 56.835938 93.628906 56.601562 93.621094 C 56.367188 93.609375 56.164062 93.457031 56.089844 93.234375 L 54.46875 88.386719 L 49.402344 87.921875 C 49.167969 87.898438 48.972656 87.738281 48.910156 87.511719 C 48.847656 87.285156 48.929688 87.042969 49.117188 86.902344 L 53.203125 83.855469 L 52.078125 78.867188 C 52.027344 78.636719 52.121094 78.398438 52.316406 78.269531 C 52.511719 78.140625 52.765625 78.144531 52.957031 78.277344 L 57.101562 81.242188 Z M 61.472656 78.625 " fill-opacity="1" fill-rule="evenodd"/><path fill="#fe82b7" d="M 69.742188 11.382812 C 70.089844 11.011719 70.625 10.894531 71.089844 11.089844 C 71.558594 11.28125 71.855469 11.742188 71.84375 12.25 L 71.558594 23.261719 L 81.46875 27.96875 C 81.925781 28.183594 82.203125 28.660156 82.164062 29.167969 C 82.125 29.671875 81.78125 30.101562 81.296875 30.246094 L 70.789062 33.375 L 69.398438 44.304688 C 69.335938 44.804688 68.96875 45.214844 68.476562 45.335938 C 67.988281 45.453125 67.476562 45.257812 67.191406 44.839844 L 60.980469 35.761719 L 50.210938 37.8125 C 49.714844 37.90625 49.210938 37.683594 48.949219 37.25 C 48.683594 36.820312 48.710938 36.269531 49.019531 35.867188 L 55.691406 27.125 L 50.421875 17.464844 C 50.179688 17.019531 50.234375 16.472656 50.5625 16.085938 C 50.890625 15.699219 51.417969 15.558594 51.894531 15.726562 L 62.226562 19.402344 Z M 69.742188 11.382812 " fill-opacity="1" fill-rule="evenodd"/><path fill="#fddb65" d="M 81.550781 58.46875 C 81.832031 58.351562 82.152344 58.421875 82.359375 58.644531 C 82.566406 58.867188 82.613281 59.191406 82.480469 59.464844 L 79.613281 65.394531 L 83.855469 70.421875 C 84.050781 70.652344 84.085938 70.980469 83.9375 71.246094 C 83.792969 71.511719 83.5 71.660156 83.203125 71.617188 L 76.703125 70.710938 L 73.257812 76.320312 C 73.097656 76.578125 72.796875 76.710938 72.5 76.652344 C 72.207031 76.597656 71.976562 76.363281 71.921875 76.0625 L 70.773438 69.574219 L 64.402344 68.011719 C 64.109375 67.9375 63.890625 67.691406 63.851562 67.390625 C 63.8125 67.089844 63.964844 66.796875 64.230469 66.65625 L 70.019531 63.550781 L 69.527344 56.976562 C 69.503906 56.675781 69.671875 56.390625 69.941406 56.261719 C 70.214844 56.132812 70.539062 56.1875 70.757812 56.394531 L 75.480469 60.96875 Z M 81.550781 58.46875 " fill-opacity="1" fill-rule="evenodd"/><path fill="#fdc1ce" d="M 72.863281 94.195312 C 72.867188 94.050781 72.960938 93.921875 73.097656 93.871094 C 73.234375 93.824219 73.386719 93.867188 73.480469 93.976562 L 75.53125 96.410156 L 78.574219 95.511719 C 78.710938 95.46875 78.863281 95.519531 78.953125 95.636719 C 79.039062 95.75 79.046875 95.910156 78.972656 96.035156 L 77.300781 98.746094 L 79.09375 101.375 C 79.175781 101.496094 79.175781 101.65625 79.09375 101.777344 C 79.011719 101.894531 78.863281 101.953125 78.71875 101.917969 L 75.640625 101.160156 L 73.707031 103.683594 C 73.617188 103.800781 73.464844 103.851562 73.324219 103.808594 C 73.1875 103.765625 73.085938 103.640625 73.074219 103.496094 L 72.84375 100.316406 L 69.855469 99.25 C 69.714844 99.199219 69.625 99.070312 69.621094 98.925781 C 69.617188 98.777344 69.703125 98.644531 69.839844 98.589844 L 72.773438 97.382812 Z M 72.863281 94.195312 " fill-opacity="1" fill-rule="evenodd"/></svg>