<svg xmlns="http://www.w3.org/2000/svg" xmlns:xlink="http://www.w3.org/1999/xlink" width="200" zoomAndPan="magnify" viewBox="0 0 150 149.999998" height="200" preserveAspectRatio="xMidYMid meet" version="1.0"><defs><clipPath id="15e85a9724"><path d="M 111 26.207031 L 122.878906 26.207031 L 122.878906 38 L 111 38 Z M 111 26.207031 " clip-rule="nonzero"/></clipPath><clipPath id="51a09df5e2"><path d="M 59 108 L 70 108 L 70 119.207031 L 59 119.207031 Z M 59 108 " clip-rule="nonzero"/></clipPath></defs><path fill="#feca7a" d="M 89.8125 65.523438 C 91.863281 63.300781 94.585938 59.492188 97.289062 56.671875 C 94.199219 57.242188 91.0625 58.21875 88.09375 59.410156 L 90.191406 71.484375 C 93.769531 70.257812 96.984375 68.617188 100.515625 67.183594 C 100.425781 67.097656 92.820312 65.828125 89.8125 65.523438 Z M 89.8125 65.523438 " fill-opacity="1" fill-rule="nonzero"/><path fill="#81b9e6" d="M 41.007812 109.453125 C 45.828125 111.046875 51.046875 110.914062 56.09375 110.371094 C 67.882812 109.097656 80.625 104.738281 86.246094 94.285156 C 89.269531 88.667969 89.785156 82.082031 90.078125 75.710938 C 90.398438 68.769531 90.304688 61.132812 85.835938 55.8125 C 82.867188 52.28125 79.78125 49.28125 75.792969 48.179688 C 70.851562 46.8125 64.230469 47.199219 59.453125 49.070312 C 53.167969 51.53125 49.222656 57.558594 47.851562 64.179688 C 46.480469 70.796875 46.59375 77.710938 44.613281 84.171875 C 43.699219 87.152344 42.21875 90.058594 40.15625 92.410156 C 38.160156 94.6875 36.773438 96.585938 33.101562 98.332031 C 24.648438 102.359375 36.441406 107.945312 41.007812 109.453125 Z M 41.007812 109.453125 " fill-opacity="1" fill-rule="nonzero"/><path fill="#e0eded" d="M 57.054688 103.316406 C 55.988281 103.316406 55.03125 102.832031 54.539062 102.039062 C 54.226562 101.539062 54.164062 100.855469 54.265625 100.222656 C 53.078125 101.074219 51.523438 101.988281 50.058594 102.441406 C 49.390625 102.644531 48.515625 102.855469 47.65625 102.640625 C 46.703125 102.40625 45.996094 101.644531 45.9375 100.792969 C 45.839844 99.378906 47.394531 98.390625 48.648438 97.597656 C 49.070312 97.332031 49.46875 97.078125 49.730469 96.855469 C 51.597656 95.257812 52.917969 93.800781 53.886719 92.269531 C 54.914062 90.652344 55.617188 88.8125 56.300781 87.03125 C 56.984375 85.246094 57.6875 83.402344 58.722656 81.746094 C 59.960938 79.765625 61.664062 78.074219 63.648438 76.847656 C 65.265625 75.851562 67.050781 75.210938 68.820312 74.996094 C 70.804688 74.75 72.675781 75.070312 74.230469 75.917969 C 77.128906 77.496094 77.621094 80.519531 78.097656 83.4375 C 78.375 85.132812 78.425781 86.496094 78.261719 87.734375 C 78.050781 89.3125 77.386719 90.878906 76.164062 92.664062 C 74.636719 94.902344 72.242188 97.472656 68.84375 100.519531 C 68.015625 101.261719 66.917969 101.839844 65.585938 102.234375 C 64.296875 102.613281 63.171875 102.402344 62.582031 101.667969 C 62.277344 101.289062 62.171875 100.875 62.148438 100.460938 C 62.132812 100.476562 62.117188 100.496094 62.101562 100.515625 C 61.898438 100.753906 61.683594 100.996094 61.441406 101.214844 C 60.933594 101.671875 60.378906 102.082031 59.792969 102.429688 C 58.824219 103.007812 57.953125 103.296875 57.128906 103.316406 C 57.101562 103.316406 57.078125 103.316406 57.054688 103.316406 Z M 55.019531 98.835938 C 55.105469 98.835938 55.191406 98.867188 55.257812 98.929688 C 55.390625 99.050781 55.410156 99.25 55.308594 99.394531 C 54.914062 99.941406 54.753906 101.054688 55.132812 101.664062 C 55.503906 102.257812 56.277344 102.628906 57.113281 102.613281 C 57.8125 102.597656 58.574219 102.339844 59.433594 101.828125 C 59.976562 101.5 60.496094 101.117188 60.972656 100.691406 C 61.183594 100.503906 61.371094 100.285156 61.570312 100.054688 C 61.800781 99.789062 62.039062 99.515625 62.316406 99.28125 C 62.425781 99.191406 62.578125 99.175781 62.703125 99.242188 C 62.828125 99.308594 62.902344 99.441406 62.890625 99.582031 L 62.886719 99.652344 C 62.832031 100.242188 62.785156 100.800781 63.125 101.222656 C 63.609375 101.820312 64.609375 101.789062 65.386719 101.558594 C 66.617188 101.195312 67.625 100.667969 68.375 99.996094 C 75.96875 93.1875 77.273438 89.816406 77.566406 87.640625 C 77.71875 86.476562 77.667969 85.175781 77.402344 83.550781 C 76.933594 80.671875 76.488281 77.953125 73.890625 76.535156 C 71.738281 75.359375 68.015625 74.984375 64.019531 77.445312 C 62.125 78.613281 60.496094 80.230469 59.316406 82.121094 C 58.320312 83.71875 57.625 85.53125 56.957031 87.28125 C 56.261719 89.09375 55.542969 90.96875 54.480469 92.644531 C 53.472656 94.238281 52.109375 95.746094 50.1875 97.390625 C 49.886719 97.648438 49.46875 97.914062 49.023438 98.191406 C 47.929688 98.886719 46.570312 99.75 46.636719 100.746094 C 46.679688 101.359375 47.265625 101.820312 47.824219 101.957031 C 48.515625 102.128906 49.273438 101.945312 49.855469 101.765625 C 51.671875 101.207031 53.652344 99.882812 54.796875 98.917969 C 54.859375 98.863281 54.941406 98.835938 55.019531 98.835938 Z M 63.835938 77.148438 Z M 63.835938 77.148438 " fill-opacity="1" fill-rule="nonzero"/><path fill="#3d4659" d="M 73.269531 62.257812 C 73.085938 62.257812 72.929688 62.113281 72.921875 61.925781 C 72.875 61.054688 72.875 60.125 73.191406 59.238281 C 73.429688 58.570312 73.929688 57.921875 74.488281 57.550781 C 75.042969 57.179688 75.6875 56.964844 76.3125 56.945312 C 76.699219 56.929688 77.378906 57.003906 77.78125 57.132812 C 78.683594 57.429688 79.15625 57.929688 79.59375 58.460938 C 79.945312 58.882812 80.164062 59.359375 80.371094 59.820312 C 80.457031 60.007812 80.546875 60.207031 80.644531 60.398438 C 80.734375 60.570312 80.667969 60.78125 80.496094 60.871094 C 80.324219 60.960938 80.113281 60.894531 80.023438 60.71875 C 79.917969 60.515625 79.824219 60.308594 79.730469 60.109375 C 79.535156 59.671875 79.347656 59.261719 79.054688 58.910156 C 78.585938 58.34375 78.226562 58.019531 77.5625 57.804688 C 77.253906 57.703125 76.648438 57.636719 76.335938 57.648438 C 75.839844 57.664062 75.324219 57.839844 74.878906 58.136719 C 74.445312 58.425781 74.042969 58.953125 73.851562 59.476562 C 73.59375 60.199219 73.570312 60.964844 73.621094 61.890625 C 73.632812 62.082031 73.484375 62.25 73.289062 62.257812 C 73.285156 62.257812 73.277344 62.257812 73.269531 62.257812 Z M 73.269531 62.257812 " fill-opacity="1" fill-rule="nonzero"/><path fill="#3d4659" d="M 104.761719 38.035156 C 104.949219 37.988281 105.066406 37.800781 105.023438 37.609375 C 104.976562 37.421875 104.789062 37.304688 104.597656 37.351562 C 103.636719 37.578125 103 37.621094 102.261719 36.328125 C 102.179688 36.183594 102.0625 35.90625 101.9375 35.613281 C 101.769531 35.214844 101.578125 34.765625 101.398438 34.46875 C 100.207031 32.480469 98.707031 32.71875 97.902344 32.851562 C 97.808594 32.863281 97.726562 32.917969 97.671875 32.996094 C 97.617188 33.074219 97.597656 33.171875 97.613281 33.265625 C 97.75 33.960938 97.882812 34.667969 98.023438 35.417969 C 98.277344 36.78125 98.539062 38.179688 98.839844 39.546875 C 98.726562 39.515625 98.605469 39.5 98.476562 39.496094 C 97.230469 39.449219 95.480469 40.558594 95.074219 41.652344 C 94.695312 42.667969 94.988281 43.621094 95.800781 44.023438 C 96.0625 44.15625 96.351562 44.222656 96.652344 44.222656 C 97.210938 44.222656 97.804688 44 98.355469 43.578125 C 99.402344 42.769531 99.984375 41.496094 99.777344 40.476562 C 99.777344 40.476562 99.773438 40.472656 99.773438 40.46875 C 99.367188 38.785156 99.035156 37.007812 98.714844 35.289062 C 98.597656 34.667969 98.488281 34.074219 98.375 33.492188 C 99.097656 33.40625 99.988281 33.484375 100.796875 34.832031 C 100.949219 35.085938 101.128906 35.511719 101.289062 35.886719 C 101.429688 36.214844 101.546875 36.496094 101.652344 36.675781 C 102.625 38.382812 103.679688 38.292969 104.761719 38.035156 Z M 104.761719 38.035156 " fill-opacity="1" fill-rule="nonzero"/><path fill="#3d4659" d="M 96.652344 44.28125 C 96.339844 44.28125 96.042969 44.210938 95.773438 44.078125 C 94.933594 43.660156 94.628906 42.675781 95.019531 41.628906 C 95.433594 40.515625 97.207031 39.390625 98.476562 39.4375 C 98.574219 39.441406 98.671875 39.453125 98.765625 39.46875 C 98.464844 38.109375 98.199219 36.6875 97.964844 35.429688 C 97.828125 34.679688 97.695312 33.972656 97.558594 33.277344 C 97.535156 33.167969 97.558594 33.054688 97.621094 32.960938 C 97.6875 32.871094 97.785156 32.808594 97.894531 32.792969 C 98.710938 32.660156 100.234375 32.414062 101.449219 34.4375 C 101.628906 34.742188 101.820312 35.191406 101.988281 35.589844 C 102.113281 35.882812 102.230469 36.15625 102.3125 36.296875 C 103.046875 37.582031 103.652344 37.511719 104.585938 37.292969 C 104.691406 37.265625 104.800781 37.285156 104.894531 37.34375 C 104.988281 37.398438 105.054688 37.492188 105.078125 37.597656 C 105.105469 37.703125 105.085938 37.8125 105.027344 37.90625 C 104.972656 38 104.882812 38.066406 104.773438 38.089844 C 103.667969 38.355469 102.59375 38.445312 101.601562 36.703125 C 101.496094 36.523438 101.375 36.238281 101.234375 35.910156 C 101.078125 35.535156 100.898438 35.113281 100.746094 34.863281 C 99.984375 33.59375 99.160156 33.472656 98.445312 33.542969 C 98.550781 34.097656 98.65625 34.664062 98.765625 35.257812 L 98.773438 35.277344 C 99.09375 36.996094 99.425781 38.769531 99.832031 40.453125 L 99.832031 40.464844 C 100.046875 41.503906 99.453125 42.804688 98.390625 43.625 C 97.835938 44.054688 97.234375 44.28125 96.652344 44.28125 Z M 98.394531 39.550781 C 97.175781 39.550781 95.519531 40.617188 95.128906 41.671875 C 94.761719 42.65625 95.042969 43.582031 95.824219 43.972656 C 96.078125 44.097656 96.355469 44.164062 96.652344 44.164062 C 97.207031 44.164062 97.785156 43.945312 98.320312 43.53125 C 99.347656 42.734375 99.925781 41.484375 99.71875 40.488281 L 99.714844 40.472656 C 99.308594 38.796875 98.976562 37.015625 98.65625 35.296875 L 98.652344 35.277344 C 98.539062 34.664062 98.429688 34.078125 98.316406 33.503906 L 98.304688 33.441406 L 98.367188 33.433594 C 99.132812 33.34375 100.027344 33.4375 100.847656 34.800781 C 101 35.058594 101.183594 35.488281 101.34375 35.863281 C 101.480469 36.1875 101.601562 36.46875 101.703125 36.648438 C 102.65625 38.316406 103.6875 38.230469 104.746094 37.976562 C 104.824219 37.960938 104.886719 37.914062 104.929688 37.847656 C 104.96875 37.78125 104.984375 37.699219 104.964844 37.625 C 104.949219 37.546875 104.902344 37.484375 104.832031 37.441406 C 104.765625 37.402344 104.6875 37.386719 104.613281 37.40625 C 104.164062 37.511719 103.730469 37.597656 103.328125 37.464844 C 102.921875 37.332031 102.566406 36.980469 102.210938 36.355469 C 102.125 36.210938 102.007812 35.929688 101.882812 35.636719 C 101.714844 35.242188 101.523438 34.792969 101.347656 34.5 C 100.175781 32.542969 98.703125 32.78125 97.914062 32.90625 C 97.835938 32.921875 97.765625 32.964844 97.71875 33.03125 C 97.671875 33.09375 97.65625 33.175781 97.671875 33.253906 C 97.808594 33.949219 97.941406 34.65625 98.082031 35.40625 C 98.320312 36.691406 98.59375 38.148438 98.898438 39.535156 L 98.917969 39.625 L 98.828125 39.601562 C 98.714844 39.574219 98.597656 39.558594 98.472656 39.554688 C 98.449219 39.554688 98.421875 39.550781 98.394531 39.550781 Z M 98.394531 39.550781 " fill-opacity="1" fill-rule="nonzero"/><g clip-path="url(#15e85a9724)"><path fill="#3d4659" d="M 122.417969 31.808594 C 121.429688 31.875 120.792969 31.8125 120.277344 30.410156 C 120.222656 30.257812 120.152344 29.964844 120.078125 29.652344 C 119.976562 29.234375 119.863281 28.761719 119.734375 28.4375 C 118.886719 26.277344 117.371094 26.265625 116.554688 26.261719 C 116.464844 26.257812 116.367188 26.300781 116.300781 26.367188 C 116.234375 26.433594 116.199219 26.527344 116.203125 26.625 C 116.222656 27.332031 116.234375 28.050781 116.25 28.8125 C 116.277344 30.199219 116.304688 31.625 116.375 33.019531 C 116.265625 32.972656 116.148438 32.9375 116.023438 32.910156 C 114.800781 32.660156 112.890625 33.460938 112.3125 34.472656 C 111.769531 35.414062 111.902344 36.402344 112.632812 36.933594 C 112.96875 37.179688 113.375 37.300781 113.816406 37.300781 C 114.265625 37.300781 114.75 37.171875 115.230469 36.914062 C 116.394531 36.292969 117.179688 35.132812 117.140625 34.09375 C 117.140625 34.09375 117.140625 34.089844 117.140625 34.085938 C 117.140625 34.085938 117.140625 34.082031 117.140625 34.082031 C 117.019531 32.355469 116.984375 30.546875 116.953125 28.800781 C 116.941406 28.167969 116.929688 27.566406 116.914062 26.972656 C 117.640625 27.007812 118.507812 27.230469 119.082031 28.695312 C 119.191406 28.972656 119.296875 29.421875 119.394531 29.816406 C 119.476562 30.164062 119.546875 30.460938 119.621094 30.65625 C 120.296875 32.5 121.351562 32.585938 122.464844 32.511719 C 122.65625 32.496094 122.804688 32.328125 122.789062 32.136719 C 122.777344 31.941406 122.609375 31.796875 122.417969 31.808594 Z M 122.417969 31.808594 " fill-opacity="1" fill-rule="nonzero"/><path fill="#3d4659" d="M 113.816406 37.359375 C 113.359375 37.359375 112.9375 37.226562 112.601562 36.980469 C 111.839844 36.429688 111.703125 35.410156 112.261719 34.445312 C 112.851562 33.414062 114.789062 32.597656 116.035156 32.851562 C 116.128906 32.871094 116.222656 32.898438 116.3125 32.933594 C 116.242188 31.539062 116.214844 30.09375 116.191406 28.816406 C 116.175781 28.054688 116.164062 27.335938 116.144531 26.625 C 116.140625 26.515625 116.183594 26.40625 116.261719 26.324219 C 116.335938 26.246094 116.449219 26.207031 116.554688 26.203125 C 117.382812 26.207031 118.925781 26.21875 119.789062 28.414062 C 119.917969 28.742188 120.03125 29.21875 120.132812 29.640625 C 120.207031 29.949219 120.277344 30.238281 120.332031 30.390625 C 120.84375 31.78125 121.457031 31.8125 122.414062 31.75 C 122.636719 31.734375 122.832031 31.90625 122.847656 32.132812 C 122.855469 32.242188 122.820312 32.347656 122.75 32.429688 C 122.675781 32.511719 122.578125 32.5625 122.46875 32.570312 C 121.332031 32.644531 120.257812 32.558594 119.566406 30.675781 C 119.492188 30.476562 119.417969 30.179688 119.335938 29.832031 C 119.242188 29.4375 119.132812 28.988281 119.027344 28.714844 C 118.484375 27.335938 117.691406 27.082031 116.972656 27.035156 C 116.988281 27.601562 117 28.183594 117.011719 28.785156 L 117.011719 28.800781 C 117.042969 30.546875 117.078125 32.355469 117.199219 34.078125 L 117.140625 34.09375 L 117.199219 34.09375 C 117.242188 35.152344 116.441406 36.332031 115.257812 36.96875 C 114.777344 37.222656 114.28125 37.359375 113.816406 37.359375 Z M 115.53125 32.921875 C 114.359375 32.921875 112.859375 33.632812 112.363281 34.503906 C 111.839844 35.414062 111.960938 36.375 112.667969 36.886719 C 112.988281 37.117188 113.382812 37.242188 113.816406 37.242188 C 114.261719 37.242188 114.742188 37.109375 115.203125 36.863281 C 116.347656 36.25 117.121094 35.113281 117.085938 34.097656 L 117.082031 34.082031 C 116.960938 32.359375 116.925781 30.550781 116.894531 28.804688 L 116.894531 28.789062 C 116.882812 28.160156 116.871094 27.5625 116.855469 26.972656 L 116.855469 26.910156 L 116.917969 26.914062 C 117.6875 26.953125 118.554688 27.191406 119.136719 28.671875 C 119.246094 28.953125 119.355469 29.40625 119.449219 29.804688 C 119.53125 30.148438 119.605469 30.445312 119.675781 30.636719 C 120.339844 32.441406 121.371094 32.523438 122.460938 32.453125 C 122.539062 32.445312 122.609375 32.410156 122.660156 32.351562 C 122.710938 32.292969 122.738281 32.21875 122.730469 32.140625 C 122.722656 31.976562 122.582031 31.855469 122.421875 31.867188 C 121.960938 31.898438 121.519531 31.90625 121.144531 31.710938 C 120.765625 31.511719 120.472656 31.105469 120.222656 30.433594 C 120.164062 30.273438 120.09375 29.980469 120.019531 29.667969 C 119.917969 29.25 119.804688 28.777344 119.679688 28.457031 C 118.847656 26.335938 117.355469 26.324219 116.554688 26.320312 C 116.476562 26.320312 116.398438 26.351562 116.34375 26.410156 C 116.289062 26.464844 116.257812 26.542969 116.261719 26.621094 C 116.28125 27.335938 116.292969 28.050781 116.308594 28.8125 C 116.332031 30.117188 116.359375 31.597656 116.433594 33.019531 L 116.4375 33.113281 L 116.351562 33.074219 C 116.246094 33.027344 116.132812 32.992188 116.011719 32.96875 C 115.859375 32.9375 115.699219 32.921875 115.53125 32.921875 Z M 115.53125 32.921875 " fill-opacity="1" fill-rule="nonzero"/></g><path fill="#3d4659" d="M 114.84375 51.527344 C 114.84375 51.527344 114.84375 51.527344 114.84375 51.523438 C 114.53125 49.820312 114.300781 48.027344 114.078125 46.296875 C 113.980469 45.535156 113.890625 44.820312 113.792969 44.117188 C 113.777344 44.007812 113.710938 43.910156 113.617188 43.859375 C 113.519531 43.804688 113.40625 43.796875 113.304688 43.839844 C 112.304688 44.269531 111.277344 44.6875 110.28125 45.09375 C 108.714844 45.734375 107.234375 46.339844 105.941406 46.945312 C 105.800781 47.011719 105.71875 47.160156 105.742188 47.3125 C 105.839844 48.011719 105.929688 48.726562 106.027344 49.484375 C 106.203125 50.859375 106.386719 52.273438 106.609375 53.652344 C 106.496094 53.617188 106.375 53.59375 106.246094 53.582031 C 105.003906 53.464844 103.195312 54.472656 102.730469 55.539062 C 102.292969 56.53125 102.53125 57.5 103.320312 57.949219 C 103.609375 58.117188 103.9375 58.199219 104.28125 58.199219 C 104.804688 58.199219 105.363281 58.011719 105.894531 57.648438 C 106.984375 56.902344 107.640625 55.664062 107.492188 54.636719 C 107.488281 54.632812 107.488281 54.628906 107.488281 54.628906 C 107.488281 54.625 107.488281 54.625 107.488281 54.625 C 107.179688 52.921875 106.949219 51.128906 106.726562 49.394531 C 106.6875 49.097656 106.648438 48.804688 106.613281 48.519531 C 108.433594 47.636719 110.980469 46.546875 113.289062 45.660156 C 113.320312 45.898438 113.351562 46.140625 113.382812 46.386719 C 113.558594 47.761719 113.742188 49.171875 113.964844 50.554688 C 113.851562 50.519531 113.730469 50.492188 113.601562 50.480469 C 112.359375 50.367188 110.550781 51.371094 110.082031 52.441406 C 109.648438 53.433594 109.886719 54.402344 110.671875 54.851562 C 110.964844 55.019531 111.292969 55.097656 111.636719 55.097656 C 112.15625 55.097656 112.71875 54.914062 113.25 54.550781 C 114.339844 53.804688 114.996094 52.5625 114.84375 51.535156 C 114.84375 51.535156 114.84375 51.53125 114.84375 51.527344 Z M 114.84375 51.527344 " fill-opacity="1" fill-rule="nonzero"/><path fill="#3d4659" d="M 104.28125 58.257812 C 103.921875 58.257812 103.585938 58.171875 103.289062 58 C 102.476562 57.535156 102.230469 56.539062 102.675781 55.515625 C 103.152344 54.429688 104.988281 53.40625 106.253906 53.523438 C 106.351562 53.53125 106.445312 53.546875 106.539062 53.570312 C 106.316406 52.191406 106.132812 50.757812 105.96875 49.492188 C 105.875 48.734375 105.78125 48.023438 105.683594 47.320312 C 105.660156 47.140625 105.753906 46.96875 105.917969 46.890625 C 107.210938 46.285156 108.691406 45.683594 110.261719 45.042969 C 111.261719 44.632812 112.285156 44.214844 113.28125 43.785156 C 113.398438 43.738281 113.535156 43.746094 113.644531 43.808594 C 113.757812 43.871094 113.832031 43.980469 113.851562 44.109375 C 113.949219 44.808594 114.039062 45.523438 114.136719 46.277344 C 114.359375 48.019531 114.589844 49.8125 114.902344 51.515625 L 114.902344 51.519531 L 114.84375 51.527344 L 114.902344 51.519531 C 115.058594 52.578125 114.390625 53.839844 113.285156 54.597656 C 112.75 54.964844 112.179688 55.160156 111.636719 55.160156 C 111.277344 55.160156 110.941406 55.074219 110.644531 54.902344 C 109.828125 54.4375 109.582031 53.4375 110.03125 52.417969 C 110.503906 51.332031 112.34375 50.308594 113.605469 50.421875 C 113.707031 50.433594 113.800781 50.449219 113.890625 50.472656 C 113.671875 49.09375 113.488281 47.660156 113.324219 46.390625 L 113.242188 45.742188 C 110.972656 46.617188 108.46875 47.6875 106.675781 48.554688 L 106.785156 49.386719 C 107.007812 51.121094 107.238281 52.910156 107.546875 54.613281 L 107.546875 54.628906 C 107.703125 55.675781 107.039062 56.9375 105.929688 57.695312 C 105.394531 58.0625 104.824219 58.257812 104.285156 58.257812 Z M 106.046875 53.628906 C 104.835938 53.628906 103.21875 54.570312 102.78125 55.5625 C 102.359375 56.527344 102.585938 57.464844 103.347656 57.898438 C 103.625 58.058594 103.941406 58.140625 104.28125 58.140625 C 104.800781 58.140625 105.347656 57.953125 105.863281 57.601562 C 106.9375 56.867188 107.582031 55.652344 107.433594 54.644531 L 107.429688 54.628906 C 107.121094 52.929688 106.890625 51.136719 106.667969 49.402344 L 106.546875 48.484375 L 106.585938 48.46875 C 108.402344 47.589844 110.964844 46.492188 113.269531 45.605469 L 113.335938 45.578125 L 113.441406 46.378906 C 113.605469 47.671875 113.796875 49.140625 114.023438 50.542969 L 114.035156 50.636719 L 113.945312 50.609375 C 113.835938 50.574219 113.71875 50.550781 113.597656 50.539062 C 112.371094 50.429688 110.59375 51.417969 110.136719 52.464844 C 109.714844 53.429688 109.941406 54.367188 110.703125 54.800781 C 110.980469 54.960938 111.296875 55.042969 111.636719 55.042969 C 112.15625 55.042969 112.699219 54.855469 113.21875 54.5 C 114.289062 53.765625 114.933594 52.550781 114.785156 51.546875 L 114.84375 51.527344 L 114.785156 51.539062 L 114.785156 51.527344 C 114.472656 49.828125 114.242188 48.035156 114.019531 46.300781 C 113.921875 45.539062 113.832031 44.824219 113.734375 44.125 C 113.722656 44.035156 113.667969 43.953125 113.585938 43.910156 C 113.507812 43.863281 113.410156 43.859375 113.328125 43.894531 C 112.332031 44.324219 111.304688 44.742188 110.3125 45.148438 C 108.738281 45.789062 107.257812 46.394531 105.964844 46.996094 C 105.847656 47.050781 105.78125 47.175781 105.800781 47.304688 C 105.898438 48.007812 105.988281 48.71875 106.085938 49.476562 C 106.253906 50.769531 106.441406 52.238281 106.667969 53.644531 L 106.683594 53.738281 L 106.59375 53.707031 C 106.484375 53.675781 106.363281 53.652344 106.242188 53.640625 C 106.175781 53.632812 106.113281 53.628906 106.042969 53.628906 Z M 106.046875 53.628906 " fill-opacity="1" fill-rule="nonzero"/><g clip-path="url(#51a09df5e2)"><path fill="#f2ab5a" d="M 68.800781 116.554688 C 66.820312 115.78125 64.78125 115.167969 62.703125 114.714844 L 62.972656 109.359375 C 62.984375 109.164062 62.835938 109 62.640625 108.988281 C 62.449219 108.976562 62.28125 109.128906 62.273438 109.324219 L 62.007812 114.570312 C 61.222656 114.410156 60.429688 114.277344 59.636719 114.164062 C 59.445312 114.140625 59.265625 114.273438 59.238281 114.464844 C 59.210938 114.660156 59.347656 114.835938 59.539062 114.863281 C 60.417969 114.984375 61.292969 115.136719 62.164062 115.320312 C 63.351562 116.585938 64.90625 118.101562 66.066406 119.113281 C 66.132812 119.171875 66.21875 119.199219 66.296875 119.199219 C 66.398438 119.199219 66.496094 119.160156 66.5625 119.082031 C 66.691406 118.933594 66.675781 118.710938 66.53125 118.585938 C 65.609375 117.78125 64.4375 116.65625 63.402344 115.597656 C 65.148438 116.019531 66.871094 116.558594 68.546875 117.210938 C 68.589844 117.226562 68.632812 117.234375 68.675781 117.234375 C 68.816406 117.234375 68.949219 117.148438 69 117.007812 C 69.070312 116.828125 68.980469 116.625 68.800781 116.554688 Z M 68.800781 116.554688 " fill-opacity="1" fill-rule="nonzero"/></g><path fill="#f2ab5a" d="M 79.730469 112.992188 C 77.800781 112.589844 75.839844 112.230469 73.878906 111.925781 C 74.054688 109.847656 74.105469 107.746094 74.015625 105.671875 C 74.007812 105.476562 73.847656 105.328125 73.648438 105.332031 C 73.457031 105.339844 73.304688 105.503906 73.3125 105.699219 C 73.398438 107.730469 73.355469 109.785156 73.183594 111.816406 C 72.050781 111.648438 70.917969 111.492188 69.785156 111.355469 C 69.59375 111.332031 69.417969 111.46875 69.394531 111.660156 C 69.371094 111.855469 69.507812 112.03125 69.703125 112.054688 C 70.910156 112.199219 72.121094 112.367188 73.332031 112.550781 C 73.894531 113.035156 74.664062 113.648438 75.410156 114.242188 C 76.179688 114.851562 76.976562 115.480469 77.527344 115.964844 C 77.59375 116.019531 77.675781 116.050781 77.757812 116.050781 C 77.855469 116.050781 77.953125 116.007812 78.023438 115.929688 C 78.152344 115.78125 78.136719 115.558594 77.988281 115.433594 C 77.425781 114.941406 76.621094 114.304688 75.847656 113.691406 C 75.457031 113.378906 75.0625 113.066406 74.691406 112.765625 C 76.332031 113.039062 77.96875 113.34375 79.589844 113.683594 C 79.613281 113.6875 79.636719 113.6875 79.660156 113.6875 C 79.824219 113.6875 79.96875 113.574219 80.003906 113.410156 C 80.042969 113.21875 79.921875 113.03125 79.730469 112.992188 Z M 79.730469 112.992188 " fill-opacity="1" fill-rule="nonzero"/></svg>