<svg xmlns="http://www.w3.org/2000/svg" xmlns:xlink="http://www.w3.org/1999/xlink" width="200" zoomAndPan="magnify" viewBox="0 0 150 149.999998" height="200" preserveAspectRatio="xMidYMid meet" version="1.0"><defs><clipPath id="1b8a2601fa"><path d="M 19.101562 45 L 127 45 L 127 129.292969 L 19.101562 129.292969 Z M 19.101562 45 " clip-rule="nonzero"/></clipPath><clipPath id="748b881ab9"><path d="M 19.101562 20.542969 L 130.851562 20.542969 L 130.851562 116 L 19.101562 116 Z M 19.101562 20.542969 " clip-rule="nonzero"/></clipPath></defs><rect x="-15" width="180" fill="#ffffff" y="-15" height="179.999997" fill-opacity="1"/><rect x="-15" width="180" fill="#ffffff" y="-15" height="179.999997" fill-opacity="1"/><g clip-path="url(#1b8a2601fa)"><path fill="#fbbb30" d="M 118.921875 48.695312 C 118.921875 48.695312 114.894531 50.089844 111.742188 48.691406 C 108.59375 47.292969 104.566406 44.667969 102.464844 45.191406 C 102.464844 45.015625 106.84375 47.992188 107.191406 50.265625 C 105.265625 48.515625 98.265625 46.761719 93.539062 48.6875 C 101.414062 51.3125 106.839844 54.460938 107.539062 56.035156 C 107.539062 56.035156 103.164062 54.109375 93.710938 53.933594 C 84.257812 53.753906 76.03125 58.476562 74.28125 59 C 72.527344 59.523438 66.226562 61.269531 64.125 61.445312 C 63.773438 61.445312 67.277344 63.367188 69.902344 63.371094 C 72.527344 63.371094 77.601562 63.894531 79.179688 63.898438 C 80.753906 63.898438 64.300781 67.039062 54.84375 74.90625 C 55.019531 74.734375 48.367188 77.179688 43.8125 80.5 C 39.261719 83.824219 34.359375 89.066406 34.359375 89.066406 C 34.359375 89.066406 31.734375 89.414062 28.230469 92.910156 C 24.730469 96.40625 19.300781 107.425781 19.121094 113.894531 C 20.695312 116.34375 27.171875 121.941406 28.394531 122.816406 C 29.269531 123.515625 33.648438 126.492188 47.125 127.367188 C 47.300781 127.367188 55.003906 124.398438 59.558594 110.933594 C 59.90625 111.28125 58.855469 117.402344 56.929688 120.199219 C 55.003906 123 49.574219 129.292969 49.574219 129.292969 C 49.574219 129.292969 58.855469 126.148438 61.832031 124.402344 C 64.808594 122.652344 71.460938 119.332031 73.738281 115.308594 C 74.085938 115.136719 74.261719 114.085938 75.136719 113.738281 C 76.011719 113.386719 82.839844 110.417969 86.515625 107.796875 C 90.195312 105.171875 100.351562 95.382812 104.730469 88.5625 C 104.730469 88.5625 106.832031 84.019531 107.882812 79.472656 C 108.933594 74.925781 110.160156 68.804688 110.511719 67.753906 C 110.511719 67.753906 112.261719 70.554688 111.035156 77.199219 C 109.808594 83.84375 106.828125 88.738281 106.828125 88.738281 L 116.988281 75.277344 C 116.988281 75.277344 118.390625 71.777344 118.738281 68.804688 C 119.089844 65.832031 118.917969 63.210938 118.917969 63.210938 C 118.917969 63.210938 121.015625 64.785156 123.816406 64.085938 C 124.167969 63.910156 121.367188 62.683594 121.015625 61.285156 C 120.667969 59.886719 120.140625 58.488281 120.667969 57.089844 C 120.667969 56.914062 121.890625 59.363281 123.292969 59.539062 C 124.695312 59.714844 126.621094 58.664062 126.621094 58.664062 C 126.621094 58.664062 124.519531 57.789062 123.996094 57.089844 C 123.46875 56.390625 122.417969 55.515625 122.421875 53.59375 C 122.421875 51.667969 120.84375 50.09375 120.84375 50.09375 Z M 118.921875 48.695312 " fill-opacity="1" fill-rule="nonzero"/></g><g clip-path="url(#748b881ab9)"><path fill="#1d1d1b" d="M 130.832031 20.542969 C 130.832031 20.542969 122.59375 53.941406 87.398438 84.535156 C 57.109375 108.132812 24.546875 114.945312 20.519531 115.292969 C 20.519531 115.117188 19.292969 113.71875 19.292969 113.71875 C 19.292969 113.71875 61.746094 105.601562 88.800781 78.589844 C 103.511719 65.128906 118.570312 43.796875 125.929688 24.738281 C 125.929688 24.738281 130.308594 20.542969 130.832031 20.542969 Z M 130.832031 20.542969 " fill-opacity="1" fill-rule="nonzero"/></g></svg>