<svg xmlns="http://www.w3.org/2000/svg" xmlns:xlink="http://www.w3.org/1999/xlink" width="200" zoomAndPan="magnify" viewBox="0 0 150 149.999998" height="200" preserveAspectRatio="xMidYMid meet" version="1.0"><defs><clipPath id="4584edc2e5"><path d="M 86 87 L 124.957031 87 L 124.957031 124.476562 L 86 124.476562 Z M 86 87 " clip-rule="nonzero"/></clipPath></defs><rect x="-15" width="180" fill="#ffffff" y="-15" height="179.999997" fill-opacity="1"/><rect x="-15" width="180" fill="#ffffff" y="-15" height="179.999997" fill-opacity="1"/><path fill="#f4ca94" d="M 112.667969 103.304688 L 103.769531 112.816406 L 77.0625 85.691406 L 83.707031 78.585938 Z M 112.667969 103.304688 " fill-opacity="1" fill-rule="nonzero"/><g clip-path="url(#4584edc2e5)"><path fill="#da7155" d="M 123.980469 112.6875 L 113.933594 123.433594 C 113.777344 123.601562 113.605469 123.75 113.417969 123.882812 C 113.234375 124.011719 113.035156 124.125 112.824219 124.214844 C 112.617188 124.304688 112.398438 124.375 112.175781 124.417969 C 111.949219 124.464844 111.722656 124.488281 111.496094 124.488281 C 111.265625 124.488281 111.042969 124.464844 110.816406 124.417969 C 110.59375 124.371094 110.378906 124.300781 110.167969 124.210938 C 109.957031 124.117188 109.761719 124.007812 109.574219 123.875 C 109.386719 123.742188 109.21875 123.59375 109.0625 123.425781 L 87.722656 100.433594 C 87.4375 100.125 87.21875 99.777344 87.0625 99.386719 C 86.910156 98.996094 86.835938 98.589844 86.835938 98.171875 C 86.835938 97.753906 86.914062 97.347656 87.070312 96.957031 C 87.222656 96.566406 87.445312 96.21875 87.730469 95.914062 L 94.664062 88.5 C 94.949219 88.191406 95.28125 87.949219 95.660156 87.769531 C 96.039062 87.589844 96.4375 87.484375 96.859375 87.453125 C 97.277344 87.421875 97.6875 87.472656 98.089844 87.597656 C 98.488281 87.722656 98.855469 87.917969 99.179688 88.179688 L 123.636719 107.839844 C 123.8125 107.980469 123.976562 108.140625 124.121094 108.316406 C 124.265625 108.496094 124.390625 108.683594 124.496094 108.886719 C 124.601562 109.089844 124.6875 109.296875 124.75 109.519531 C 124.8125 109.738281 124.851562 109.960938 124.867188 110.1875 C 124.882812 110.417969 124.875 110.644531 124.84375 110.871094 C 124.816406 111.09375 124.761719 111.316406 124.683594 111.53125 C 124.609375 111.746094 124.511719 111.949219 124.394531 112.144531 C 124.273438 112.339844 124.136719 112.523438 123.980469 112.6875 Z M 123.980469 112.6875 " fill-opacity="1" fill-rule="nonzero"/></g><path fill="#2b6bb5" d="M 38.464844 83.066406 C 38.953125 83.949219 39.480469 84.804688 40.050781 85.636719 C 40.621094 86.46875 41.230469 87.269531 41.878906 88.042969 C 42.527344 88.8125 43.214844 89.550781 43.933594 90.257812 C 44.65625 90.960938 45.410156 91.628906 46.199219 92.257812 C 46.988281 92.890625 47.804688 93.480469 48.648438 94.03125 C 49.496094 94.582031 50.367188 95.085938 51.261719 95.554688 C 52.15625 96.019531 53.074219 96.4375 54.011719 96.8125 C 54.945312 97.1875 55.898438 97.515625 56.871094 97.796875 C 57.839844 98.078125 58.820312 98.3125 59.8125 98.5 C 60.804688 98.683594 61.804688 98.820312 62.808594 98.910156 C 63.816406 98.996094 64.820312 99.035156 65.832031 99.023438 C 66.839844 99.011719 67.847656 98.949219 68.851562 98.839844 C 69.855469 98.730469 70.851562 98.570312 71.839844 98.363281 C 72.824219 98.15625 73.800781 97.902344 74.765625 97.597656 C 75.726562 97.292969 76.671875 96.945312 77.601562 96.550781 C 78.527344 96.152344 79.4375 95.710938 80.320312 95.226562 C 81.207031 94.742188 82.066406 94.214844 82.898438 93.648438 C 83.730469 93.078125 84.535156 92.46875 85.308594 91.820312 C 86.078125 91.171875 86.820312 90.488281 87.523438 89.769531 C 88.230469 89.046875 88.898438 88.296875 89.53125 87.507812 C 90.164062 86.722656 90.753906 85.910156 91.304688 85.066406 C 91.859375 84.222656 92.367188 83.351562 92.832031 82.457031 C 93.296875 81.5625 93.71875 80.648438 94.09375 79.714844 C 94.46875 78.78125 94.800781 77.828125 95.082031 76.859375 C 95.363281 75.894531 95.597656 74.914062 95.785156 73.925781 C 95.96875 72.933594 96.105469 71.9375 96.195312 70.933594 C 96.28125 69.929688 96.320312 68.925781 96.308594 67.917969 C 96.296875 66.910156 96.238281 65.90625 96.125 64.902344 C 96.015625 63.902344 95.855469 62.90625 95.648438 61.921875 C 95.441406 60.9375 95.183594 59.964844 94.882812 59.003906 C 94.578125 58.042969 94.226562 57.097656 93.832031 56.171875 C 93.433594 55.246094 92.992188 54.339844 92.507812 53.457031 C 92.019531 52.574219 91.492188 51.714844 90.921875 50.886719 C 90.351562 50.054688 89.742188 49.253906 89.09375 48.480469 C 88.445312 47.707031 87.757812 46.972656 87.035156 46.265625 C 86.316406 45.5625 85.558594 44.894531 84.773438 44.265625 C 83.984375 43.632812 83.167969 43.042969 82.324219 42.492188 C 81.476562 41.941406 80.605469 41.433594 79.710938 40.96875 C 78.816406 40.503906 77.898438 40.085938 76.960938 39.710938 C 76.027344 39.335938 75.074219 39.007812 74.101562 38.726562 C 73.132812 38.441406 72.152344 38.210938 71.160156 38.023438 C 70.167969 37.839844 69.167969 37.703125 68.164062 37.613281 C 67.15625 37.527344 66.148438 37.488281 65.140625 37.5 C 64.132812 37.511719 63.125 37.574219 62.121094 37.683594 C 61.117188 37.792969 60.121094 37.953125 59.132812 38.160156 C 58.144531 38.367188 57.171875 38.621094 56.207031 38.925781 C 55.246094 39.226562 54.300781 39.578125 53.371094 39.972656 C 52.445312 40.371094 51.535156 40.808594 50.652344 41.296875 C 49.765625 41.78125 48.90625 42.308594 48.074219 42.875 C 47.242188 43.445312 46.4375 44.054688 45.664062 44.703125 C 44.890625 45.347656 44.152344 46.035156 43.445312 46.753906 C 42.742188 47.472656 42.074219 48.226562 41.441406 49.011719 C 40.808594 49.800781 40.21875 50.613281 39.667969 51.457031 C 39.113281 52.300781 38.605469 53.171875 38.140625 54.066406 C 37.675781 54.957031 37.253906 55.875 36.878906 56.808594 C 36.5 57.742188 36.171875 58.695312 35.890625 59.660156 C 35.609375 60.628906 35.375 61.609375 35.1875 62.597656 C 35.003906 63.589844 34.867188 64.585938 34.777344 65.589844 C 34.691406 66.59375 34.652344 67.597656 34.664062 68.605469 C 34.675781 69.613281 34.734375 70.617188 34.847656 71.621094 C 34.957031 72.621094 35.113281 73.613281 35.324219 74.601562 C 35.53125 75.585938 35.789062 76.558594 36.089844 77.519531 C 36.394531 78.480469 36.746094 79.425781 37.140625 80.351562 C 37.539062 81.277344 37.980469 82.183594 38.464844 83.066406 Z M 86.800781 56.582031 C 87.183594 57.28125 87.53125 57.992188 87.84375 58.726562 C 88.15625 59.457031 88.433594 60.199219 88.671875 60.957031 C 88.914062 61.714844 89.113281 62.484375 89.277344 63.261719 C 89.445312 64.039062 89.570312 64.824219 89.65625 65.613281 C 89.742188 66.402344 89.789062 67.195312 89.800781 67.988281 C 89.808594 68.785156 89.777344 69.578125 89.710938 70.371094 C 89.640625 71.160156 89.53125 71.949219 89.386719 72.730469 C 89.238281 73.511719 89.054688 74.28125 88.832031 75.046875 C 88.609375 75.808594 88.347656 76.558594 88.054688 77.296875 C 87.757812 78.035156 87.425781 78.753906 87.058594 79.460938 C 86.691406 80.164062 86.289062 80.851562 85.851562 81.515625 C 85.417969 82.183594 84.953125 82.824219 84.453125 83.445312 C 83.957031 84.066406 83.429688 84.660156 82.871094 85.226562 C 82.3125 85.796875 81.730469 86.335938 81.121094 86.847656 C 80.511719 87.355469 79.878906 87.835938 79.21875 88.285156 C 78.5625 88.734375 77.886719 89.152344 77.1875 89.53125 C 76.488281 89.914062 75.773438 90.261719 75.042969 90.574219 C 74.308594 90.886719 73.5625 91.164062 72.804688 91.402344 C 72.046875 91.640625 71.277344 91.84375 70.496094 92.007812 C 69.71875 92.171875 68.933594 92.296875 68.140625 92.382812 C 67.347656 92.46875 66.554688 92.515625 65.757812 92.527344 C 64.960938 92.535156 64.167969 92.503906 63.375 92.4375 C 62.582031 92.367188 61.792969 92.257812 61.011719 92.113281 C 60.226562 91.964844 59.453125 91.78125 58.6875 91.558594 C 57.925781 91.339844 57.171875 91.078125 56.433594 90.785156 C 55.695312 90.488281 54.972656 90.15625 54.265625 89.789062 C 53.558594 89.421875 52.871094 89.023438 52.203125 88.589844 C 51.539062 88.152344 50.894531 87.6875 50.273438 87.191406 C 49.652344 86.695312 49.054688 86.167969 48.488281 85.613281 C 47.917969 85.054688 47.375 84.472656 46.863281 83.863281 C 46.351562 83.257812 45.871094 82.625 45.421875 81.96875 C 44.972656 81.3125 44.554688 80.636719 44.171875 79.941406 C 43.789062 79.242188 43.441406 78.527344 43.128906 77.796875 C 42.816406 77.066406 42.539062 76.324219 42.300781 75.566406 C 42.058594 74.808594 41.855469 74.039062 41.691406 73.261719 C 41.527344 72.484375 41.402344 71.699219 41.316406 70.910156 C 41.230469 70.121094 41.183594 69.328125 41.171875 68.535156 C 41.164062 67.738281 41.195312 66.945312 41.261719 66.152344 C 41.332031 65.363281 41.441406 64.574219 41.585938 63.792969 C 41.734375 63.011719 41.917969 62.242188 42.140625 61.476562 C 42.363281 60.714844 42.621094 59.964844 42.917969 59.226562 C 43.214844 58.488281 43.546875 57.769531 43.914062 57.0625 C 44.28125 56.359375 44.683594 55.671875 45.117188 55.007812 C 45.554688 54.339844 46.019531 53.699219 46.519531 53.078125 C 47.015625 52.457031 47.542969 51.863281 48.101562 51.296875 C 48.660156 50.726562 49.242188 50.1875 49.851562 49.675781 C 50.460938 49.164062 51.09375 48.6875 51.753906 48.238281 C 52.410156 47.789062 53.085938 47.371094 53.785156 46.988281 C 54.484375 46.609375 55.199219 46.261719 55.929688 45.949219 C 56.664062 45.636719 57.410156 45.359375 58.167969 45.121094 C 58.925781 44.882812 59.695312 44.679688 60.476562 44.515625 C 61.253906 44.351562 62.039062 44.226562 62.832031 44.140625 C 63.625 44.054688 64.417969 44.003906 65.214844 43.996094 C 66.011719 43.988281 66.804688 44.019531 67.597656 44.085938 C 68.390625 44.15625 69.179688 44.261719 69.960938 44.410156 C 70.746094 44.554688 71.519531 44.742188 72.285156 44.960938 C 73.046875 45.183594 73.800781 45.445312 74.539062 45.738281 C 75.277344 46.035156 76 46.367188 76.707031 46.734375 C 77.414062 47.101562 78.101562 47.5 78.765625 47.933594 C 79.433594 48.367188 80.078125 48.835938 80.699219 49.332031 C 81.320312 49.828125 81.917969 50.355469 82.484375 50.910156 C 83.054688 51.46875 83.597656 52.050781 84.109375 52.65625 C 84.621094 53.265625 85.101562 53.898438 85.550781 54.554688 C 86 55.210938 86.417969 55.886719 86.800781 56.582031 Z M 86.800781 56.582031 " fill-opacity="1" fill-rule="nonzero"/><path fill="#d4edef" d="M 81.148438 44.089844 C 81.757812 44.699219 82.335938 45.339844 82.882812 46.003906 C 83.433594 46.671875 83.945312 47.363281 84.425781 48.078125 C 84.90625 48.796875 85.347656 49.535156 85.753906 50.292969 C 86.164062 51.054688 86.53125 51.832031 86.863281 52.628906 C 87.191406 53.421875 87.484375 54.234375 87.734375 55.058594 C 87.984375 55.882812 88.195312 56.71875 88.363281 57.5625 C 88.53125 58.410156 88.65625 59.261719 88.742188 60.117188 C 88.828125 60.976562 88.867188 61.835938 88.867188 62.695312 C 88.867188 63.558594 88.828125 64.417969 88.742188 65.273438 C 88.65625 66.132812 88.53125 66.984375 88.363281 67.828125 C 88.195312 68.675781 87.984375 69.507812 87.734375 70.335938 C 87.484375 71.160156 87.191406 71.96875 86.863281 72.765625 C 86.53125 73.5625 86.164062 74.339844 85.753906 75.097656 C 85.347656 75.859375 84.90625 76.597656 84.425781 77.3125 C 83.945312 78.03125 83.433594 78.722656 82.882812 79.386719 C 82.335938 80.054688 81.757812 80.691406 81.148438 81.300781 C 80.535156 81.910156 79.898438 82.488281 79.230469 83.035156 C 78.5625 83.582031 77.871094 84.09375 77.152344 84.574219 C 76.433594 85.050781 75.695312 85.496094 74.933594 85.902344 C 74.171875 86.308594 73.390625 86.675781 72.59375 87.003906 C 71.796875 87.335938 70.984375 87.625 70.15625 87.875 C 69.332031 88.125 68.496094 88.332031 67.648438 88.503906 C 66.800781 88.671875 65.949219 88.796875 65.089844 88.882812 C 64.230469 88.964844 63.367188 89.007812 62.503906 89.007812 C 61.640625 89.007812 60.78125 88.964844 59.921875 88.882812 C 59.0625 88.796875 58.207031 88.671875 57.363281 88.503906 C 56.515625 88.332031 55.679688 88.125 54.851562 87.875 C 54.023438 87.625 53.214844 87.335938 52.414062 87.003906 C 51.617188 86.675781 50.839844 86.308594 50.078125 85.902344 C 49.316406 85.496094 48.574219 85.050781 47.859375 84.574219 C 47.140625 84.09375 46.445312 83.582031 45.78125 83.035156 C 45.113281 82.488281 44.472656 81.910156 43.863281 81.300781 C 43.253906 80.691406 42.671875 80.054688 42.125 79.386719 C 41.578125 78.722656 41.0625 78.03125 40.582031 77.3125 C 40.105469 76.597656 39.660156 75.859375 39.253906 75.097656 C 38.847656 74.339844 38.476562 73.5625 38.148438 72.765625 C 37.816406 71.96875 37.527344 71.160156 37.277344 70.335938 C 37.023438 69.507812 36.816406 68.675781 36.648438 67.828125 C 36.480469 66.984375 36.351562 66.132812 36.269531 65.273438 C 36.183594 64.417969 36.140625 63.558594 36.140625 62.695312 C 36.140625 61.835938 36.183594 60.976562 36.269531 60.117188 C 36.351562 59.261719 36.480469 58.410156 36.648438 57.5625 C 36.816406 56.71875 37.023438 55.882812 37.277344 55.058594 C 37.527344 54.234375 37.816406 53.421875 38.148438 52.628906 C 38.476562 51.832031 38.847656 51.054688 39.253906 50.292969 C 39.660156 49.535156 40.105469 48.796875 40.582031 48.078125 C 41.0625 47.363281 41.578125 46.671875 42.125 46.003906 C 42.671875 45.339844 43.253906 44.699219 43.863281 44.089844 C 44.472656 43.480469 45.113281 42.902344 45.78125 42.359375 C 46.445312 41.8125 47.140625 41.296875 47.859375 40.820312 C 48.574219 40.339844 49.316406 39.898438 50.078125 39.492188 C 50.839844 39.085938 51.617188 38.71875 52.414062 38.386719 C 53.214844 38.058594 54.023438 37.769531 54.851562 37.519531 C 55.679688 37.269531 56.515625 37.058594 57.363281 36.890625 C 58.207031 36.722656 59.0625 36.597656 59.921875 36.511719 C 60.78125 36.425781 61.640625 36.386719 62.503906 36.386719 C 63.367188 36.386719 64.230469 36.425781 65.089844 36.511719 C 65.949219 36.597656 66.800781 36.722656 67.648438 36.890625 C 68.496094 37.058594 69.332031 37.269531 70.15625 37.519531 C 70.984375 37.769531 71.796875 38.058594 72.59375 38.386719 C 73.390625 38.71875 74.171875 39.085938 74.933594 39.492188 C 75.695312 39.898438 76.433594 40.339844 77.152344 40.820312 C 77.871094 41.296875 78.5625 41.8125 79.230469 42.359375 C 79.898438 42.902344 80.535156 43.480469 81.148438 44.089844 Z M 81.148438 44.089844 " fill-opacity="0.51" fill-rule="nonzero"/><path fill="#f4ca94" d="M 105.839844 119.953125 L 119.941406 104.871094 L 112.53125 98.910156 L 99.371094 112.984375 Z M 105.839844 119.953125 " fill-opacity="1" fill-rule="nonzero"/><path fill="#da7155" d="M 34.136719 79.035156 C 34.625 79.917969 35.152344 80.777344 35.722656 81.609375 C 36.292969 82.4375 36.902344 83.242188 37.550781 84.011719 C 38.199219 84.785156 38.886719 85.523438 39.609375 86.226562 C 40.328125 86.929688 41.085938 87.597656 41.871094 88.226562 C 42.660156 88.859375 43.476562 89.449219 44.320312 90 C 45.167969 90.550781 46.039062 91.058594 46.933594 91.523438 C 47.828125 91.988281 48.746094 92.40625 49.683594 92.78125 C 50.621094 93.15625 51.574219 93.484375 52.542969 93.769531 C 53.511719 94.050781 54.492188 94.28125 55.484375 94.46875 C 56.476562 94.652344 57.476562 94.789062 58.480469 94.878906 C 59.488281 94.964844 60.496094 95.003906 61.503906 94.992188 C 62.511719 94.980469 63.519531 94.921875 64.523438 94.808594 C 65.527344 94.699219 66.523438 94.542969 67.511719 94.332031 C 68.5 94.125 69.472656 93.871094 70.4375 93.566406 C 71.398438 93.265625 72.34375 92.914062 73.273438 92.519531 C 74.203125 92.121094 75.109375 91.683594 75.992188 91.199219 C 76.878906 90.710938 77.738281 90.1875 78.570312 89.617188 C 79.402344 89.046875 80.207031 88.4375 80.980469 87.792969 C 81.753906 87.144531 82.492188 86.460938 83.199219 85.738281 C 83.902344 85.019531 84.574219 84.265625 85.203125 83.480469 C 85.835938 82.695312 86.425781 81.878906 86.980469 81.035156 C 87.53125 80.191406 88.039062 79.320312 88.503906 78.429688 C 88.96875 77.535156 89.390625 76.621094 89.765625 75.683594 C 90.144531 74.75 90.472656 73.796875 90.753906 72.832031 C 91.035156 71.863281 91.269531 70.882812 91.457031 69.894531 C 91.640625 68.902344 91.777344 67.90625 91.867188 66.902344 C 91.953125 65.898438 91.992188 64.894531 91.980469 63.886719 C 91.96875 62.878906 91.910156 61.875 91.800781 60.875 C 91.6875 59.871094 91.53125 58.878906 91.320312 57.890625 C 91.113281 56.90625 90.859375 55.933594 90.554688 54.972656 C 90.25 54.011719 89.898438 53.066406 89.503906 52.140625 C 89.105469 51.214844 88.664062 50.308594 88.179688 49.425781 C 87.691406 48.542969 87.164062 47.6875 86.59375 46.855469 C 86.023438 46.023438 85.414062 45.222656 84.765625 44.449219 C 84.117188 43.679688 83.429688 42.941406 82.710938 42.234375 C 81.988281 41.53125 81.234375 40.863281 80.445312 40.234375 C 79.65625 39.605469 78.839844 39.011719 77.996094 38.460938 C 77.148438 37.914062 76.28125 37.40625 75.382812 36.941406 C 74.488281 36.476562 73.570312 36.054688 72.636719 35.679688 C 71.699219 35.304688 70.746094 34.976562 69.777344 34.695312 C 68.804688 34.414062 67.824219 34.179688 66.832031 33.992188 C 65.839844 33.808594 64.84375 33.671875 63.835938 33.585938 C 62.832031 33.496094 61.824219 33.457031 60.8125 33.46875 C 59.804688 33.480469 58.796875 33.542969 57.792969 33.652344 C 56.789062 33.761719 55.792969 33.921875 54.808594 34.128906 C 53.820312 34.335938 52.84375 34.589844 51.882812 34.894531 C 50.917969 35.199219 49.972656 35.546875 49.042969 35.945312 C 48.117188 36.339844 47.210938 36.78125 46.324219 37.265625 C 45.441406 37.75 44.582031 38.277344 43.746094 38.847656 C 42.914062 39.414062 42.109375 40.023438 41.339844 40.671875 C 40.566406 41.320312 39.824219 42.003906 39.121094 42.722656 C 38.414062 43.445312 37.746094 44.195312 37.113281 44.984375 C 36.480469 45.769531 35.890625 46.585938 35.339844 47.429688 C 34.789062 48.273438 34.277344 49.140625 33.8125 50.035156 C 33.347656 50.929688 32.925781 51.84375 32.550781 52.777344 C 32.175781 53.714844 31.84375 54.664062 31.5625 55.632812 C 31.28125 56.597656 31.046875 57.578125 30.859375 58.566406 C 30.675781 59.558594 30.539062 60.554688 30.449219 61.558594 C 30.363281 62.5625 30.324219 63.570312 30.335938 64.574219 C 30.347656 65.582031 30.410156 66.585938 30.519531 67.589844 C 30.628906 68.589844 30.789062 69.585938 30.996094 70.570312 C 31.203125 71.554688 31.460938 72.53125 31.761719 73.492188 C 32.066406 74.453125 32.417969 75.394531 32.816406 76.320312 C 33.210938 77.246094 33.652344 78.152344 34.136719 79.035156 Z M 81.988281 52.820312 C 82.363281 53.5 82.703125 54.199219 83.007812 54.910156 C 83.316406 55.625 83.585938 56.351562 83.820312 57.09375 C 84.054688 57.835938 84.25 58.585938 84.410156 59.34375 C 84.570312 60.105469 84.695312 60.871094 84.777344 61.644531 C 84.863281 62.414062 84.910156 63.1875 84.917969 63.964844 C 84.929688 64.742188 84.898438 65.515625 84.832031 66.292969 C 84.765625 67.066406 84.660156 67.832031 84.515625 68.597656 C 84.371094 69.359375 84.191406 70.113281 83.972656 70.859375 C 83.757812 71.605469 83.503906 72.339844 83.214844 73.058594 C 82.921875 73.78125 82.597656 74.484375 82.238281 75.175781 C 81.882812 75.863281 81.488281 76.535156 81.0625 77.183594 C 80.640625 77.835938 80.183594 78.460938 79.695312 79.070312 C 79.210938 79.675781 78.695312 80.253906 78.148438 80.808594 C 77.605469 81.367188 77.035156 81.894531 76.4375 82.390625 C 75.84375 82.890625 75.222656 83.359375 74.582031 83.800781 C 73.941406 84.238281 73.277344 84.644531 72.597656 85.019531 C 71.914062 85.390625 71.214844 85.730469 70.5 86.035156 C 69.785156 86.34375 69.054688 86.609375 68.3125 86.84375 C 67.570312 87.078125 66.820312 87.277344 66.058594 87.4375 C 65.296875 87.597656 64.527344 87.71875 63.753906 87.804688 C 62.980469 87.886719 62.207031 87.933594 61.425781 87.941406 C 60.648438 87.953125 59.871094 87.921875 59.097656 87.855469 C 58.320312 87.789062 57.550781 87.683594 56.785156 87.539062 C 56.023438 87.398438 55.265625 87.214844 54.519531 87 C 53.773438 86.78125 53.035156 86.527344 52.316406 86.238281 C 51.59375 85.949219 50.886719 85.628906 50.195312 85.269531 C 49.503906 84.910156 48.835938 84.519531 48.183594 84.09375 C 47.53125 83.671875 46.902344 83.214844 46.292969 82.730469 C 45.6875 82.242188 45.105469 81.730469 44.550781 81.1875 C 43.992188 80.644531 43.464844 80.074219 42.964844 79.480469 C 42.464844 78.886719 41.992188 78.265625 41.554688 77.625 C 41.113281 76.984375 40.707031 76.324219 40.332031 75.644531 C 39.957031 74.960938 39.617188 74.265625 39.3125 73.550781 C 39.007812 72.835938 38.738281 72.109375 38.503906 71.367188 C 38.269531 70.628906 38.070312 69.878906 37.910156 69.117188 C 37.75 68.359375 37.628906 67.59375 37.542969 66.820312 C 37.457031 66.046875 37.410156 65.273438 37.402344 64.496094 C 37.394531 63.722656 37.421875 62.945312 37.492188 62.171875 C 37.558594 61.398438 37.664062 60.628906 37.808594 59.867188 C 37.949219 59.101562 38.128906 58.347656 38.347656 57.601562 C 38.566406 56.855469 38.820312 56.125 39.109375 55.402344 C 39.398438 54.683594 39.722656 53.976562 40.082031 53.289062 C 40.441406 52.597656 40.832031 51.929688 41.257812 51.277344 C 41.683594 50.628906 42.140625 50 42.625 49.394531 C 43.113281 48.789062 43.628906 48.207031 44.171875 47.652344 C 44.71875 47.097656 45.285156 46.570312 45.882812 46.070312 C 46.480469 45.570312 47.097656 45.101562 47.742188 44.664062 C 48.382812 44.226562 49.042969 43.820312 49.726562 43.445312 C 50.410156 43.070312 51.109375 42.730469 51.824219 42.425781 C 52.539062 42.121094 53.269531 41.851562 54.007812 41.617188 C 54.75 41.382812 55.503906 41.1875 56.265625 41.027344 C 57.027344 40.867188 57.792969 40.746094 58.566406 40.660156 C 59.339844 40.574219 60.117188 40.527344 60.894531 40.519531 C 61.671875 40.511719 62.449219 40.542969 63.226562 40.609375 C 64 40.675781 64.769531 40.78125 65.535156 40.925781 C 66.300781 41.066406 67.054688 41.246094 67.804688 41.464844 C 68.550781 41.679688 69.285156 41.933594 70.007812 42.222656 C 70.730469 42.511719 71.433594 42.835938 72.125 43.195312 C 72.816406 43.554688 73.488281 43.945312 74.140625 44.367188 C 74.789062 44.792969 75.421875 45.246094 76.027344 45.734375 C 76.632812 46.21875 77.214844 46.734375 77.773438 47.277344 C 78.328125 47.820312 78.855469 48.390625 79.359375 48.984375 C 79.859375 49.578125 80.328125 50.195312 80.765625 50.835938 C 81.207031 51.476562 81.613281 52.140625 81.988281 52.820312 Z M 81.988281 52.820312 " fill-opacity="1" fill-rule="nonzero"/><path fill="#2b6bb5" d="M 53.402344 51.445312 C 53.675781 51.59375 53.917969 51.792969 54.125 52.046875 C 54.335938 52.296875 54.507812 52.597656 54.648438 52.945312 C 54.785156 53.292969 54.882812 53.679688 54.945312 54.109375 C 55.007812 54.539062 55.027344 55 55.007812 55.496094 C 54.992188 55.992188 54.933594 56.507812 54.835938 57.050781 C 54.738281 57.589844 54.605469 58.144531 54.433594 58.710938 C 54.261719 59.277344 54.054688 59.847656 53.816406 60.417969 C 53.574219 60.988281 53.304688 61.550781 53.007812 62.101562 C 52.707031 62.65625 52.382812 63.1875 52.039062 63.703125 C 51.691406 64.214844 51.328125 64.699219 50.945312 65.152344 C 50.566406 65.605469 50.175781 66.023438 49.773438 66.398438 C 49.375 66.777344 48.972656 67.109375 48.566406 67.394531 C 48.160156 67.683594 47.761719 67.917969 47.371094 68.101562 C 46.976562 68.285156 46.597656 68.417969 46.230469 68.492188 C 45.863281 68.566406 45.515625 68.585938 45.191406 68.550781 C 44.863281 68.511719 44.5625 68.421875 44.289062 68.273438 C 44.015625 68.125 43.777344 67.925781 43.566406 67.675781 C 43.355469 67.421875 43.183594 67.121094 43.046875 66.773438 C 42.90625 66.425781 42.808594 66.039062 42.746094 65.609375 C 42.6875 65.179688 42.664062 64.71875 42.683594 64.222656 C 42.703125 63.726562 42.761719 63.210938 42.855469 62.667969 C 42.953125 62.128906 43.089844 61.574219 43.261719 61.007812 C 43.433594 60.441406 43.636719 59.871094 43.878906 59.300781 C 44.117188 58.730469 44.386719 58.167969 44.6875 57.617188 C 44.984375 57.0625 45.308594 56.53125 45.65625 56.019531 C 46.003906 55.503906 46.367188 55.023438 46.746094 54.566406 C 47.128906 54.113281 47.519531 53.699219 47.917969 53.320312 C 48.320312 52.941406 48.722656 52.609375 49.125 52.324219 C 49.53125 52.039062 49.929688 51.800781 50.324219 51.617188 C 50.71875 51.433594 51.097656 51.304688 51.464844 51.226562 C 51.832031 51.152344 52.175781 51.132812 52.503906 51.171875 C 52.828125 51.207031 53.128906 51.296875 53.402344 51.445312 Z M 53.402344 51.445312 " fill-opacity="1" fill-rule="nonzero"/><path fill="#2b6bb5" d="M 60.382812 44.082031 C 60.585938 44.257812 60.773438 44.449219 60.941406 44.660156 C 61.105469 44.871094 61.25 45.09375 61.371094 45.332031 C 61.496094 45.574219 61.59375 45.820312 61.664062 46.078125 C 61.738281 46.335938 61.785156 46.601562 61.808594 46.867188 C 61.828125 47.132812 61.824219 47.402344 61.792969 47.667969 C 61.761719 47.933594 61.703125 48.195312 61.621094 48.449219 C 61.539062 48.703125 61.429688 48.949219 61.300781 49.183594 C 61.167969 49.417969 61.015625 49.636719 60.839844 49.839844 C 60.667969 50.046875 60.472656 50.230469 60.265625 50.394531 C 60.054688 50.5625 59.828125 50.707031 59.589844 50.828125 C 59.347656 50.949219 59.101562 51.046875 58.839844 51.121094 C 58.582031 51.195312 58.320312 51.242188 58.050781 51.261719 C 57.785156 51.285156 57.515625 51.277344 57.25 51.246094 C 56.984375 51.214844 56.722656 51.160156 56.464844 51.078125 C 56.210938 50.992188 55.964844 50.886719 55.730469 50.757812 C 55.496094 50.625 55.277344 50.472656 55.070312 50.296875 C 54.867188 50.125 54.683594 49.933594 54.515625 49.722656 C 54.347656 49.511719 54.203125 49.285156 54.082031 49.046875 C 53.960938 48.808594 53.863281 48.5625 53.789062 48.300781 C 53.714844 48.042969 53.667969 47.78125 53.648438 47.515625 C 53.625 47.246094 53.632812 46.980469 53.664062 46.714844 C 53.695312 46.449219 53.75 46.1875 53.835938 45.933594 C 53.917969 45.675781 54.023438 45.433594 54.15625 45.199219 C 54.285156 44.964844 54.4375 44.746094 54.613281 44.539062 C 54.789062 44.335938 54.980469 44.152344 55.191406 43.984375 C 55.402344 43.820312 55.628906 43.675781 55.867188 43.554688 C 56.105469 43.429688 56.355469 43.332031 56.613281 43.261719 C 56.871094 43.1875 57.136719 43.140625 57.402344 43.121094 C 57.671875 43.097656 57.9375 43.101562 58.207031 43.132812 C 58.472656 43.164062 58.734375 43.222656 58.988281 43.304688 C 59.246094 43.386719 59.488281 43.496094 59.722656 43.625 C 59.957031 43.757812 60.179688 43.910156 60.382812 44.082031 Z M 60.382812 44.082031 " fill-opacity="1" fill-rule="nonzero"/><path fill="#f4ca94" d="M 112.820312 59.390625 C 112.820312 58.574219 112.109375 57.816406 110.910156 57.203125 C 109.652344 56.558594 108.523438 55.738281 107.523438 54.742188 C 106.523438 53.742188 105.703125 52.617188 105.058594 51.359375 C 104.441406 50.164062 103.683594 49.453125 102.863281 49.453125 C 102.042969 49.453125 101.285156 50.164062 100.667969 51.359375 C 100.023438 52.617188 99.203125 53.742188 98.203125 54.742188 C 97.203125 55.738281 96.074219 56.558594 94.816406 57.203125 C 93.617188 57.816406 92.90625 58.574219 92.90625 59.390625 C 92.90625 60.210938 93.617188 60.96875 94.816406 61.582031 C 96.074219 62.222656 97.203125 63.042969 98.203125 64.042969 C 99.203125 65.039062 100.023438 66.164062 100.667969 67.421875 C 101.285156 68.621094 102.042969 69.328125 102.863281 69.328125 C 103.683594 69.328125 104.441406 68.621094 105.058594 67.421875 C 105.703125 66.164062 106.523438 65.039062 107.523438 64.042969 C 108.523438 63.042969 109.652344 62.222656 110.910156 61.582031 C 112.109375 60.96875 112.820312 60.210938 112.820312 59.390625 Z M 112.820312 59.390625 " fill-opacity="1" fill-rule="nonzero"/><path fill="#f4ca94" d="M 48.792969 102.199219 C 48.792969 101.664062 48.332031 101.167969 47.542969 100.765625 C 45.855469 99.902344 44.578125 98.628906 43.710938 96.941406 C 43.308594 96.15625 42.8125 95.691406 42.273438 95.691406 C 41.738281 95.691406 41.242188 96.15625 40.835938 96.941406 C 39.972656 98.628906 38.695312 99.902344 37.007812 100.765625 C 36.21875 101.167969 35.753906 101.664062 35.753906 102.199219 C 35.753906 102.734375 36.21875 103.230469 37.007812 103.632812 C 38.695312 104.496094 39.972656 105.773438 40.835938 107.457031 C 41.242188 108.242188 41.738281 108.707031 42.273438 108.707031 C 42.8125 108.707031 43.308594 108.242188 43.710938 107.457031 C 44.578125 105.773438 45.855469 104.496094 47.542969 103.632812 C 48.332031 103.230469 48.792969 102.734375 48.792969 102.199219 Z M 48.792969 102.199219 " fill-opacity="1" fill-rule="nonzero"/><path fill="#f4ca94" d="M 114.511719 45.480469 C 114.511719 45.152344 114.230469 44.847656 113.75 44.601562 C 112.714844 44.074219 111.9375 43.296875 111.40625 42.265625 C 111.160156 41.785156 110.855469 41.503906 110.527344 41.503906 C 110.199219 41.503906 109.898438 41.785156 109.652344 42.265625 C 109.121094 43.296875 108.339844 44.074219 107.308594 44.601562 C 106.828125 44.847656 106.546875 45.152344 106.546875 45.480469 C 106.546875 45.804688 106.828125 46.109375 107.308594 46.355469 C 108.339844 46.882812 109.121094 47.660156 109.652344 48.691406 C 109.898438 49.171875 110.199219 49.453125 110.527344 49.453125 C 110.855469 49.453125 111.160156 49.171875 111.40625 48.691406 C 111.9375 47.660156 112.714844 46.882812 113.746094 46.355469 C 114.230469 46.109375 114.511719 45.804688 114.511719 45.480469 Z M 114.511719 45.480469 " fill-opacity="1" fill-rule="nonzero"/></svg>