<svg xmlns="http://www.w3.org/2000/svg" xmlns:xlink="http://www.w3.org/1999/xlink" width="150" zoomAndPan="magnify" viewBox="0 0 112.5 112.499997" height="150" preserveAspectRatio="xMidYMid meet" version="1.0"><defs><clipPath id="6238d8a420"><path d="M 11.199219 10.863281 L 48 10.863281 L 48 48 L 11.199219 48 Z M 11.199219 10.863281 " clip-rule="nonzero"/></clipPath><clipPath id="cb690ce8c8"><path d="M 62 10.863281 L 99.308594 10.863281 L 99.308594 48 L 62 48 Z M 62 10.863281 " clip-rule="nonzero"/></clipPath><clipPath id="04bb5b8368"><path d="M 73 11 L 99.308594 11 L 99.308594 48 L 73 48 Z M 73 11 " clip-rule="nonzero"/></clipPath><clipPath id="9e60697c53"><path d="M 34 39 L 94 39 L 94 99.714844 L 34 99.714844 Z M 34 39 " clip-rule="nonzero"/></clipPath><clipPath id="694249a810"><path d="M 64 76 L 94 76 L 94 99.714844 L 64 99.714844 Z M 64 76 " clip-rule="nonzero"/></clipPath></defs><g clip-path="url(#6238d8a420)"><path fill="#45dea6" d="M 29.519531 10.957031 C 39.632812 10.957031 47.832031 19.164062 47.832031 29.285156 C 47.832031 39.410156 39.632812 47.617188 29.519531 47.617188 C 19.40625 47.617188 11.207031 39.410156 11.207031 29.285156 C 11.207031 19.164062 19.40625 10.957031 29.519531 10.957031 Z M 29.519531 10.957031 " fill-opacity="1" fill-rule="evenodd"/></g><path fill="#e5e9f7" d="M 18.859375 30.636719 C 18.019531 29.605469 18.179688 28.0625 19.210938 27.226562 C 20.246094 26.382812 21.78125 26.542969 22.621094 27.578125 L 25.777344 31.46875 C 25.964844 31.695312 26.21875 31.816406 26.511719 31.816406 C 26.804688 31.816406 27.058594 31.695312 27.242188 31.46875 L 28.960938 29.351562 L 30.449219 27.519531 L 34.71875 22.261719 C 35.554688 21.226562 37.09375 21.066406 38.125 21.90625 C 39.160156 22.746094 39.320312 24.285156 38.480469 25.320312 L 34.210938 30.578125 L 32.722656 32.410156 L 28.457031 37.667969 C 28.328125 37.824219 28.1875 37.960938 28.03125 38.074219 C 26.957031 38.894531 25.484375 38.800781 24.617188 37.730469 Z M 18.859375 30.636719 " fill-opacity="1" fill-rule="evenodd"/><g clip-path="url(#cb690ce8c8)"><path fill="#f14b4e" d="M 80.992188 10.957031 C 91.105469 10.957031 99.304688 19.164062 99.304688 29.285156 C 99.304688 39.410156 91.105469 47.617188 80.992188 47.617188 C 70.875 47.617188 62.675781 39.410156 62.675781 29.285156 C 62.675781 19.164062 70.875 10.957031 80.992188 10.957031 Z M 80.992188 10.957031 " fill-opacity="1" fill-rule="evenodd"/></g><path fill="#e5e9f7" d="M 84.9375 21.902344 C 85.875 20.957031 87.421875 20.949219 88.367188 21.882812 C 89.3125 22.820312 89.320312 24.367188 88.382812 25.316406 L 85.144531 28.589844 C 84.734375 29.007812 84.734375 29.679688 85.144531 30.097656 L 88.457031 33.445312 C 89.175781 34.175781 89.285156 35.277344 88.71875 36.132812 L 88.605469 36.308594 C 87.847656 37.457031 86.390625 37.695312 85.238281 36.988281 C 85.074219 36.886719 84.917969 36.765625 84.777344 36.625 L 81.75 33.5625 C 81.542969 33.351562 81.285156 33.246094 80.988281 33.246094 C 80.691406 33.246094 80.4375 33.351562 80.230469 33.5625 L 77.199219 36.625 C 77.058594 36.765625 76.90625 36.886719 76.742188 36.988281 C 75.589844 37.695312 74.132812 37.457031 73.375 36.308594 L 73.257812 36.132812 C 72.695312 35.277344 72.800781 34.175781 73.523438 33.445312 L 76.832031 30.097656 C 77.246094 29.679688 77.246094 29.007812 76.832031 28.589844 L 73.597656 25.316406 C 72.660156 24.367188 72.667969 22.820312 73.613281 21.882812 C 74.558594 20.949219 76.105469 20.957031 77.039062 21.902344 L 80.230469 25.125 C 80.4375 25.335938 80.691406 25.445312 80.988281 25.445312 C 81.285156 25.445312 81.542969 25.335938 81.75 25.125 Z M 84.9375 21.902344 " fill-opacity="1" fill-rule="evenodd"/><g clip-path="url(#04bb5b8368)"><path fill="#cc2a2e" d="M 96.902344 28.339844 C 96.902344 38.460938 88.703125 46.671875 78.589844 46.671875 C 76.671875 46.671875 74.824219 46.375 73.085938 45.828125 C 75.480469 46.976562 78.160156 47.617188 80.992188 47.617188 C 91.105469 47.617188 99.304688 39.410156 99.304688 29.285156 C 99.304688 21.082031 93.917969 14.136719 86.492188 11.796875 C 92.652344 14.75 96.902344 21.046875 96.902344 28.339844 Z M 96.902344 28.339844 " fill-opacity="1" fill-rule="evenodd"/></g><path fill="#1bbd86" d="M 45.425781 28.339844 C 45.425781 38.460938 37.226562 46.671875 27.113281 46.671875 C 25.195312 46.671875 23.347656 46.375 21.609375 45.828125 C 24 46.976562 26.683594 47.617188 29.511719 47.617188 C 39.625 47.617188 47.824219 39.410156 47.824219 29.285156 C 47.824219 21.082031 42.4375 14.136719 35.015625 11.796875 C 41.171875 14.75 45.425781 21.046875 45.425781 28.339844 Z M 45.425781 28.339844 " fill-opacity="1" fill-rule="evenodd"/><path fill="#ffddcf" d="M 49.984375 82.957031 L 65.390625 90.921875 L 88.609375 77.503906 C 89.242188 75.753906 89.6875 74 90.035156 72.59375 C 90.4375 71.085938 90.117188 69.414062 89.078125 67.582031 L 86.195312 62.585938 L 80.375 52.492188 C 79.210938 50.476562 76.613281 49.777344 74.601562 50.941406 C 72.589844 52.105469 71.894531 54.691406 73.042969 56.707031 L 70.996094 53.164062 C 69.765625 51.027344 67.011719 50.285156 64.875 51.519531 C 62.742188 52.753906 62.003906 55.511719 63.234375 57.648438 L 61.6875 54.96875 C 60.457031 52.832031 57.699219 52.089844 55.566406 53.324219 C 53.429688 54.558594 52.691406 57.316406 53.925781 59.453125 L 44.128906 42.46875 C 42.894531 40.332031 40.140625 39.59375 38.003906 40.828125 C 35.871094 42.0625 35.132812 44.816406 36.363281 46.953125 L 46.855469 65.144531 L 44.183594 75.121094 C 43.660156 78.675781 45.59375 81.285156 49.984375 82.957031 Z M 49.984375 82.957031 " fill-opacity="1" fill-rule="evenodd"/><path fill="#6ac8eb" d="M 65.390625 90.921875 L 88.609375 77.503906 L 92.894531 84.929688 L 69.671875 98.347656 Z M 65.390625 90.921875 " fill-opacity="1" fill-rule="evenodd"/><g clip-path="url(#9e60697c53)"><path fill="#ffcbbe" d="M 47.777344 64.554688 C 47.800781 64.59375 47.824219 64.628906 47.84375 64.667969 L 53.007812 73.628906 C 53.308594 74.148438 53.128906 74.816406 52.605469 75.117188 C 52.085938 75.417969 51.417969 75.238281 51.117188 74.714844 L 47.230469 67.976562 L 45.257812 75.339844 C 45.054688 76.796875 45.34375 78.046875 46.117188 79.09375 C 46.957031 80.226562 48.375 81.171875 50.371094 81.929688 C 50.410156 81.945312 50.449219 81.964844 50.484375 81.984375 L 50.492188 81.988281 L 50.5 81.988281 L 65.359375 89.675781 L 87.714844 76.757812 C 87.976562 76.003906 88.203125 75.246094 88.40625 74.515625 C 88.621094 73.753906 88.800781 73.042969 88.957031 72.402344 C 88.960938 72.371094 88.96875 72.339844 88.976562 72.3125 C 89.136719 71.71875 89.148438 71.082031 89.023438 70.410156 C 88.886719 69.703125 88.59375 68.945312 88.140625 68.144531 L 88.132812 68.128906 L 85.25 63.132812 L 85.253906 63.132812 L 85.25 63.128906 L 79.433594 53.046875 L 79.429688 53.035156 C 79 52.292969 78.304688 51.792969 77.523438 51.582031 C 76.746094 51.375 75.894531 51.460938 75.148438 51.886719 L 75.144531 51.890625 C 74.402344 52.320312 73.898438 53.015625 73.691406 53.796875 C 73.488281 54.558594 73.5625 55.394531 73.96875 56.128906 L 73.996094 56.175781 L 74.382812 56.84375 C 74.683594 57.363281 74.507812 58.035156 73.984375 58.335938 C 73.460938 58.640625 72.792969 58.460938 72.492188 57.9375 L 72.105469 57.273438 C 72.09375 57.25 72.082031 57.230469 72.074219 57.207031 L 70.050781 53.707031 C 69.589844 52.902344 68.835938 52.359375 67.992188 52.136719 C 67.152344 51.910156 66.226562 52.003906 65.421875 52.464844 C 64.617188 52.933594 64.074219 53.6875 63.847656 54.527344 C 63.625 55.371094 63.714844 56.296875 64.179688 57.101562 L 65.402344 59.21875 C 65.703125 59.742188 65.527344 60.410156 65.003906 60.710938 C 64.480469 61.015625 63.8125 60.835938 63.511719 60.316406 L 62.289062 58.195312 L 60.742188 55.515625 L 60.714844 55.460938 C 60.246094 54.683594 59.507812 54.160156 58.683594 53.941406 C 57.84375 53.714844 56.917969 53.808594 56.113281 54.269531 L 56.101562 54.277344 C 55.300781 54.742188 54.761719 55.496094 54.539062 56.332031 C 54.3125 57.175781 54.40625 58.097656 54.871094 58.90625 L 54.886719 58.929688 L 56.457031 61.65625 C 56.757812 62.179688 56.582031 62.847656 56.058594 63.148438 C 55.535156 63.453125 54.867188 63.273438 54.566406 62.75 L 53.015625 60.066406 C 52.988281 60.023438 52.960938 59.980469 52.9375 59.933594 L 43.183594 43.015625 L 43.152344 42.964844 C 42.6875 42.1875 41.945312 41.664062 41.121094 41.441406 C 40.28125 41.214844 39.359375 41.308594 38.554688 41.773438 C 37.746094 42.238281 37.203125 42.992188 36.980469 43.835938 C 36.753906 44.675781 36.847656 45.601562 37.308594 46.40625 Z M 43.128906 74.839844 L 45.683594 65.296875 L 35.417969 47.503906 C 34.652344 46.171875 34.496094 44.648438 34.867188 43.269531 C 35.234375 41.890625 36.128906 40.648438 37.457031 39.878906 C 38.789062 39.109375 40.308594 38.957031 41.6875 39.324219 C 43.042969 39.6875 44.265625 40.5625 45.035156 41.859375 L 45.074219 41.921875 L 52.660156 55.074219 C 53.105469 54 53.882812 53.058594 54.945312 52.421875 C 54.992188 52.386719 55.042969 52.359375 55.097656 52.332031 C 56.410156 51.605469 57.898438 51.460938 59.246094 51.824219 C 60.25 52.09375 61.179688 52.640625 61.90625 53.433594 C 62.34375 52.269531 63.171875 51.242188 64.328125 50.574219 C 65.660156 49.804688 67.179688 49.648438 68.558594 50.019531 C 69.878906 50.375 71.074219 51.214844 71.847656 52.460938 C 72.273438 51.496094 72.988281 50.644531 73.953125 50.058594 C 74.015625 50.011719 74.085938 49.972656 74.15625 49.941406 C 75.398438 49.257812 76.808594 49.125 78.089844 49.46875 C 79.367188 49.808594 80.523438 50.628906 81.257812 51.84375 C 81.304688 51.90625 81.339844 51.96875 81.371094 52.035156 L 87.140625 62.039062 L 87.140625 62.035156 L 90.023438 67.03125 L 90.046875 67.074219 C 90.617188 68.085938 90.992188 69.0625 91.171875 70.007812 C 91.359375 71.003906 91.335938 71.960938 91.089844 72.875 L 91.078125 72.914062 C 90.914062 73.585938 90.726562 74.332031 90.511719 75.101562 C 90.308594 75.832031 90.074219 76.605469 89.804688 77.394531 L 93.839844 84.386719 C 94.140625 84.910156 93.957031 85.578125 93.4375 85.878906 L 70.277344 99.261719 L 70.222656 99.296875 C 69.699219 99.597656 69.03125 99.421875 68.726562 98.898438 L 64.601562 91.746094 L 49.535156 83.953125 C 47.171875 83.046875 45.449219 81.859375 44.363281 80.394531 C 43.214844 78.847656 42.796875 77.035156 43.101562 74.964844 C 43.109375 74.921875 43.117188 74.882812 43.128906 74.839844 Z M 66.882812 91.324219 L 88.210938 78.996094 L 91.402344 84.53125 L 70.074219 96.855469 Z M 66.882812 91.324219 " fill-opacity="1" fill-rule="evenodd"/></g><g clip-path="url(#694249a810)"><path fill="#20a5d5" d="M 66.882812 91.324219 L 88.210938 78.996094 L 89.15625 78.449219 L 90.105469 77.902344 L 89.558594 76.957031 C 89.25 76.421875 88.585938 76.246094 88.011719 76.59375 L 64.847656 89.976562 C 64.328125 90.277344 64.148438 90.945312 64.445312 91.46875 L 64.992188 92.414062 L 65.9375 91.871094 Z M 91.402344 84.53125 L 88.210938 78.996094 L 89.15625 78.449219 L 90.105469 77.902344 L 93.839844 84.386719 C 94.140625 84.910156 93.957031 85.578125 93.4375 85.878906 L 70.277344 99.261719 C 69.699219 99.609375 69.035156 99.433594 68.726562 98.898438 L 64.988281 92.417969 L 65.9375 91.871094 L 66.882812 91.324219 L 70.074219 96.855469 Z M 91.402344 84.53125 " fill-opacity="1" fill-rule="evenodd"/></g><path fill="#c5cff2" d="M 30.976562 33.113281 L 26.707031 38.371094 C 26.636719 38.460938 26.558594 38.542969 26.476562 38.621094 C 27.015625 38.617188 27.5625 38.433594 28.03125 38.074219 C 28.1875 37.960938 28.328125 37.824219 28.457031 37.667969 L 32.722656 32.410156 L 34.210938 30.578125 L 38.480469 25.320312 C 39.320312 24.285156 39.160156 22.746094 38.125 21.90625 C 37.160156 21.121094 35.753906 21.210938 34.890625 22.070312 C 35.414062 22.078125 35.941406 22.253906 36.378906 22.609375 C 37.414062 23.449219 37.570312 24.988281 36.730469 26.023438 L 32.464844 31.28125 Z M 24.125 32.269531 L 24.117188 32.261719 C 24.085938 32.234375 24.058594 32.203125 24.03125 32.171875 L 20.875 28.28125 C 20.40625 27.703125 19.722656 27.398438 19.03125 27.386719 C 19.085938 27.332031 19.148438 27.277344 19.210938 27.222656 C 20.242188 26.382812 21.78125 26.542969 22.621094 27.578125 L 25.777344 31.46875 C 25.828125 31.527344 25.878906 31.582031 25.9375 31.625 C 26.101562 31.75 26.292969 31.816406 26.511719 31.816406 C 26.703125 31.816406 26.875 31.765625 27.023438 31.667969 C 25.886719 32.886719 24.921875 33.089844 24.125 32.269531 Z M 24.125 32.269531 Z M 24.125 32.269531 " fill-opacity="1" fill-rule="evenodd"/><path fill="#c5cff2" d="M 86.832031 21.195312 C 87.390625 21.234375 87.941406 21.460938 88.367188 21.882812 C 89.3125 22.820312 89.320312 24.367188 88.382812 25.316406 L 85.144531 28.589844 C 84.734375 29.007812 84.734375 29.679688 85.144531 30.097656 L 88.457031 33.445312 C 89.175781 34.175781 89.285156 35.277344 88.71875 36.132812 L 88.605469 36.308594 C 87.890625 37.390625 86.5625 37.664062 85.449219 37.105469 C 86.289062 37.171875 87.125 36.8125 87.640625 36.035156 L 87.753906 35.859375 C 88.320312 35.003906 88.210938 33.898438 87.492188 33.171875 L 84.179688 29.824219 C 83.769531 29.40625 83.769531 28.734375 84.179688 28.316406 L 87.417969 25.042969 C 88.355469 24.09375 88.347656 22.546875 87.402344 21.609375 C 87.230469 21.441406 87.035156 21.300781 86.832031 21.195312 Z M 80.765625 33.265625 C 80.5625 33.308594 80.382812 33.40625 80.226562 33.5625 L 77.199219 36.625 C 77.058594 36.765625 76.90625 36.886719 76.742188 36.988281 C 75.941406 37.476562 75 37.515625 74.242188 37.105469 C 74.757812 37.140625 75.292969 37.007812 75.777344 36.710938 C 75.941406 36.613281 76.09375 36.492188 76.234375 36.347656 L 79.261719 33.289062 C 79.472656 33.078125 79.726562 32.96875 80.023438 32.96875 C 80.3125 32.96875 80.558594 33.070312 80.765625 33.265625 Z M 75.492188 21.195312 C 76.058594 21.234375 76.613281 21.46875 77.042969 21.902344 L 80.230469 25.125 L 80.25 25.148438 C 80.179688 25.160156 80.101562 25.167969 80.023438 25.167969 C 79.726562 25.167969 79.472656 25.0625 79.261719 24.851562 L 76.074219 21.628906 C 75.898438 21.449219 75.703125 21.304688 75.492188 21.195312 Z M 75.492188 21.195312 " fill-opacity="1" fill-rule="evenodd"/></svg>