<svg xmlns="http://www.w3.org/2000/svg" xmlns:xlink="http://www.w3.org/1999/xlink" width="150" zoomAndPan="magnify" viewBox="0 0 112.5 112.499997" height="150" preserveAspectRatio="xMidYMid meet" version="1.0"><defs><clipPath id="6a9fd35133"><path d="M 59 25.9375 L 106.226562 25.9375 L 106.226562 73 L 59 73 Z M 59 25.9375 " clip-rule="nonzero"/></clipPath><clipPath id="a7845216ae"><path d="M 85 78 L 95 78 L 95 91.644531 L 85 91.644531 Z M 85 78 " clip-rule="nonzero"/></clipPath><clipPath id="6dd365163b"><path d="M 72 78 L 83 78 L 83 91.644531 L 72 91.644531 Z M 72 78 " clip-rule="nonzero"/></clipPath><clipPath id="c0931bc49a"><path d="M 5.425781 25.9375 L 53 25.9375 L 53 73 L 5.425781 73 Z M 5.425781 25.9375 " clip-rule="nonzero"/></clipPath><clipPath id="427a1a05ca"><path d="M 5.425781 25.9375 L 52 25.9375 L 52 73 L 5.425781 73 Z M 5.425781 25.9375 " clip-rule="nonzero"/></clipPath><clipPath id="4d9e24a60e"><path d="M 11 78 L 24 78 L 24 91.644531 L 11 91.644531 Z M 11 78 " clip-rule="nonzero"/></clipPath><clipPath id="b8a4faabbf"><path d="M 25 78 L 34 78 L 34 91.644531 L 25 91.644531 Z M 25 78 " clip-rule="nonzero"/></clipPath><clipPath id="e245d613ce"><path d="M 36 78 L 46 78 L 46 91.644531 L 36 91.644531 Z M 36 78 " clip-rule="nonzero"/></clipPath></defs><g clip-path="url(#6a9fd35133)"><path fill="#eef5f6" d="M 101.335938 72.488281 L 64.523438 72.488281 C 61.824219 72.488281 59.632812 70.300781 59.632812 67.601562 L 59.632812 30.828125 C 59.632812 28.128906 61.824219 25.941406 64.523438 25.941406 L 101.335938 25.941406 C 104.039062 25.941406 106.230469 28.128906 106.230469 30.828125 L 106.230469 67.601562 C 106.230469 70.300781 104.039062 72.488281 101.335938 72.488281 Z M 101.335938 72.488281 " fill-opacity="1" fill-rule="nonzero"/><path fill="#deecf1" d="M 76.808594 68.894531 C 72.78125 68.894531 69.515625 65.632812 69.515625 61.609375 L 69.515625 27.234375 C 69.515625 26.785156 69.578125 26.351562 69.691406 25.941406 L 64.523438 25.941406 C 61.824219 25.941406 59.632812 28.128906 59.632812 30.828125 L 59.632812 67.601562 C 59.632812 70.300781 61.824219 72.488281 64.523438 72.488281 L 101.335938 72.488281 C 103.589844 72.488281 105.488281 70.964844 106.054688 68.894531 Z M 76.808594 68.894531 " fill-opacity="1" fill-rule="nonzero"/></g><path fill="#f58a97" d="M 65.71875 65.652344 L 65.71875 32.777344 C 65.71875 32.359375 66.058594 32.019531 66.476562 32.019531 L 99.386719 32.019531 C 99.804688 32.019531 100.144531 32.359375 100.144531 32.777344 L 100.144531 65.652344 C 100.144531 66.070312 99.804688 66.410156 99.386719 66.410156 L 66.476562 66.410156 C 66.058594 66.410156 65.71875 66.070312 65.71875 65.652344 Z M 65.71875 65.652344 " fill-opacity="1" fill-rule="nonzero"/><path fill="#f07281" d="M 66.476562 66.410156 L 71.328125 66.410156 C 70.199219 65.128906 69.515625 63.449219 69.515625 61.609375 L 69.515625 32.019531 L 66.476562 32.019531 C 66.058594 32.019531 65.714844 32.359375 65.714844 32.777344 L 65.714844 65.652344 C 65.71875 66.070312 66.058594 66.410156 66.476562 66.410156 Z M 66.476562 66.410156 " fill-opacity="1" fill-rule="nonzero"/><path fill="#f5f8f9" d="M 87.972656 49.214844 L 92.960938 44.230469 C 93.410156 43.78125 93.410156 43.054688 92.960938 42.609375 L 89.546875 39.195312 C 89.097656 38.746094 88.367188 38.746094 87.921875 39.195312 L 82.929688 44.179688 L 77.941406 39.195312 C 77.492188 38.746094 76.765625 38.746094 76.316406 39.195312 L 72.898438 42.609375 C 72.453125 43.054688 72.453125 43.78125 72.898438 44.230469 L 77.890625 49.214844 L 72.898438 54.199219 C 72.453125 54.648438 72.453125 55.375 72.898438 55.820312 L 76.316406 59.234375 C 76.765625 59.683594 77.492188 59.683594 77.941406 59.234375 L 82.929688 54.25 L 87.921875 59.234375 C 88.367188 59.683594 89.097656 59.683594 89.546875 59.234375 L 92.960938 55.820312 C 93.410156 55.375 93.410156 54.648438 92.960938 54.199219 Z M 87.972656 49.214844 " fill-opacity="1" fill-rule="nonzero"/><g clip-path="url(#a7845216ae)"><path fill="#f58a97" d="M 90.054688 91.652344 C 87.429688 91.652344 85.292969 89.515625 85.292969 86.894531 L 85.292969 83.28125 C 85.292969 80.660156 87.429688 78.523438 90.054688 78.523438 C 92.683594 78.523438 94.820312 80.660156 94.820312 83.28125 L 94.820312 86.894531 C 94.820312 89.515625 92.683594 91.652344 90.054688 91.652344 Z M 90.054688 81.5625 C 89.105469 81.5625 88.335938 82.335938 88.335938 83.28125 L 88.335938 86.894531 C 88.335938 87.839844 89.105469 88.613281 90.054688 88.613281 C 91.003906 88.613281 91.777344 87.839844 91.777344 86.894531 L 91.777344 83.28125 C 91.777344 82.335938 91.003906 81.5625 90.054688 81.5625 Z M 90.054688 81.5625 " fill-opacity="1" fill-rule="nonzero"/></g><g clip-path="url(#6dd365163b)"><path fill="#f58a97" d="M 80.71875 91.652344 C 80.214844 91.652344 79.730469 91.398438 79.445312 90.960938 L 75.675781 85.167969 L 75.675781 90.132812 C 75.675781 90.972656 74.996094 91.652344 74.15625 91.652344 C 73.316406 91.652344 72.632812 90.972656 72.632812 90.132812 L 72.632812 80.042969 C 72.632812 79.371094 73.078125 78.777344 73.722656 78.585938 C 74.371094 78.394531 75.0625 78.652344 75.429688 79.214844 L 79.199219 85.007812 L 79.199219 80.042969 C 79.199219 79.203125 79.878906 78.523438 80.71875 78.523438 C 81.558594 78.523438 82.242188 79.203125 82.242188 80.042969 L 82.242188 90.132812 C 82.242188 90.804688 81.796875 91.398438 81.152344 91.589844 C 81.007812 91.632812 80.863281 91.652344 80.71875 91.652344 Z M 80.71875 91.652344 " fill-opacity="1" fill-rule="nonzero"/></g><g clip-path="url(#c0931bc49a)"><path fill="#eef5f6" d="M 10.328125 72.488281 L 47.140625 72.488281 C 49.839844 72.488281 52.03125 70.300781 52.03125 67.601562 L 52.03125 30.828125 C 52.03125 28.128906 49.839844 25.941406 47.140625 25.941406 L 10.328125 25.941406 C 7.625 25.941406 5.433594 28.128906 5.433594 30.828125 L 5.433594 67.601562 C 5.433594 70.300781 7.625 72.488281 10.328125 72.488281 Z M 10.328125 72.488281 " fill-opacity="1" fill-rule="nonzero"/></g><g clip-path="url(#427a1a05ca)"><path fill="#deecf1" d="M 22.660156 68.894531 C 18.605469 68.894531 15.320312 65.609375 15.320312 61.5625 L 15.320312 27.234375 C 15.320312 26.785156 15.378906 26.351562 15.492188 25.941406 L 10.328125 25.941406 C 7.625 25.941406 5.433594 28.128906 5.433594 30.828125 L 5.433594 67.601562 C 5.433594 70.300781 7.625 72.488281 10.328125 72.488281 L 47.140625 72.488281 C 49.394531 72.488281 51.289062 70.964844 51.859375 68.894531 Z M 22.660156 68.894531 " fill-opacity="1" fill-rule="nonzero"/></g><path fill="#ade194" d="M 45.945312 65.757812 L 45.945312 32.671875 C 45.945312 32.3125 45.652344 32.019531 45.292969 32.019531 L 12.171875 32.019531 C 11.8125 32.019531 11.519531 32.3125 11.519531 32.671875 L 11.519531 65.757812 C 11.519531 66.117188 11.8125 66.410156 12.171875 66.410156 L 45.292969 66.410156 C 45.652344 66.410156 45.945312 66.117188 45.945312 65.757812 Z M 45.945312 65.757812 " fill-opacity="1" fill-rule="nonzero"/><path fill="#97da7b" d="M 12.171875 66.410156 L 17.15625 66.410156 C 16.011719 65.117188 15.320312 63.421875 15.320312 61.5625 L 15.320312 32.019531 L 12.171875 32.019531 C 11.8125 32.019531 11.519531 32.3125 11.519531 32.671875 L 11.519531 65.757812 C 11.519531 66.117188 11.8125 66.410156 12.171875 66.410156 Z M 12.171875 66.410156 " fill-opacity="1" fill-rule="nonzero"/><path fill="#f5f8f9" d="M 22.457031 58.273438 L 26.710938 58.273438 C 26.910156 58.273438 27.101562 58.195312 27.242188 58.054688 L 40.488281 44.871094 C 40.71875 44.644531 40.722656 44.273438 40.496094 44.039062 L 36.542969 39.925781 C 36.3125 39.6875 35.929688 39.683594 35.695312 39.917969 L 24.878906 50.683594 L 22.167969 47.269531 C 22.078125 47.160156 21.921875 47.140625 21.808594 47.226562 L 16.742188 51.109375 C 16.632812 51.195312 16.609375 51.359375 16.699219 51.472656 C 16.699219 51.472656 20.839844 56.707031 21.867188 57.992188 C 22.011719 58.171875 22.226562 58.273438 22.457031 58.273438 Z M 22.457031 58.273438 " fill-opacity="1" fill-rule="nonzero"/><g clip-path="url(#4d9e24a60e)"><path fill="#ade194" d="M 20.550781 79.179688 L 17.589844 82.140625 L 14.410156 78.96875 C 13.816406 78.375 12.855469 78.375 12.257812 78.96875 C 11.664062 79.5625 11.664062 80.523438 12.257812 81.117188 L 16.066406 84.921875 L 16.066406 90.132812 C 16.066406 90.972656 16.75 91.652344 17.589844 91.652344 C 18.429688 91.652344 19.109375 90.972656 19.109375 90.132812 L 19.109375 84.921875 L 22.703125 81.328125 C 23.296875 80.738281 23.296875 79.773438 22.703125 79.179688 C 22.109375 78.585938 21.148438 78.585938 20.550781 79.179688 Z M 20.550781 79.179688 " fill-opacity="1" fill-rule="nonzero"/></g><g clip-path="url(#b8a4faabbf)"><path fill="#ade194" d="M 32.078125 81.5625 C 32.917969 81.5625 33.597656 80.882812 33.597656 80.042969 C 33.597656 79.203125 32.917969 78.523438 32.078125 78.523438 L 26.808594 78.523438 C 25.96875 78.523438 25.289062 79.203125 25.289062 80.042969 L 25.289062 90.132812 C 25.289062 90.972656 25.96875 91.652344 26.808594 91.652344 L 32.078125 91.652344 C 32.917969 91.652344 33.597656 90.972656 33.597656 90.132812 C 33.597656 89.292969 32.917969 88.613281 32.078125 88.613281 L 28.328125 88.613281 L 28.328125 86.605469 L 30.050781 86.605469 C 30.890625 86.605469 31.574219 85.925781 31.574219 85.085938 C 31.574219 84.25 30.890625 83.566406 30.050781 83.566406 L 28.328125 83.566406 L 28.328125 81.5625 Z M 32.078125 81.5625 " fill-opacity="1" fill-rule="nonzero"/></g><g clip-path="url(#e245d613ce)"><path fill="#ade194" d="M 41.445312 83.566406 L 40.550781 83.566406 C 39.996094 83.566406 39.546875 83.117188 39.546875 82.566406 C 39.546875 82.011719 39.996094 81.5625 40.550781 81.5625 L 43.363281 81.5625 C 44.203125 81.5625 44.886719 80.882812 44.886719 80.042969 C 44.886719 79.203125 44.203125 78.523438 43.363281 78.523438 L 40.550781 78.523438 C 38.320312 78.523438 36.503906 80.335938 36.503906 82.566406 C 36.503906 84.792969 38.320312 86.605469 40.550781 86.605469 L 41.445312 86.605469 C 42 86.605469 42.449219 87.058594 42.449219 87.609375 C 42.449219 88.164062 42 88.613281 41.445312 88.613281 L 38.027344 88.613281 C 37.1875 88.613281 36.503906 89.292969 36.503906 90.132812 C 36.503906 90.972656 37.1875 91.652344 38.027344 91.652344 L 41.445312 91.652344 C 43.679688 91.652344 45.492188 89.839844 45.492188 87.609375 C 45.492188 85.382812 43.679688 83.566406 41.445312 83.566406 Z M 41.445312 83.566406 " fill-opacity="1" fill-rule="nonzero"/></g></svg>