<svg xmlns="http://www.w3.org/2000/svg" xmlns:xlink="http://www.w3.org/1999/xlink" width="150" zoomAndPan="magnify" viewBox="0 0 112.5 112.499997" height="150" preserveAspectRatio="xMidYMid meet" version="1.0"><defs><clipPath id="2ccafbdb42"><path d="M 12 8.550781 L 106.777344 8.550781 L 106.777344 101 L 12 101 Z M 12 8.550781 " clip-rule="nonzero"/></clipPath><clipPath id="211b818e82"><path d="M 38 8.550781 L 49 8.550781 L 49 12 L 38 12 Z M 38 8.550781 " clip-rule="nonzero"/></clipPath><clipPath id="02d8f9fa7b"><path d="M 11.199219 42 L 31 42 L 31 92 L 11.199219 92 Z M 11.199219 42 " clip-rule="nonzero"/></clipPath><clipPath id="29bcb5aead"><path d="M 88 61 L 106.777344 61 L 106.777344 92 L 88 92 Z M 88 61 " clip-rule="nonzero"/></clipPath></defs><path fill="#f7bfd5" d="M 70.871094 31.648438 L 71.3125 32.546875 C 71.554688 33.039062 72.023438 33.378906 72.5625 33.457031 L 73.554688 33.601562 C 74.914062 33.800781 75.457031 35.476562 74.472656 36.4375 L 73.757812 37.136719 C 73.363281 37.519531 73.1875 38.066406 73.277344 38.605469 L 73.449219 39.59375 C 73.679688 40.953125 72.257812 41.988281 71.039062 41.347656 L 70.152344 40.878906 C 69.671875 40.625 69.09375 40.625 68.609375 40.878906 L 67.722656 41.347656 C 66.507812 41.988281 65.082031 40.953125 65.316406 39.59375 L 65.484375 38.605469 C 65.578125 38.066406 65.398438 37.515625 65.007812 37.136719 L 64.292969 36.4375 C 63.304688 35.476562 63.851562 33.800781 65.210938 33.601562 L 66.203125 33.457031 C 66.742188 33.378906 67.207031 33.039062 67.449219 32.546875 L 67.894531 31.648438 C 68.503906 30.414062 70.261719 30.414062 70.871094 31.648438 Z M 70.871094 31.648438 " fill-opacity="1" fill-rule="nonzero"/><path fill="#fff0a6" d="M 55.378906 45.992188 L 55.898438 47.046875 C 56.179688 47.625 56.730469 48.023438 57.363281 48.113281 L 58.523438 48.285156 C 60.121094 48.515625 60.757812 50.480469 59.601562 51.609375 L 58.761719 52.429688 C 58.304688 52.875 58.09375 53.523438 58.203125 54.152344 L 58.402344 55.3125 C 58.671875 56.90625 57.003906 58.121094 55.578125 57.367188 L 54.539062 56.820312 C 53.96875 56.523438 53.292969 56.523438 52.726562 56.820312 L 51.6875 57.367188 C 50.257812 58.121094 48.589844 56.90625 48.863281 55.3125 L 49.0625 54.152344 C 49.167969 53.523438 48.960938 52.875 48.5 52.429688 L 47.660156 51.609375 C 46.503906 50.480469 47.144531 48.515625 48.738281 48.285156 L 49.902344 48.113281 C 50.535156 48.023438 51.082031 47.625 51.367188 47.046875 L 51.886719 45.992188 C 52.601562 44.542969 54.664062 44.542969 55.378906 45.992188 Z M 55.378906 45.992188 " fill-opacity="1" fill-rule="nonzero"/><path fill="#d9eef6" d="M 74.273438 55.046875 L 74.570312 55.652344 C 74.734375 55.980469 75.046875 56.210938 75.410156 56.261719 L 76.074219 56.359375 C 76.992188 56.492188 77.355469 57.617188 76.695312 58.265625 L 76.210938 58.734375 C 75.949219 58.992188 75.828125 59.363281 75.890625 59.722656 L 76.003906 60.386719 C 76.160156 61.300781 75.203125 61.996094 74.386719 61.566406 L 73.789062 61.253906 C 73.464844 61.082031 73.078125 61.082031 72.753906 61.253906 L 72.15625 61.566406 C 71.339844 61.996094 70.382812 61.300781 70.539062 60.386719 L 70.652344 59.722656 C 70.714844 59.363281 70.59375 58.992188 70.332031 58.734375 L 69.847656 58.265625 C 69.1875 57.617188 69.550781 56.492188 70.46875 56.359375 L 71.132812 56.261719 C 71.496094 56.210938 71.8125 55.980469 71.972656 55.652344 L 72.269531 55.046875 C 72.679688 54.21875 73.863281 54.21875 74.273438 55.046875 Z M 74.273438 55.046875 " fill-opacity="1" fill-rule="nonzero"/><g clip-path="url(#2ccafbdb42)"><path fill="#b0b1d9" d="M 106.253906 63.332031 C 106.300781 62.75 106.019531 62.195312 105.429688 62.027344 C 104.890625 61.875 104.25 62.105469 104.023438 62.65625 C 101.238281 69.476562 94.058594 73.203125 87.109375 74.578125 C 78.527344 76.273438 69.324219 75.101562 61.269531 71.765625 C 53.332031 68.476562 46.050781 62.964844 41.789062 55.386719 C 37.75 48.207031 36.644531 39.535156 37.632812 31.4375 C 38.082031 27.769531 38.910156 24.238281 40.316406 20.867188 C 41.65625 17.652344 43.535156 14.566406 46.164062 12.371094 C 46.808594 11.828125 47.5 11.339844 48.222656 10.90625 C 48.449219 10.769531 48.589844 10.546875 48.652344 10.296875 C 48.660156 10.269531 48.667969 10.242188 48.671875 10.214844 C 48.679688 10.1875 48.6875 10.15625 48.691406 10.128906 C 48.707031 10.03125 48.714844 9.929688 48.703125 9.820312 C 48.691406 9.714844 48.65625 9.613281 48.617188 9.515625 C 48.601562 9.476562 48.585938 9.4375 48.566406 9.402344 C 48.5625 9.390625 48.554688 9.382812 48.550781 9.375 C 48.527344 9.335938 48.511719 9.296875 48.484375 9.261719 C 48.378906 9.109375 48.246094 9.003906 48.105469 8.925781 C 47.894531 8.800781 47.652344 8.738281 47.402344 8.78125 C 41.324219 9.777344 35.570312 12.339844 30.648438 16.035156 C 25.449219 19.933594 21.261719 25.019531 18.261719 30.777344 C 15.039062 36.953125 13.191406 43.855469 12.648438 50.792969 C 12.089844 57.910156 12.792969 65.203125 15.339844 71.90625 C 17.515625 77.632812 21.003906 82.800781 25.339844 87.109375 C 29.6875 91.4375 34.957031 94.871094 40.667969 97.097656 C 47.167969 99.632812 54.183594 100.683594 61.140625 100.34375 C 67.71875 100.027344 74.257812 98.4375 80.234375 95.671875 C 85.78125 93.109375 90.855469 89.578125 95.132812 85.203125 C 99.632812 80.601562 103.347656 74.921875 105.210938 68.722656 C 105.742188 66.960938 106.109375 65.167969 106.253906 63.332031 Z M 106.253906 63.332031 " fill-opacity="1" fill-rule="nonzero"/></g><path fill="#644394" d="M 14.398438 40.710938 C 15.671875 35.992188 17.734375 31.511719 20.457031 27.457031 C 23.1875 23.390625 26.574219 19.757812 30.453125 16.769531 C 32.636719 15.085938 34.980469 13.609375 37.4375 12.367188 C 37.820312 12.171875 37.484375 11.597656 37.101562 11.789062 C 32.679688 14.03125 28.648438 17.023438 25.1875 20.578125 C 21.730469 24.132812 18.832031 28.246094 16.675781 32.710938 C 15.464844 35.222656 14.484375 37.84375 13.757812 40.535156 C 13.648438 40.949219 14.289062 41.125 14.398438 40.710938 Z M 14.398438 40.710938 " fill-opacity="1" fill-rule="nonzero"/><g clip-path="url(#211b818e82)"><path fill="#644394" d="M 38.628906 11.8125 C 41.785156 10.449219 45.195312 9.855469 48.5625 9.269531 C 48.980469 9.199219 48.804688 8.554688 48.382812 8.628906 C 44.953125 9.226562 41.507812 9.851562 38.292969 11.238281 C 37.902344 11.40625 38.238281 11.980469 38.628906 11.8125 Z M 38.628906 11.8125 " fill-opacity="1" fill-rule="nonzero"/></g><path fill="#644394" d="M 38.378906 28.761719 C 38.632812 25.816406 39.71875 23.035156 40.941406 20.375 C 41.542969 19.070312 42.132812 17.730469 42.929688 16.53125 C 43.714844 15.347656 44.6875 14.269531 45.679688 13.257812 C 46.828125 12.082031 48.066406 11 49.382812 10.019531 C 49.722656 9.765625 49.390625 9.1875 49.046875 9.445312 C 46.707031 11.191406 44.539062 13.238281 42.785156 15.585938 C 41.855469 16.832031 41.199219 18.25 40.546875 19.65625 C 39.917969 21.007812 39.316406 22.375 38.824219 23.78125 C 38.261719 25.394531 37.859375 27.058594 37.714844 28.761719 C 37.675781 29.1875 38.339844 29.1875 38.378906 28.761719 Z M 38.378906 28.761719 " fill-opacity="1" fill-rule="nonzero"/><path fill="#644394" d="M 42.550781 55.941406 C 40.695312 53.316406 39.519531 50.304688 38.777344 47.1875 C 38.011719 43.984375 37.613281 40.652344 37.484375 37.359375 C 37.40625 35.328125 37.511719 33.285156 38.0625 31.316406 C 38.179688 30.902344 37.539062 30.726562 37.421875 31.140625 C 36.453125 34.597656 36.777344 38.277344 37.1875 41.792969 C 37.566406 45.074219 38.1875 48.359375 39.398438 51.441406 C 40.070312 53.148438 40.917969 54.777344 41.976562 56.277344 C 42.21875 56.625 42.796875 56.292969 42.550781 55.941406 Z M 42.550781 55.941406 " fill-opacity="1" fill-rule="nonzero"/><g clip-path="url(#02d8f9fa7b)"><path fill="#644394" d="M 30.140625 90.621094 C 27.085938 89.132812 24.644531 86.699219 22.632812 84 C 20.578125 81.238281 18.847656 78.214844 17.386719 75.097656 C 14.425781 68.773438 12.644531 61.847656 12.453125 54.851562 C 12.339844 50.917969 12.742188 46.984375 13.695312 43.164062 C 13.800781 42.75 13.160156 42.570312 13.054688 42.988281 C 11.328125 49.90625 11.414062 57.171875 12.945312 64.117188 C 14.46875 71.039062 17.402344 77.75 21.484375 83.542969 C 23.675781 86.648438 26.347656 89.511719 29.804688 91.195312 C 30.1875 91.382812 30.523438 90.808594 30.140625 90.621094 Z M 30.140625 90.621094 " fill-opacity="1" fill-rule="nonzero"/></g><path fill="#644394" d="M 32.910156 93.488281 C 39.203125 97.535156 46.519531 99.679688 53.921875 100.417969 C 61.210938 101.140625 68.839844 100.714844 75.867188 98.574219 C 79.761719 97.386719 83.480469 95.613281 86.726562 93.140625 C 87.0625 92.882812 86.730469 92.304688 86.390625 92.566406 C 80.628906 96.960938 73.492188 99.039062 66.363281 99.746094 C 59.074219 100.472656 51.5625 100 44.507812 97.964844 C 40.539062 96.820312 36.726562 95.152344 33.246094 92.914062 C 32.886719 92.683594 32.550781 93.257812 32.910156 93.488281 Z M 32.910156 93.488281 " fill-opacity="1" fill-rule="nonzero"/><g clip-path="url(#29bcb5aead)"><path fill="#644394" d="M 89.144531 91.632812 C 91.089844 90.394531 92.671875 88.621094 94.25 86.957031 C 95.839844 85.273438 97.378906 83.53125 98.800781 81.703125 C 101.628906 78.0625 104.015625 74.042969 105.390625 69.621094 C 106.164062 67.148438 106.597656 64.570312 106.613281 61.976562 C 106.613281 61.550781 105.949219 61.546875 105.949219 61.976562 C 105.890625 71.277344 100.449219 79.320312 94.34375 85.882812 C 92.648438 87.703125 90.921875 89.714844 88.808594 91.058594 C 88.449219 91.285156 88.78125 91.863281 89.144531 91.632812 Z M 89.144531 91.632812 " fill-opacity="1" fill-rule="nonzero"/></g><path fill="#644394" d="M 44.144531 59.589844 C 48.042969 63.851562 52.714844 67.398438 57.871094 70 C 63.363281 72.769531 69.371094 74.4375 75.496094 74.921875 C 79.078125 75.203125 82.683594 75.070312 86.238281 74.542969 C 86.660156 74.480469 86.480469 73.839844 86.0625 73.902344 C 79.832031 74.820312 73.429688 74.46875 67.335938 72.875 C 61.746094 71.414062 56.457031 68.894531 51.773438 65.507812 C 49.175781 63.632812 46.777344 61.484375 44.617188 59.117188 C 44.328125 58.800781 43.859375 59.273438 44.144531 59.589844 Z M 44.144531 59.589844 " fill-opacity="1" fill-rule="nonzero"/><path fill="#644394" d="M 89.476562 73.914062 C 94.597656 72.589844 99.292969 69.71875 102.828125 65.777344 C 103.832031 64.65625 104.738281 63.453125 105.542969 62.179688 C 105.769531 61.816406 105.195312 61.484375 104.96875 61.84375 C 102.210938 66.214844 98.15625 69.703125 93.453125 71.820312 C 92.113281 72.425781 90.71875 72.90625 89.296875 73.273438 C 88.882812 73.382812 89.058594 74.023438 89.476562 73.914062 Z M 89.476562 73.914062 " fill-opacity="1" fill-rule="nonzero"/><path fill="#644394" d="M 66.921875 33.460938 C 67.902344 33.027344 68.121094 31.875 68.984375 31.332031 C 70.144531 30.601562 70.664062 32.46875 71.144531 33.140625 C 71.765625 34.015625 72.644531 34.015625 73.617188 34.128906 C 74.214844 34.195312 74.878906 34.457031 74.859375 35.179688 C 74.847656 35.597656 74.5625 35.9375 74.292969 36.226562 C 73.75 36.804688 73.070312 37.339844 72.910156 38.160156 C 72.726562 39.082031 73.457031 40.476562 72.460938 41.070312 C 72.203125 41.226562 71.828125 41.339844 71.527344 41.324219 C 71.230469 41.308594 71.019531 41.121094 70.777344 40.976562 C 70.332031 40.710938 69.832031 40.558594 69.316406 40.539062 C 68.730469 40.511719 68.207031 40.707031 67.664062 40.890625 C 67.136719 41.070312 66.351562 41.285156 65.980469 40.710938 C 65.625 40.15625 65.941406 39.339844 65.929688 38.738281 C 65.921875 38.152344 65.691406 37.679688 65.34375 37.222656 C 64.957031 36.714844 64.519531 36.230469 64.375 35.589844 C 64.230469 34.941406 64.546875 34.097656 65.316406 34.097656 C 65.746094 34.097656 65.746094 33.429688 65.316406 33.429688 C 64.109375 33.433594 63.488281 34.695312 63.734375 35.769531 C 63.882812 36.414062 64.28125 36.945312 64.683594 37.457031 C 64.898438 37.726562 65.125 38.007812 65.21875 38.347656 C 65.324219 38.738281 65.238281 39.160156 65.199219 39.550781 C 65.140625 40.121094 65.148438 40.761719 65.53125 41.222656 C 65.902344 41.667969 66.488281 41.792969 67.042969 41.730469 C 67.773438 41.648438 68.421875 41.214844 69.164062 41.199219 C 69.535156 41.195312 69.90625 41.277344 70.242188 41.441406 C 70.527344 41.578125 70.769531 41.800781 71.074219 41.90625 C 72.148438 42.285156 73.507812 41.484375 73.640625 40.355469 C 73.710938 39.738281 73.496094 39.132812 73.53125 38.519531 C 73.566406 37.941406 73.9375 37.53125 74.324219 37.140625 C 75 36.457031 75.816406 35.648438 75.417969 34.59375 C 74.902344 33.222656 73.457031 33.671875 72.367188 33.292969 C 71.621094 33.035156 71.410156 32.195312 71.039062 31.582031 C 70.726562 31.070312 70.269531 30.59375 69.648438 30.515625 C 68.0625 30.320312 67.777344 32.359375 66.585938 32.886719 C 66.199219 33.058594 66.535156 33.632812 66.921875 33.460938 Z M 66.921875 33.460938 " fill-opacity="1" fill-rule="nonzero"/><path fill="#644394" d="M 53.867188 44.695312 C 53.234375 44.691406 52.535156 44.714844 52.027344 45.140625 C 51.441406 45.625 51.417969 46.449219 50.917969 46.996094 C 49.859375 48.15625 47.996094 47.390625 46.917969 48.566406 C 45.976562 49.601562 46.15625 51.136719 47.074219 52.121094 C 47.523438 52.601562 48.230469 52.996094 48.425781 53.660156 C 48.625 54.328125 48.230469 55.042969 48.113281 55.691406 C 48.007812 56.261719 48.058594 56.851562 48.46875 57.292969 C 48.921875 57.789062 49.675781 58.042969 50.324219 58.125 C 51.078125 58.222656 51.621094 57.960938 52.195312 57.507812 C 52.546875 57.230469 52.871094 57.035156 53.335938 57.058594 C 53.804688 57.078125 54.238281 57.257812 54.65625 57.453125 C 55.757812 57.96875 57.363281 58.652344 58.273438 57.40625 C 59.226562 56.101562 57.972656 54.289062 59.011719 53.074219 C 59.492188 52.515625 60.136719 52.121094 60.410156 51.402344 C 60.640625 50.792969 60.597656 50.089844 60.324219 49.5 C 60.023438 48.84375 59.460938 48.433594 58.789062 48.210938 C 58.03125 47.960938 57.199219 47.941406 56.535156 47.460938 C 56.1875 47.207031 55.855469 47.785156 56.199219 48.035156 C 57.152344 48.726562 58.632812 48.472656 59.441406 49.351562 C 59.824219 49.769531 59.976562 50.390625 59.855469 50.9375 C 59.714844 51.585938 59.171875 51.960938 58.730469 52.402344 C 58.320312 52.816406 58.035156 53.285156 57.957031 53.867188 C 57.867188 54.550781 58.03125 55.21875 58.023438 55.902344 C 58.019531 56.5625 57.8125 57.269531 57.078125 57.421875 C 56.394531 57.5625 55.734375 57.230469 55.132812 56.945312 C 54.542969 56.664062 53.925781 56.386719 53.261719 56.390625 C 52.648438 56.390625 52.191406 56.664062 51.726562 57.035156 C 51.070312 57.558594 50.410156 57.566406 49.644531 57.265625 C 48.96875 57.003906 48.621094 56.542969 48.765625 55.808594 C 48.980469 54.710938 49.464844 53.726562 48.660156 52.738281 C 48.304688 52.300781 47.824219 51.980469 47.457031 51.554688 C 46.988281 51.011719 46.800781 50.230469 47.074219 49.550781 C 47.695312 48 49.730469 48.667969 50.90625 47.878906 C 51.445312 47.515625 51.773438 47.007812 52.007812 46.417969 C 52.167969 46.011719 52.328125 45.636719 52.765625 45.476562 C 53.113281 45.351562 53.5 45.359375 53.867188 45.363281 C 54.292969 45.363281 54.296875 44.699219 53.867188 44.695312 Z M 53.867188 44.695312 " fill-opacity="1" fill-rule="nonzero"/><path fill="#644394" d="M 75.503906 55.867188 C 75.230469 55.117188 74.746094 54.390625 73.957031 54.121094 C 73.292969 53.894531 72.488281 54.054688 72.050781 54.625 C 71.835938 54.902344 71.746094 55.242188 71.582031 55.546875 C 71.34375 55.996094 70.941406 56.019531 70.492188 56.113281 C 69.800781 56.261719 69.289062 56.699219 69.175781 57.421875 C 69.066406 58.140625 69.382812 58.726562 69.898438 59.203125 C 70.210938 59.488281 70.515625 59.722656 70.527344 60.179688 C 70.539062 60.609375 70.394531 61.019531 70.523438 61.449219 C 70.765625 62.273438 71.628906 62.324219 72.300781 62.003906 C 72.640625 61.84375 72.953125 61.582031 73.347656 61.585938 C 73.738281 61.59375 74.125 61.816406 74.480469 61.960938 C 75.191406 62.25 76.046875 62.269531 76.449219 61.492188 C 76.617188 61.167969 76.652344 60.789062 76.597656 60.433594 C 76.535156 60.046875 76.035156 59.445312 76.460938 59.160156 C 76.816406 58.921875 76.484375 58.34375 76.128906 58.585938 C 75.886719 58.746094 75.710938 58.957031 75.636719 59.242188 C 75.542969 59.625 75.726562 59.90625 75.863281 60.246094 C 76.054688 60.730469 75.96875 61.523438 75.296875 61.5 C 74.683594 61.484375 74.148438 61.019531 73.535156 60.941406 C 73.25 60.902344 72.976562 60.941406 72.707031 61.050781 C 72.382812 61.183594 72.09375 61.421875 71.753906 61.507812 C 70.785156 61.757812 71.265625 60.34375 71.164062 59.84375 C 71.027344 59.199219 70.46875 58.914062 70.078125 58.445312 C 69.742188 58.039062 69.691406 57.3125 70.136719 56.957031 C 70.382812 56.761719 70.742188 56.75 71.035156 56.6875 C 71.34375 56.621094 71.648438 56.507812 71.875 56.28125 C 72.375 55.78125 72.34375 54.820312 73.175781 54.699219 C 74.023438 54.574219 74.605469 55.335938 74.863281 56.046875 C 75.007812 56.445312 75.648438 56.273438 75.503906 55.867188 Z M 75.503906 55.867188 " fill-opacity="1" fill-rule="nonzero"/><path fill="#644394" d="M 16.792969 58.308594 C 15.363281 51.074219 15.824219 43.511719 18.074219 36.496094 C 18.714844 34.511719 19.496094 32.578125 20.414062 30.703125 C 20.601562 30.320312 20.027344 29.984375 19.839844 30.371094 C 16.53125 37.113281 14.980469 44.6875 15.367188 52.191406 C 15.476562 54.304688 15.742188 56.410156 16.152344 58.484375 C 16.234375 58.902344 16.875 58.726562 16.792969 58.308594 Z M 16.792969 58.308594 " fill-opacity="1" fill-rule="nonzero"/><path fill="#644394" d="M 22.328125 28.320312 C 22.351562 28.164062 22.386719 28.011719 22.433594 27.859375 C 22.453125 27.785156 22.480469 27.710938 22.507812 27.636719 C 22.519531 27.597656 22.535156 27.5625 22.550781 27.523438 C 22.523438 27.59375 22.570312 27.480469 22.574219 27.46875 C 22.640625 27.324219 22.714844 27.183594 22.800781 27.050781 C 22.839844 26.984375 22.886719 26.917969 22.933594 26.855469 C 22.9375 26.84375 23.011719 26.746094 22.96875 26.800781 C 22.992188 26.773438 23.019531 26.742188 23.042969 26.710938 C 23.152344 26.578125 23.183594 26.371094 23.042969 26.238281 C 22.921875 26.128906 22.691406 26.097656 22.574219 26.238281 C 22.121094 26.789062 21.800781 27.441406 21.6875 28.144531 C 21.65625 28.316406 21.730469 28.511719 21.917969 28.554688 C 22.078125 28.589844 22.296875 28.503906 22.328125 28.320312 Z M 22.328125 28.320312 " fill-opacity="1" fill-rule="nonzero"/><path fill="#644394" d="M 27.199219 22.589844 C 27.777344 21.8125 28.417969 21.074219 29.101562 20.386719 C 29.226562 20.261719 29.226562 20.042969 29.101562 19.917969 C 28.972656 19.789062 28.757812 19.789062 28.632812 19.917969 C 27.90625 20.644531 27.238281 21.425781 26.625 22.253906 C 26.519531 22.398438 26.601562 22.625 26.746094 22.707031 C 26.914062 22.808594 27.09375 22.734375 27.199219 22.589844 Z M 27.199219 22.589844 " fill-opacity="1" fill-rule="nonzero"/><path fill="#644394" d="M 21.300781 43.171875 C 21.277344 42.234375 21.332031 41.292969 21.480469 40.363281 C 21.507812 40.1875 21.433594 40.007812 21.246094 39.953125 C 21.089844 39.910156 20.867188 40.007812 20.839844 40.1875 C 20.683594 41.175781 20.609375 42.171875 20.636719 43.171875 C 20.644531 43.601562 21.308594 43.601562 21.300781 43.171875 Z M 21.300781 43.171875 " fill-opacity="1" fill-rule="nonzero"/><path fill="#644394" d="M 21.546875 75.46875 C 23.4375 80.78125 26.847656 85.511719 31.289062 88.980469 C 32.535156 89.957031 33.855469 90.828125 35.238281 91.59375 C 35.617188 91.800781 35.949219 91.226562 35.574219 91.019531 C 30.78125 88.378906 26.785156 84.378906 24.128906 79.589844 C 23.363281 78.210938 22.714844 76.777344 22.1875 75.292969 C 22.042969 74.890625 21.402344 75.066406 21.546875 75.46875 Z M 21.546875 75.46875 " fill-opacity="1" fill-rule="nonzero"/><path fill="#644394" d="M 40.890625 94.339844 C 41.40625 94.679688 41.972656 94.945312 42.558594 95.140625 C 42.722656 95.195312 42.929688 95.078125 42.964844 94.90625 C 43.007812 94.726562 42.910156 94.558594 42.734375 94.5 C 42.597656 94.453125 42.464844 94.40625 42.332031 94.351562 C 42.320312 94.347656 42.207031 94.300781 42.28125 94.332031 C 42.246094 94.316406 42.210938 94.300781 42.175781 94.285156 C 42.109375 94.253906 42.046875 94.226562 41.980469 94.195312 C 41.71875 94.066406 41.46875 93.921875 41.226562 93.761719 C 41.082031 93.667969 40.851562 93.730469 40.773438 93.882812 C 40.683594 94.050781 40.734375 94.234375 40.890625 94.339844 Z M 40.890625 94.339844 " fill-opacity="1" fill-rule="nonzero"/><path fill="#644394" d="M 39.65625 90.738281 C 39.59375 90.722656 39.527344 90.703125 39.464844 90.683594 C 39.429688 90.671875 39.398438 90.660156 39.367188 90.648438 C 39.351562 90.640625 39.332031 90.636719 39.316406 90.628906 C 39.277344 90.613281 39.316406 90.628906 39.332031 90.636719 C 39.207031 90.574219 39.082031 90.519531 38.964844 90.445312 C 38.910156 90.40625 38.851562 90.371094 38.796875 90.332031 C 38.789062 90.324219 38.75 90.292969 38.789062 90.324219 C 38.828125 90.355469 38.777344 90.3125 38.769531 90.308594 C 38.742188 90.285156 38.714844 90.265625 38.691406 90.242188 C 38.585938 90.152344 38.492188 90.050781 38.402344 89.945312 C 38.289062 89.8125 38.046875 89.820312 37.933594 89.945312 C 37.800781 90.085938 37.8125 90.273438 37.933594 90.414062 C 38.328125 90.890625 38.882812 91.230469 39.480469 91.378906 C 39.648438 91.421875 39.847656 91.324219 39.890625 91.148438 C 39.929688 90.976562 39.839844 90.785156 39.65625 90.738281 Z M 39.65625 90.738281 " fill-opacity="1" fill-rule="nonzero"/><path fill="#644394" d="M 43.355469 61.828125 C 40.90625 60.351562 38.882812 58.246094 37.5 55.738281 C 37.292969 55.363281 36.71875 55.699219 36.925781 56.074219 C 38.363281 58.675781 40.476562 60.871094 43.019531 62.402344 C 43.386719 62.625 43.722656 62.050781 43.355469 61.828125 Z M 43.355469 61.828125 " fill-opacity="1" fill-rule="nonzero"/><path fill="#644394" d="M 35.546875 51.359375 C 35.175781 50.546875 34.925781 49.679688 34.792969 48.796875 C 34.765625 48.621094 34.542969 48.519531 34.382812 48.566406 C 34.195312 48.617188 34.125 48.796875 34.152344 48.972656 C 34.296875 49.917969 34.578125 50.824219 34.972656 51.695312 C 35.046875 51.855469 35.28125 51.898438 35.425781 51.8125 C 35.59375 51.714844 35.621094 51.523438 35.546875 51.359375 Z M 35.546875 51.359375 " fill-opacity="1" fill-rule="nonzero"/><path fill="#644394" d="M 34.457031 43.261719 C 34.421875 42.96875 34.390625 42.675781 34.355469 42.382812 C 34.347656 42.292969 34.328125 42.214844 34.257812 42.148438 C 34.203125 42.089844 34.105469 42.046875 34.023438 42.050781 C 33.9375 42.054688 33.847656 42.082031 33.789062 42.148438 C 33.734375 42.210938 33.683594 42.296875 33.691406 42.382812 C 33.726562 42.675781 33.757812 42.96875 33.789062 43.261719 C 33.800781 43.351562 33.820312 43.429688 33.886719 43.496094 C 33.945312 43.554688 34.039062 43.597656 34.125 43.59375 C 34.210938 43.589844 34.296875 43.5625 34.359375 43.496094 C 34.414062 43.4375 34.464844 43.347656 34.457031 43.261719 Z M 34.457031 43.261719 " fill-opacity="1" fill-rule="nonzero"/><path fill="#644394" d="M 73.875 78.378906 C 80.632812 79.273438 87.621094 77.996094 93.664062 74.847656 C 95.375 73.957031 97 72.914062 98.527344 71.734375 C 98.859375 71.476562 98.53125 70.898438 98.191406 71.160156 C 92.847656 75.292969 86.234375 77.6875 79.492188 77.96875 C 77.617188 78.046875 75.738281 77.960938 73.875 77.710938 C 73.453125 77.65625 73.457031 78.320312 73.875 78.378906 Z M 73.875 78.378906 " fill-opacity="1" fill-rule="nonzero"/><path fill="#644394" d="M 84.378906 91.84375 C 89.878906 88.628906 94.566406 84.109375 97.992188 78.726562 C 98.222656 78.367188 97.648438 78.03125 97.417969 78.390625 C 94.054688 83.675781 89.445312 88.109375 84.042969 91.269531 C 83.675781 91.488281 84.007812 92.0625 84.378906 91.84375 Z M 84.378906 91.84375 " fill-opacity="1" fill-rule="nonzero"/><path fill="#644394" d="M 100.515625 74.816406 C 101.175781 73.753906 101.839844 72.695312 102.5 71.632812 C 102.730469 71.269531 102.152344 70.9375 101.925781 71.296875 C 101.265625 72.359375 100.601562 73.417969 99.941406 74.480469 C 99.710938 74.84375 100.289062 75.179688 100.515625 74.816406 Z M 100.515625 74.816406 " fill-opacity="1" fill-rule="nonzero"/><path fill="#644394" d="M 103.660156 69 C 103.714844 68.796875 103.773438 68.589844 103.832031 68.386719 C 103.855469 68.300781 103.839844 68.203125 103.796875 68.128906 C 103.757812 68.058594 103.679688 67.992188 103.597656 67.976562 C 103.511719 67.957031 103.417969 67.960938 103.34375 68.007812 C 103.269531 68.054688 103.214844 68.121094 103.1875 68.207031 C 103.132812 68.414062 103.074219 68.617188 103.015625 68.824219 C 102.992188 68.90625 103.007812 69.007812 103.050781 69.082031 C 103.089844 69.148438 103.171875 69.214844 103.25 69.234375 C 103.335938 69.253906 103.429688 69.25 103.503906 69.199219 C 103.578125 69.152344 103.632812 69.085938 103.660156 69 Z M 103.660156 69 " fill-opacity="1" fill-rule="nonzero"/><path fill="#644394" d="M 58.789062 96.71875 C 60.324219 97.054688 61.910156 97.039062 63.4375 96.671875 C 63.855469 96.570312 63.679688 95.929688 63.261719 96.027344 C 61.851562 96.371094 60.382812 96.386719 58.964844 96.078125 C 58.546875 95.984375 58.371094 96.628906 58.789062 96.71875 Z M 58.789062 96.71875 " fill-opacity="1" fill-rule="nonzero"/><path fill="#644394" d="M 61.242188 94.644531 C 61.445312 94.644531 61.648438 94.644531 61.855469 94.644531 C 61.941406 94.644531 62.027344 94.605469 62.089844 94.546875 C 62.148438 94.488281 62.191406 94.394531 62.1875 94.308594 C 62.183594 94.222656 62.15625 94.136719 62.089844 94.074219 C 62.023438 94.015625 61.945312 93.976562 61.855469 93.976562 C 61.648438 93.976562 61.445312 93.976562 61.242188 93.976562 C 61.15625 93.976562 61.066406 94.015625 61.003906 94.074219 C 60.949219 94.132812 60.90625 94.226562 60.90625 94.308594 C 60.910156 94.394531 60.941406 94.484375 61.003906 94.546875 C 61.070312 94.605469 61.148438 94.644531 61.242188 94.644531 Z M 61.242188 94.644531 " fill-opacity="1" fill-rule="nonzero"/><path fill="#644394" d="M 54.746094 94.027344 C 54.914062 94.082031 55.089844 94.113281 55.269531 94.128906 C 55.449219 94.144531 55.625 94.125 55.800781 94.097656 C 55.878906 94.085938 55.960938 94.011719 56 93.945312 C 56.042969 93.875 56.058594 93.769531 56.035156 93.691406 C 56.007812 93.609375 55.957031 93.53125 55.878906 93.492188 C 55.855469 93.480469 55.828125 93.46875 55.800781 93.457031 C 55.742188 93.441406 55.683594 93.441406 55.625 93.457031 C 55.609375 93.460938 55.59375 93.460938 55.578125 93.464844 C 55.605469 93.460938 55.636719 93.457031 55.664062 93.453125 C 55.503906 93.472656 55.339844 93.472656 55.179688 93.453125 C 55.210938 93.457031 55.238281 93.460938 55.269531 93.464844 C 55.148438 93.449219 55.035156 93.421875 54.921875 93.382812 C 54.757812 93.328125 54.550781 93.445312 54.511719 93.617188 C 54.46875 93.800781 54.566406 93.964844 54.746094 94.027344 Z M 54.746094 94.027344 " fill-opacity="1" fill-rule="nonzero"/><path fill="#644394" d="M 35.496094 59.90625 C 35.382812 59.785156 35.273438 59.660156 35.167969 59.535156 C 35.152344 59.515625 35.140625 59.496094 35.125 59.476562 C 35.121094 59.472656 35.082031 59.425781 35.105469 59.453125 C 35.128906 59.484375 35.089844 59.433594 35.085938 59.429688 C 35.074219 59.414062 35.0625 59.398438 35.050781 59.382812 C 35 59.3125 34.949219 59.242188 34.902344 59.171875 C 34.714844 58.894531 34.550781 58.601562 34.410156 58.296875 C 34.335938 58.136719 34.09375 58.085938 33.953125 58.175781 C 33.792969 58.28125 33.757812 58.464844 33.835938 58.632812 C 34.132812 59.273438 34.539062 59.863281 35.027344 60.375 C 35.148438 60.5 35.378906 60.503906 35.496094 60.375 C 35.621094 60.238281 35.625 60.039062 35.496094 59.90625 Z M 35.496094 59.90625 " fill-opacity="1" fill-rule="nonzero"/><path fill="#644394" d="M 36.089844 27.441406 C 36.886719 24.046875 38.34375 20.855469 40.375 18.03125 C 40.625 17.683594 40.050781 17.351562 39.800781 17.695312 C 37.738281 20.5625 36.257812 23.820312 35.449219 27.261719 C 35.351562 27.679688 35.992188 27.855469 36.089844 27.441406 Z M 36.089844 27.441406 " fill-opacity="1" fill-rule="nonzero"/><path fill="#644394" d="M 43.027344 13.914062 C 43.144531 13.707031 43.261719 13.503906 43.378906 13.296875 C 43.421875 13.222656 43.433594 13.125 43.410156 13.042969 C 43.390625 12.964844 43.332031 12.878906 43.257812 12.84375 C 43.179688 12.800781 43.089844 12.78125 43.003906 12.808594 C 42.921875 12.835938 42.847656 12.886719 42.804688 12.960938 C 42.6875 13.167969 42.570312 13.371094 42.453125 13.578125 C 42.410156 13.652344 42.398438 13.75 42.421875 13.832031 C 42.441406 13.910156 42.5 13.996094 42.574219 14.03125 C 42.648438 14.074219 42.742188 14.09375 42.828125 14.066406 C 42.910156 14.039062 42.984375 13.988281 43.027344 13.914062 Z M 43.027344 13.914062 " fill-opacity="1" fill-rule="nonzero"/><path fill="#644394" d="M 37.15625 16.902344 C 37.269531 16.667969 37.378906 16.429688 37.492188 16.195312 C 37.53125 16.113281 37.550781 16.027344 37.527344 15.9375 C 37.507812 15.859375 37.445312 15.777344 37.375 15.738281 C 37.296875 15.699219 37.203125 15.675781 37.117188 15.703125 C 37.039062 15.730469 36.957031 15.78125 36.917969 15.859375 C 36.808594 16.09375 36.695312 16.332031 36.582031 16.566406 C 36.542969 16.648438 36.523438 16.734375 36.546875 16.824219 C 36.570312 16.898438 36.628906 16.984375 36.699219 17.023438 C 36.777344 17.0625 36.871094 17.082031 36.957031 17.054688 C 37.035156 17.03125 37.117188 16.980469 37.15625 16.902344 Z M 37.15625 16.902344 " fill-opacity="1" fill-rule="nonzero"/><path fill="#644394" d="M 66.46875 36.734375 C 66.097656 36.679688 65.886719 36.359375 65.914062 35.992188 C 65.9375 35.589844 66.214844 35.253906 66.523438 35.019531 C 66.878906 34.753906 67.292969 34.585938 67.652344 34.332031 C 68.023438 34.070312 68.324219 33.75 68.476562 33.316406 C 68.621094 32.910156 67.976562 32.738281 67.835938 33.140625 C 67.679688 33.582031 67.226562 33.832031 66.84375 34.046875 C 66.386719 34.304688 65.941406 34.566406 65.617188 34.992188 C 65.316406 35.398438 65.167969 35.921875 65.289062 36.421875 C 65.40625 36.894531 65.804688 37.300781 66.289062 37.378906 C 66.46875 37.40625 66.648438 37.332031 66.699219 37.144531 C 66.742188 36.988281 66.644531 36.765625 66.46875 36.734375 Z M 66.46875 36.734375 " fill-opacity="1" fill-rule="nonzero"/><path fill="#644394" d="M 69 32.757812 C 69.058594 32.6875 69.125 32.628906 69.195312 32.574219 C 69.171875 32.589844 69.152344 32.609375 69.128906 32.625 C 69.199219 32.570312 69.277344 32.519531 69.359375 32.480469 C 69.398438 32.457031 69.429688 32.429688 69.453125 32.394531 C 69.484375 32.359375 69.503906 32.324219 69.511719 32.28125 C 69.527344 32.234375 69.527344 32.191406 69.519531 32.148438 C 69.515625 32.101562 69.503906 32.0625 69.480469 32.023438 C 69.433594 31.953125 69.367188 31.890625 69.28125 31.871094 C 69.25 31.867188 69.222656 31.863281 69.191406 31.859375 C 69.132812 31.859375 69.078125 31.875 69.023438 31.902344 C 68.941406 31.945312 68.867188 31.996094 68.792969 32.050781 C 68.699219 32.121094 68.609375 32.195312 68.53125 32.285156 C 68.5 32.316406 68.476562 32.351562 68.460938 32.394531 C 68.441406 32.433594 68.433594 32.476562 68.433594 32.519531 C 68.429688 32.566406 68.441406 32.609375 68.460938 32.648438 C 68.476562 32.691406 68.5 32.726562 68.53125 32.757812 C 68.59375 32.816406 68.675781 32.859375 68.765625 32.855469 C 68.851562 32.851562 68.941406 32.820312 69 32.757812 Z M 69 32.757812 " fill-opacity="1" fill-rule="nonzero"/><path fill="#644394" d="M 68.109375 35.71875 C 68.117188 35.683594 68.132812 35.648438 68.144531 35.613281 C 68.136719 35.640625 68.125 35.667969 68.113281 35.691406 C 68.148438 35.613281 68.191406 35.539062 68.242188 35.46875 C 68.226562 35.492188 68.210938 35.511719 68.191406 35.535156 C 68.21875 35.503906 68.246094 35.472656 68.277344 35.441406 C 68.335938 35.378906 68.375 35.289062 68.375 35.207031 C 68.375 35.160156 68.367188 35.117188 68.34375 35.078125 C 68.332031 35.035156 68.308594 35 68.277344 34.96875 C 68.210938 34.914062 68.128906 34.867188 68.039062 34.871094 C 67.953125 34.875 67.871094 34.90625 67.804688 34.96875 C 67.648438 35.128906 67.53125 35.328125 67.46875 35.542969 C 67.453125 35.585938 67.453125 35.632812 67.460938 35.675781 C 67.464844 35.71875 67.476562 35.761719 67.5 35.800781 C 67.523438 35.839844 67.550781 35.871094 67.585938 35.894531 C 67.617188 35.921875 67.65625 35.941406 67.699219 35.953125 C 67.785156 35.972656 67.878906 35.96875 67.957031 35.917969 C 68.03125 35.871094 68.082031 35.804688 68.109375 35.71875 Z M 68.109375 35.71875 " fill-opacity="1" fill-rule="nonzero"/><path fill="#644394" d="M 66.28125 39.472656 C 66.292969 39.59375 66.316406 39.695312 66.378906 39.800781 C 66.40625 39.851562 66.441406 39.894531 66.480469 39.9375 C 66.5 39.960938 66.519531 39.984375 66.542969 40.003906 C 66.585938 40.039062 66.632812 40.074219 66.679688 40.101562 C 66.730469 40.128906 66.785156 40.152344 66.835938 40.167969 C 66.890625 40.183594 66.953125 40.191406 67.007812 40.195312 C 67.039062 40.199219 67.070312 40.199219 67.101562 40.195312 C 67.148438 40.195312 67.191406 40.1875 67.230469 40.167969 C 67.269531 40.152344 67.304688 40.128906 67.335938 40.097656 C 67.394531 40.039062 67.4375 39.945312 67.433594 39.863281 C 67.429688 39.777344 67.402344 39.6875 67.335938 39.628906 C 67.3125 39.609375 67.292969 39.59375 67.269531 39.574219 C 67.21875 39.546875 67.160156 39.53125 67.101562 39.53125 C 67.066406 39.535156 67.03125 39.535156 66.996094 39.53125 C 67.023438 39.535156 67.054688 39.539062 67.082031 39.542969 C 67.046875 39.535156 67.011719 39.527344 66.980469 39.511719 C 67.007812 39.523438 67.03125 39.535156 67.058594 39.546875 C 67.023438 39.53125 66.988281 39.511719 66.953125 39.484375 C 66.976562 39.503906 67 39.519531 67.023438 39.539062 C 66.988281 39.511719 66.960938 39.484375 66.9375 39.453125 C 66.953125 39.476562 66.96875 39.496094 66.988281 39.519531 C 66.964844 39.488281 66.945312 39.457031 66.929688 39.421875 C 66.941406 39.449219 66.953125 39.472656 66.964844 39.5 C 66.949219 39.46875 66.941406 39.4375 66.9375 39.402344 C 66.941406 39.433594 66.945312 39.464844 66.949219 39.492188 C 66.949219 39.484375 66.949219 39.480469 66.945312 39.472656 C 66.949219 39.425781 66.9375 39.382812 66.917969 39.34375 C 66.90625 39.300781 66.882812 39.265625 66.847656 39.238281 C 66.792969 39.179688 66.695312 39.136719 66.613281 39.140625 C 66.527344 39.144531 66.441406 39.171875 66.378906 39.238281 C 66.324219 39.296875 66.273438 39.386719 66.28125 39.472656 Z M 66.28125 39.472656 " fill-opacity="1" fill-rule="nonzero"/><path fill="#644394" d="M 72.109375 40.679688 C 72.164062 40.632812 72.207031 40.574219 72.25 40.515625 C 72.292969 40.460938 72.320312 40.390625 72.34375 40.324219 C 72.371094 40.257812 72.378906 40.183594 72.386719 40.113281 C 72.394531 40.039062 72.382812 39.96875 72.371094 39.894531 C 72.363281 39.851562 72.34375 39.8125 72.3125 39.78125 C 72.289062 39.746094 72.257812 39.714844 72.21875 39.695312 C 72.183594 39.671875 72.140625 39.65625 72.097656 39.65625 C 72.050781 39.644531 72.007812 39.648438 71.964844 39.660156 C 71.882812 39.6875 71.804688 39.738281 71.765625 39.816406 C 71.753906 39.839844 71.742188 39.867188 71.730469 39.894531 C 71.714844 39.953125 71.714844 40.011719 71.730469 40.070312 C 71.730469 40.074219 71.734375 40.082031 71.734375 40.085938 C 71.730469 40.054688 71.726562 40.027344 71.722656 39.996094 C 71.726562 40.039062 71.726562 40.078125 71.722656 40.121094 C 71.726562 40.089844 71.730469 40.0625 71.734375 40.03125 C 71.726562 40.074219 71.714844 40.117188 71.699219 40.160156 C 71.710938 40.132812 71.722656 40.105469 71.734375 40.078125 C 71.714844 40.121094 71.695312 40.15625 71.667969 40.191406 C 71.683594 40.167969 71.703125 40.148438 71.71875 40.125 C 71.695312 40.15625 71.667969 40.183594 71.636719 40.207031 C 71.605469 40.238281 71.582031 40.273438 71.570312 40.316406 C 71.546875 40.355469 71.539062 40.398438 71.539062 40.445312 C 71.539062 40.488281 71.546875 40.53125 71.570312 40.570312 C 71.582031 40.613281 71.605469 40.648438 71.636719 40.679688 C 71.703125 40.738281 71.785156 40.78125 71.871094 40.777344 C 71.902344 40.773438 71.933594 40.769531 71.960938 40.765625 C 72.015625 40.75 72.066406 40.71875 72.109375 40.679688 Z M 72.109375 40.679688 " fill-opacity="1" fill-rule="nonzero"/><path fill="#644394" d="M 49.417969 48.832031 C 48.472656 48.960938 47.96875 49.765625 48.25 50.683594 C 48.394531 51.160156 48.710938 51.539062 48.980469 51.949219 C 49.292969 52.425781 49.480469 52.953125 49.507812 53.527344 C 49.546875 54.472656 49.347656 55.585938 50.140625 56.300781 C 50.800781 56.894531 51.800781 56.699219 52.300781 56.011719 C 52.550781 55.664062 51.972656 55.332031 51.726562 55.675781 C 51.550781 55.917969 51.21875 56.039062 50.925781 55.980469 C 50.582031 55.910156 50.375 55.605469 50.273438 55.292969 C 50.023438 54.546875 50.25 53.71875 50.105469 52.953125 C 49.960938 52.179688 49.519531 51.621094 49.117188 50.972656 C 48.945312 50.691406 48.785156 50.359375 48.84375 50.019531 C 48.910156 49.628906 49.25 49.519531 49.59375 49.472656 C 50.015625 49.414062 49.835938 48.773438 49.417969 48.832031 Z M 49.417969 48.832031 " fill-opacity="1" fill-rule="nonzero"/><path fill="#644394" d="M 55.300781 56.277344 C 55.636719 56.828125 56.332031 56.960938 56.902344 56.71875 C 57.042969 56.660156 57.179688 56.585938 57.285156 56.464844 C 57.394531 56.339844 57.464844 56.195312 57.519531 56.039062 C 57.621094 55.757812 57.65625 55.441406 57.617188 55.144531 C 57.605469 55.054688 57.585938 54.976562 57.519531 54.910156 C 57.460938 54.851562 57.367188 54.808594 57.285156 54.8125 C 57.125 54.820312 56.929688 54.960938 56.953125 55.144531 C 56.964844 55.257812 56.972656 55.371094 56.964844 55.484375 C 56.960938 55.515625 56.960938 55.546875 56.957031 55.578125 C 56.964844 55.503906 56.949219 55.605469 56.949219 55.609375 C 56.9375 55.660156 56.925781 55.710938 56.910156 55.761719 C 56.902344 55.789062 56.894531 55.820312 56.882812 55.847656 C 56.878906 55.859375 56.84375 55.945312 56.875 55.875 C 56.855469 55.917969 56.832031 55.957031 56.8125 55.996094 C 56.777344 56.058594 56.84375 55.972656 56.796875 56.015625 C 56.785156 56.027344 56.722656 56.074219 56.78125 56.035156 C 56.734375 56.0625 56.691406 56.085938 56.644531 56.109375 C 56.613281 56.128906 56.6875 56.097656 56.628906 56.117188 C 56.601562 56.125 56.574219 56.132812 56.546875 56.144531 C 56.523438 56.148438 56.5 56.15625 56.476562 56.160156 C 56.464844 56.164062 56.378906 56.175781 56.421875 56.171875 C 56.46875 56.167969 56.386719 56.171875 56.378906 56.171875 C 56.351562 56.175781 56.320312 56.175781 56.292969 56.175781 C 56.273438 56.171875 56.1875 56.160156 56.265625 56.175781 C 56.242188 56.171875 56.21875 56.167969 56.199219 56.160156 C 56.175781 56.15625 56.15625 56.148438 56.136719 56.144531 C 56.121094 56.140625 56.042969 56.121094 56.117188 56.140625 C 56.078125 56.128906 56.027344 56.09375 55.992188 56.070312 C 55.964844 56.050781 55.957031 56.039062 55.988281 56.070312 C 55.96875 56.050781 55.949219 56.035156 55.933594 56.015625 C 55.921875 56.003906 55.871094 55.941406 55.917969 56.003906 C 55.902344 55.984375 55.886719 55.960938 55.875 55.941406 C 55.785156 55.792969 55.574219 55.722656 55.421875 55.820312 C 55.269531 55.917969 55.203125 56.117188 55.300781 56.277344 Z M 55.300781 56.277344 " fill-opacity="1" fill-rule="nonzero"/><path fill="#644394" d="M 57.757812 53.011719 C 57.773438 52.960938 57.789062 52.90625 57.808594 52.859375 C 57.816406 52.832031 57.824219 52.808594 57.835938 52.785156 C 57.839844 52.773438 57.84375 52.753906 57.851562 52.742188 C 57.847656 52.753906 57.824219 52.808594 57.839844 52.769531 C 57.886719 52.671875 57.933594 52.574219 57.988281 52.480469 C 58.039062 52.390625 58.097656 52.304688 58.160156 52.21875 C 58.175781 52.203125 58.210938 52.164062 58.148438 52.234375 C 58.15625 52.222656 58.164062 52.214844 58.171875 52.203125 C 58.191406 52.183594 58.207031 52.164062 58.222656 52.144531 C 58.257812 52.101562 58.296875 52.058594 58.335938 52.019531 C 58.457031 51.894531 58.472656 51.671875 58.335938 51.546875 C 58.207031 51.425781 57.996094 51.414062 57.867188 51.546875 C 57.519531 51.910156 57.261719 52.351562 57.117188 52.835938 C 57.066406 53 57.175781 53.207031 57.347656 53.246094 C 57.527344 53.285156 57.703125 53.191406 57.757812 53.011719 Z M 57.757812 53.011719 " fill-opacity="1" fill-rule="nonzero"/><path fill="#644394" d="M 58.96875 51.105469 C 59.015625 50.988281 59.054688 50.871094 59.054688 50.742188 C 59.054688 50.695312 59.046875 50.644531 59.035156 50.597656 C 59.035156 50.578125 59.027344 50.558594 59.019531 50.539062 C 59.003906 50.5 58.988281 50.453125 58.960938 50.414062 C 58.933594 50.375 58.90625 50.335938 58.871094 50.304688 C 58.839844 50.273438 58.804688 50.25 58.765625 50.238281 C 58.726562 50.214844 58.683594 50.207031 58.636719 50.207031 C 58.554688 50.207031 58.457031 50.242188 58.402344 50.304688 C 58.34375 50.367188 58.300781 50.453125 58.304688 50.539062 C 58.308594 50.625 58.335938 50.71875 58.402344 50.777344 C 58.414062 50.785156 58.421875 50.796875 58.429688 50.804688 C 58.414062 50.785156 58.394531 50.761719 58.378906 50.738281 C 58.390625 50.753906 58.402344 50.773438 58.410156 50.792969 C 58.398438 50.765625 58.390625 50.742188 58.378906 50.714844 C 58.386719 50.738281 58.394531 50.761719 58.398438 50.789062 C 58.394531 50.761719 58.390625 50.730469 58.386719 50.699219 C 58.390625 50.734375 58.390625 50.765625 58.386719 50.800781 C 58.390625 50.769531 58.394531 50.738281 58.398438 50.710938 C 58.386719 50.789062 58.355469 50.859375 58.328125 50.929688 C 58.3125 50.972656 58.3125 51.019531 58.320312 51.0625 C 58.324219 51.105469 58.335938 51.148438 58.359375 51.1875 C 58.402344 51.253906 58.480469 51.320312 58.558594 51.339844 C 58.644531 51.359375 58.742188 51.355469 58.816406 51.304688 C 58.839844 51.289062 58.859375 51.269531 58.882812 51.253906 C 58.925781 51.210938 58.953125 51.164062 58.96875 51.105469 Z M 58.96875 51.105469 " fill-opacity="1" fill-rule="nonzero"/><path fill="#644394" d="M 56.511719 49.828125 C 56.59375 49.878906 56.671875 49.929688 56.753906 49.980469 C 56.792969 50.003906 56.832031 50.019531 56.878906 50.019531 C 56.921875 50.03125 56.964844 50.027344 57.011719 50.015625 C 57.054688 50.003906 57.089844 49.984375 57.125 49.953125 C 57.160156 49.929688 57.1875 49.898438 57.210938 49.859375 C 57.21875 49.835938 57.230469 49.808594 57.242188 49.78125 C 57.257812 49.722656 57.257812 49.664062 57.242188 49.605469 C 57.230469 49.578125 57.222656 49.550781 57.210938 49.523438 C 57.179688 49.476562 57.140625 49.433594 57.089844 49.40625 C 57.007812 49.355469 56.929688 49.304688 56.847656 49.253906 C 56.808594 49.230469 56.769531 49.21875 56.722656 49.214844 C 56.679688 49.203125 56.636719 49.207031 56.589844 49.21875 C 56.546875 49.230469 56.511719 49.25 56.476562 49.28125 C 56.441406 49.304688 56.414062 49.335938 56.390625 49.375 C 56.382812 49.398438 56.371094 49.425781 56.359375 49.453125 C 56.34375 49.511719 56.34375 49.570312 56.359375 49.628906 C 56.371094 49.65625 56.378906 49.683594 56.390625 49.710938 C 56.421875 49.757812 56.460938 49.800781 56.511719 49.828125 Z M 56.511719 49.828125 " fill-opacity="1" fill-rule="nonzero"/><path fill="#644394" d="M 70.980469 58.042969 C 71 57.933594 71.042969 57.878906 71.144531 57.820312 C 71.273438 57.75 71.425781 57.722656 71.566406 57.691406 C 71.871094 57.628906 72.191406 57.550781 72.457031 57.375 C 72.746094 57.179688 72.90625 56.90625 73.039062 56.589844 C 73.097656 56.449219 73.15625 56.296875 73.253906 56.179688 C 73.324219 56.09375 73.382812 56.054688 73.503906 56.035156 C 73.679688 56.007812 73.777344 55.785156 73.734375 55.628906 C 73.683594 55.4375 73.503906 55.367188 73.328125 55.394531 C 72.964844 55.449219 72.695312 55.757812 72.546875 56.070312 C 72.414062 56.351562 72.332031 56.679688 72.050781 56.839844 C 71.78125 57 71.445312 57.019531 71.144531 57.109375 C 70.777344 57.214844 70.410156 57.464844 70.339844 57.867188 C 70.308594 58.042969 70.386719 58.226562 70.570312 58.273438 C 70.730469 58.320312 70.949219 58.222656 70.980469 58.042969 Z M 70.980469 58.042969 " fill-opacity="1" fill-rule="nonzero"/><path fill="#644394" d="M 74.394531 57.234375 C 74.539062 57.367188 74.710938 57.433594 74.902344 57.460938 C 74.984375 57.46875 75.0625 57.476562 75.144531 57.480469 C 75.183594 57.480469 75.226562 57.480469 75.265625 57.484375 C 75.28125 57.488281 75.296875 57.488281 75.3125 57.488281 C 75.386719 57.496094 75.238281 57.472656 75.308594 57.492188 C 75.34375 57.5 75.378906 57.507812 75.414062 57.519531 C 75.464844 57.535156 75.355469 57.488281 75.390625 57.511719 C 75.40625 57.515625 75.417969 57.523438 75.429688 57.53125 C 75.445312 57.539062 75.457031 57.546875 75.46875 57.554688 C 75.503906 57.578125 75.410156 57.503906 75.453125 57.542969 C 75.476562 57.5625 75.496094 57.585938 75.515625 57.605469 C 75.5625 57.652344 75.476562 57.542969 75.507812 57.59375 C 75.515625 57.605469 75.523438 57.617188 75.527344 57.625 C 75.539062 57.640625 75.546875 57.65625 75.554688 57.671875 C 75.582031 57.722656 75.535156 57.613281 75.542969 57.652344 C 75.546875 57.65625 75.558594 57.695312 75.554688 57.695312 C 75.558594 57.695312 75.542969 57.597656 75.550781 57.664062 C 75.554688 57.703125 75.574219 57.585938 75.554688 57.636719 C 75.5625 57.617188 75.570312 57.601562 75.574219 57.585938 C 75.613281 57.542969 75.621094 57.53125 75.597656 57.554688 C 75.476562 57.679688 75.464844 57.90625 75.597656 58.027344 C 75.730469 58.148438 75.9375 58.160156 76.066406 58.027344 C 76.410156 57.679688 76.097656 57.125 75.734375 56.9375 C 75.546875 56.839844 75.34375 56.820312 75.132812 56.8125 C 75.089844 56.8125 75.046875 56.808594 75.003906 56.804688 C 74.976562 56.804688 74.925781 56.785156 75.015625 56.808594 C 74.996094 56.804688 74.976562 56.800781 74.957031 56.796875 C 74.9375 56.792969 74.917969 56.789062 74.902344 56.78125 C 74.894531 56.78125 74.890625 56.777344 74.882812 56.777344 C 74.851562 56.761719 74.859375 56.765625 74.910156 56.789062 C 74.902344 56.777344 74.878906 56.769531 74.867188 56.765625 C 74.796875 56.722656 74.914062 56.808594 74.863281 56.765625 C 74.734375 56.648438 74.519531 56.628906 74.394531 56.765625 C 74.277344 56.890625 74.257812 57.113281 74.394531 57.234375 Z M 74.394531 57.234375 " fill-opacity="1" fill-rule="nonzero"/><path fill="#644394" d="M 74.035156 60.425781 C 74.160156 60.648438 74.398438 60.785156 74.648438 60.824219 C 74.789062 60.84375 74.925781 60.855469 75.070312 60.824219 C 75.273438 60.78125 75.4375 60.605469 75.4375 60.390625 C 75.4375 60.308594 75.398438 60.214844 75.339844 60.15625 C 75.28125 60.097656 75.1875 60.054688 75.105469 60.058594 C 74.925781 60.066406 74.773438 60.207031 74.773438 60.390625 C 74.773438 60.398438 74.773438 60.402344 74.769531 60.410156 C 74.777344 60.378906 74.777344 60.351562 74.78125 60.320312 C 74.78125 60.328125 74.78125 60.332031 74.777344 60.335938 C 74.789062 60.3125 74.800781 60.285156 74.8125 60.257812 C 74.808594 60.265625 74.804688 60.273438 74.800781 60.28125 C 74.816406 60.257812 74.835938 60.234375 74.851562 60.210938 C 74.847656 60.21875 74.839844 60.226562 74.832031 60.230469 C 74.855469 60.214844 74.878906 60.195312 74.902344 60.179688 C 74.886719 60.1875 74.875 60.195312 74.859375 60.203125 C 74.886719 60.191406 74.914062 60.179688 74.941406 60.167969 C 74.914062 60.175781 74.890625 60.183594 74.863281 60.1875 C 74.890625 60.183594 74.921875 60.179688 74.949219 60.175781 C 74.878906 60.183594 74.804688 60.179688 74.734375 60.167969 C 74.765625 60.171875 74.796875 60.175781 74.824219 60.179688 C 74.757812 60.171875 74.695312 60.15625 74.632812 60.132812 C 74.660156 60.140625 74.6875 60.152344 74.714844 60.164062 C 74.671875 60.148438 74.632812 60.125 74.597656 60.097656 C 74.617188 60.113281 74.640625 60.132812 74.664062 60.148438 C 74.636719 60.128906 74.613281 60.105469 74.589844 60.078125 C 74.605469 60.097656 74.625 60.121094 74.640625 60.144531 C 74.628906 60.128906 74.617188 60.109375 74.605469 60.089844 C 74.566406 60.019531 74.488281 59.960938 74.410156 59.9375 C 74.328125 59.917969 74.222656 59.925781 74.152344 59.972656 C 74 60.070312 73.941406 60.265625 74.035156 60.425781 Z M 74.035156 60.425781 " fill-opacity="1" fill-rule="nonzero"/></svg>