<svg xmlns="http://www.w3.org/2000/svg" xmlns:xlink="http://www.w3.org/1999/xlink" width="200" zoomAndPan="magnify" viewBox="0 0 150 149.999998" height="200" preserveAspectRatio="xMidYMid meet" version="1.0"><defs><clipPath id="da5133842d"><path d="M 46 34.460938 L 82 34.460938 L 82 53 L 46 53 Z M 46 34.460938 " clip-rule="nonzero"/></clipPath><clipPath id="19d7fc6f52"><path d="M 7.933594 117 L 142.183594 117 L 142.183594 120 L 7.933594 120 Z M 7.933594 117 " clip-rule="nonzero"/></clipPath><clipPath id="26cc40ff5d"><path d="M 40 111 L 67 111 L 67 129.710938 L 40 129.710938 Z M 40 111 " clip-rule="nonzero"/></clipPath><clipPath id="d2eb843b29"><path d="M 84 111 L 110 111 L 110 129.710938 L 84 129.710938 Z M 84 111 " clip-rule="nonzero"/></clipPath></defs><path fill="#e4d2b6" d="M 68.402344 43.222656 C 67.539062 41.996094 66.671875 40.765625 65.804688 39.539062 C 65.28125 38.796875 64.679688 37.996094 63.789062 37.800781 C 63.066406 37.640625 62.324219 37.929688 61.667969 38.265625 C 60.699219 38.765625 59.71875 39.503906 59.519531 40.574219 C 59.382812 41.316406 59.664062 42.085938 60.109375 42.695312 C 60.550781 43.304688 61.152344 43.78125 61.742188 44.246094 C 58.28125 44.082031 54.777344 43.921875 51.382812 44.613281 C 50.066406 44.878906 48.722656 45.308594 47.78125 46.265625 C 46.839844 47.222656 46.457031 48.835938 47.230469 49.929688 C 39.507812 53.324219 32.449219 57.808594 27.070312 63.953125 C 26.460938 64.648438 25.863281 65.378906 25.515625 66.234375 C 25.164062 67.089844 25.082031 68.101562 25.5 68.925781 C 25.917969 69.75 26.910156 70.304688 27.972656 70.070312 C 25.023438 73.382812 22.636719 77.191406 20.945312 81.289062 C 20.394531 82.617188 19.914062 84.0625 20.21875 85.46875 C 20.527344 86.871094 21.921875 88.125 23.515625 87.632812 C 22.117188 90.703125 20.683594 94.050781 21.421875 97.34375 C 21.679688 98.5 22.371094 99.726562 23.535156 99.945312 C 24.539062 100.132812 25.511719 99.492188 26.332031 98.761719 C 27.710938 102.953125 30.3125 106.734375 33.726562 109.523438 C 37.140625 112.3125 41.363281 114.097656 45.546875 114.644531 C 52.761719 116.175781 60.0625 117.265625 67.3125 118.347656 C 77.753906 119.105469 88.359375 117.867188 98.253906 114.457031 C 99.820312 113.914062 101.371094 113.320312 102.917969 112.726562 C 106.074219 111.515625 109.226562 110.308594 112.546875 109.058594 C 116.355469 106.992188 120.273438 104.644531 122.4375 100.886719 C 124.523438 97.253906 124.65625 92.859375 124.828125 88.59375 C 125.3125 89.160156 125.804688 89.738281 126.445312 90.117188 C 127.085938 90.496094 127.914062 90.644531 128.578125 90.3125 C 129.238281 89.988281 129.613281 89.25 129.699219 88.519531 C 129.78125 87.789062 129.617188 87.050781 129.441406 86.339844 C 128.75 83.589844 127.828125 80.894531 126.6875 78.300781 C 127.167969 79.097656 128.421875 79.148438 129.128906 78.542969 C 129.835938 77.933594 130.035156 76.890625 129.863281 75.976562 C 129.691406 75.058594 129.207031 74.238281 128.726562 73.441406 C 126.210938 69.292969 123.5 65.21875 120.046875 61.539062 C 121.222656 61.117188 121.539062 59.472656 120.984375 58.347656 C 120.429688 57.226562 119.3125 56.511719 118.246094 55.859375 C 116.132812 54.558594 114.019531 53.261719 111.804688 52.144531 C 106.761719 49.597656 101.230469 48.023438 95.511719 47.511719 C 96.492188 47.414062 97.207031 46.375 97.152344 45.390625 C 97.101562 44.402344 96.429688 43.53125 95.59375 43.003906 C 94.757812 42.476562 93.777344 42.242188 92.804688 42.0625 C 87.949219 41.171875 82.882812 41.449219 78.078125 42.738281 C 78.925781 41.96875 79.679688 41.054688 80.082031 39.976562 C 80.484375 38.902344 80.503906 37.648438 79.957031 36.636719 C 79.40625 35.628906 78.234375 34.9375 77.101562 35.128906 C 76.25 35.269531 75.546875 35.851562 74.90625 36.429688 C 72.949219 38.191406 71.152344 40.132812 68.402344 43.222656 Z M 68.402344 43.222656 " fill-opacity="1" fill-rule="nonzero"/><path fill="#ffffff" d="M 90.054688 61.535156 C 88.039062 61.648438 86.121094 62.4375 84.339844 63.394531 C 82.5625 64.351562 80.878906 65.488281 79.0625 66.371094 C 78.113281 66.832031 77.078125 67.230469 76.027344 67.113281 C 74.976562 66.996094 73.9375 66.207031 73.867188 65.148438 C 72.828125 66.320312 71.726562 67.300781 70.488281 68.050781 C 69.515625 68.640625 68.324219 69.09375 67.265625 68.679688 C 66.351562 68.320312 65.769531 67.375 65.578125 66.410156 C 65.390625 65.445312 65.527344 64.449219 65.824219 63.539062 C 61.828125 63.273438 57.800781 63.535156 53.710938 64.679688 C 49.679688 66.199219 45.5625 67.769531 42.285156 70.566406 C 40.355469 72.21875 38.78125 74.246094 37.3125 76.320312 C 35.800781 78.457031 34.367188 80.691406 33.53125 83.175781 C 31.707031 88.585938 32.894531 94.5 34.25 100.207031 C 34.890625 102.898438 36.824219 105.089844 38.875 106.945312 C 43.042969 110.71875 47.980469 113.640625 53.457031 115.539062 C 55.925781 116.359375 58.441406 117.074219 61.019531 117.433594 C 62.160156 117.59375 63.3125 117.683594 64.453125 117.84375 C 65.992188 118.0625 67.511719 118.40625 69.054688 118.59375 C 70.597656 118.78125 72.183594 118.808594 73.882812 118.707031 C 76.175781 118.625 78.46875 118.542969 80.761719 118.460938 C 82.253906 118.410156 83.75 118.355469 85.222656 118.125 C 86.800781 117.878906 88.339844 117.433594 89.871094 116.992188 C 93.765625 115.863281 97.65625 114.734375 101.585938 113.574219 C 105.339844 111.1875 109.125 108.773438 112.257812 105.617188 C 114.628906 103.226562 116.578125 100.457031 118.019531 97.570312 C 118.261719 96.359375 118.503906 95.148438 118.742188 93.933594 C 119.203125 91.636719 119.660156 89.328125 119.785156 86.984375 C 120.175781 79.53125 116.925781 71.972656 111.25 67.132812 C 105.570312 62.296875 97.59375 60.292969 90.054688 61.535156 Z M 90.054688 61.535156 " fill-opacity="1" fill-rule="nonzero"/><path fill="#af9178" d="M 32.355469 92.0625 C 35.101562 86.949219 38.347656 81.722656 43.480469 79.019531 C 47.289062 77.011719 51.96875 76.640625 55.960938 78.246094 C 59.953125 79.851562 63.128906 83.46875 63.992188 87.6875 C 64.851562 91.90625 63.261719 96.589844 59.875 99.242188 C 56.925781 101.550781 53.058594 102.199219 49.472656 103.269531 C 45.882812 104.335938 42.296875 106.195312 40.9375 109.6875 C 35.339844 104.402344 32.796875 100.988281 32.355469 92.0625 Z M 32.355469 92.0625 " fill-opacity="1" fill-rule="nonzero"/><path fill="#af9178" d="M 119.773438 84.351562 C 116.117188 79.84375 111.382812 74.808594 105.835938 73.113281 C 101.722656 71.859375 97.054688 72.375 93.433594 74.699219 C 89.8125 77.023438 87.371094 81.175781 87.316406 85.480469 C 87.261719 89.785156 89.699219 94.085938 93.523438 96.058594 C 96.851562 97.769531 100.769531 97.683594 104.492188 98.058594 C 108.21875 98.433594 112.816406 99.519531 114.804688 102.695312 C 119.027344 98.445312 120.902344 91.949219 119.773438 84.351562 Z M 119.773438 84.351562 " fill-opacity="1" fill-rule="nonzero"/><path fill="#f9aeaf" d="M 47.570312 98.980469 C 47.570312 99.492188 47.472656 99.984375 47.277344 100.457031 C 47.082031 100.925781 46.804688 101.34375 46.441406 101.703125 C 46.082031 102.066406 45.667969 102.34375 45.195312 102.539062 C 44.722656 102.734375 44.234375 102.832031 43.722656 102.832031 C 43.214844 102.832031 42.722656 102.734375 42.25 102.539062 C 41.78125 102.34375 41.363281 102.066406 41.003906 101.703125 C 40.644531 101.34375 40.367188 100.925781 40.171875 100.457031 C 39.976562 99.984375 39.878906 99.492188 39.878906 98.980469 C 39.878906 98.472656 39.976562 97.980469 40.171875 97.507812 C 40.367188 97.035156 40.644531 96.621094 41.003906 96.257812 C 41.363281 95.898438 41.78125 95.621094 42.25 95.425781 C 42.722656 95.230469 43.214844 95.132812 43.722656 95.132812 C 44.234375 95.132812 44.722656 95.230469 45.195312 95.425781 C 45.667969 95.621094 46.082031 95.898438 46.441406 96.257812 C 46.804688 96.621094 47.082031 97.035156 47.277344 97.507812 C 47.472656 97.980469 47.570312 98.472656 47.570312 98.980469 Z M 47.570312 98.980469 " fill-opacity="1" fill-rule="nonzero"/><path fill="#2b2827" d="M 52.632812 88.714844 C 51.144531 89.507812 49.574219 90.386719 48.789062 91.878906 C 48.515625 92.398438 48.355469 93.035156 48.597656 93.574219 C 48.847656 94.136719 49.484375 94.445312 50.097656 94.480469 C 50.710938 94.515625 51.3125 94.324219 51.894531 94.121094 C 53.164062 93.683594 54.421875 93.203125 55.613281 92.582031 C 56.300781 92.222656 56.984375 91.804688 57.453125 91.1875 C 57.921875 90.570312 58.140625 89.710938 57.828125 89.003906 C 57.488281 88.222656 56.59375 87.808594 55.746094 87.785156 C 54.894531 87.761719 54.03125 87.972656 52.632812 88.714844 Z M 52.632812 88.714844 " fill-opacity="1" fill-rule="nonzero"/><path fill="#f9aeaf" d="M 112.78125 92.808594 C 112.78125 93.320312 112.683594 93.808594 112.488281 94.28125 C 112.292969 94.753906 112.015625 95.167969 111.65625 95.53125 C 111.296875 95.890625 110.878906 96.171875 110.410156 96.367188 C 109.9375 96.5625 109.445312 96.660156 108.9375 96.660156 C 108.425781 96.660156 107.9375 96.5625 107.464844 96.367188 C 106.992188 96.171875 106.578125 95.890625 106.21875 95.53125 C 105.855469 95.167969 105.578125 94.753906 105.382812 94.28125 C 105.1875 93.808594 105.089844 93.320312 105.089844 92.808594 C 105.089844 92.296875 105.1875 91.804688 105.382812 91.335938 C 105.578125 90.863281 105.855469 90.445312 106.21875 90.085938 C 106.578125 89.726562 106.992188 89.445312 107.464844 89.25 C 107.9375 89.054688 108.425781 88.957031 108.9375 88.957031 C 109.445312 88.957031 109.9375 89.054688 110.410156 89.25 C 110.878906 89.445312 111.296875 89.726562 111.65625 90.085938 C 112.015625 90.445312 112.292969 90.863281 112.488281 91.335938 C 112.683594 91.804688 112.78125 92.296875 112.78125 92.808594 Z M 112.78125 92.808594 " fill-opacity="1" fill-rule="nonzero"/><path fill="#2b2827" d="M 98.679688 84.359375 C 100.28125 84.886719 101.980469 85.488281 103.003906 86.828125 C 103.359375 87.292969 103.625 87.894531 103.476562 88.464844 C 103.324219 89.0625 102.75 89.476562 102.152344 89.613281 C 101.550781 89.75 100.925781 89.660156 100.320312 89.5625 C 98.996094 89.34375 97.671875 89.082031 96.394531 88.671875 C 95.65625 88.433594 94.914062 88.136719 94.347656 87.605469 C 93.78125 87.078125 93.417969 86.269531 93.609375 85.515625 C 93.8125 84.691406 94.625 84.128906 95.457031 83.964844 C 96.289062 83.796875 97.175781 83.859375 98.679688 84.359375 Z M 98.679688 84.359375 " fill-opacity="1" fill-rule="nonzero"/><path fill="#2b2827" d="M 77.773438 87.792969 C 78.027344 87.53125 78.289062 87.25 78.363281 86.894531 C 78.492188 86.285156 77.996094 85.6875 77.410156 85.480469 C 76.378906 85.113281 74.46875 85.417969 73.773438 85.824219 C 73.238281 86.136719 72.863281 86.816406 73.105469 87.390625 C 73.242188 87.726562 73.554688 87.953125 73.851562 88.164062 C 74.539062 88.652344 75.121094 89.058594 75.90625 88.953125 C 76.617188 88.859375 77.296875 88.289062 77.773438 87.792969 Z M 77.773438 87.792969 " fill-opacity="1" fill-rule="nonzero"/><path fill="#af9178" d="M 63.195312 53.480469 C 62.789062 53.480469 62.445312 53.164062 62.417969 52.753906 L 62.140625 48.722656 C 62.109375 48.289062 62.433594 47.917969 62.863281 47.890625 C 63.277344 47.859375 63.664062 48.183594 63.695312 48.613281 L 63.972656 52.648438 C 64 53.078125 63.675781 53.449219 63.25 53.476562 C 63.230469 53.480469 63.210938 53.480469 63.195312 53.480469 Z M 63.195312 53.480469 " fill-opacity="1" fill-rule="nonzero"/><path fill="#af9178" d="M 75.714844 54.496094 C 75.710938 54.496094 75.710938 54.496094 75.707031 54.496094 C 75.277344 54.492188 74.929688 54.136719 74.9375 53.707031 L 75.007812 48.253906 C 75.011719 47.824219 75.359375 47.484375 75.785156 47.484375 C 75.789062 47.484375 75.792969 47.484375 75.792969 47.484375 C 76.222656 47.488281 76.566406 47.84375 76.5625 48.273438 L 76.492188 53.726562 C 76.488281 54.152344 76.140625 54.496094 75.714844 54.496094 Z M 75.714844 54.496094 " fill-opacity="1" fill-rule="nonzero"/><path fill="#af9178" d="M 86.402344 56.070312 C 86.351562 56.070312 86.304688 56.066406 86.253906 56.058594 C 85.832031 55.976562 85.554688 55.566406 85.636719 55.144531 C 85.988281 53.34375 86.140625 51.503906 86.09375 49.675781 C 86.082031 49.246094 86.421875 48.890625 86.851562 48.878906 C 87.269531 48.867188 87.640625 49.207031 87.652344 49.636719 C 87.699219 51.574219 87.539062 53.527344 87.164062 55.441406 C 87.09375 55.8125 86.765625 56.070312 86.402344 56.070312 Z M 86.402344 56.070312 " fill-opacity="1" fill-rule="nonzero"/><path fill="#af9178" d="M 70.335938 61.277344 C 69.941406 61.277344 69.601562 60.976562 69.5625 60.570312 L 69.042969 55.183594 C 69 54.757812 69.3125 54.375 69.742188 54.335938 C 70.160156 54.296875 70.550781 54.609375 70.589844 55.035156 L 71.109375 60.421875 C 71.152344 60.851562 70.839844 61.230469 70.410156 61.273438 C 70.386719 61.273438 70.359375 61.277344 70.335938 61.277344 Z M 70.335938 61.277344 " fill-opacity="1" fill-rule="nonzero"/><path fill="#af9178" d="M 80.039062 62.121094 C 80.003906 62.121094 79.964844 62.121094 79.925781 62.113281 C 79.5 62.050781 79.207031 61.65625 79.269531 61.230469 L 80.046875 55.921875 C 80.105469 55.496094 80.492188 55.195312 80.929688 55.265625 C 81.355469 55.328125 81.648438 55.722656 81.585938 56.148438 L 80.808594 61.457031 C 80.75 61.84375 80.417969 62.121094 80.039062 62.121094 Z M 80.039062 62.121094 " fill-opacity="1" fill-rule="nonzero"/><path fill="#2b2827" d="M 73.839844 91.289062 C 73.066406 91.289062 72.296875 90.996094 71.75 90.457031 C 71.445312 90.15625 71.441406 89.664062 71.746094 89.355469 C 72.046875 89.050781 72.539062 89.046875 72.847656 89.351562 C 73.191406 89.691406 73.789062 89.824219 74.265625 89.667969 C 74.730469 89.511719 75.105469 89.078125 75.15625 88.625 C 75.203125 88.199219 75.585938 87.898438 76.015625 87.9375 C 76.441406 87.984375 76.75 88.371094 76.703125 88.800781 C 76.585938 89.859375 75.800781 90.804688 74.753906 91.148438 C 74.457031 91.242188 74.148438 91.289062 73.839844 91.289062 Z M 73.839844 91.289062 " fill-opacity="1" fill-rule="nonzero"/><path fill="#2b2827" d="M 77.960938 90.941406 C 77.742188 90.941406 77.523438 90.917969 77.3125 90.871094 C 76.234375 90.621094 75.371094 89.75 75.160156 88.703125 C 75.074219 88.28125 75.347656 87.871094 75.765625 87.785156 C 76.191406 87.710938 76.601562 87.972656 76.683594 88.394531 C 76.773438 88.839844 77.1875 89.242188 77.664062 89.351562 C 78.15625 89.46875 78.738281 89.28125 79.050781 88.910156 C 79.328125 88.582031 79.820312 88.542969 80.148438 88.820312 C 80.476562 89.097656 80.515625 89.589844 80.238281 89.917969 C 79.6875 90.566406 78.824219 90.941406 77.960938 90.941406 Z M 77.960938 90.941406 " fill-opacity="1" fill-rule="nonzero"/><g clip-path="url(#da5133842d)"><path fill="#2b2827" d="M 49.628906 52.730469 C 49.488281 52.730469 49.34375 52.722656 49.199219 52.707031 C 48.125 52.578125 47.167969 52.003906 46.648438 51.167969 C 45.753906 49.742188 46.015625 47.71875 47.28125 46.246094 C 48.203125 45.171875 49.582031 44.367188 51.496094 43.785156 C 54.515625 42.863281 57.585938 43.21875 60.589844 43.742188 C 60.464844 43.601562 60.335938 43.449219 60.203125 43.277344 C 59.433594 42.277344 59.097656 41.03125 59.3125 39.945312 C 59.496094 38.988281 60.078125 38.203125 60.992188 37.671875 C 62.289062 36.914062 64.019531 36.941406 65.390625 37.742188 C 67.226562 38.808594 68.0625 40.535156 68.554688 42.390625 C 69.714844 40.359375 71.152344 38.484375 72.835938 36.796875 C 74.746094 34.886719 76.582031 34.160156 78.292969 34.644531 C 80.332031 35.222656 81.515625 37.328125 80.984375 39.441406 C 80.160156 42.710938 76.929688 44.179688 74.570312 45.253906 C 74.175781 45.433594 73.714844 45.257812 73.539062 44.867188 C 73.359375 44.476562 73.53125 44.011719 73.925781 43.835938 C 76.609375 42.613281 78.882812 41.410156 79.472656 39.058594 C 79.796875 37.769531 79.09375 36.492188 77.871094 36.144531 C 76.746094 35.832031 75.417969 36.414062 73.933594 37.898438 C 72.011719 39.824219 70.433594 42.011719 69.242188 44.402344 C 69.046875 44.792969 68.628906 45.015625 68.191406 44.953125 C 67.765625 44.894531 67.425781 44.570312 67.347656 44.152344 C 66.996094 42.269531 66.46875 40.171875 64.605469 39.089844 C 63.710938 38.566406 62.597656 38.539062 61.773438 39.015625 C 61.253906 39.320312 60.9375 39.734375 60.839844 40.242188 C 60.710938 40.886719 60.941406 41.683594 61.4375 42.324219 C 61.910156 42.941406 62.304688 43.289062 63.128906 43.804688 C 63.542969 44.066406 63.710938 44.566406 63.53125 45.023438 C 63.355469 45.480469 62.871094 45.742188 62.382812 45.65625 L 61.859375 45.558594 C 58.398438 44.914062 55.128906 44.308594 51.949219 45.277344 C 50.324219 45.769531 49.183594 46.417969 48.460938 47.261719 C 47.765625 48.070312 47.371094 49.390625 47.96875 50.34375 C 48.234375 50.765625 48.789062 51.085938 49.386719 51.15625 C 49.890625 51.21875 50.351562 51.089844 50.644531 50.808594 C 50.949219 50.507812 51.441406 50.511719 51.742188 50.820312 C 52.042969 51.125 52.039062 51.621094 51.730469 51.921875 C 51.195312 52.445312 50.445312 52.730469 49.628906 52.730469 Z M 49.628906 52.730469 " fill-opacity="1" fill-rule="nonzero"/></g><path fill="#2b2827" d="M 27.902344 70.796875 C 26.863281 70.796875 25.851562 70.367188 25.128906 69.601562 C 24.414062 68.84375 24.109375 67.855469 24.285156 66.894531 C 24.933594 63.382812 36.472656 53.191406 46.683594 49.347656 C 47.085938 49.199219 47.535156 49.398438 47.6875 49.804688 C 47.839844 50.207031 47.632812 50.65625 47.230469 50.808594 C 36.863281 54.707031 26.277344 64.675781 25.816406 67.179688 C 25.699219 67.816406 26.046875 68.300781 26.261719 68.53125 C 26.746094 69.046875 27.480469 69.304688 28.175781 69.222656 C 28.589844 69.15625 28.988281 69.472656 29.042969 69.902344 C 29.09375 70.328125 28.792969 70.71875 28.363281 70.769531 C 28.210938 70.789062 28.058594 70.796875 27.902344 70.796875 Z M 27.902344 70.796875 " fill-opacity="1" fill-rule="nonzero"/><path fill="#2b2827" d="M 23.234375 88.523438 C 21.664062 88.523438 20.039062 87.332031 19.632812 85.785156 C 19.25 84.3125 19.667969 82.84375 20.179688 81.476562 C 22.441406 75.425781 26.386719 70.03125 31.589844 65.878906 C 31.925781 65.609375 32.414062 65.664062 32.683594 66 C 32.949219 66.335938 32.894531 66.828125 32.558594 67.09375 C 27.578125 71.074219 23.800781 76.234375 21.640625 82.023438 C 21.21875 83.148438 20.863281 84.339844 21.140625 85.390625 C 21.359375 86.230469 22.5 87.125 23.492188 86.941406 C 23.914062 86.867188 24.320312 87.140625 24.398438 87.566406 C 24.476562 87.988281 24.199219 88.394531 23.777344 88.472656 C 23.597656 88.507812 23.417969 88.523438 23.234375 88.523438 Z M 23.234375 88.523438 " fill-opacity="1" fill-rule="nonzero"/><path fill="#2b2827" d="M 23.746094 100.574219 C 23.402344 100.574219 23.066406 100.519531 22.757812 100.402344 C 21.449219 99.90625 20.453125 98.644531 20.164062 97.113281 C 19.902344 95.734375 20.207031 94.339844 20.5 93.277344 C 21.445312 89.875 23.234375 86.378906 26.132812 82.273438 C 26.378906 81.921875 26.867188 81.839844 27.214844 82.089844 C 27.566406 82.335938 27.652344 82.824219 27.402344 83.171875 C 24.609375 87.128906 22.894531 90.46875 22 93.695312 C 21.734375 94.648438 21.492188 95.765625 21.691406 96.824219 C 21.839844 97.609375 22.34375 98.578125 23.3125 98.945312 C 24.035156 99.222656 25.433594 98.617188 25.757812 97.882812 C 25.933594 97.492188 26.394531 97.316406 26.785156 97.488281 C 27.179688 97.664062 27.355469 98.121094 27.179688 98.515625 C 26.644531 99.722656 25.113281 100.574219 23.746094 100.574219 Z M 23.746094 100.574219 " fill-opacity="1" fill-rule="nonzero"/><path fill="#2b2827" d="M 61.085938 118.164062 C 61.058594 118.164062 61.03125 118.160156 61.007812 118.160156 C 44.914062 116.527344 35.144531 112.195312 31.367188 108.683594 C 26.953125 104.582031 24.847656 99.089844 25.878906 94.347656 C 25.96875 93.929688 26.382812 93.660156 26.804688 93.753906 C 27.222656 93.84375 27.492188 94.261719 27.398438 94.679688 C 26.308594 99.703125 29.28125 104.617188 32.425781 107.542969 C 36.019531 110.878906 45.453125 115.015625 61.164062 116.609375 C 61.589844 116.652344 61.902344 117.035156 61.859375 117.460938 C 61.816406 117.863281 61.480469 118.164062 61.085938 118.164062 Z M 61.085938 118.164062 " fill-opacity="1" fill-rule="nonzero"/><path fill="#2b2827" d="M 93.402344 48.570312 C 93.042969 48.570312 92.722656 48.320312 92.640625 47.957031 C 92.550781 47.535156 92.820312 47.121094 93.238281 47.03125 C 93.957031 46.875 94.703125 46.714844 95.292969 46.363281 C 95.820312 46.054688 96.167969 45.585938 96.175781 45.171875 C 96.1875 44.269531 94.777344 43.632812 94.34375 43.457031 C 89.289062 41.429688 82.167969 42.714844 77.25 43.859375 C 76.835938 43.960938 76.414062 43.695312 76.316406 43.277344 C 76.21875 42.855469 76.480469 42.4375 76.898438 42.339844 C 82.019531 41.148438 89.460938 39.816406 94.921875 42.011719 C 96.726562 42.734375 97.75 43.898438 97.730469 45.195312 C 97.714844 46.171875 97.101562 47.109375 96.085938 47.707031 C 95.273438 48.183594 94.367188 48.378906 93.566406 48.554688 C 93.511719 48.566406 93.457031 48.570312 93.402344 48.570312 Z M 93.402344 48.570312 " fill-opacity="1" fill-rule="nonzero"/><path fill="#2b2827" d="M 119.324219 62.675781 C 118.375 62.675781 117.394531 62.28125 116.597656 61.574219 C 116.273438 61.285156 116.246094 60.792969 116.53125 60.472656 C 116.816406 60.148438 117.304688 60.121094 117.628906 60.40625 C 118.195312 60.910156 118.875 61.164062 119.492188 61.109375 C 119.898438 61.070312 120.242188 60.894531 120.460938 60.613281 C 121.046875 59.851562 120.742188 58.695312 120.136719 57.945312 C 118.441406 55.84375 109.425781 49.5625 95.378906 47.929688 C 94.953125 47.878906 94.644531 47.492188 94.695312 47.066406 C 94.746094 46.636719 95.132812 46.328125 95.558594 46.382812 C 111.210938 48.203125 120.007812 55.304688 121.347656 56.964844 C 122.308594 58.15625 122.824219 60.101562 121.695312 61.5625 C 121.210938 62.191406 120.480469 62.582031 119.640625 62.660156 C 119.535156 62.671875 119.429688 62.675781 119.324219 62.675781 Z M 119.324219 62.675781 " fill-opacity="1" fill-rule="nonzero"/><path fill="#2b2827" d="M 127.71875 79.164062 C 127.136719 79.164062 126.5625 79.039062 126.082031 78.832031 C 124.902344 78.320312 124.074219 77.402344 123.34375 76.59375 C 123.054688 76.277344 123.078125 75.785156 123.398438 75.496094 C 123.714844 75.207031 124.207031 75.230469 124.496094 75.550781 C 125.152344 76.273438 125.828125 77.023438 126.699219 77.402344 C 127.390625 77.699219 128.394531 77.71875 128.902344 77.167969 C 129.597656 76.414062 129.003906 75.046875 128.378906 74.03125 C 125.832031 69.882812 122.53125 65.8125 119.613281 62.21875 C 119.34375 61.882812 119.394531 61.394531 119.726562 61.121094 C 120.0625 60.851562 120.550781 60.902344 120.824219 61.234375 C 123.769531 64.867188 127.105469 68.980469 129.707031 73.21875 C 131.34375 75.886719 130.796875 77.417969 130.046875 78.226562 C 129.425781 78.898438 128.5625 79.164062 127.71875 79.164062 Z M 127.71875 79.164062 " fill-opacity="1" fill-rule="nonzero"/><path fill="#2b2827" d="M 127.621094 90.953125 C 127.03125 90.953125 126.433594 90.800781 125.941406 90.527344 C 124.851562 89.925781 124.183594 88.898438 123.652344 88.070312 C 123.417969 87.710938 123.519531 87.230469 123.882812 86.996094 C 124.242188 86.761719 124.726562 86.863281 124.957031 87.226562 C 125.421875 87.941406 125.945312 88.75 126.691406 89.164062 C 127.265625 89.476562 128.179688 89.492188 128.542969 89.03125 C 128.808594 88.691406 128.785156 88.121094 128.722656 87.558594 C 128.351562 84.355469 127.222656 81.117188 125.546875 78.4375 C 125.316406 78.074219 125.429688 77.59375 125.792969 77.363281 C 126.15625 77.136719 126.636719 77.246094 126.863281 77.609375 C 128.664062 80.484375 129.871094 83.953125 130.265625 87.378906 C 130.367188 88.230469 130.382812 89.210938 129.765625 89.996094 C 129.242188 90.664062 128.433594 90.953125 127.621094 90.953125 Z M 127.621094 90.953125 " fill-opacity="1" fill-rule="nonzero"/><path fill="#2b2827" d="M 101.707031 114.003906 C 101.355469 114.003906 101.039062 113.765625 100.953125 113.40625 C 100.851562 112.988281 101.105469 112.570312 101.523438 112.464844 C 111.085938 110.125 117.421875 105.570312 119.941406 102.382812 C 122.867188 98.683594 124.59375 92.492188 123.875 88.289062 C 123.800781 87.863281 124.085938 87.460938 124.507812 87.390625 C 124.933594 87.316406 125.335938 87.601562 125.40625 88.023438 C 126.207031 92.6875 124.382812 99.277344 121.164062 103.347656 C 118.363281 106.894531 111.828125 111.546875 101.894531 113.980469 C 101.832031 113.996094 101.769531 114.003906 101.707031 114.003906 Z M 101.707031 114.003906 " fill-opacity="1" fill-rule="nonzero"/><path fill="#2b2827" d="M 74.980469 119.410156 C 54.90625 119.410156 34.90625 111.535156 32.238281 97.222656 C 30.484375 87.816406 33.234375 78.3125 39.601562 71.804688 C 46.089844 65.171875 55.90625 61.722656 65.339844 62.738281 C 65.636719 61.878906 66.074219 61.058594 66.640625 60.324219 C 66.90625 59.984375 67.394531 59.925781 67.734375 60.1875 C 68.074219 60.449219 68.136719 60.941406 67.875 61.28125 C 66.757812 62.722656 66.257812 64.554688 66.507812 66.304688 C 66.601562 66.949219 66.785156 67.386719 67.074219 67.648438 C 67.441406 67.980469 68.097656 68.097656 68.746094 67.949219 C 69.328125 67.8125 69.910156 67.496094 70.632812 66.925781 C 71.5625 66.1875 71.910156 65.828125 72.746094 64.953125 L 73.527344 64.140625 C 73.847656 63.8125 74.351562 63.738281 74.75 63.964844 C 75.140625 64.183594 75.328125 64.617188 75.21875 65.042969 C 75.082031 65.574219 75.167969 65.984375 75.46875 66.273438 C 75.84375 66.628906 76.507812 66.761719 77.050781 66.589844 C 77.746094 66.375 78.371094 65.933594 79.03125 65.46875 L 79.378906 65.222656 C 87.375 59.667969 97.855469 58.8125 106.078125 63.039062 C 114.296875 67.265625 119.855469 75.636719 120.585938 84.890625 C 122.253906 106.152344 103.148438 116.335938 84.714844 118.777344 C 81.515625 119.203125 78.246094 119.410156 74.980469 119.410156 Z M 62.054688 64.121094 C 54.089844 64.121094 46.160156 67.324219 40.714844 72.894531 C 34.703125 79.039062 32.105469 88.027344 33.765625 96.9375 C 36.710938 112.710938 62.382812 120.164062 84.507812 117.234375 C 102.238281 114.882812 120.617188 105.1875 119.03125 85.011719 C 118.359375 76.425781 112.992188 68.347656 105.363281 64.425781 C 97.765625 60.515625 87.679688 61.355469 80.265625 66.503906 L 79.929688 66.738281 C 79.199219 67.257812 78.441406 67.789062 77.515625 68.078125 C 76.429688 68.417969 75.179688 68.144531 74.398438 67.402344 C 74.046875 67.070312 73.808594 66.667969 73.691406 66.21875 C 72.945312 66.992188 72.539062 67.402344 71.597656 68.144531 C 71.03125 68.59375 70.15625 69.21875 69.09375 69.464844 C 67.949219 69.730469 66.777344 69.476562 66.03125 68.804688 C 65.460938 68.289062 65.113281 67.542969 64.96875 66.527344 C 64.859375 65.773438 64.863281 65.015625 64.972656 64.265625 C 64 64.167969 63.027344 64.121094 62.054688 64.121094 Z M 62.054688 64.121094 " fill-opacity="1" fill-rule="nonzero"/><g clip-path="url(#19d7fc6f52)"><path fill="#2b2827" d="M 141.40625 119.542969 L 8.710938 119.542969 C 8.28125 119.542969 7.933594 119.195312 7.933594 118.765625 C 7.933594 118.335938 8.28125 117.984375 8.710938 117.984375 L 141.40625 117.984375 C 141.835938 117.984375 142.183594 118.335938 142.183594 118.765625 C 142.183594 119.195312 141.835938 119.542969 141.40625 119.542969 Z M 141.40625 119.542969 " fill-opacity="1" fill-rule="nonzero"/></g><path fill="#e4d2b6" d="M 53.625 112.019531 C 54.410156 112.042969 55.183594 112.121094 55.949219 112.25 C 56.714844 112.378906 57.457031 112.5625 58.175781 112.792969 C 58.894531 113.027344 59.574219 113.304688 60.21875 113.632812 C 60.863281 113.957031 61.457031 114.324219 62 114.730469 C 62.542969 115.140625 63.023438 115.578125 63.445312 116.050781 C 63.871094 116.523438 64.222656 117.019531 64.507812 117.539062 C 64.792969 118.058594 65.003906 118.59375 65.144531 119.140625 C 65.28125 119.6875 65.339844 120.238281 65.324219 120.789062 C 65.308594 121.34375 65.214844 121.890625 65.046875 122.425781 C 64.878906 122.964844 64.636719 123.484375 64.324219 123.988281 C 64.007812 124.492188 63.625 124.964844 63.175781 125.414062 C 62.726562 125.859375 62.21875 126.269531 61.65625 126.644531 C 61.089844 127.019531 60.476562 127.351562 59.8125 127.640625 C 59.152344 127.929688 58.457031 128.167969 57.726562 128.359375 C 56.996094 128.550781 56.246094 128.6875 55.472656 128.773438 C 54.699219 128.859375 53.921875 128.890625 53.136719 128.867188 C 52.355469 128.847656 51.578125 128.769531 50.8125 128.640625 C 50.046875 128.507812 49.304688 128.328125 48.585938 128.09375 C 47.867188 127.863281 47.1875 127.582031 46.542969 127.257812 C 45.898438 126.929688 45.308594 126.5625 44.761719 126.15625 C 44.21875 125.75 43.738281 125.308594 43.316406 124.835938 C 42.894531 124.363281 42.539062 123.867188 42.253906 123.347656 C 41.96875 122.828125 41.757812 122.296875 41.621094 121.75 C 41.480469 121.203125 41.421875 120.652344 41.4375 120.097656 C 41.453125 119.546875 41.546875 119 41.714844 118.460938 C 41.882812 117.925781 42.125 117.402344 42.441406 116.902344 C 42.753906 116.398438 43.136719 115.925781 43.585938 115.476562 C 44.035156 115.03125 44.542969 114.617188 45.109375 114.242188 C 45.671875 113.867188 46.285156 113.535156 46.949219 113.25 C 47.609375 112.960938 48.304688 112.71875 49.035156 112.53125 C 49.765625 112.339844 50.515625 112.199219 51.289062 112.113281 C 52.0625 112.03125 52.839844 111.996094 53.625 112.019531 Z M 53.625 112.019531 " fill-opacity="1" fill-rule="nonzero"/><g clip-path="url(#26cc40ff5d)"><path fill="#2b2827" d="M 53.628906 129.660156 C 53.457031 129.660156 53.285156 129.65625 53.113281 129.652344 C 49.765625 129.554688 46.632812 128.535156 44.296875 126.785156 C 41.878906 124.972656 40.585938 122.589844 40.660156 120.078125 C 40.730469 117.570312 42.160156 115.265625 44.679688 113.597656 C 47.113281 111.984375 50.285156 111.164062 53.648438 111.246094 C 56.996094 111.34375 60.128906 112.363281 62.464844 114.113281 C 64.882812 115.925781 66.175781 118.308594 66.101562 120.816406 C 65.957031 125.765625 60.410156 129.660156 53.628906 129.660156 Z M 41.4375 120.101562 L 42.214844 120.125 C 42.15625 122.113281 43.226562 124.035156 45.230469 125.539062 C 47.3125 127.097656 50.128906 128.007812 53.160156 128.09375 C 59.316406 128.308594 64.425781 124.988281 64.546875 120.773438 C 64.605469 118.78125 63.535156 116.859375 61.53125 115.359375 C 59.449219 113.800781 56.632812 112.890625 53.601562 112.804688 C 50.558594 112.695312 47.707031 113.460938 45.539062 114.898438 C 43.453125 116.28125 42.273438 118.136719 42.214844 120.125 Z M 41.4375 120.101562 " fill-opacity="1" fill-rule="nonzero"/></g><path fill="#6e5958" d="M 64.167969 123.914062 C 60.238281 125.859375 55.535156 126.476562 51.421875 124.964844 C 47.308594 123.449219 43.980469 119.601562 43.679688 115.226562 C 42.074219 116.433594 41.34375 118.605469 41.636719 120.597656 C 41.929688 122.585938 43.148438 124.367188 44.746094 125.589844 C 46.339844 126.808594 48.285156 127.511719 50.261719 127.875 C 54.96875 128.746094 59.996094 127.734375 64.167969 123.914062 Z M 64.167969 123.914062 " fill-opacity="0.2" fill-rule="nonzero"/><path fill="#ffffff" d="M 46.8125 115.023438 C 53.0625 114.25 59.617188 117.679688 62.550781 123.257812 C 63.652344 121.15625 62.984375 118.417969 61.355469 116.699219 C 59.722656 114.976562 57.316406 114.164062 54.953125 114.003906 C 52.585938 113.847656 50.226562 114.277344 46.8125 115.023438 Z M 46.8125 115.023438 " fill-opacity="0.2" fill-rule="nonzero"/><path fill="#e4d2b6" d="M 108.667969 119.695312 C 108.703125 120.246094 108.664062 120.796875 108.542969 121.347656 C 108.425781 121.898438 108.230469 122.441406 107.964844 122.96875 C 107.695312 123.5 107.359375 124.003906 106.953125 124.492188 C 106.546875 124.980469 106.078125 125.433594 105.550781 125.859375 C 105.019531 126.285156 104.441406 126.671875 103.808594 127.019531 C 103.175781 127.367188 102.503906 127.667969 101.796875 127.925781 C 101.085938 128.183594 100.351562 128.390625 99.589844 128.546875 C 98.828125 128.703125 98.054688 128.804688 97.273438 128.851562 C 96.488281 128.902344 95.710938 128.898438 94.9375 128.835938 C 94.160156 128.777344 93.40625 128.664062 92.667969 128.5 C 91.933594 128.332031 91.230469 128.117188 90.558594 127.851562 C 89.886719 127.585938 89.265625 127.273438 88.6875 126.917969 C 88.109375 126.5625 87.585938 126.167969 87.121094 125.738281 C 86.660156 125.304688 86.261719 124.84375 85.929688 124.351562 C 85.597656 123.859375 85.339844 123.347656 85.152344 122.816406 C 84.964844 122.285156 84.855469 121.742188 84.820312 121.191406 C 84.785156 120.640625 84.828125 120.085938 84.945312 119.535156 C 85.066406 118.984375 85.257812 118.445312 85.527344 117.914062 C 85.792969 117.386719 86.132812 116.878906 86.539062 116.390625 C 86.945312 115.90625 87.410156 115.449219 87.941406 115.023438 C 88.46875 114.597656 89.050781 114.210938 89.683594 113.863281 C 90.3125 113.515625 90.984375 113.214844 91.695312 112.957031 C 92.40625 112.703125 93.140625 112.496094 93.902344 112.339844 C 94.664062 112.183594 95.433594 112.082031 96.21875 112.03125 C 97 111.980469 97.78125 111.988281 98.554688 112.046875 C 99.328125 112.105469 100.085938 112.21875 100.820312 112.386719 C 101.558594 112.550781 102.261719 112.765625 102.933594 113.03125 C 103.601562 113.300781 104.226562 113.609375 104.804688 113.964844 C 105.382812 114.320312 105.902344 114.714844 106.367188 115.148438 C 106.832031 115.578125 107.230469 116.039062 107.558594 116.53125 C 107.890625 117.023438 108.152344 117.535156 108.339844 118.066406 C 108.523438 118.597656 108.636719 119.140625 108.667969 119.695312 Z M 108.667969 119.695312 " fill-opacity="1" fill-rule="nonzero"/><g clip-path="url(#d2eb843b29)"><path fill="#2b2827" d="M 96.210938 129.671875 C 89.699219 129.671875 84.34375 126.042969 84.042969 121.246094 C 83.886719 118.738281 85.097656 116.316406 87.453125 114.421875 C 89.730469 112.59375 92.828125 111.472656 96.171875 111.261719 C 99.511719 111.050781 102.726562 111.777344 105.214844 113.308594 C 107.789062 114.890625 109.289062 117.144531 109.449219 119.652344 C 109.605469 122.160156 108.394531 124.582031 106.039062 126.476562 C 103.761719 128.304688 100.664062 129.425781 97.320312 129.636719 C 96.949219 129.660156 96.578125 129.671875 96.210938 129.671875 Z M 97.300781 112.78125 C 96.960938 112.78125 96.613281 112.792969 96.265625 112.816406 C 93.242188 113.007812 90.457031 114.007812 88.429688 115.640625 C 86.476562 117.207031 85.472656 119.164062 85.597656 121.148438 C 85.863281 125.359375 91.082031 128.476562 97.222656 128.082031 C 100.25 127.890625 103.035156 126.890625 105.0625 125.257812 C 107.011719 123.691406 108.019531 121.734375 107.894531 119.75 C 107.769531 117.761719 106.527344 115.945312 104.398438 114.636719 C 102.4375 113.429688 99.949219 112.78125 97.300781 112.78125 Z M 97.300781 112.78125 " fill-opacity="1" fill-rule="nonzero"/></g><path fill="#6e5958" d="M 107.957031 122.863281 C 107.183594 124.445312 102.960938 124.941406 100.296875 125.332031 C 97.632812 125.71875 94.847656 125.527344 92.371094 124.472656 C 91.1875 123.964844 90.066406 123.25 89.265625 122.242188 C 87.667969 120.222656 87.605469 117.425781 87.613281 114.851562 C 85.359375 116.417969 84.5625 119.625 85.460938 122.222656 C 86.355469 124.820312 88.703125 126.757812 91.328125 127.574219 C 93.949219 128.386719 97.363281 129.105469 100.027344 128.453125 C 107.867188 126.535156 104.632812 125.109375 107.957031 122.863281 Z M 107.957031 122.863281 " fill-opacity="0.2" fill-rule="nonzero"/><path fill="#ffffff" d="M 89.992188 116.167969 C 92.851562 114.957031 96.195312 114.945312 99.066406 116.128906 C 101.9375 117.316406 104.296875 119.683594 105.472656 122.5625 C 106.875 120.421875 106.164062 117.347656 104.296875 115.601562 C 102.429688 113.855469 99.699219 113.289062 97.15625 113.515625 C 94.609375 113.746094 92.1875 114.679688 89.992188 116.167969 Z M 89.992188 116.167969 " fill-opacity="0.2" fill-rule="nonzero"/></svg>