<svg xmlns="http://www.w3.org/2000/svg" xmlns:xlink="http://www.w3.org/1999/xlink" width="150" zoomAndPan="magnify" viewBox="0 0 112.5 112.499997" height="150" preserveAspectRatio="xMidYMid meet" version="1.0"><defs><clipPath id="7a0d8d9089"><path d="M 89 24 L 102.292969 24 L 102.292969 88 L 89 88 Z M 89 24 " clip-rule="nonzero"/></clipPath><clipPath id="27fec7a23e"><path d="M 9.703125 24 L 22 24 L 22 88 L 9.703125 88 Z M 9.703125 24 " clip-rule="nonzero"/></clipPath></defs><g clip-path="url(#7a0d8d9089)"><path fill="#5ce1e6" d="M 99.902344 87.03125 L 92.105469 87.03125 C 90.957031 87.03125 89.980469 86.054688 89.980469 84.90625 L 89.980469 26.820312 C 89.980469 25.671875 90.957031 24.699219 92.105469 24.699219 L 99.902344 24.699219 C 101.105469 24.699219 102.023438 25.671875 102.023438 26.820312 L 102.023438 84.90625 C 102.023438 86.054688 101.105469 87.03125 99.902344 87.03125 Z M 99.902344 87.03125 " fill-opacity="1" fill-rule="evenodd"/></g><path fill="#ff66c4" d="M 83.902344 85.480469 C 83.273438 85.480469 82.757812 84.964844 82.757812 84.335938 L 82.757812 27.394531 C 82.757812 26.761719 83.273438 26.246094 83.902344 26.246094 C 84.535156 26.246094 85.050781 26.761719 85.050781 27.394531 L 85.050781 84.335938 C 85.050781 84.964844 84.535156 85.480469 83.902344 85.480469 Z M 83.902344 85.480469 " fill-opacity="1" fill-rule="evenodd"/><g clip-path="url(#27fec7a23e)"><path fill="#5ce1e6" d="M 19.625 87.03125 L 11.882812 87.03125 C 10.679688 87.03125 9.703125 86.054688 9.703125 84.90625 L 9.703125 26.820312 C 9.703125 25.671875 10.679688 24.699219 11.882812 24.699219 L 19.625 24.699219 C 20.828125 24.699219 21.746094 25.671875 21.746094 26.820312 L 21.746094 84.90625 C 21.746094 86.054688 20.828125 87.03125 19.625 87.03125 Z M 19.625 87.03125 " fill-opacity="1" fill-rule="evenodd"/></g><path fill="#ff66c4" d="M 27.882812 85.480469 C 27.25 85.480469 26.734375 84.964844 26.734375 84.335938 L 26.734375 27.394531 C 26.734375 26.761719 27.25 26.246094 27.882812 26.246094 C 28.511719 26.246094 29.027344 26.761719 29.027344 27.394531 L 29.027344 84.335938 C 29.027344 84.964844 28.511719 85.480469 27.882812 85.480469 Z M 27.882812 85.480469 " fill-opacity="1" fill-rule="evenodd"/><path fill="#ff66c4" d="M 63.03125 51.648438 C 62.859375 51.648438 62.6875 51.59375 62.515625 51.535156 C 62.113281 51.304688 61.886719 50.960938 61.886719 50.503906 L 61.886719 44.023438 L 49.902344 44.023438 L 49.902344 50.503906 C 49.902344 50.960938 49.671875 51.304688 49.269531 51.535156 C 48.867188 51.707031 48.410156 51.707031 48.066406 51.421875 L 33.617188 41.15625 C 33.328125 40.925781 33.15625 40.582031 33.15625 40.179688 C 33.15625 39.835938 33.328125 39.492188 33.617188 39.265625 L 48.066406 28.941406 C 48.410156 28.710938 48.867188 28.65625 49.269531 28.886719 C 49.671875 29.058594 49.902344 29.457031 49.902344 29.859375 L 49.902344 36.398438 L 61.886719 36.398438 L 61.886719 29.859375 C 61.886719 29.457031 62.113281 29.058594 62.515625 28.886719 C 62.859375 28.65625 63.320312 28.710938 63.71875 28.941406 L 78.171875 39.265625 C 78.457031 39.492188 78.628906 39.835938 78.628906 40.179688 C 78.628906 40.582031 78.457031 40.925781 78.171875 41.15625 L 63.71875 51.421875 C 63.492188 51.59375 63.261719 51.648438 63.03125 51.648438 Z M 63.03125 51.648438 " fill-opacity="1" fill-rule="evenodd"/><path fill="#ff66c4" d="M 63.03125 82.957031 C 62.859375 82.957031 62.6875 82.957031 62.515625 82.84375 C 62.113281 82.671875 61.886719 82.269531 61.886719 81.8125 L 61.886719 75.332031 L 49.902344 75.332031 L 49.902344 81.8125 C 49.902344 82.269531 49.671875 82.671875 49.269531 82.84375 C 48.867188 83.074219 48.410156 83.015625 48.066406 82.785156 L 33.617188 72.464844 C 33.328125 72.234375 33.15625 71.890625 33.15625 71.488281 C 33.15625 71.144531 33.328125 70.800781 33.617188 70.574219 L 48.066406 60.25 C 48.410156 60.019531 48.867188 59.964844 49.269531 60.195312 C 49.671875 60.367188 49.902344 60.765625 49.902344 61.226562 L 49.902344 67.707031 L 61.886719 67.707031 L 61.886719 61.226562 C 61.886719 60.765625 62.113281 60.367188 62.515625 60.195312 C 62.859375 59.964844 63.320312 60.019531 63.71875 60.25 L 78.171875 70.574219 C 78.457031 70.800781 78.628906 71.144531 78.628906 71.488281 C 78.628906 71.890625 78.457031 72.234375 78.171875 72.464844 L 63.71875 82.785156 C 63.492188 82.902344 63.261719 82.957031 63.03125 82.957031 Z M 63.03125 82.957031 " fill-opacity="1" fill-rule="evenodd"/></svg>