<svg xmlns="http://www.w3.org/2000/svg" xmlns:xlink="http://www.w3.org/1999/xlink" width="200" zoomAndPan="magnify" viewBox="0 0 150 149.999998" height="200" preserveAspectRatio="xMidYMid meet" version="1.0"><defs><clipPath id="901a618fe2"><path d="M 37.183594 31.222656 L 112.933594 31.222656 L 112.933594 129 L 37.183594 129 Z M 37.183594 31.222656 " clip-rule="nonzero"/></clipPath><clipPath id="d74e1d25b9"><path d="M 58 120 L 99 120 L 99 134.722656 L 58 134.722656 Z M 58 120 " clip-rule="nonzero"/></clipPath></defs><path fill="#fad151" d="M 96.871094 56.429688 L 93.410156 66.820312 L 74.917969 34.230469 L 56.195312 59.277344 L 54.308594 51.988281 C 54.308594 51.988281 38.757812 71.6875 38.757812 91.011719 C 38.757812 110.777344 54.9375 126.789062 74.902344 126.789062 C 94.871094 126.789062 111.421875 110.765625 111.050781 91.011719 C 110.707031 71.6875 96.871094 56.429688 96.871094 56.429688 Z M 96.871094 56.429688 " fill-opacity="1" fill-rule="nonzero"/><g clip-path="url(#901a618fe2)"><path fill="#000000" d="M 74.917969 128.398438 C 54.09375 128.398438 37.171875 111.632812 37.171875 91.011719 C 37.171875 71.359375 52.421875 51.832031 53.0625 51.007812 L 55.066406 48.476562 L 56.921875 55.648438 L 75.101562 31.3125 L 93.039062 62.90625 L 96.226562 53.34375 L 98.070312 55.378906 C 98.644531 56.003906 112.292969 71.289062 112.664062 90.984375 C 112.851562 100.71875 109.121094 109.96875 102.160156 117.027344 C 95.042969 124.253906 85.109375 128.398438 74.917969 128.398438 Z M 53.621094 55.691406 C 49.503906 61.667969 40.371094 76.566406 40.371094 91.011719 C 40.371094 109.867188 55.867188 125.195312 74.917969 125.195312 C 84.265625 125.195312 93.355469 121.410156 99.871094 114.792969 C 106.21875 108.34375 109.621094 99.921875 109.460938 91.039062 C 109.191406 76.695312 101.144531 64.527344 97.472656 59.71875 L 93.8125 70.746094 L 74.746094 37.160156 L 55.480469 62.90625 Z M 53.621094 55.691406 " fill-opacity="1" fill-rule="nonzero"/></g><path fill="#f65555" d="M 74.917969 117.210938 C 60.28125 117.210938 48.390625 105.457031 48.390625 90.996094 C 48.390625 86.628906 49.460938 82.03125 51.035156 77.675781 C 53.191406 79.46875 56.453125 78.957031 57.953125 76.59375 L 73.816406 51.734375 L 90.152344 80.507812 C 92.296875 84.28125 97.914062 83.738281 99.285156 79.625 C 100.515625 83.171875 101.371094 87.082031 101.445312 91.183594 C 101.574219 97.898438 98.984375 104.304688 94.15625 109.199219 C 89.125 114.292969 82.121094 117.210938 74.917969 117.210938 Z M 74.917969 117.210938 " fill-opacity="1" fill-rule="nonzero"/><path fill="#fabf88" d="M 88.09375 129.992188 L 88.09375 125.066406 C 88.09375 125.066406 93.210938 118.148438 94.242188 108.558594 C 94.753906 103.777344 95.882812 94.710938 95.882812 94.710938 L 83.464844 88.550781 L 77.890625 87.140625 C 76.445312 85.375 67.472656 85.21875 66.171875 84.335938 C 64.425781 83.140625 61.054688 83.925781 59.640625 84.152344 C 53.808594 85.132812 48.847656 98.527344 49.320312 101.796875 C 49.792969 105.070312 58.082031 111.589844 60.152344 115.035156 C 62.238281 118.476562 62.726562 123.699219 62.726562 123.699219 L 62.742188 129.976562 L 88.09375 129.976562 Z M 88.09375 129.992188 " fill-opacity="1" fill-rule="nonzero"/><path fill="#000000" d="M 61.140625 131.585938 L 61.125 123.714844 C 61.125 123.714844 60.625 118.917969 58.78125 115.875 C 58.023438 114.621094 56.136719 112.699219 54.320312 110.851562 C 50.550781 107.007812 48.0625 104.316406 47.734375 102.039062 C 47.203125 98.328125 52.292969 83.796875 59.367188 82.601562 L 59.808594 82.515625 C 61.726562 82.160156 64.941406 81.589844 67.070312 83.027344 C 67.441406 83.183594 69.300781 83.441406 70.671875 83.625 C 74.546875 84.152344 77.289062 84.59375 78.675781 85.703125 L 84.164062 87.125 L 97.601562 93.785156 L 97.457031 94.910156 C 97.441406 94.996094 96.328125 104.019531 95.828125 108.730469 C 94.898438 117.367188 90.867188 123.84375 89.695312 125.578125 L 89.695312 131.597656 L 86.496094 131.597656 L 86.496094 124.554688 L 86.808594 124.128906 C 86.851562 124.054688 91.683594 117.410156 92.65625 108.386719 C 93.054688 104.644531 93.839844 98.210938 94.15625 95.636719 L 82.90625 90.058594 L 76.988281 88.5625 L 76.660156 88.152344 C 75.988281 87.554688 72.117188 87.042969 70.257812 86.785156 C 67.457031 86.402344 66.070312 86.203125 65.269531 85.660156 C 64.242188 84.949219 61.539062 85.445312 60.394531 85.644531 L 59.910156 85.730469 C 55.351562 86.5 50.507812 98.738281 50.90625 101.585938 C 51.105469 103.007812 54.292969 106.253906 56.609375 108.617188 C 58.652344 110.691406 60.582031 112.65625 61.527344 114.222656 C 63.769531 117.9375 64.296875 123.332031 64.3125 123.558594 L 64.339844 131.570312 Z M 61.140625 131.585938 " fill-opacity="1" fill-rule="nonzero"/><path fill="#fabf88" d="M 62.070312 82.230469 C 62.097656 75.726562 67.140625 73.109375 68.757812 73.28125 C 72.703125 73.707031 73.289062 76.070312 73.945312 77.75 C 73.960938 77.804688 74.03125 77.820312 74.074219 77.777344 C 74.460938 77.351562 76.0625 75.683594 77.476562 75.828125 C 79.089844 75.996094 81.605469 75.457031 82.792969 79.613281 C 82.9375 80.125 83.035156 80.636719 83.09375 81.136719 C 83.09375 81.191406 83.164062 81.21875 83.207031 81.191406 C 83.648438 80.921875 85.421875 79.898438 86.824219 80.039062 L 87.550781 80.125 C 88.695312 80.253906 89.710938 80.863281 90.324219 81.816406 C 91.097656 83.042969 91.996094 84.765625 91.882812 86.144531 C 91.882812 86.1875 91.910156 86.230469 91.953125 86.230469 C 92.613281 86.214844 96.585938 86.300781 97.183594 90.03125 C 98.257812 96.675781 92.15625 104.789062 86.75 103.40625 C 85.238281 103.023438 84.765625 101.742188 84.636719 100.6875 C 84.636719 100.6875 81.09375 102.808594 78.117188 100.0625 C 77.320312 99.324219 76.890625 98.453125 76.691406 97.585938 C 76.691406 97.585938 72.644531 97.871094 71.375 94.511719 Z M 62.070312 82.230469 " fill-opacity="1" fill-rule="nonzero"/><path fill="#000000" d="M 88.023438 105.15625 C 87.464844 105.15625 86.910156 105.085938 86.367188 104.945312 C 85.121094 104.628906 84.195312 103.875 83.636719 102.792969 C 81.777344 103.277344 79.21875 103.222656 77.046875 101.230469 C 76.390625 100.632812 75.890625 99.921875 75.53125 99.125 C 73.917969 98.9375 71.1875 98.199219 69.972656 95.296875 L 60.46875 82.773438 L 60.46875 82.230469 C 60.480469 78.828125 61.753906 75.828125 64.070312 73.777344 C 65.640625 72.367188 67.542969 71.542969 68.941406 71.699219 C 72.300781 72.054688 73.789062 73.664062 74.601562 75.1875 C 75.488281 74.589844 76.546875 74.132812 77.660156 74.246094 C 77.847656 74.261719 78.046875 74.277344 78.261719 74.289062 C 79.890625 74.359375 82.878906 74.488281 84.265625 78.914062 C 85.109375 78.601562 86.078125 78.359375 87.007812 78.472656 L 87.753906 78.558594 C 89.394531 78.730469 90.824219 79.613281 91.695312 80.992188 C 92.582031 82.375 93.140625 83.625 93.382812 84.75 C 95.800781 85.121094 98.269531 86.558594 98.800781 89.789062 C 99.5 94.113281 97.527344 99.363281 93.996094 102.566406 C 92.113281 104.261719 90.039062 105.15625 88.023438 105.15625 Z M 85.9375 98.097656 L 86.238281 100.488281 C 86.378906 101.65625 86.910156 101.796875 87.152344 101.855469 C 89.066406 102.355469 90.898438 101.03125 91.8125 100.191406 C 94.542969 97.714844 96.140625 93.542969 95.597656 90.273438 C 95.210938 87.921875 92.742188 87.796875 91.984375 87.824219 L 91.28125 87.839844 L 90.238281 86.800781 L 90.269531 86.03125 C 90.324219 85.304688 89.824219 84.050781 88.953125 82.671875 C 88.609375 82.132812 88.023438 81.777344 87.367188 81.703125 L 86.636719 81.617188 C 85.964844 81.546875 84.835938 82.046875 84.035156 82.542969 L 83.292969 83 L 81.648438 82.273438 L 81.492188 81.347656 C 81.433594 80.878906 81.347656 80.453125 81.234375 80.054688 C 80.519531 77.578125 79.5625 77.535156 78.089844 77.464844 C 77.804688 77.449219 77.53125 77.433594 77.289062 77.40625 C 77.03125 77.40625 76.117188 77.863281 75.246094 78.828125 L 74.644531 79.5 L 72.800781 79.183594 L 72.273438 77.90625 C 71.6875 76.367188 71.230469 75.144531 68.570312 74.859375 C 68.300781 74.875 67.140625 75.199219 65.984375 76.324219 C 65 77.277344 63.8125 78.972656 63.667969 81.703125 L 72.859375 93.929688 C 73.6875 96.105469 76.460938 95.976562 76.574219 95.976562 L 77.917969 95.90625 L 78.234375 97.214844 C 78.390625 97.886719 78.707031 98.441406 79.191406 98.894531 C 81.191406 100.730469 83.550781 99.464844 83.808594 99.308594 Z M 85.9375 98.097656 " fill-opacity="1" fill-rule="nonzero"/><path fill="#fabf88" d="M 74.917969 110.835938 C 73.316406 102.851562 63.582031 98.496094 63.582031 98.496094 C 63.582031 98.496094 62.769531 98.410156 62.855469 97.613281 C 62.996094 96.292969 64.199219 95.335938 65.542969 95.480469 C 65.542969 95.480469 70.101562 94.867188 71.929688 93.742188 C 75.019531 91.851562 75.761719 88.519531 74.316406 86.757812 C 72.875 84.992188 67.570312 85.019531 66.15625 84.335938 C 63.554688 83.070312 61.039062 83.925781 59.625 84.152344 C 53.792969 85.132812 49.304688 98.496094 49.304688 101.796875 C 49.304688 103.234375 53.148438 107.335938 53.148438 107.335938 L 59.394531 113.980469 Z M 74.917969 110.835938 " fill-opacity="1" fill-rule="nonzero"/><path fill="#000000" d="M 59.339844 116.242188 L 52.007812 108.445312 C 50.046875 106.367188 47.734375 103.519531 47.734375 101.8125 C 47.734375 98.367188 52.25 83.8125 59.394531 82.601562 C 59.597656 82.574219 59.808594 82.515625 60.054688 82.472656 C 61.597656 82.144531 64.199219 81.605469 66.898438 82.929688 C 67.183594 83.070312 68.273438 83.226562 69.070312 83.355469 C 71.5 83.738281 74.273438 84.167969 75.589844 85.773438 C 76.488281 86.882812 76.847656 88.351562 76.574219 89.914062 C 76.21875 91.992188 74.847656 93.886719 72.800781 95.136719 C 70.746094 96.390625 66.285156 97.015625 65.785156 97.089844 L 65.597656 97.117188 L 65.398438 97.101562 C 65.183594 97.074219 64.957031 97.144531 64.785156 97.273438 C 64.769531 97.273438 64.769531 97.289062 64.753906 97.300781 C 66.855469 98.339844 74.976562 102.835938 76.519531 110.550781 L 76.832031 112.117188 L 73.6875 112.742188 L 73.375 111.175781 C 72.058594 104.628906 64.296875 100.632812 63.113281 100.0625 C 62.070312 99.804688 61.152344 98.882812 61.296875 97.488281 C 61.410156 96.417969 61.941406 95.464844 62.785156 94.796875 C 63.570312 94.171875 64.511719 93.871094 65.527344 93.929688 C 67.199219 93.6875 70.042969 93.105469 71.128906 92.449219 C 72.375 91.695312 73.230469 90.554688 73.417969 89.402344 C 73.53125 88.761719 73.417969 88.195312 73.101562 87.824219 C 72.558594 87.15625 69.972656 86.757812 68.570312 86.542969 C 67.242188 86.34375 66.199219 86.171875 65.484375 85.832031 C 63.769531 84.992188 62.070312 85.347656 60.710938 85.644531 C 60.425781 85.703125 60.167969 85.761719 59.9375 85.804688 C 55.410156 86.570312 50.949219 98.710938 50.949219 101.871094 C 51.078125 102.394531 52.679688 104.53125 54.363281 106.324219 L 61.695312 114.121094 Z M 59.339844 116.242188 " fill-opacity="1" fill-rule="nonzero"/><path fill="#000000" d="M 64.414062 98.167969 L 62.828125 98 C 62.097656 97.914062 61.453125 97.558594 61.023438 96.960938 C 59.980469 95.566406 60.324219 93.203125 60.46875 92.503906 L 60.769531 90.941406 L 63.914062 91.539062 L 63.613281 93.105469 C 63.496094 93.714844 63.484375 94.457031 63.554688 94.867188 L 64.769531 94.996094 Z M 64.414062 98.167969 " fill-opacity="1" fill-rule="nonzero"/><path fill="#000000" d="M 61.195312 99.09375 C 60.011719 99.09375 58.636719 98.695312 57.09375 97.898438 L 55.664062 97.171875 L 57.136719 94.339844 L 58.566406 95.066406 C 60.296875 95.964844 61.152344 95.933594 61.453125 95.894531 L 63.027344 95.621094 L 63.582031 98.765625 L 62.011719 99.039062 C 61.738281 99.066406 61.484375 99.09375 61.195312 99.09375 Z M 61.195312 99.09375 " fill-opacity="1" fill-rule="nonzero"/><path fill="#f3ba81" d="M 73.988281 77.875 L 73.21875 85.046875 Z M 73.988281 77.875 " fill-opacity="1" fill-rule="nonzero"/><path fill="#000000" d="M 71.449219 86.4375 L 72.566406 76.09375 L 75.75 76.433594 L 74.632812 86.777344 Z M 71.449219 86.4375 " fill-opacity="1" fill-rule="nonzero"/><path fill="#000000" d="M 76.089844 99.648438 L 74.617188 96.816406 L 76.046875 96.09375 C 76.117188 96.050781 78.089844 94.953125 79.089844 91.792969 C 80.292969 88.007812 81.863281 81.019531 81.878906 80.949219 L 82.222656 79.386719 L 85.351562 80.082031 L 85.007812 81.632812 C 84.9375 81.933594 83.394531 88.820312 82.148438 92.746094 C 80.71875 97.214844 77.648438 98.839844 77.519531 98.910156 Z M 76.089844 99.648438 " fill-opacity="1" fill-rule="nonzero"/><path fill="#000000" d="M 85.023438 102.964844 L 82.378906 101.160156 L 83.277344 99.835938 C 86.695312 94.867188 89.910156 89.757812 90.296875 86.058594 L 90.46875 84.464844 L 93.65625 84.792969 L 93.496094 86.371094 C 93.070312 90.542969 90.152344 95.496094 85.9375 101.628906 Z M 85.023438 102.964844 " fill-opacity="1" fill-rule="nonzero"/><path fill="#71869f" d="M 60.496094 133.179688 L 60.496094 123.601562 C 60.496094 122.71875 61.210938 122.007812 62.097656 122.007812 L 92.554688 122.007812 C 95.210938 122.007812 97.355469 124.15625 97.355469 126.789062 L 97.355469 133.179688 Z M 60.496094 133.179688 " fill-opacity="1" fill-rule="nonzero"/><g clip-path="url(#d74e1d25b9)"><path fill="#000000" d="M 98.957031 134.773438 L 95.757812 134.773438 L 95.757812 126.789062 C 95.757812 125.023438 94.3125 123.601562 92.554688 123.601562 L 62.097656 123.601562 L 62.097656 134.773438 L 58.894531 134.773438 L 58.894531 123.601562 C 58.894531 121.835938 60.339844 120.414062 62.097656 120.414062 L 92.554688 120.414062 C 96.085938 120.414062 98.972656 123.273438 98.972656 126.800781 L 98.972656 134.773438 Z M 98.957031 134.773438 " fill-opacity="1" fill-rule="nonzero"/></g><path fill="#000000" d="M 89.339844 129.992188 L 89.339844 126.800781 L 92.539062 126.800781 L 92.539062 129.992188 C 89.339844 129.992188 92.554688 129.992188 89.339844 129.992188 Z M 89.339844 129.992188 " fill-opacity="1" fill-rule="nonzero"/><path fill="#000000" d="M 83.992188 72.925781 L 73.730469 54.851562 L 65.128906 68.339844 L 62.425781 66.632812 L 73.886719 48.644531 L 86.78125 71.34375 Z M 83.992188 72.925781 " fill-opacity="1" fill-rule="nonzero"/><path fill="#000000" d="M 55.25 42.769531 L 57.523438 40.519531 L 59.78125 42.769531 L 57.523438 45.03125 C 55.25 42.769531 57.523438 45.03125 55.25 42.769531 Z M 55.25 42.769531 " fill-opacity="1" fill-rule="nonzero"/><path fill="#000000" d="M 88.910156 45.957031 L 91.183594 43.707031 L 93.441406 45.957031 L 91.183594 48.21875 C 88.910156 45.957031 91.183594 48.234375 88.910156 45.957031 Z M 88.910156 45.957031 " fill-opacity="1" fill-rule="nonzero"/><path fill="#000000" d="M 85.707031 39.582031 L 87.980469 37.332031 L 90.238281 39.582031 L 87.980469 41.84375 C 85.707031 39.582031 87.980469 41.84375 85.707031 39.582031 Z M 85.707031 39.582031 " fill-opacity="1" fill-rule="nonzero"/></svg>