<svg xmlns="http://www.w3.org/2000/svg" xmlns:xlink="http://www.w3.org/1999/xlink" width="400" zoomAndPan="magnify" viewBox="0 0 300 112.499997" height="150" preserveAspectRatio="xMidYMid meet" version="1.0"><defs><clipPath id="0a39bddb1e"><path d="M 93.785156 6.53125 L 203 6.53125 L 203 105.839844 L 93.785156 105.839844 Z M 93.785156 6.53125 " clip-rule="nonzero"/></clipPath></defs><path fill="#ffffff" d="M 139.128906 16.914062 C 163.074219 16.914062 182.523438 36.375 182.523438 60.34375 C 182.523438 84.308594 163.074219 103.765625 139.128906 103.765625 C 115.183594 103.765625 95.738281 84.308594 95.738281 60.34375 C 95.738281 36.375 115.179688 16.914062 139.128906 16.914062 Z M 139.128906 16.914062 " fill-opacity="1" fill-rule="evenodd"/><path fill="#fba82d" d="M 140.144531 16.914062 C 116.199219 16.914062 96.757812 36.375 96.757812 60.34375 C 96.757812 84.308594 116.199219 103.765625 140.144531 103.765625 C 164.09375 103.765625 183.535156 84.308594 183.535156 60.34375 C 183.535156 36.375 164.09375 16.914062 140.144531 16.914062 Z M 140.144531 89.300781 C 124.175781 89.300781 111.210938 76.324219 111.210938 60.339844 C 111.210938 44.355469 124.175781 31.382812 140.144531 31.382812 C 156.113281 31.382812 169.082031 44.359375 169.082031 60.34375 C 169.082031 76.324219 156.117188 89.300781 140.144531 89.300781 Z M 140.144531 43.914062 C 139.609375 43.914062 139.070312 43.9375 138.535156 43.992188 C 138.003906 44.042969 137.472656 44.125 136.945312 44.226562 C 136.417969 44.332031 135.894531 44.464844 135.382812 44.621094 C 134.867188 44.777344 134.359375 44.957031 133.863281 45.164062 C 133.367188 45.371094 132.882812 45.597656 132.40625 45.851562 C 131.933594 46.105469 131.472656 46.382812 131.027344 46.679688 C 130.578125 46.980469 130.148438 47.300781 129.730469 47.640625 C 129.316406 47.984375 128.917969 48.34375 128.539062 48.726562 C 128.160156 49.105469 127.796875 49.503906 127.457031 49.917969 C 127.117188 50.335938 126.796875 50.765625 126.496094 51.214844 C 126.199219 51.660156 125.921875 52.121094 125.667969 52.597656 C 125.414062 53.070312 125.1875 53.558594 124.980469 54.054688 C 124.773438 54.550781 124.59375 55.058594 124.4375 55.574219 C 124.28125 56.085938 124.152344 56.609375 124.046875 57.136719 C 123.941406 57.664062 123.863281 58.195312 123.808594 58.730469 C 123.757812 59.265625 123.730469 59.804688 123.730469 60.34375 C 123.730469 60.878906 123.757812 61.417969 123.808594 61.953125 C 123.863281 62.488281 123.941406 63.019531 124.046875 63.546875 C 124.152344 64.074219 124.28125 64.597656 124.4375 65.109375 C 124.59375 65.625 124.773438 66.132812 124.980469 66.628906 C 125.1875 67.125 125.414062 67.613281 125.667969 68.085938 C 125.921875 68.5625 126.199219 69.023438 126.496094 69.46875 C 126.796875 69.917969 127.117188 70.347656 127.457031 70.765625 C 127.796875 71.179688 128.160156 71.578125 128.539062 71.960938 C 128.917969 72.339844 129.316406 72.699219 129.730469 73.042969 C 130.148438 73.382812 130.578125 73.703125 131.027344 74.003906 C 131.472656 74.300781 131.933594 74.578125 132.40625 74.832031 C 132.882812 75.085938 133.367188 75.316406 133.863281 75.519531 C 134.359375 75.726562 134.867188 75.90625 135.382812 76.0625 C 135.894531 76.21875 136.417969 76.351562 136.945312 76.457031 C 137.472656 76.5625 138.003906 76.640625 138.535156 76.691406 C 139.070312 76.746094 139.609375 76.769531 140.144531 76.769531 C 140.683594 76.769531 141.21875 76.746094 141.753906 76.691406 C 142.289062 76.640625 142.820312 76.5625 143.347656 76.457031 C 143.875 76.351562 144.398438 76.21875 144.910156 76.0625 C 145.425781 75.90625 145.929688 75.726562 146.429688 75.519531 C 146.925781 75.316406 147.410156 75.085938 147.882812 74.832031 C 148.359375 74.578125 148.820312 74.300781 149.265625 74.003906 C 149.710938 73.703125 150.144531 73.382812 150.558594 73.042969 C 150.976562 72.699219 151.375 72.339844 151.753906 71.960938 C 152.132812 71.578125 152.492188 71.179688 152.835938 70.765625 C 153.175781 70.347656 153.496094 69.917969 153.792969 69.46875 C 154.09375 69.023438 154.371094 68.5625 154.621094 68.085938 C 154.875 67.613281 155.105469 67.125 155.3125 66.628906 C 155.515625 66.132812 155.699219 65.625 155.855469 65.109375 C 156.011719 64.597656 156.140625 64.074219 156.246094 63.546875 C 156.351562 63.019531 156.429688 62.488281 156.480469 61.953125 C 156.535156 61.417969 156.5625 60.878906 156.5625 60.34375 C 156.5625 59.804688 156.535156 59.265625 156.480469 58.730469 C 156.429688 58.195312 156.347656 57.664062 156.246094 57.136719 C 156.140625 56.609375 156.007812 56.089844 155.851562 55.574219 C 155.695312 55.058594 155.515625 54.554688 155.308594 54.054688 C 155.101562 53.558594 154.875 53.074219 154.621094 52.597656 C 154.367188 52.125 154.089844 51.664062 153.792969 51.214844 C 153.492188 50.769531 153.171875 50.335938 152.832031 49.921875 C 152.492188 49.507812 152.128906 49.109375 151.75 48.726562 C 151.371094 48.347656 150.972656 47.984375 150.558594 47.644531 C 150.140625 47.304688 149.710938 46.984375 149.261719 46.683594 C 148.816406 46.386719 148.355469 46.109375 147.882812 45.855469 C 147.410156 45.601562 146.921875 45.371094 146.425781 45.164062 C 145.929688 44.960938 145.425781 44.777344 144.910156 44.621094 C 144.394531 44.464844 143.875 44.335938 143.347656 44.230469 C 142.820312 44.125 142.289062 44.046875 141.753906 43.992188 C 141.21875 43.941406 140.683594 43.914062 140.144531 43.914062 Z M 140.144531 43.914062 " fill-opacity="1" fill-rule="evenodd"/><path fill="#458bfc" d="M 184.507812 23.5 C 184.839844 28.707031 206.535156 30.027344 189.910156 39.632812 C 182.570312 43.871094 178.136719 46.222656 166.542969 38.835938 C 166.5 38.804688 164.878906 26.289062 168.074219 21.308594 C 170.128906 18.105469 180.664062 10.277344 183.277344 10.148438 C 185.890625 10.015625 184.5 23.386719 184.507812 23.5 Z M 184.507812 23.5 " fill-opacity="1" fill-rule="evenodd"/><g clip-path="url(#0a39bddb1e)"><path fill="#392353" d="M 201.0625 31.371094 L 187.796875 23.476562 L 187.136719 8.722656 C 187.117188 8.332031 187.003906 7.976562 186.789062 7.648438 C 186.570312 7.324219 186.289062 7.078125 185.9375 6.910156 C 185.585938 6.742188 185.214844 6.679688 184.828125 6.71875 C 184.441406 6.753906 184.089844 6.890625 183.777344 7.125 L 165.453125 20.695312 C 165.242188 20.851562 165.070312 21.039062 164.929688 21.261719 C 163.023438 20.015625 161.035156 18.914062 158.964844 17.964844 C 156.890625 17.011719 154.761719 16.21875 152.574219 15.585938 C 150.386719 14.949219 148.160156 14.480469 145.902344 14.175781 C 143.644531 13.871094 141.378906 13.738281 139.097656 13.773438 C 136.820312 13.804688 134.558594 14.007812 132.308594 14.378906 C 130.0625 14.75 127.851562 15.285156 125.683594 15.984375 C 123.515625 16.683594 121.410156 17.539062 119.367188 18.554688 C 117.328125 19.566406 115.371094 20.726562 113.503906 22.027344 C 110.015625 24.464844 106.921875 27.324219 104.226562 30.613281 C 101.53125 33.90625 99.332031 37.5 97.628906 41.398438 C 95.066406 47.261719 93.789062 53.390625 93.800781 59.789062 C 93.800781 85.164062 114.425781 105.8125 139.78125 105.8125 C 165.136719 105.8125 185.761719 85.171875 185.761719 59.789062 C 185.765625 55.003906 185.042969 50.335938 183.589844 45.777344 L 201.089844 34.972656 C 201.246094 34.878906 201.382812 34.765625 201.507812 34.632812 C 201.632812 34.503906 201.742188 34.359375 201.828125 34.199219 C 201.914062 34.039062 201.980469 33.875 202.027344 33.699219 C 202.070312 33.523438 202.09375 33.34375 202.089844 33.164062 C 202.089844 32.980469 202.066406 32.804688 202.019531 32.628906 C 201.96875 32.453125 201.902344 32.289062 201.8125 32.132812 C 201.722656 31.972656 201.613281 31.832031 201.484375 31.703125 C 201.359375 31.574219 201.214844 31.460938 201.0625 31.371094 Z M 183.105469 12.863281 L 183.625 24.433594 L 168.566406 35.671875 L 168.789062 23.464844 Z M 139.78125 101.597656 C 116.75 101.597656 98.003906 82.84375 98.003906 59.789062 C 97.992188 53.980469 99.152344 48.414062 101.476562 43.089844 C 102.285156 41.234375 103.222656 39.445312 104.292969 37.726562 C 105.359375 36.007812 106.546875 34.375 107.851562 32.828125 C 109.15625 31.28125 110.566406 29.835938 112.082031 28.496094 C 113.59375 27.152344 115.199219 25.929688 116.890625 24.820312 C 118.582031 23.710938 120.34375 22.730469 122.179688 21.875 C 124.011719 21.023438 125.898438 20.308594 127.835938 19.726562 C 129.773438 19.148438 131.746094 18.710938 133.746094 18.417969 C 135.746094 18.125 137.757812 17.980469 139.78125 17.980469 C 144.238281 17.964844 148.582031 18.65625 152.816406 20.050781 C 157.046875 21.441406 160.953125 23.46875 164.53125 26.125 L 164.300781 38.730469 C 164.300781 38.773438 164.300781 38.816406 164.300781 38.867188 L 163.878906 39.183594 C 162.390625 37.4375 160.734375 35.871094 158.910156 34.488281 C 157.082031 33.101562 155.128906 31.929688 153.050781 30.96875 C 150.96875 30.003906 148.808594 29.277344 146.570312 28.789062 C 144.332031 28.296875 142.070312 28.050781 139.777344 28.050781 C 122.289062 28.039062 108.058594 42.285156 108.058594 59.789062 C 108.058594 77.296875 122.289062 91.539062 139.78125 91.539062 C 157.273438 91.539062 171.5 77.296875 171.5 59.789062 C 171.503906 56.730469 171.074219 53.730469 170.203125 50.796875 C 169.335938 47.863281 168.070312 45.109375 166.402344 42.546875 L 167.308594 41.867188 L 179.558594 47.007812 C 180.890625 51.164062 181.554688 55.421875 181.550781 59.785156 C 181.550781 82.84375 162.8125 101.597656 139.78125 101.597656 Z M 143.5625 54.347656 C 143.132812 54.046875 142.675781 53.804688 142.191406 53.613281 C 141.703125 53.425781 141.203125 53.292969 140.683594 53.222656 C 140.167969 53.152344 139.648438 53.140625 139.128906 53.191406 C 138.609375 53.246094 138.105469 53.355469 137.613281 53.527344 C 137.117188 53.695312 136.652344 53.921875 136.210938 54.203125 C 135.773438 54.484375 135.371094 54.8125 135.007812 55.1875 C 134.644531 55.5625 134.332031 55.976562 134.066406 56.425781 C 133.800781 56.875 133.59375 57.351562 133.4375 57.847656 C 133.285156 58.347656 133.191406 58.859375 133.160156 59.378906 C 133.125 59.902344 133.152344 60.417969 133.242188 60.933594 C 133.332031 61.449219 133.480469 61.945312 133.6875 62.425781 C 133.890625 62.90625 134.152344 63.355469 134.464844 63.773438 C 134.777344 64.191406 135.132812 64.566406 135.535156 64.902344 C 135.933594 65.238281 136.367188 65.519531 136.835938 65.75 C 137.304688 65.984375 137.792969 66.15625 138.300781 66.273438 C 138.808594 66.390625 139.324219 66.445312 139.847656 66.441406 C 140.367188 66.433594 140.882812 66.367188 141.390625 66.242188 C 141.894531 66.117188 142.378906 65.929688 142.84375 65.691406 C 143.304688 65.449219 143.734375 65.15625 144.128906 64.816406 C 144.523438 64.472656 144.871094 64.089844 145.175781 63.664062 C 145.476562 63.238281 145.726562 62.785156 145.925781 62.300781 C 146.121094 61.816406 146.257812 61.316406 146.335938 60.800781 C 146.417969 60.285156 146.433594 59.765625 146.390625 59.246094 C 146.347656 58.726562 146.242188 58.21875 146.078125 57.722656 L 151.914062 53.367188 C 152.183594 53.871094 152.417969 54.394531 152.621094 54.929688 C 152.824219 55.464844 152.996094 56.011719 153.132812 56.566406 C 153.265625 57.125 153.367188 57.6875 153.433594 58.253906 C 153.5 58.824219 153.53125 59.394531 153.523438 59.96875 C 153.519531 60.539062 153.476562 61.109375 153.402344 61.679688 C 153.324219 62.246094 153.214844 62.808594 153.066406 63.363281 C 152.921875 63.914062 152.742188 64.457031 152.527344 64.988281 C 152.3125 65.519531 152.066406 66.035156 151.789062 66.539062 C 151.511719 67.039062 151.203125 67.519531 150.863281 67.980469 C 150.527344 68.445312 150.160156 68.882812 149.769531 69.300781 C 149.375 69.714844 148.957031 70.105469 148.515625 70.472656 C 148.074219 70.835938 147.613281 71.171875 147.128906 71.480469 C 146.644531 71.785156 146.144531 72.0625 145.628906 72.304688 C 145.109375 72.550781 144.578125 72.761719 144.035156 72.941406 C 143.492188 73.117188 142.9375 73.261719 142.375 73.371094 C 141.816406 73.480469 141.25 73.554688 140.675781 73.59375 C 140.105469 73.632812 139.535156 73.632812 138.964844 73.601562 C 138.390625 73.570312 137.824219 73.5 137.261719 73.398438 C 136.699219 73.292969 136.144531 73.15625 135.597656 72.984375 C 135.054688 72.808594 134.519531 72.605469 134 72.363281 C 133.480469 72.125 132.976562 71.855469 132.492188 71.554688 C 132.003906 71.25 131.539062 70.917969 131.09375 70.558594 C 130.648438 70.199219 130.226562 69.8125 129.828125 69.402344 C 129.433594 68.988281 129.0625 68.550781 128.71875 68.09375 C 128.378906 67.632812 128.0625 67.15625 127.78125 66.660156 C 127.5 66.160156 127.246094 65.648438 127.027344 65.117188 C 126.808594 64.589844 126.621094 64.046875 126.472656 63.496094 C 126.320312 62.941406 126.203125 62.382812 126.121094 61.816406 C 126.039062 61.25 125.992188 60.679688 125.980469 60.105469 C 125.96875 59.535156 125.992188 58.960938 126.054688 58.394531 C 126.113281 57.824219 126.207031 57.257812 126.339844 56.703125 C 126.46875 56.144531 126.632812 55.597656 126.832031 55.058594 C 127.03125 54.519531 127.261719 54 127.523438 53.488281 C 127.789062 52.980469 128.082031 52.492188 128.40625 52.019531 C 128.730469 51.546875 129.085938 51.097656 129.464844 50.671875 C 129.847656 50.242188 130.25 49.839844 130.683594 49.460938 C 131.113281 49.085938 131.566406 48.734375 132.039062 48.414062 C 132.515625 48.09375 133.007812 47.804688 133.515625 47.546875 C 134.027344 47.285156 134.550781 47.058594 135.089844 46.867188 C 135.628906 46.671875 136.179688 46.511719 136.734375 46.386719 C 137.292969 46.261719 137.859375 46.171875 138.429688 46.117188 C 139 46.0625 139.570312 46.042969 140.140625 46.058594 C 140.714844 46.074219 141.28125 46.125 141.847656 46.214844 C 142.414062 46.300781 142.972656 46.421875 143.523438 46.578125 C 144.074219 46.734375 144.613281 46.925781 145.136719 47.152344 C 145.664062 47.375 146.175781 47.628906 146.671875 47.917969 C 147.167969 48.207031 147.640625 48.523438 148.097656 48.871094 C 148.550781 49.21875 148.984375 49.59375 149.394531 49.992188 Z M 139.78125 41.839844 C 129.886719 41.832031 121.839844 49.886719 121.839844 59.789062 C 121.839844 69.691406 129.886719 77.746094 139.78125 77.746094 C 149.675781 77.746094 157.722656 69.691406 157.722656 59.789062 C 157.726562 56.582031 156.925781 53.59375 155.320312 50.820312 L 163.019531 45.070312 C 164.417969 47.269531 165.480469 49.621094 166.207031 52.125 C 166.933594 54.628906 167.296875 57.183594 167.292969 59.789062 C 167.292969 74.972656 154.945312 87.324219 139.78125 87.324219 C 124.617188 87.324219 112.269531 74.96875 112.269531 59.789062 C 112.269531 44.609375 124.613281 32.253906 139.78125 32.253906 C 141.746094 32.253906 143.6875 32.460938 145.605469 32.878906 C 147.523438 33.292969 149.378906 33.910156 151.164062 34.722656 C 152.949219 35.539062 154.632812 36.53125 156.207031 37.707031 C 157.777344 38.882812 159.210938 40.210938 160.5 41.695312 L 152.796875 47.441406 C 151.960938 46.554688 151.042969 45.765625 150.042969 45.066406 C 149.046875 44.367188 147.988281 43.773438 146.867188 43.292969 C 145.75 42.8125 144.59375 42.445312 143.398438 42.199219 C 142.207031 41.953125 141 41.832031 139.78125 41.832031 Z M 180.398438 42.800781 L 171.226562 38.953125 L 186.457031 27.578125 L 195.929688 33.214844 Z M 180.398438 42.800781 " fill-opacity="1" fill-rule="nonzero"/></g></svg>