<svg xmlns="http://www.w3.org/2000/svg" xmlns:xlink="http://www.w3.org/1999/xlink" width="200" zoomAndPan="magnify" viewBox="0 0 150 149.999998" height="200" preserveAspectRatio="xMidYMid meet" version="1.0"><defs><clipPath id="74725f85ff"><path d="M 11.574219 32 L 138 32 L 138 118.878906 L 11.574219 118.878906 Z M 11.574219 32 " clip-rule="nonzero"/></clipPath></defs><g clip-path="url(#74725f85ff)"><path fill="#48c1bc" d="M 58.308594 114.257812 C 55.929688 115.898438 53.09375 116.914062 49.792969 117.042969 C 47.453125 117.132812 48.015625 117.167969 45.796875 116.703125 C 44.671875 116.464844 43.621094 116.109375 42.644531 115.65625 C 39.457031 117.046875 35.921875 117.347656 32.4375 116.605469 C 27.667969 115.59375 23.851562 112.71875 21.082031 108.859375 C 14.421875 102.84375 11.578125 91.863281 12.023438 83.289062 C 12.210938 79.726562 12.917969 76.148438 14.359375 72.945312 C 12.78125 68.425781 12.273438 63.425781 12.527344 58.679688 C 13.121094 47.703125 17.800781 36.945312 29.996094 35.152344 C 32.933594 34.722656 36.007812 35.101562 38.722656 36.320312 C 40.160156 35.894531 41.660156 35.664062 43.191406 35.648438 C 45.238281 35.632812 47.160156 35.980469 48.921875 36.640625 C 54.890625 32.519531 62.347656 31.121094 69.730469 34.210938 C 70.503906 34.539062 71.253906 34.90625 71.976562 35.3125 C 75.300781 33.496094 79.171875 32.890625 82.90625 33.792969 C 84.023438 34.0625 85.074219 34.449219 86.058594 34.941406 C 87.410156 34.308594 88.894531 33.863281 90.511719 33.632812 C 93.707031 33.171875 96.734375 33.710938 99.433594 34.984375 C 101.308594 34.089844 103.371094 33.472656 105.589844 33.144531 C 109.375 32.589844 113.800781 33.03125 117.523438 33.917969 C 123.0625 35.230469 128.296875 37.9375 131.453125 42.625 C 133.550781 44.441406 135.21875 46.675781 136.277344 49.3125 C 137.925781 53.421875 137.816406 57.878906 136.214844 61.953125 C 138.304688 66.488281 138.285156 71.789062 136.027344 76.375 C 135.597656 77.253906 135.097656 78.097656 134.542969 78.90625 C 135.238281 81.921875 135.15625 85.039062 134.160156 88.042969 C 133.914062 88.789062 133.625 89.496094 133.296875 90.164062 C 136.996094 95.339844 138.195312 101.890625 135.09375 108.070312 C 132.238281 113.75 126.402344 117.351562 120.128906 117.816406 C 118.449219 117.941406 116.753906 117.796875 115.117188 117.394531 C 113.890625 117.089844 112.742188 116.660156 111.671875 116.121094 C 111.46875 116.191406 111.261719 116.261719 111.054688 116.324219 C 108.871094 116.988281 106.644531 117.113281 104.5 116.78125 C 99.578125 118.859375 93.722656 118.621094 88.847656 116.324219 C 84.453125 117.480469 79.8125 116.90625 75.933594 114.898438 C 74.269531 115.523438 72.507812 115.945312 70.675781 116.140625 C 66.449219 116.585938 62.167969 115.917969 58.308594 114.257812 Z M 58.308594 114.257812 " fill-opacity="1" fill-rule="nonzero"/></g><path fill="#7b8ac3" d="M 57.980469 111.207031 C 55.769531 113.09375 53.023438 114.296875 49.691406 114.425781 C 48.566406 114.46875 47.4375 114.371094 46.335938 114.136719 C 44.988281 113.851562 43.777344 113.367188 42.6875 112.722656 C 39.722656 114.34375 36.332031 114.753906 32.980469 114.042969 C 28.765625 113.148438 25.449219 110.542969 23.046875 107.101562 C 16.839844 101.695312 14.226562 91.25 14.636719 83.425781 C 14.824219 79.855469 15.574219 76.222656 17.203125 73.074219 C 17.203125 73.074219 17.199219 73.074219 17.199219 73.074219 C 15.445312 68.636719 14.886719 63.570312 15.140625 58.820312 C 15.664062 49.136719 19.503906 39.339844 30.375 37.742188 C 33.015625 37.355469 35.804688 37.746094 38.191406 38.96875 C 38.304688 39.027344 38.414062 39.085938 38.523438 39.144531 C 40.007812 38.585938 41.589844 38.28125 43.210938 38.269531 C 45.429688 38.25 47.460938 38.742188 49.261719 39.636719 C 54.691406 35.375 61.710938 33.691406 68.71875 36.628906 C 69.871094 37.113281 70.957031 37.703125 71.972656 38.390625 C 71.984375 38.382812 72 38.375 72.011719 38.363281 C 75.015625 36.289062 78.722656 35.476562 82.292969 36.339844 C 83.65625 36.667969 84.902344 37.210938 86.023438 37.921875 C 87.4375 37.074219 89.050781 36.484375 90.878906 36.222656 C 94.003906 35.777344 96.917969 36.472656 99.429688 37.941406 C 101.355469 36.832031 103.550781 36.089844 105.96875 35.734375 C 109.417969 35.230469 113.527344 35.660156 116.917969 36.464844 C 121.894531 37.644531 126.707031 40.058594 129.472656 44.375 C 131.378906 45.960938 132.902344 47.933594 133.847656 50.285156 C 135.328125 53.976562 135.121094 57.976562 133.53125 61.589844 C 133.464844 61.742188 133.394531 61.894531 133.324219 62.042969 C 135.589844 66.074219 135.753906 71.003906 133.679688 75.21875 C 133.132812 76.332031 132.457031 77.386719 131.6875 78.367188 C 132.582031 81.261719 132.640625 84.296875 131.675781 87.21875 C 131.289062 88.390625 130.777344 89.441406 130.167969 90.402344 C 134.066406 94.976562 135.667969 101.085938 132.753906 106.894531 C 130.316406 111.75 125.292969 114.804688 119.933594 115.203125 C 118.53125 115.308594 117.109375 115.1875 115.746094 114.851562 C 114.316406 114.5 113.027344 113.945312 111.851562 113.226562 C 111.351562 113.457031 110.832031 113.65625 110.296875 113.816406 C 108.234375 114.441406 106.144531 114.496094 104.160156 114.0625 C 99.507812 116.320312 93.683594 116.027344 89.097656 113.515625 C 84.699219 114.976562 79.878906 114.335938 76.113281 111.988281 C 74.335938 112.792969 72.421875 113.320312 70.402344 113.535156 C 66.121094 113.988281 61.773438 113.164062 57.980469 111.207031 Z M 57.980469 111.207031 " fill-opacity="1" fill-rule="nonzero"/><path fill="#f2adc2" d="M 57.574219 107.949219 C 55.597656 110.171875 52.980469 111.675781 49.59375 111.808594 C 48.683594 111.84375 47.769531 111.761719 46.878906 111.574219 C 45.269531 111.238281 43.914062 110.527344 42.753906 109.578125 C 42.636719 109.664062 42.515625 109.75 42.394531 109.835938 C 39.757812 111.644531 36.628906 112.140625 33.527344 111.480469 C 29.867188 110.703125 27.042969 108.359375 25.011719 105.335938 C 19.261719 100.566406 16.882812 90.625 17.25 83.5625 C 17.4375 79.996094 18.234375 76.273438 20.121094 73.238281 C 19.945312 72.863281 19.785156 72.488281 19.636719 72.109375 C 18.019531 68.027344 17.519531 63.328125 17.753906 58.960938 C 18.207031 50.585938 21.230469 41.734375 30.753906 40.335938 C 32.859375 40.027344 35.101562 40.328125 37 41.300781 C 37.460938 41.539062 37.898438 41.804688 38.304688 42.097656 C 39.824219 41.332031 41.496094 40.902344 43.230469 40.886719 C 45.652344 40.867188 47.769531 41.589844 49.527344 42.847656 C 54.390625 38.339844 61.019531 36.242188 67.707031 39.046875 C 69.304688 39.714844 70.75 40.625 72.03125 41.726562 C 72.488281 41.289062 72.976562 40.882812 73.5 40.519531 C 75.890625 38.867188 78.832031 38.199219 81.679688 38.886719 C 83.34375 39.289062 84.777344 40.089844 85.988281 41.160156 C 87.410156 39.957031 89.148438 39.117188 91.253906 38.816406 C 94.328125 38.375 97.125 39.328125 99.417969 41.082031 C 101.347656 39.640625 103.679688 38.71875 106.347656 38.328125 C 109.460938 37.871094 113.257812 38.285156 116.316406 39.015625 C 120.714844 40.058594 125.128906 42.175781 127.480469 46.132812 C 129.203125 47.484375 130.585938 49.1875 131.421875 51.265625 C 132.636719 54.296875 132.441406 57.570312 131.136719 60.535156 C 130.890625 61.101562 130.609375 61.648438 130.300781 62.175781 C 132.832031 65.636719 133.226562 70.214844 131.332031 74.0625 C 130.660156 75.429688 129.761719 76.695312 128.710938 77.835938 C 128.777344 77.992188 128.839844 78.148438 128.902344 78.308594 C 129.898438 80.929688 130.078125 83.710938 129.191406 86.398438 C 128.648438 88.042969 127.796875 89.410156 126.746094 90.605469 C 130.9375 94.5 133.179688 100.21875 130.417969 105.71875 C 128.394531 109.75 124.179688 112.265625 119.742188 112.59375 C 118.613281 112.675781 117.472656 112.582031 116.371094 112.308594 C 114.707031 111.898438 113.269531 111.144531 112.007812 110.152344 C 111.257812 110.648438 110.429688 111.039062 109.539062 111.3125 C 107.601562 111.898438 105.644531 111.839844 103.828125 111.269531 C 99.503906 113.816406 93.585938 113.421875 89.367188 110.613281 C 85 112.53125 79.867188 111.789062 76.339844 108.945312 C 74.457031 110.007812 72.371094 110.695312 70.128906 110.929688 C 65.738281 111.390625 61.257812 110.335938 57.574219 107.949219 Z M 57.574219 107.949219 " fill-opacity="1" fill-rule="nonzero"/><path fill="#ffde97" d="M 57.050781 104.269531 C 55.40625 106.980469 52.996094 109.058594 49.492188 109.191406 C 48.796875 109.21875 48.097656 109.15625 47.417969 109.011719 C 45.449219 108.597656 43.992188 107.394531 42.824219 105.902344 C 42.285156 106.5625 41.660156 107.160156 40.914062 107.675781 C 38.871094 109.078125 36.46875 109.429688 34.066406 108.917969 C 30.964844 108.261719 28.636719 106.15625 26.96875 103.554688 C 21.683594 99.480469 19.535156 89.980469 19.863281 83.703125 C 20.050781 80.152344 20.898438 76.253906 23.179688 73.445312 C 22.746094 72.707031 22.378906 71.929688 22.066406 71.148438 C 20.59375 67.421875 20.152344 63.085938 20.367188 59.105469 C 20.75 52.058594 22.992188 44.125 31.132812 42.929688 C 32.699219 42.699219 34.394531 42.914062 35.808594 43.636719 C 36.675781 44.078125 37.410156 44.664062 38.019531 45.355469 C 39.527344 44.210938 41.335938 43.523438 43.253906 43.507812 C 45.9375 43.488281 48.078125 44.652344 49.648438 46.5 C 53.859375 41.550781 60.199219 38.742188 66.699219 41.464844 C 68.878906 42.378906 70.714844 43.835938 72.203125 45.628906 C 72.964844 44.476562 73.882812 43.441406 74.988281 42.675781 C 76.769531 41.445312 78.941406 40.921875 81.066406 41.4375 C 83.179688 41.945312 84.785156 43.355469 85.972656 45.089844 C 87.261719 43.1875 89.070312 41.777344 91.625 41.414062 C 94.730469 40.96875 97.429688 42.425781 99.40625 44.628906 C 101.226562 42.585938 103.695312 41.367188 106.730469 40.921875 C 109.503906 40.515625 112.988281 40.917969 115.710938 41.5625 C 119.515625 42.46875 123.578125 44.296875 125.46875 47.894531 C 127.015625 49.007812 128.269531 50.441406 128.992188 52.242188 C 129.949219 54.617188 129.761719 57.164062 128.742188 59.480469 C 128.285156 60.527344 127.707031 61.515625 126.980469 62.375 C 127.410156 62.765625 127.800781 63.199219 128.148438 63.667969 C 130.144531 66.347656 130.460938 69.914062 128.988281 72.90625 C 128.167969 74.570312 126.925781 76.066406 125.496094 77.320312 C 125.878906 77.921875 126.199219 78.570312 126.457031 79.238281 C 127.238281 81.296875 127.40625 83.464844 126.710938 85.574219 C 126.039062 87.601562 124.734375 89.128906 123.179688 90.425781 C 123.582031 90.902344 123.953125 91.402344 124.28125 91.929688 C 124.289062 91.9375 124.300781 91.941406 124.308594 91.949219 C 128.03125 95.046875 130.441406 99.839844 128.078125 104.546875 C 126.46875 107.75 123.066406 109.722656 119.550781 109.984375 C 118.695312 110.046875 117.832031 109.972656 117 109.769531 C 114.988281 109.273438 113.390625 108.101562 112.074219 106.625 C 111.21875 107.636719 110.101562 108.40625 108.777344 108.808594 C 106.941406 109.363281 105.105469 109.117188 103.476562 108.320312 C 99.570312 111.410156 93.292969 110.886719 89.632812 107.53125 C 89.214844 107.789062 88.769531 108.015625 88.316406 108.21875 C 84.292969 109.980469 79.347656 108.914062 76.667969 105.601562 C 74.703125 107.097656 72.40625 108.058594 69.855469 108.328125 C 65.273438 108.808594 60.558594 107.382812 57.101562 104.3125 C 57.082031 104.296875 57.066406 104.28125 57.050781 104.269531 Z M 57.050781 104.269531 " fill-opacity="1" fill-rule="nonzero"/><path fill="#275796" d="M 77.699219 102.140625 C 77.453125 102.015625 77.214844 101.875 76.984375 101.722656 C 75.101562 103.886719 72.613281 105.402344 69.578125 105.722656 C 65.71875 106.128906 61.75 104.9375 58.832031 102.351562 C 57.847656 101.476562 57.03125 100.496094 56.371094 99.429688 C 55.179688 103.03125 53.109375 106.429688 49.390625 106.574219 C 48.910156 106.59375 48.425781 106.550781 47.957031 106.449219 C 46.003906 106.039062 44.71875 104.246094 43.734375 102.542969 C 43.238281 102.28125 42.792969 101.925781 42.390625 101.515625 C 41.695312 103.054688 40.863281 104.535156 39.433594 105.515625 C 37.984375 106.511719 36.308594 106.71875 34.613281 106.355469 C 32.1875 105.84375 30.320312 104.074219 28.925781 101.738281 C 23.988281 98.363281 22.207031 89.015625 22.476562 83.835938 C 22.679688 79.984375 23.722656 75.882812 26.605469 73.757812 C 25.6875 72.710938 24.992188 71.417969 24.5 70.179688 C 23.167969 66.820312 22.789062 62.832031 22.980469 59.246094 C 23.285156 53.617188 24.734375 46.175781 31.511719 45.519531 C 32.542969 45.316406 33.699219 45.496094 34.617188 45.964844 C 35.992188 46.671875 36.804688 47.882812 37.253906 49.257812 C 37.425781 49.320312 37.59375 49.394531 37.753906 49.476562 L 37.800781 49.5 C 38.125 48.914062 38.535156 48.371094 39.058594 47.890625 C 40.214844 46.832031 41.6875 46.140625 43.273438 46.125 C 46.066406 46.105469 47.851562 47.929688 48.921875 50.203125 C 49.238281 50.359375 49.53125 50.546875 49.808594 50.757812 C 49.855469 50.683594 49.898438 50.609375 49.945312 50.535156 C 53.273438 45.136719 59.3125 41.207031 65.6875 43.878906 C 68.0625 44.871094 69.933594 46.679688 71.316406 48.847656 C 71.835938 49.253906 72.328125 49.703125 72.78125 50.191406 C 73.652344 48.054688 74.851562 45.953125 76.476562 44.832031 C 77.652344 44.019531 79.042969 43.640625 80.453125 43.980469 C 82.269531 44.417969 83.617188 45.972656 84.558594 47.847656 C 85.375 48.257812 86.074219 48.902344 86.671875 49.691406 C 87.5625 46.941406 89.058594 44.425781 91.996094 44.003906 C 94.742188 43.609375 97.007812 45.492188 98.433594 47.644531 C 98.597656 47.894531 98.757812 48.15625 98.910156 48.417969 C 99.1875 48.601562 99.453125 48.800781 99.707031 49.015625 C 100.917969 46.207031 103.078125 44.105469 107.109375 43.515625 C 109.511719 43.160156 112.757812 43.554688 115.105469 44.113281 C 118.277344 44.867188 122.078125 46.425781 123.40625 49.664062 C 124.792969 50.539062 125.953125 51.695312 126.566406 53.21875 C 127.253906 54.941406 127.082031 56.753906 126.347656 58.425781 C 125.660156 59.992188 124.652344 61.386719 123.199219 62.148438 C 123.4375 62.53125 123.632812 62.933594 123.78125 63.347656 C 124.628906 63.746094 125.40625 64.367188 126.050781 65.234375 C 127.457031 67.125 127.679688 69.636719 126.640625 71.75 C 125.605469 73.851562 123.65625 75.683594 121.613281 76.941406 C 122.710938 77.726562 123.515625 78.875 124.007812 80.171875 C 124.574219 81.664062 124.730469 83.21875 124.222656 84.75 C 123.421875 87.175781 121.1875 88.78125 119.121094 90.148438 C 119.277344 90.273438 119.402344 90.378906 119.496094 90.453125 C 120.585938 91.363281 121.582031 92.457031 122.273438 93.671875 C 122.421875 93.792969 122.546875 93.890625 122.636719 93.964844 C 125.40625 96.269531 127.542969 99.777344 125.742188 103.371094 C 124.546875 105.746094 121.953125 107.175781 119.355469 107.371094 C 118.773438 107.414062 118.191406 107.363281 117.625 107.226562 C 115.335938 106.660156 113.734375 104.765625 112.496094 102.808594 C 112.121094 102.554688 111.765625 102.261719 111.4375 101.941406 C 111.296875 102.488281 111.128906 103.03125 110.914062 103.546875 C 110.375 104.847656 109.386719 105.886719 108.019531 106.300781 C 106.1875 106.855469 104.425781 106.128906 103.09375 104.90625 C 100.488281 109.015625 92.410156 108.667969 89.980469 103.71875 C 89.324219 104.664062 88.363281 105.335938 87.265625 105.816406 C 83.574219 107.433594 78.972656 105.839844 77.699219 102.140625 Z M 77.699219 102.140625 " fill-opacity="1" fill-rule="nonzero"/><path fill="#f2adc2" d="M 31.917969 48.113281 C 31.917969 48.113281 34.871094 47.28125 35.105469 52.085938 C 35.335938 56.890625 36.8125 58.554688 38.242188 57.398438 C 39.675781 56.246094 38.613281 51.855469 40.828125 49.824219 C 43.042969 47.789062 46.507812 48.25 47.519531 54.582031 C 48.535156 60.910156 48.953125 69.921875 46.414062 72.96875 C 43.875 76.019531 39.722656 74.125 39.257812 69.550781 C 38.796875 64.976562 38.429688 63.40625 36.304688 63.269531 C 34.179688 63.128906 34.410156 66.410156 34.320312 68.671875 C 34.226562 70.9375 33.996094 73.339844 30.902344 73.292969 C 27.8125 73.246094 25.179688 67.101562 25.597656 59.386719 C 26.011719 51.671875 28.226562 48.390625 31.917969 48.113281 Z M 31.917969 48.113281 " fill-opacity="1" fill-rule="nonzero"/><path fill="#ffde97" d="M 71.496094 57.046875 C 70.914062 52.523438 68.507812 47.898438 64.679688 46.296875 C 57.125 43.132812 50.070312 52.1875 49.753906 59.261719 C 49.339844 68.59375 56.171875 72.847656 62.3125 72.199219 C 68.449219 71.554688 72.375 63.835938 71.496094 57.046875 Z M 61.523438 58.09375 C 60.082031 58.246094 58.476562 57.246094 58.574219 55.054688 C 58.648438 53.390625 60.304688 51.265625 62.078125 52.007812 C 62.980469 52.386719 63.542969 53.472656 63.679688 54.535156 C 63.886719 56.128906 62.964844 57.941406 61.523438 58.09375 Z M 61.523438 58.09375 " fill-opacity="1" fill-rule="nonzero"/><path fill="#7b8ac3" d="M 72.816406 62.960938 C 73.695312 73.238281 77.339844 73.648438 79.234375 72.980469 C 81.125 72.316406 82.582031 69.734375 82.140625 66.921875 C 81.703125 64.109375 81.171875 61.960938 81.703125 61.449219 C 82.234375 60.9375 83.042969 64.03125 84.589844 65.566406 C 86.132812 67.101562 87.105469 66.050781 88.027344 64.03125 C 88.949219 62.011719 90.378906 61.449219 90.105469 64.980469 C 89.828125 68.507812 89.136719 72.214844 93.242188 73.289062 C 97.351562 74.363281 99.796875 65.363281 98.921875 57.640625 C 98.042969 49.921875 94.859375 46.238281 92.367188 46.597656 C 89.875 46.953125 88.996094 50.480469 88.117188 54.929688 C 87.242188 59.378906 84.148438 59.378906 83.6875 54.316406 C 83.449219 51.6875 81.539062 44.511719 77.964844 46.984375 C 74.683594 49.253906 72.542969 59.757812 72.816406 62.960938 Z M 72.816406 62.960938 " fill-opacity="1" fill-rule="nonzero"/><path fill="#48c1bc" d="M 107.488281 46.105469 C 102.132812 46.890625 101.207031 51 100.703125 57.5625 C 100.195312 64.121094 101.164062 71.144531 107.625 72.761719 C 114.089844 74.378906 119.628906 70.175781 121.152344 67.078125 C 122.675781 63.984375 119.398438 60.058594 115.242188 62.828125 C 111.085938 65.601562 108.363281 65.414062 108.457031 63.566406 C 108.546875 61.71875 113.855469 62.089844 114.179688 59.640625 C 114.503906 57.191406 112.5625 56.777344 110.117188 56.40625 C 107.671875 56.039062 107.117188 54.234375 109.65625 53.914062 C 113.15625 53.464844 117.996094 60.257812 120.8125 53.859375 C 123.707031 47.277344 111.296875 45.542969 107.488281 46.105469 Z M 107.488281 46.105469 " fill-opacity="1" fill-rule="nonzero"/><path fill="#48c1bc" d="M 31.046875 74.917969 C 31.046875 74.917969 35.339844 74.59375 35.984375 78.105469 C 36.632812 81.617188 34.925781 84.480469 34.738281 87.113281 C 34.554688 89.746094 36.261719 88.363281 37.046875 85.589844 C 37.832031 82.816406 40.648438 82.171875 41.984375 86.605469 C 43.324219 91.039062 44.246094 89.007812 43.09375 84.667969 C 41.941406 80.324219 43.511719 74.960938 47.019531 75.195312 C 50.527344 75.425781 53.296875 81.199219 51.957031 89.792969 C 50.617188 98.386719 47.988281 100.929688 45.355469 100.375 C 42.726562 99.820312 40.738281 91.132812 38.753906 93.304688 C 36.769531 95.476562 36.585938 101.25 32.015625 100.28125 C 27.445312 99.3125 24.769531 90.164062 25.089844 83.972656 C 25.414062 77.78125 27.628906 75.007812 31.046875 74.917969 Z M 31.046875 74.917969 " fill-opacity="1" fill-rule="nonzero"/><path fill="#7b8ac3" d="M 75.351562 84.449219 C 74.769531 79.929688 72.363281 75.304688 68.535156 73.699219 C 60.980469 70.535156 53.925781 79.59375 53.609375 86.667969 C 53.195312 96 60.027344 100.25 66.167969 99.605469 C 72.304688 98.957031 76.230469 91.242188 75.351562 84.449219 Z M 65.378906 85.496094 C 63.9375 85.648438 62.332031 84.652344 62.429688 82.457031 C 62.503906 80.796875 64.160156 78.667969 65.933594 79.414062 C 66.835938 79.789062 67.398438 80.875 67.535156 81.9375 C 67.742188 83.535156 66.820312 85.34375 65.378906 85.496094 Z M 65.378906 85.496094 " fill-opacity="1" fill-rule="nonzero"/><path fill="#ffde97" d="M 92.398438 90.527344 C 89.8125 88.539062 90.503906 87.800781 93.734375 86.367188 C 96.964844 84.9375 98.445312 81.609375 95.765625 77.683594 C 93.089844 73.757812 83.71875 72.96875 79.75 79.023438 C 75.777344 85.074219 76.839844 96.671875 76.839844 96.671875 C 76.75 99.765625 80.441406 101.0625 83.070312 99.90625 C 85.703125 98.75 85.242188 97.042969 84.734375 94.640625 C 84.226562 92.234375 83.578125 90.574219 85.289062 91.171875 C 86.996094 91.773438 87.734375 94.128906 88.933594 98.378906 C 90.136719 102.632812 97.613281 102.539062 98.121094 98.933594 C 98.628906 95.332031 94.980469 92.511719 92.398438 90.527344 Z M 88.679688 83.273438 C 86.578125 83.78125 84.917969 82.371094 86.027344 80.546875 C 86.027344 80.546875 87.34375 78.539062 89.003906 79.183594 C 90.664062 79.832031 90.78125 82.765625 88.679688 83.273438 Z M 88.679688 83.273438 " fill-opacity="1" fill-rule="nonzero"/><path fill="#f2adc2" d="M 99.589844 75.601562 C 99.589844 75.601562 98.621094 86.644531 99.21875 93.253906 C 99.820312 99.859375 104.113281 102.03125 105.359375 99.027344 C 106.605469 96.023438 106.234375 89.878906 108.222656 92.234375 C 110.207031 94.59375 112.285156 101.523438 116.023438 101.246094 C 119.761719 100.96875 123.269531 96.996094 117.824219 92.46875 C 112.375 87.9375 110.714844 86.96875 114.082031 84.75 C 117.453125 82.535156 119.667969 80.871094 118.421875 77.589844 C 117.175781 74.308594 113.710938 73.894531 111.035156 77.773438 C 108.359375 81.65625 107.296875 83.226562 106.511719 81.191406 C 105.726562 79.160156 107.390625 76.15625 105.820312 74.632812 C 104.25 73.105469 100.648438 71.90625 99.589844 75.601562 Z M 99.589844 75.601562 " fill-opacity="1" fill-rule="nonzero"/></svg>