<svg xmlns="http://www.w3.org/2000/svg" xmlns:xlink="http://www.w3.org/1999/xlink" width="200" zoomAndPan="magnify" viewBox="0 0 150 149.999998" height="200" preserveAspectRatio="xMidYMid meet" version="1.0"><defs><g/><clipPath id="e3a5b9f246"><path d="M 86.105469 80.449219 L 140.105469 80.449219 L 140.105469 131.449219 L 86.105469 131.449219 Z M 86.105469 80.449219 " clip-rule="nonzero"/></clipPath><clipPath id="b04166032d"><path d="M 92.855469 80.449219 L 133.703125 80.449219 C 135.492188 80.449219 137.210938 81.160156 138.476562 82.425781 C 139.742188 83.691406 140.453125 85.40625 140.453125 87.199219 L 140.453125 124.957031 C 140.453125 126.746094 139.742188 128.464844 138.476562 129.730469 C 137.210938 130.996094 135.492188 131.707031 133.703125 131.707031 L 92.855469 131.707031 C 91.066406 131.707031 89.347656 130.996094 88.082031 129.730469 C 86.816406 128.464844 86.105469 126.746094 86.105469 124.957031 L 86.105469 87.199219 C 86.105469 85.40625 86.816406 83.691406 88.082031 82.425781 C 89.347656 81.160156 91.066406 80.449219 92.855469 80.449219 Z M 92.855469 80.449219 " clip-rule="nonzero"/></clipPath><clipPath id="5512f713ac"><path d="M 25 43 L 61 43 L 61 68.589844 L 25 68.589844 Z M 25 43 " clip-rule="nonzero"/></clipPath><clipPath id="f63df63b1b"><path d="M 20 16.089844 L 66 16.089844 L 66 33 L 20 33 Z M 20 16.089844 " clip-rule="nonzero"/></clipPath><clipPath id="09d28c4a23"><path d="M 9.304688 42 L 17 42 L 17 66 L 9.304688 66 Z M 9.304688 42 " clip-rule="nonzero"/></clipPath><clipPath id="704e7adcf7"><path d="M 69 42 L 76.804688 42 L 76.804688 66 L 69 66 Z M 69 42 " clip-rule="nonzero"/></clipPath><clipPath id="c0f1581f27"><path d="M 15.777344 80.449219 L 69.773438 80.449219 L 69.773438 131.449219 L 15.777344 131.449219 Z M 15.777344 80.449219 " clip-rule="nonzero"/></clipPath><clipPath id="3a5c9bb6dd"><path d="M 22.527344 80.449219 L 63.375 80.449219 C 65.164062 80.449219 66.878906 81.160156 68.144531 82.425781 C 69.410156 83.691406 70.121094 85.40625 70.121094 87.199219 L 70.121094 124.957031 C 70.121094 126.746094 69.410156 128.464844 68.144531 129.730469 C 66.878906 130.996094 65.164062 131.707031 63.375 131.707031 L 22.527344 131.707031 C 20.734375 131.707031 19.019531 130.996094 17.753906 129.730469 C 16.488281 128.464844 15.777344 126.746094 15.777344 124.957031 L 15.777344 87.199219 C 15.777344 85.40625 16.488281 83.691406 17.753906 82.425781 C 19.019531 81.160156 20.734375 80.449219 22.527344 80.449219 Z M 22.527344 80.449219 " clip-rule="nonzero"/></clipPath><clipPath id="a0e2847926"><path d="M 86.105469 17.3125 L 140.105469 17.3125 L 140.105469 68.3125 L 86.105469 68.3125 Z M 86.105469 17.3125 " clip-rule="nonzero"/></clipPath><clipPath id="4d5e9a1d3a"><path d="M 92.855469 17.3125 L 133.703125 17.3125 C 135.492188 17.3125 137.210938 18.023438 138.476562 19.289062 C 139.742188 20.554688 140.453125 22.269531 140.453125 24.058594 L 140.453125 61.820312 C 140.453125 63.609375 139.742188 65.328125 138.476562 66.59375 C 137.210938 67.859375 135.492188 68.570312 133.703125 68.570312 L 92.855469 68.570312 C 91.066406 68.570312 89.347656 67.859375 88.082031 66.59375 C 86.816406 65.328125 86.105469 63.609375 86.105469 61.820312 L 86.105469 24.058594 C 86.105469 22.269531 86.816406 20.554688 88.082031 19.289062 C 89.347656 18.023438 91.066406 17.3125 92.855469 17.3125 Z M 92.855469 17.3125 " clip-rule="nonzero"/></clipPath></defs><g clip-path="url(#e3a5b9f246)"><g clip-path="url(#b04166032d)"><path stroke-linecap="butt" transform="matrix(0.75, 0, 0, 0.75, 86.107232, 80.448917)" fill="none" stroke-linejoin="miter" d="M 8.99765 0.000402991 L 63.461198 0.000402991 C 65.846615 0.000402991 68.138282 0.94832 69.825782 2.63582 C 71.513282 4.32332 72.461199 6.609779 72.461199 9.000404 L 72.461199 59.34416 C 72.461199 61.729577 71.513282 64.021244 69.825782 65.708744 C 68.138282 67.396245 65.846615 68.344161 63.461198 68.344161 L 8.99765 68.344161 C 6.612233 68.344161 4.320566 67.396245 2.633066 65.708744 C 0.945565 64.021244 -0.0023513 61.729577 -0.0023513 59.34416 L -0.0023513 9.000404 C -0.0023513 6.609779 0.945565 4.32332 2.633066 2.63582 C 4.320566 0.94832 6.612233 0.000402991 8.99765 0.000402991 Z M 8.99765 0.000402991 " stroke="#72d1e5" stroke-width="8" stroke-opacity="1" stroke-miterlimit="4"/></g></g><g fill="#9dafbb" fill-opacity="1"><g transform="translate(99.744372, 111.948915)"><g><path d="M 4.421875 0.0625 C 3.753906 0.0625 3.175781 -0.0625 2.6875 -0.3125 C 2.195312 -0.5625 1.789062 -0.898438 1.46875 -1.328125 C 1.144531 -1.753906 0.90625 -2.222656 0.75 -2.734375 C 0.59375 -3.253906 0.515625 -3.78125 0.515625 -4.3125 C 0.515625 -4.925781 0.617188 -5.503906 0.828125 -6.046875 C 1.046875 -6.597656 1.347656 -7.082031 1.734375 -7.5 C 2.117188 -7.914062 2.582031 -8.242188 3.125 -8.484375 C 3.675781 -8.722656 4.285156 -8.84375 4.953125 -8.84375 C 5.359375 -8.84375 5.742188 -8.789062 6.109375 -8.6875 C 6.484375 -8.59375 6.832031 -8.425781 7.15625 -8.1875 C 7.488281 -7.957031 7.789062 -7.632812 8.0625 -7.21875 C 8.125 -7.125 8.164062 -7.03125 8.1875 -6.9375 C 8.21875 -6.84375 8.234375 -6.75 8.234375 -6.65625 C 8.234375 -6.476562 8.164062 -6.316406 8.03125 -6.171875 C 7.90625 -6.023438 7.753906 -5.910156 7.578125 -5.828125 C 7.398438 -5.742188 7.234375 -5.703125 7.078125 -5.703125 C 6.929688 -5.703125 6.804688 -5.738281 6.703125 -5.8125 C 6.609375 -5.882812 6.507812 -5.988281 6.40625 -6.125 C 6.207031 -6.394531 5.988281 -6.578125 5.75 -6.671875 C 5.519531 -6.773438 5.28125 -6.828125 5.03125 -6.828125 C 4.78125 -6.828125 4.546875 -6.769531 4.328125 -6.65625 C 4.109375 -6.539062 3.910156 -6.367188 3.734375 -6.140625 C 3.566406 -5.921875 3.4375 -5.648438 3.34375 -5.328125 C 3.25 -5.015625 3.203125 -4.660156 3.203125 -4.265625 C 3.203125 -3.960938 3.25 -3.632812 3.34375 -3.28125 C 3.445312 -2.9375 3.609375 -2.640625 3.828125 -2.390625 C 4.054688 -2.148438 4.34375 -2.03125 4.6875 -2.03125 C 5.101562 -2.03125 5.457031 -2.140625 5.75 -2.359375 C 6.050781 -2.585938 6.335938 -2.851562 6.609375 -3.15625 C 6.703125 -3.257812 6.785156 -3.328125 6.859375 -3.359375 C 6.941406 -3.398438 7.046875 -3.421875 7.171875 -3.421875 C 7.328125 -3.421875 7.492188 -3.367188 7.671875 -3.265625 C 7.847656 -3.160156 8 -3.023438 8.125 -2.859375 C 8.25 -2.691406 8.3125 -2.519531 8.3125 -2.34375 C 8.3125 -2.257812 8.300781 -2.164062 8.28125 -2.0625 C 8.257812 -1.96875 8.195312 -1.863281 8.09375 -1.75 C 7.613281 -1.15625 7.035156 -0.703125 6.359375 -0.390625 C 5.691406 -0.0859375 5.046875 0.0625 4.421875 0.0625 Z M 4.421875 0.0625 "/></g></g></g><g fill="#9dafbb" fill-opacity="1"><g transform="translate(108.574255, 111.948915)"><g><path d="M 0.5625 -3.75 C 0.5625 -4.394531 0.65625 -5.019531 0.84375 -5.625 C 1.039062 -6.238281 1.316406 -6.785156 1.671875 -7.265625 C 2.023438 -7.742188 2.460938 -8.125 2.984375 -8.40625 C 3.503906 -8.6875 4.09375 -8.828125 4.75 -8.828125 C 5.164062 -8.828125 5.53125 -8.757812 5.84375 -8.625 C 6.15625 -8.5 6.4375 -8.3125 6.6875 -8.0625 C 6.738281 -8.300781 6.828125 -8.492188 6.953125 -8.640625 C 7.085938 -8.785156 7.316406 -8.859375 7.640625 -8.859375 C 8.023438 -8.859375 8.363281 -8.765625 8.65625 -8.578125 C 8.945312 -8.390625 9.085938 -8.15625 9.078125 -7.875 C 9.066406 -7.582031 9.015625 -7.1875 8.921875 -6.6875 C 8.835938 -6.195312 8.765625 -5.710938 8.703125 -5.234375 C 8.679688 -5.085938 8.648438 -4.894531 8.609375 -4.65625 C 8.578125 -4.414062 8.546875 -4.179688 8.515625 -3.953125 C 8.492188 -3.722656 8.476562 -3.53125 8.46875 -3.375 C 8.457031 -3.21875 8.453125 -3.019531 8.453125 -2.78125 C 8.453125 -2.539062 8.484375 -2.328125 8.546875 -2.140625 C 8.609375 -1.960938 8.710938 -1.875 8.859375 -1.875 C 8.941406 -1.875 9.015625 -1.894531 9.078125 -1.9375 C 9.148438 -1.976562 9.21875 -2.035156 9.28125 -2.109375 C 9.382812 -2.179688 9.476562 -2.242188 9.5625 -2.296875 C 9.644531 -2.347656 9.75 -2.375 9.875 -2.375 C 10.019531 -2.375 10.15625 -2.320312 10.28125 -2.21875 C 10.40625 -2.113281 10.5 -1.972656 10.5625 -1.796875 C 10.632812 -1.628906 10.640625 -1.441406 10.578125 -1.234375 C 10.535156 -1.023438 10.394531 -0.8125 10.15625 -0.59375 C 9.925781 -0.382812 9.648438 -0.207031 9.328125 -0.0625 C 9.015625 0.0703125 8.707031 0.140625 8.40625 0.140625 C 8.09375 0.140625 7.804688 0.078125 7.546875 -0.046875 C 7.296875 -0.179688 7.082031 -0.363281 6.90625 -0.59375 C 6.726562 -0.820312 6.609375 -1.09375 6.546875 -1.40625 C 6.265625 -0.988281 5.894531 -0.640625 5.4375 -0.359375 C 4.988281 -0.0859375 4.484375 0.046875 3.921875 0.046875 C 3.210938 0.046875 2.609375 -0.113281 2.109375 -0.4375 C 1.609375 -0.769531 1.222656 -1.222656 0.953125 -1.796875 C 0.691406 -2.367188 0.5625 -3.019531 0.5625 -3.75 Z M 3.265625 -3.859375 C 3.265625 -3.515625 3.300781 -3.207031 3.375 -2.9375 C 3.445312 -2.664062 3.5625 -2.445312 3.71875 -2.28125 C 3.875 -2.125 4.082031 -2.046875 4.34375 -2.046875 C 4.550781 -2.046875 4.734375 -2.097656 4.890625 -2.203125 C 5.054688 -2.304688 5.203125 -2.441406 5.328125 -2.609375 C 5.453125 -2.785156 5.550781 -2.992188 5.625 -3.234375 C 5.71875 -3.472656 5.796875 -3.726562 5.859375 -4 C 5.921875 -4.269531 5.972656 -4.539062 6.015625 -4.8125 C 6.054688 -5.09375 6.09375 -5.363281 6.125 -5.625 C 6.15625 -5.894531 6.179688 -6.160156 6.203125 -6.421875 C 6.054688 -6.554688 5.882812 -6.660156 5.6875 -6.734375 C 5.5 -6.816406 5.300781 -6.859375 5.09375 -6.859375 C 4.800781 -6.859375 4.539062 -6.78125 4.3125 -6.625 C 4.09375 -6.476562 3.898438 -6.265625 3.734375 -5.984375 C 3.578125 -5.703125 3.457031 -5.378906 3.375 -5.015625 C 3.300781 -4.660156 3.265625 -4.273438 3.265625 -3.859375 Z M 3.265625 -3.859375 "/></g></g></g><g fill="#9dafbb" fill-opacity="1"><g transform="translate(119.099706, 111.948915)"><g><path d="M 1.8125 -10.171875 C 1.84375 -10.421875 1.941406 -10.613281 2.109375 -10.75 C 2.273438 -10.894531 2.554688 -10.96875 2.953125 -10.96875 C 3.222656 -10.96875 3.476562 -10.9375 3.71875 -10.875 C 3.96875 -10.820312 4.160156 -10.726562 4.296875 -10.59375 C 4.441406 -10.46875 4.492188 -10.28125 4.453125 -10.03125 C 4.390625 -9.476562 4.320312 -8.90625 4.25 -8.3125 C 4.1875 -7.71875 4.140625 -7.109375 4.109375 -6.484375 C 4.078125 -5.859375 4.070312 -5.21875 4.09375 -4.5625 C 4.113281 -3.875 4.148438 -3.359375 4.203125 -3.015625 C 4.265625 -2.671875 4.335938 -2.441406 4.421875 -2.328125 C 4.515625 -2.210938 4.601562 -2.15625 4.6875 -2.15625 C 4.78125 -2.15625 4.882812 -2.203125 5 -2.296875 C 5.125 -2.390625 5.238281 -2.492188 5.34375 -2.609375 C 5.457031 -2.734375 5.546875 -2.832031 5.609375 -2.90625 C 5.679688 -2.988281 5.757812 -3.054688 5.84375 -3.109375 C 5.9375 -3.171875 6.039062 -3.203125 6.15625 -3.203125 C 6.320312 -3.203125 6.488281 -3.15625 6.65625 -3.0625 C 6.820312 -2.976562 6.96875 -2.859375 7.09375 -2.703125 C 7.21875 -2.554688 7.28125 -2.378906 7.28125 -2.171875 C 7.28125 -2.097656 7.257812 -1.972656 7.21875 -1.796875 C 7.175781 -1.617188 7.023438 -1.40625 6.765625 -1.15625 C 6.484375 -0.863281 6.164062 -0.617188 5.8125 -0.421875 C 5.457031 -0.234375 5.109375 -0.09375 4.765625 0 C 4.421875 0.0820312 4.117188 0.125 3.859375 0.125 C 3.171875 0.125 2.660156 -0.046875 2.328125 -0.390625 C 2.003906 -0.742188 1.769531 -1.226562 1.625 -1.84375 C 1.53125 -2.3125 1.46875 -2.769531 1.4375 -3.21875 C 1.414062 -3.664062 1.40625 -4.128906 1.40625 -4.609375 C 1.40625 -5.253906 1.414062 -5.878906 1.4375 -6.484375 C 1.46875 -7.097656 1.507812 -7.707031 1.5625 -8.3125 C 1.625 -8.914062 1.707031 -9.535156 1.8125 -10.171875 Z M 1.03125 -6.671875 C 0.820312 -6.660156 0.644531 -6.734375 0.5 -6.890625 C 0.351562 -7.054688 0.28125 -7.296875 0.28125 -7.609375 C 0.28125 -7.921875 0.351562 -8.148438 0.5 -8.296875 C 0.644531 -8.453125 0.820312 -8.535156 1.03125 -8.546875 C 1.300781 -8.566406 1.644531 -8.582031 2.0625 -8.59375 C 2.476562 -8.613281 2.921875 -8.625 3.390625 -8.625 C 3.867188 -8.632812 4.351562 -8.640625 4.84375 -8.640625 C 5.332031 -8.648438 5.796875 -8.65625 6.234375 -8.65625 C 6.421875 -8.65625 6.59375 -8.578125 6.75 -8.421875 C 6.90625 -8.273438 6.984375 -8.019531 6.984375 -7.65625 C 6.984375 -7.363281 6.898438 -7.144531 6.734375 -7 C 6.578125 -6.851562 6.410156 -6.78125 6.234375 -6.78125 C 5.785156 -6.78125 5.34375 -6.773438 4.90625 -6.765625 C 4.476562 -6.765625 4.050781 -6.757812 3.625 -6.75 C 3.195312 -6.75 2.769531 -6.738281 2.34375 -6.71875 C 1.914062 -6.707031 1.476562 -6.691406 1.03125 -6.671875 Z M 1.03125 -6.671875 "/></g></g></g><path fill="#ff66c4" d="M 16.507812 41.085938 C 16.640625 40.382812 16.792969 39.6875 16.96875 39.003906 C 17.523438 36.847656 18.292969 34.792969 19.253906 32.867188 C 19.691406 33.335938 20.230469 33.699219 20.839844 33.910156 C 19.984375 35.664062 19.292969 37.523438 18.792969 39.46875 C 18.65625 40 18.535156 40.539062 18.429688 41.085938 Z M 16.507812 41.085938 " fill-opacity="1" fill-rule="evenodd"/><path fill="#ff66c4" d="M 67.472656 41.085938 C 67.363281 40.539062 67.242188 40 67.105469 39.46875 C 66.605469 37.523438 65.914062 35.664062 65.058594 33.910156 C 65.667969 33.699219 66.207031 33.335938 66.648438 32.867188 C 67.605469 34.792969 68.375 36.847656 68.929688 39.003906 C 69.105469 39.6875 69.257812 40.382812 69.390625 41.085938 Z M 67.472656 41.085938 " fill-opacity="1" fill-rule="evenodd"/><g clip-path="url(#5512f713ac)"><path fill="#ff66c4" d="M 60.65625 55.0625 L 55.59375 55.0625 C 55.253906 55.0625 54.945312 54.882812 54.777344 54.589844 L 51.976562 49.769531 L 47.117188 67.519531 C 46.933594 68.488281 45.550781 68.5625 45.277344 67.601562 L 39.675781 47.988281 L 36.6875 63.21875 C 36.523438 64.042969 35.429688 64.269531 34.964844 63.546875 L 29.519531 55.0625 L 25.242188 55.0625 L 25.242188 53.171875 L 30.035156 53.171875 C 30.390625 53.171875 30.703125 53.371094 30.863281 53.660156 L 35.285156 60.550781 L 38.578125 43.769531 C 38.769531 42.792969 40.148438 42.75 40.414062 43.699219 L 46.167969 63.839844 L 50.75 47.101562 C 50.972656 46.289062 52.0625 46.164062 52.476562 46.878906 L 56.132812 53.171875 L 60.65625 53.171875 Z M 60.65625 55.0625 " fill-opacity="1" fill-rule="evenodd"/></g><g clip-path="url(#f63df63b1b)"><path fill="#ff66c4" d="M 23.515625 31.421875 C 23.21875 31.785156 22.804688 32.042969 22.339844 32.117188 C 21.175781 32.304688 20.25 31.351562 20.101562 30.257812 C 20.023438 29.675781 20.152344 29.082031 20.480469 28.59375 C 21.773438 26.683594 23.277344 24.914062 24.96875 23.347656 C 26.621094 21.816406 28.449219 20.480469 30.417969 19.386719 C 34.273438 17.246094 38.535156 16.105469 42.949219 16.105469 C 47.363281 16.105469 51.625 17.246094 55.484375 19.386719 C 57.449219 20.480469 59.277344 21.816406 60.929688 23.347656 C 62.625 24.914062 64.125 26.683594 65.417969 28.59375 C 65.746094 29.082031 65.875 29.675781 65.796875 30.257812 C 65.648438 31.351562 64.722656 32.304688 63.558594 32.117188 C 63.09375 32.042969 62.683594 31.785156 62.386719 31.421875 C 61.046875 29.785156 59.984375 28.21875 58.410156 26.761719 C 56.992188 25.449219 55.421875 24.296875 53.726562 23.359375 C 52.078125 22.441406 50.320312 21.734375 48.496094 21.257812 C 46.683594 20.78125 44.820312 20.542969 42.949219 20.542969 C 41.078125 20.542969 39.214844 20.78125 37.402344 21.257812 C 35.578125 21.734375 33.820312 22.441406 32.171875 23.359375 C 30.480469 24.296875 28.910156 25.449219 27.488281 26.761719 C 25.914062 28.21875 24.851562 29.78125 23.515625 31.421875 Z M 23.515625 31.421875 " fill-opacity="1" fill-rule="evenodd"/></g><g clip-path="url(#09d28c4a23)"><path fill="#ff66c4" d="M 15.964844 65.261719 L 15.964844 46.972656 C 15.964844 45.621094 16.050781 44.285156 16.214844 42.976562 L 15.382812 42.976562 C 13.726562 42.976562 12.21875 43.726562 11.121094 44.933594 C 10 46.167969 9.304688 47.875 9.304688 49.757812 L 9.304688 58.480469 C 9.304688 60.363281 10 62.070312 11.121094 63.300781 C 12.21875 64.507812 13.726562 65.261719 15.382812 65.261719 Z M 15.964844 65.261719 " fill-opacity="1" fill-rule="evenodd"/></g><path fill="#ff66c4" d="M 18.117188 42.976562 C 17.945312 44.277344 17.855469 45.613281 17.855469 46.972656 L 17.855469 65.261719 L 20.847656 65.261719 C 21.234375 65.261719 21.457031 64.839844 21.457031 64.496094 L 21.457031 43.742188 C 21.457031 43.394531 21.234375 42.976562 20.847656 42.976562 Z M 18.117188 42.976562 " fill-opacity="1" fill-rule="evenodd"/><g clip-path="url(#704e7adcf7)"><path fill="#ff66c4" d="M 69.683594 42.976562 C 69.851562 44.285156 69.933594 45.621094 69.933594 46.972656 L 69.933594 65.261719 L 70.515625 65.261719 C 72.171875 65.261719 73.679688 64.507812 74.777344 63.300781 C 75.898438 62.070312 76.59375 60.363281 76.59375 58.480469 L 76.59375 49.757812 C 76.59375 47.875 75.898438 46.167969 74.777344 44.933594 C 73.679688 43.726562 72.171875 42.976562 70.515625 42.976562 Z M 69.683594 42.976562 " fill-opacity="1" fill-rule="evenodd"/></g><path fill="#ff66c4" d="M 68.042969 65.261719 L 68.042969 46.972656 C 68.042969 45.613281 67.953125 44.28125 67.78125 42.976562 L 65.050781 42.976562 C 64.664062 42.976562 64.441406 43.398438 64.441406 43.742188 L 64.441406 64.496094 C 64.441406 64.839844 64.664062 65.261719 65.050781 65.261719 Z M 68.042969 65.261719 " fill-opacity="1" fill-rule="evenodd"/><g clip-path="url(#c0f1581f27)"><g clip-path="url(#3a5c9bb6dd)"><path stroke-linecap="butt" transform="matrix(0.75, 0, 0, 0.75, 15.777464, 80.448917)" fill="none" stroke-linejoin="miter" d="M 8.99984 0.000402991 L 63.463389 0.000402991 C 65.848806 0.000402991 68.135264 0.94832 69.822765 2.63582 C 71.510265 4.32332 72.458182 6.609779 72.458182 9.000404 L 72.458182 59.34416 C 72.458182 61.729577 71.510265 64.021244 69.822765 65.708744 C 68.135264 67.396245 65.848806 68.344161 63.463389 68.344161 L 8.99984 68.344161 C 6.609215 68.344161 4.322757 67.396245 2.635256 65.708744 C 0.947756 64.021244 -0.000160666 61.729577 -0.000160666 59.34416 L -0.000160666 9.000404 C -0.000160666 6.609779 0.947756 4.32332 2.635256 2.63582 C 4.322757 0.94832 6.609215 0.000402991 8.99984 0.000402991 Z M 8.99984 0.000402991 " stroke="#ffbd59" stroke-width="8" stroke-opacity="1" stroke-miterlimit="4"/></g></g><g fill="#9dafbb" fill-opacity="1"><g transform="translate(23.262259, 111.948915)"><g><path d="M 1.390625 -12.25 C 1.410156 -12.613281 1.519531 -12.890625 1.71875 -13.078125 C 1.925781 -13.265625 2.304688 -13.359375 2.859375 -13.359375 C 3.316406 -13.359375 3.648438 -13.273438 3.859375 -13.109375 C 4.078125 -12.941406 4.164062 -12.65625 4.125 -12.25 C 4.101562 -11.9375 4.078125 -11.601562 4.046875 -11.25 C 4.023438 -10.894531 4 -10.519531 3.96875 -10.125 C 3.945312 -9.726562 3.925781 -9.3125 3.90625 -8.875 C 3.882812 -8.4375 3.863281 -7.972656 3.84375 -7.484375 C 3.96875 -7.679688 4.128906 -7.878906 4.328125 -8.078125 C 4.535156 -8.285156 4.785156 -8.457031 5.078125 -8.59375 C 5.367188 -8.738281 5.707031 -8.8125 6.09375 -8.8125 C 6.738281 -8.8125 7.273438 -8.644531 7.703125 -8.3125 C 8.140625 -7.976562 8.46875 -7.5 8.6875 -6.875 C 8.90625 -6.257812 9.015625 -5.535156 9.015625 -4.703125 C 9.015625 -3.804688 8.851562 -2.988281 8.53125 -2.25 C 8.21875 -1.519531 7.769531 -0.9375 7.1875 -0.5 C 6.601562 -0.0703125 5.921875 0.140625 5.140625 0.140625 C 4.742188 0.140625 4.375 0.0859375 4.03125 -0.015625 C 3.6875 -0.117188 3.394531 -0.265625 3.15625 -0.453125 C 3.09375 -0.253906 2.957031 -0.117188 2.75 -0.046875 C 2.550781 0.0234375 2.28125 0.0625 1.9375 0.0625 C 1.59375 0.0625 1.316406 0.0078125 1.109375 -0.09375 C 0.910156 -0.195312 0.8125 -0.351562 0.8125 -0.5625 C 0.8125 -0.644531 0.8125 -0.75 0.8125 -0.875 C 0.820312 -1 0.832031 -1.09375 0.84375 -1.15625 C 0.738281 -1.238281 0.660156 -1.351562 0.609375 -1.5 C 0.566406 -1.644531 0.546875 -1.796875 0.546875 -1.953125 C 0.546875 -2.097656 0.578125 -2.234375 0.640625 -2.359375 C 0.703125 -2.492188 0.796875 -2.597656 0.921875 -2.671875 C 0.992188 -3.859375 1.050781 -4.972656 1.09375 -6.015625 C 1.132812 -7.066406 1.175781 -8.101562 1.21875 -9.125 C 1.257812 -10.144531 1.316406 -11.1875 1.390625 -12.25 Z M 3.515625 -2.28125 C 3.691406 -2.132812 3.867188 -2.023438 4.046875 -1.953125 C 4.222656 -1.890625 4.425781 -1.859375 4.65625 -1.859375 C 4.96875 -1.859375 5.25 -1.953125 5.5 -2.140625 C 5.75 -2.335938 5.941406 -2.628906 6.078125 -3.015625 C 6.210938 -3.398438 6.28125 -3.894531 6.28125 -4.5 C 6.28125 -4.882812 6.242188 -5.226562 6.171875 -5.53125 C 6.097656 -5.84375 5.976562 -6.085938 5.8125 -6.265625 C 5.65625 -6.441406 5.441406 -6.53125 5.171875 -6.53125 C 4.960938 -6.53125 4.765625 -6.453125 4.578125 -6.296875 C 4.398438 -6.148438 4.238281 -5.957031 4.09375 -5.71875 C 3.957031 -5.488281 3.847656 -5.242188 3.765625 -4.984375 C 3.679688 -4.734375 3.628906 -4.492188 3.609375 -4.265625 C 3.597656 -4.046875 3.585938 -3.816406 3.578125 -3.578125 C 3.566406 -3.347656 3.554688 -3.125 3.546875 -2.90625 C 3.546875 -2.695312 3.535156 -2.488281 3.515625 -2.28125 Z M 3.515625 -2.28125 "/></g></g></g><g fill="#9dafbb" fill-opacity="1"><g transform="translate(32.971941, 111.948915)"><g><path d="M 4.9375 -8.84375 C 5.195312 -8.84375 5.5 -8.816406 5.84375 -8.765625 C 6.1875 -8.710938 6.507812 -8.640625 6.8125 -8.546875 C 7.113281 -8.453125 7.34375 -8.332031 7.5 -8.1875 C 8.007812 -7.789062 8.378906 -7.273438 8.609375 -6.640625 C 8.847656 -6.003906 8.96875 -5.320312 8.96875 -4.59375 C 8.96875 -4.007812 8.890625 -3.4375 8.734375 -2.875 C 8.578125 -2.3125 8.332031 -1.804688 8 -1.359375 C 7.664062 -0.910156 7.25 -0.550781 6.75 -0.28125 C 6.25 -0.0195312 5.65625 0.109375 4.96875 0.109375 C 4.195312 0.109375 3.523438 -0.00390625 2.953125 -0.234375 C 2.390625 -0.472656 1.925781 -0.800781 1.5625 -1.21875 C 1.195312 -1.632812 0.925781 -2.109375 0.75 -2.640625 C 0.570312 -3.171875 0.484375 -3.738281 0.484375 -4.34375 C 0.484375 -4.914062 0.570312 -5.46875 0.75 -6 C 0.925781 -6.539062 1.195312 -7.019531 1.5625 -7.4375 C 1.925781 -7.863281 2.390625 -8.203125 2.953125 -8.453125 C 3.515625 -8.710938 4.175781 -8.84375 4.9375 -8.84375 Z M 3.15625 -4.421875 C 3.15625 -4.023438 3.210938 -3.632812 3.328125 -3.25 C 3.441406 -2.875 3.625 -2.5625 3.875 -2.3125 C 4.132812 -2.070312 4.460938 -1.953125 4.859375 -1.953125 C 5.128906 -1.953125 5.359375 -2.03125 5.546875 -2.1875 C 5.734375 -2.34375 5.878906 -2.546875 5.984375 -2.796875 C 6.097656 -3.046875 6.175781 -3.316406 6.21875 -3.609375 C 6.269531 -3.898438 6.296875 -4.1875 6.296875 -4.46875 C 6.296875 -5.070312 6.21875 -5.550781 6.0625 -5.90625 C 5.914062 -6.257812 5.710938 -6.523438 5.453125 -6.703125 C 5.335938 -6.734375 5.234375 -6.753906 5.140625 -6.765625 C 5.054688 -6.785156 4.957031 -6.796875 4.84375 -6.796875 C 4.539062 -6.796875 4.273438 -6.726562 4.046875 -6.59375 C 3.828125 -6.457031 3.648438 -6.273438 3.515625 -6.046875 C 3.390625 -5.828125 3.296875 -5.578125 3.234375 -5.296875 C 3.179688 -5.015625 3.15625 -4.722656 3.15625 -4.421875 Z M 3.15625 -4.421875 "/></g></g></g><g fill="#9dafbb" fill-opacity="1"><g transform="translate(42.505658, 111.948915)"><g><path d="M 4.9375 -8.84375 C 5.195312 -8.84375 5.5 -8.816406 5.84375 -8.765625 C 6.1875 -8.710938 6.507812 -8.640625 6.8125 -8.546875 C 7.113281 -8.453125 7.34375 -8.332031 7.5 -8.1875 C 8.007812 -7.789062 8.378906 -7.273438 8.609375 -6.640625 C 8.847656 -6.003906 8.96875 -5.320312 8.96875 -4.59375 C 8.96875 -4.007812 8.890625 -3.4375 8.734375 -2.875 C 8.578125 -2.3125 8.332031 -1.804688 8 -1.359375 C 7.664062 -0.910156 7.25 -0.550781 6.75 -0.28125 C 6.25 -0.0195312 5.65625 0.109375 4.96875 0.109375 C 4.195312 0.109375 3.523438 -0.00390625 2.953125 -0.234375 C 2.390625 -0.472656 1.925781 -0.800781 1.5625 -1.21875 C 1.195312 -1.632812 0.925781 -2.109375 0.75 -2.640625 C 0.570312 -3.171875 0.484375 -3.738281 0.484375 -4.34375 C 0.484375 -4.914062 0.570312 -5.46875 0.75 -6 C 0.925781 -6.539062 1.195312 -7.019531 1.5625 -7.4375 C 1.925781 -7.863281 2.390625 -8.203125 2.953125 -8.453125 C 3.515625 -8.710938 4.175781 -8.84375 4.9375 -8.84375 Z M 3.15625 -4.421875 C 3.15625 -4.023438 3.210938 -3.632812 3.328125 -3.25 C 3.441406 -2.875 3.625 -2.5625 3.875 -2.3125 C 4.132812 -2.070312 4.460938 -1.953125 4.859375 -1.953125 C 5.128906 -1.953125 5.359375 -2.03125 5.546875 -2.1875 C 5.734375 -2.34375 5.878906 -2.546875 5.984375 -2.796875 C 6.097656 -3.046875 6.175781 -3.316406 6.21875 -3.609375 C 6.269531 -3.898438 6.296875 -4.1875 6.296875 -4.46875 C 6.296875 -5.070312 6.21875 -5.550781 6.0625 -5.90625 C 5.914062 -6.257812 5.710938 -6.523438 5.453125 -6.703125 C 5.335938 -6.734375 5.234375 -6.753906 5.140625 -6.765625 C 5.054688 -6.785156 4.957031 -6.796875 4.84375 -6.796875 C 4.539062 -6.796875 4.273438 -6.726562 4.046875 -6.59375 C 3.828125 -6.457031 3.648438 -6.273438 3.515625 -6.046875 C 3.390625 -5.828125 3.296875 -5.578125 3.234375 -5.296875 C 3.179688 -5.015625 3.15625 -4.722656 3.15625 -4.421875 Z M 3.15625 -4.421875 "/></g></g></g><g fill="#9dafbb" fill-opacity="1"><g transform="translate(51.911397, 111.948915)"><g><path d="M 1.484375 -12.359375 C 1.503906 -12.628906 1.613281 -12.828125 1.8125 -12.953125 C 2.007812 -13.085938 2.378906 -13.15625 2.921875 -13.15625 C 3.390625 -13.15625 3.691406 -13.0625 3.828125 -12.875 C 3.972656 -12.6875 4.046875 -12.460938 4.046875 -12.203125 C 4.046875 -11.953125 4.015625 -11.578125 3.953125 -11.078125 C 3.890625 -10.585938 3.816406 -9.910156 3.734375 -9.046875 C 3.648438 -8.191406 3.582031 -7.101562 3.53125 -5.78125 C 3.582031 -5.8125 3.691406 -5.890625 3.859375 -6.015625 C 4.035156 -6.148438 4.238281 -6.3125 4.46875 -6.5 C 4.707031 -6.695312 4.960938 -6.90625 5.234375 -7.125 C 5.515625 -7.351562 5.796875 -7.582031 6.078125 -7.8125 C 6.359375 -8.039062 6.617188 -8.253906 6.859375 -8.453125 C 7.023438 -8.585938 7.175781 -8.679688 7.3125 -8.734375 C 7.445312 -8.796875 7.609375 -8.828125 7.796875 -8.828125 C 8.023438 -8.828125 8.21875 -8.773438 8.375 -8.671875 C 8.539062 -8.578125 8.664062 -8.453125 8.75 -8.296875 C 8.84375 -8.140625 8.910156 -7.988281 8.953125 -7.84375 C 8.992188 -7.695312 9.015625 -7.578125 9.015625 -7.484375 C 9.015625 -7.378906 8.992188 -7.273438 8.953125 -7.171875 C 8.910156 -7.066406 8.820312 -6.957031 8.6875 -6.84375 C 8.550781 -6.738281 8.390625 -6.617188 8.203125 -6.484375 C 8.023438 -6.347656 7.832031 -6.203125 7.625 -6.046875 C 7.425781 -5.898438 7.21875 -5.742188 7 -5.578125 C 6.789062 -5.421875 6.582031 -5.265625 6.375 -5.109375 C 6.175781 -4.960938 5.988281 -4.820312 5.8125 -4.6875 C 5.945312 -4.476562 6.09375 -4.242188 6.25 -3.984375 C 6.40625 -3.722656 6.554688 -3.472656 6.703125 -3.234375 C 6.835938 -3.015625 6.960938 -2.832031 7.078125 -2.6875 C 7.203125 -2.539062 7.316406 -2.425781 7.421875 -2.34375 C 7.535156 -2.269531 7.660156 -2.234375 7.796875 -2.234375 C 7.941406 -2.234375 8.085938 -2.300781 8.234375 -2.4375 C 8.378906 -2.570312 8.53125 -2.734375 8.6875 -2.921875 C 8.769531 -3.035156 8.863281 -3.125 8.96875 -3.1875 C 9.082031 -3.25 9.195312 -3.28125 9.3125 -3.28125 C 9.507812 -3.28125 9.691406 -3.222656 9.859375 -3.109375 C 10.035156 -2.992188 10.175781 -2.851562 10.28125 -2.6875 C 10.394531 -2.519531 10.453125 -2.34375 10.453125 -2.15625 C 10.453125 -1.976562 10.398438 -1.800781 10.296875 -1.625 C 10.203125 -1.457031 10.082031 -1.3125 9.9375 -1.1875 C 9.726562 -0.976562 9.476562 -0.769531 9.1875 -0.5625 C 8.894531 -0.363281 8.582031 -0.195312 8.25 -0.0625 C 7.914062 0.0625 7.566406 0.125 7.203125 0.125 C 6.796875 0.125 6.441406 0.046875 6.140625 -0.109375 C 5.847656 -0.265625 5.578125 -0.472656 5.328125 -0.734375 C 5.085938 -1.003906 4.859375 -1.3125 4.640625 -1.65625 C 4.367188 -2.113281 4.15625 -2.503906 4 -2.828125 C 3.84375 -3.148438 3.671875 -3.46875 3.484375 -3.78125 C 3.472656 -3.207031 3.457031 -2.660156 3.4375 -2.140625 C 3.414062 -1.617188 3.398438 -1.140625 3.390625 -0.703125 C 3.378906 -0.367188 3.273438 -0.140625 3.078125 -0.015625 C 2.890625 0.0976562 2.597656 0.15625 2.203125 0.15625 C 1.703125 0.15625 1.34375 0.0976562 1.125 -0.015625 C 0.90625 -0.140625 0.800781 -0.367188 0.8125 -0.703125 C 0.875 -2.609375 0.957031 -4.5625 1.0625 -6.5625 C 1.175781 -8.5625 1.316406 -10.492188 1.484375 -12.359375 Z M 1.484375 -12.359375 "/></g></g></g><g clip-path="url(#a0e2847926)"><g clip-path="url(#4d5e9a1d3a)"><path stroke-linecap="butt" transform="matrix(0.75, 0, 0, 0.75, 86.107232, 17.311019)" fill="none" stroke-linejoin="miter" d="M 8.99765 0.00197457 L 63.461198 0.00197457 C 65.846615 0.00197457 68.138282 0.949891 69.825782 2.637392 C 71.513282 4.324892 72.461199 6.61135 72.461199 8.996767 L 72.461199 59.345732 C 72.461199 61.731149 71.513282 64.022816 69.825782 65.710316 C 68.138282 67.397816 65.846615 68.345733 63.461198 68.345733 L 8.99765 68.345733 C 6.612233 68.345733 4.320566 67.397816 2.633066 65.710316 C 0.945565 64.022816 -0.0023513 61.731149 -0.0023513 59.345732 L -0.0023513 8.996767 C -0.0023513 6.61135 0.945565 4.324892 2.633066 2.637392 C 4.320566 0.949891 6.612233 0.00197457 8.99765 0.00197457 Z M 8.99765 0.00197457 " stroke="#78d0b1" stroke-width="8" stroke-opacity="1" stroke-miterlimit="4"/></g></g><g fill="#9dafbb" fill-opacity="1"><g transform="translate(98.713122, 48.811017)"><g><path d="M 6.703125 -12.40625 C 6.722656 -12.75 6.84375 -12.988281 7.0625 -13.125 C 7.28125 -13.269531 7.566406 -13.34375 7.921875 -13.34375 C 8.398438 -13.34375 8.757812 -13.269531 9 -13.125 C 9.25 -12.976562 9.363281 -12.707031 9.34375 -12.3125 C 9.21875 -10.457031 9.109375 -8.535156 9.015625 -6.546875 C 8.929688 -4.554688 8.847656 -2.609375 8.765625 -0.703125 C 8.753906 -0.367188 8.609375 -0.132812 8.328125 0 C 8.046875 0.132812 7.726562 0.203125 7.375 0.203125 C 7 0.203125 6.710938 0.128906 6.515625 -0.015625 C 6.316406 -0.160156 6.21875 -0.335938 6.21875 -0.546875 C 6.21875 -0.648438 6.222656 -0.75 6.234375 -0.84375 C 6.242188 -0.9375 6.253906 -1.039062 6.265625 -1.15625 C 6.285156 -1.28125 6.296875 -1.410156 6.296875 -1.546875 C 6.097656 -1.140625 5.859375 -0.8125 5.578125 -0.5625 C 5.304688 -0.3125 5 -0.125 4.65625 0 C 4.320312 0.113281 3.972656 0.171875 3.609375 0.171875 C 3.054688 0.171875 2.582031 0.0507812 2.1875 -0.1875 C 1.789062 -0.425781 1.472656 -0.742188 1.234375 -1.140625 C 0.992188 -1.535156 0.816406 -1.960938 0.703125 -2.421875 C 0.597656 -2.878906 0.546875 -3.320312 0.546875 -3.75 C 0.546875 -4.375 0.644531 -4.988281 0.84375 -5.59375 C 1.039062 -6.207031 1.316406 -6.753906 1.671875 -7.234375 C 2.023438 -7.722656 2.453125 -8.113281 2.953125 -8.40625 C 3.460938 -8.695312 4.023438 -8.84375 4.640625 -8.84375 C 4.941406 -8.84375 5.238281 -8.800781 5.53125 -8.71875 C 5.832031 -8.644531 6.132812 -8.523438 6.4375 -8.359375 C 6.46875 -8.847656 6.492188 -9.328125 6.515625 -9.796875 C 6.546875 -10.265625 6.578125 -10.71875 6.609375 -11.15625 C 6.640625 -11.601562 6.671875 -12.019531 6.703125 -12.40625 Z M 3.265625 -3.84375 C 3.265625 -3.53125 3.296875 -3.234375 3.359375 -2.953125 C 3.429688 -2.671875 3.539062 -2.441406 3.6875 -2.265625 C 3.84375 -2.085938 4.035156 -2 4.265625 -2 C 4.503906 -2 4.726562 -2.085938 4.9375 -2.265625 C 5.144531 -2.441406 5.328125 -2.664062 5.484375 -2.9375 C 5.640625 -3.207031 5.765625 -3.492188 5.859375 -3.796875 C 5.960938 -4.109375 6.023438 -4.398438 6.046875 -4.671875 C 6.054688 -4.722656 6.070312 -4.769531 6.09375 -4.8125 C 6.113281 -4.863281 6.148438 -4.910156 6.203125 -4.953125 L 6.28125 -6.375 C 6.070312 -6.539062 5.878906 -6.648438 5.703125 -6.703125 C 5.523438 -6.765625 5.332031 -6.796875 5.125 -6.796875 C 4.820312 -6.796875 4.53125 -6.6875 4.25 -6.46875 C 3.96875 -6.25 3.734375 -5.921875 3.546875 -5.484375 C 3.359375 -5.046875 3.265625 -4.5 3.265625 -3.84375 Z M 3.265625 -3.84375 "/></g></g></g><g fill="#9dafbb" fill-opacity="1"><g transform="translate(108.566747, 48.811017)"><g><path d="M 4.9375 -8.84375 C 5.195312 -8.84375 5.5 -8.816406 5.84375 -8.765625 C 6.1875 -8.710938 6.507812 -8.640625 6.8125 -8.546875 C 7.113281 -8.453125 7.34375 -8.332031 7.5 -8.1875 C 8.007812 -7.789062 8.378906 -7.273438 8.609375 -6.640625 C 8.847656 -6.003906 8.96875 -5.320312 8.96875 -4.59375 C 8.96875 -4.007812 8.890625 -3.4375 8.734375 -2.875 C 8.578125 -2.3125 8.332031 -1.804688 8 -1.359375 C 7.664062 -0.910156 7.25 -0.550781 6.75 -0.28125 C 6.25 -0.0195312 5.65625 0.109375 4.96875 0.109375 C 4.195312 0.109375 3.523438 -0.00390625 2.953125 -0.234375 C 2.390625 -0.472656 1.925781 -0.800781 1.5625 -1.21875 C 1.195312 -1.632812 0.925781 -2.109375 0.75 -2.640625 C 0.570312 -3.171875 0.484375 -3.738281 0.484375 -4.34375 C 0.484375 -4.914062 0.570312 -5.46875 0.75 -6 C 0.925781 -6.539062 1.195312 -7.019531 1.5625 -7.4375 C 1.925781 -7.863281 2.390625 -8.203125 2.953125 -8.453125 C 3.515625 -8.710938 4.175781 -8.84375 4.9375 -8.84375 Z M 3.15625 -4.421875 C 3.15625 -4.023438 3.210938 -3.632812 3.328125 -3.25 C 3.441406 -2.875 3.625 -2.5625 3.875 -2.3125 C 4.132812 -2.070312 4.460938 -1.953125 4.859375 -1.953125 C 5.128906 -1.953125 5.359375 -2.03125 5.546875 -2.1875 C 5.734375 -2.34375 5.878906 -2.546875 5.984375 -2.796875 C 6.097656 -3.046875 6.175781 -3.316406 6.21875 -3.609375 C 6.269531 -3.898438 6.296875 -4.1875 6.296875 -4.46875 C 6.296875 -5.070312 6.21875 -5.550781 6.0625 -5.90625 C 5.914062 -6.257812 5.710938 -6.523438 5.453125 -6.703125 C 5.335938 -6.734375 5.234375 -6.753906 5.140625 -6.765625 C 5.054688 -6.785156 4.957031 -6.796875 4.84375 -6.796875 C 4.539062 -6.796875 4.273438 -6.726562 4.046875 -6.59375 C 3.828125 -6.457031 3.648438 -6.273438 3.515625 -6.046875 C 3.390625 -5.828125 3.296875 -5.578125 3.234375 -5.296875 C 3.179688 -5.015625 3.15625 -4.722656 3.15625 -4.421875 Z M 3.15625 -4.421875 "/></g></g></g><g fill="#9dafbb" fill-opacity="1"><g transform="translate(118.100465, 48.811017)"><g><path d="M 0.53125 -3.875 C 0.53125 -4.53125 0.640625 -5.15625 0.859375 -5.75 C 1.078125 -6.351562 1.382812 -6.882812 1.78125 -7.34375 C 2.175781 -7.8125 2.632812 -8.179688 3.15625 -8.453125 C 3.6875 -8.722656 4.257812 -8.859375 4.875 -8.859375 C 5.195312 -8.859375 5.5 -8.820312 5.78125 -8.75 C 6.070312 -8.675781 6.335938 -8.570312 6.578125 -8.4375 C 6.640625 -8.601562 6.742188 -8.710938 6.890625 -8.765625 C 7.046875 -8.816406 7.253906 -8.84375 7.515625 -8.84375 C 8.015625 -8.84375 8.359375 -8.796875 8.546875 -8.703125 C 8.734375 -8.617188 8.820312 -8.46875 8.8125 -8.25 L 8.796875 -7.71875 C 8.878906 -7.613281 8.941406 -7.503906 8.984375 -7.390625 C 9.035156 -7.285156 9.0625 -7.117188 9.0625 -6.890625 C 9.0625 -6.484375 8.96875 -6.175781 8.78125 -5.96875 L 8.78125 -5.625 C 8.78125 -5.375 8.785156 -5.113281 8.796875 -4.84375 C 8.804688 -4.570312 8.8125 -4.21875 8.8125 -3.78125 C 8.8125 -3.195312 8.796875 -2.570312 8.765625 -1.90625 C 8.734375 -1.25 8.691406 -0.632812 8.640625 -0.0625 C 8.554688 0.875 8.335938 1.679688 7.984375 2.359375 C 7.628906 3.035156 7.171875 3.554688 6.609375 3.921875 C 6.054688 4.285156 5.421875 4.46875 4.703125 4.46875 C 4.398438 4.46875 4.054688 4.414062 3.671875 4.3125 C 3.296875 4.207031 2.910156 4.054688 2.515625 3.859375 C 2.117188 3.671875 1.742188 3.4375 1.390625 3.15625 C 1.242188 3.007812 1.132812 2.878906 1.0625 2.765625 C 0.988281 2.660156 0.953125 2.535156 0.953125 2.390625 C 0.953125 2.234375 1.007812 2.0625 1.125 1.875 C 1.238281 1.6875 1.375 1.523438 1.53125 1.390625 C 1.6875 1.253906 1.832031 1.1875 1.96875 1.1875 C 2.070312 1.1875 2.1875 1.210938 2.3125 1.265625 C 2.4375 1.316406 2.550781 1.378906 2.65625 1.453125 C 2.851562 1.578125 3.050781 1.703125 3.25 1.828125 C 3.457031 1.960938 3.664062 2.066406 3.875 2.140625 C 4.09375 2.222656 4.304688 2.265625 4.515625 2.265625 C 4.785156 2.265625 5.015625 2.195312 5.203125 2.0625 C 5.390625 1.925781 5.546875 1.726562 5.671875 1.46875 C 5.804688 1.207031 5.910156 0.90625 5.984375 0.5625 C 6.054688 0.238281 6.109375 -0.0195312 6.140625 -0.21875 C 6.179688 -0.425781 6.21875 -0.601562 6.25 -0.75 C 6.28125 -0.90625 6.3125 -1.085938 6.34375 -1.296875 C 6.0625 -0.835938 5.71875 -0.492188 5.3125 -0.265625 C 4.90625 -0.046875 4.441406 0.0625 3.921875 0.0625 C 3.242188 0.0625 2.648438 -0.113281 2.140625 -0.46875 C 1.628906 -0.832031 1.234375 -1.3125 0.953125 -1.90625 C 0.671875 -2.5 0.53125 -3.15625 0.53125 -3.875 Z M 4.53125 -1.984375 C 4.8125 -1.984375 5.046875 -2.078125 5.234375 -2.265625 C 5.421875 -2.460938 5.570312 -2.726562 5.6875 -3.0625 C 5.800781 -3.394531 5.894531 -3.789062 5.96875 -4.25 C 5.988281 -4.382812 6.003906 -4.5625 6.015625 -4.78125 C 6.035156 -5 6.050781 -5.226562 6.0625 -5.46875 C 6.070312 -5.707031 6.078125 -5.921875 6.078125 -6.109375 C 6.085938 -6.296875 6.09375 -6.410156 6.09375 -6.453125 C 5.957031 -6.585938 5.800781 -6.679688 5.625 -6.734375 C 5.445312 -6.796875 5.296875 -6.828125 5.171875 -6.828125 C 4.890625 -6.828125 4.628906 -6.753906 4.390625 -6.609375 C 4.160156 -6.460938 3.957031 -6.25 3.78125 -5.96875 C 3.613281 -5.695312 3.484375 -5.382812 3.390625 -5.03125 C 3.296875 -4.675781 3.25 -4.296875 3.25 -3.890625 C 3.25 -3.492188 3.300781 -3.148438 3.40625 -2.859375 C 3.519531 -2.578125 3.671875 -2.359375 3.859375 -2.203125 C 4.054688 -2.054688 4.28125 -1.984375 4.53125 -1.984375 Z M 4.53125 -1.984375 "/></g></g></g></svg>