<svg xmlns="http://www.w3.org/2000/svg" xmlns:xlink="http://www.w3.org/1999/xlink" width="150" zoomAndPan="magnify" viewBox="0 0 112.5 112.499997" height="150" preserveAspectRatio="xMidYMid meet" version="1.0"><defs><clipPath id="6d2537dd5d"><path d="M 34.214844 33.601562 L 77.523438 33.601562 L 77.523438 78 L 34.214844 78 Z M 34.214844 33.601562 " clip-rule="nonzero"/></clipPath><clipPath id="96287149bc"><path d="M 34.214844 42 L 67 42 L 67 78 L 34.214844 78 Z M 34.214844 42 " clip-rule="nonzero"/></clipPath><clipPath id="46f9ea3c32"><path d="M 34.214844 44 L 59 44 L 59 78 L 34.214844 78 Z M 34.214844 44 " clip-rule="nonzero"/></clipPath><clipPath id="5c07f391fa"><path d="M 56 44 L 77.523438 44 L 77.523438 64 L 56 64 Z M 56 44 " clip-rule="nonzero"/></clipPath><clipPath id="392dab61c1"><path d="M 48 33.601562 L 68 33.601562 L 68 44 L 48 44 Z M 48 33.601562 " clip-rule="nonzero"/></clipPath><clipPath id="908bf11c70"><path d="M 63 47 L 77.523438 47 L 77.523438 60 L 63 60 Z M 63 47 " clip-rule="nonzero"/></clipPath><clipPath id="8afa8f0bdc"><path d="M 55 33.601562 L 65 33.601562 L 65 38 L 55 38 Z M 55 33.601562 " clip-rule="nonzero"/></clipPath></defs><g clip-path="url(#6d2537dd5d)"><path fill="#e8bf90" d="M 77.53125 55.765625 C 77.53125 57.203125 77.398438 58.609375 77.140625 59.96875 C 75.925781 66.441406 71.960938 71.914062 66.539062 75.058594 C 63.390625 76.886719 59.75 77.925781 55.875 77.925781 C 53.703125 77.925781 51.605469 77.601562 49.625 76.992188 C 40.710938 74.246094 34.21875 65.78125 34.21875 55.765625 C 34.21875 51.808594 35.230469 48.09375 37.003906 44.878906 C 37.515625 43.953125 38.085938 43.074219 38.714844 42.238281 C 41.195312 38.953125 44.550781 36.398438 48.429688 34.945312 C 50.609375 34.128906 52.953125 33.660156 55.398438 33.605469 C 55.558594 33.601562 55.714844 33.601562 55.875 33.601562 C 58.953125 33.601562 61.878906 34.257812 64.527344 35.441406 C 65.609375 35.925781 66.648438 36.496094 67.628906 37.144531 C 70.335938 38.941406 72.628906 41.335938 74.324219 44.152344 C 74.40625 44.289062 74.484375 44.425781 74.5625 44.5625 C 74.578125 44.585938 74.59375 44.613281 74.609375 44.640625 C 74.675781 44.761719 74.746094 44.882812 74.8125 45.007812 L 74.84375 45.066406 C 74.914062 45.191406 74.980469 45.316406 75.046875 45.445312 C 75.058594 45.46875 75.066406 45.488281 75.078125 45.511719 C 75.15625 45.664062 75.230469 45.816406 75.304688 45.96875 L 75.304688 45.972656 C 75.382812 46.125 75.457031 46.285156 75.527344 46.441406 C 75.53125 46.445312 75.53125 46.449219 75.53125 46.449219 C 75.59375 46.589844 75.65625 46.734375 75.71875 46.878906 C 75.730469 46.90625 75.742188 46.933594 75.753906 46.960938 C 75.882812 47.265625 76.007812 47.574219 76.121094 47.886719 C 76.183594 48.046875 76.238281 48.207031 76.292969 48.367188 C 76.328125 48.46875 76.363281 48.570312 76.398438 48.675781 C 76.398438 48.679688 76.402344 48.683594 76.402344 48.6875 C 76.441406 48.804688 76.480469 48.925781 76.515625 49.046875 C 76.546875 49.136719 76.574219 49.226562 76.601562 49.320312 C 76.625 49.402344 76.648438 49.484375 76.671875 49.566406 C 76.703125 49.675781 76.734375 49.78125 76.761719 49.890625 C 76.792969 50.003906 76.820312 50.117188 76.851562 50.230469 C 76.859375 50.273438 76.875 50.316406 76.882812 50.363281 C 76.945312 50.613281 77 50.859375 77.050781 51.109375 C 77.132812 51.484375 77.203125 51.867188 77.257812 52.25 C 77.273438 52.335938 77.285156 52.425781 77.296875 52.511719 C 77.3125 52.589844 77.320312 52.667969 77.332031 52.75 C 77.34375 52.828125 77.351562 52.90625 77.363281 52.980469 C 77.363281 53.003906 77.367188 53.019531 77.367188 53.039062 C 77.382812 53.144531 77.394531 53.246094 77.402344 53.351562 C 77.417969 53.472656 77.429688 53.601562 77.441406 53.722656 C 77.453125 53.855469 77.460938 53.988281 77.472656 54.121094 C 77.484375 54.269531 77.492188 54.414062 77.5 54.558594 C 77.503906 54.652344 77.507812 54.742188 77.511719 54.832031 C 77.515625 54.90625 77.515625 54.976562 77.519531 55.050781 C 77.523438 55.132812 77.523438 55.21875 77.527344 55.300781 C 77.527344 55.335938 77.527344 55.367188 77.527344 55.398438 C 77.527344 55.519531 77.53125 55.640625 77.53125 55.765625 Z M 77.53125 55.765625 " fill-opacity="1" fill-rule="nonzero"/></g><g clip-path="url(#96287149bc)"><path fill="#b57e60" d="M 66.539062 75.058594 C 63.390625 76.886719 59.75 77.925781 55.875 77.925781 C 53.703125 77.925781 51.605469 77.601562 49.625 76.992188 C 40.710938 74.246094 34.21875 65.78125 34.21875 55.765625 C 34.21875 51.808594 35.230469 48.09375 37.003906 44.878906 C 37.515625 43.953125 38.085938 43.074219 38.714844 42.238281 C 40.960938 43.078125 42.640625 44.96875 42.863281 48.097656 C 42.871094 48.191406 42.867188 48.289062 42.84375 48.378906 C 42.34375 50.554688 40.050781 52.167969 40.050781 54.398438 C 40.050781 54.441406 40.054688 54.484375 40.058594 54.527344 C 40.484375 58.28125 44.726562 58.621094 47.886719 57.816406 C 48.523438 57.652344 49.140625 58.140625 49.113281 58.804688 L 49.113281 58.871094 C 49.089844 59.507812 49.667969 60.015625 50.285156 59.871094 C 51.382812 59.613281 52.699219 60.3125 52.769531 61.617188 C 52.773438 61.726562 52.761719 61.839844 52.730469 61.945312 C 51.917969 64.761719 52.855469 65.894531 55.957031 65.980469 C 55.992188 65.980469 56.027344 65.980469 56.058594 65.980469 C 64.046875 65.421875 59.175781 70.390625 61.25 74.027344 C 61.292969 74.09375 61.339844 74.160156 61.398438 74.21875 C 62.636719 75.4375 64.792969 74.765625 66.539062 75.058594 Z M 66.539062 75.058594 " fill-opacity="1" fill-rule="nonzero"/></g><g clip-path="url(#46f9ea3c32)"><path fill="#825740" d="M 57.980469 76.261719 C 56.738281 78.398438 53.066406 75.964844 50.722656 76.386719 C 50.292969 76.464844 49.914062 76.683594 49.625 76.992188 C 40.710938 74.246094 34.21875 65.78125 34.21875 55.765625 C 34.21875 51.808594 35.230469 48.09375 37.003906 44.878906 C 37.019531 44.878906 37.027344 44.878906 37.039062 44.878906 C 38.378906 44.855469 39.386719 46.085938 39.105469 47.402344 C 38.074219 52.203125 37.179688 60.457031 41.917969 60.671875 C 42.261719 60.691406 42.613281 60.628906 42.925781 60.476562 C 44.902344 59.511719 46 61.046875 45.34375 63.238281 C 45.324219 63.304688 45.300781 63.367188 45.277344 63.429688 C 44.875 64.421875 44.265625 65.453125 44.320312 66.457031 C 44.347656 66.894531 44.539062 67.304688 44.820312 67.640625 C 46.882812 70.140625 51.269531 66.242188 53.761719 67.792969 C 55.429688 68.804688 55.402344 71.289062 56.648438 72.796875 C 56.945312 73.15625 57.324219 73.476562 57.648438 73.820312 C 58.273438 74.476562 58.4375 75.476562 57.980469 76.261719 Z M 57.980469 76.261719 " fill-opacity="1" fill-rule="nonzero"/></g><g clip-path="url(#5c07f391fa)"><path fill="#b57e60" d="M 77.53125 55.765625 C 77.53125 57.203125 77.398438 58.609375 77.140625 59.96875 C 72.207031 62.253906 69.335938 66.726562 66.09375 58.972656 C 65.695312 58.277344 64.902344 57.914062 64.109375 57.730469 C 62.578125 57.378906 61.175781 56.628906 59.933594 55.667969 C 59.554688 55.371094 55.921875 53.0625 57.027344 51.921875 C 58.582031 49.835938 63.226562 48.6875 63.226562 48.6875 C 63.226562 48.6875 67.183594 48.421875 69.109375 47.957031 C 71.394531 47.371094 73.070312 45.957031 74.324219 44.152344 C 74.40625 44.289062 74.484375 44.425781 74.5625 44.5625 C 74.578125 44.585938 74.59375 44.613281 74.609375 44.640625 C 74.675781 44.761719 74.746094 44.882812 74.8125 45.007812 L 74.84375 45.066406 C 74.914062 45.191406 74.980469 45.316406 75.046875 45.445312 C 75.058594 45.46875 75.066406 45.488281 75.078125 45.511719 C 75.15625 45.664062 75.230469 45.816406 75.304688 45.96875 L 75.304688 45.972656 C 75.382812 46.125 75.457031 46.285156 75.527344 46.441406 C 75.53125 46.445312 75.53125 46.449219 75.53125 46.449219 C 75.59375 46.589844 75.65625 46.734375 75.71875 46.878906 C 75.730469 46.90625 75.742188 46.933594 75.753906 46.960938 C 75.882812 47.265625 76.007812 47.574219 76.121094 47.886719 C 76.183594 48.046875 76.238281 48.207031 76.292969 48.367188 C 76.328125 48.46875 76.363281 48.570312 76.398438 48.675781 C 76.398438 48.679688 76.402344 48.683594 76.402344 48.6875 C 76.441406 48.804688 76.480469 48.925781 76.515625 49.046875 C 76.546875 49.136719 76.574219 49.226562 76.601562 49.320312 C 76.625 49.402344 76.648438 49.484375 76.671875 49.566406 C 76.703125 49.675781 76.734375 49.78125 76.761719 49.890625 C 76.792969 50.003906 76.820312 50.117188 76.851562 50.230469 C 76.859375 50.273438 76.875 50.316406 76.882812 50.363281 C 76.945312 50.613281 77 50.859375 77.050781 51.109375 C 77.132812 51.484375 77.203125 51.867188 77.257812 52.25 C 77.273438 52.335938 77.285156 52.425781 77.296875 52.511719 C 77.3125 52.589844 77.320312 52.667969 77.332031 52.75 C 77.34375 52.828125 77.351562 52.90625 77.363281 52.980469 C 77.363281 53.003906 77.367188 53.019531 77.367188 53.039062 C 77.382812 53.144531 77.394531 53.246094 77.402344 53.351562 C 77.417969 53.472656 77.429688 53.601562 77.441406 53.722656 C 77.453125 53.855469 77.460938 53.988281 77.472656 54.121094 C 77.484375 54.269531 77.492188 54.414062 77.5 54.558594 C 77.503906 54.652344 77.507812 54.742188 77.511719 54.832031 C 77.515625 54.90625 77.515625 54.976562 77.519531 55.050781 C 77.523438 55.132812 77.523438 55.21875 77.527344 55.300781 C 77.527344 55.335938 77.527344 55.367188 77.527344 55.398438 C 77.527344 55.519531 77.53125 55.640625 77.53125 55.765625 Z M 77.53125 55.765625 " fill-opacity="1" fill-rule="nonzero"/></g><g clip-path="url(#392dab61c1)"><path fill="#b6815b" d="M 67.628906 37.144531 C 65.28125 40.671875 61.867188 44.828125 56.988281 42.953125 C 55.316406 42.1875 54.335938 40.621094 53.238281 39.25 C 51.910156 37.59375 50.273438 36.136719 48.429688 34.945312 C 50.609375 34.128906 52.953125 33.660156 55.398438 33.605469 C 55.558594 33.601562 55.714844 33.601562 55.875 33.601562 C 58.953125 33.601562 61.878906 34.257812 64.527344 35.441406 C 65.609375 35.925781 66.648438 36.496094 67.628906 37.144531 Z M 67.628906 37.144531 " fill-opacity="1" fill-rule="nonzero"/></g><g clip-path="url(#908bf11c70)"><path fill="#825740" d="M 77.5 54.558594 C 76.542969 55.203125 75.84375 56.253906 75.167969 57.226562 C 74.316406 58.457031 73.242188 59.738281 71.765625 59.929688 C 71.003906 60.027344 70.160156 59.765625 69.722656 59.128906 C 69.511719 58.816406 69.414062 58.441406 69.238281 58.105469 C 68.785156 57.222656 67.878906 56.683594 66.988281 56.261719 C 66.09375 55.839844 65.144531 55.476562 64.4375 54.789062 C 63.726562 54.101562 63.328125 52.960938 63.808594 52.097656 C 64.40625 51.027344 65.882812 50.964844 67.105469 51 C 69.035156 51.058594 71.011719 51.015625 72.824219 50.351562 C 74.128906 49.875 75.347656 49.023438 76.121094 47.886719 C 76.183594 48.046875 76.238281 48.207031 76.292969 48.367188 C 76.328125 48.46875 76.363281 48.570312 76.398438 48.675781 C 76.398438 48.679688 76.402344 48.683594 76.402344 48.6875 C 76.441406 48.804688 76.480469 48.925781 76.515625 49.046875 C 76.546875 49.136719 76.574219 49.226562 76.601562 49.320312 C 76.625 49.402344 76.648438 49.484375 76.671875 49.566406 C 76.703125 49.675781 76.734375 49.78125 76.761719 49.890625 C 76.792969 50.003906 76.820312 50.117188 76.851562 50.230469 C 76.859375 50.273438 76.875 50.316406 76.882812 50.363281 C 76.945312 50.613281 77 50.859375 77.050781 51.109375 C 77.132812 51.484375 77.203125 51.867188 77.257812 52.25 C 77.273438 52.335938 77.285156 52.425781 77.296875 52.511719 C 77.3125 52.589844 77.320312 52.667969 77.332031 52.75 C 77.34375 52.828125 77.351562 52.90625 77.363281 52.980469 C 77.363281 53.003906 77.367188 53.019531 77.367188 53.039062 C 77.382812 53.144531 77.394531 53.246094 77.402344 53.351562 C 77.417969 53.472656 77.429688 53.601562 77.441406 53.722656 C 77.453125 53.855469 77.460938 53.988281 77.472656 54.121094 C 77.484375 54.269531 77.492188 54.414062 77.5 54.558594 Z M 77.5 54.558594 " fill-opacity="1" fill-rule="nonzero"/></g><g clip-path="url(#8afa8f0bdc)"><path fill="#825740" d="M 64.527344 35.441406 C 64.097656 35.804688 63.644531 36.136719 63.15625 36.40625 C 62.105469 36.992188 60.855469 37.300781 59.6875 37.011719 C 57.902344 36.570312 56.742188 34.917969 55.398438 33.605469 C 55.558594 33.601562 55.714844 33.601562 55.875 33.601562 C 58.953125 33.601562 61.878906 34.257812 64.527344 35.441406 Z M 64.527344 35.441406 " fill-opacity="1" fill-rule="nonzero"/></g></svg>