<svg xmlns="http://www.w3.org/2000/svg" xmlns:xlink="http://www.w3.org/1999/xlink" width="150" zoomAndPan="magnify" viewBox="0 0 112.5 112.499997" height="150" preserveAspectRatio="xMidYMid meet" version="1.0"><defs><clipPath id="e583546467"><path d="M 6.292969 16 L 69 16 L 69 60 L 6.292969 60 Z M 6.292969 16 " clip-rule="nonzero"/></clipPath><clipPath id="f1a81a3117"><path d="M 6.292969 16 L 70 16 L 70 61 L 6.292969 61 Z M 6.292969 16 " clip-rule="nonzero"/></clipPath><clipPath id="d2b300e219"><path d="M 6.292969 28 L 70 28 L 70 61 L 6.292969 61 Z M 6.292969 28 " clip-rule="nonzero"/></clipPath><clipPath id="1e0722f706"><path d="M 6.292969 16 L 70 16 L 70 61 L 6.292969 61 Z M 6.292969 16 " clip-rule="nonzero"/></clipPath><clipPath id="205cd7fce8"><path d="M 36 15.246094 L 106.347656 15.246094 L 106.347656 87 L 36 87 Z M 36 15.246094 " clip-rule="nonzero"/></clipPath><clipPath id="20f7673db0"><path d="M 61 71 L 105 71 L 105 101.859375 L 61 101.859375 Z M 61 71 " clip-rule="nonzero"/></clipPath><clipPath id="22e0ef55e5"><path d="M 61 70 L 106 70 L 106 101.859375 L 61 101.859375 Z M 61 70 " clip-rule="nonzero"/></clipPath><clipPath id="9c8e773f3e"><path d="M 61 79 L 106 79 L 106 101.859375 L 61 101.859375 Z M 61 79 " clip-rule="nonzero"/></clipPath><clipPath id="b8ae911473"><path d="M 61 70 L 106 70 L 106 101.859375 L 61 101.859375 Z M 61 70 " clip-rule="nonzero"/></clipPath></defs><path stroke-linecap="round" transform="matrix(0.0336258, 0, 0, -0.0336369, -15.519811, 130.451359)" fill="none" stroke-linejoin="round" d="M 696.205499 1375.389823 C 717.348146 1327.195923 775.780848 1304.666726 828.405131 1308.382882 C 880.913245 1312.099038 929.471634 1336.370183 977.333012 1358.318731 C 1025.19439 1380.267279 1076.308483 1400.822267 1128.816598 1396.409332 C 1204.326054 1390.022189 1266.940818 1333.815326 1340.940085 1317.441013 C 1495.211712 1283.414958 1615.910673 1432.177335 1767.27809 1387.351201 C 1827.801824 1369.35107 1912.140078 1318.950701 1972.663811 1300.95057 C 2052.006824 1277.376204 2144.709202 1311.053869 2190.595718 1379.918889 " stroke="#262a30" stroke-width="40" stroke-opacity="1" stroke-miterlimit="10"/><path stroke-linecap="round" transform="matrix(0.0336258, 0, 0, -0.0336369, -15.519811, 130.451359)" fill="none" stroke-linejoin="round" d="M 1097.799636 1790.554149 C 1105.350582 1773.134667 1126.49323 1765.005575 1145.312509 1766.399133 C 1164.247958 1767.676562 1181.673217 1776.386303 1198.982307 1784.399265 C 1216.17523 1792.179967 1234.646004 1799.612279 1253.465284 1798.102591 C 1280.648688 1795.779993 1303.185357 1775.573394 1329.904087 1769.65077 C 1385.43258 1757.341003 1428.879559 1810.993008 1483.362536 1794.734824 C 1505.202194 1788.347681 1535.522145 1770.11529 1557.361803 1763.728146 C 1585.823059 1755.250665 1619.279557 1767.328172 1635.775469 1792.063837 " stroke="#262a30" stroke-width="40" stroke-opacity="1" stroke-miterlimit="10"/><path stroke-linecap="round" transform="matrix(0.0336258, 0, 0, -0.0336369, -15.519811, 130.451359)" fill="none" stroke-linejoin="round" d="M 878.822214 1571.300933 C 892.181579 1540.758774 929.239297 1526.474799 962.463457 1528.797397 C 995.687618 1531.236124 1026.356074 1546.565268 1056.676025 1560.384724 C 1086.995976 1574.32031 1119.290789 1587.326857 1152.51495 1584.539739 C 1200.376328 1580.475194 1239.873582 1544.93945 1286.805613 1534.487761 C 1384.387064 1513.003733 1460.709699 1607.185066 1556.432456 1578.733245 C 1594.768025 1567.468647 1648.089318 1535.53293 1686.424888 1524.152201 C 1736.609634 1509.171447 1795.274673 1530.539345 1824.316772 1574.08805 " stroke="#262a30" stroke-width="40" stroke-opacity="1" stroke-miterlimit="10"/><g clip-path="url(#e583546467)"><path fill="#ffffff" d="M 64.894531 36.789062 C 64.847656 33.5 62.167969 30.847656 58.871094 30.847656 C 57.714844 30.847656 56.640625 31.171875 55.722656 31.734375 C 55.722656 31.703125 55.726562 31.667969 55.726562 31.636719 C 55.726562 26.566406 51.617188 22.460938 46.550781 22.460938 C 45.085938 22.460938 43.703125 22.804688 42.476562 23.414062 C 40.542969 19.433594 36.464844 16.691406 31.742188 16.691406 C 25.242188 16.691406 19.960938 21.894531 19.824219 28.367188 C 16.386719 29.035156 13.792969 32.0625 13.792969 35.699219 C 13.792969 36.386719 13.886719 37.054688 14.0625 37.6875 C 13.390625 37.339844 12.632812 37.140625 11.824219 37.140625 C 9.148438 37.140625 6.976562 39.3125 6.976562 41.992188 C 6.976562 44.667969 9.148438 46.839844 11.824219 46.839844 C 12.335938 46.839844 12.824219 46.761719 13.285156 46.617188 C 13.507812 49.820312 16.167969 52.347656 19.425781 52.347656 C 21.253906 52.347656 22.894531 51.550781 24.023438 50.285156 C 25.179688 55.660156 29.957031 59.6875 35.675781 59.6875 C 40.589844 59.6875 44.808594 56.710938 46.636719 52.464844 C 48.148438 53.699219 50.082031 54.445312 52.1875 54.445312 C 56.792969 54.445312 60.570312 50.890625 60.933594 46.378906 C 61.714844 46.835938 62.617188 47.101562 63.585938 47.101562 C 66.480469 47.101562 68.828125 44.753906 68.828125 41.859375 C 68.828125 39.414062 67.15625 37.371094 64.894531 36.789062 " fill-opacity="1" fill-rule="nonzero"/></g><g clip-path="url(#f1a81a3117)"><path stroke-linecap="round" transform="matrix(0.0336258, 0, 0, -0.0336369, -15.519811, 130.451359)" fill="none" stroke-linejoin="round" d="M 2391.450871 2784.509802 C 2390.05685 2882.291162 2310.365332 2961.143351 2212.319208 2961.143351 C 2177.933363 2961.143351 2145.987055 2951.504571 2118.687482 2934.781868 C 2118.687482 2935.710907 2118.80365 2936.756076 2118.80365 2937.685115 C 2118.80365 3088.421701 1996.5945 3210.474206 1845.924093 3210.474206 C 1802.360945 3210.474206 1761.237334 3200.254776 1724.760458 3182.138515 C 1667.257103 3300.474864 1545.9773 3381.99804 1405.529712 3381.99804 C 1212.225504 3381.99804 1055.165836 3227.313039 1051.099942 3034.885826 C 948.871755 3015.027616 871.735942 2925.026958 871.735942 2816.910039 C 871.735942 2796.471179 874.523983 2776.61297 879.751561 2757.799929 C 859.770597 2768.135488 837.233929 2774.058112 813.187071 2774.058112 C 733.611721 2774.058112 669.022094 2709.489898 669.022094 2629.8248 C 669.022094 2550.275831 733.611721 2485.707617 813.187071 2485.707617 C 828.405131 2485.707617 842.92618 2488.030215 856.634051 2492.327021 C 863.255649 2397.100518 942.366325 2321.964485 1039.250766 2321.964485 C 1093.617574 2321.964485 1142.4083 2345.654981 1175.980965 2383.281062 C 1210.36681 2223.486346 1352.440756 2103.756438 1522.511284 2103.756438 C 1668.651124 2103.756438 1794.112989 2192.247408 1848.479798 2318.480589 C 1893.436966 2281.783546 1950.940321 2259.602739 2013.555086 2259.602739 C 2150.517622 2259.602739 2262.852459 2365.280931 2273.656119 2499.410943 C 2296.889798 2485.823747 2323.724697 2477.926915 2352.534459 2477.926915 C 2438.615239 2477.926915 2508.432444 2547.720974 2508.432444 2633.773216 C 2508.432444 2706.470522 2458.712371 2767.206449 2391.450871 2784.509802 Z M 2391.450871 2784.509802 " stroke="#262a30" stroke-width="40" stroke-opacity="1" stroke-miterlimit="10"/></g><g clip-path="url(#d2b300e219)"><path fill="#92dbec" d="M 68.234375 38.238281 C 68.238281 38.453125 68.234375 38.65625 68.230469 38.839844 C 68.179688 40.710938 67.285156 42.890625 65.640625 43.902344 C 63.933594 44.949219 62.15625 44 60.996094 42.632812 C 60.6875 42.269531 60.378906 41.800781 59.933594 41.589844 C 59.253906 41.273438 58.433594 41.667969 57.859375 42.042969 C 56.53125 42.914062 56.226562 44.410156 55.980469 45.871094 C 55.6875 47.601562 55.296875 49.765625 53.539062 50.617188 C 52.023438 51.355469 50.339844 50.566406 49.195312 49.523438 C 47.953125 48.394531 46.578125 47.238281 44.765625 47.734375 C 43.117188 48.183594 42.617188 49.496094 42.347656 51.011719 C 42.03125 52.773438 41.441406 54.296875 39.902344 55.335938 C 37.113281 57.21875 33.050781 56.398438 30.625 54.292969 C 29.273438 53.117188 28.632812 51.601562 28.359375 49.859375 C 28.148438 48.539062 28.089844 47.058594 27.160156 46 C 26.242188 44.953125 24.671875 44.371094 23.3125 44.769531 C 21.347656 45.347656 20.933594 47.816406 19.109375 48.433594 C 17.511719 48.976562 17.050781 46.785156 17.140625 45.660156 C 17.195312 44.957031 17.363281 44.183594 16.96875 43.542969 C 16.386719 42.59375 15.261719 42.464844 14.335938 42.878906 C 13.5 43.253906 12.765625 43.894531 11.828125 44.011719 C 10.34375 44.195312 9.328125 42.960938 9.59375 41.523438 C 9.957031 39.554688 11.867188 38.941406 13.566406 39.609375 C 14.605469 40.019531 15.710938 40.996094 16.871094 40.945312 C 18.554688 40.871094 18.027344 38.71875 17.523438 37.765625 C 16.625 36.0625 15.421875 34.695312 16.9375 32.925781 C 17.738281 31.988281 18.648438 31.351562 18.554688 29.964844 C 18.527344 29.519531 18.4375 28.808594 18.230469 28.164062 C 15.207031 29.382812 13.136719 32.339844 13.136719 35.699219 C 13.136719 36.003906 13.15625 36.308594 13.191406 36.613281 C 13.140625 36.613281 13.097656 36.617188 13.054688 36.625 C 12.652344 36.535156 12.242188 36.484375 11.824219 36.484375 C 8.789062 36.484375 6.324219 38.953125 6.324219 41.992188 C 6.324219 45.027344 8.789062 47.496094 11.824219 47.496094 C 12.128906 47.496094 12.429688 47.472656 12.726562 47.421875 C 13.3125 50.605469 16.121094 53.003906 19.425781 53.003906 C 20.976562 53.003906 22.472656 52.472656 23.671875 51.515625 C 25.292969 56.691406 30.171875 60.34375 35.675781 60.34375 C 40.433594 60.34375 44.75 57.671875 46.886719 53.46875 C 48.441406 54.523438 50.296875 55.097656 52.1875 55.097656 C 56.734375 55.097656 60.632812 51.789062 61.457031 47.402344 C 61.472656 47.402344 61.484375 47.410156 61.5 47.410156 C 61.527344 47.410156 61.554688 47.402344 61.578125 47.398438 C 62.222656 47.632812 62.902344 47.757812 63.585938 47.757812 C 66.839844 47.757812 69.484375 45.113281 69.484375 41.859375 C 69.484375 40.507812 69.019531 39.246094 68.234375 38.238281 " fill-opacity="1" fill-rule="nonzero"/></g><path stroke-linecap="round" transform="matrix(0.0336258, 0, 0, -0.0336369, -15.519811, 130.451359)" fill="none" stroke-linejoin="round" d="M 1660.519336 3076.692583 C 1673.530197 3120.938067 1700.597432 3161.119006 1736.95814 3189.570827 " stroke="#262a30" stroke-width="40" stroke-opacity="1" stroke-miterlimit="10"/><path stroke-linecap="round" transform="matrix(0.0336258, 0, 0, -0.0336369, -15.519811, 130.451359)" fill="none" stroke-linejoin="round" d="M 2083.023785 2833.284352 C 2103.237086 2867.310407 2111.949715 2906.794567 2117.990472 2945.930337 " stroke="#262a30" stroke-width="40" stroke-opacity="1" stroke-miterlimit="10"/><path stroke-linecap="round" transform="matrix(0.0336258, 0, 0, -0.0336369, -15.519811, 130.451359)" fill="none" stroke-linejoin="round" d="M 2415.730065 2774.987151 C 2384.248431 2783.116243 2349.049407 2774.987151 2324.305539 2753.851513 " stroke="#262a30" stroke-width="40" stroke-opacity="1" stroke-miterlimit="10"/><path stroke-linecap="round" transform="matrix(0.0336258, 0, 0, -0.0336369, -15.519811, 130.451359)" fill="none" stroke-linejoin="round" d="M 2290.500537 2488.262475 C 2261.690775 2505.914217 2240.664296 2535.875726 2234.042697 2569.088872 " stroke="#262a30" stroke-width="40" stroke-opacity="1" stroke-miterlimit="10"/><path stroke-linecap="round" transform="matrix(0.0336258, 0, 0, -0.0336369, -15.519811, 130.451359)" fill="none" stroke-linejoin="round" d="M 1823.271256 2375.38423 C 1830.473697 2342.519474 1852.66186 2315.345082 1882.2848 2295.370742 " stroke="#262a30" stroke-width="40" stroke-opacity="1" stroke-miterlimit="10"/><path stroke-linecap="round" transform="matrix(0.0336258, 0, 0, -0.0336369, -15.519811, 130.451359)" fill="none" stroke-linejoin="round" d="M 1052.610131 3061.711828 C 1049.008911 3026.524474 1061.555097 2990.175821 1086.182797 2964.743377 " stroke="#262a30" stroke-width="40" stroke-opacity="1" stroke-miterlimit="10"/><path stroke-linecap="round" transform="matrix(0.0336258, 0, 0, -0.0336369, -15.519811, 130.451359)" fill="none" stroke-linejoin="round" d="M 853.613672 2770.341956 C 882.539602 2754.664422 907.28347 2731.206186 924.476393 2703.218885 " stroke="#262a30" stroke-width="40" stroke-opacity="1" stroke-miterlimit="10"/><path stroke-linecap="round" transform="matrix(0.0336258, 0, 0, -0.0336369, -15.519811, 130.451359)" fill="none" stroke-linejoin="round" d="M 852.684325 2490.933462 C 869.528742 2504.520658 883.701286 2521.475621 894.156442 2540.404791 " stroke="#262a30" stroke-width="40" stroke-opacity="1" stroke-miterlimit="10"/><path stroke-linecap="round" transform="matrix(0.0336258, 0, 0, -0.0336369, -15.519811, 130.451359)" fill="none" stroke-linejoin="round" d="M 1184.809763 2351.345345 C 1173.425261 2387.461738 1172.147408 2426.713638 1181.092375 2463.52681 " stroke="#262a30" stroke-width="40" stroke-opacity="1" stroke-miterlimit="10"/><g clip-path="url(#1e0722f706)"><path stroke-linecap="round" transform="matrix(0.0336258, 0, 0, -0.0336369, -15.519811, 130.451359)" fill="none" stroke-linejoin="round" d="M 2391.450871 2784.509802 C 2390.05685 2882.291162 2310.365332 2961.143351 2212.319208 2961.143351 C 2177.933363 2961.143351 2145.987055 2951.504571 2118.687482 2934.781868 C 2118.687482 2935.710907 2118.80365 2936.756076 2118.80365 2937.685115 C 2118.80365 3088.421701 1996.5945 3210.474206 1845.924093 3210.474206 C 1802.360945 3210.474206 1761.237334 3200.254776 1724.760458 3182.138515 C 1667.257103 3300.474864 1545.9773 3381.99804 1405.529712 3381.99804 C 1212.225504 3381.99804 1055.165836 3227.313039 1051.099942 3034.885826 C 948.871755 3015.027616 871.735942 2925.026958 871.735942 2816.910039 C 871.735942 2796.471179 874.523983 2776.61297 879.751561 2757.799929 C 859.770597 2768.135488 837.233929 2774.058112 813.187071 2774.058112 C 733.611721 2774.058112 669.022094 2709.489898 669.022094 2629.8248 C 669.022094 2550.275831 733.611721 2485.707617 813.187071 2485.707617 C 828.405131 2485.707617 842.92618 2488.030215 856.634051 2492.327021 C 863.255649 2397.100518 942.366325 2321.964485 1039.250766 2321.964485 C 1093.617574 2321.964485 1142.4083 2345.654981 1175.980965 2383.281062 C 1210.36681 2223.486346 1352.440756 2103.756438 1522.511284 2103.756438 C 1668.651124 2103.756438 1794.112989 2192.247408 1848.479798 2318.480589 C 1893.436966 2281.783546 1950.940321 2259.602739 2013.555086 2259.602739 C 2150.517622 2259.602739 2262.852459 2365.280931 2273.656119 2499.410943 C 2296.889798 2485.823747 2323.724697 2477.926915 2352.534459 2477.926915 C 2438.615239 2477.926915 2508.432444 2547.720974 2508.432444 2633.773216 C 2508.432444 2706.470522 2458.712371 2767.206449 2391.450871 2784.509802 Z M 2391.450871 2784.509802 " stroke="#262a30" stroke-width="40" stroke-opacity="1" stroke-miterlimit="10"/></g><path fill="#faf59b" d="M 99.996094 63.246094 C 93.9375 66.738281 86.054688 67.765625 79.304688 65.949219 C 72.171875 64.027344 66.644531 59.339844 62.765625 53.222656 C 58.871094 47.085938 58.535156 39.417969 60.0625 32.523438 C 61.496094 26.042969 66.730469 19.640625 72.367188 16.230469 C 56.757812 15.929688 42.355469 26.230469 38.117188 41.992188 C 33.121094 60.554688 44.117188 79.652344 62.675781 84.648438 C 81.234375 89.644531 100.621094 77.429688 105.617188 58.867188 C 103.875 60.613281 101.957031 62.117188 99.996094 63.246094 " fill-opacity="1" fill-rule="nonzero"/><g clip-path="url(#205cd7fce8)"><path stroke-linecap="round" transform="matrix(0.0336258, 0, 0, -0.0336369, -15.519811, 130.451359)" fill="none" stroke-linejoin="round" d="M 3435.340059 1997.962116 C 3255.16288 1894.142003 3020.735061 1863.599844 2819.996076 1917.600239 C 2607.872589 1974.73614 2443.494311 2114.091998 2328.139096 2295.951392 C 2212.319208 2478.391435 2202.328726 2706.354392 2247.750568 2911.323632 C 2290.384368 3103.983105 2446.050016 3294.31998 2613.681008 3395.701366 C 2149.472106 3404.643367 1721.159238 3098.408871 1595.116531 2629.8248 C 1446.537155 2077.975605 1773.551184 1510.216616 2325.467223 1361.686498 C 2877.383263 1213.156379 3453.927002 1576.294518 3602.506377 2128.143713 C 3550.695274 2076.233656 3493.656592 2031.523652 3435.340059 1997.962116 Z M 3435.340059 1997.962116 " stroke="#262a30" stroke-width="40" stroke-opacity="1" stroke-miterlimit="10"/></g><g clip-path="url(#20f7673db0)"><path fill="#ffffff" d="M 61.8125 88.804688 C 61.8125 90.820312 63.445312 92.449219 65.457031 92.449219 C 66.128906 92.449219 66.757812 92.265625 67.300781 91.945312 C 67.554688 95.085938 70.175781 97.550781 73.382812 97.550781 C 74.84375 97.550781 76.1875 97.039062 77.238281 96.175781 C 78.507812 99.128906 81.441406 101.199219 84.859375 101.199219 C 88.832031 101.199219 92.152344 98.398438 92.957031 94.664062 C 93.742188 95.542969 94.882812 96.09375 96.152344 96.09375 C 98.417969 96.09375 100.269531 94.335938 100.421875 92.113281 C 100.742188 92.214844 101.082031 92.269531 101.433594 92.269531 C 103.296875 92.269531 104.804688 90.757812 104.804688 88.898438 C 104.804688 87.035156 103.296875 85.527344 101.433594 85.527344 C 100.875 85.527344 100.347656 85.664062 99.882812 85.90625 C 100.003906 85.46875 100.070312 85.003906 100.070312 84.523438 C 100.070312 81.996094 98.265625 79.890625 95.875 79.425781 C 95.78125 74.929688 92.109375 71.3125 87.589844 71.3125 C 84.308594 71.3125 81.476562 73.21875 80.132812 75.984375 C 79.277344 75.5625 78.316406 75.320312 77.296875 75.320312 C 73.777344 75.320312 70.921875 78.175781 70.921875 81.699219 C 70.921875 81.722656 70.921875 81.746094 70.921875 81.769531 C 70.285156 81.378906 69.539062 81.152344 68.734375 81.152344 C 66.441406 81.152344 64.582031 82.996094 64.546875 85.28125 C 62.976562 85.683594 61.8125 87.109375 61.8125 88.804688 " fill-opacity="1" fill-rule="nonzero"/></g><g clip-path="url(#22e0ef55e5)"><path stroke-linecap="round" transform="matrix(0.0336258, 0, 0, -0.0336369, -15.519811, 130.451359)" fill="none" stroke-linejoin="round" d="M 2299.794008 1238.124304 C 2299.794008 1178.201285 2348.352397 1129.775125 2408.17912 1129.775125 C 2428.160083 1129.775125 2446.863195 1135.233229 2463.010602 1144.755879 C 2470.561547 1051.387455 2548.510539 978.1095 2643.884791 978.1095 C 2687.33177 978.1095 2727.293698 993.322514 2758.542996 1018.987218 C 2796.297724 931.193028 2883.540188 869.644191 2985.187532 869.644191 C 3103.330789 869.644191 3202.073924 952.909316 3226.004613 1063.929482 C 3249.35446 1037.800259 3283.275631 1021.425946 3321.030359 1021.425946 C 3388.408027 1021.425946 3443.471846 1073.684392 3448.002414 1139.762295 C 3457.528222 1136.742918 3467.634872 1135.117099 3478.090028 1135.117099 C 3533.502351 1135.117099 3578.343351 1180.059363 3578.343351 1235.337187 C 3578.343351 1290.73114 3533.502351 1335.557274 3478.090028 1335.557274 C 3461.477947 1335.557274 3445.795214 1331.492728 3431.971175 1324.292676 C 3435.572395 1337.299222 3437.547258 1351.118678 3437.547258 1365.402654 C 3437.547258 1440.538687 3383.87746 1503.132693 3312.782403 1516.952149 C 3309.994362 1650.617642 3200.796071 1758.153912 3066.38924 1758.153912 C 2968.807789 1758.153912 2884.585703 1701.48253 2844.623776 1619.262574 C 2819.182897 1631.804601 2790.605472 1639.004654 2760.285522 1639.004654 C 2655.617799 1639.004654 2570.698703 1554.113711 2570.698703 1449.364558 C 2570.698703 1448.667779 2570.698703 1447.970999 2570.698703 1447.27422 C 2551.763255 1458.887208 2529.575091 1465.622741 2505.644402 1465.622741 C 2437.453555 1465.622741 2382.157399 1410.809437 2381.111884 1342.873457 C 2334.41219 1330.912079 2299.794008 1288.524672 2299.794008 1238.124304 Z M 2299.794008 1238.124304 " stroke="#262a30" stroke-width="40" stroke-opacity="1" stroke-miterlimit="10"/></g><g clip-path="url(#9c8e773f3e)"><path fill="#92dbec" d="M 62.226562 86.289062 C 62.222656 86.4375 62.226562 86.578125 62.230469 86.707031 C 62.261719 88.007812 62.882812 89.523438 64.03125 90.226562 C 65.214844 90.953125 66.449219 90.292969 67.257812 89.34375 C 67.472656 89.089844 67.683594 88.765625 67.996094 88.617188 C 68.46875 88.398438 69.039062 88.671875 69.4375 88.933594 C 70.363281 89.539062 70.570312 90.578125 70.742188 91.59375 C 70.945312 92.796875 71.21875 94.300781 72.441406 94.894531 C 73.492188 95.40625 74.664062 94.859375 75.460938 94.132812 C 76.324219 93.347656 77.28125 92.546875 78.539062 92.890625 C 79.683594 93.203125 80.03125 94.113281 80.21875 95.167969 C 80.441406 96.390625 80.847656 97.453125 81.917969 98.175781 C 83.859375 99.484375 86.683594 98.914062 88.371094 97.449219 C 89.308594 96.632812 89.753906 95.578125 89.941406 94.367188 C 90.089844 93.449219 90.132812 92.421875 90.777344 91.683594 C 91.414062 90.957031 92.507812 90.550781 93.453125 90.828125 C 94.816406 91.230469 95.105469 92.945312 96.371094 93.375 C 97.484375 93.753906 97.804688 92.230469 97.738281 91.445312 C 97.703125 90.960938 97.585938 90.421875 97.859375 89.976562 C 98.265625 89.316406 99.046875 89.226562 99.6875 89.515625 C 100.269531 89.777344 100.78125 90.222656 101.433594 90.300781 C 102.46875 90.429688 103.171875 89.570312 102.988281 88.570312 C 102.734375 87.207031 101.410156 86.777344 100.226562 87.242188 C 99.503906 87.523438 98.734375 88.207031 97.929688 88.171875 C 96.757812 88.117188 97.125 86.625 97.472656 85.960938 C 98.097656 84.777344 98.9375 83.824219 97.882812 82.597656 C 97.324219 81.945312 96.695312 81.5 96.757812 80.539062 C 96.777344 80.230469 96.839844 79.734375 96.984375 79.285156 C 99.085938 80.132812 100.523438 82.1875 100.523438 84.523438 C 100.523438 84.734375 100.511719 84.949219 100.488281 85.160156 C 100.519531 85.160156 100.550781 85.160156 100.582031 85.167969 C 100.859375 85.105469 101.144531 85.070312 101.433594 85.070312 C 103.542969 85.070312 105.261719 86.789062 105.261719 88.898438 C 105.261719 91.007812 103.542969 92.722656 101.433594 92.722656 C 101.222656 92.722656 101.015625 92.707031 100.808594 92.671875 C 100.402344 94.886719 98.449219 96.550781 96.152344 96.550781 C 95.074219 96.550781 94.035156 96.183594 93.203125 95.519531 C 92.074219 99.117188 88.683594 101.652344 84.859375 101.652344 C 81.550781 101.652344 78.550781 99.796875 77.0625 96.875 C 75.984375 97.609375 74.695312 98.007812 73.382812 98.007812 C 70.21875 98.007812 67.511719 95.707031 66.9375 92.65625 C 66.925781 92.660156 66.917969 92.664062 66.90625 92.664062 C 66.886719 92.664062 66.871094 92.65625 66.851562 92.65625 C 66.40625 92.820312 65.933594 92.90625 65.457031 92.90625 C 63.195312 92.90625 61.355469 91.066406 61.355469 88.804688 C 61.355469 87.867188 61.679688 86.992188 62.226562 86.289062 " fill-opacity="1" fill-rule="nonzero"/></g><path stroke-linecap="round" transform="matrix(0.0336258, 0, 0, -0.0336369, -15.519811, 130.451359)" fill="none" stroke-linejoin="round" d="M 2889.232439 1545.984619 C 2880.171304 1576.759037 2861.352024 1604.630209 2836.027314 1624.372289 " stroke="#262a30" stroke-width="40" stroke-opacity="1" stroke-miterlimit="10"/><path stroke-linecap="round" transform="matrix(0.0336258, 0, 0, -0.0336369, -15.519811, 130.451359)" fill="none" stroke-linejoin="round" d="M 2595.558739 1376.783382 C 2581.502363 1400.357748 2575.345438 1427.88053 2571.163376 1455.054922 " stroke="#262a30" stroke-width="40" stroke-opacity="1" stroke-miterlimit="10"/><path stroke-linecap="round" transform="matrix(0.0336258, 0, 0, -0.0336369, -15.519811, 130.451359)" fill="none" stroke-linejoin="round" d="M 2364.267467 1336.254054 C 2386.107125 1341.944418 2410.618656 1336.254054 2427.811578 1321.621689 " stroke="#262a30" stroke-width="40" stroke-opacity="1" stroke-miterlimit="10"/><path stroke-linecap="round" transform="matrix(0.0336258, 0, 0, -0.0336369, -15.519811, 130.451359)" fill="none" stroke-linejoin="round" d="M 2451.277594 1136.975177 C 2471.374726 1149.168815 2485.895775 1170.072194 2490.542511 1193.06591 " stroke="#262a30" stroke-width="40" stroke-opacity="1" stroke-miterlimit="10"/><path stroke-linecap="round" transform="matrix(0.0336258, 0, 0, -0.0336369, -15.519811, 130.451359)" fill="none" stroke-linejoin="round" d="M 2775.968255 1058.471378 C 2771.089182 1035.593791 2755.638786 1016.78075 2735.07698 1002.845165 " stroke="#262a30" stroke-width="40" stroke-opacity="1" stroke-miterlimit="10"/><path stroke-linecap="round" transform="matrix(0.0336258, 0, 0, -0.0336369, -15.519811, 130.451359)" fill="none" stroke-linejoin="round" d="M 3311.736887 1535.53293 C 3314.292592 1511.145655 3305.463794 1485.82934 3288.38704 1468.177599 " stroke="#262a30" stroke-width="40" stroke-opacity="1" stroke-miterlimit="10"/><path stroke-linecap="round" transform="matrix(0.0336258, 0, 0, -0.0336369, -15.519811, 130.451359)" fill="none" stroke-linejoin="round" d="M 3450.093445 1333.002417 C 3429.996312 1322.086208 3412.80339 1305.828025 3400.838046 1286.318205 " stroke="#262a30" stroke-width="40" stroke-opacity="1" stroke-miterlimit="10"/><path stroke-linecap="round" transform="matrix(0.0336258, 0, 0, -0.0336369, -15.519811, 130.451359)" fill="none" stroke-linejoin="round" d="M 3450.674287 1138.833256 C 3439.057447 1148.239776 3429.183134 1160.085024 3421.864525 1173.2077 " stroke="#262a30" stroke-width="40" stroke-opacity="1" stroke-miterlimit="10"/><path stroke-linecap="round" transform="matrix(0.0336258, 0, 0, -0.0336369, -15.519811, 130.451359)" fill="none" stroke-linejoin="round" d="M 3219.847688 1041.748675 C 3227.747139 1066.948859 3228.676486 1094.239381 3222.403393 1119.787955 " stroke="#262a30" stroke-width="40" stroke-opacity="1" stroke-miterlimit="10"/><g clip-path="url(#b8ae911473)"><path stroke-linecap="round" transform="matrix(0.0336258, 0, 0, -0.0336369, -15.519811, 130.451359)" fill="none" stroke-linejoin="round" d="M 2299.794008 1238.124304 C 2299.794008 1178.201285 2348.352397 1129.775125 2408.17912 1129.775125 C 2428.160083 1129.775125 2446.863195 1135.233229 2463.010602 1144.755879 C 2470.561547 1051.387455 2548.510539 978.1095 2643.884791 978.1095 C 2687.33177 978.1095 2727.293698 993.322514 2758.542996 1018.987218 C 2796.297724 931.193028 2883.540188 869.644191 2985.187532 869.644191 C 3103.330789 869.644191 3202.073924 952.909316 3226.004613 1063.929482 C 3249.35446 1037.800259 3283.275631 1021.425946 3321.030359 1021.425946 C 3388.408027 1021.425946 3443.471846 1073.684392 3448.002414 1139.762295 C 3457.528222 1136.742918 3467.634872 1135.117099 3478.090028 1135.117099 C 3533.502351 1135.117099 3578.343351 1180.059363 3578.343351 1235.337187 C 3578.343351 1290.73114 3533.502351 1335.557274 3478.090028 1335.557274 C 3461.477947 1335.557274 3445.795214 1331.492728 3431.971175 1324.292676 C 3435.572395 1337.299222 3437.547258 1351.118678 3437.547258 1365.402654 C 3437.547258 1440.538687 3383.87746 1503.132693 3312.782403 1516.952149 C 3309.994362 1650.617642 3200.796071 1758.153912 3066.38924 1758.153912 C 2968.807789 1758.153912 2884.585703 1701.48253 2844.623776 1619.262574 C 2819.182897 1631.804601 2790.605472 1639.004654 2760.285522 1639.004654 C 2655.617799 1639.004654 2570.698703 1554.113711 2570.698703 1449.364558 C 2570.698703 1448.667779 2570.698703 1447.970999 2570.698703 1447.27422 C 2551.763255 1458.887208 2529.575091 1465.622741 2505.644402 1465.622741 C 2437.453555 1465.622741 2382.157399 1410.809437 2381.111884 1342.873457 C 2334.41219 1330.912079 2299.794008 1288.524672 2299.794008 1238.124304 Z M 2299.794008 1238.124304 " stroke="#262a30" stroke-width="40" stroke-opacity="1" stroke-miterlimit="10"/></g><path stroke-linecap="round" transform="matrix(0.0336258, 0, 0, -0.0336369, -15.519811, 130.451359)" fill="none" stroke-linejoin="round" d="M 1958.723604 1720.99235 C 1765.651733 1912.955043 1660.403168 2189.92481 1677.131417 2461.668732 " stroke="#262a30" stroke-width="30" stroke-opacity="1" stroke-miterlimit="10"/><path stroke-linecap="round" transform="matrix(0.0336258, 0, 0, -0.0336369, -15.519811, 130.451359)" fill="none" stroke-linejoin="round" d="M 1698.738738 2564.327547 C 1694.208171 2582.327679 1696.763875 2601.953628 1705.82501 2618.095682 " stroke="#262a30" stroke-width="30" stroke-opacity="1" stroke-miterlimit="10"/><path fill="#ffffff" d="M 86.777344 33.171875 C 80.515625 33.519531 80.238281 33.800781 79.890625 40.0625 C 79.546875 33.800781 79.265625 33.519531 73.007812 33.171875 C 79.265625 32.828125 79.546875 32.546875 79.890625 26.285156 C 80.238281 32.546875 80.515625 32.828125 86.777344 33.171875 " fill-opacity="1" fill-rule="nonzero"/><path stroke-linecap="round" transform="matrix(0.0336258, 0, 0, -0.0336369, -15.519811, 130.451359)" fill="none" stroke-linejoin="round" d="M 3042.226214 2892.046072 C 2856.008278 2881.710512 2847.760322 2873.349161 2837.421335 2687.192961 C 2827.198516 2873.349161 2818.834392 2881.710512 2632.732625 2892.046072 C 2818.834392 2902.265501 2827.198516 2910.626853 2837.421335 3096.783052 C 2847.760322 2910.626853 2856.008278 2902.265501 3042.226214 2892.046072 Z M 3042.226214 2892.046072 " stroke="#262a30" stroke-width="40" stroke-opacity="1" stroke-miterlimit="10"/><path fill="#ffffff" d="M 80.191406 50.542969 C 73.933594 50.886719 73.652344 51.167969 73.304688 57.425781 C 72.960938 51.167969 72.679688 50.886719 66.421875 50.542969 C 72.679688 50.195312 72.960938 49.914062 73.304688 43.65625 C 73.652344 49.914062 73.933594 50.195312 80.191406 50.542969 " fill-opacity="1" fill-rule="nonzero"/><path stroke-linecap="round" transform="matrix(0.0336258, 0, 0, -0.0336369, -15.519811, 130.451359)" fill="none" stroke-linejoin="round" d="M 2846.366301 2375.61649 C 2660.264534 2365.397061 2651.90041 2357.035709 2641.561423 2170.995639 C 2631.338604 2357.035709 2622.97448 2365.397061 2436.872713 2375.61649 C 2622.97448 2385.952049 2631.338604 2394.313401 2641.561423 2580.353471 C 2651.90041 2394.313401 2660.264534 2385.952049 2846.366301 2375.61649 Z M 2846.366301 2375.61649 " stroke="#262a30" stroke-width="40" stroke-opacity="1" stroke-miterlimit="10"/></svg>