<svg xmlns="http://www.w3.org/2000/svg" xmlns:xlink="http://www.w3.org/1999/xlink" width="200" zoomAndPan="magnify" viewBox="0 0 150 149.999998" height="200" preserveAspectRatio="xMidYMid meet" version="1.0"><defs><g/><clipPath id="cc41c5283f"><path d="M 86.105469 89.722656 L 140.105469 89.722656 L 140.105469 140.722656 L 86.105469 140.722656 Z M 86.105469 89.722656 " clip-rule="nonzero"/></clipPath><clipPath id="b6c96bf864"><path d="M 92.855469 89.722656 L 133.703125 89.722656 C 135.492188 89.722656 137.210938 90.433594 138.476562 91.699219 C 139.742188 92.964844 140.453125 94.679688 140.453125 96.472656 L 140.453125 134.230469 C 140.453125 136.019531 139.742188 137.738281 138.476562 139.003906 C 137.210938 140.269531 135.492188 140.980469 133.703125 140.980469 L 92.855469 140.980469 C 91.066406 140.980469 89.347656 140.269531 88.082031 139.003906 C 86.816406 137.738281 86.105469 136.019531 86.105469 134.230469 L 86.105469 96.472656 C 86.105469 94.679688 86.816406 92.964844 88.082031 91.699219 C 89.347656 90.433594 91.066406 89.722656 92.855469 89.722656 Z M 92.855469 89.722656 " clip-rule="nonzero"/></clipPath><clipPath id="9d4da75812"><path d="M 15.777344 89.722656 L 69.773438 89.722656 L 69.773438 140.722656 L 15.777344 140.722656 Z M 15.777344 89.722656 " clip-rule="nonzero"/></clipPath><clipPath id="1a114fbbc5"><path d="M 22.527344 89.722656 L 63.375 89.722656 C 65.164062 89.722656 66.878906 90.433594 68.144531 91.699219 C 69.410156 92.964844 70.121094 94.679688 70.121094 96.472656 L 70.121094 134.230469 C 70.121094 136.019531 69.410156 137.738281 68.144531 139.003906 C 66.878906 140.269531 65.164062 140.980469 63.375 140.980469 L 22.527344 140.980469 C 20.734375 140.980469 19.019531 140.269531 17.753906 139.003906 C 16.488281 137.738281 15.777344 136.019531 15.777344 134.230469 L 15.777344 96.472656 C 15.777344 94.679688 16.488281 92.964844 17.753906 91.699219 C 19.019531 90.433594 20.734375 89.722656 22.527344 89.722656 Z M 22.527344 89.722656 " clip-rule="nonzero"/></clipPath><clipPath id="50d8bd9df9"><path d="M 86.105469 26.585938 L 140.105469 26.585938 L 140.105469 77.585938 L 86.105469 77.585938 Z M 86.105469 26.585938 " clip-rule="nonzero"/></clipPath><clipPath id="de06045f6e"><path d="M 92.855469 26.585938 L 133.703125 26.585938 C 135.492188 26.585938 137.210938 27.296875 138.476562 28.5625 C 139.742188 29.828125 140.453125 31.542969 140.453125 33.332031 L 140.453125 71.09375 C 140.453125 72.882812 139.742188 74.601562 138.476562 75.867188 C 137.210938 77.132812 135.492188 77.84375 133.703125 77.84375 L 92.855469 77.84375 C 91.066406 77.84375 89.347656 77.132812 88.082031 75.867188 C 86.816406 74.601562 86.105469 72.882812 86.105469 71.09375 L 86.105469 33.332031 C 86.105469 31.542969 86.816406 29.828125 88.082031 28.5625 C 89.347656 27.296875 91.066406 26.585938 92.855469 26.585938 Z M 92.855469 26.585938 " clip-rule="nonzero"/></clipPath><clipPath id="a2ae7c7273"><path d="M 15.777344 26.585938 L 69.773438 26.585938 L 69.773438 77.585938 L 15.777344 77.585938 Z M 15.777344 26.585938 " clip-rule="nonzero"/></clipPath><clipPath id="1cb4f3814d"><path d="M 22.527344 26.585938 L 63.375 26.585938 C 65.164062 26.585938 66.878906 27.296875 68.144531 28.5625 C 69.410156 29.828125 70.121094 31.542969 70.121094 33.332031 L 70.121094 71.09375 C 70.121094 72.882812 69.410156 74.601562 68.144531 75.867188 C 66.878906 77.132812 65.164062 77.84375 63.375 77.84375 L 22.527344 77.84375 C 20.734375 77.84375 19.019531 77.132812 17.753906 75.867188 C 16.488281 74.601562 15.777344 72.882812 15.777344 71.09375 L 15.777344 33.332031 C 15.777344 31.542969 16.488281 29.828125 17.753906 28.5625 C 19.019531 27.296875 20.734375 26.585938 22.527344 26.585938 Z M 22.527344 26.585938 " clip-rule="nonzero"/></clipPath></defs><g clip-path="url(#cc41c5283f)"><g clip-path="url(#b6c96bf864)"><path stroke-linecap="butt" transform="matrix(0.75, 0, 0, 0.75, 86.107232, 89.722086)" fill="none" stroke-linejoin="miter" d="M 8.99765 0.000759845 L 63.461198 0.000759845 C 65.846615 0.000759845 68.138282 0.948677 69.825782 2.636177 C 71.513282 4.323677 72.461199 6.610136 72.461199 9.000761 L 72.461199 59.344517 C 72.461199 61.729934 71.513282 64.021601 69.825782 65.709101 C 68.138282 67.396601 65.846615 68.344518 63.461198 68.344518 L 8.99765 68.344518 C 6.612233 68.344518 4.320566 67.396601 2.633066 65.709101 C 0.945565 64.021601 -0.0023513 61.729934 -0.0023513 59.344517 L -0.0023513 9.000761 C -0.0023513 6.610136 0.945565 4.323677 2.633066 2.636177 C 4.320566 0.948677 6.612233 0.000759845 8.99765 0.000759845 Z M 8.99765 0.000759845 " stroke="#72d1e5" stroke-width="8" stroke-opacity="1" stroke-miterlimit="4"/></g></g><g fill="#9dafbb" fill-opacity="1"><g transform="translate(99.744372, 121.222085)"><g><path d="M 4.421875 0.0625 C 3.753906 0.0625 3.175781 -0.0625 2.6875 -0.3125 C 2.195312 -0.5625 1.789062 -0.898438 1.46875 -1.328125 C 1.144531 -1.753906 0.90625 -2.222656 0.75 -2.734375 C 0.59375 -3.253906 0.515625 -3.78125 0.515625 -4.3125 C 0.515625 -4.925781 0.617188 -5.503906 0.828125 -6.046875 C 1.046875 -6.597656 1.347656 -7.082031 1.734375 -7.5 C 2.117188 -7.914062 2.582031 -8.242188 3.125 -8.484375 C 3.675781 -8.722656 4.285156 -8.84375 4.953125 -8.84375 C 5.359375 -8.84375 5.742188 -8.789062 6.109375 -8.6875 C 6.484375 -8.59375 6.832031 -8.425781 7.15625 -8.1875 C 7.488281 -7.957031 7.789062 -7.632812 8.0625 -7.21875 C 8.125 -7.125 8.164062 -7.03125 8.1875 -6.9375 C 8.21875 -6.84375 8.234375 -6.75 8.234375 -6.65625 C 8.234375 -6.476562 8.164062 -6.316406 8.03125 -6.171875 C 7.90625 -6.023438 7.753906 -5.910156 7.578125 -5.828125 C 7.398438 -5.742188 7.234375 -5.703125 7.078125 -5.703125 C 6.929688 -5.703125 6.804688 -5.738281 6.703125 -5.8125 C 6.609375 -5.882812 6.507812 -5.988281 6.40625 -6.125 C 6.207031 -6.394531 5.988281 -6.578125 5.75 -6.671875 C 5.519531 -6.773438 5.28125 -6.828125 5.03125 -6.828125 C 4.78125 -6.828125 4.546875 -6.769531 4.328125 -6.65625 C 4.109375 -6.539062 3.910156 -6.367188 3.734375 -6.140625 C 3.566406 -5.921875 3.4375 -5.648438 3.34375 -5.328125 C 3.25 -5.015625 3.203125 -4.660156 3.203125 -4.265625 C 3.203125 -3.960938 3.25 -3.632812 3.34375 -3.28125 C 3.445312 -2.9375 3.609375 -2.640625 3.828125 -2.390625 C 4.054688 -2.148438 4.34375 -2.03125 4.6875 -2.03125 C 5.101562 -2.03125 5.457031 -2.140625 5.75 -2.359375 C 6.050781 -2.585938 6.335938 -2.851562 6.609375 -3.15625 C 6.703125 -3.257812 6.785156 -3.328125 6.859375 -3.359375 C 6.941406 -3.398438 7.046875 -3.421875 7.171875 -3.421875 C 7.328125 -3.421875 7.492188 -3.367188 7.671875 -3.265625 C 7.847656 -3.160156 8 -3.023438 8.125 -2.859375 C 8.25 -2.691406 8.3125 -2.519531 8.3125 -2.34375 C 8.3125 -2.257812 8.300781 -2.164062 8.28125 -2.0625 C 8.257812 -1.96875 8.195312 -1.863281 8.09375 -1.75 C 7.613281 -1.15625 7.035156 -0.703125 6.359375 -0.390625 C 5.691406 -0.0859375 5.046875 0.0625 4.421875 0.0625 Z M 4.421875 0.0625 "/></g></g></g><g fill="#9dafbb" fill-opacity="1"><g transform="translate(108.574255, 121.222085)"><g><path d="M 0.5625 -3.75 C 0.5625 -4.394531 0.65625 -5.019531 0.84375 -5.625 C 1.039062 -6.238281 1.316406 -6.785156 1.671875 -7.265625 C 2.023438 -7.742188 2.460938 -8.125 2.984375 -8.40625 C 3.503906 -8.6875 4.09375 -8.828125 4.75 -8.828125 C 5.164062 -8.828125 5.53125 -8.757812 5.84375 -8.625 C 6.15625 -8.5 6.4375 -8.3125 6.6875 -8.0625 C 6.738281 -8.300781 6.828125 -8.492188 6.953125 -8.640625 C 7.085938 -8.785156 7.316406 -8.859375 7.640625 -8.859375 C 8.023438 -8.859375 8.363281 -8.765625 8.65625 -8.578125 C 8.945312 -8.390625 9.085938 -8.15625 9.078125 -7.875 C 9.066406 -7.582031 9.015625 -7.1875 8.921875 -6.6875 C 8.835938 -6.195312 8.765625 -5.710938 8.703125 -5.234375 C 8.679688 -5.085938 8.648438 -4.894531 8.609375 -4.65625 C 8.578125 -4.414062 8.546875 -4.179688 8.515625 -3.953125 C 8.492188 -3.722656 8.476562 -3.53125 8.46875 -3.375 C 8.457031 -3.21875 8.453125 -3.019531 8.453125 -2.78125 C 8.453125 -2.539062 8.484375 -2.328125 8.546875 -2.140625 C 8.609375 -1.960938 8.710938 -1.875 8.859375 -1.875 C 8.941406 -1.875 9.015625 -1.894531 9.078125 -1.9375 C 9.148438 -1.976562 9.21875 -2.035156 9.28125 -2.109375 C 9.382812 -2.179688 9.476562 -2.242188 9.5625 -2.296875 C 9.644531 -2.347656 9.75 -2.375 9.875 -2.375 C 10.019531 -2.375 10.15625 -2.320312 10.28125 -2.21875 C 10.40625 -2.113281 10.5 -1.972656 10.5625 -1.796875 C 10.632812 -1.628906 10.640625 -1.441406 10.578125 -1.234375 C 10.535156 -1.023438 10.394531 -0.8125 10.15625 -0.59375 C 9.925781 -0.382812 9.648438 -0.207031 9.328125 -0.0625 C 9.015625 0.0703125 8.707031 0.140625 8.40625 0.140625 C 8.09375 0.140625 7.804688 0.078125 7.546875 -0.046875 C 7.296875 -0.179688 7.082031 -0.363281 6.90625 -0.59375 C 6.726562 -0.820312 6.609375 -1.09375 6.546875 -1.40625 C 6.265625 -0.988281 5.894531 -0.640625 5.4375 -0.359375 C 4.988281 -0.0859375 4.484375 0.046875 3.921875 0.046875 C 3.210938 0.046875 2.609375 -0.113281 2.109375 -0.4375 C 1.609375 -0.769531 1.222656 -1.222656 0.953125 -1.796875 C 0.691406 -2.367188 0.5625 -3.019531 0.5625 -3.75 Z M 3.265625 -3.859375 C 3.265625 -3.515625 3.300781 -3.207031 3.375 -2.9375 C 3.445312 -2.664062 3.5625 -2.445312 3.71875 -2.28125 C 3.875 -2.125 4.082031 -2.046875 4.34375 -2.046875 C 4.550781 -2.046875 4.734375 -2.097656 4.890625 -2.203125 C 5.054688 -2.304688 5.203125 -2.441406 5.328125 -2.609375 C 5.453125 -2.785156 5.550781 -2.992188 5.625 -3.234375 C 5.71875 -3.472656 5.796875 -3.726562 5.859375 -4 C 5.921875 -4.269531 5.972656 -4.539062 6.015625 -4.8125 C 6.054688 -5.09375 6.09375 -5.363281 6.125 -5.625 C 6.15625 -5.894531 6.179688 -6.160156 6.203125 -6.421875 C 6.054688 -6.554688 5.882812 -6.660156 5.6875 -6.734375 C 5.5 -6.816406 5.300781 -6.859375 5.09375 -6.859375 C 4.800781 -6.859375 4.539062 -6.78125 4.3125 -6.625 C 4.09375 -6.476562 3.898438 -6.265625 3.734375 -5.984375 C 3.578125 -5.703125 3.457031 -5.378906 3.375 -5.015625 C 3.300781 -4.660156 3.265625 -4.273438 3.265625 -3.859375 Z M 3.265625 -3.859375 "/></g></g></g><g fill="#9dafbb" fill-opacity="1"><g transform="translate(119.099706, 121.222085)"><g><path d="M 1.8125 -10.171875 C 1.84375 -10.421875 1.941406 -10.613281 2.109375 -10.75 C 2.273438 -10.894531 2.554688 -10.96875 2.953125 -10.96875 C 3.222656 -10.96875 3.476562 -10.9375 3.71875 -10.875 C 3.96875 -10.820312 4.160156 -10.726562 4.296875 -10.59375 C 4.441406 -10.46875 4.492188 -10.28125 4.453125 -10.03125 C 4.390625 -9.476562 4.320312 -8.90625 4.25 -8.3125 C 4.1875 -7.71875 4.140625 -7.109375 4.109375 -6.484375 C 4.078125 -5.859375 4.070312 -5.21875 4.09375 -4.5625 C 4.113281 -3.875 4.148438 -3.359375 4.203125 -3.015625 C 4.265625 -2.671875 4.335938 -2.441406 4.421875 -2.328125 C 4.515625 -2.210938 4.601562 -2.15625 4.6875 -2.15625 C 4.78125 -2.15625 4.882812 -2.203125 5 -2.296875 C 5.125 -2.390625 5.238281 -2.492188 5.34375 -2.609375 C 5.457031 -2.734375 5.546875 -2.832031 5.609375 -2.90625 C 5.679688 -2.988281 5.757812 -3.054688 5.84375 -3.109375 C 5.9375 -3.171875 6.039062 -3.203125 6.15625 -3.203125 C 6.320312 -3.203125 6.488281 -3.15625 6.65625 -3.0625 C 6.820312 -2.976562 6.96875 -2.859375 7.09375 -2.703125 C 7.21875 -2.554688 7.28125 -2.378906 7.28125 -2.171875 C 7.28125 -2.097656 7.257812 -1.972656 7.21875 -1.796875 C 7.175781 -1.617188 7.023438 -1.40625 6.765625 -1.15625 C 6.484375 -0.863281 6.164062 -0.617188 5.8125 -0.421875 C 5.457031 -0.234375 5.109375 -0.09375 4.765625 0 C 4.421875 0.0820312 4.117188 0.125 3.859375 0.125 C 3.171875 0.125 2.660156 -0.046875 2.328125 -0.390625 C 2.003906 -0.742188 1.769531 -1.226562 1.625 -1.84375 C 1.53125 -2.3125 1.46875 -2.769531 1.4375 -3.21875 C 1.414062 -3.664062 1.40625 -4.128906 1.40625 -4.609375 C 1.40625 -5.253906 1.414062 -5.878906 1.4375 -6.484375 C 1.46875 -7.097656 1.507812 -7.707031 1.5625 -8.3125 C 1.625 -8.914062 1.707031 -9.535156 1.8125 -10.171875 Z M 1.03125 -6.671875 C 0.820312 -6.660156 0.644531 -6.734375 0.5 -6.890625 C 0.351562 -7.054688 0.28125 -7.296875 0.28125 -7.609375 C 0.28125 -7.921875 0.351562 -8.148438 0.5 -8.296875 C 0.644531 -8.453125 0.820312 -8.535156 1.03125 -8.546875 C 1.300781 -8.566406 1.644531 -8.582031 2.0625 -8.59375 C 2.476562 -8.613281 2.921875 -8.625 3.390625 -8.625 C 3.867188 -8.632812 4.351562 -8.640625 4.84375 -8.640625 C 5.332031 -8.648438 5.796875 -8.65625 6.234375 -8.65625 C 6.421875 -8.65625 6.59375 -8.578125 6.75 -8.421875 C 6.90625 -8.273438 6.984375 -8.019531 6.984375 -7.65625 C 6.984375 -7.363281 6.898438 -7.144531 6.734375 -7 C 6.578125 -6.851562 6.410156 -6.78125 6.234375 -6.78125 C 5.785156 -6.78125 5.34375 -6.773438 4.90625 -6.765625 C 4.476562 -6.765625 4.050781 -6.757812 3.625 -6.75 C 3.195312 -6.75 2.769531 -6.738281 2.34375 -6.71875 C 1.914062 -6.707031 1.476562 -6.691406 1.03125 -6.671875 Z M 1.03125 -6.671875 "/></g></g></g><g clip-path="url(#9d4da75812)"><g clip-path="url(#1a114fbbc5)"><path stroke-linecap="butt" transform="matrix(0.75, 0, 0, 0.75, 15.777464, 89.722086)" fill="none" stroke-linejoin="miter" d="M 8.99984 0.000759845 L 63.463389 0.000759845 C 65.848806 0.000759845 68.135264 0.948677 69.822765 2.636177 C 71.510265 4.323677 72.458182 6.610136 72.458182 9.000761 L 72.458182 59.344517 C 72.458182 61.729934 71.510265 64.021601 69.822765 65.709101 C 68.135264 67.396601 65.848806 68.344518 63.463389 68.344518 L 8.99984 68.344518 C 6.609215 68.344518 4.322757 67.396601 2.635256 65.709101 C 0.947756 64.021601 -0.000160666 61.729934 -0.000160666 59.344517 L -0.000160666 9.000761 C -0.000160666 6.610136 0.947756 4.323677 2.635256 2.636177 C 4.322757 0.948677 6.609215 0.000759845 8.99984 0.000759845 Z M 8.99984 0.000759845 " stroke="#ffbd59" stroke-width="8" stroke-opacity="1" stroke-miterlimit="4"/></g></g><g fill="#9dafbb" fill-opacity="1"><g transform="translate(23.262259, 121.222085)"><g><path d="M 1.390625 -12.25 C 1.410156 -12.613281 1.519531 -12.890625 1.71875 -13.078125 C 1.925781 -13.265625 2.304688 -13.359375 2.859375 -13.359375 C 3.316406 -13.359375 3.648438 -13.273438 3.859375 -13.109375 C 4.078125 -12.941406 4.164062 -12.65625 4.125 -12.25 C 4.101562 -11.9375 4.078125 -11.601562 4.046875 -11.25 C 4.023438 -10.894531 4 -10.519531 3.96875 -10.125 C 3.945312 -9.726562 3.925781 -9.3125 3.90625 -8.875 C 3.882812 -8.4375 3.863281 -7.972656 3.84375 -7.484375 C 3.96875 -7.679688 4.128906 -7.878906 4.328125 -8.078125 C 4.535156 -8.285156 4.785156 -8.457031 5.078125 -8.59375 C 5.367188 -8.738281 5.707031 -8.8125 6.09375 -8.8125 C 6.738281 -8.8125 7.273438 -8.644531 7.703125 -8.3125 C 8.140625 -7.976562 8.46875 -7.5 8.6875 -6.875 C 8.90625 -6.257812 9.015625 -5.535156 9.015625 -4.703125 C 9.015625 -3.804688 8.851562 -2.988281 8.53125 -2.25 C 8.21875 -1.519531 7.769531 -0.9375 7.1875 -0.5 C 6.601562 -0.0703125 5.921875 0.140625 5.140625 0.140625 C 4.742188 0.140625 4.375 0.0859375 4.03125 -0.015625 C 3.6875 -0.117188 3.394531 -0.265625 3.15625 -0.453125 C 3.09375 -0.253906 2.957031 -0.117188 2.75 -0.046875 C 2.550781 0.0234375 2.28125 0.0625 1.9375 0.0625 C 1.59375 0.0625 1.316406 0.0078125 1.109375 -0.09375 C 0.910156 -0.195312 0.8125 -0.351562 0.8125 -0.5625 C 0.8125 -0.644531 0.8125 -0.75 0.8125 -0.875 C 0.820312 -1 0.832031 -1.09375 0.84375 -1.15625 C 0.738281 -1.238281 0.660156 -1.351562 0.609375 -1.5 C 0.566406 -1.644531 0.546875 -1.796875 0.546875 -1.953125 C 0.546875 -2.097656 0.578125 -2.234375 0.640625 -2.359375 C 0.703125 -2.492188 0.796875 -2.597656 0.921875 -2.671875 C 0.992188 -3.859375 1.050781 -4.972656 1.09375 -6.015625 C 1.132812 -7.066406 1.175781 -8.101562 1.21875 -9.125 C 1.257812 -10.144531 1.316406 -11.1875 1.390625 -12.25 Z M 3.515625 -2.28125 C 3.691406 -2.132812 3.867188 -2.023438 4.046875 -1.953125 C 4.222656 -1.890625 4.425781 -1.859375 4.65625 -1.859375 C 4.96875 -1.859375 5.25 -1.953125 5.5 -2.140625 C 5.75 -2.335938 5.941406 -2.628906 6.078125 -3.015625 C 6.210938 -3.398438 6.28125 -3.894531 6.28125 -4.5 C 6.28125 -4.882812 6.242188 -5.226562 6.171875 -5.53125 C 6.097656 -5.84375 5.976562 -6.085938 5.8125 -6.265625 C 5.65625 -6.441406 5.441406 -6.53125 5.171875 -6.53125 C 4.960938 -6.53125 4.765625 -6.453125 4.578125 -6.296875 C 4.398438 -6.148438 4.238281 -5.957031 4.09375 -5.71875 C 3.957031 -5.488281 3.847656 -5.242188 3.765625 -4.984375 C 3.679688 -4.734375 3.628906 -4.492188 3.609375 -4.265625 C 3.597656 -4.046875 3.585938 -3.816406 3.578125 -3.578125 C 3.566406 -3.347656 3.554688 -3.125 3.546875 -2.90625 C 3.546875 -2.695312 3.535156 -2.488281 3.515625 -2.28125 Z M 3.515625 -2.28125 "/></g></g></g><g fill="#9dafbb" fill-opacity="1"><g transform="translate(32.971941, 121.222085)"><g><path d="M 4.9375 -8.84375 C 5.195312 -8.84375 5.5 -8.816406 5.84375 -8.765625 C 6.1875 -8.710938 6.507812 -8.640625 6.8125 -8.546875 C 7.113281 -8.453125 7.34375 -8.332031 7.5 -8.1875 C 8.007812 -7.789062 8.378906 -7.273438 8.609375 -6.640625 C 8.847656 -6.003906 8.96875 -5.320312 8.96875 -4.59375 C 8.96875 -4.007812 8.890625 -3.4375 8.734375 -2.875 C 8.578125 -2.3125 8.332031 -1.804688 8 -1.359375 C 7.664062 -0.910156 7.25 -0.550781 6.75 -0.28125 C 6.25 -0.0195312 5.65625 0.109375 4.96875 0.109375 C 4.195312 0.109375 3.523438 -0.00390625 2.953125 -0.234375 C 2.390625 -0.472656 1.925781 -0.800781 1.5625 -1.21875 C 1.195312 -1.632812 0.925781 -2.109375 0.75 -2.640625 C 0.570312 -3.171875 0.484375 -3.738281 0.484375 -4.34375 C 0.484375 -4.914062 0.570312 -5.46875 0.75 -6 C 0.925781 -6.539062 1.195312 -7.019531 1.5625 -7.4375 C 1.925781 -7.863281 2.390625 -8.203125 2.953125 -8.453125 C 3.515625 -8.710938 4.175781 -8.84375 4.9375 -8.84375 Z M 3.15625 -4.421875 C 3.15625 -4.023438 3.210938 -3.632812 3.328125 -3.25 C 3.441406 -2.875 3.625 -2.5625 3.875 -2.3125 C 4.132812 -2.070312 4.460938 -1.953125 4.859375 -1.953125 C 5.128906 -1.953125 5.359375 -2.03125 5.546875 -2.1875 C 5.734375 -2.34375 5.878906 -2.546875 5.984375 -2.796875 C 6.097656 -3.046875 6.175781 -3.316406 6.21875 -3.609375 C 6.269531 -3.898438 6.296875 -4.1875 6.296875 -4.46875 C 6.296875 -5.070312 6.21875 -5.550781 6.0625 -5.90625 C 5.914062 -6.257812 5.710938 -6.523438 5.453125 -6.703125 C 5.335938 -6.734375 5.234375 -6.753906 5.140625 -6.765625 C 5.054688 -6.785156 4.957031 -6.796875 4.84375 -6.796875 C 4.539062 -6.796875 4.273438 -6.726562 4.046875 -6.59375 C 3.828125 -6.457031 3.648438 -6.273438 3.515625 -6.046875 C 3.390625 -5.828125 3.296875 -5.578125 3.234375 -5.296875 C 3.179688 -5.015625 3.15625 -4.722656 3.15625 -4.421875 Z M 3.15625 -4.421875 "/></g></g></g><g fill="#9dafbb" fill-opacity="1"><g transform="translate(42.505658, 121.222085)"><g><path d="M 4.9375 -8.84375 C 5.195312 -8.84375 5.5 -8.816406 5.84375 -8.765625 C 6.1875 -8.710938 6.507812 -8.640625 6.8125 -8.546875 C 7.113281 -8.453125 7.34375 -8.332031 7.5 -8.1875 C 8.007812 -7.789062 8.378906 -7.273438 8.609375 -6.640625 C 8.847656 -6.003906 8.96875 -5.320312 8.96875 -4.59375 C 8.96875 -4.007812 8.890625 -3.4375 8.734375 -2.875 C 8.578125 -2.3125 8.332031 -1.804688 8 -1.359375 C 7.664062 -0.910156 7.25 -0.550781 6.75 -0.28125 C 6.25 -0.0195312 5.65625 0.109375 4.96875 0.109375 C 4.195312 0.109375 3.523438 -0.00390625 2.953125 -0.234375 C 2.390625 -0.472656 1.925781 -0.800781 1.5625 -1.21875 C 1.195312 -1.632812 0.925781 -2.109375 0.75 -2.640625 C 0.570312 -3.171875 0.484375 -3.738281 0.484375 -4.34375 C 0.484375 -4.914062 0.570312 -5.46875 0.75 -6 C 0.925781 -6.539062 1.195312 -7.019531 1.5625 -7.4375 C 1.925781 -7.863281 2.390625 -8.203125 2.953125 -8.453125 C 3.515625 -8.710938 4.175781 -8.84375 4.9375 -8.84375 Z M 3.15625 -4.421875 C 3.15625 -4.023438 3.210938 -3.632812 3.328125 -3.25 C 3.441406 -2.875 3.625 -2.5625 3.875 -2.3125 C 4.132812 -2.070312 4.460938 -1.953125 4.859375 -1.953125 C 5.128906 -1.953125 5.359375 -2.03125 5.546875 -2.1875 C 5.734375 -2.34375 5.878906 -2.546875 5.984375 -2.796875 C 6.097656 -3.046875 6.175781 -3.316406 6.21875 -3.609375 C 6.269531 -3.898438 6.296875 -4.1875 6.296875 -4.46875 C 6.296875 -5.070312 6.21875 -5.550781 6.0625 -5.90625 C 5.914062 -6.257812 5.710938 -6.523438 5.453125 -6.703125 C 5.335938 -6.734375 5.234375 -6.753906 5.140625 -6.765625 C 5.054688 -6.785156 4.957031 -6.796875 4.84375 -6.796875 C 4.539062 -6.796875 4.273438 -6.726562 4.046875 -6.59375 C 3.828125 -6.457031 3.648438 -6.273438 3.515625 -6.046875 C 3.390625 -5.828125 3.296875 -5.578125 3.234375 -5.296875 C 3.179688 -5.015625 3.15625 -4.722656 3.15625 -4.421875 Z M 3.15625 -4.421875 "/></g></g></g><g fill="#9dafbb" fill-opacity="1"><g transform="translate(51.911397, 121.222085)"><g><path d="M 1.484375 -12.359375 C 1.503906 -12.628906 1.613281 -12.828125 1.8125 -12.953125 C 2.007812 -13.085938 2.378906 -13.15625 2.921875 -13.15625 C 3.390625 -13.15625 3.691406 -13.0625 3.828125 -12.875 C 3.972656 -12.6875 4.046875 -12.460938 4.046875 -12.203125 C 4.046875 -11.953125 4.015625 -11.578125 3.953125 -11.078125 C 3.890625 -10.585938 3.816406 -9.910156 3.734375 -9.046875 C 3.648438 -8.191406 3.582031 -7.101562 3.53125 -5.78125 C 3.582031 -5.8125 3.691406 -5.890625 3.859375 -6.015625 C 4.035156 -6.148438 4.238281 -6.3125 4.46875 -6.5 C 4.707031 -6.695312 4.960938 -6.90625 5.234375 -7.125 C 5.515625 -7.351562 5.796875 -7.582031 6.078125 -7.8125 C 6.359375 -8.039062 6.617188 -8.253906 6.859375 -8.453125 C 7.023438 -8.585938 7.175781 -8.679688 7.3125 -8.734375 C 7.445312 -8.796875 7.609375 -8.828125 7.796875 -8.828125 C 8.023438 -8.828125 8.21875 -8.773438 8.375 -8.671875 C 8.539062 -8.578125 8.664062 -8.453125 8.75 -8.296875 C 8.84375 -8.140625 8.910156 -7.988281 8.953125 -7.84375 C 8.992188 -7.695312 9.015625 -7.578125 9.015625 -7.484375 C 9.015625 -7.378906 8.992188 -7.273438 8.953125 -7.171875 C 8.910156 -7.066406 8.820312 -6.957031 8.6875 -6.84375 C 8.550781 -6.738281 8.390625 -6.617188 8.203125 -6.484375 C 8.023438 -6.347656 7.832031 -6.203125 7.625 -6.046875 C 7.425781 -5.898438 7.21875 -5.742188 7 -5.578125 C 6.789062 -5.421875 6.582031 -5.265625 6.375 -5.109375 C 6.175781 -4.960938 5.988281 -4.820312 5.8125 -4.6875 C 5.945312 -4.476562 6.09375 -4.242188 6.25 -3.984375 C 6.40625 -3.722656 6.554688 -3.472656 6.703125 -3.234375 C 6.835938 -3.015625 6.960938 -2.832031 7.078125 -2.6875 C 7.203125 -2.539062 7.316406 -2.425781 7.421875 -2.34375 C 7.535156 -2.269531 7.660156 -2.234375 7.796875 -2.234375 C 7.941406 -2.234375 8.085938 -2.300781 8.234375 -2.4375 C 8.378906 -2.570312 8.53125 -2.734375 8.6875 -2.921875 C 8.769531 -3.035156 8.863281 -3.125 8.96875 -3.1875 C 9.082031 -3.25 9.195312 -3.28125 9.3125 -3.28125 C 9.507812 -3.28125 9.691406 -3.222656 9.859375 -3.109375 C 10.035156 -2.992188 10.175781 -2.851562 10.28125 -2.6875 C 10.394531 -2.519531 10.453125 -2.34375 10.453125 -2.15625 C 10.453125 -1.976562 10.398438 -1.800781 10.296875 -1.625 C 10.203125 -1.457031 10.082031 -1.3125 9.9375 -1.1875 C 9.726562 -0.976562 9.476562 -0.769531 9.1875 -0.5625 C 8.894531 -0.363281 8.582031 -0.195312 8.25 -0.0625 C 7.914062 0.0625 7.566406 0.125 7.203125 0.125 C 6.796875 0.125 6.441406 0.046875 6.140625 -0.109375 C 5.847656 -0.265625 5.578125 -0.472656 5.328125 -0.734375 C 5.085938 -1.003906 4.859375 -1.3125 4.640625 -1.65625 C 4.367188 -2.113281 4.15625 -2.503906 4 -2.828125 C 3.84375 -3.148438 3.671875 -3.46875 3.484375 -3.78125 C 3.472656 -3.207031 3.457031 -2.660156 3.4375 -2.140625 C 3.414062 -1.617188 3.398438 -1.140625 3.390625 -0.703125 C 3.378906 -0.367188 3.273438 -0.140625 3.078125 -0.015625 C 2.890625 0.0976562 2.597656 0.15625 2.203125 0.15625 C 1.703125 0.15625 1.34375 0.0976562 1.125 -0.015625 C 0.90625 -0.140625 0.800781 -0.367188 0.8125 -0.703125 C 0.875 -2.609375 0.957031 -4.5625 1.0625 -6.5625 C 1.175781 -8.5625 1.316406 -10.492188 1.484375 -12.359375 Z M 1.484375 -12.359375 "/></g></g></g><g clip-path="url(#50d8bd9df9)"><g clip-path="url(#de06045f6e)"><path stroke-linecap="butt" transform="matrix(0.75, 0, 0, 0.75, 86.107232, 26.58419)" fill="none" stroke-linejoin="miter" d="M 8.99765 0.00233015 L 63.461198 0.00233015 C 65.846615 0.00233015 68.138282 0.950247 69.825782 2.637747 C 71.513282 4.325247 72.461199 6.611706 72.461199 8.997123 L 72.461199 59.346087 C 72.461199 61.731504 71.513282 64.023171 69.825782 65.710672 C 68.138282 67.398172 65.846615 68.346089 63.461198 68.346089 L 8.99765 68.346089 C 6.612233 68.346089 4.320566 67.398172 2.633066 65.710672 C 0.945565 64.023171 -0.0023513 61.731504 -0.0023513 59.346087 L -0.0023513 8.997123 C -0.0023513 6.611706 0.945565 4.325247 2.633066 2.637747 C 4.320566 0.950247 6.612233 0.00233015 8.99765 0.00233015 Z M 8.99765 0.00233015 " stroke="#78d0b1" stroke-width="8" stroke-opacity="1" stroke-miterlimit="4"/></g></g><g fill="#9dafbb" fill-opacity="1"><g transform="translate(98.713122, 58.084188)"><g><path d="M 6.703125 -12.40625 C 6.722656 -12.75 6.84375 -12.988281 7.0625 -13.125 C 7.28125 -13.269531 7.566406 -13.34375 7.921875 -13.34375 C 8.398438 -13.34375 8.757812 -13.269531 9 -13.125 C 9.25 -12.976562 9.363281 -12.707031 9.34375 -12.3125 C 9.21875 -10.457031 9.109375 -8.535156 9.015625 -6.546875 C 8.929688 -4.554688 8.847656 -2.609375 8.765625 -0.703125 C 8.753906 -0.367188 8.609375 -0.132812 8.328125 0 C 8.046875 0.132812 7.726562 0.203125 7.375 0.203125 C 7 0.203125 6.710938 0.128906 6.515625 -0.015625 C 6.316406 -0.160156 6.21875 -0.335938 6.21875 -0.546875 C 6.21875 -0.648438 6.222656 -0.75 6.234375 -0.84375 C 6.242188 -0.9375 6.253906 -1.039062 6.265625 -1.15625 C 6.285156 -1.28125 6.296875 -1.410156 6.296875 -1.546875 C 6.097656 -1.140625 5.859375 -0.8125 5.578125 -0.5625 C 5.304688 -0.3125 5 -0.125 4.65625 0 C 4.320312 0.113281 3.972656 0.171875 3.609375 0.171875 C 3.054688 0.171875 2.582031 0.0507812 2.1875 -0.1875 C 1.789062 -0.425781 1.472656 -0.742188 1.234375 -1.140625 C 0.992188 -1.535156 0.816406 -1.960938 0.703125 -2.421875 C 0.597656 -2.878906 0.546875 -3.320312 0.546875 -3.75 C 0.546875 -4.375 0.644531 -4.988281 0.84375 -5.59375 C 1.039062 -6.207031 1.316406 -6.753906 1.671875 -7.234375 C 2.023438 -7.722656 2.453125 -8.113281 2.953125 -8.40625 C 3.460938 -8.695312 4.023438 -8.84375 4.640625 -8.84375 C 4.941406 -8.84375 5.238281 -8.800781 5.53125 -8.71875 C 5.832031 -8.644531 6.132812 -8.523438 6.4375 -8.359375 C 6.46875 -8.847656 6.492188 -9.328125 6.515625 -9.796875 C 6.546875 -10.265625 6.578125 -10.71875 6.609375 -11.15625 C 6.640625 -11.601562 6.671875 -12.019531 6.703125 -12.40625 Z M 3.265625 -3.84375 C 3.265625 -3.53125 3.296875 -3.234375 3.359375 -2.953125 C 3.429688 -2.671875 3.539062 -2.441406 3.6875 -2.265625 C 3.84375 -2.085938 4.035156 -2 4.265625 -2 C 4.503906 -2 4.726562 -2.085938 4.9375 -2.265625 C 5.144531 -2.441406 5.328125 -2.664062 5.484375 -2.9375 C 5.640625 -3.207031 5.765625 -3.492188 5.859375 -3.796875 C 5.960938 -4.109375 6.023438 -4.398438 6.046875 -4.671875 C 6.054688 -4.722656 6.070312 -4.769531 6.09375 -4.8125 C 6.113281 -4.863281 6.148438 -4.910156 6.203125 -4.953125 L 6.28125 -6.375 C 6.070312 -6.539062 5.878906 -6.648438 5.703125 -6.703125 C 5.523438 -6.765625 5.332031 -6.796875 5.125 -6.796875 C 4.820312 -6.796875 4.53125 -6.6875 4.25 -6.46875 C 3.96875 -6.25 3.734375 -5.921875 3.546875 -5.484375 C 3.359375 -5.046875 3.265625 -4.5 3.265625 -3.84375 Z M 3.265625 -3.84375 "/></g></g></g><g fill="#9dafbb" fill-opacity="1"><g transform="translate(108.566747, 58.084188)"><g><path d="M 4.9375 -8.84375 C 5.195312 -8.84375 5.5 -8.816406 5.84375 -8.765625 C 6.1875 -8.710938 6.507812 -8.640625 6.8125 -8.546875 C 7.113281 -8.453125 7.34375 -8.332031 7.5 -8.1875 C 8.007812 -7.789062 8.378906 -7.273438 8.609375 -6.640625 C 8.847656 -6.003906 8.96875 -5.320312 8.96875 -4.59375 C 8.96875 -4.007812 8.890625 -3.4375 8.734375 -2.875 C 8.578125 -2.3125 8.332031 -1.804688 8 -1.359375 C 7.664062 -0.910156 7.25 -0.550781 6.75 -0.28125 C 6.25 -0.0195312 5.65625 0.109375 4.96875 0.109375 C 4.195312 0.109375 3.523438 -0.00390625 2.953125 -0.234375 C 2.390625 -0.472656 1.925781 -0.800781 1.5625 -1.21875 C 1.195312 -1.632812 0.925781 -2.109375 0.75 -2.640625 C 0.570312 -3.171875 0.484375 -3.738281 0.484375 -4.34375 C 0.484375 -4.914062 0.570312 -5.46875 0.75 -6 C 0.925781 -6.539062 1.195312 -7.019531 1.5625 -7.4375 C 1.925781 -7.863281 2.390625 -8.203125 2.953125 -8.453125 C 3.515625 -8.710938 4.175781 -8.84375 4.9375 -8.84375 Z M 3.15625 -4.421875 C 3.15625 -4.023438 3.210938 -3.632812 3.328125 -3.25 C 3.441406 -2.875 3.625 -2.5625 3.875 -2.3125 C 4.132812 -2.070312 4.460938 -1.953125 4.859375 -1.953125 C 5.128906 -1.953125 5.359375 -2.03125 5.546875 -2.1875 C 5.734375 -2.34375 5.878906 -2.546875 5.984375 -2.796875 C 6.097656 -3.046875 6.175781 -3.316406 6.21875 -3.609375 C 6.269531 -3.898438 6.296875 -4.1875 6.296875 -4.46875 C 6.296875 -5.070312 6.21875 -5.550781 6.0625 -5.90625 C 5.914062 -6.257812 5.710938 -6.523438 5.453125 -6.703125 C 5.335938 -6.734375 5.234375 -6.753906 5.140625 -6.765625 C 5.054688 -6.785156 4.957031 -6.796875 4.84375 -6.796875 C 4.539062 -6.796875 4.273438 -6.726562 4.046875 -6.59375 C 3.828125 -6.457031 3.648438 -6.273438 3.515625 -6.046875 C 3.390625 -5.828125 3.296875 -5.578125 3.234375 -5.296875 C 3.179688 -5.015625 3.15625 -4.722656 3.15625 -4.421875 Z M 3.15625 -4.421875 "/></g></g></g><g fill="#9dafbb" fill-opacity="1"><g transform="translate(118.100465, 58.084188)"><g><path d="M 0.53125 -3.875 C 0.53125 -4.53125 0.640625 -5.15625 0.859375 -5.75 C 1.078125 -6.351562 1.382812 -6.882812 1.78125 -7.34375 C 2.175781 -7.8125 2.632812 -8.179688 3.15625 -8.453125 C 3.6875 -8.722656 4.257812 -8.859375 4.875 -8.859375 C 5.195312 -8.859375 5.5 -8.820312 5.78125 -8.75 C 6.070312 -8.675781 6.335938 -8.570312 6.578125 -8.4375 C 6.640625 -8.601562 6.742188 -8.710938 6.890625 -8.765625 C 7.046875 -8.816406 7.253906 -8.84375 7.515625 -8.84375 C 8.015625 -8.84375 8.359375 -8.796875 8.546875 -8.703125 C 8.734375 -8.617188 8.820312 -8.46875 8.8125 -8.25 L 8.796875 -7.71875 C 8.878906 -7.613281 8.941406 -7.503906 8.984375 -7.390625 C 9.035156 -7.285156 9.0625 -7.117188 9.0625 -6.890625 C 9.0625 -6.484375 8.96875 -6.175781 8.78125 -5.96875 L 8.78125 -5.625 C 8.78125 -5.375 8.785156 -5.113281 8.796875 -4.84375 C 8.804688 -4.570312 8.8125 -4.21875 8.8125 -3.78125 C 8.8125 -3.195312 8.796875 -2.570312 8.765625 -1.90625 C 8.734375 -1.25 8.691406 -0.632812 8.640625 -0.0625 C 8.554688 0.875 8.335938 1.679688 7.984375 2.359375 C 7.628906 3.035156 7.171875 3.554688 6.609375 3.921875 C 6.054688 4.285156 5.421875 4.46875 4.703125 4.46875 C 4.398438 4.46875 4.054688 4.414062 3.671875 4.3125 C 3.296875 4.207031 2.910156 4.054688 2.515625 3.859375 C 2.117188 3.671875 1.742188 3.4375 1.390625 3.15625 C 1.242188 3.007812 1.132812 2.878906 1.0625 2.765625 C 0.988281 2.660156 0.953125 2.535156 0.953125 2.390625 C 0.953125 2.234375 1.007812 2.0625 1.125 1.875 C 1.238281 1.6875 1.375 1.523438 1.53125 1.390625 C 1.6875 1.253906 1.832031 1.1875 1.96875 1.1875 C 2.070312 1.1875 2.1875 1.210938 2.3125 1.265625 C 2.4375 1.316406 2.550781 1.378906 2.65625 1.453125 C 2.851562 1.578125 3.050781 1.703125 3.25 1.828125 C 3.457031 1.960938 3.664062 2.066406 3.875 2.140625 C 4.09375 2.222656 4.304688 2.265625 4.515625 2.265625 C 4.785156 2.265625 5.015625 2.195312 5.203125 2.0625 C 5.390625 1.925781 5.546875 1.726562 5.671875 1.46875 C 5.804688 1.207031 5.910156 0.90625 5.984375 0.5625 C 6.054688 0.238281 6.109375 -0.0195312 6.140625 -0.21875 C 6.179688 -0.425781 6.21875 -0.601562 6.25 -0.75 C 6.28125 -0.90625 6.3125 -1.085938 6.34375 -1.296875 C 6.0625 -0.835938 5.71875 -0.492188 5.3125 -0.265625 C 4.90625 -0.046875 4.441406 0.0625 3.921875 0.0625 C 3.242188 0.0625 2.648438 -0.113281 2.140625 -0.46875 C 1.628906 -0.832031 1.234375 -1.3125 0.953125 -1.90625 C 0.671875 -2.5 0.53125 -3.15625 0.53125 -3.875 Z M 4.53125 -1.984375 C 4.8125 -1.984375 5.046875 -2.078125 5.234375 -2.265625 C 5.421875 -2.460938 5.570312 -2.726562 5.6875 -3.0625 C 5.800781 -3.394531 5.894531 -3.789062 5.96875 -4.25 C 5.988281 -4.382812 6.003906 -4.5625 6.015625 -4.78125 C 6.035156 -5 6.050781 -5.226562 6.0625 -5.46875 C 6.070312 -5.707031 6.078125 -5.921875 6.078125 -6.109375 C 6.085938 -6.296875 6.09375 -6.410156 6.09375 -6.453125 C 5.957031 -6.585938 5.800781 -6.679688 5.625 -6.734375 C 5.445312 -6.796875 5.296875 -6.828125 5.171875 -6.828125 C 4.890625 -6.828125 4.628906 -6.753906 4.390625 -6.609375 C 4.160156 -6.460938 3.957031 -6.25 3.78125 -5.96875 C 3.613281 -5.695312 3.484375 -5.382812 3.390625 -5.03125 C 3.296875 -4.675781 3.25 -4.296875 3.25 -3.890625 C 3.25 -3.492188 3.300781 -3.148438 3.40625 -2.859375 C 3.519531 -2.578125 3.671875 -2.359375 3.859375 -2.203125 C 4.054688 -2.054688 4.28125 -1.984375 4.53125 -1.984375 Z M 4.53125 -1.984375 "/></g></g></g><g clip-path="url(#a2ae7c7273)"><g clip-path="url(#1cb4f3814d)"><path stroke-linecap="butt" transform="matrix(0.75, 0, 0, 0.75, 15.777464, 26.58419)" fill="none" stroke-linejoin="miter" d="M 8.99984 0.00233015 L 63.463389 0.00233015 C 65.848806 0.00233015 68.135264 0.950247 69.822765 2.637747 C 71.510265 4.325247 72.458182 6.611706 72.458182 8.997123 L 72.458182 59.346087 C 72.458182 61.731504 71.510265 64.023171 69.822765 65.710672 C 68.135264 67.398172 65.848806 68.346089 63.463389 68.346089 L 8.99984 68.346089 C 6.609215 68.346089 4.322757 67.398172 2.635256 65.710672 C 0.947756 64.023171 -0.000160666 61.731504 -0.000160666 59.346087 L -0.000160666 8.997123 C -0.000160666 6.611706 0.947756 4.325247 2.635256 2.637747 C 4.322757 0.950247 6.609215 0.00233015 8.99984 0.00233015 Z M 8.99984 0.00233015 " stroke="#ff66c4" stroke-width="8" stroke-opacity="1" stroke-miterlimit="4"/></g></g><g fill="#9dafbb" fill-opacity="1"><g transform="translate(24.270071, 58.084188)"><g><path d="M 1.390625 -12.25 C 1.410156 -12.613281 1.519531 -12.890625 1.71875 -13.078125 C 1.925781 -13.265625 2.304688 -13.359375 2.859375 -13.359375 C 3.316406 -13.359375 3.648438 -13.273438 3.859375 -13.109375 C 4.078125 -12.941406 4.164062 -12.65625 4.125 -12.25 C 4.101562 -11.9375 4.078125 -11.601562 4.046875 -11.25 C 4.023438 -10.894531 4 -10.519531 3.96875 -10.125 C 3.945312 -9.726562 3.925781 -9.3125 3.90625 -8.875 C 3.882812 -8.4375 3.863281 -7.972656 3.84375 -7.484375 C 3.96875 -7.679688 4.128906 -7.878906 4.328125 -8.078125 C 4.535156 -8.285156 4.785156 -8.457031 5.078125 -8.59375 C 5.367188 -8.738281 5.707031 -8.8125 6.09375 -8.8125 C 6.738281 -8.8125 7.273438 -8.644531 7.703125 -8.3125 C 8.140625 -7.976562 8.46875 -7.5 8.6875 -6.875 C 8.90625 -6.257812 9.015625 -5.535156 9.015625 -4.703125 C 9.015625 -3.804688 8.851562 -2.988281 8.53125 -2.25 C 8.21875 -1.519531 7.769531 -0.9375 7.1875 -0.5 C 6.601562 -0.0703125 5.921875 0.140625 5.140625 0.140625 C 4.742188 0.140625 4.375 0.0859375 4.03125 -0.015625 C 3.6875 -0.117188 3.394531 -0.265625 3.15625 -0.453125 C 3.09375 -0.253906 2.957031 -0.117188 2.75 -0.046875 C 2.550781 0.0234375 2.28125 0.0625 1.9375 0.0625 C 1.59375 0.0625 1.316406 0.0078125 1.109375 -0.09375 C 0.910156 -0.195312 0.8125 -0.351562 0.8125 -0.5625 C 0.8125 -0.644531 0.8125 -0.75 0.8125 -0.875 C 0.820312 -1 0.832031 -1.09375 0.84375 -1.15625 C 0.738281 -1.238281 0.660156 -1.351562 0.609375 -1.5 C 0.566406 -1.644531 0.546875 -1.796875 0.546875 -1.953125 C 0.546875 -2.097656 0.578125 -2.234375 0.640625 -2.359375 C 0.703125 -2.492188 0.796875 -2.597656 0.921875 -2.671875 C 0.992188 -3.859375 1.050781 -4.972656 1.09375 -6.015625 C 1.132812 -7.066406 1.175781 -8.101562 1.21875 -9.125 C 1.257812 -10.144531 1.316406 -11.1875 1.390625 -12.25 Z M 3.515625 -2.28125 C 3.691406 -2.132812 3.867188 -2.023438 4.046875 -1.953125 C 4.222656 -1.890625 4.425781 -1.859375 4.65625 -1.859375 C 4.96875 -1.859375 5.25 -1.953125 5.5 -2.140625 C 5.75 -2.335938 5.941406 -2.628906 6.078125 -3.015625 C 6.210938 -3.398438 6.28125 -3.894531 6.28125 -4.5 C 6.28125 -4.882812 6.242188 -5.226562 6.171875 -5.53125 C 6.097656 -5.84375 5.976562 -6.085938 5.8125 -6.265625 C 5.65625 -6.441406 5.441406 -6.53125 5.171875 -6.53125 C 4.960938 -6.53125 4.765625 -6.453125 4.578125 -6.296875 C 4.398438 -6.148438 4.238281 -5.957031 4.09375 -5.71875 C 3.957031 -5.488281 3.847656 -5.242188 3.765625 -4.984375 C 3.679688 -4.734375 3.628906 -4.492188 3.609375 -4.265625 C 3.597656 -4.046875 3.585938 -3.816406 3.578125 -3.578125 C 3.566406 -3.347656 3.554688 -3.125 3.546875 -2.90625 C 3.546875 -2.695312 3.535156 -2.488281 3.515625 -2.28125 Z M 3.515625 -2.28125 "/></g></g></g><g fill="#9dafbb" fill-opacity="1"><g transform="translate(33.979753, 58.084188)"><g><path d="M 4.609375 0.0625 C 3.867188 0.0625 3.238281 -0.0546875 2.71875 -0.296875 C 2.195312 -0.546875 1.765625 -0.867188 1.421875 -1.265625 C 1.085938 -1.671875 0.84375 -2.125 0.6875 -2.625 C 0.539062 -3.132812 0.46875 -3.644531 0.46875 -4.15625 C 0.46875 -4.726562 0.578125 -5.285156 0.796875 -5.828125 C 1.015625 -6.378906 1.320312 -6.878906 1.71875 -7.328125 C 2.113281 -7.785156 2.585938 -8.148438 3.140625 -8.421875 C 3.691406 -8.703125 4.300781 -8.84375 4.96875 -8.84375 C 5.570312 -8.84375 6.070312 -8.75 6.46875 -8.5625 C 6.875 -8.375 7.179688 -8.109375 7.390625 -7.765625 C 7.597656 -7.429688 7.703125 -7.03125 7.703125 -6.5625 C 7.703125 -6.0625 7.59375 -5.617188 7.375 -5.234375 C 7.164062 -4.847656 6.863281 -4.519531 6.46875 -4.25 C 5.988281 -3.9375 5.472656 -3.703125 4.921875 -3.546875 C 4.378906 -3.390625 3.789062 -3.289062 3.15625 -3.25 C 3.25 -3.019531 3.367188 -2.8125 3.515625 -2.625 C 3.671875 -2.445312 3.859375 -2.296875 4.078125 -2.171875 C 4.296875 -2.054688 4.550781 -2 4.84375 -2 C 5.21875 -2 5.550781 -2.09375 5.84375 -2.28125 C 6.144531 -2.46875 6.410156 -2.679688 6.640625 -2.921875 C 6.765625 -3.066406 6.875 -3.15625 6.96875 -3.1875 C 7.070312 -3.226562 7.160156 -3.25 7.234375 -3.25 C 7.378906 -3.25 7.523438 -3.191406 7.671875 -3.078125 C 7.828125 -2.972656 7.960938 -2.847656 8.078125 -2.703125 C 8.203125 -2.554688 8.273438 -2.398438 8.296875 -2.234375 C 8.347656 -2.085938 8.335938 -1.9375 8.265625 -1.78125 C 8.191406 -1.632812 8.117188 -1.523438 8.046875 -1.453125 C 7.648438 -1.023438 7.15625 -0.664062 6.5625 -0.375 C 5.976562 -0.0820312 5.328125 0.0625 4.609375 0.0625 Z M 3.046875 -4.984375 C 3.328125 -5.015625 3.5625 -5.046875 3.75 -5.078125 C 3.9375 -5.117188 4.160156 -5.191406 4.421875 -5.296875 C 4.671875 -5.390625 4.882812 -5.535156 5.0625 -5.734375 C 5.25 -5.941406 5.34375 -6.1875 5.34375 -6.46875 C 5.34375 -6.570312 5.316406 -6.664062 5.265625 -6.75 C 5.222656 -6.832031 5.148438 -6.898438 5.046875 -6.953125 C 4.953125 -7.015625 4.832031 -7.046875 4.6875 -7.046875 C 4.488281 -7.046875 4.289062 -6.976562 4.09375 -6.84375 C 3.90625 -6.707031 3.738281 -6.53125 3.59375 -6.3125 C 3.445312 -6.101562 3.328125 -5.878906 3.234375 -5.640625 C 3.140625 -5.410156 3.078125 -5.191406 3.046875 -4.984375 Z M 3.046875 -4.984375 "/></g></g></g><g fill="#9dafbb" fill-opacity="1"><g transform="translate(42.617673, 58.084188)"><g><path d="M 0.5625 -3.75 C 0.5625 -4.394531 0.65625 -5.019531 0.84375 -5.625 C 1.039062 -6.238281 1.316406 -6.785156 1.671875 -7.265625 C 2.023438 -7.742188 2.460938 -8.125 2.984375 -8.40625 C 3.503906 -8.6875 4.09375 -8.828125 4.75 -8.828125 C 5.164062 -8.828125 5.53125 -8.757812 5.84375 -8.625 C 6.15625 -8.5 6.4375 -8.3125 6.6875 -8.0625 C 6.738281 -8.300781 6.828125 -8.492188 6.953125 -8.640625 C 7.085938 -8.785156 7.316406 -8.859375 7.640625 -8.859375 C 8.023438 -8.859375 8.363281 -8.765625 8.65625 -8.578125 C 8.945312 -8.390625 9.085938 -8.15625 9.078125 -7.875 C 9.066406 -7.582031 9.015625 -7.1875 8.921875 -6.6875 C 8.835938 -6.195312 8.765625 -5.710938 8.703125 -5.234375 C 8.679688 -5.085938 8.648438 -4.894531 8.609375 -4.65625 C 8.578125 -4.414062 8.546875 -4.179688 8.515625 -3.953125 C 8.492188 -3.722656 8.476562 -3.53125 8.46875 -3.375 C 8.457031 -3.21875 8.453125 -3.019531 8.453125 -2.78125 C 8.453125 -2.539062 8.484375 -2.328125 8.546875 -2.140625 C 8.609375 -1.960938 8.710938 -1.875 8.859375 -1.875 C 8.941406 -1.875 9.015625 -1.894531 9.078125 -1.9375 C 9.148438 -1.976562 9.21875 -2.035156 9.28125 -2.109375 C 9.382812 -2.179688 9.476562 -2.242188 9.5625 -2.296875 C 9.644531 -2.347656 9.75 -2.375 9.875 -2.375 C 10.019531 -2.375 10.15625 -2.320312 10.28125 -2.21875 C 10.40625 -2.113281 10.5 -1.972656 10.5625 -1.796875 C 10.632812 -1.628906 10.640625 -1.441406 10.578125 -1.234375 C 10.535156 -1.023438 10.394531 -0.8125 10.15625 -0.59375 C 9.925781 -0.382812 9.648438 -0.207031 9.328125 -0.0625 C 9.015625 0.0703125 8.707031 0.140625 8.40625 0.140625 C 8.09375 0.140625 7.804688 0.078125 7.546875 -0.046875 C 7.296875 -0.179688 7.082031 -0.363281 6.90625 -0.59375 C 6.726562 -0.820312 6.609375 -1.09375 6.546875 -1.40625 C 6.265625 -0.988281 5.894531 -0.640625 5.4375 -0.359375 C 4.988281 -0.0859375 4.484375 0.046875 3.921875 0.046875 C 3.210938 0.046875 2.609375 -0.113281 2.109375 -0.4375 C 1.609375 -0.769531 1.222656 -1.222656 0.953125 -1.796875 C 0.691406 -2.367188 0.5625 -3.019531 0.5625 -3.75 Z M 3.265625 -3.859375 C 3.265625 -3.515625 3.300781 -3.207031 3.375 -2.9375 C 3.445312 -2.664062 3.5625 -2.445312 3.71875 -2.28125 C 3.875 -2.125 4.082031 -2.046875 4.34375 -2.046875 C 4.550781 -2.046875 4.734375 -2.097656 4.890625 -2.203125 C 5.054688 -2.304688 5.203125 -2.441406 5.328125 -2.609375 C 5.453125 -2.785156 5.550781 -2.992188 5.625 -3.234375 C 5.71875 -3.472656 5.796875 -3.726562 5.859375 -4 C 5.921875 -4.269531 5.972656 -4.539062 6.015625 -4.8125 C 6.054688 -5.09375 6.09375 -5.363281 6.125 -5.625 C 6.15625 -5.894531 6.179688 -6.160156 6.203125 -6.421875 C 6.054688 -6.554688 5.882812 -6.660156 5.6875 -6.734375 C 5.5 -6.816406 5.300781 -6.859375 5.09375 -6.859375 C 4.800781 -6.859375 4.539062 -6.78125 4.3125 -6.625 C 4.09375 -6.476562 3.898438 -6.265625 3.734375 -5.984375 C 3.578125 -5.703125 3.457031 -5.378906 3.375 -5.015625 C 3.300781 -4.660156 3.265625 -4.273438 3.265625 -3.859375 Z M 3.265625 -3.859375 "/></g></g></g><g fill="#9dafbb" fill-opacity="1"><g transform="translate(53.367085, 58.084188)"><g><path d="M 1.1875 -7.78125 C 1.195312 -8.132812 1.3125 -8.394531 1.53125 -8.5625 C 1.75 -8.726562 2.125 -8.8125 2.65625 -8.8125 C 3.070312 -8.8125 3.367188 -8.738281 3.546875 -8.59375 C 3.722656 -8.457031 3.8125 -8.269531 3.8125 -8.03125 C 3.8125 -7.96875 3.8125 -7.890625 3.8125 -7.796875 C 3.8125 -7.703125 3.804688 -7.597656 3.796875 -7.484375 C 3.796875 -7.378906 3.785156 -7.253906 3.765625 -7.109375 C 4.023438 -7.640625 4.359375 -8.054688 4.765625 -8.359375 C 5.171875 -8.671875 5.625 -8.828125 6.125 -8.828125 C 6.300781 -8.828125 6.523438 -8.800781 6.796875 -8.75 C 7.066406 -8.707031 7.347656 -8.597656 7.640625 -8.421875 C 7.773438 -8.335938 7.90625 -8.203125 8.03125 -8.015625 C 8.15625 -7.835938 8.179688 -7.5625 8.109375 -7.1875 C 8.054688 -6.820312 7.9375 -6.546875 7.75 -6.359375 C 7.5625 -6.179688 7.34375 -6.09375 7.09375 -6.09375 C 6.976562 -6.09375 6.875 -6.109375 6.78125 -6.140625 C 6.695312 -6.171875 6.609375 -6.207031 6.515625 -6.25 C 6.410156 -6.3125 6.285156 -6.363281 6.140625 -6.40625 C 6.003906 -6.457031 5.835938 -6.484375 5.640625 -6.484375 C 5.128906 -6.484375 4.710938 -6.242188 4.390625 -5.765625 C 4.078125 -5.285156 3.832031 -4.6875 3.65625 -3.96875 C 3.644531 -3.601562 3.632812 -3.265625 3.625 -2.953125 C 3.625 -2.640625 3.617188 -2.347656 3.609375 -2.078125 C 3.609375 -1.816406 3.601562 -1.566406 3.59375 -1.328125 C 3.59375 -1.097656 3.59375 -0.894531 3.59375 -0.71875 C 3.59375 -0.488281 3.519531 -0.304688 3.375 -0.171875 C 3.226562 -0.0351562 3.0625 0.0546875 2.875 0.109375 C 2.6875 0.171875 2.53125 0.203125 2.40625 0.203125 C 1.96875 0.203125 1.640625 0.132812 1.421875 0 C 1.203125 -0.132812 1.054688 -0.316406 0.984375 -0.546875 C 0.921875 -0.773438 0.890625 -1.023438 0.890625 -1.296875 C 0.890625 -1.503906 0.894531 -1.769531 0.90625 -2.09375 C 0.925781 -2.414062 0.953125 -2.734375 0.984375 -3.046875 C 1.023438 -3.367188 1.0625 -3.640625 1.09375 -3.859375 Z M 1.1875 -7.78125 "/></g></g></g><g fill="#9dafbb" fill-opacity="1"><g transform="translate(72.836513, 19.489498)"><g><path d="M 0.859375 -7.925781 L 0.859375 -6.773438 L 3.417969 -6.773438 C 3.234375 -4.78125 2.375 -3.320312 0.339844 -2.132812 L 1.1875 -1.121094 C 4.011719 -2.769531 4.847656 -5.089844 4.847656 -7.925781 Z M 7.761719 -9.179688 L 7.761719 -5.367188 L 6.859375 -5.367188 L 6.859375 -8.917969 L 5.507812 -8.917969 L 5.507812 0.515625 L 6.859375 0.515625 L 6.859375 -4.199219 L 7.761719 -4.199219 L 7.761719 0.945312 L 9.148438 0.945312 L 9.148438 -9.179688 Z M 7.761719 -9.179688 "/></g></g></g></svg>