<svg xmlns="http://www.w3.org/2000/svg" xmlns:xlink="http://www.w3.org/1999/xlink" width="200" zoomAndPan="magnify" viewBox="0 0 150 149.999998" height="200" preserveAspectRatio="xMidYMid meet" version="1.0"><defs><g/><clipPath id="19237efa7b"><path d="M 85.128906 91.023438 L 139.800781 91.023438 L 139.800781 142.492188 L 85.128906 142.492188 Z M 85.128906 91.023438 " clip-rule="nonzero"/></clipPath><clipPath id="3d0cd842c8"><path d="M 92.078125 91.222656 L 132.933594 91.222656 C 134.726562 91.222656 136.441406 91.933594 137.707031 93.199219 C 138.972656 94.464844 139.683594 96.183594 139.683594 97.972656 L 139.683594 135.742188 C 139.683594 137.53125 138.972656 139.246094 137.707031 140.511719 C 136.441406 141.777344 134.726562 142.492188 132.933594 142.492188 L 92.078125 142.492188 C 90.289062 142.492188 88.574219 141.777344 87.308594 140.511719 C 86.039062 139.246094 85.328125 137.53125 85.328125 135.742188 L 85.328125 97.972656 C 85.328125 96.183594 86.039062 94.464844 87.308594 93.199219 C 88.574219 91.933594 90.289062 91.222656 92.078125 91.222656 Z M 92.078125 91.222656 " clip-rule="nonzero"/></clipPath><clipPath id="f91ad9b67e"><path d="M 0.199219 0.199219 L 54.800781 0.199219 L 54.800781 51.492188 L 0.199219 51.492188 Z M 0.199219 0.199219 " clip-rule="nonzero"/></clipPath><clipPath id="745d1743d3"><path d="M 7.078125 0.222656 L 47.933594 0.222656 C 49.726562 0.222656 51.441406 0.933594 52.707031 2.199219 C 53.972656 3.464844 54.683594 5.183594 54.683594 6.972656 L 54.683594 44.742188 C 54.683594 46.53125 53.972656 48.246094 52.707031 49.511719 C 51.441406 50.777344 49.726562 51.492188 47.933594 51.492188 L 7.078125 51.492188 C 5.289062 51.492188 3.574219 50.777344 2.308594 49.511719 C 1.039062 48.246094 0.328125 46.53125 0.328125 44.742188 L 0.328125 6.972656 C 0.328125 5.183594 1.039062 3.464844 2.308594 2.199219 C 3.574219 0.933594 5.289062 0.222656 7.078125 0.222656 Z M 7.078125 0.222656 " clip-rule="nonzero"/></clipPath><clipPath id="f3e4c3b2ae"><rect x="0" width="55" y="0" height="52"/></clipPath><clipPath id="e538b18c73"><path d="M 15 91.023438 L 69.472656 91.023438 L 69.472656 142.492188 L 15 142.492188 Z M 15 91.023438 " clip-rule="nonzero"/></clipPath><clipPath id="31e649f343"><path d="M 21.75 91.222656 L 62.605469 91.222656 C 64.394531 91.222656 66.113281 91.933594 67.378906 93.199219 C 68.644531 94.464844 69.355469 96.183594 69.355469 97.972656 L 69.355469 135.742188 C 69.355469 137.53125 68.644531 139.246094 67.378906 140.511719 C 66.113281 141.777344 64.394531 142.492188 62.605469 142.492188 L 21.75 142.492188 C 19.960938 142.492188 18.242188 141.777344 16.976562 140.511719 C 15.710938 139.246094 15 137.53125 15 135.742188 L 15 97.972656 C 15 96.183594 15.710938 94.464844 16.976562 93.199219 C 18.242188 91.933594 19.960938 91.222656 21.75 91.222656 Z M 21.75 91.222656 " clip-rule="nonzero"/></clipPath><clipPath id="df02bfa566"><path d="M 0 0.199219 L 54.359375 0.199219 L 54.359375 51.492188 L 0 51.492188 Z M 0 0.199219 " clip-rule="nonzero"/></clipPath><clipPath id="0b74ba26b0"><path d="M 6.75 0.222656 L 47.605469 0.222656 C 49.394531 0.222656 51.113281 0.933594 52.378906 2.199219 C 53.644531 3.464844 54.355469 5.183594 54.355469 6.972656 L 54.355469 44.742188 C 54.355469 46.53125 53.644531 48.246094 52.378906 49.511719 C 51.113281 50.777344 49.394531 51.492188 47.605469 51.492188 L 6.75 51.492188 C 4.960938 51.492188 3.242188 50.777344 1.976562 49.511719 C 0.710938 48.246094 0 46.53125 0 44.742188 L 0 6.972656 C 0 5.183594 0.710938 3.464844 1.976562 2.199219 C 3.242188 0.933594 4.960938 0.222656 6.75 0.222656 Z M 6.75 0.222656 " clip-rule="nonzero"/></clipPath><clipPath id="c8e3a4dbc7"><rect x="0" width="55" y="0" height="52"/></clipPath><clipPath id="c364ae9136"><path d="M 85.128906 28 L 139.800781 28 L 139.800781 79.351562 L 85.128906 79.351562 Z M 85.128906 28 " clip-rule="nonzero"/></clipPath><clipPath id="8a9e14f078"><path d="M 92.078125 28.085938 L 132.933594 28.085938 C 134.726562 28.085938 136.441406 28.796875 137.707031 30.0625 C 138.972656 31.328125 139.683594 33.042969 139.683594 34.835938 L 139.683594 72.601562 C 139.683594 74.394531 138.972656 76.109375 137.707031 77.375 C 136.441406 78.640625 134.726562 79.351562 132.933594 79.351562 L 92.078125 79.351562 C 90.289062 79.351562 88.574219 78.640625 87.308594 77.375 C 86.039062 76.109375 85.328125 74.394531 85.328125 72.601562 L 85.328125 34.835938 C 85.328125 33.042969 86.039062 31.328125 87.308594 30.0625 C 88.574219 28.796875 90.289062 28.085938 92.078125 28.085938 Z M 92.078125 28.085938 " clip-rule="nonzero"/></clipPath><clipPath id="4b1ff762b1"><path d="M 0.199219 0.078125 L 54.800781 0.078125 L 54.800781 51.351562 L 0.199219 51.351562 Z M 0.199219 0.078125 " clip-rule="nonzero"/></clipPath><clipPath id="75fc5ea74a"><path d="M 7.078125 0.0859375 L 47.933594 0.0859375 C 49.726562 0.0859375 51.441406 0.796875 52.707031 2.0625 C 53.972656 3.328125 54.683594 5.042969 54.683594 6.835938 L 54.683594 44.601562 C 54.683594 46.394531 53.972656 48.109375 52.707031 49.375 C 51.441406 50.640625 49.726562 51.351562 47.933594 51.351562 L 7.078125 51.351562 C 5.289062 51.351562 3.574219 50.640625 2.308594 49.375 C 1.039062 48.109375 0.328125 46.394531 0.328125 44.601562 L 0.328125 6.835938 C 0.328125 5.042969 1.039062 3.328125 2.308594 2.0625 C 3.574219 0.796875 5.289062 0.0859375 7.078125 0.0859375 Z M 7.078125 0.0859375 " clip-rule="nonzero"/></clipPath><clipPath id="8f8f2c17a2"><rect x="0" width="55" y="0" height="52"/></clipPath><clipPath id="46b5fef788"><path d="M 15 28 L 69.472656 28 L 69.472656 79.351562 L 15 79.351562 Z M 15 28 " clip-rule="nonzero"/></clipPath><clipPath id="29b9129729"><path d="M 21.75 28.085938 L 62.605469 28.085938 C 64.394531 28.085938 66.113281 28.796875 67.378906 30.0625 C 68.644531 31.328125 69.355469 33.042969 69.355469 34.835938 L 69.355469 72.601562 C 69.355469 74.394531 68.644531 76.109375 67.378906 77.375 C 66.113281 78.640625 64.394531 79.351562 62.605469 79.351562 L 21.75 79.351562 C 19.960938 79.351562 18.242188 78.640625 16.976562 77.375 C 15.710938 76.109375 15 74.394531 15 72.601562 L 15 34.835938 C 15 33.042969 15.710938 31.328125 16.976562 30.0625 C 18.242188 28.796875 19.960938 28.085938 21.75 28.085938 Z M 21.75 28.085938 " clip-rule="nonzero"/></clipPath><clipPath id="a61551df19"><path d="M 0 0.078125 L 54.359375 0.078125 L 54.359375 51.351562 L 0 51.351562 Z M 0 0.078125 " clip-rule="nonzero"/></clipPath><clipPath id="9936e15e61"><path d="M 6.75 0.0859375 L 47.605469 0.0859375 C 49.394531 0.0859375 51.113281 0.796875 52.378906 2.0625 C 53.644531 3.328125 54.355469 5.042969 54.355469 6.835938 L 54.355469 44.601562 C 54.355469 46.394531 53.644531 48.109375 52.378906 49.375 C 51.113281 50.640625 49.394531 51.351562 47.605469 51.351562 L 6.75 51.351562 C 4.960938 51.351562 3.242188 50.640625 1.976562 49.375 C 0.710938 48.109375 0 46.394531 0 44.601562 L 0 6.835938 C 0 5.042969 0.710938 3.328125 1.976562 2.0625 C 3.242188 0.796875 4.960938 0.0859375 6.75 0.0859375 Z M 6.75 0.0859375 " clip-rule="nonzero"/></clipPath><clipPath id="29a2c8f193"><rect x="0" width="55" y="0" height="52"/></clipPath></defs><g clip-path="url(#19237efa7b)"><g clip-path="url(#3d0cd842c8)"><g transform="matrix(1, 0, 0, 1, 85, 91)"><g clip-path="url(#f3e4c3b2ae)"><g clip-path="url(#f91ad9b67e)"><g clip-path="url(#745d1743d3)"><path fill="#72d1e5" d="M 0.328125 0.222656 L 54.601562 0.222656 L 54.601562 51.492188 L 0.328125 51.492188 Z M 0.328125 0.222656 " fill-opacity="1" fill-rule="nonzero"/></g></g></g></g></g></g><g clip-path="url(#e538b18c73)"><g clip-path="url(#31e649f343)"><g transform="matrix(1, 0, 0, 1, 15, 91)"><g clip-path="url(#c8e3a4dbc7)"><g clip-path="url(#df02bfa566)"><g clip-path="url(#0b74ba26b0)"><path fill="#ffbd59" d="M 0 0.222656 L 54.273438 0.222656 L 54.273438 51.492188 L 0 51.492188 Z M 0 0.222656 " fill-opacity="1" fill-rule="nonzero"/></g></g></g></g></g></g><g clip-path="url(#c364ae9136)"><g clip-path="url(#8a9e14f078)"><g transform="matrix(1, 0, 0, 1, 85, 28)"><g clip-path="url(#8f8f2c17a2)"><g clip-path="url(#4b1ff762b1)"><g clip-path="url(#75fc5ea74a)"><path fill="#78d0b1" d="M 0.328125 0.0859375 L 54.601562 0.0859375 L 54.601562 51.351562 L 0.328125 51.351562 Z M 0.328125 0.0859375 " fill-opacity="1" fill-rule="nonzero"/></g></g></g></g></g></g><g clip-path="url(#46b5fef788)"><g clip-path="url(#29b9129729)"><g transform="matrix(1, 0, 0, 1, 15, 28)"><g clip-path="url(#29a2c8f193)"><g clip-path="url(#a61551df19)"><g clip-path="url(#9936e15e61)"><path fill="#ff66c4" d="M 0 0.0859375 L 54.273438 0.0859375 L 54.273438 51.351562 L 0 51.351562 Z M 0 0.0859375 " fill-opacity="1" fill-rule="nonzero"/></g></g></g></g></g></g><g fill="#70add4" fill-opacity="1"><g transform="translate(66.478148, 14.798204)"><g><path d="M 4.609375 -8.53125 C 4.617188 -8.769531 4.695312 -8.9375 4.84375 -9.03125 C 5 -9.125 5.195312 -9.171875 5.4375 -9.171875 C 5.769531 -9.171875 6.019531 -9.117188 6.1875 -9.015625 C 6.363281 -8.921875 6.441406 -8.738281 6.421875 -8.46875 C 6.335938 -7.195312 6.265625 -5.875 6.203125 -4.5 C 6.140625 -3.132812 6.082031 -1.796875 6.03125 -0.484375 C 6.019531 -0.253906 5.914062 -0.09375 5.71875 0 C 5.53125 0.09375 5.316406 0.140625 5.078125 0.140625 C 4.816406 0.140625 4.617188 0.0859375 4.484375 -0.015625 C 4.347656 -0.117188 4.28125 -0.238281 4.28125 -0.375 C 4.28125 -0.445312 4.28125 -0.515625 4.28125 -0.578125 C 4.289062 -0.648438 4.300781 -0.722656 4.3125 -0.796875 C 4.320312 -0.878906 4.328125 -0.96875 4.328125 -1.0625 C 4.191406 -0.789062 4.023438 -0.566406 3.828125 -0.390625 C 3.640625 -0.210938 3.429688 -0.0820312 3.203125 0 C 2.972656 0.0820312 2.734375 0.125 2.484375 0.125 C 2.097656 0.125 1.769531 0.0390625 1.5 -0.125 C 1.226562 -0.289062 1.007812 -0.507812 0.84375 -0.78125 C 0.6875 -1.050781 0.566406 -1.34375 0.484375 -1.65625 C 0.410156 -1.976562 0.375 -2.285156 0.375 -2.578125 C 0.375 -3.003906 0.441406 -3.425781 0.578125 -3.84375 C 0.710938 -4.269531 0.898438 -4.648438 1.140625 -4.984375 C 1.390625 -5.316406 1.6875 -5.582031 2.03125 -5.78125 C 2.375 -5.976562 2.757812 -6.078125 3.1875 -6.078125 C 3.394531 -6.078125 3.597656 -6.050781 3.796875 -6 C 4.003906 -5.945312 4.210938 -5.859375 4.421875 -5.734375 C 4.441406 -6.078125 4.460938 -6.410156 4.484375 -6.734375 C 4.503906 -7.054688 4.523438 -7.367188 4.546875 -7.671875 C 4.566406 -7.972656 4.585938 -8.257812 4.609375 -8.53125 Z M 2.25 -2.640625 C 2.25 -2.429688 2.269531 -2.226562 2.3125 -2.03125 C 2.363281 -1.832031 2.4375 -1.671875 2.53125 -1.546875 C 2.632812 -1.429688 2.769531 -1.375 2.9375 -1.375 C 3.09375 -1.375 3.242188 -1.429688 3.390625 -1.546875 C 3.535156 -1.671875 3.660156 -1.828125 3.765625 -2.015625 C 3.867188 -2.203125 3.957031 -2.398438 4.03125 -2.609375 C 4.101562 -2.828125 4.144531 -3.03125 4.15625 -3.21875 C 4.164062 -3.25 4.175781 -3.28125 4.1875 -3.3125 C 4.207031 -3.34375 4.234375 -3.375 4.265625 -3.40625 L 4.328125 -4.375 C 4.179688 -4.488281 4.046875 -4.566406 3.921875 -4.609375 C 3.796875 -4.648438 3.660156 -4.671875 3.515625 -4.671875 C 3.316406 -4.671875 3.117188 -4.59375 2.921875 -4.4375 C 2.722656 -4.289062 2.5625 -4.066406 2.4375 -3.765625 C 2.3125 -3.472656 2.25 -3.097656 2.25 -2.640625 Z M 2.25 -2.640625 "/></g></g></g><g fill="#70add4" fill-opacity="1"><g transform="translate(73.249353, 14.798204)"><g><path d="M 3.40625 -6.078125 C 3.570312 -6.078125 3.769531 -6.054688 4 -6.015625 C 4.238281 -5.984375 4.460938 -5.9375 4.671875 -5.875 C 4.890625 -5.8125 5.050781 -5.726562 5.15625 -5.625 C 5.507812 -5.351562 5.765625 -5 5.921875 -4.5625 C 6.085938 -4.125 6.171875 -3.65625 6.171875 -3.15625 C 6.171875 -2.75 6.113281 -2.351562 6 -1.96875 C 5.894531 -1.582031 5.726562 -1.234375 5.5 -0.921875 C 5.269531 -0.617188 4.984375 -0.375 4.640625 -0.1875 C 4.296875 -0.0078125 3.890625 0.078125 3.421875 0.078125 C 2.890625 0.078125 2.425781 0 2.03125 -0.15625 C 1.644531 -0.320312 1.320312 -0.546875 1.0625 -0.828125 C 0.8125 -1.117188 0.625 -1.445312 0.5 -1.8125 C 0.382812 -2.175781 0.328125 -2.566406 0.328125 -2.984375 C 0.328125 -3.378906 0.382812 -3.757812 0.5 -4.125 C 0.625 -4.5 0.8125 -4.832031 1.0625 -5.125 C 1.320312 -5.414062 1.644531 -5.644531 2.03125 -5.8125 C 2.414062 -5.988281 2.875 -6.078125 3.40625 -6.078125 Z M 2.171875 -3.03125 C 2.171875 -2.757812 2.207031 -2.492188 2.28125 -2.234375 C 2.363281 -1.972656 2.492188 -1.757812 2.671875 -1.59375 C 2.847656 -1.425781 3.070312 -1.34375 3.34375 -1.34375 C 3.53125 -1.34375 3.6875 -1.394531 3.8125 -1.5 C 3.9375 -1.601562 4.035156 -1.738281 4.109375 -1.90625 C 4.191406 -2.082031 4.25 -2.269531 4.28125 -2.46875 C 4.3125 -2.675781 4.328125 -2.875 4.328125 -3.0625 C 4.328125 -3.488281 4.273438 -3.820312 4.171875 -4.0625 C 4.066406 -4.300781 3.925781 -4.484375 3.75 -4.609375 C 3.664062 -4.628906 3.59375 -4.644531 3.53125 -4.65625 C 3.46875 -4.664062 3.398438 -4.671875 3.328125 -4.671875 C 3.117188 -4.671875 2.9375 -4.625 2.78125 -4.53125 C 2.625 -4.4375 2.5 -4.3125 2.40625 -4.15625 C 2.320312 -4 2.257812 -3.828125 2.21875 -3.640625 C 2.1875 -3.453125 2.171875 -3.25 2.171875 -3.03125 Z M 2.171875 -3.03125 "/></g></g></g><g fill="#70add4" fill-opacity="1"><g transform="translate(79.80074, 14.798204)"><g><path d="M 0.359375 -2.65625 C 0.359375 -3.113281 0.429688 -3.546875 0.578125 -3.953125 C 0.734375 -4.367188 0.945312 -4.734375 1.21875 -5.046875 C 1.488281 -5.367188 1.804688 -5.625 2.171875 -5.8125 C 2.535156 -6 2.929688 -6.09375 3.359375 -6.09375 C 3.578125 -6.09375 3.785156 -6.066406 3.984375 -6.015625 C 4.179688 -5.960938 4.359375 -5.890625 4.515625 -5.796875 C 4.566406 -5.910156 4.640625 -5.984375 4.734375 -6.015625 C 4.835938 -6.054688 4.984375 -6.078125 5.171875 -6.078125 C 5.515625 -6.078125 5.75 -6.046875 5.875 -5.984375 C 6.007812 -5.921875 6.070312 -5.816406 6.0625 -5.671875 L 6.046875 -5.296875 C 6.109375 -5.234375 6.148438 -5.160156 6.171875 -5.078125 C 6.203125 -5.003906 6.21875 -4.890625 6.21875 -4.734375 C 6.21875 -4.460938 6.15625 -4.253906 6.03125 -4.109375 L 6.03125 -3.875 C 6.03125 -3.695312 6.035156 -3.515625 6.046875 -3.328125 C 6.054688 -3.140625 6.0625 -2.894531 6.0625 -2.59375 C 6.0625 -2.195312 6.050781 -1.769531 6.03125 -1.3125 C 6.007812 -0.863281 5.976562 -0.441406 5.9375 -0.046875 C 5.882812 0.597656 5.734375 1.15625 5.484375 1.625 C 5.242188 2.09375 4.929688 2.445312 4.546875 2.6875 C 4.160156 2.9375 3.722656 3.0625 3.234375 3.0625 C 3.023438 3.0625 2.789062 3.023438 2.53125 2.953125 C 2.269531 2.890625 2 2.789062 1.71875 2.65625 C 1.445312 2.53125 1.191406 2.367188 0.953125 2.171875 C 0.847656 2.078125 0.769531 1.988281 0.71875 1.90625 C 0.675781 1.832031 0.65625 1.742188 0.65625 1.640625 C 0.65625 1.535156 0.691406 1.414062 0.765625 1.28125 C 0.847656 1.15625 0.941406 1.046875 1.046875 0.953125 C 1.148438 0.859375 1.253906 0.8125 1.359375 0.8125 C 1.429688 0.8125 1.507812 0.828125 1.59375 0.859375 C 1.675781 0.898438 1.753906 0.945312 1.828125 1 C 1.960938 1.09375 2.097656 1.179688 2.234375 1.265625 C 2.378906 1.347656 2.523438 1.414062 2.671875 1.46875 C 2.816406 1.53125 2.960938 1.5625 3.109375 1.5625 C 3.296875 1.5625 3.453125 1.515625 3.578125 1.421875 C 3.703125 1.328125 3.804688 1.1875 3.890625 1 C 3.984375 0.820312 4.054688 0.617188 4.109375 0.390625 C 4.160156 0.171875 4.195312 -0.00390625 4.21875 -0.140625 C 4.25 -0.285156 4.273438 -0.410156 4.296875 -0.515625 C 4.316406 -0.628906 4.335938 -0.753906 4.359375 -0.890625 C 4.160156 -0.578125 3.921875 -0.34375 3.640625 -0.1875 C 3.367188 -0.03125 3.050781 0.046875 2.6875 0.046875 C 2.226562 0.046875 1.820312 -0.0703125 1.46875 -0.3125 C 1.125 -0.5625 0.851562 -0.890625 0.65625 -1.296875 C 0.457031 -1.710938 0.359375 -2.164062 0.359375 -2.65625 Z M 3.109375 -1.359375 C 3.304688 -1.359375 3.46875 -1.425781 3.59375 -1.5625 C 3.726562 -1.695312 3.832031 -1.878906 3.90625 -2.109375 C 3.988281 -2.335938 4.054688 -2.609375 4.109375 -2.921875 C 4.117188 -3.015625 4.128906 -3.132812 4.140625 -3.28125 C 4.148438 -3.4375 4.160156 -3.59375 4.171875 -3.75 C 4.179688 -3.914062 4.1875 -4.0625 4.1875 -4.1875 C 4.1875 -4.320312 4.1875 -4.40625 4.1875 -4.4375 C 4.09375 -4.53125 3.984375 -4.597656 3.859375 -4.640625 C 3.742188 -4.679688 3.640625 -4.703125 3.546875 -4.703125 C 3.359375 -4.703125 3.179688 -4.648438 3.015625 -4.546875 C 2.859375 -4.441406 2.722656 -4.296875 2.609375 -4.109375 C 2.492188 -3.921875 2.398438 -3.703125 2.328125 -3.453125 C 2.265625 -3.210938 2.234375 -2.953125 2.234375 -2.671875 C 2.234375 -2.398438 2.269531 -2.164062 2.34375 -1.96875 C 2.425781 -1.769531 2.53125 -1.617188 2.65625 -1.515625 C 2.789062 -1.410156 2.941406 -1.359375 3.109375 -1.359375 Z M 3.109375 -1.359375 "/></g></g></g></svg>