<svg xmlns="http://www.w3.org/2000/svg" xmlns:xlink="http://www.w3.org/1999/xlink" width="200" zoomAndPan="magnify" viewBox="0 0 150 149.999998" height="200" preserveAspectRatio="xMidYMid meet" version="1.0"><defs><clipPath id="726091f8d4"><path d="M 86 80.25 L 140.578125 80.25 L 140.578125 131.71875 L 86 131.71875 Z M 86 80.25 " clip-rule="nonzero"/></clipPath><clipPath id="4475bad0c3"><path d="M 92.855469 80.449219 L 133.710938 80.449219 C 135.5 80.449219 137.214844 81.160156 138.484375 82.425781 C 139.75 83.691406 140.460938 85.410156 140.460938 87.199219 L 140.460938 124.96875 C 140.460938 126.757812 139.75 128.472656 138.484375 129.738281 C 137.214844 131.007812 135.5 131.71875 133.710938 131.71875 L 92.855469 131.71875 C 91.0625 131.71875 89.347656 131.007812 88.082031 129.738281 C 86.816406 128.472656 86.105469 126.757812 86.105469 124.96875 L 86.105469 87.199219 C 86.105469 85.410156 86.816406 83.691406 88.082031 82.425781 C 89.347656 81.160156 91.0625 80.449219 92.855469 80.449219 Z M 92.855469 80.449219 " clip-rule="nonzero"/></clipPath><clipPath id="8bf646aee5"><path d="M 0 0.398438 L 54.578125 0.398438 L 54.578125 51.71875 L 0 51.71875 Z M 0 0.398438 " clip-rule="nonzero"/></clipPath><clipPath id="dc1fe14992"><path d="M 6.855469 0.449219 L 47.710938 0.449219 C 49.5 0.449219 51.214844 1.160156 52.484375 2.425781 C 53.75 3.691406 54.460938 5.410156 54.460938 7.199219 L 54.460938 44.96875 C 54.460938 46.757812 53.75 48.472656 52.484375 49.738281 C 51.214844 51.007812 49.5 51.71875 47.710938 51.71875 L 6.855469 51.71875 C 5.0625 51.71875 3.347656 51.007812 2.082031 49.738281 C 0.816406 48.472656 0.105469 46.757812 0.105469 44.96875 L 0.105469 7.199219 C 0.105469 5.410156 0.816406 3.691406 2.082031 2.425781 C 3.347656 1.160156 5.0625 0.449219 6.855469 0.449219 Z M 6.855469 0.449219 " clip-rule="nonzero"/></clipPath><clipPath id="430583d795"><rect x="0" width="55" y="0" height="52"/></clipPath><clipPath id="5a3b3187df"><path d="M 25 43 L 61 43 L 61 68.589844 L 25 68.589844 Z M 25 43 " clip-rule="nonzero"/></clipPath><clipPath id="ae67585f81"><path d="M 20 16.089844 L 66 16.089844 L 66 33 L 20 33 Z M 20 16.089844 " clip-rule="nonzero"/></clipPath><clipPath id="f9506be95f"><path d="M 9.304688 42 L 17 42 L 17 66 L 9.304688 66 Z M 9.304688 42 " clip-rule="nonzero"/></clipPath><clipPath id="f1af06b66d"><path d="M 69 42 L 76.804688 42 L 76.804688 66 L 69 66 Z M 69 42 " clip-rule="nonzero"/></clipPath><clipPath id="e848fa473e"><path d="M 15.574219 80.25 L 70.246094 80.25 L 70.246094 131.71875 L 15.574219 131.71875 Z M 15.574219 80.25 " clip-rule="nonzero"/></clipPath><clipPath id="6dba3ac1f7"><path d="M 22.523438 80.449219 L 63.378906 80.449219 C 65.167969 80.449219 66.886719 81.160156 68.152344 82.425781 C 69.417969 83.691406 70.128906 85.410156 70.128906 87.199219 L 70.128906 124.96875 C 70.128906 126.757812 69.417969 128.472656 68.152344 129.738281 C 66.886719 131.007812 65.167969 131.71875 63.378906 131.71875 L 22.523438 131.71875 C 20.734375 131.71875 19.015625 131.007812 17.75 129.738281 C 16.484375 128.472656 15.773438 126.757812 15.773438 124.96875 L 15.773438 87.199219 C 15.773438 85.410156 16.484375 83.691406 17.75 82.425781 C 19.015625 81.160156 20.734375 80.449219 22.523438 80.449219 Z M 22.523438 80.449219 " clip-rule="nonzero"/></clipPath><clipPath id="88fe9db644"><path d="M 0.601562 0.398438 L 55.246094 0.398438 L 55.246094 51.71875 L 0.601562 51.71875 Z M 0.601562 0.398438 " clip-rule="nonzero"/></clipPath><clipPath id="74f14e8dee"><path d="M 7.523438 0.449219 L 48.378906 0.449219 C 50.167969 0.449219 51.886719 1.160156 53.152344 2.425781 C 54.417969 3.691406 55.128906 5.410156 55.128906 7.199219 L 55.128906 44.96875 C 55.128906 46.757812 54.417969 48.472656 53.152344 49.738281 C 51.886719 51.007812 50.167969 51.71875 48.378906 51.71875 L 7.523438 51.71875 C 5.734375 51.71875 4.015625 51.007812 2.75 49.738281 C 1.484375 48.472656 0.773438 46.757812 0.773438 44.96875 L 0.773438 7.199219 C 0.773438 5.410156 1.484375 3.691406 2.75 2.425781 C 4.015625 1.160156 5.734375 0.449219 7.523438 0.449219 Z M 7.523438 0.449219 " clip-rule="nonzero"/></clipPath><clipPath id="a487019884"><rect x="0" width="56" y="0" height="52"/></clipPath><clipPath id="68eefbd402"><path d="M 86 17.109375 L 140.578125 17.109375 L 140.578125 68.578125 L 86 68.578125 Z M 86 17.109375 " clip-rule="nonzero"/></clipPath><clipPath id="fe8e871715"><path d="M 92.855469 17.3125 L 133.710938 17.3125 C 135.5 17.3125 137.214844 18.023438 138.484375 19.289062 C 139.75 20.554688 140.460938 22.269531 140.460938 24.0625 L 140.460938 61.828125 C 140.460938 63.621094 139.75 65.335938 138.484375 66.601562 C 137.214844 67.867188 135.5 68.578125 133.710938 68.578125 L 92.855469 68.578125 C 91.0625 68.578125 89.347656 67.867188 88.082031 66.601562 C 86.816406 65.335938 86.105469 63.621094 86.105469 61.828125 L 86.105469 24.0625 C 86.105469 22.269531 86.816406 20.554688 88.082031 19.289062 C 89.347656 18.023438 91.0625 17.3125 92.855469 17.3125 Z M 92.855469 17.3125 " clip-rule="nonzero"/></clipPath><clipPath id="064eeaddbe"><path d="M 0 0.28125 L 54.578125 0.28125 L 54.578125 51.578125 L 0 51.578125 Z M 0 0.28125 " clip-rule="nonzero"/></clipPath><clipPath id="d1c2005e9c"><path d="M 6.855469 0.3125 L 47.710938 0.3125 C 49.5 0.3125 51.214844 1.023438 52.484375 2.289062 C 53.75 3.554688 54.460938 5.269531 54.460938 7.0625 L 54.460938 44.828125 C 54.460938 46.621094 53.75 48.335938 52.484375 49.601562 C 51.214844 50.867188 49.5 51.578125 47.710938 51.578125 L 6.855469 51.578125 C 5.0625 51.578125 3.347656 50.867188 2.082031 49.601562 C 0.816406 48.335938 0.105469 46.621094 0.105469 44.828125 L 0.105469 7.0625 C 0.105469 5.269531 0.816406 3.554688 2.082031 2.289062 C 3.347656 1.023438 5.0625 0.3125 6.855469 0.3125 Z M 6.855469 0.3125 " clip-rule="nonzero"/></clipPath><clipPath id="e0f521960f"><rect x="0" width="55" y="0" height="52"/></clipPath></defs><g clip-path="url(#726091f8d4)"><g clip-path="url(#4475bad0c3)"><g transform="matrix(1, 0, 0, 1, 86, 80)"><g clip-path="url(#430583d795)"><g clip-path="url(#8bf646aee5)"><g clip-path="url(#dc1fe14992)"><path fill="#72d1e5" d="M 0.105469 0.449219 L 54.375 0.449219 L 54.375 51.71875 L 0.105469 51.71875 Z M 0.105469 0.449219 " fill-opacity="1" fill-rule="nonzero"/></g></g></g></g></g></g><path fill="#ff66c4" d="M 16.507812 41.085938 C 16.640625 40.382812 16.792969 39.6875 16.96875 39.003906 C 17.523438 36.847656 18.292969 34.792969 19.253906 32.867188 C 19.691406 33.335938 20.230469 33.699219 20.839844 33.910156 C 19.984375 35.664062 19.292969 37.523438 18.792969 39.46875 C 18.65625 40 18.535156 40.539062 18.429688 41.085938 Z M 16.507812 41.085938 " fill-opacity="1" fill-rule="evenodd"/><path fill="#ff66c4" d="M 67.472656 41.085938 C 67.363281 40.539062 67.242188 40 67.105469 39.46875 C 66.605469 37.523438 65.914062 35.664062 65.058594 33.910156 C 65.667969 33.699219 66.207031 33.335938 66.648438 32.867188 C 67.605469 34.792969 68.375 36.847656 68.929688 39.003906 C 69.105469 39.6875 69.257812 40.382812 69.390625 41.085938 Z M 67.472656 41.085938 " fill-opacity="1" fill-rule="evenodd"/><g clip-path="url(#5a3b3187df)"><path fill="#ff66c4" d="M 60.65625 55.0625 L 55.59375 55.0625 C 55.253906 55.0625 54.945312 54.882812 54.777344 54.589844 L 51.976562 49.769531 L 47.117188 67.519531 C 46.933594 68.488281 45.550781 68.5625 45.277344 67.601562 L 39.675781 47.988281 L 36.6875 63.21875 C 36.523438 64.042969 35.429688 64.269531 34.964844 63.546875 L 29.519531 55.0625 L 25.242188 55.0625 L 25.242188 53.171875 L 30.035156 53.171875 C 30.390625 53.171875 30.703125 53.371094 30.863281 53.660156 L 35.285156 60.550781 L 38.578125 43.769531 C 38.769531 42.792969 40.148438 42.75 40.414062 43.699219 L 46.167969 63.839844 L 50.75 47.101562 C 50.972656 46.289062 52.0625 46.164062 52.476562 46.878906 L 56.132812 53.171875 L 60.65625 53.171875 Z M 60.65625 55.0625 " fill-opacity="1" fill-rule="evenodd"/></g><g clip-path="url(#ae67585f81)"><path fill="#ff66c4" d="M 23.515625 31.421875 C 23.21875 31.785156 22.804688 32.042969 22.339844 32.117188 C 21.175781 32.304688 20.25 31.351562 20.101562 30.257812 C 20.023438 29.675781 20.152344 29.082031 20.480469 28.59375 C 21.773438 26.683594 23.277344 24.914062 24.96875 23.347656 C 26.621094 21.816406 28.449219 20.480469 30.417969 19.386719 C 34.273438 17.246094 38.535156 16.105469 42.949219 16.105469 C 47.363281 16.105469 51.625 17.246094 55.484375 19.386719 C 57.449219 20.480469 59.277344 21.816406 60.929688 23.347656 C 62.625 24.914062 64.125 26.683594 65.417969 28.59375 C 65.746094 29.082031 65.875 29.675781 65.796875 30.257812 C 65.648438 31.351562 64.722656 32.304688 63.558594 32.117188 C 63.09375 32.042969 62.683594 31.785156 62.386719 31.421875 C 61.046875 29.785156 59.984375 28.21875 58.410156 26.761719 C 56.992188 25.449219 55.421875 24.296875 53.726562 23.359375 C 52.078125 22.441406 50.320312 21.734375 48.496094 21.257812 C 46.683594 20.78125 44.820312 20.542969 42.949219 20.542969 C 41.078125 20.542969 39.214844 20.78125 37.402344 21.257812 C 35.578125 21.734375 33.820312 22.441406 32.171875 23.359375 C 30.480469 24.296875 28.910156 25.449219 27.488281 26.761719 C 25.914062 28.21875 24.851562 29.78125 23.515625 31.421875 Z M 23.515625 31.421875 " fill-opacity="1" fill-rule="evenodd"/></g><g clip-path="url(#f9506be95f)"><path fill="#ff66c4" d="M 15.964844 65.261719 L 15.964844 46.972656 C 15.964844 45.621094 16.050781 44.285156 16.214844 42.976562 L 15.382812 42.976562 C 13.726562 42.976562 12.21875 43.726562 11.121094 44.933594 C 10 46.167969 9.304688 47.875 9.304688 49.757812 L 9.304688 58.480469 C 9.304688 60.363281 10 62.070312 11.121094 63.300781 C 12.21875 64.507812 13.726562 65.261719 15.382812 65.261719 Z M 15.964844 65.261719 " fill-opacity="1" fill-rule="evenodd"/></g><path fill="#ff66c4" d="M 18.117188 42.976562 C 17.945312 44.277344 17.855469 45.613281 17.855469 46.972656 L 17.855469 65.261719 L 20.847656 65.261719 C 21.234375 65.261719 21.457031 64.839844 21.457031 64.496094 L 21.457031 43.742188 C 21.457031 43.394531 21.234375 42.976562 20.847656 42.976562 Z M 18.117188 42.976562 " fill-opacity="1" fill-rule="evenodd"/><g clip-path="url(#f1af06b66d)"><path fill="#ff66c4" d="M 69.683594 42.976562 C 69.851562 44.285156 69.933594 45.621094 69.933594 46.972656 L 69.933594 65.261719 L 70.515625 65.261719 C 72.171875 65.261719 73.679688 64.507812 74.777344 63.300781 C 75.898438 62.070312 76.59375 60.363281 76.59375 58.480469 L 76.59375 49.757812 C 76.59375 47.875 75.898438 46.167969 74.777344 44.933594 C 73.679688 43.726562 72.171875 42.976562 70.515625 42.976562 Z M 69.683594 42.976562 " fill-opacity="1" fill-rule="evenodd"/></g><path fill="#ff66c4" d="M 68.042969 65.261719 L 68.042969 46.972656 C 68.042969 45.613281 67.953125 44.28125 67.78125 42.976562 L 65.050781 42.976562 C 64.664062 42.976562 64.441406 43.398438 64.441406 43.742188 L 64.441406 64.496094 C 64.441406 64.839844 64.664062 65.261719 65.050781 65.261719 Z M 68.042969 65.261719 " fill-opacity="1" fill-rule="evenodd"/><g clip-path="url(#e848fa473e)"><g clip-path="url(#6dba3ac1f7)"><g transform="matrix(1, 0, 0, 1, 15, 80)"><g clip-path="url(#a487019884)"><g clip-path="url(#88fe9db644)"><g clip-path="url(#74f14e8dee)"><path fill="#ffbd59" d="M 0.773438 0.449219 L 55.046875 0.449219 L 55.046875 51.71875 L 0.773438 51.71875 Z M 0.773438 0.449219 " fill-opacity="1" fill-rule="nonzero"/></g></g></g></g></g></g><g clip-path="url(#68eefbd402)"><g clip-path="url(#fe8e871715)"><g transform="matrix(1, 0, 0, 1, 86, 17)"><g clip-path="url(#e0f521960f)"><g clip-path="url(#064eeaddbe)"><g clip-path="url(#d1c2005e9c)"><path fill="#78d0b1" d="M 0.105469 0.3125 L 54.375 0.3125 L 54.375 51.578125 L 0.105469 51.578125 Z M 0.105469 0.3125 " fill-opacity="1" fill-rule="nonzero"/></g></g></g></g></g></g></svg>