<svg xmlns="http://www.w3.org/2000/svg" xmlns:xlink="http://www.w3.org/1999/xlink" width="400" zoomAndPan="magnify" viewBox="0 0 300 112.499997" height="150" preserveAspectRatio="xMidYMid meet" version="1.0"><defs><clipPath id="aba8d8a041"><path d="M 105.304688 18 L 195.652344 18 L 195.652344 97 L 105.304688 97 Z M 105.304688 18 " clip-rule="nonzero"/></clipPath></defs><path fill="#ffffff" d="M 193.542969 87.785156 C 191.542969 97.058594 188.230469 97.035156 139.144531 95.691406 C 116.632812 95.074219 108.683594 95.023438 107.832031 86.804688 C 107.582031 84.410156 107.320312 56.378906 110.53125 51.960938 C 112.242188 49.609375 188.507812 50.285156 192.671875 53.769531 C 195.085938 55.789062 193.875 86.230469 193.539062 87.785156 Z M 193.542969 87.785156 " fill-opacity="1" fill-rule="evenodd"/><path fill="#7683c8" d="M 146.96875 74.902344 C 155.109375 77.496094 157.625 67.1875 152.277344 63.300781 C 144.277344 57.484375 139.355469 72.476562 146.96875 74.902344 Z M 146.96875 74.902344 " fill-opacity="1" fill-rule="evenodd"/><path fill="#7683c8" d="M 149.671875 29.109375 C 145.996094 17.921875 178.332031 15.152344 176.238281 35.25 C 174.984375 47.3125 158.160156 44.640625 157.105469 52.9375 C 156.457031 58.027344 153.882812 58.671875 149.460938 56.046875 C 145.761719 53.847656 143.992188 43.234375 153.453125 41.035156 C 154.527344 40.785156 166.945312 39.78125 166.5625 33.019531 C 166.148438 25.707031 155.96875 32.703125 153.058594 31.695312 C 151.496094 31.15625 149.886719 29.75 149.671875 29.105469 Z M 149.671875 29.109375 " fill-opacity="1" fill-rule="evenodd"/><path fill="#fd3d66" d="M 127.410156 64.886719 C 120.3125 70.644531 124.652344 80.632812 131.074219 78.035156 C 142.078125 73.582031 130.972656 61.996094 127.410156 64.886719 Z M 127.410156 64.886719 " fill-opacity="1" fill-rule="nonzero"/><path fill="#fd3d66" d="M 130.355469 57.289062 C 126.5625 31.800781 128.445312 29.199219 125.496094 24.386719 C 124.003906 21.949219 112.054688 23.769531 109.777344 27.980469 C 107.359375 32.453125 121.253906 58.542969 121.574219 58.90625 C 124.253906 61.941406 126.445312 59.609375 130.355469 57.289062 Z M 130.355469 57.289062 " fill-opacity="1" fill-rule="nonzero"/><path fill="#fd3d66" d="M 175.007812 58.964844 C 168.53125 57.652344 166.136719 70.222656 171.304688 72.078125 C 171.859375 72.277344 179.402344 73.136719 172.652344 77.648438 C 170.003906 79.417969 167.164062 78.96875 166.414062 79 C 166.140625 78.996094 165.875 79.042969 165.617188 79.128906 L 164.40625 83.746094 C 164.644531 82.695312 164.8125 81.636719 164.921875 80.5625 C 163.871094 82.9375 163.605469 83.480469 162.417969 86.980469 C 170.203125 85.914062 184.316406 85.3125 186.632812 65.105469 C 187.113281 60.929688 182.976562 60.578125 175.007812 58.964844 Z M 175.007812 58.964844 " fill-opacity="1" fill-rule="nonzero"/><path fill="#fd3d66" d="M 164.921875 80.5625 C 165.101562 80.15625 165.304688 79.699219 165.542969 79.160156 C 165.121094 79.367188 165.019531 79.789062 164.921875 80.5625 Z M 164.921875 80.5625 " fill-opacity="1" fill-rule="nonzero"/><path fill="#fd3d66" d="M 165.703125 78.789062 C 165.648438 78.917969 165.59375 79.039062 165.542969 79.160156 L 165.617188 79.125 Z M 165.703125 78.789062 " fill-opacity="1" fill-rule="nonzero"/><path fill="#c1dfff" d="M 193.710938 85.128906 C 192.390625 95.542969 188.769531 95.015625 163.3125 94.335938 C 112.449219 92.976562 109.265625 97.203125 107.488281 90.644531 C 105.585938 83.609375 106.738281 56.59375 111.8125 53.144531 C 113.007812 52.332031 122.972656 53.007812 116.9375 52.464844 C 111.222656 51.953125 111.566406 81.984375 115.140625 85.351562 C 118.394531 88.410156 165.535156 92.199219 193.714844 85.128906 Z M 193.710938 85.128906 " fill-opacity="1" fill-rule="evenodd"/><path fill="#3e2061" d="M 151.070312 60.738281 C 150.527344 60.59375 149.972656 60.503906 149.414062 60.464844 C 148.851562 60.429688 148.292969 60.445312 147.734375 60.519531 C 147.175781 60.59375 146.632812 60.71875 146.097656 60.898438 C 145.566406 61.078125 145.054688 61.308594 144.570312 61.585938 C 144.082031 61.867188 143.625 62.191406 143.203125 62.558594 C 142.78125 62.925781 142.398438 63.332031 142.054688 63.777344 C 141.710938 64.21875 141.417969 64.691406 141.167969 65.195312 C 140.917969 65.695312 140.722656 66.214844 140.578125 66.753906 C 140.429688 67.292969 140.339844 67.84375 140.304688 68.402344 C 140.265625 68.960938 140.285156 69.515625 140.359375 70.070312 C 140.429688 70.625 140.558594 71.164062 140.738281 71.695312 C 140.917969 72.222656 141.152344 72.730469 141.433594 73.214844 C 141.714844 73.699219 142.039062 74.148438 142.410156 74.570312 C 142.78125 74.992188 143.191406 75.371094 143.636719 75.710938 C 144.082031 76.050781 144.558594 76.34375 145.0625 76.59375 C 145.566406 76.839844 146.089844 77.035156 146.632812 77.179688 C 147.175781 77.324219 147.730469 77.414062 148.292969 77.453125 C 148.851562 77.488281 149.410156 77.46875 149.96875 77.398438 C 150.527344 77.324219 151.074219 77.199219 151.605469 77.019531 C 152.136719 76.839844 152.648438 76.609375 153.136719 76.328125 C 153.621094 76.050781 154.078125 75.726562 154.5 75.355469 C 154.921875 74.988281 155.304688 74.582031 155.648438 74.140625 C 155.988281 73.695312 156.285156 73.222656 156.535156 72.722656 C 156.785156 72.222656 156.980469 71.699219 157.125 71.160156 C 157.273438 70.621094 157.367188 70.070312 157.410156 69.511719 C 157.449219 68.953125 157.429688 68.398438 157.359375 67.84375 C 157.289062 67.289062 157.160156 66.746094 156.980469 66.214844 C 156.800781 65.683594 156.570312 65.175781 156.289062 64.691406 C 156.007812 64.207031 155.679688 63.753906 155.308594 63.335938 C 154.9375 62.914062 154.527344 62.535156 154.078125 62.195312 C 153.628906 61.855469 153.152344 61.5625 152.648438 61.316406 C 152.140625 61.074219 151.613281 60.878906 151.070312 60.738281 Z M 153.542969 70.207031 C 153.460938 70.511719 153.351562 70.808594 153.207031 71.09375 C 153.066406 71.378906 152.898438 71.644531 152.707031 71.898438 C 152.511719 72.148438 152.296875 72.378906 152.054688 72.589844 C 151.816406 72.800781 151.558594 72.984375 151.28125 73.140625 C 151.003906 73.300781 150.714844 73.429688 150.414062 73.535156 C 150.109375 73.636719 149.800781 73.707031 149.484375 73.75 C 149.167969 73.792969 148.851562 73.800781 148.53125 73.78125 C 148.214844 73.761719 147.898438 73.710938 147.589844 73.628906 C 147.28125 73.546875 146.984375 73.433594 146.699219 73.292969 C 146.414062 73.152344 146.144531 72.988281 145.890625 72.792969 C 145.636719 72.601562 145.402344 72.386719 145.195312 72.148438 C 144.984375 71.90625 144.796875 71.652344 144.636719 71.375 C 144.480469 71.101562 144.347656 70.816406 144.246094 70.515625 C 144.140625 70.214844 144.070312 69.90625 144.027344 69.589844 C 143.988281 69.277344 143.976562 68.960938 143.996094 68.644531 C 144.019531 68.328125 144.070312 68.015625 144.152344 67.710938 C 144.234375 67.40625 144.347656 67.109375 144.488281 66.824219 C 144.628906 66.539062 144.796875 66.273438 144.992188 66.019531 C 145.1875 65.769531 145.40625 65.539062 145.644531 65.328125 C 145.886719 65.121094 146.144531 64.9375 146.421875 64.777344 C 146.695312 64.621094 146.988281 64.488281 147.289062 64.386719 C 147.589844 64.285156 147.902344 64.214844 148.21875 64.175781 C 148.535156 64.132812 148.851562 64.121094 149.171875 64.144531 C 149.488281 64.164062 149.800781 64.214844 150.109375 64.300781 C 150.417969 64.382812 150.714844 64.492188 151 64.632812 C 151.285156 64.773438 151.554688 64.9375 151.808594 65.132812 C 152.0625 65.324219 152.292969 65.539062 152.503906 65.777344 C 152.714844 66.015625 152.898438 66.273438 153.058594 66.546875 C 153.214844 66.820312 153.347656 67.109375 153.449219 67.40625 C 153.550781 67.707031 153.625 68.015625 153.667969 68.328125 C 153.707031 68.644531 153.71875 68.957031 153.699219 69.273438 C 153.675781 69.589844 153.625 69.902344 153.542969 70.207031 Z M 153.542969 70.207031 " fill-opacity="1" fill-rule="nonzero"/><path fill="#3e2061" d="M 187.765625 60.199219 L 171.371094 55.835938 C 171.132812 55.769531 170.890625 55.753906 170.648438 55.789062 C 170.402344 55.820312 170.175781 55.898438 169.960938 56.019531 C 169.75 56.140625 169.566406 56.300781 169.417969 56.492188 C 169.269531 56.6875 169.160156 56.902344 169.097656 57.140625 L 165.582031 70.175781 C 165.519531 70.410156 165.503906 70.648438 165.535156 70.894531 C 165.566406 71.136719 165.644531 71.363281 165.765625 71.574219 C 165.890625 71.785156 166.050781 71.964844 166.246094 72.113281 C 166.441406 72.261719 166.65625 72.367188 166.894531 72.433594 L 173.707031 74.246094 C 172.277344 76.324219 169.515625 79.15625 165.707031 77.65625 C 165.460938 77.5625 165.203125 77.519531 164.941406 77.53125 C 164.675781 77.542969 164.425781 77.605469 164.1875 77.726562 C 163.953125 77.84375 163.75 78.003906 163.585938 78.207031 C 163.417969 78.410156 163.300781 78.640625 163.230469 78.894531 L 161.1875 86.46875 C 161.128906 86.6875 161.109375 86.90625 161.132812 87.132812 C 161.15625 87.355469 161.21875 87.570312 161.320312 87.773438 C 161.421875 87.972656 161.554688 88.152344 161.722656 88.304688 C 161.890625 88.457031 162.078125 88.574219 162.289062 88.660156 C 162.4375 88.714844 164.492188 89.507812 167.457031 89.507812 C 170.28125 89.511719 172.921875 88.832031 175.386719 87.460938 C 182.175781 83.714844 186.800781 75.25 189.125 62.304688 C 189.164062 62.078125 189.160156 61.851562 189.117188 61.621094 C 189.070312 61.394531 188.984375 61.183594 188.859375 60.988281 C 188.734375 60.792969 188.578125 60.628906 188.386719 60.492188 C 188.199219 60.355469 187.992188 60.257812 187.765625 60.199219 Z M 173.632812 84.203125 C 172.363281 84.921875 171.007812 85.402344 169.566406 85.652344 C 168.125 85.898438 166.683594 85.894531 165.246094 85.640625 L 166.320312 81.652344 C 172.414062 82.714844 176.6875 77.210938 178.199219 73.832031 C 178.308594 73.585938 178.359375 73.328125 178.355469 73.058594 C 178.351562 72.789062 178.292969 72.53125 178.175781 72.289062 C 178.058594 72.042969 177.894531 71.835938 177.6875 71.664062 C 177.480469 71.492188 177.242188 71.371094 176.980469 71.300781 L 169.640625 69.347656 L 172.195312 59.871094 L 185.140625 63.320312 C 182.976562 73.992188 179.019531 81.199219 173.640625 84.203125 Z M 173.632812 84.203125 " fill-opacity="1" fill-rule="nonzero"/><path fill="#3e2061" d="M 134.335938 64.46875 C 134.039062 64.296875 133.734375 64.144531 133.417969 64.007812 C 133.101562 63.871094 132.78125 63.753906 132.453125 63.65625 C 132.125 63.558594 131.789062 63.476562 131.453125 63.414062 C 131.113281 63.355469 130.773438 63.3125 130.429688 63.289062 C 130.089844 63.269531 129.746094 63.265625 129.402344 63.28125 C 129.058594 63.300781 128.71875 63.335938 128.378906 63.390625 C 128.039062 63.445312 127.707031 63.523438 127.375 63.617188 C 127.042969 63.710938 126.722656 63.820312 126.402344 63.953125 C 126.085938 64.082031 125.777344 64.230469 125.476562 64.398438 C 125.175781 64.5625 124.886719 64.746094 124.609375 64.945312 C 124.328125 65.144531 124.0625 65.355469 123.808594 65.585938 C 123.554688 65.816406 123.3125 66.058594 123.085938 66.316406 C 122.859375 66.570312 122.648438 66.839844 122.453125 67.121094 C 122.257812 67.402344 122.078125 67.691406 121.917969 67.992188 C 121.753906 68.292969 121.609375 68.605469 121.484375 68.921875 C 121.359375 69.238281 121.25 69.5625 121.164062 69.890625 C 121.074219 70.222656 121.003906 70.554688 120.953125 70.894531 C 120.902344 71.230469 120.871094 71.570312 120.859375 71.910156 C 120.851562 72.253906 120.859375 72.59375 120.886719 72.933594 C 120.914062 73.273438 120.960938 73.609375 121.027344 73.945312 C 121.097656 74.28125 121.183594 74.609375 121.289062 74.933594 C 121.394531 75.261719 121.515625 75.578125 121.65625 75.890625 C 121.800781 76.199219 121.957031 76.5 122.136719 76.792969 C 122.3125 77.085938 122.503906 77.367188 122.714844 77.640625 C 122.921875 77.910156 123.148438 78.167969 123.386719 78.414062 C 123.625 78.660156 123.878906 78.890625 124.144531 79.105469 C 124.410156 79.324219 124.6875 79.523438 124.976562 79.707031 C 125.261719 79.894531 125.5625 80.0625 125.871094 80.210938 C 126.179688 80.363281 126.492188 80.496094 126.816406 80.609375 C 127.140625 80.726562 127.46875 80.820312 127.804688 80.898438 C 128.140625 80.976562 128.476562 81.035156 128.816406 81.074219 C 129.160156 81.113281 129.503906 81.132812 129.84375 81.132812 C 130.1875 81.132812 130.53125 81.113281 130.871094 81.074219 C 131.214844 81.035156 131.550781 80.976562 131.886719 80.898438 C 132.222656 80.820312 132.550781 80.726562 132.875 80.609375 C 133.195312 80.496094 133.511719 80.363281 133.820312 80.210938 C 134.128906 80.058594 134.425781 79.890625 134.714844 79.707031 C 135.003906 79.523438 135.28125 79.320312 135.546875 79.105469 C 135.8125 78.886719 136.066406 78.65625 136.304688 78.410156 C 136.542969 78.167969 136.765625 77.90625 136.976562 77.636719 C 137.183594 77.367188 137.378906 77.085938 137.554688 76.792969 C 137.730469 76.5 137.890625 76.199219 138.03125 75.886719 C 138.171875 75.574219 138.296875 75.257812 138.402344 74.933594 C 138.507812 74.609375 138.59375 74.277344 138.660156 73.941406 C 138.726562 73.609375 138.773438 73.269531 138.800781 72.929688 C 138.832031 72.589844 138.839844 72.25 138.828125 71.910156 C 138.816406 71.566406 138.785156 71.226562 138.734375 70.890625 C 138.683594 70.554688 138.613281 70.21875 138.527344 69.890625 C 138.21875 68.746094 137.703125 67.703125 136.976562 66.761719 C 136.25 65.820312 135.371094 65.058594 134.335938 64.46875 Z M 131.210938 77.269531 C 130.875 77.359375 130.535156 77.414062 130.1875 77.4375 C 129.84375 77.460938 129.496094 77.449219 129.152344 77.402344 C 128.808594 77.359375 128.472656 77.28125 128.144531 77.171875 C 127.816406 77.058594 127.503906 76.917969 127.203125 76.746094 C 126.902344 76.574219 126.621094 76.375 126.363281 76.148438 C 126.101562 75.921875 125.867188 75.671875 125.65625 75.398438 C 125.445312 75.125 125.261719 74.832031 125.109375 74.523438 C 124.953125 74.214844 124.832031 73.894531 124.742188 73.5625 C 124.652344 73.230469 124.597656 72.890625 124.574219 72.546875 C 124.550781 72.203125 124.5625 71.863281 124.609375 71.519531 C 124.652344 71.179688 124.730469 70.84375 124.84375 70.519531 C 124.953125 70.191406 125.097656 69.878906 125.269531 69.582031 C 125.441406 69.285156 125.644531 69.003906 125.871094 68.746094 C 126.101562 68.488281 126.351562 68.253906 126.628906 68.042969 C 126.902344 67.832031 127.195312 67.652344 127.507812 67.5 C 127.816406 67.347656 128.140625 67.226562 128.476562 67.136719 C 128.925781 67.019531 129.382812 66.957031 129.847656 66.957031 C 130.488281 66.960938 131.105469 67.070312 131.707031 67.296875 C 132.304688 67.523438 132.84375 67.84375 133.324219 68.265625 C 133.804688 68.683594 134.195312 69.175781 134.496094 69.734375 C 134.796875 70.296875 134.988281 70.890625 135.074219 71.523438 C 135.15625 72.152344 135.125 72.777344 134.980469 73.394531 C 134.835938 74.015625 134.585938 74.589844 134.230469 75.117188 C 133.875 75.644531 133.4375 76.09375 132.914062 76.464844 C 132.394531 76.835938 131.828125 77.105469 131.210938 77.269531 Z M 131.210938 77.269531 " fill-opacity="1" fill-rule="nonzero"/><g clip-path="url(#aba8d8a041)"><path fill="#3e2061" d="M 193.023438 52.019531 C 192.183594 51.1875 191.214844 50.546875 190.121094 50.097656 C 189.023438 49.644531 187.886719 49.417969 186.699219 49.417969 L 164.742188 49.417969 C 171.976562 47.09375 174.9375 42.90625 176.132812 39.578125 C 178.152344 33.96875 176.316406 27.539062 173.457031 24.082031 C 170.207031 20.15625 164.746094 17.964844 159.542969 18.515625 C 154.621094 19.03125 150.625 21.789062 148.289062 26.28125 C 148.160156 26.523438 148.054688 26.777344 147.976562 27.039062 C 147.898438 27.304688 147.847656 27.574219 147.824219 27.847656 C 147.800781 28.121094 147.800781 28.394531 147.832031 28.667969 C 147.863281 28.941406 147.921875 29.210938 148.003906 29.472656 C 148.089844 29.734375 148.195312 29.984375 148.332031 30.226562 C 148.464844 30.464844 148.621094 30.691406 148.800781 30.902344 C 148.980469 31.109375 149.179688 31.300781 149.394531 31.472656 C 149.613281 31.640625 149.84375 31.789062 150.09375 31.914062 C 150.46875 32.109375 150.855469 32.316406 151.242188 32.519531 C 151.878906 32.855469 152.515625 33.195312 153.152344 33.519531 C 153.535156 33.707031 153.941406 33.832031 154.363281 33.894531 C 154.785156 33.960938 155.207031 33.960938 155.628906 33.898438 C 156.054688 33.832031 156.457031 33.707031 156.839844 33.523438 C 157.222656 33.335938 157.570312 33.097656 157.882812 32.804688 C 157.886719 32.800781 157.890625 32.796875 157.894531 32.792969 C 159.722656 31.03125 161.828125 31.039062 163.109375 31.828125 C 163.65625 32.167969 164.859375 33.164062 164.234375 35.117188 C 163 38.925781 158.070312 39.476562 152.90625 39.5 C 152.21875 39.511719 151.550781 39.625 150.902344 39.839844 C 150.25 40.058594 149.648438 40.367188 149.097656 40.773438 C 148.542969 41.175781 148.066406 41.652344 147.664062 42.207031 C 147.261719 42.757812 146.957031 43.359375 146.742188 44.007812 L 146.703125 44.121094 C 146.03125 46.167969 145.609375 47.449219 145.042969 49.414062 L 131.332031 49.414062 L 128.050781 26.011719 C 127.996094 25.632812 127.902344 25.261719 127.769531 24.898438 C 127.636719 24.535156 127.46875 24.191406 127.261719 23.867188 C 127.054688 23.539062 126.816406 23.238281 126.542969 22.964844 C 126.273438 22.6875 125.976562 22.445312 125.652344 22.230469 C 125.332031 22.019531 124.988281 21.84375 124.628906 21.703125 C 124.265625 21.5625 123.894531 21.460938 123.511719 21.398438 C 123.128906 21.335938 122.746094 21.3125 122.355469 21.332031 C 121.96875 21.351562 121.589844 21.414062 121.214844 21.511719 L 111.808594 24.015625 C 111.433594 24.117188 111.074219 24.253906 110.726562 24.429688 C 110.382812 24.605469 110.058594 24.816406 109.757812 25.058594 C 109.457031 25.304688 109.1875 25.574219 108.945312 25.875 C 108.703125 26.175781 108.496094 26.5 108.324219 26.84375 C 108.152344 27.191406 108.015625 27.550781 107.921875 27.921875 C 107.824219 28.296875 107.769531 28.675781 107.753906 29.0625 C 107.738281 29.445312 107.765625 29.828125 107.832031 30.207031 C 107.898438 30.585938 108.007812 30.957031 108.152344 31.3125 L 115.539062 49.417969 L 114.246094 49.417969 C 113.660156 49.417969 113.078125 49.472656 112.503906 49.585938 C 111.925781 49.703125 111.367188 49.871094 110.824219 50.09375 C 110.28125 50.316406 109.765625 50.589844 109.277344 50.914062 C 108.789062 51.238281 108.339844 51.605469 107.921875 52.019531 C 107.507812 52.433594 107.136719 52.878906 106.8125 53.367188 C 106.484375 53.851562 106.210938 54.363281 105.984375 54.902344 C 105.757812 55.441406 105.589844 55.996094 105.476562 56.566406 C 105.359375 57.140625 105.304688 57.71875 105.304688 58.300781 L 105.304688 87.835938 C 105.304688 88.421875 105.363281 88.996094 105.476562 89.570312 C 105.589844 90.140625 105.761719 90.695312 105.988281 91.234375 C 106.210938 91.773438 106.488281 92.285156 106.8125 92.769531 C 107.140625 93.257812 107.511719 93.703125 107.925781 94.117188 C 108.339844 94.53125 108.792969 94.898438 109.28125 95.222656 C 109.769531 95.546875 110.285156 95.820312 110.824219 96.042969 C 111.367188 96.265625 111.925781 96.4375 112.503906 96.550781 C 113.078125 96.664062 113.660156 96.722656 114.246094 96.722656 L 186.699219 96.722656 C 187.285156 96.722656 187.867188 96.664062 188.445312 96.550781 C 189.019531 96.4375 189.578125 96.265625 190.121094 96.042969 C 190.664062 95.820312 191.179688 95.546875 191.667969 95.222656 C 192.152344 94.898438 192.605469 94.53125 193.019531 94.117188 C 193.4375 93.703125 193.804688 93.257812 194.132812 92.769531 C 194.460938 92.285156 194.734375 91.773438 194.960938 91.234375 C 195.183594 90.695312 195.355469 90.140625 195.46875 89.570312 C 195.585938 88.996094 195.644531 88.421875 195.644531 87.835938 L 195.644531 58.300781 C 195.648438 57.121094 195.421875 55.988281 194.96875 54.898438 C 194.511719 53.808594 193.863281 52.851562 193.023438 52.019531 Z M 150.273438 45.152344 C 150.363281 44.871094 150.496094 44.609375 150.671875 44.367188 C 150.847656 44.128906 151.050781 43.921875 151.292969 43.746094 C 151.53125 43.570312 151.792969 43.433594 152.074219 43.339844 C 152.355469 43.242188 152.644531 43.195312 152.941406 43.1875 C 157.03125 43.167969 165.539062 43.125 167.765625 36.242188 C 168.730469 33.265625 167.667969 30.304688 165.066406 28.699219 C 162.566406 27.15625 158.582031 27.003906 155.316406 30.140625 C 155.171875 30.28125 155.003906 30.308594 154.816406 30.226562 C 154.222656 29.925781 153.605469 29.597656 152.988281 29.269531 C 152.59375 29.0625 152.199219 28.851562 151.78125 28.636719 C 151.660156 28.578125 151.582031 28.484375 151.539062 28.359375 C 151.5 28.230469 151.511719 28.105469 151.578125 27.984375 C 153.328125 24.625 156.296875 22.566406 159.933594 22.183594 C 163.933594 21.765625 168.109375 23.429688 170.59375 26.425781 C 172.296875 28.488281 174.363281 33.550781 172.640625 38.339844 C 171.132812 42.539062 166.917969 45.433594 160.464844 46.710938 C 159.964844 46.808594 159.492188 46.980469 159.042969 47.222656 C 158.59375 47.464844 158.1875 47.765625 157.828125 48.128906 C 157.472656 48.488281 157.175781 48.894531 156.9375 49.347656 C 156.703125 49.796875 156.539062 50.273438 156.445312 50.769531 C 156.40625 50.917969 156.382812 51.066406 156.378906 51.214844 C 156.253906 52.050781 156.144531 52.609375 155.992188 53.328125 C 155.894531 53.785156 155.648438 54.144531 155.253906 54.398438 C 154.832031 54.664062 154.375 54.734375 153.890625 54.609375 L 152.722656 54.398438 C 151.578125 54.195312 150.398438 53.984375 149.324219 53.742188 C 148.957031 53.617188 148.671875 53.394531 148.460938 53.070312 C 148.25 52.75 148.164062 52.394531 148.199219 52.011719 C 148.285156 51.808594 148.335938 51.597656 148.347656 51.378906 C 149.046875 48.898438 149.453125 47.652344 150.238281 45.265625 Z M 111.589844 29.917969 C 111.496094 29.6875 111.453125 29.445312 111.464844 29.195312 C 111.472656 28.945312 111.535156 28.710938 111.648438 28.484375 C 111.761719 28.261719 111.914062 28.070312 112.109375 27.910156 C 112.304688 27.753906 112.523438 27.640625 112.765625 27.578125 L 122.175781 25.074219 C 122.324219 25.035156 122.476562 25.015625 122.628906 25.015625 C 122.84375 25.015625 123.046875 25.050781 123.246094 25.125 C 123.445312 25.199219 123.625 25.304688 123.785156 25.445312 C 123.949219 25.582031 124.078125 25.746094 124.179688 25.929688 C 124.28125 26.117188 124.347656 26.3125 124.375 26.523438 L 127.847656 51.265625 L 127.847656 51.273438 C 127.847656 51.449219 127.871094 51.625 127.921875 51.792969 L 128.613281 56.710938 L 123.121094 58.175781 L 120.121094 50.820312 C 120.078125 50.652344 120.011719 50.492188 119.925781 50.339844 L 111.589844 29.925781 C 111.589844 29.925781 111.589844 29.925781 111.589844 29.917969 Z M 191.894531 87.828125 C 191.890625 88.167969 191.859375 88.503906 191.792969 88.835938 C 191.726562 89.167969 191.625 89.492188 191.496094 89.804688 C 191.367188 90.117188 191.207031 90.414062 191.015625 90.695312 C 190.828125 90.976562 190.609375 91.238281 190.371094 91.476562 C 190.128906 91.714844 189.867188 91.929688 189.582031 92.117188 C 189.300781 92.304688 189 92.464844 188.6875 92.59375 C 188.371094 92.722656 188.046875 92.824219 187.710938 92.886719 C 187.378906 92.953125 187.039062 92.988281 186.699219 92.988281 L 114.246094 92.988281 C 113.90625 92.988281 113.570312 92.953125 113.234375 92.886719 C 112.898438 92.824219 112.574219 92.722656 112.261719 92.59375 C 111.945312 92.464844 111.648438 92.304688 111.363281 92.117188 C 111.078125 91.929688 110.816406 91.714844 110.578125 91.476562 C 110.335938 91.238281 110.121094 90.976562 109.929688 90.695312 C 109.742188 90.414062 109.582031 90.117188 109.449219 89.804688 C 109.320312 89.492188 109.222656 89.167969 109.15625 88.835938 C 109.085938 88.503906 109.054688 88.167969 109.054688 87.828125 L 109.054688 58.300781 C 109.050781 57.617188 109.183594 56.957031 109.445312 56.328125 C 109.707031 55.695312 110.085938 55.136719 110.570312 54.652344 C 111.058594 54.171875 111.621094 53.800781 112.257812 53.539062 C 112.894531 53.277344 113.554688 53.144531 114.242188 53.144531 L 117.054688 53.144531 L 119.765625 59.789062 C 119.894531 60.101562 120.066406 60.390625 120.285156 60.65625 C 120.5 60.917969 120.75 61.148438 121.035156 61.335938 C 121.316406 61.527344 121.625 61.671875 121.949219 61.769531 C 122.277344 61.871094 122.613281 61.921875 122.957031 61.921875 C 123.257812 61.921875 123.554688 61.882812 123.84375 61.804688 L 129.800781 60.21875 C 130.207031 60.109375 130.578125 59.933594 130.917969 59.691406 C 131.257812 59.449219 131.546875 59.152344 131.777344 58.804688 C 132.007812 58.457031 132.171875 58.082031 132.265625 57.675781 C 132.355469 57.269531 132.375 56.859375 132.316406 56.445312 L 131.847656 53.144531 L 144.566406 53.144531 C 144.65625 53.628906 144.808594 54.089844 145.027344 54.527344 C 145.246094 54.96875 145.519531 55.371094 145.847656 55.738281 C 146.175781 56.101562 146.546875 56.417969 146.960938 56.683594 C 147.378906 56.945312 147.820312 57.152344 148.292969 57.292969 C 148.332031 57.304688 148.375 57.316406 148.410156 57.324219 C 149.589844 57.59375 150.84375 57.820312 152.058594 58.035156 L 153.132812 58.222656 C 153.527344 58.3125 153.925781 58.355469 154.328125 58.351562 C 154.949219 58.355469 155.550781 58.25 156.136719 58.046875 C 156.722656 57.839844 157.257812 57.542969 157.738281 57.152344 C 158.21875 56.761719 158.621094 56.304688 158.945312 55.777344 C 159.265625 55.25 159.492188 54.683594 159.617188 54.078125 C 159.683594 53.753906 159.746094 53.453125 159.804688 53.140625 L 186.699219 53.140625 C 187.386719 53.144531 188.050781 53.273438 188.6875 53.535156 C 189.320312 53.796875 189.882812 54.167969 190.371094 54.652344 C 190.859375 55.132812 191.234375 55.691406 191.5 56.324219 C 191.761719 56.957031 191.894531 57.613281 191.890625 58.300781 Z M 191.894531 87.828125 " fill-opacity="1" fill-rule="nonzero"/></g></svg>