<svg xmlns="http://www.w3.org/2000/svg" xmlns:xlink="http://www.w3.org/1999/xlink" width="200" zoomAndPan="magnify" viewBox="0 0 150 149.999998" height="200" preserveAspectRatio="xMidYMid meet" version="1.0"><defs><clipPath id="e01abb3109"><path d="M 11.824219 44 L 60 44 L 60 109 L 11.824219 109 Z M 11.824219 44 " clip-rule="nonzero"/></clipPath><clipPath id="d4c8426d95"><path d="M 93 44 L 137.824219 44 L 137.824219 107 L 93 107 Z M 93 44 " clip-rule="nonzero"/></clipPath></defs><g clip-path="url(#e01abb3109)"><path fill="#fcca55" d="M 20.722656 71.265625 C 23.359375 67.449219 27.101562 63.816406 31.9375 63.3125 C 35.714844 62.917969 39.339844 65.1875 40.679688 68.34375 C 41.351562 69.921875 41.4375 71.308594 40.683594 72.980469 C 39.929688 74.644531 38.46875 75.949219 36.984375 77.121094 C 33.429688 79.933594 28.71875 82.640625 27.390625 87.296875 C 26.410156 90.730469 28.695312 94.117188 30.070312 97.140625 C 31.578125 100.453125 33.03125 103.800781 34.652344 107.058594 C 35.460938 108.679688 37.75 109.328125 38.964844 107.683594 C 41.402344 104.375 44.804688 101.964844 48.675781 100.617188 C 49.796875 100.230469 50.519531 98.699219 49.980469 97.601562 C 49.164062 95.941406 48.34375 94.28125 47.53125 92.617188 C 47.191406 91.921875 46.855469 91.230469 46.515625 90.535156 C 46.191406 89.878906 45.527344 88.972656 45.425781 88.238281 C 45.292969 87.257812 46.769531 86.242188 47.386719 85.585938 C 48.640625 84.25 49.882812 82.90625 51.089844 81.527344 C 55.113281 76.921875 58.796875 71.402344 59.160156 65.105469 C 59.511719 59.074219 56.757812 53.621094 51.992188 49.972656 C 47.078125 46.207031 40.949219 44.664062 34.832031 44.941406 C 27.453125 45.273438 20.304688 48.015625 13.558594 50.828125 C 12.316406 51.34375 11.910156 52.449219 12.074219 53.476562 C 11.929688 53.726562 11.855469 54.03125 11.890625 54.394531 C 12.445312 60.113281 14.835938 65.390625 16.867188 70.707031 C 17.449219 72.230469 19.746094 72.679688 20.722656 71.265625 " fill-opacity="1" fill-rule="nonzero"/></g><path fill="#fcca55" d="M 46.144531 112.277344 C 43.941406 113.296875 42.898438 116.285156 43.015625 118.816406 C 43.183594 122.480469 45.460938 126.707031 49.414062 127.167969 C 57.335938 128.09375 61.25 116.480469 54.660156 112.210938 C 52.222656 110.632812 48.292969 110.296875 46.144531 112.277344 " fill-opacity="1" fill-rule="nonzero"/><path fill="#f599b1" d="M 77.496094 68.347656 C 75.855469 69.792969 73.664062 70.464844 71.578125 70.976562 C 69.195312 71.566406 65.960938 71.695312 64.207031 73.609375 C 62.351562 75.636719 62.902344 78.890625 62.890625 81.414062 C 62.878906 84.492188 62.867188 87.566406 62.855469 90.644531 C 62.851562 92.035156 64.402344 92.984375 65.640625 92.882812 C 68.003906 92.6875 70.304688 92.796875 72.636719 93.222656 C 74.207031 93.511719 75.683594 92.054688 75.492188 90.492188 C 75.261719 88.644531 74.824219 85.296875 76.503906 84.285156 C 77.882812 83.453125 80.042969 83.667969 81.597656 83.402344 C 83.550781 83.070312 85.503906 82.582031 87.355469 81.875 C 93.808594 79.410156 98.414062 74.175781 100.289062 67.566406 C 104.117188 54.089844 94.984375 40.882812 82.550781 36.054688 C 75.578125 33.347656 67.886719 32.96875 60.558594 34.246094 C 60.113281 34.054688 59.515625 34.160156 59.214844 34.523438 C 58.082031 34.914062 57.253906 35.921875 57.394531 37.207031 C 57.5 38.171875 59.910156 44.925781 59.804688 47.691406 C 59.75 49.148438 60.914062 50.21875 62.375 49.738281 C 69.191406 47.496094 77.457031 51.769531 79.636719 58.566406 C 80.675781 61.808594 80.15625 66.007812 77.496094 68.347656 " fill-opacity="1" fill-rule="nonzero"/><path fill="#f599b1" d="M 75.070312 119.074219 C 78.195312 117.289062 79.761719 113.417969 79.746094 109.945312 C 79.730469 106.652344 77.695312 103.484375 74.175781 102.917969 C 64.972656 101.425781 64.371094 111.117188 64.546875 112.277344 C 64.546875 112.421875 64.550781 112.566406 64.554688 112.707031 C 64.617188 114.367188 65.179688 116.117188 66.292969 117.371094 C 68.519531 119.890625 72.070312 120.789062 75.070312 119.074219 " fill-opacity="1" fill-rule="nonzero"/><g clip-path="url(#d4c8426d95)"><path fill="#49d0d8" d="M 130.097656 53.179688 C 125.589844 48.339844 119.542969 45.089844 112.949219 44.339844 C 110.601562 44.074219 108.355469 54.136719 107.152344 57.03125 C 106.585938 58.390625 107.96875 59.84375 109.335938 59.554688 C 112.960938 58.800781 115.121094 62.414062 115.871094 65.425781 C 116.664062 68.617188 116.910156 72.007812 116.457031 75.269531 C 116.054688 78.179688 114.878906 81.0625 112.625 83.019531 C 110.148438 85.167969 106.574219 85.90625 103.441406 84.980469 C 102.539062 84.714844 101.210938 84.949219 100.726562 85.882812 C 98.261719 90.671875 95.78125 95.449219 93.347656 100.253906 C 92.492188 101.941406 93.269531 103.570312 95.132812 103.9375 C 98.257812 104.550781 101.300781 105.539062 104.234375 106.769531 C 106.027344 107.523438 107.417969 105.734375 107.285156 104.125 C 107.066406 101.410156 109.300781 99.589844 111.722656 99.152344 C 113.339844 98.859375 114.972656 98.746094 116.570312 98.347656 C 118.019531 97.984375 119.445312 97.496094 120.8125 96.902344 C 126.085938 94.609375 130.636719 90.457031 133.597656 85.546875 C 136.695312 80.421875 138.148438 74.464844 137.433594 68.496094 C 136.746094 62.804688 133.988281 57.355469 130.097656 53.179688 " fill-opacity="1" fill-rule="nonzero"/></g><path fill="#49d0d8" d="M 85.339844 117.96875 C 86.496094 121.246094 90.210938 122.671875 93.429688 121.753906 C 97.109375 120.703125 99.585938 117.285156 99.304688 113.433594 C 99.019531 109.589844 95.703125 106.453125 91.792969 106.71875 C 89.636719 106.867188 87.6875 108.042969 86.359375 109.722656 C 85.742188 110.503906 85.296875 111.445312 85.035156 112.402344 C 84.882812 112.976562 84.734375 113.570312 84.8125 114.164062 C 84.851562 114.433594 85.03125 117.09375 85.339844 117.96875 " fill-opacity="1" fill-rule="nonzero"/></svg>