<svg xmlns="http://www.w3.org/2000/svg" xmlns:xlink="http://www.w3.org/1999/xlink" width="200" zoomAndPan="magnify" viewBox="0 0 150 149.999998" height="200" preserveAspectRatio="xMidYMid meet" version="1.0"><defs><clipPath id="a271204c22"><path d="M 0 44.886719 L 150 44.886719 L 150 116.886719 L 0 116.886719 Z M 0 44.886719 " clip-rule="nonzero"/></clipPath></defs><g clip-path="url(#a271204c22)"><path fill="#ffffff" d="M 89.886719 44.890625 C 89.582031 44.886719 89.273438 44.890625 88.96875 44.902344 L 88.96875 44.90625 C 84.921875 45.097656 81.289062 46.945312 78.703125 49.753906 C 76.746094 47.972656 74.320312 46.707031 71.648438 46.152344 C 70.367188 45.890625 69.054688 45.792969 67.746094 45.871094 C 66.441406 45.949219 65.148438 46.195312 63.90625 46.609375 C 62.597656 47.042969 61.394531 47.660156 60.296875 48.40625 C 59.175781 47.914062 57.992188 47.535156 56.738281 47.328125 C 50.644531 46.335938 44.703125 49.300781 41.585938 54.285156 C 37.125 50.628906 31.808594 48.910156 26.828125 48.589844 C 26.347656 48.558594 25.871094 48.542969 25.402344 48.539062 C 23.980469 48.523438 22.582031 48.617188 21.207031 48.824219 C 15.605469 49.671875 10.859375 52.382812 7.410156 56.316406 C 4.230469 59.941406 2.628906 64.003906 1.773438 67.386719 C 0.0820312 74.070312 0.574219 80.105469 1.210938 84.339844 C 2.464844 92.660156 4.769531 99.726562 8.914062 105.484375 C 13.328125 111.617188 20.265625 116.160156 28.480469 116.105469 C 31.675781 116.085938 35.414062 115.484375 39.140625 113.753906 C 43.148438 114.578125 47.507812 113.429688 50.496094 110.324219 C 51.222656 109.574219 51.8125 108.738281 52.304688 107.863281 C 55.746094 109.980469 59.835938 111.320312 64.457031 111.367188 C 68.988281 111.417969 73.5 110.238281 77.414062 107.554688 C 79.082031 108.972656 81.0625 110.050781 83.296875 110.621094 C 86.910156 111.542969 90.59375 111.007812 93.730469 109.414062 C 93.84375 109.503906 93.953125 109.605469 94.066406 109.691406 C 95.546875 110.777344 96.972656 111.339844 96.417969 111.050781 C 97.566406 111.648438 98.683594 112.054688 99.328125 112.269531 C 100.816406 112.769531 102.210938 113.101562 103.5625 113.390625 C 106.34375 113.984375 109.503906 114.476562 112.871094 114.871094 C 119.328125 115.632812 126.527344 116.511719 133.929688 114.996094 C 141.9375 113.359375 147.242188 105.324219 145.601562 97.3125 C 144.535156 92.097656 140.75 88.046875 136.035156 86.296875 C 137.570312 84.878906 139.089844 83.480469 140.382812 82.25 C 141.957031 80.757812 143.316406 79.441406 144.550781 78.09375 C 145 77.609375 145.941406 76.578125 146.808594 75.28125 C 146.433594 75.84375 148.371094 72.886719 149.011719 70.429688 L 149.011719 70.425781 C 149.269531 69.433594 149.921875 65.652344 148.820312 62.109375 C 147.164062 56.789062 144.8125 54.460938 139.898438 52.550781 C 137.5 51.617188 135.160156 51.359375 135.601562 51.4375 C 134.609375 51.261719 133.488281 51.078125 132.226562 50.886719 C 129.695312 50.496094 126.609375 50.058594 123.578125 49.640625 C 117.511719 48.800781 111.675781 48.039062 111.675781 48.039062 L 111.671875 48.039062 C 110.964844 47.949219 110.253906 47.90625 109.542969 47.917969 C 106.527344 47.957031 103.695312 48.929688 101.332031 50.550781 C 98.59375 47.164062 94.445312 44.960938 89.882812 44.890625 Z M 82.828125 56.066406 L 82.84375 56.109375 C 82.84375 56.105469 82.839844 56.101562 82.839844 56.097656 C 82.839844 56.097656 82.828125 56.066406 82.828125 56.066406 Z M 39.542969 59.652344 C 39.542969 59.652344 39.539062 59.691406 39.539062 59.691406 C 39.539062 59.695312 39.535156 59.699219 39.535156 59.703125 Z M 39.542969 59.652344 " fill-opacity="1" fill-rule="nonzero"/></g><path fill="#ff66c4" d="M 25.90625 57.105469 C 24.589844 57.023438 23.296875 57.082031 22.074219 57.265625 C 18.582031 57.792969 15.410156 59.628906 13.34375 61.988281 C 11.273438 64.34375 10.179688 67.023438 9.535156 69.578125 C 8.242188 74.679688 8.585938 79.5625 9.136719 83.214844 C 10.265625 90.710938 12.265625 96.417969 15.351562 100.707031 C 18.4375 104.992188 23.140625 107.863281 28.039062 107.832031 C 31.90625 107.804688 37.332031 106.394531 41.019531 101.691406 C 44.707031 96.988281 46.007812 90.144531 44.789062 81.019531 C 43.652344 72.535156 41.328125 66.332031 37.148438 62.078125 C 34.011719 58.886719 29.855469 57.359375 25.90625 57.105469 Z M 26.175781 70.214844 C 26.714844 70.355469 27.160156 70.683594 27.761719 71.296875 C 28.964844 72.519531 30.828125 75.894531 31.746094 82.761719 C 32.691406 89.832031 31.390625 92.652344 30.667969 93.574219 C 29.945312 94.496094 29.148438 94.667969 27.953125 94.675781 C 27.789062 94.675781 27.34375 94.847656 26.027344 93.019531 C 24.714844 91.195312 23.070312 87.375 22.144531 81.253906 C 21.78125 78.832031 21.707031 75.101562 22.289062 72.804688 C 22.578125 71.652344 22.996094 70.933594 23.234375 70.664062 C 23.472656 70.390625 23.402344 70.371094 24.035156 70.273438 C 25.007812 70.128906 25.640625 70.078125 26.175781 70.214844 Z M 26.175781 70.214844 " fill-opacity="1" fill-rule="nonzero"/><path fill="#ff66c4" d="M 30.484375 87.789062 C 29.425781 87.808594 28.53125 88.203125 27.796875 88.964844 C 27.441406 89.332031 27.171875 89.75 26.988281 90.226562 C 26.800781 90.699219 26.710938 91.191406 26.722656 91.699219 C 26.730469 92.207031 26.839844 92.695312 27.042969 93.160156 C 27.246094 93.628906 27.53125 94.039062 27.898438 94.390625 L 38.632812 104.726562 C 39 105.078125 39.417969 105.347656 39.894531 105.535156 C 40.367188 105.71875 40.859375 105.808594 41.367188 105.796875 C 41.875 105.789062 42.363281 105.683594 42.828125 105.480469 C 43.296875 105.273438 43.707031 104.988281 44.058594 104.625 C 44.410156 104.257812 44.679688 103.835938 44.867188 103.363281 C 45.050781 102.890625 45.140625 102.398438 45.132812 101.890625 C 45.121094 101.378906 45.015625 100.894531 44.8125 100.425781 C 44.609375 99.960938 44.324219 99.550781 43.957031 99.199219 L 33.21875 88.863281 C 32.457031 88.128906 31.546875 87.769531 30.484375 87.789062 Z M 30.484375 87.789062 " fill-opacity="1" fill-rule="nonzero"/><path fill="#ffb84d" d="M 69.570312 54.515625 C 68.417969 54.277344 67.285156 54.34375 66.167969 54.714844 C 65.761719 54.851562 65.367188 55.023438 64.992188 55.238281 C 64.617188 55.449219 64.265625 55.699219 63.9375 55.980469 C 63.613281 56.265625 63.316406 56.574219 63.050781 56.917969 C 62.785156 57.257812 62.554688 57.621094 62.363281 58.007812 C 62.167969 58.394531 62.011719 58.792969 61.898438 59.210938 C 61.785156 59.625 61.710938 60.050781 61.679688 60.480469 C 61.648438 60.910156 61.660156 61.339844 61.714844 61.769531 C 61.765625 62.199219 61.859375 62.617188 61.996094 63.027344 C 61.996094 63.027344 64.769531 71.566406 65.644531 79.519531 C 66.082031 83.496094 65.871094 87.28125 65.316406 88.933594 C 65.039062 89.757812 64.800781 89.941406 64.835938 89.910156 C 64.867188 89.882812 65.054688 89.945312 64.300781 89.9375 C 62.699219 89.921875 62.714844 89.839844 61.742188 88.007812 C 60.769531 86.175781 59.960938 82.632812 59.699219 78.863281 C 59.179688 71.328125 60.429688 63.304688 60.429688 63.304688 C 60.5 62.878906 60.527344 62.449219 60.511719 62.019531 C 60.5 61.585938 60.441406 61.160156 60.34375 60.742188 C 60.242188 60.320312 60.105469 59.914062 59.925781 59.519531 C 59.746094 59.128906 59.53125 58.753906 59.277344 58.40625 C 59.027344 58.054688 58.742188 57.730469 58.425781 57.4375 C 58.113281 57.140625 57.769531 56.882812 57.402344 56.652344 C 57.035156 56.425781 56.648438 56.238281 56.246094 56.085938 C 55.839844 55.933594 55.425781 55.824219 55 55.753906 C 54.574219 55.683594 54.144531 55.65625 53.710938 55.671875 C 53.28125 55.6875 52.855469 55.742188 52.433594 55.84375 C 52.011719 55.941406 51.605469 56.082031 51.214844 56.257812 C 50.820312 56.4375 50.449219 56.652344 50.097656 56.90625 C 49.746094 57.15625 49.425781 57.441406 49.128906 57.757812 C 48.835938 58.074219 48.574219 58.414062 48.347656 58.78125 C 48.121094 59.148438 47.929688 59.535156 47.777344 59.941406 C 47.628906 60.34375 47.515625 60.761719 47.449219 61.1875 C 47.449219 61.1875 45.914062 70.214844 46.574219 79.773438 C 46.90625 84.550781 47.675781 89.566406 50.121094 94.171875 C 52.566406 98.78125 57.835938 103.027344 64.164062 103.09375 C 67.375 103.128906 70.660156 102.109375 73.082031 100.160156 C 75.503906 98.210938 76.941406 95.628906 77.785156 93.128906 C 79.46875 88.128906 79.265625 83.011719 78.722656 78.078125 C 77.636719 68.210938 74.484375 58.886719 74.484375 58.886719 C 74.300781 58.335938 74.054688 57.824219 73.734375 57.339844 C 73.417969 56.859375 73.042969 56.425781 72.613281 56.042969 C 72.179688 55.65625 71.707031 55.335938 71.191406 55.078125 C 70.675781 54.820312 70.132812 54.632812 69.570312 54.515625 Z M 69.570312 54.515625 " fill-opacity="1" fill-rule="nonzero"/><path fill="#5bdde8" d="M 88.984375 53.429688 C 88.550781 53.449219 88.125 53.511719 87.707031 53.617188 C 87.289062 53.71875 86.882812 53.863281 86.492188 54.046875 C 86.101562 54.230469 85.730469 54.453125 85.386719 54.710938 C 85.039062 54.964844 84.71875 55.253906 84.429688 55.574219 C 84.136719 55.894531 83.878906 56.238281 83.660156 56.609375 C 83.4375 56.976562 83.25 57.367188 83.105469 57.773438 C 82.957031 58.179688 82.855469 58.597656 82.789062 59.023438 C 82.726562 59.449219 82.703125 59.878906 82.722656 60.3125 C 82.722656 60.3125 83.492188 81.847656 80.238281 94.605469 C 80.132812 95.023438 80.066406 95.449219 80.046875 95.882812 C 80.023438 96.3125 80.042969 96.742188 80.101562 97.167969 C 80.164062 97.597656 80.265625 98.015625 80.410156 98.421875 C 80.554688 98.828125 80.738281 99.21875 80.957031 99.589844 C 81.179688 99.960938 81.433594 100.308594 81.722656 100.628906 C 82.007812 100.949219 82.328125 101.238281 82.671875 101.496094 C 83.019531 101.757812 83.386719 101.980469 83.777344 102.164062 C 84.164062 102.351562 84.570312 102.5 84.988281 102.605469 C 85.40625 102.710938 85.832031 102.777344 86.261719 102.800781 C 86.695312 102.824219 87.125 102.804688 87.550781 102.742188 C 87.980469 102.679688 88.394531 102.578125 88.804688 102.433594 C 89.210938 102.289062 89.601562 102.109375 89.972656 101.886719 C 90.34375 101.667969 90.6875 101.414062 91.011719 101.125 C 91.332031 100.835938 91.621094 100.519531 91.878906 100.171875 C 92.140625 99.824219 92.363281 99.457031 92.546875 99.070312 C 92.734375 98.679688 92.882812 98.273438 92.988281 97.855469 C 97.15625 81.503906 95.867188 59.6875 95.867188 59.6875 C 95.84375 59.253906 95.78125 58.832031 95.679688 58.410156 C 95.574219 57.992188 95.429688 57.585938 95.246094 57.195312 C 95.0625 56.804688 94.839844 56.4375 94.585938 56.089844 C 94.328125 55.742188 94.039062 55.421875 93.71875 55.132812 C 93.402344 54.84375 93.054688 54.585938 92.6875 54.363281 C 92.316406 54.140625 91.925781 53.957031 91.519531 53.808594 C 91.113281 53.664062 90.699219 53.558594 90.269531 53.496094 C 89.84375 53.429688 89.414062 53.410156 88.984375 53.429688 Z M 88.984375 53.429688 " fill-opacity="1" fill-rule="nonzero"/><path fill="#6285dc" d="M 110.210938 56.503906 C 109.78125 56.449219 109.351562 56.433594 108.921875 56.464844 C 108.488281 56.492188 108.066406 56.5625 107.648438 56.675781 C 107.230469 56.789062 106.828125 56.941406 106.441406 57.132812 C 106.054688 57.324219 105.691406 57.550781 105.347656 57.816406 C 105.007812 58.078125 104.691406 58.371094 104.410156 58.699219 C 104.125 59.023438 103.875 59.371094 103.660156 59.746094 C 103.445312 60.121094 103.265625 60.511719 103.128906 60.921875 C 102.992188 61.332031 102.894531 61.75 102.835938 62.179688 C 102.78125 62.605469 102.769531 63.035156 102.796875 63.46875 C 102.828125 63.898438 102.898438 64.324219 103.007812 64.738281 C 103.121094 65.15625 103.273438 65.558594 103.464844 65.945312 C 103.65625 66.332031 103.886719 66.699219 104.148438 67.039062 C 104.410156 67.382812 104.707031 67.695312 105.03125 67.980469 C 105.355469 68.265625 105.707031 68.515625 106.082031 68.730469 C 106.453125 68.945312 106.847656 69.121094 107.257812 69.257812 C 107.664062 69.398438 108.085938 69.496094 108.511719 69.550781 C 108.511719 69.550781 114.285156 70.300781 120.238281 71.125 C 120.289062 71.132812 120.328125 71.136719 120.375 71.144531 C 118.285156 73.070312 116.441406 74.785156 114.113281 76.910156 C 110.007812 80.648438 105.871094 84.425781 102.726562 87.453125 C 101.152344 88.96875 99.84375 90.273438 98.792969 91.445312 C 98.265625 92.03125 97.816406 92.542969 97.292969 93.320312 C 97.03125 93.707031 96.734375 94.125 96.386719 95.046875 C 96.042969 95.96875 95.117188 98.070312 96.925781 101.019531 C 98.246094 103.167969 99.222656 103.367188 99.898438 103.71875 C 100.574219 104.066406 101.09375 104.253906 101.621094 104.429688 C 102.671875 104.785156 103.726562 105.042969 104.9375 105.300781 C 107.351562 105.816406 110.304688 106.28125 113.472656 106.65625 C 119.804688 107.402344 126.316406 108.027344 131.859375 106.890625 C 132.285156 106.804688 132.695312 106.679688 133.09375 106.511719 C 133.488281 106.34375 133.867188 106.140625 134.226562 105.898438 C 134.582031 105.65625 134.914062 105.378906 135.21875 105.074219 C 135.523438 104.765625 135.792969 104.433594 136.03125 104.070312 C 136.269531 103.710938 136.46875 103.332031 136.632812 102.929688 C 136.796875 102.53125 136.917969 102.121094 137 101.695312 C 137.082031 101.269531 137.121094 100.84375 137.117188 100.410156 C 137.117188 99.980469 137.070312 99.550781 136.984375 99.128906 C 136.898438 98.707031 136.773438 98.292969 136.605469 97.898438 C 136.4375 97.5 136.230469 97.121094 135.988281 96.761719 C 135.746094 96.40625 135.472656 96.074219 135.167969 95.769531 C 134.859375 95.46875 134.527344 95.195312 134.164062 94.957031 C 133.804688 94.71875 133.425781 94.519531 133.023438 94.355469 C 132.625 94.195312 132.210938 94.070312 131.789062 93.988281 C 131.363281 93.90625 130.9375 93.867188 130.503906 93.871094 C 130.074219 93.871094 129.644531 93.917969 129.222656 94.003906 C 127.75 94.304688 121.023438 94.25 115.421875 93.625 C 117.839844 91.371094 120.191406 89.167969 122.972656 86.632812 C 127.066406 82.902344 131.15625 79.1875 134.210938 76.289062 C 135.738281 74.835938 136.988281 73.617188 137.980469 72.535156 C 138.476562 71.996094 138.886719 71.566406 139.441406 70.734375 C 139.722656 70.316406 140.105469 69.933594 140.492188 68.4375 C 140.6875 67.691406 140.960938 66.503906 140.414062 64.738281 C 139.863281 62.972656 137.996094 61.105469 136.46875 60.511719 C 134.5625 59.769531 134.613281 59.996094 133.738281 59.839844 C 132.859375 59.683594 131.792969 59.511719 130.566406 59.320312 C 128.113281 58.945312 125.054688 58.511719 122.042969 58.09375 C 116.019531 57.261719 110.210938 56.503906 110.210938 56.503906 Z M 110.210938 56.503906 " fill-opacity="1" fill-rule="nonzero"/></svg>