<svg xmlns="http://www.w3.org/2000/svg" xmlns:xlink="http://www.w3.org/1999/xlink" width="200" zoomAndPan="magnify" viewBox="0 0 150 149.999998" height="200" preserveAspectRatio="xMidYMid meet" version="1.0"><defs><clipPath id="5eb560a3f1"><path d="M 19 64 L 131.972656 64 L 131.972656 105 L 19 105 Z M 19 64 " clip-rule="nonzero"/></clipPath><clipPath id="ac185a41ef"><path d="M 23 39.429688 L 124 39.429688 L 124 84 L 23 84 Z M 23 39.429688 " clip-rule="nonzero"/></clipPath><clipPath id="bdee0ff698"><path d="M 37 80 L 67 80 L 67 110.679688 L 37 110.679688 Z M 37 80 " clip-rule="nonzero"/></clipPath></defs><rect x="-15" width="180" fill="#ffffff" y="-15" height="179.999997" fill-opacity="1"/><rect x="-15" width="180" fill="#ffffff" y="-15" height="179.999997" fill-opacity="1"/><path fill="#ffe4bb" d="M 126.601562 70.136719 C 128.421875 71.398438 127.703125 74.269531 127.695312 76.167969 C 127.519531 78.402344 127.769531 80.777344 126.859375 82.875 C 126.320312 84.03125 125.382812 84.933594 124.382812 85.703125 C 123.308594 86.523438 122.207031 87.324219 121.042969 88.011719 C 118.457031 89.410156 115.847656 90.765625 113.269531 92.1875 C 110.050781 93.796875 106.550781 94.738281 103.195312 96.023438 C 101.152344 96.789062 99.214844 97.792969 97.214844 98.648438 C 95.460938 99.375 93.628906 99.871094 91.828125 100.460938 C 89.285156 101.308594 86.578125 102 83.882812 101.652344 C 82.328125 101.515625 82.257812 100.140625 82.386719 98.886719 C 82.445312 98.210938 82.519531 97.539062 82.617188 96.867188 C 83.074219 94.21875 83.496094 91.53125 83.25 88.847656 C 82.695312 85.019531 83.265625 81.167969 83.101562 77.324219 C 82.878906 74.289062 82.964844 71.246094 82.972656 68.207031 C 82.675781 68.277344 82.265625 68.382812 82.058594 68.074219 C 81.988281 67.972656 81.96875 67.835938 82.027344 67.734375 C 82.195312 67.335938 82.648438 67.300781 83.011719 67.183594 C 82.988281 66.125 84.476562 65.320312 85.125 66.335938 C 86.609375 65.832031 87.933594 64.976562 89.347656 64.316406 C 91.628906 63.320312 93.933594 62.363281 96.195312 61.316406 C 99.136719 60.035156 102.234375 59.007812 105.292969 58.128906 C 108.4375 57.324219 111.246094 55.398438 114.515625 55.085938 C 115.289062 54.996094 116.113281 54.773438 116.84375 55.148438 C 118.921875 56.339844 119.761719 59 119.933594 61.265625 C 119.996094 62.46875 119.554688 63.480469 119.300781 64.476562 C 119.179688 66.066406 120.042969 67.582031 119.816406 69.183594 C 121.324219 69.09375 122.804688 69.441406 124.289062 69.652344 C 125.066406 69.761719 125.910156 69.71875 126.605469 70.140625 Z M 126.601562 70.136719 " fill-opacity="1" fill-rule="nonzero"/><path fill="#faf1de" d="M 83.667969 66.070312 C 84.234375 66.523438 84.394531 67.246094 84.335938 67.941406 C 84.3125 68.722656 84.269531 69.5 84.253906 70.28125 C 84.199219 72.386719 84.019531 74.484375 84.039062 76.589844 C 84.03125 77.660156 84.28125 78.722656 84.148438 79.789062 C 83.988281 81.390625 82.667969 82.382812 81.082031 82.015625 C 79.464844 81.59375 77.835938 81.214844 76.253906 80.679688 C 75.125 80.292969 74.039062 79.792969 72.96875 79.269531 C 71 78.289062 68.917969 77.566406 66.847656 76.839844 C 65.121094 76.230469 63.421875 75.519531 61.621094 75.144531 C 59.152344 74.683594 56.644531 74.453125 54.191406 73.902344 C 52.078125 73.421875 49.964844 72.914062 47.898438 72.257812 C 46.402344 71.789062 44.953125 71.183594 43.46875 70.683594 C 41.128906 70.003906 38.707031 69.625 36.390625 68.847656 C 33.882812 68.152344 31.484375 67.144531 29.046875 66.257812 C 26.632812 65.453125 24.332031 64.703125 25.296875 61.613281 C 25.800781 59.1875 26.152344 56.734375 26.472656 54.28125 C 26.542969 53.839844 26.359375 53.398438 26.585938 52.980469 C 26.550781 52.554688 26.871094 51.789062 27.382812 52.113281 C 27.824219 51.90625 28.378906 51.917969 28.757812 52.253906 C 28.976562 52.464844 29.105469 52.773438 29.433594 52.832031 C 30.941406 53.238281 32.5 53.402344 34.011719 53.796875 C 35.902344 54.304688 37.824219 54.6875 39.726562 55.148438 C 41.714844 55.609375 43.746094 55.878906 45.707031 56.464844 C 47.679688 57.0625 49.601562 57.8125 51.578125 58.410156 C 52.679688 58.742188 53.792969 59.046875 54.886719 59.410156 C 57.492188 60.316406 60.132812 61.140625 62.878906 61.503906 C 66.714844 62.097656 70.289062 63.765625 74.128906 64.347656 C 75.777344 64.660156 77.441406 64.855469 79.109375 65.003906 C 79.980469 65.09375 80.847656 65.214844 81.707031 65.363281 C 82.386719 65.492188 83.121094 65.621094 83.667969 66.074219 Z M 83.667969 66.070312 " fill-opacity="1" fill-rule="nonzero"/><path fill="#faf1de" d="M 83.800781 87.921875 C 84.011719 88.621094 83.828125 89.371094 83.828125 90.09375 C 83.808594 90.625 83.792969 91.15625 83.773438 91.6875 C 83.703125 94.1875 83.90625 96.734375 83.316406 99.1875 C 82.789062 101.214844 81.871094 103.8125 79.261719 103.066406 C 75.207031 102.160156 71.332031 100.601562 67.332031 99.484375 C 63.449219 98.40625 59.519531 97.46875 55.765625 95.964844 C 53.601562 95.144531 51.367188 94.519531 49.261719 93.535156 C 47.636719 92.804688 46.027344 92.027344 44.363281 91.378906 C 42.953125 90.8125 41.476562 90.445312 40.027344 89.988281 C 36.503906 88.914062 33.347656 86.957031 30.003906 85.445312 C 27.535156 84.175781 23.480469 82.953125 21.824219 80.730469 C 20.347656 78.386719 22.144531 75.035156 23.011719 72.730469 C 23.8125 70.824219 24.433594 68.808594 24.386719 66.722656 C 24.390625 66.609375 24.417969 66.472656 24.515625 66.402344 C 24.980469 66.128906 25.308594 67.328125 25.355469 67.644531 C 25.953125 67.191406 26.539062 67.34375 27.1875 67.566406 C 27.742188 67.738281 28.292969 67.933594 28.839844 68.125 C 30.183594 68.589844 31.519531 69.082031 32.835938 69.621094 C 35.632812 70.804688 38.519531 71.785156 41.40625 72.734375 C 45.1875 73.890625 48.84375 75.402344 52.625 76.546875 C 54.292969 77.101562 55.914062 77.78125 57.558594 78.40625 C 59.1875 79.039062 60.863281 79.5625 62.453125 80.285156 C 64.808594 81.371094 66.875 82.976562 69.1875 84.136719 C 70.890625 84.953125 72.65625 85.613281 74.449219 86.199219 C 76.449219 86.734375 78.460938 87.425781 80.546875 87.488281 C 81.082031 87.472656 81.617188 87.445312 82.136719 87.300781 C 82.753906 87.058594 83.566406 87.238281 83.800781 87.921875 Z M 83.800781 87.921875 " fill-opacity="1" fill-rule="nonzero"/><path fill="#ffd392" d="M 61.664062 67.089844 C 59.789062 66.664062 57.929688 66.152344 56.039062 65.796875 C 55.082031 65.675781 54.144531 65.445312 53.210938 65.222656 C 52.226562 64.984375 51.21875 64.855469 50.242188 64.601562 C 49.359375 64.378906 48.558594 63.929688 47.691406 63.65625 C 46.589844 63.289062 45.539062 62.789062 44.460938 62.363281 C 43.195312 62.027344 41.9375 61.652344 40.714844 61.183594 C 38.984375 60.414062 37.066406 60.234375 35.285156 59.605469 C 34.199219 59.15625 33.039062 58.925781 31.9375 58.519531 C 31.351562 58.234375 30.6875 58.101562 30.140625 57.753906 C 29.972656 57.691406 29.796875 57.496094 29.917969 57.316406 C 29.949219 57.265625 30.089844 57.222656 30.085938 57.316406 C 30.957031 57.726562 31.886719 57.957031 32.8125 58.21875 C 34.660156 58.835938 36.546875 59.3125 38.421875 59.835938 C 41.46875 60.847656 44.519531 61.835938 47.535156 62.925781 C 48.34375 63.25 49.183594 63.453125 50.027344 63.664062 C 50.722656 63.863281 51.410156 64.117188 52.121094 64.261719 C 53.183594 64.480469 54.273438 64.503906 55.335938 64.714844 C 57.503906 65.296875 59.707031 65.738281 61.878906 66.308594 C 62.347656 66.421875 62.113281 67.191406 61.664062 67.09375 Z M 61.664062 67.089844 " fill-opacity="1" fill-rule="nonzero"/><path fill="#ffd392" d="M 65.34375 73.257812 C 62.824219 72.609375 60.257812 72.179688 57.75 71.488281 C 54.679688 70.601562 51.636719 69.542969 48.589844 68.636719 C 47.066406 68.066406 45.582031 67.402344 44.035156 66.890625 C 42.8125 66.378906 41.574219 65.90625 40.304688 65.503906 C 39.328125 65.164062 38.398438 64.710938 37.464844 64.269531 C 36.527344 63.921875 35.609375 63.539062 34.695312 63.140625 C 34.457031 62.988281 34.101562 62.941406 33.988281 62.660156 C 33.945312 62.515625 34.140625 62.460938 34.253906 62.460938 C 34.609375 62.523438 34.964844 62.625 35.292969 62.773438 C 36.078125 63.007812 36.824219 63.339844 37.578125 63.65625 C 39.101562 64.160156 40.609375 64.6875 42.089844 65.308594 C 44.695312 66.070312 47.210938 67.089844 49.714844 68.128906 C 50.65625 68.542969 51.636719 68.75 52.609375 69.023438 C 54.230469 69.535156 55.777344 70.25 57.367188 70.839844 C 58.308594 71.078125 59.226562 71.398438 60.167969 71.636719 C 60.855469 71.796875 61.554688 71.886719 62.230469 72.09375 C 63.296875 72.375 64.398438 72.523438 65.460938 72.835938 C 65.710938 72.898438 65.589844 73.3125 65.34375 73.257812 Z M 65.34375 73.257812 " fill-opacity="1" fill-rule="nonzero"/><path fill="#ffd392" d="M 68.027344 74.164062 C 67.660156 73.964844 67.816406 73.679688 68.1875 73.695312 C 68.546875 73.742188 68.335938 74.3125 68.027344 74.164062 Z M 68.027344 74.164062 " fill-opacity="1" fill-rule="nonzero"/><path fill="#ffd392" d="M 89.050781 69.394531 C 88.695312 68.960938 90.214844 68.363281 90.5 68.226562 C 91.144531 67.878906 91.789062 67.527344 92.457031 67.222656 C 93.851562 66.640625 95.152344 65.871094 96.542969 65.273438 C 97.894531 64.679688 99.289062 64.203125 100.664062 63.675781 C 102.253906 63.011719 103.84375 62.347656 105.5 61.851562 C 106 61.765625 107.195312 61.164062 107.320312 61.941406 C 107.367188 62.238281 107.164062 62.550781 106.867188 62.617188 C 105.722656 62.910156 104.625 63.363281 103.492188 63.699219 C 102.4375 64.015625 101.378906 64.320312 100.359375 64.738281 C 98.265625 65.660156 96.121094 66.441406 94 67.292969 C 92.90625 67.875 91.796875 68.425781 90.664062 68.921875 C 90.363281 69.074219 90.070312 69.25 89.742188 69.332031 C 89.519531 69.410156 89.269531 69.570312 89.046875 69.394531 Z M 89.050781 69.394531 " fill-opacity="1" fill-rule="nonzero"/><path fill="#ffd392" d="M 91.289062 73.691406 C 91.242188 73.675781 91.195312 73.648438 91.183594 73.597656 C 91.132812 73.058594 91.882812 72.804688 92.277344 72.605469 C 93.179688 72.082031 94.164062 71.742188 95.125 71.335938 C 96.289062 70.78125 97.460938 70.230469 98.671875 69.777344 C 99.882812 69.328125 101.101562 68.910156 102.308594 68.449219 C 103.066406 68.183594 103.816406 67.859375 104.621094 67.765625 C 105.289062 67.75 105.183594 68.746094 104.585938 68.800781 C 101.292969 69.5 98.238281 71 95.0625 72.078125 C 94.15625 72.484375 93.261719 72.917969 92.359375 73.328125 C 92.03125 73.503906 91.675781 73.757812 91.289062 73.691406 Z M 91.289062 73.691406 " fill-opacity="1" fill-rule="nonzero"/><path fill="#ffd392" d="M 87.894531 90.695312 C 87.398438 90.414062 87.996094 89.847656 88.367188 89.800781 C 88.75 89.644531 89.085938 89.398438 89.472656 89.246094 C 91.039062 88.601562 92.554688 87.847656 94.160156 87.296875 C 96.414062 86.214844 98.703125 85.214844 101.050781 84.359375 C 102.667969 83.621094 104.292969 82.90625 105.988281 82.371094 C 107.644531 81.785156 109.285156 81.160156 110.992188 80.738281 C 112.078125 80.457031 113.171875 80.191406 114.25 79.875 C 115.441406 79.550781 116.601562 79.011719 117.851562 79.011719 C 118.660156 78.988281 118.535156 80.214844 117.8125 80.265625 C 116.960938 80.34375 116.128906 80.582031 115.296875 80.789062 C 112.597656 81.496094 110.011719 82.398438 107.332031 83.125 C 105.273438 83.796875 103.148438 84.601562 101.0625 85.316406 C 98.851562 86.292969 96.648438 87.273438 94.371094 88.097656 C 92.894531 88.855469 91.34375 89.425781 89.835938 90.113281 C 89.433594 90.304688 88.992188 90.40625 88.582031 90.582031 C 88.375 90.691406 88.125 90.8125 87.894531 90.695312 Z M 87.894531 90.695312 " fill-opacity="1" fill-rule="nonzero"/><path fill="#ffd392" d="M 92.265625 94.867188 C 92.210938 94.507812 92.492188 94.222656 92.828125 94.164062 C 93.207031 94.050781 93.582031 93.921875 93.945312 93.761719 C 96.574219 92.613281 99.136719 91.464844 101.738281 90.277344 C 104.199219 89.339844 106.550781 88.148438 109.003906 87.1875 C 110.265625 86.582031 111.59375 86.140625 112.914062 85.683594 C 113.746094 85.339844 114.578125 84.996094 115.433594 84.710938 C 116.882812 84.351562 118.09375 83.757812 119.5 83.375 C 119.929688 83.191406 120.386719 83.101562 120.839844 83 C 121 82.945312 121.164062 82.890625 121.320312 82.980469 C 121.632812 83.140625 121.339844 83.480469 121.105469 83.546875 C 120.601562 83.65625 120.140625 83.910156 119.632812 84.011719 C 118.917969 84.285156 118.195312 84.535156 117.453125 84.726562 C 116.707031 84.980469 115.996094 85.316406 115.257812 85.582031 C 113.855469 86.058594 112.496094 86.558594 111.179688 87.214844 C 108.917969 88.160156 106.675781 89.152344 104.402344 90.066406 C 102.464844 91.082031 100.46875 91.972656 98.492188 92.902344 C 97.097656 93.570312 95.6875 94.199219 94.253906 94.769531 C 93.78125 94.957031 93.296875 95.117188 92.808594 95.253906 C 92.558594 95.324219 92.300781 95.121094 92.265625 94.863281 Z M 92.265625 94.867188 " fill-opacity="1" fill-rule="nonzero"/><path fill="#ffd392" d="M 63.351562 87.105469 C 62.023438 86.667969 60.714844 86.175781 59.464844 85.542969 C 58.226562 84.96875 56.933594 84.523438 55.699219 83.941406 C 53.621094 83.078125 51.691406 81.894531 49.519531 81.265625 C 48.015625 80.730469 46.503906 80.203125 44.972656 79.738281 C 43.828125 79.359375 42.714844 78.890625 41.558594 78.554688 C 39.378906 77.925781 37.207031 77.242188 35.085938 76.445312 C 33.671875 75.992188 32.257812 75.632812 30.894531 75.054688 C 29.914062 74.679688 28.871094 74.527344 27.941406 74.027344 C 27.539062 73.878906 26.875 73.699219 27.105469 73.136719 C 27.488281 72.789062 27.859375 73.199219 28.230469 73.34375 C 28.949219 73.574219 29.632812 73.875 30.328125 74.164062 C 31.320312 74.546875 32.371094 74.746094 33.371094 75.113281 C 34.691406 75.648438 36.0625 75.984375 37.425781 76.363281 C 38.980469 76.890625 40.5625 77.304688 42.101562 77.875 C 43.738281 78.398438 45.40625 78.796875 47.023438 79.378906 C 48.523438 79.847656 50.066406 80.332031 51.46875 81.015625 C 53.699219 81.894531 55.863281 82.925781 58.050781 83.910156 C 59.898438 84.820312 61.972656 85.222656 63.75 86.269531 C 64.179688 86.519531 63.816406 87.273438 63.351562 87.105469 Z M 63.351562 87.105469 " fill-opacity="1" fill-rule="nonzero"/><path fill="#ffd392" d="M 74.738281 96.117188 C 71.578125 95.363281 68.554688 94.148438 65.492188 93.074219 C 64.289062 92.636719 63.0625 92.25 61.914062 91.691406 C 60.65625 91.234375 59.453125 90.5625 58.265625 89.980469 C 57.292969 89.523438 56.277344 89.167969 55.257812 88.835938 C 54.183594 88.527344 53.152344 88.105469 52.105469 87.714844 C 50.585938 87.183594 49.054688 86.703125 47.558594 86.101562 C 45.914062 85.355469 44.226562 84.71875 42.570312 84.003906 C 41.390625 83.527344 40.246094 82.980469 39.089844 82.453125 C 37.730469 81.941406 36.453125 81.234375 35.125 80.664062 C 34.582031 80.488281 34.066406 80.210938 33.542969 80.015625 C 33.257812 79.957031 32.976562 79.875 32.699219 79.785156 C 32.496094 79.777344 32.285156 79.726562 32.160156 79.554688 C 32.132812 79.441406 32.300781 79.363281 32.390625 79.324219 C 32.527344 79.273438 32.683594 79.324219 32.820312 79.367188 C 33.472656 79.507812 34.070312 79.804688 34.703125 80 C 36.242188 80.707031 37.84375 81.261719 39.363281 82.007812 C 40.957031 82.621094 42.554688 83.234375 44.140625 83.871094 C 46.308594 84.847656 48.585938 85.558594 50.816406 86.375 C 52.160156 86.890625 53.585938 87.136719 54.9375 87.628906 C 55.78125 87.945312 56.597656 88.347656 57.433594 88.6875 C 58.589844 89.191406 59.820312 89.523438 60.949219 90.089844 C 62.527344 91.039062 64.285156 91.609375 65.984375 92.296875 C 68.675781 93.332031 71.515625 93.898438 74.269531 94.742188 C 74.628906 94.890625 75.101562 94.847656 75.363281 95.160156 C 75.632812 95.570312 75.230469 96.230469 74.738281 96.121094 Z M 74.738281 96.117188 " fill-opacity="1" fill-rule="nonzero"/><g clip-path="url(#5eb560a3f1)"><path fill="#ffbbc4" d="M 128.03125 66.875 C 131.929688 68.324219 131.238281 74.1875 130.558594 77.464844 C 130.054688 79.511719 129.859375 81.640625 129.097656 83.617188 C 127.832031 87.03125 124.453125 89.058594 121.210938 90.296875 C 119.808594 90.816406 118.386719 91.292969 117.039062 91.941406 C 114.910156 92.96875 112.714844 93.847656 110.5 94.660156 C 109.285156 95.125 108.09375 95.644531 106.875 96.105469 C 105.300781 96.710938 103.65625 97.117188 102.078125 97.710938 C 101.039062 98.113281 100.058594 98.648438 99.046875 99.109375 C 96.28125 100.320312 93.464844 101.414062 90.628906 102.449219 C 87.027344 103.902344 86.074219 104.242188 82.085938 104.03125 C 79.875 103.972656 77.640625 103.917969 75.476562 103.40625 C 73.96875 103.019531 72.507812 102.449219 71.019531 101.988281 C 69.457031 101.484375 67.894531 100.996094 66.371094 100.402344 C 64.21875 99.601562 61.992188 98.996094 59.90625 98.03125 C 57.367188 96.886719 54.625 96.34375 52 95.433594 C 50.902344 95.042969 49.800781 94.664062 48.679688 94.355469 C 46.425781 93.730469 44.09375 93.410156 41.898438 92.589844 C 40.910156 92.230469 39.949219 91.808594 38.984375 91.394531 C 36.816406 90.554688 34.769531 89.476562 32.769531 88.304688 C 30.164062 86.925781 27.554688 85.554688 25.003906 84.078125 C 24.59375 83.824219 24.195312 83.550781 23.761719 83.332031 C 22.792969 83.113281 21.804688 83.035156 20.828125 82.859375 C 20.449219 82.789062 20.035156 82.644531 19.820312 82.304688 C 19.597656 81.964844 19.632812 81.511719 19.851562 81.179688 C 20.515625 80.105469 23.257812 81.210938 24.289062 81.40625 C 27.472656 82.296875 30.566406 83.554688 33.527344 85.019531 C 34.949219 85.789062 36.351562 86.589844 37.820312 87.269531 C 40.808594 88.636719 44.011719 89.433594 47.078125 90.605469 C 48.925781 91.308594 50.703125 92.175781 52.578125 92.8125 C 55.851562 93.964844 59.097656 94.558594 62.273438 95.90625 C 64.71875 96.882812 67.109375 98.019531 69.65625 98.71875 C 71.582031 99.253906 73.539062 99.644531 75.457031 100.210938 C 77.730469 100.808594 80.039062 101.480469 82.40625 101.460938 C 84.066406 101.375 85.667969 100.90625 87.277344 100.53125 C 89.613281 100.027344 91.683594 99.222656 93.8125 98.234375 C 96.15625 97.265625 98.515625 96.328125 100.839844 95.316406 C 102.179688 94.734375 103.511719 94.136719 104.796875 93.445312 C 107.226562 92.304688 109.605469 91.207031 112.03125 90.074219 C 114.46875 88.832031 116.984375 87.769531 119.46875 86.640625 C 120.265625 86.265625 121.054688 85.878906 121.839844 85.484375 C 122.746094 85.003906 123.742188 84.625 124.441406 83.847656 C 126.441406 81.816406 127.234375 78.894531 127.488281 76.125 C 127.484375 74.566406 127.285156 73.242188 127.152344 71.847656 C 125.691406 72.5625 124.320312 73.453125 122.839844 74.128906 C 121.414062 74.808594 119.878906 75.234375 118.375 75.699219 C 115.8125 76.507812 113.324219 77.527344 110.757812 78.320312 C 107.015625 79.429688 103.578125 81.207031 100.019531 82.667969 C 97.480469 83.585938 95.082031 84.851562 92.546875 85.777344 C 91.355469 86.207031 90.121094 86.492188 88.914062 86.878906 C 87.765625 87.238281 86.640625 87.679688 85.488281 88.03125 C 83.453125 88.652344 81.304688 88.949219 79.179688 88.742188 C 77.058594 88.65625 75.148438 87.71875 73.296875 86.765625 C 72.292969 86.300781 71.25 85.929688 70.199219 85.585938 C 66.945312 84.441406 63.730469 83.171875 60.503906 81.945312 C 56.929688 80.332031 53.335938 78.699219 49.546875 77.65625 C 47.085938 76.960938 44.773438 75.859375 42.371094 75 C 38.214844 73.679688 33.988281 72.53125 29.925781 70.929688 C 28.070312 70.121094 26.214844 69.304688 24.421875 68.371094 C 23.472656 67.886719 22.828125 66.617188 23.503906 65.660156 C 24.25 64.605469 25.75 64.75 26.847656 65.070312 C 27.402344 65.222656 27.929688 65.445312 28.371094 65.8125 C 30.933594 66.628906 33.519531 67.375 36.085938 68.195312 C 36.902344 68.519531 36.777344 69.589844 36.21875 70.042969 C 37.488281 70.453125 38.785156 70.785156 40.058594 71.191406 C 42.007812 71.804688 43.949219 72.464844 45.972656 72.777344 C 48.34375 73.148438 50.652344 73.808594 53 74.296875 C 54.335938 74.539062 55.695312 74.636719 57.011719 74.972656 C 58.609375 75.351562 60.132812 75.957031 61.636719 76.59375 C 63.300781 77.289062 65.050781 77.703125 66.789062 78.140625 C 68.527344 78.59375 70.257812 79.070312 72.03125 79.367188 C 75.144531 80.007812 78.253906 80.695312 81.316406 81.542969 C 82.632812 81.855469 83.894531 82.480469 85.269531 82.476562 C 89.476562 82.316406 92.972656 79.589844 96.824219 78.203125 C 99.167969 77.238281 101.367188 75.960938 103.75 75.09375 C 104.589844 74.785156 105.433594 74.492188 106.265625 74.164062 C 109.121094 73.046875 111.777344 71.488281 114.613281 70.320312 C 116.316406 69.507812 117.925781 68.507812 119.464844 67.417969 C 119.742188 67.21875 120.03125 67.019531 120.335938 66.839844 C 120.328125 66.839844 120.324219 66.835938 120.320312 66.832031 C 120.167969 66.785156 119.917969 66.65625 120.03125 66.46875 C 120.136719 66.316406 120.292969 66.324219 120.460938 66.34375 C 120.769531 66.355469 121.078125 66.347656 121.386719 66.378906 L 121.402344 66.382812 C 121.511719 66.355469 121.617188 66.332031 121.726562 66.316406 C 122.09375 66.304688 122.507812 66.332031 122.835938 66.503906 C 124.582031 66.546875 126.355469 66.316406 128.035156 66.875 Z M 128.03125 66.875 " fill-opacity="1" fill-rule="nonzero"/></g><path fill="#ffbbc4" d="M 78.589844 105.128906 C 75.664062 105.003906 72.902344 104.003906 70.171875 103.015625 C 65.234375 101.472656 60.214844 100.179688 55.308594 98.523438 C 50.550781 97.199219 45.964844 95.371094 41.285156 93.808594 C 37.648438 92.285156 33.929688 90.964844 30.296875 89.429688 C 28.472656 88.574219 26.832031 87.402344 25.070312 86.4375 C 23.890625 85.796875 22.648438 85.265625 21.457031 84.65625 C 20.324219 84.015625 19.066406 83.304688 18.523438 82.054688 C 18.015625 80.902344 18.863281 79.582031 20.097656 79.449219 C 22.640625 79.34375 25.089844 80.4375 27.441406 81.292969 C 29.066406 81.957031 30.765625 82.402344 32.417969 83 C 35.167969 83.972656 37.679688 85.488281 40.308594 86.734375 C 42.777344 87.902344 45.386719 88.71875 47.914062 89.730469 C 50.15625 90.710938 52.316406 91.886719 54.667969 92.578125 C 57.632812 93.597656 60.585938 94.648438 63.492188 95.816406 C 66.535156 97.320312 69.785156 98.234375 73.0625 99.0625 C 76.792969 100.242188 80.671875 101.03125 84.601562 100.703125 C 86.871094 100.59375 89.027344 99.878906 91.167969 99.183594 C 95.125 98.066406 98.894531 96.402344 102.859375 95.3125 C 106.398438 93.859375 109.875 92.25 113.386719 90.722656 C 117.0625 88.546875 121.070312 86.980469 124.738281 84.800781 C 125.167969 84.527344 125.546875 84.09375 126.078125 84.050781 C 126.242188 84.035156 126.503906 84.082031 126.566406 84.269531 C 126.664062 84.5625 126.496094 84.847656 126.253906 85.023438 C 120.566406 88.925781 114.21875 91.683594 108.054688 94.734375 C 106.390625 95.523438 104.640625 96.082031 102.886719 96.632812 C 99.527344 97.992188 96.140625 99.257812 92.742188 100.507812 C 93.074219 101.078125 92.613281 101.691406 92.054688 101.875 C 90.636719 102.652344 89.15625 103.316406 87.667969 103.941406 C 84.828125 105.285156 81.671875 105.507812 78.589844 105.132812 Z M 83.628906 102.980469 C 84.746094 102.871094 85.792969 102.417969 86.832031 102.003906 C 83.984375 102.601562 81.042969 103.117188 78.164062 102.433594 C 75.359375 101.800781 72.546875 101.191406 69.832031 100.226562 C 67.027344 99.152344 64.242188 98.289062 61.441406 97.3125 C 56.363281 95.269531 51.191406 93.464844 46.054688 91.574219 C 41.445312 89.464844 37 87.125 32.191406 85.507812 C 28.539062 83.960938 24.925781 82.234375 20.980469 81.570312 C 23.976562 84.046875 27.660156 85.507812 31.203125 87.011719 C 35.011719 88.863281 38.746094 90.894531 42.851562 92.050781 C 48.144531 94.035156 53.507812 95.871094 58.972656 97.324219 C 63.773438 98.753906 68.449219 100.636719 73.378906 101.605469 C 76.757812 102.308594 80.148438 103.253906 83.628906 102.980469 Z M 83.628906 102.980469 " fill-opacity="1" fill-rule="nonzero"/><path fill="#ffbbc4" d="M 31.609375 87.304688 C 31.128906 87.136719 30.644531 86.972656 30.160156 86.8125 C 29.5 86.925781 28.871094 86.613281 28.261719 86.398438 C 26.484375 85.746094 24.765625 84.925781 23.140625 83.945312 C 22.828125 83.734375 22.554688 83.457031 22.296875 83.183594 C 22.148438 82.964844 22.492188 82.761719 22.660156 82.902344 C 23.523438 83.234375 24.402344 83.539062 25.261719 83.890625 C 26.015625 83.070312 26.988281 83.921875 27.800781 84.167969 C 28.484375 84.414062 29.152344 84.707031 29.832031 84.957031 C 30.191406 85.09375 30.59375 85.179688 30.828125 85.507812 C 31.304688 85.707031 31.78125 85.90625 32.261719 86.097656 C 33.171875 86.539062 32.433594 87.621094 31.605469 87.304688 Z M 31.609375 87.304688 " fill-opacity="1" fill-rule="nonzero"/><g clip-path="url(#ac185a41ef)"><path fill="#7ec4e7" d="M 26.074219 64.960938 C 25.617188 64.871094 25.15625 64.820312 24.75 64.960938 C 24.769531 64.976562 24.789062 64.992188 24.804688 65.003906 C 24.945312 64.929688 25.128906 64.910156 25.289062 64.9375 C 25.550781 64.945312 25.8125 64.945312 26.074219 64.960938 Z M 32.367188 66.863281 C 32.261719 66.832031 32.160156 66.796875 32.054688 66.765625 C 32.144531 66.800781 32.234375 66.835938 32.324219 66.875 C 32.335938 66.871094 32.351562 66.867188 32.367188 66.863281 Z M 46.644531 71.195312 C 45.980469 71.007812 45.316406 70.824219 44.652344 70.640625 C 44.65625 70.652344 44.65625 70.664062 44.660156 70.675781 C 45.320312 70.855469 45.980469 71.03125 46.644531 71.195312 Z M 102.800781 75.636719 C 102.851562 75.605469 102.898438 75.570312 102.945312 75.535156 C 102.847656 75.566406 102.75 75.601562 102.652344 75.636719 C 102.671875 75.636719 102.691406 75.636719 102.707031 75.636719 C 102.738281 75.636719 102.769531 75.636719 102.800781 75.636719 Z M 121.371094 52.679688 C 123.421875 54.410156 124.035156 57.554688 123.929688 60.121094 C 123.761719 62.570312 122.757812 64.929688 121.136719 66.769531 C 119.871094 68.171875 118.589844 69.589844 117.132812 70.792969 C 115.8125 71.761719 114.292969 72.414062 112.875 73.214844 C 110.773438 74.363281 108.566406 75.292969 106.339844 76.152344 C 105.296875 76.511719 104.28125 77.015625 103.203125 77.242188 C 102.738281 77.691406 102.074219 77.824219 101.492188 78.078125 C 100.128906 78.578125 98.820312 78.976562 97.527344 79.394531 C 95.359375 80.144531 93.15625 80.796875 90.933594 81.375 C 88.703125 81.90625 86.5625 82.890625 84.265625 83.09375 C 83.355469 83.144531 82.453125 83.058594 81.558594 82.882812 C 78.375 82.222656 75.238281 80.789062 72.144531 79.957031 C 69.71875 79.328125 67.324219 78.582031 64.917969 77.886719 C 61.332031 76.960938 57.738281 76.015625 54.210938 74.878906 C 51.144531 74.121094 48.058594 73.417969 45.039062 72.476562 C 42.09375 71.628906 39.03125 71.308594 36.109375 70.367188 C 34.738281 69.984375 33.347656 69.710938 31.960938 69.394531 C 30.539062 69.0625 29.183594 68.515625 27.769531 68.140625 C 27.019531 67.9375 26.273438 67.738281 25.542969 67.476562 C 24.75 67.191406 23.964844 66.820312 23.449219 66.128906 C 23.003906 65.535156 23.015625 64.578125 23.578125 64.054688 C 24.804688 62.960938 26.574219 63.488281 28.011719 63.789062 C 29.945312 64.261719 31.871094 64.753906 33.765625 65.375 C 34.683594 65.726562 35.710938 65.898438 36.542969 66.433594 C 40.269531 67.660156 44.046875 68.753906 47.804688 69.890625 C 49.167969 70.265625 50.550781 70.570312 51.902344 71.003906 C 54.019531 71.707031 56.097656 72.53125 58.277344 73.023438 C 60.3125 73.542969 62.210938 74.097656 64.097656 74.984375 C 67.066406 76.1875 70.222656 76.839844 73.261719 77.839844 C 75.945312 78.464844 78.621094 79.121094 81.316406 79.6875 C 83.886719 80.382812 85.332031 80.566406 87.898438 79.65625 C 89.300781 79.160156 90.757812 78.859375 92.125 78.253906 C 93.5625 77.617188 95.03125 77.050781 96.515625 76.527344 C 98.996094 75.484375 101.597656 74.746094 104.003906 73.527344 C 105.5625 72.792969 107.1875 72.222656 108.734375 71.464844 C 110.429688 70.617188 111.964844 69.5 113.605469 68.5625 C 117.417969 66.605469 118.398438 64.21875 119.078125 60.140625 C 119.359375 58.527344 118.863281 56.820312 117.699219 55.65625 C 115.226562 53.761719 111.285156 56.433594 108.652344 56.996094 C 107.261719 57.367188 105.917969 57.875 104.550781 58.3125 C 103.402344 58.675781 102.222656 58.941406 101.105469 59.402344 C 100.21875 59.789062 99.378906 60.277344 98.46875 60.613281 C 97.449219 61 96.402344 61.324219 95.410156 61.792969 C 93.851562 62.585938 92.277344 63.378906 90.777344 64.285156 C 89.09375 64.859375 87.4375 65.527344 85.875 66.394531 C 84.785156 66.9375 83.671875 67.511719 82.460938 67.710938 C 81.820312 67.761719 81.195312 67.546875 80.574219 67.414062 C 78.976562 67.089844 77.398438 66.691406 75.835938 66.21875 C 73.761719 65.609375 71.613281 65.269531 69.539062 64.648438 C 68.65625 64.375 67.792969 64.050781 66.898438 63.820312 C 63.984375 63.101562 61.046875 62.472656 58.175781 61.582031 C 57.214844 61.421875 56.363281 60.925781 55.453125 60.59375 C 52.917969 59.695312 50.496094 59.058594 47.898438 58.519531 C 46.195312 58.21875 44.484375 57.949219 42.820312 57.449219 C 41.386719 57.046875 39.914062 56.8125 38.453125 56.527344 C 37.160156 56.261719 35.917969 55.804688 34.65625 55.433594 C 32.378906 54.855469 30.15625 54.113281 27.929688 53.375 C 26.539062 52.847656 24.320312 52.210938 24.351562 50.429688 C 24.417969 49.777344 24.890625 49.261719 25.492188 49.042969 C 26.375 48.613281 27.328125 48.355469 28.300781 48.238281 C 30.871094 47.933594 33.480469 48.09375 36.035156 47.625 C 38.714844 47.050781 41.296875 46.09375 43.980469 45.527344 C 46.800781 44.9375 49.574219 44.144531 52.371094 43.457031 C 54.851562 42.769531 57.300781 41.96875 59.808594 41.378906 C 65.652344 39.511719 67.894531 39.425781 73.816406 41.027344 C 74.898438 41.289062 75.980469 41.550781 77.058594 41.828125 C 78.839844 42.292969 80.574219 42.921875 82.386719 43.257812 C 84.597656 43.710938 86.878906 43.710938 89.054688 44.335938 C 92.964844 45.421875 96.929688 46.292969 100.847656 47.335938 C 103.265625 47.910156 105.640625 48.691406 108.132812 48.886719 C 110.128906 49.074219 112.074219 49.519531 113.984375 50.113281 C 115.324219 50.453125 116.675781 50.777344 118 51.171875 C 119.179688 51.511719 120.410156 51.894531 121.375 52.679688 Z M 121.371094 52.679688 " fill-opacity="1" fill-rule="nonzero"/></g><path fill="#fff5e2" d="M 74.710938 55.597656 C 73.515625 55.476562 72.304688 55.542969 71.113281 55.390625 C 70.335938 55.269531 69.566406 55.125 68.792969 54.996094 C 66.507812 54.707031 64.246094 54.179688 62.109375 53.3125 C 61.53125 53.03125 60.90625 52.703125 60.554688 52.144531 C 59.867188 50.890625 61.039062 50.035156 62.199219 49.925781 C 63.15625 49.777344 64.125 49.679688 65.09375 49.675781 C 66.140625 49.652344 67.195312 49.8125 68.238281 49.703125 C 67.75 48.355469 66.578125 47.261719 66.480469 45.777344 C 66.394531 44.949219 67.011719 44.191406 67.8125 44.023438 C 68.738281 43.832031 69.648438 44.3125 70.441406 44.738281 C 71.960938 45.585938 72.992188 47.042969 74.15625 48.292969 C 75.03125 49.234375 76.042969 50.039062 76.890625 51.003906 C 77.925781 52.25 79.027344 53.519531 80.425781 54.347656 C 80.828125 54.351562 81.324219 54.636719 81.324219 55.082031 C 81.226562 55.632812 80.566406 55.640625 80.125 55.570312 C 79.433594 55.523438 78.746094 55.5 78.054688 55.5 C 76.941406 55.535156 75.828125 55.683594 74.707031 55.597656 Z M 69.9375 54.375 C 71.859375 54.441406 73.773438 54.554688 75.695312 54.476562 C 76.828125 54.503906 77.957031 54.5 79.082031 54.371094 C 78.484375 53.878906 77.882812 53.386719 77.285156 52.898438 C 75.359375 51.269531 73.90625 49.171875 72.066406 47.453125 C 71.679688 47.089844 71.277344 46.757812 70.878906 46.40625 C 70.300781 45.917969 69.773438 45.328125 69.0625 45.03125 C 67.640625 44.515625 66.9375 45.414062 67.503906 46.761719 C 67.859375 47.839844 68.878906 48.535156 69.234375 49.601562 C 69.386719 50.105469 69.113281 50.675781 68.585938 50.796875 C 67.628906 50.949219 66.640625 50.761719 65.675781 50.742188 C 64.171875 50.734375 62.253906 50.113281 61.078125 51.359375 C 61.082031 51.351562 61.085938 51.34375 61.089844 51.335938 C 61.09375 51.332031 61.097656 51.328125 61.101562 51.316406 C 60.667969 51.980469 63.3125 53.121094 63.820312 53.238281 C 64.738281 53.460938 65.675781 53.597656 66.601562 53.789062 C 67.710938 53.988281 68.804688 54.316406 69.9375 54.378906 Z M 69.9375 54.375 " fill-opacity="1" fill-rule="nonzero"/><path fill="#fff5e2" d="M 75.511719 58.089844 C 75.03125 57.964844 74.613281 57.695312 74.242188 57.371094 C 74.042969 57.199219 73.859375 57.003906 73.699219 56.796875 C 73.207031 57.753906 71.894531 58.09375 70.929688 57.710938 C 70.269531 57.449219 69.773438 56.902344 69.453125 56.28125 C 68.222656 57.363281 66.066406 57.160156 65.417969 55.546875 C 64.675781 56.289062 63.554688 57.113281 62.5 56.5 C 61.382812 55.824219 60.890625 54.273438 61.222656 53.035156 C 59.371094 53.511719 58.355469 51.851562 59.382812 50.316406 C 59.839844 49.722656 60.703125 49.71875 61.382812 49.792969 C 60.777344 49.046875 61.417969 48.085938 62.269531 47.980469 C 63.273438 47.871094 64.132812 48.589844 64.894531 49.144531 C 64.765625 47.355469 66.179688 47.300781 67.34375 48.203125 C 67.894531 48.582031 68.207031 49.179688 68.484375 49.769531 C 68.6875 50.039062 68.585938 50.578125 68.246094 50.136719 C 67.867188 49.320312 66.992188 48.347656 66.050781 48.261719 C 65.15625 48.332031 65.28125 49.425781 65.652344 49.972656 C 65.730469 50.214844 65.457031 50.449219 65.253906 50.257812 C 65.253906 50.257812 65.253906 50.261719 65.253906 50.261719 C 64.4375 49.351562 63.175781 48.035156 61.867188 48.765625 C 61.621094 48.949219 61.621094 49.246094 61.785156 49.488281 C 61.976562 49.804688 62.261719 50.042969 62.507812 50.308594 C 62.59375 50.449219 62.546875 50.660156 62.378906 50.707031 C 62 50.714844 61.65625 50.441406 61.289062 50.363281 C 60.78125 50.238281 60.160156 50.269531 59.761719 50.640625 C 59.242188 51.128906 59.257812 52.105469 59.96875 52.402344 C 60.636719 52.582031 61.277344 52.210938 61.914062 52.085938 C 62.296875 52.136719 62.3125 52.554688 62.144531 52.824219 C 61.75 53.761719 61.539062 55.175781 62.636719 55.707031 C 63.4375 55.960938 64.234375 55.222656 64.800781 54.742188 C 64.996094 54.554688 65.027344 54.242188 65.289062 54.121094 C 66.109375 53.910156 65.917969 55.210938 66.417969 55.566406 C 66.855469 55.984375 67.492188 56.085938 68.050781 55.863281 C 68.363281 55.722656 68.789062 55.628906 68.941406 55.289062 C 69.019531 54.703125 69.679688 54.640625 69.859375 55.195312 C 69.933594 55.808594 70.324219 56.367188 70.902344 56.59375 C 71.683594 56.957031 73.03125 56.847656 73.128906 55.792969 C 73.054688 55.535156 72.953125 55.191406 73.179688 54.980469 C 73.453125 54.734375 73.816406 55.023438 73.875 55.324219 C 74.128906 56.34375 75.054688 57.1875 76.128906 57.164062 C 76.835938 57.222656 77.234375 56.734375 77.449219 56.113281 C 77.144531 55.015625 78.414062 54.847656 78.402344 55.964844 C 78.796875 56.363281 79.304688 56.578125 79.863281 56.605469 C 80.339844 56.683594 80.695312 56.539062 80.699219 56.003906 C 80.613281 55.890625 80.496094 55.8125 80.371094 55.742188 C 80.03125 55.550781 80.023438 54.929688 80.433594 54.820312 C 80.695312 54.761719 80.910156 54.972656 81.109375 55.109375 C 81.421875 55.335938 81.628906 55.6875 81.628906 56.078125 C 81.636719 57.066406 80.890625 57.742188 79.90625 57.542969 C 79.273438 57.453125 78.621094 57.328125 78.144531 56.871094 C 77.734375 57.96875 76.601562 58.402344 75.511719 58.089844 Z M 75.511719 58.089844 " fill-opacity="1" fill-rule="nonzero"/><path fill="#fff5e2" d="M 80.621094 55.289062 C 80.238281 55.164062 80.265625 54.496094 80.71875 54.554688 C 81.742188 54.675781 81.070312 53.191406 80.746094 52.777344 C 80.367188 52.324219 79.773438 52.105469 79.191406 52.121094 C 78.878906 52.132812 78.585938 52.253906 78.34375 52.445312 C 78.265625 52.503906 78.183594 52.550781 78.085938 52.539062 C 76.835938 52.164062 79.59375 50.511719 77.652344 49.410156 C 77.089844 49.089844 76.386719 49.257812 75.875 49.609375 C 75.695312 49.730469 75.460938 49.914062 75.246094 49.765625 C 75.085938 49.65625 75.042969 49.4375 75.136719 49.269531 C 75.386719 48.613281 75.929688 47.824219 75.636719 47.113281 C 75.207031 46.621094 74.503906 46.390625 73.863281 46.351562 C 73.386719 46.355469 72.972656 46.660156 72.695312 47.03125 C 72.578125 47.179688 72.347656 47.140625 72.246094 46.992188 C 72.097656 46.78125 72.203125 46.5625 72.355469 46.390625 C 73.023438 44.710938 71.984375 42.675781 70.269531 44.402344 C 70.089844 44.578125 69.960938 44.785156 69.882812 45.023438 C 69.6875 45.335938 69.273438 45.058594 69.289062 44.769531 C 69.152344 44.246094 68.957031 43.671875 68.59375 43.265625 C 67.464844 42.292969 66.371094 43.585938 66.984375 44.75 C 67.089844 44.933594 67.328125 45.035156 67.34375 45.269531 C 67.386719 45.6875 66.992188 45.839844 66.683594 45.59375 C 65.476562 45.105469 63.84375 45.40625 65.480469 46.75 C 66.015625 47.132812 66.636719 47.355469 67.210938 47.675781 C 67.410156 47.773438 67.609375 47.910156 67.679688 48.132812 C 67.863281 48.589844 67.351562 48.660156 67.078125 48.476562 C 66.109375 47.976562 65.042969 47.527344 64.335938 46.664062 C 63.875 46.097656 63.804688 45.089844 64.550781 44.738281 C 65.113281 44.484375 65.761719 44.566406 66.355469 44.644531 C 65.78125 41.640625 68.773438 41.613281 69.679688 44.070312 C 71.179688 41.964844 73.675781 43.652344 73.074219 45.933594 C 74.148438 45.578125 75.480469 45.863281 76.132812 46.832031 C 76.542969 47.46875 76.179688 48.226562 75.945312 48.863281 C 77.796875 48.269531 79.613281 49.472656 78.714844 51.496094 C 80.109375 51.265625 81.550781 52.386719 81.957031 53.699219 C 82.285156 54.570312 81.585938 55.601562 80.625 55.289062 Z M 80.621094 55.289062 " fill-opacity="1" fill-rule="nonzero"/><path fill="#fff5e2" d="M 42.832031 52.800781 C 42.269531 52.46875 41.015625 52.074219 41.152344 51.265625 C 41.175781 51.136719 41.265625 51.003906 41.40625 50.980469 C 41.648438 50.925781 41.867188 51.058594 42.0625 51.1875 C 42.445312 51.398438 42.871094 51.519531 43.285156 51.65625 C 44.003906 51.910156 43.515625 53.089844 42.828125 52.796875 Z M 42.832031 52.800781 " fill-opacity="1" fill-rule="nonzero"/><path fill="#fff5e2" d="M 44.949219 50.453125 C 44.507812 50.207031 43.339844 49.984375 43.570312 49.296875 C 43.96875 48.632812 44.851562 49.125 45.4375 49.222656 C 46.21875 49.488281 45.6875 50.765625 44.949219 50.453125 Z M 44.949219 50.453125 " fill-opacity="1" fill-rule="nonzero"/><path fill="#fff5e2" d="M 99.328125 52.953125 C 98.773438 52.558594 97.316406 52.050781 97.957031 51.179688 C 98.644531 50.707031 99.472656 51.433594 100.105469 51.730469 C 100.773438 52.199219 100.042969 53.414062 99.328125 52.953125 Z M 99.328125 52.953125 " fill-opacity="1" fill-rule="nonzero"/><path fill="#fff5e2" d="M 98.363281 55.597656 C 98.007812 55.433594 97.589844 55.339844 97.316406 55.050781 C 96.855469 54.550781 97.207031 53.898438 97.863281 53.917969 C 98.226562 53.945312 98.574219 54.097656 98.925781 54.171875 C 99.832031 54.46875 99.210938 55.96875 98.359375 55.597656 Z M 98.363281 55.597656 " fill-opacity="1" fill-rule="nonzero"/><path fill="#fff5e2" d="M 111.363281 53.015625 C 110.71875 52.734375 108.746094 51.972656 110.074219 51.234375 C 110.695312 51.097656 111.335938 51.410156 111.9375 51.566406 C 112.851562 51.882812 112.226562 53.390625 111.363281 53.015625 Z M 111.363281 53.015625 " fill-opacity="1" fill-rule="nonzero"/><path fill="#fff5e2" d="M 86.980469 85.695312 C 86.710938 85.617188 86.667969 85.257812 86.910156 85.117188 C 87.757812 84.644531 88.691406 84.355469 89.589844 83.984375 C 92.265625 82.667969 95.175781 82.050781 97.820312 80.730469 C 99.367188 80.03125 100.898438 79.292969 102.503906 78.746094 C 104.042969 78.246094 105.589844 77.773438 107.117188 77.226562 C 107.527344 77.132812 107.585938 77.75 107.214844 77.859375 C 106.058594 78.28125 104.914062 78.753906 103.804688 79.292969 C 101.976562 80.304688 100.179688 81.378906 98.226562 82.132812 C 96.871094 82.660156 95.488281 83.117188 94.140625 83.675781 C 92.617188 84.335938 91.042969 84.851562 89.425781 85.242188 C 88.636719 85.484375 87.816406 85.789062 86.980469 85.691406 Z M 86.980469 85.695312 " fill-opacity="1" fill-rule="nonzero"/><path fill="#fff5e2" d="M 111.035156 76.03125 C 111.003906 75.722656 111.289062 75.519531 111.527344 75.386719 C 112.078125 75.050781 112.574219 74.625 113.167969 74.355469 C 113.691406 74.09375 114.195312 73.808594 114.703125 73.519531 C 114.769531 73.480469 114.84375 73.464844 114.917969 73.488281 C 115.1875 73.570312 115.144531 73.980469 114.902344 74.074219 C 114.585938 74.195312 114.265625 74.332031 113.972656 74.484375 C 113.320312 74.84375 112.707031 75.265625 112.089844 75.679688 C 111.824219 75.859375 111.625 76.1875 111.28125 76.207031 C 111.171875 76.207031 111.054688 76.152344 111.035156 76.03125 Z M 111.035156 76.03125 " fill-opacity="1" fill-rule="nonzero"/><path fill="#fff5e2" d="M 47.1875 93.554688 C 46.539062 93.199219 45.910156 92.804688 45.21875 92.53125 C 44.488281 92.277344 43.742188 92.089844 43 91.886719 C 41.417969 91.425781 39.871094 90.855469 38.308594 90.328125 C 36.316406 89.6875 34.382812 88.882812 32.511719 87.941406 C 31.308594 87.363281 30.03125 86.964844 28.8125 86.414062 C 27.921875 85.957031 26.957031 85.652344 26.066406 85.203125 C 25.832031 85.082031 25.625 84.917969 25.40625 84.773438 C 25.253906 84.664062 25.066406 84.570312 25.003906 84.382812 C 24.910156 84.160156 25.003906 83.867188 25.289062 83.898438 C 25.457031 83.898438 25.59375 83.996094 25.726562 84.085938 C 26.003906 84.238281 26.316406 84.304688 26.609375 84.414062 C 27.585938 84.835938 28.613281 85.09375 29.617188 85.441406 C 30.910156 85.921875 32.097656 86.640625 33.402344 87.09375 C 34.886719 87.632812 36.398438 88.070312 37.882812 88.605469 C 39.414062 89.117188 40.777344 90.007812 42.277344 90.585938 C 43.175781 90.910156 44.097656 91.148438 44.980469 91.511719 C 45.851562 91.90625 46.683594 92.382812 47.519531 92.847656 C 47.914062 93.046875 47.597656 93.742188 47.191406 93.554688 Z M 47.1875 93.554688 " fill-opacity="1" fill-rule="nonzero"/><path fill="#fff5e2" d="M 49.871094 94.128906 C 49.886719 93.769531 50.183594 93.402344 50.5625 93.402344 C 50.921875 93.402344 51.15625 93.722656 51.140625 94.0625 C 51.121094 94.425781 50.828125 94.789062 50.445312 94.789062 C 50.089844 94.789062 49.855469 94.472656 49.871094 94.128906 Z M 49.871094 94.128906 " fill-opacity="1" fill-rule="nonzero"/><g clip-path="url(#bdee0ff698)"><path fill="#ffffff" d="M 60.5 85.59375 C 61.265625 85.875 61.894531 86.558594 61.996094 87.382812 C 62.152344 88.679688 61.242188 89.777344 60.5 90.738281 C 59.199219 92.296875 57.789062 93.792969 56.132812 94.976562 C 58.230469 94.433594 60.421875 94.457031 62.570312 94.535156 C 63.75 94.597656 65.09375 94.664062 66.007812 95.507812 C 67.882812 97.640625 64.070312 98.84375 62.535156 99.300781 C 60.609375 99.734375 58.609375 99.628906 56.65625 99.464844 C 58.410156 100.488281 61.230469 102.035156 61.984375 103.980469 C 62.707031 106.144531 60.65625 107.460938 58.695312 107.105469 C 56.480469 106.761719 54.660156 105.214844 53.339844 103.472656 C 53.359375 105.421875 53.445312 107.585938 52.402344 109.277344 C 51.28125 110.679688 49.144531 110.066406 48.484375 108.527344 C 47.09375 106.101562 48.367188 103.40625 49.246094 101.066406 C 48.105469 101.675781 46.953125 102.277344 45.722656 102.675781 C 44.003906 103.121094 40.671875 104.21875 39.351562 102.617188 C 38.695312 101.765625 39.347656 100.695312 39.933594 99.992188 C 41.523438 98.226562 43.941406 97.496094 46.210938 97.105469 C 43.371094 96.449219 39.976562 96.039062 37.832031 93.886719 C 37.226562 93.253906 36.753906 92.292969 37.15625 91.425781 C 38.472656 88.890625 42.699219 90.328125 44.769531 91.101562 C 46.089844 91.65625 47.335938 92.378906 48.5 93.21875 C 47.007812 89.679688 43.28125 85.015625 46.09375 81.277344 C 48.1875 78.988281 50.902344 82.117188 51.769531 84.097656 C 52.296875 85.152344 52.6875 86.273438 52.878906 87.4375 C 53.160156 89.148438 53.113281 90.90625 53.417969 92.613281 C 54.363281 90.742188 55.078125 88.675781 56.519531 87.113281 C 57.53125 86.117188 59.027344 85.121094 60.5 85.59375 Z M 60.5 85.59375 " fill-opacity="1" fill-rule="nonzero"/></g><path fill="#fdd585" d="M 47.207031 96.648438 C 47.46875 95.0625 48.765625 93.667969 50.320312 93.296875 C 51.167969 92.921875 52.136719 92.859375 53.019531 93.152344 C 56.449219 94.359375 56.910156 98.050781 54.273438 100.390625 C 52.683594 102.378906 49.179688 102.464844 47.792969 100.207031 C 47.4375 99.65625 47.304688 98.996094 47.277344 98.351562 C 47.136719 97.800781 47.117188 97.210938 47.207031 96.648438 Z M 47.207031 96.648438 " fill-opacity="1" fill-rule="nonzero"/></svg>