<svg xmlns="http://www.w3.org/2000/svg" xmlns:xlink="http://www.w3.org/1999/xlink" width="150" zoomAndPan="magnify" viewBox="0 0 112.5 112.499997" height="150" preserveAspectRatio="xMidYMid meet" version="1.0"><defs><clipPath id="7e0ebaced0"><path d="M 20 68 L 50 68 L 50 98 L 20 98 Z M 20 68 " clip-rule="nonzero"/></clipPath><clipPath id="1506d0843f"><path d="M 49.324219 80.496094 C 48.136719 88.550781 42.003906 93.703125 34.175781 93.824219 C 30.378906 94.203125 26.054688 94.667969 21.34375 97.535156 C 20.71875 97.914062 20 97.214844 20.363281 96.582031 C 23.109375 91.796875 23.464844 87.460938 23.746094 83.652344 C 23.667969 75.816406 28.675781 69.546875 36.710938 68.167969 C 37.863281 67.96875 39.042969 68.125 40.101562 68.617188 C 43.398438 70.160156 47.164062 73.886719 48.78125 77.109375 C 49.308594 78.152344 49.492188 79.335938 49.324219 80.496094 Z M 49.324219 80.496094 " clip-rule="nonzero"/></clipPath><linearGradient x1="498.45223" gradientTransform="matrix(0.0292321, 0.00974099, -0.00973991, 0.0292353, 37.240212, -9.471248)" y1="3601.204052" x2="1236.011169" gradientUnits="userSpaceOnUse" y2="2136.189203" id="2f4b6e5d9a"><stop stop-opacity="1" stop-color="rgb(92.326355%, 16.439819%, 11.11908%)" offset="0"/><stop stop-opacity="1" stop-color="rgb(92.33551%, 16.656494%, 11.169434%)" offset="0.00390625"/><stop stop-opacity="1" stop-color="rgb(92.346191%, 16.874695%, 11.221313%)" offset="0.0078125"/><stop stop-opacity="1" stop-color="rgb(92.355347%, 17.092896%, 11.273193%)" offset="0.0117188"/><stop stop-opacity="1" stop-color="rgb(92.364502%, 17.311096%, 11.325073%)" offset="0.015625"/><stop stop-opacity="1" stop-color="rgb(92.373657%, 17.529297%, 11.375427%)" offset="0.0195312"/><stop stop-opacity="1" stop-color="rgb(92.382812%, 17.747498%, 11.427307%)" offset="0.0234375"/><stop stop-opacity="1" stop-color="rgb(92.391968%, 17.964172%, 11.479187%)" offset="0.0273438"/><stop stop-opacity="1" stop-color="rgb(92.401123%, 18.182373%, 11.531067%)" offset="0.03125"/><stop stop-opacity="1" stop-color="rgb(92.410278%, 18.400574%, 11.581421%)" offset="0.0351562"/><stop stop-opacity="1" stop-color="rgb(92.420959%, 18.618774%, 11.633301%)" offset="0.0390625"/><stop stop-opacity="1" stop-color="rgb(92.430115%, 18.836975%, 11.685181%)" offset="0.0429688"/><stop stop-opacity="1" stop-color="rgb(92.43927%, 19.055176%, 11.737061%)" offset="0.046875"/><stop stop-opacity="1" stop-color="rgb(92.448425%, 19.271851%, 11.787415%)" offset="0.0507812"/><stop stop-opacity="1" stop-color="rgb(92.457581%, 19.490051%, 11.839294%)" offset="0.0546875"/><stop stop-opacity="1" stop-color="rgb(92.466736%, 19.708252%, 11.891174%)" offset="0.0585938"/><stop stop-opacity="1" stop-color="rgb(92.477417%, 19.926453%, 11.943054%)" offset="0.0625"/><stop stop-opacity="1" stop-color="rgb(92.486572%, 20.143127%, 11.993408%)" offset="0.0664063"/><stop stop-opacity="1" stop-color="rgb(92.495728%, 20.361328%, 12.045288%)" offset="0.0703125"/><stop stop-opacity="1" stop-color="rgb(92.504883%, 20.579529%, 12.097168%)" offset="0.0742188"/><stop stop-opacity="1" stop-color="rgb(92.514038%, 20.797729%, 12.149048%)" offset="0.078125"/><stop stop-opacity="1" stop-color="rgb(92.523193%, 21.01593%, 12.199402%)" offset="0.0820312"/><stop stop-opacity="1" stop-color="rgb(92.532349%, 21.234131%, 12.251282%)" offset="0.0859375"/><stop stop-opacity="1" stop-color="rgb(92.541504%, 21.450806%, 12.303162%)" offset="0.0898438"/><stop stop-opacity="1" stop-color="rgb(92.552185%, 21.669006%, 12.355042%)" offset="0.09375"/><stop stop-opacity="1" stop-color="rgb(92.56134%, 21.887207%, 12.405396%)" offset="0.0976562"/><stop stop-opacity="1" stop-color="rgb(92.570496%, 22.105408%, 12.457275%)" offset="0.101563"/><stop stop-opacity="1" stop-color="rgb(92.579651%, 22.322083%, 12.509155%)" offset="0.105469"/><stop stop-opacity="1" stop-color="rgb(92.588806%, 22.540283%, 12.561035%)" offset="0.109375"/><stop stop-opacity="1" stop-color="rgb(92.597961%, 22.758484%, 12.611389%)" offset="0.113281"/><stop stop-opacity="1" stop-color="rgb(92.608643%, 22.976685%, 12.663269%)" offset="0.117187"/><stop stop-opacity="1" stop-color="rgb(92.617798%, 23.194885%, 12.715149%)" offset="0.121094"/><stop stop-opacity="1" stop-color="rgb(92.626953%, 23.413086%, 12.767029%)" offset="0.125"/><stop stop-opacity="1" stop-color="rgb(92.636108%, 23.629761%, 12.817383%)" offset="0.128906"/><stop stop-opacity="1" stop-color="rgb(92.645264%, 23.847961%, 12.869263%)" offset="0.132813"/><stop stop-opacity="1" stop-color="rgb(92.654419%, 24.066162%, 12.921143%)" offset="0.136719"/><stop stop-opacity="1" stop-color="rgb(92.6651%, 24.284363%, 12.973022%)" offset="0.140625"/><stop stop-opacity="1" stop-color="rgb(92.674255%, 24.501038%, 13.023376%)" offset="0.144531"/><stop stop-opacity="1" stop-color="rgb(92.683411%, 24.719238%, 13.075256%)" offset="0.148438"/><stop stop-opacity="1" stop-color="rgb(92.692566%, 24.937439%, 13.127136%)" offset="0.152344"/><stop stop-opacity="1" stop-color="rgb(92.701721%, 25.15564%, 13.179016%)" offset="0.15625"/><stop stop-opacity="1" stop-color="rgb(92.710876%, 25.37384%, 13.22937%)" offset="0.160156"/><stop stop-opacity="1" stop-color="rgb(92.720032%, 25.592041%, 13.28125%)" offset="0.164062"/><stop stop-opacity="1" stop-color="rgb(92.729187%, 25.808716%, 13.33313%)" offset="0.167969"/><stop stop-opacity="1" stop-color="rgb(92.739868%, 26.026917%, 13.38501%)" offset="0.171875"/><stop stop-opacity="1" stop-color="rgb(92.749023%, 26.245117%, 13.435364%)" offset="0.175781"/><stop stop-opacity="1" stop-color="rgb(92.758179%, 26.463318%, 13.487244%)" offset="0.179688"/><stop stop-opacity="1" stop-color="rgb(92.767334%, 26.679993%, 13.539124%)" offset="0.183594"/><stop stop-opacity="1" stop-color="rgb(92.776489%, 26.898193%, 13.591003%)" offset="0.1875"/><stop stop-opacity="1" stop-color="rgb(92.785645%, 27.116394%, 13.641357%)" offset="0.191406"/><stop stop-opacity="1" stop-color="rgb(92.796326%, 27.334595%, 13.693237%)" offset="0.195312"/><stop stop-opacity="1" stop-color="rgb(92.805481%, 27.552795%, 13.745117%)" offset="0.199219"/><stop stop-opacity="1" stop-color="rgb(92.814636%, 27.770996%, 13.796997%)" offset="0.203125"/><stop stop-opacity="1" stop-color="rgb(92.823792%, 27.987671%, 13.847351%)" offset="0.207031"/><stop stop-opacity="1" stop-color="rgb(92.832947%, 28.205872%, 13.899231%)" offset="0.210938"/><stop stop-opacity="1" stop-color="rgb(92.842102%, 28.424072%, 13.951111%)" offset="0.214844"/><stop stop-opacity="1" stop-color="rgb(92.851257%, 28.642273%, 14.002991%)" offset="0.21875"/><stop stop-opacity="1" stop-color="rgb(92.860413%, 28.858948%, 14.053345%)" offset="0.222656"/><stop stop-opacity="1" stop-color="rgb(92.871094%, 29.077148%, 14.105225%)" offset="0.226562"/><stop stop-opacity="1" stop-color="rgb(92.880249%, 29.295349%, 14.157104%)" offset="0.230469"/><stop stop-opacity="1" stop-color="rgb(92.889404%, 29.51355%, 14.208984%)" offset="0.234375"/><stop stop-opacity="1" stop-color="rgb(92.89856%, 29.73175%, 14.259338%)" offset="0.238281"/><stop stop-opacity="1" stop-color="rgb(92.907715%, 29.949951%, 14.311218%)" offset="0.242188"/><stop stop-opacity="1" stop-color="rgb(92.91687%, 30.166626%, 14.363098%)" offset="0.246094"/><stop stop-opacity="1" stop-color="rgb(92.927551%, 30.384827%, 14.414978%)" offset="0.25"/><stop stop-opacity="1" stop-color="rgb(92.936707%, 30.603027%, 14.465332%)" offset="0.253906"/><stop stop-opacity="1" stop-color="rgb(92.945862%, 30.821228%, 14.517212%)" offset="0.257812"/><stop stop-opacity="1" stop-color="rgb(92.955017%, 31.037903%, 14.569092%)" offset="0.261719"/><stop stop-opacity="1" stop-color="rgb(92.964172%, 31.256104%, 14.620972%)" offset="0.265625"/><stop stop-opacity="1" stop-color="rgb(92.973328%, 31.474304%, 14.671326%)" offset="0.269531"/><stop stop-opacity="1" stop-color="rgb(92.984009%, 31.692505%, 14.723206%)" offset="0.273438"/><stop stop-opacity="1" stop-color="rgb(92.993164%, 31.910706%, 14.775085%)" offset="0.277344"/><stop stop-opacity="1" stop-color="rgb(93.002319%, 32.128906%, 14.826965%)" offset="0.28125"/><stop stop-opacity="1" stop-color="rgb(93.011475%, 32.345581%, 14.877319%)" offset="0.285156"/><stop stop-opacity="1" stop-color="rgb(93.02063%, 32.563782%, 14.929199%)" offset="0.289063"/><stop stop-opacity="1" stop-color="rgb(93.029785%, 32.781982%, 14.981079%)" offset="0.292969"/><stop stop-opacity="1" stop-color="rgb(93.03894%, 33.000183%, 15.032959%)" offset="0.296875"/><stop stop-opacity="1" stop-color="rgb(93.048096%, 33.218384%, 15.084839%)" offset="0.300781"/><stop stop-opacity="1" stop-color="rgb(93.058777%, 33.436584%, 15.136719%)" offset="0.304688"/><stop stop-opacity="1" stop-color="rgb(93.067932%, 33.653259%, 15.187073%)" offset="0.308594"/><stop stop-opacity="1" stop-color="rgb(93.077087%, 33.87146%, 15.238953%)" offset="0.3125"/><stop stop-opacity="1" stop-color="rgb(93.086243%, 34.089661%, 15.290833%)" offset="0.316406"/><stop stop-opacity="1" stop-color="rgb(93.095398%, 34.307861%, 15.342712%)" offset="0.320313"/><stop stop-opacity="1" stop-color="rgb(93.104553%, 34.524536%, 15.393066%)" offset="0.324219"/><stop stop-opacity="1" stop-color="rgb(93.115234%, 34.742737%, 15.444946%)" offset="0.328125"/><stop stop-opacity="1" stop-color="rgb(93.12439%, 34.960938%, 15.496826%)" offset="0.332031"/><stop stop-opacity="1" stop-color="rgb(93.133545%, 35.179138%, 15.548706%)" offset="0.335938"/><stop stop-opacity="1" stop-color="rgb(93.1427%, 35.397339%, 15.59906%)" offset="0.339844"/><stop stop-opacity="1" stop-color="rgb(93.151855%, 35.61554%, 15.65094%)" offset="0.34375"/><stop stop-opacity="1" stop-color="rgb(93.161011%, 35.832214%, 15.70282%)" offset="0.347656"/><stop stop-opacity="1" stop-color="rgb(93.171692%, 36.050415%, 15.7547%)" offset="0.351562"/><stop stop-opacity="1" stop-color="rgb(93.180847%, 36.268616%, 15.805054%)" offset="0.355469"/><stop stop-opacity="1" stop-color="rgb(93.190002%, 36.486816%, 15.856934%)" offset="0.359375"/><stop stop-opacity="1" stop-color="rgb(93.199158%, 36.703491%, 15.908813%)" offset="0.363281"/><stop stop-opacity="1" stop-color="rgb(93.208313%, 36.921692%, 15.960693%)" offset="0.367188"/><stop stop-opacity="1" stop-color="rgb(93.217468%, 37.139893%, 16.011047%)" offset="0.371094"/><stop stop-opacity="1" stop-color="rgb(93.226624%, 37.358093%, 16.062927%)" offset="0.375"/><stop stop-opacity="1" stop-color="rgb(93.235779%, 37.576294%, 16.114807%)" offset="0.378906"/><stop stop-opacity="1" stop-color="rgb(93.24646%, 37.794495%, 16.166687%)" offset="0.382812"/><stop stop-opacity="1" stop-color="rgb(93.255615%, 38.011169%, 16.217041%)" offset="0.386719"/><stop stop-opacity="1" stop-color="rgb(93.264771%, 38.22937%, 16.268921%)" offset="0.390625"/><stop stop-opacity="1" stop-color="rgb(93.273926%, 38.447571%, 16.320801%)" offset="0.394531"/><stop stop-opacity="1" stop-color="rgb(93.283081%, 38.665771%, 16.372681%)" offset="0.398438"/><stop stop-opacity="1" stop-color="rgb(93.292236%, 38.882446%, 16.423035%)" offset="0.402344"/><stop stop-opacity="1" stop-color="rgb(93.302917%, 39.100647%, 16.474915%)" offset="0.40625"/><stop stop-opacity="1" stop-color="rgb(93.312073%, 39.318848%, 16.526794%)" offset="0.410156"/><stop stop-opacity="1" stop-color="rgb(93.321228%, 39.537048%, 16.578674%)" offset="0.414062"/><stop stop-opacity="1" stop-color="rgb(93.330383%, 39.755249%, 16.629028%)" offset="0.417969"/><stop stop-opacity="1" stop-color="rgb(93.339539%, 39.97345%, 16.680908%)" offset="0.421875"/><stop stop-opacity="1" stop-color="rgb(93.348694%, 40.190125%, 16.732788%)" offset="0.425781"/><stop stop-opacity="1" stop-color="rgb(93.357849%, 40.408325%, 16.784668%)" offset="0.429688"/><stop stop-opacity="1" stop-color="rgb(93.367004%, 40.626526%, 16.835022%)" offset="0.433594"/><stop stop-opacity="1" stop-color="rgb(93.377686%, 40.844727%, 16.886902%)" offset="0.4375"/><stop stop-opacity="1" stop-color="rgb(93.386841%, 41.061401%, 16.938782%)" offset="0.441406"/><stop stop-opacity="1" stop-color="rgb(93.395996%, 41.279602%, 16.990662%)" offset="0.445312"/><stop stop-opacity="1" stop-color="rgb(93.405151%, 41.497803%, 17.041016%)" offset="0.449219"/><stop stop-opacity="1" stop-color="rgb(93.414307%, 41.716003%, 17.092896%)" offset="0.453125"/><stop stop-opacity="1" stop-color="rgb(93.423462%, 41.934204%, 17.144775%)" offset="0.457031"/><stop stop-opacity="1" stop-color="rgb(93.434143%, 42.152405%, 17.196655%)" offset="0.460938"/><stop stop-opacity="1" stop-color="rgb(93.443298%, 42.36908%, 17.247009%)" offset="0.464844"/><stop stop-opacity="1" stop-color="rgb(93.452454%, 42.58728%, 17.298889%)" offset="0.46875"/><stop stop-opacity="1" stop-color="rgb(93.461609%, 42.805481%, 17.350769%)" offset="0.472656"/><stop stop-opacity="1" stop-color="rgb(93.470764%, 43.023682%, 17.402649%)" offset="0.476562"/><stop stop-opacity="1" stop-color="rgb(93.479919%, 43.240356%, 17.453003%)" offset="0.480469"/><stop stop-opacity="1" stop-color="rgb(93.490601%, 43.458557%, 17.504883%)" offset="0.484375"/><stop stop-opacity="1" stop-color="rgb(93.499756%, 43.676758%, 17.556763%)" offset="0.488281"/><stop stop-opacity="1" stop-color="rgb(93.508911%, 43.894958%, 17.608643%)" offset="0.492188"/><stop stop-opacity="1" stop-color="rgb(93.518066%, 44.113159%, 17.658997%)" offset="0.496094"/><stop stop-opacity="1" stop-color="rgb(93.527222%, 44.33136%, 17.710876%)" offset="0.5"/><stop stop-opacity="1" stop-color="rgb(93.536377%, 44.548035%, 17.762756%)" offset="0.503906"/><stop stop-opacity="1" stop-color="rgb(93.545532%, 44.766235%, 17.814636%)" offset="0.507812"/><stop stop-opacity="1" stop-color="rgb(93.554688%, 44.984436%, 17.86499%)" offset="0.511719"/><stop stop-opacity="1" stop-color="rgb(93.565369%, 45.202637%, 17.91687%)" offset="0.515625"/><stop stop-opacity="1" stop-color="rgb(93.574524%, 45.419312%, 17.96875%)" offset="0.519531"/><stop stop-opacity="1" stop-color="rgb(93.583679%, 45.637512%, 18.02063%)" offset="0.523438"/><stop stop-opacity="1" stop-color="rgb(93.592834%, 45.855713%, 18.070984%)" offset="0.527344"/><stop stop-opacity="1" stop-color="rgb(93.60199%, 46.073914%, 18.122864%)" offset="0.53125"/><stop stop-opacity="1" stop-color="rgb(93.611145%, 46.292114%, 18.174744%)" offset="0.535156"/><stop stop-opacity="1" stop-color="rgb(93.621826%, 46.510315%, 18.226624%)" offset="0.539062"/><stop stop-opacity="1" stop-color="rgb(93.630981%, 46.72699%, 18.276978%)" offset="0.542969"/><stop stop-opacity="1" stop-color="rgb(93.640137%, 46.94519%, 18.328857%)" offset="0.546875"/><stop stop-opacity="1" stop-color="rgb(93.649292%, 47.163391%, 18.380737%)" offset="0.550781"/><stop stop-opacity="1" stop-color="rgb(93.658447%, 47.381592%, 18.432617%)" offset="0.554688"/><stop stop-opacity="1" stop-color="rgb(93.667603%, 47.599792%, 18.482971%)" offset="0.558594"/><stop stop-opacity="1" stop-color="rgb(93.676758%, 47.817993%, 18.534851%)" offset="0.5625"/><stop stop-opacity="1" stop-color="rgb(93.685913%, 48.034668%, 18.586731%)" offset="0.566406"/><stop stop-opacity="1" stop-color="rgb(93.696594%, 48.252869%, 18.638611%)" offset="0.570312"/><stop stop-opacity="1" stop-color="rgb(93.70575%, 48.471069%, 18.688965%)" offset="0.574219"/><stop stop-opacity="1" stop-color="rgb(93.714905%, 48.68927%, 18.740845%)" offset="0.578125"/><stop stop-opacity="1" stop-color="rgb(93.721008%, 48.854065%, 18.778992%)" offset="0.59375"/><stop stop-opacity="1" stop-color="rgb(93.728638%, 49.01886%, 18.818665%)" offset="0.625"/><stop stop-opacity="1" stop-color="rgb(93.728638%, 49.01886%, 18.818665%)" offset="0.666817"/><stop stop-opacity="1" stop-color="rgb(93.728638%, 49.01886%, 18.818665%)" offset="0.75"/><stop stop-opacity="1" stop-color="rgb(93.728638%, 49.01886%, 18.818665%)" offset="1"/></linearGradient><clipPath id="29c4c4eb93"><path d="M 19.664062 67 L 50 67 L 50 98.117188 L 19.664062 98.117188 Z M 19.664062 67 " clip-rule="nonzero"/></clipPath></defs><path fill="#eb201a" d="M 49.378906 39.042969 L 47.542969 42.1875 L 39.035156 56.792969 C 39.035156 56.792969 35.523438 56.863281 32.21875 56.863281 C 29.546875 56.863281 27.011719 56.820312 26.574219 56.65625 C 25.226562 56.160156 22.71875 52.542969 30.726562 46.617188 C 38.734375 40.691406 49.378906 39.042969 49.378906 39.042969 Z M 49.378906 39.042969 " fill-opacity="1" fill-rule="nonzero"/><path fill="#000072" d="M 47.007812 41.441406 L 47.542969 42.191406 L 39.035156 56.792969 C 39.035156 56.792969 35.523438 56.863281 32.21875 56.863281 C 36.882812 55.984375 37.722656 52.203125 37.722656 52.203125 C 43.152344 43.898438 47.007812 41.441406 47.007812 41.441406 Z M 47.007812 41.441406 " fill-opacity="0.2" fill-rule="nonzero"/><path fill="#fefefe" d="M 49.378906 39.042969 L 48.445312 40.644531 C 45.253906 41.324219 37.460938 43.347656 31.253906 47.941406 C 26.453125 51.492188 25.433594 54.210938 25.671875 55.929688 C 24.632812 54.527344 24.410156 51.289062 30.726562 46.617188 C 38.734375 40.691406 49.378906 39.042969 49.378906 39.042969 Z M 49.378906 39.042969 " fill-opacity="0.62" fill-rule="nonzero"/><path fill="#eb201a" d="M 71.113281 85.992188 C 65.394531 94.148438 61.714844 91.734375 61.183594 90.398438 C 60.972656 89.867188 60.855469 86.171875 60.792969 82.941406 C 60.746094 80.285156 60.730469 77.945312 60.730469 77.945312 L 78.207031 67.152344 C 78.207031 67.152344 78.015625 68.640625 77.476562 70.933594 C 76.574219 74.78125 74.695312 80.878906 71.113281 85.992188 Z M 71.113281 85.992188 " fill-opacity="1" fill-rule="nonzero"/><path fill="#000072" d="M 77.433594 70.855469 C 75.890625 71.71875 68.574219 75.996094 64.953125 81.496094 C 64.953125 81.496094 62.613281 81.136719 60.75 82.863281 C 60.703125 80.207031 60.6875 77.867188 60.6875 77.867188 L 78.164062 67.074219 C 78.164062 67.074219 77.972656 68.5625 77.433594 70.855469 Z M 77.433594 70.855469 " fill-opacity="0.2" fill-rule="nonzero"/><path fill="#ffffff" d="M 59.660156 78.054688 C 59.660156 78.054688 58.847656 78.222656 57.730469 78.226562 C 57.558594 78.226562 57.382812 78.222656 57.203125 78.214844 C 56.867188 78.203125 56.515625 78.171875 56.160156 78.121094 C 55.898438 78.082031 55.636719 78.03125 55.375 77.964844 L 39.054688 62.054688 C 39 61.859375 38.957031 61.660156 38.917969 61.464844 C 38.773438 60.730469 38.730469 60.011719 38.734375 59.410156 C 38.734375 59.371094 38.734375 59.335938 38.734375 59.300781 C 38.746094 58.398438 38.855469 57.773438 38.855469 57.773438 C 40.964844 43.890625 60.632812 24.695312 78.949219 21.453125 C 83.246094 20.691406 87.46875 20.808594 91.371094 22.078125 L 91.378906 22.082031 C 91.886719 22.246094 92.347656 22.507812 92.75 22.839844 C 92.878906 22.949219 93.003906 23.0625 93.117188 23.191406 C 93.4375 23.527344 93.699219 23.925781 93.890625 24.359375 C 93.929688 24.449219 93.964844 24.539062 94 24.632812 C 95.371094 28.507812 95.59375 32.726562 94.945312 37.042969 C 92.171875 55.441406 73.484375 75.59375 59.660156 78.054688 Z M 59.660156 78.054688 " fill-opacity="1" fill-rule="nonzero"/><path fill="#371a45" d="M 84.945312 47.386719 C 81.910156 50.5 76.375 50.023438 72.578125 46.324219 C 71.417969 45.191406 70.554688 43.886719 70 42.53125 C 68.746094 39.464844 69.09375 36.148438 71.199219 33.988281 C 71.90625 33.261719 72.746094 32.734375 73.671875 32.394531 L 73.675781 32.390625 C 73.8125 32.34375 73.949219 32.296875 74.085938 32.253906 L 75.925781 31.640625 C 78.597656 30.59375 82.097656 31.402344 84.671875 33.917969 C 87.25 36.429688 88.148438 39.90625 87.167969 42.601562 L 86.605469 44.457031 C 86.566406 44.597656 86.523438 44.734375 86.476562 44.871094 L 86.476562 44.875 C 86.160156 45.808594 85.652344 46.664062 84.945312 47.386719 Z M 84.945312 47.386719 " fill-opacity="0.25" fill-rule="nonzero"/><path fill="#eb201a" d="M 59.207031 77.261719 C 58.792969 77.6875 58.292969 78.007812 57.730469 78.226562 C 57.023438 78.230469 56.199219 78.171875 55.375 77.964844 L 39.054688 62.054688 C 38.785156 61.078125 38.722656 60.085938 38.734375 59.300781 C 38.933594 58.847656 39.203125 58.441406 39.546875 58.089844 C 42.363281 55.203125 49.046875 57.152344 54.476562 62.445312 C 59.90625 67.738281 62.023438 74.371094 59.207031 77.261719 Z M 59.207031 77.261719 " fill-opacity="1" fill-rule="nonzero"/><path fill="#371a45" d="M 67.671875 52.308594 C 67.671875 52.308594 65.078125 61.832031 56.464844 68.753906 L 54.894531 67.078125 Z M 67.671875 52.308594 " fill-opacity="0.2" fill-rule="nonzero"/><path fill="#eb201a" d="M 94.945312 37.042969 C 94.40625 33.445312 92.53125 29.730469 89.429688 26.703125 C 86.324219 23.679688 82.5625 21.898438 78.949219 21.453125 C 83.25 20.691406 87.472656 20.808594 91.378906 22.082031 C 92.601562 22.480469 93.570312 23.421875 94 24.632812 C 95.371094 28.507812 95.59375 32.726562 94.945312 37.042969 Z M 94.945312 37.042969 " fill-opacity="1" fill-rule="nonzero"/><path fill="#371a45" d="M 58.699219 76.273438 C 58.699219 76.273438 57.875 76.429688 56.738281 76.425781 C 56.023438 76.421875 55.179688 76.355469 54.34375 76.144531 L 51.90625 73.828125 C 52.5 73.292969 53.050781 72.707031 53.550781 72.070312 C 53.761719 72.082031 53.964844 72.085938 54.160156 72.089844 C 55.296875 72.09375 56.121094 71.9375 56.121094 71.9375 C 70.160156 69.625 88.972656 49.808594 91.621094 31.582031 C 92.09375 28.328125 92.050781 25.125 91.371094 22.078125 L 91.378906 22.082031 C 91.886719 22.246094 92.347656 22.507812 92.75 22.839844 C 92.898438 23.078125 93.023438 23.332031 93.121094 23.597656 C 94.550781 27.453125 94.820312 31.640625 94.199219 35.917969 C 91.554688 54.140625 72.738281 73.960938 58.699219 76.273438 Z M 58.699219 76.273438 " fill-opacity="0.25" fill-rule="nonzero"/><path fill="#fefefe" d="M 93.890625 24.359375 C 90.535156 23.589844 86.980469 23.613281 83.371094 24.261719 C 65.152344 27.535156 45.566406 46.757812 43.441406 60.636719 C 43.441406 60.636719 43.332031 61.261719 43.316406 62.164062 C 43.304688 62.945312 43.367188 63.9375 43.632812 64.914062 L 47.816406 69.015625 C 47.726562 69.238281 47.640625 69.464844 47.558594 69.691406 L 40.949219 63.214844 C 40.683594 62.238281 40.625 61.246094 40.636719 60.464844 C 40.648438 59.5625 40.761719 58.9375 40.761719 58.9375 C 42.882812 45.058594 62.472656 25.835938 80.6875 22.5625 C 84.964844 21.792969 89.164062 21.902344 93.042969 23.164062 C 93.070312 23.171875 93.09375 23.179688 93.117188 23.191406 C 93.4375 23.527344 93.699219 23.925781 93.890625 24.359375 Z M 93.890625 24.359375 " fill-opacity="0.62" fill-rule="nonzero"/><path fill="#c0c9cc" d="M 52.875 82.390625 L 56.5625 75.25 C 57.371094 73.683594 57.421875 71.828125 56.683594 70.226562 C 54.570312 65.632812 51.207031 62.375 46.628906 60.417969 C 45.015625 59.730469 43.171875 59.835938 41.632812 60.679688 L 34.578125 64.554688 C 33.402344 65.199219 32.691406 66.472656 32.804688 67.8125 C 33.292969 73.710938 43.753906 83.910156 49.664062 84.25 C 51.003906 84.324219 52.257812 83.585938 52.875 82.390625 Z M 52.875 82.390625 " fill-opacity="1" fill-rule="nonzero"/><path fill="#371a45" d="M 54.894531 67.078125 L 50.113281 74.425781 C 50.113281 74.425781 47.96875 76.089844 48.203125 76.277344 C 48.4375 76.460938 50.035156 79.453125 50.035156 79.453125 L 49.488281 81.398438 L 52.917969 80.542969 L 52.792969 79.054688 L 57.027344 72.089844 Z M 54.894531 67.078125 " fill-opacity="0.2" fill-rule="nonzero"/><path fill="#fefefe" d="M 45.5 60.070312 L 37.90625 64.453125 L 37.398438 64.707031 C 37.398438 64.707031 36.671875 67.472656 36.816406 67.304688 C 36.960938 67.132812 40.101562 68.617188 40.101562 68.617188 L 40.628906 68.753906 L 41.28125 66.261719 L 47.4375 60.992188 Z M 45.5 60.070312 " fill-opacity="0.62" fill-rule="nonzero"/><path fill="#35bbef" d="M 84.96875 45.027344 C 81.9375 48.140625 76.398438 47.664062 72.605469 43.964844 C 71.441406 42.832031 70.578125 41.527344 70.023438 40.175781 C 68.773438 37.105469 69.121094 33.789062 71.222656 31.628906 C 71.929688 30.902344 72.773438 30.375 73.695312 30.035156 L 73.703125 30.03125 C 73.835938 29.984375 73.972656 29.9375 74.113281 29.894531 L 75.953125 29.285156 C 78.625 28.234375 82.121094 29.042969 84.699219 31.558594 C 87.277344 34.070312 88.171875 37.546875 87.195312 40.242188 L 86.628906 42.097656 C 86.589844 42.238281 86.546875 42.375 86.5 42.511719 L 86.5 42.515625 C 86.183594 43.449219 85.675781 44.304688 84.96875 45.027344 Z M 84.96875 45.027344 " fill-opacity="1" fill-rule="nonzero"/><path fill="#000072" d="M 84.96875 45.027344 C 81.9375 48.140625 76.398438 47.664062 72.605469 43.964844 C 71.441406 42.832031 70.578125 41.527344 70.023438 40.175781 C 70.027344 40.175781 70.027344 40.175781 70.027344 40.175781 L 73 38.382812 C 79.878906 48.625 86.628906 42.097656 86.628906 42.097656 C 86.589844 42.238281 86.546875 42.375 86.5 42.511719 L 86.5 42.515625 C 86.183594 43.449219 85.675781 44.304688 84.96875 45.027344 Z M 84.96875 45.027344 " fill-opacity="0.2" fill-rule="nonzero"/><path fill="#35bbef" d="M 84.695312 31.554688 C 85.089844 31.9375 85.449219 32.347656 85.773438 32.789062 C 86.097656 33.226562 86.382812 33.683594 86.625 34.164062 C 86.867188 34.640625 87.066406 35.128906 87.21875 35.628906 C 87.371094 36.125 87.476562 36.625 87.53125 37.125 C 87.585938 37.625 87.59375 38.113281 87.550781 38.59375 C 87.507812 39.078125 87.417969 39.539062 87.277344 39.984375 C 87.136719 40.429688 86.949219 40.847656 86.71875 41.238281 C 86.488281 41.628906 86.214844 41.988281 85.898438 42.308594 C 85.585938 42.632812 85.234375 42.914062 84.851562 43.15625 C 84.464844 43.398438 84.050781 43.59375 83.609375 43.746094 C 83.167969 43.898438 82.710938 44 82.230469 44.054688 C 81.75 44.109375 81.257812 44.117188 80.757812 44.074219 C 80.257812 44.03125 79.757812 43.9375 79.253906 43.800781 C 78.753906 43.660156 78.257812 43.472656 77.777344 43.242188 C 77.292969 43.011719 76.824219 42.742188 76.378906 42.425781 C 75.929688 42.113281 75.511719 41.765625 75.117188 41.382812 C 74.722656 41 74.363281 40.585938 74.039062 40.148438 C 73.714844 39.707031 73.433594 39.25 73.1875 38.773438 C 72.945312 38.292969 72.746094 37.804688 72.59375 37.308594 C 72.441406 36.808594 72.339844 36.3125 72.28125 35.8125 C 72.226562 35.3125 72.21875 34.820312 72.261719 34.339844 C 72.304688 33.859375 72.398438 33.394531 72.539062 32.949219 C 72.675781 32.503906 72.863281 32.085938 73.09375 31.695312 C 73.328125 31.304688 73.597656 30.949219 73.914062 30.625 C 74.226562 30.300781 74.578125 30.019531 74.964844 29.777344 C 75.347656 29.539062 75.761719 29.339844 76.203125 29.1875 C 76.644531 29.039062 77.105469 28.933594 77.585938 28.878906 C 78.066406 28.824219 78.554688 28.820312 79.054688 28.863281 C 79.554688 28.90625 80.058594 28.996094 80.558594 29.136719 C 81.0625 29.273438 81.554688 29.460938 82.039062 29.691406 C 82.523438 29.921875 82.988281 30.195312 83.433594 30.507812 C 83.882812 30.820312 84.304688 31.167969 84.695312 31.554688 Z M 84.695312 31.554688 " fill-opacity="1" fill-rule="nonzero"/><path fill="#aee6ff" d="M 83.824219 41.160156 C 81.824219 42.46875 78.78125 41.976562 76.605469 39.855469 C 74.433594 37.738281 73.867188 34.710938 75.121094 32.675781 C 77.125 31.363281 80.167969 31.855469 82.339844 33.976562 C 84.511719 36.09375 85.082031 39.121094 83.824219 41.160156 Z M 83.824219 41.160156 " fill-opacity="1" fill-rule="nonzero"/><path fill="#371a45" d="M 83.824219 41.160156 C 81.824219 42.46875 78.78125 41.976562 76.605469 39.855469 C 74.433594 37.738281 73.867188 34.710938 75.121094 32.675781 C 75.207031 32.621094 75.292969 32.566406 75.378906 32.519531 C 75.042969 34.363281 75.765625 36.539062 77.441406 38.171875 C 79.523438 40.203125 82.40625 40.738281 84.40625 39.625 C 84.304688 40.175781 84.113281 40.691406 83.824219 41.160156 Z M 83.824219 41.160156 " fill-opacity="0.25" fill-rule="nonzero"/><path fill="#000072" d="M 81.28125 42.308594 C 81.09375 42.308594 80.90625 42.300781 80.71875 42.285156 C 79.125 42.136719 77.558594 41.382812 76.308594 40.164062 C 75.054688 38.945312 74.265625 37.398438 74.078125 35.808594 C 73.886719 34.1875 74.34375 32.714844 75.371094 31.664062 C 76.394531 30.613281 77.855469 30.117188 79.480469 30.265625 C 81.070312 30.414062 82.636719 31.167969 83.890625 32.386719 C 86.496094 34.929688 86.917969 38.742188 84.828125 40.886719 C 83.921875 41.816406 82.679688 42.308594 81.28125 42.308594 Z M 78.921875 31.097656 C 77.753906 31.097656 76.722656 31.503906 75.984375 32.265625 C 75.144531 33.125 74.769531 34.351562 74.929688 35.710938 C 75.09375 37.101562 75.796875 38.46875 76.90625 39.550781 C 78.015625 40.632812 79.398438 41.300781 80.796875 41.429688 C 82.160156 41.554688 83.371094 41.148438 84.214844 40.289062 C 85.972656 38.480469 85.558594 35.214844 83.289062 33 C 82.179688 31.917969 80.796875 31.25 79.402344 31.121094 C 79.238281 31.105469 79.078125 31.097656 78.921875 31.097656 Z M 78.921875 31.097656 " fill-opacity="1" fill-rule="nonzero"/><path fill="#ffcf02" d="M 84.519531 40.585938 C 84.308594 40.804688 84.074219 40.996094 83.824219 41.160156 C 85.082031 39.121094 84.515625 36.09375 82.339844 33.976562 C 80.167969 31.855469 77.125 31.363281 75.125 32.675781 C 75.277344 32.421875 75.464844 32.183594 75.675781 31.964844 C 77.605469 29.984375 81.148438 30.3125 83.589844 32.695312 C 86.03125 35.074219 86.449219 38.609375 84.519531 40.585938 Z M 84.519531 40.585938 " fill-opacity="1" fill-rule="nonzero"/><path fill="#35bbef" d="M 84.519531 40.585938 C 84.308594 40.804688 84.074219 40.996094 83.824219 41.160156 C 85.082031 39.121094 84.515625 36.09375 82.339844 33.976562 C 80.167969 31.855469 77.125 31.363281 75.125 32.675781 C 75.277344 32.421875 75.464844 32.183594 75.675781 31.964844 C 77.605469 29.984375 81.148438 30.3125 83.589844 32.695312 C 86.03125 35.074219 86.449219 38.609375 84.519531 40.585938 Z M 84.519531 40.585938 " fill-opacity="1" fill-rule="nonzero"/><path fill="#371a45" d="M 83.824219 41.585938 C 83.714844 41.585938 83.609375 41.546875 83.527344 41.464844 C 83.382812 41.324219 83.355469 41.105469 83.460938 40.933594 C 84.636719 39.027344 84.039062 36.230469 82.042969 34.28125 C 80.042969 32.332031 77.230469 31.808594 75.359375 33.03125 C 75.1875 33.140625 74.96875 33.121094 74.824219 32.980469 C 74.679688 32.839844 74.652344 32.621094 74.757812 32.449219 C 74.933594 32.167969 75.136719 31.902344 75.371094 31.664062 C 77.460938 29.519531 81.28125 29.84375 83.890625 32.386719 C 86.496094 34.929688 86.917969 38.742188 84.828125 40.886719 C 84.597656 41.125 84.335938 41.335938 84.058594 41.519531 C 83.988281 41.566406 83.90625 41.585938 83.824219 41.585938 Z M 77.675781 31.523438 C 79.378906 31.523438 81.203125 32.265625 82.640625 33.667969 C 84.296875 35.28125 85.09375 37.429688 84.878906 39.34375 C 85.800781 37.488281 85.207031 34.867188 83.289062 33 C 81.375 31.132812 78.742188 30.605469 76.910156 31.574219 C 77.160156 31.539062 77.417969 31.523438 77.675781 31.523438 Z M 77.675781 31.523438 " fill-opacity="1" fill-rule="nonzero"/><path fill="#371a45" d="M 81.273438 42.3125 C 79.570312 42.3125 77.746094 41.566406 76.308594 40.164062 C 74.023438 37.9375 73.371094 34.691406 74.757812 32.449219 C 74.789062 32.394531 74.835938 32.347656 74.886719 32.316406 C 77.097656 30.871094 80.355469 31.441406 82.640625 33.667969 C 84.925781 35.894531 85.578125 39.140625 84.191406 41.382812 C 84.15625 41.4375 84.113281 41.484375 84.058594 41.515625 C 83.242188 42.050781 82.277344 42.3125 81.273438 42.3125 Z M 75.4375 32.980469 C 74.328125 34.882812 74.9375 37.628906 76.90625 39.550781 C 78.878906 41.472656 81.636719 42.007812 83.507812 40.851562 C 84.621094 38.949219 84.011719 36.203125 82.042969 34.28125 C 80.070312 32.359375 77.3125 31.824219 75.4375 32.980469 Z M 83.824219 41.160156 L 83.828125 41.160156 Z M 83.824219 41.160156 " fill-opacity="1" fill-rule="nonzero"/><path fill="#fefefe" d="M 82.636719 37.394531 C 82.132812 37.910156 81.125 37.277344 80.097656 36.277344 C 79.070312 35.273438 78.414062 34.285156 78.914062 33.769531 C 79.417969 33.253906 80.660156 33.644531 81.6875 34.648438 C 82.714844 35.648438 83.136719 36.878906 82.636719 37.394531 Z M 82.636719 37.394531 " fill-opacity="0.62" fill-rule="nonzero"/><path fill="#371a45" d="M 79.828125 47.507812 C 77.257812 47.507812 74.496094 46.40625 72.304688 44.269531 C 70.398438 42.414062 69.199219 40.050781 68.925781 37.625 C 68.652344 35.164062 69.359375 32.929688 70.917969 31.328125 C 71.652344 30.574219 72.539062 30.003906 73.550781 29.632812 C 73.695312 29.578125 73.84375 29.527344 73.988281 29.484375 L 75.804688 28.878906 C 78.695312 27.753906 82.386719 28.703125 84.996094 31.25 C 87.609375 33.792969 88.652344 37.460938 87.601562 40.378906 L 87.039062 42.222656 C 87.003906 42.359375 86.957031 42.507812 86.910156 42.648438 C 86.90625 42.652344 86.90625 42.652344 86.90625 42.65625 C 86.5625 43.675781 86.011719 44.574219 85.277344 45.328125 C 83.851562 46.792969 81.902344 47.507812 79.828125 47.507812 Z M 78.390625 29.265625 C 77.597656 29.265625 76.824219 29.402344 76.109375 29.683594 C 76.101562 29.683594 76.09375 29.6875 76.085938 29.691406 L 74.246094 30.304688 C 74.105469 30.34375 73.976562 30.390625 73.851562 30.433594 C 73.84375 30.4375 73.839844 30.4375 73.832031 30.441406 C 72.957031 30.765625 72.175781 31.265625 71.53125 31.929688 C 70.15625 33.339844 69.535156 35.328125 69.78125 37.527344 C 70.03125 39.757812 71.140625 41.9375 72.902344 43.65625 C 76.523438 47.1875 81.800781 47.667969 84.664062 44.730469 C 85.308594 44.066406 85.789062 43.277344 86.09375 42.378906 L 86.097656 42.375 C 86.140625 42.25 86.179688 42.117188 86.214844 41.984375 L 86.785156 40.117188 C 86.785156 40.109375 86.789062 40.105469 86.789062 40.097656 C 87.738281 37.488281 86.777344 34.179688 84.398438 31.863281 C 82.679688 30.1875 80.464844 29.265625 78.390625 29.265625 Z M 86.5 42.515625 L 86.503906 42.515625 Z M 86.5 42.515625 " fill-opacity="1" fill-rule="nonzero"/><path fill="#371a45" d="M 81.425781 44.535156 C 81.195312 44.535156 80.960938 44.523438 80.722656 44.503906 C 78.585938 44.320312 76.492188 43.320312 74.820312 41.691406 C 71.347656 38.304688 70.804688 33.207031 73.609375 30.328125 C 76.414062 27.449219 81.523438 27.863281 84.996094 31.25 C 86.667969 32.878906 87.722656 34.949219 87.960938 37.078125 C 88.199219 39.242188 87.578125 41.207031 86.207031 42.613281 C 84.988281 43.863281 83.308594 44.535156 81.425781 44.535156 Z M 78.402344 29.265625 C 76.804688 29.265625 75.3125 29.8125 74.222656 30.925781 C 71.746094 33.46875 72.285156 38.019531 75.417969 41.078125 C 76.949219 42.570312 78.859375 43.480469 80.796875 43.648438 C 82.703125 43.8125 84.40625 43.234375 85.59375 42.015625 C 86.78125 40.796875 87.320312 39.078125 87.105469 37.175781 C 86.890625 35.242188 85.929688 33.355469 84.398438 31.863281 C 82.640625 30.152344 80.4375 29.265625 78.402344 29.265625 Z M 78.402344 29.265625 " fill-opacity="1" fill-rule="nonzero"/><path fill="#371a45" d="M 57.675781 78.707031 C 56.953125 78.707031 56.105469 78.640625 55.261719 78.429688 C 55.003906 78.367188 54.847656 78.109375 54.910156 77.851562 C 54.976562 77.59375 55.234375 77.4375 55.492188 77.503906 C 57.480469 77.996094 59.542969 77.589844 59.566406 77.585938 C 69.011719 75.90625 81.171875 65.558594 88.492188 52.984375 C 94.519531 42.628906 96.316406 32.617188 93.546875 24.792969 C 93.171875 23.730469 92.304688 22.886719 91.234375 22.539062 C 83.34375 19.96875 73.382812 22.019531 63.183594 28.3125 C 50.800781 35.949219 40.769531 48.371094 39.332031 57.847656 C 39.324219 57.878906 38.972656 59.953125 39.515625 61.929688 C 39.585938 62.183594 39.4375 62.445312 39.183594 62.515625 C 38.929688 62.585938 38.664062 62.4375 38.59375 62.183594 C 37.992188 59.992188 38.371094 57.785156 38.386719 57.691406 C 39.109375 52.914062 41.976562 47.238281 46.453125 41.714844 C 50.855469 36.285156 56.621094 31.234375 62.679688 27.496094 C 73.125 21.054688 83.367188 18.96875 91.527344 21.628906 C 92.882812 22.066406 93.972656 23.132812 94.449219 24.472656 C 97.3125 32.566406 95.492188 42.863281 89.316406 53.464844 C 85.734375 59.621094 80.835938 65.511719 75.519531 70.054688 C 70.113281 74.667969 64.511719 77.679688 59.742188 78.527344 C 59.695312 78.539062 58.839844 78.707031 57.675781 78.707031 Z M 57.675781 78.707031 " fill-opacity="1" fill-rule="nonzero"/><path fill="#371a45" d="M 49.851562 84.734375 C 49.78125 84.734375 49.707031 84.730469 49.636719 84.726562 C 43.507812 84.378906 32.832031 73.96875 32.328125 67.851562 C 32.199219 66.335938 32.996094 64.878906 34.347656 64.136719 L 41.402344 60.261719 C 43.089844 59.332031 45.0625 59.230469 46.816406 59.980469 C 51.503906 61.984375 54.972656 65.363281 57.121094 70.027344 C 57.910156 71.742188 57.859375 73.777344 56.988281 75.472656 L 53.300781 82.613281 C 52.625 83.917969 51.289062 84.734375 49.851562 84.734375 Z M 44.410156 60.449219 C 43.53125 60.449219 42.648438 60.667969 41.863281 61.097656 L 34.808594 64.972656 C 33.785156 65.535156 33.183594 66.632812 33.28125 67.773438 C 33.746094 73.429688 44.023438 83.449219 49.691406 83.773438 C 50.832031 83.835938 51.914062 83.210938 52.449219 82.171875 L 56.136719 75.03125 C 56.875 73.601562 56.917969 71.878906 56.25 70.429688 C 54.203125 65.988281 50.902344 62.765625 46.441406 60.859375 C 45.796875 60.585938 45.105469 60.449219 44.410156 60.449219 Z M 44.410156 60.449219 " fill-opacity="1" fill-rule="nonzero"/><g clip-path="url(#7e0ebaced0)"><g clip-path="url(#1506d0843f)"><path fill="url(#2f4b6e5d9a)" d="M 22.949219 59.121094 L 11.019531 94.921875 L 46.546875 106.757812 L 58.472656 70.960938 Z M 22.949219 59.121094 " fill-rule="nonzero"/></g></g><path fill="#371a45" d="M 52.050781 83.863281 C 51.941406 83.863281 51.832031 83.824219 51.75 83.742188 C 51.582031 83.578125 51.578125 83.304688 51.742188 83.136719 C 52.550781 82.308594 52.726562 81.0625 52.265625 79.429688 C 50.765625 74.09375 42.925781 66.453125 37.554688 65.085938 C 35.914062 64.667969 34.671875 64.878906 33.863281 65.703125 C 33.699219 65.875 33.425781 65.878906 33.257812 65.710938 C 33.085938 65.546875 33.085938 65.277344 33.25 65.105469 C 34.269531 64.058594 35.832031 63.765625 37.765625 64.253906 C 40.421875 64.933594 43.859375 67.136719 46.957031 70.160156 C 50.054688 73.179688 52.347656 76.558594 53.09375 79.199219 C 53.632812 81.117188 53.378906 82.6875 52.355469 83.734375 C 52.273438 83.820312 52.160156 83.863281 52.050781 83.863281 Z M 52.050781 83.863281 " fill-opacity="1" fill-rule="nonzero"/><path fill="#371a45" d="M 57.730469 78.65625 C 57.621094 78.65625 57.507812 78.613281 57.425781 78.53125 C 57.257812 78.363281 57.257812 78.089844 57.425781 77.921875 C 57.46875 77.882812 57.519531 77.847656 57.574219 77.828125 C 58.089844 77.625 58.535156 77.335938 58.902344 76.960938 C 60.148438 75.683594 60.367188 73.523438 59.527344 70.882812 C 58.652344 68.152344 56.753906 65.261719 54.175781 62.75 C 51.601562 60.238281 48.664062 58.414062 45.910156 57.609375 C 43.25 56.835938 41.097656 57.113281 39.851562 58.390625 C 39.554688 58.699219 39.308594 59.0625 39.128906 59.476562 C 39.113281 59.511719 39.089844 59.546875 39.066406 59.578125 C 38.914062 59.757812 38.644531 59.78125 38.460938 59.632812 C 38.304688 59.503906 38.265625 59.289062 38.347656 59.113281 C 38.570312 58.613281 38.871094 58.167969 39.238281 57.792969 C 40.71875 56.277344 43.171875 55.917969 46.152344 56.789062 C 49.039062 57.628906 52.101562 59.527344 54.777344 62.136719 C 57.449219 64.746094 59.429688 67.757812 60.34375 70.625 C 61.285156 73.582031 60.992188 76.042969 59.515625 77.558594 C 59.066406 78.019531 58.523438 78.375 57.894531 78.621094 C 57.839844 78.644531 57.785156 78.65625 57.730469 78.65625 Z M 57.730469 78.65625 " fill-opacity="1" fill-rule="nonzero"/><path fill="#ffcf02" d="M 26.410156 91.253906 L 26.351562 91.296875 C 35.3125 80.433594 29.050781 68.507812 41.378906 69.460938 C 44.046875 70.820312 46.042969 73.121094 47.855469 75.675781 C 49.121094 87.976562 37.039062 82.015625 26.410156 91.253906 Z M 26.410156 91.253906 " fill-opacity="1" fill-rule="nonzero"/><path fill="#eb201a" d="M 60.105469 62.273438 C 54.128906 68.402344 51.566406 68.578125 50.054688 67.101562 C 48.539062 65.625 48.644531 63.058594 54.621094 56.929688 C 60.597656 50.796875 66.671875 47.023438 68.183594 48.5 C 69.699219 49.976562 66.082031 56.140625 60.105469 62.273438 Z M 60.105469 62.273438 " fill-opacity="1" fill-rule="nonzero"/><path fill="#000072" d="M 60.105469 62.273438 C 54.128906 68.402344 51.566406 68.574219 50.054688 67.101562 C 49.363281 66.425781 49.007812 65.527344 49.398438 64.160156 C 49.535156 64.582031 49.777344 64.929688 50.089844 65.234375 C 51.605469 66.710938 54.164062 66.539062 60.140625 60.40625 C 64.503906 55.933594 67.605469 51.441406 68.378906 48.765625 C 69.316406 50.613281 65.769531 56.460938 60.105469 62.273438 Z M 60.105469 62.273438 " fill-opacity="0.2" fill-rule="nonzero"/><path fill="#fefefe" d="M 68.199219 51.078125 C 68.207031 50.621094 68.09375 50.265625 67.855469 50.03125 C 66.339844 48.554688 60.269531 52.328125 54.292969 58.457031 C 51.367188 61.460938 49.847656 63.605469 49.238281 65.191406 C 49.25 63.539062 50.621094 61.035156 54.621094 56.929688 C 60.597656 50.796875 66.671875 47.023438 68.183594 48.5 C 68.652344 48.957031 68.628906 49.863281 68.199219 51.078125 Z M 68.199219 51.078125 " fill-opacity="0.62" fill-rule="nonzero"/><path fill="#371a45" d="M 51.867188 68.292969 C 51.054688 68.292969 50.355469 67.992188 49.753906 67.40625 C 47.644531 65.351562 49.050781 62.027344 54.316406 56.628906 C 57.230469 53.640625 60.261719 51.105469 62.851562 49.496094 C 64.792969 48.289062 67.347656 47.082031 68.484375 48.191406 C 69.621094 49.300781 68.480469 51.882812 67.324219 53.855469 C 65.78125 56.488281 63.324219 59.582031 60.410156 62.570312 C 56.652344 66.429688 53.902344 68.292969 51.867188 68.292969 Z M 67.234375 48.605469 C 66.496094 48.605469 65.21875 49.035156 63.304688 50.226562 C 60.769531 51.800781 57.796875 54.285156 54.929688 57.226562 C 48.644531 63.675781 49.308594 65.773438 50.351562 66.792969 C 51.398438 67.8125 53.511719 68.421875 59.796875 61.972656 C 62.664062 59.03125 65.074219 55.996094 66.582031 53.421875 C 68.203125 50.664062 68.316406 49.226562 67.882812 48.804688 C 67.757812 48.683594 67.542969 48.605469 67.234375 48.605469 Z M 67.234375 48.605469 " fill-opacity="1" fill-rule="nonzero"/><g clip-path="url(#29c4c4eb93)"><path fill="#371a45" d="M 20.96875 98.121094 C 20.671875 98.121094 20.378906 98.003906 20.148438 97.78125 C 19.757812 97.398438 19.675781 96.820312 19.949219 96.34375 C 22.671875 91.59375 23.003906 87.183594 23.265625 83.636719 C 23.230469 79.652344 24.460938 76.039062 26.816406 73.183594 C 29.210938 70.285156 32.605469 68.386719 36.632812 67.695312 C 37.886719 67.476562 39.15625 67.648438 40.304688 68.183594 C 43.675781 69.761719 47.503906 73.503906 49.210938 76.894531 C 49.78125 78.027344 49.984375 79.296875 49.796875 80.5625 C 49.203125 84.597656 47.390625 88.03125 44.554688 90.496094 C 41.761719 92.917969 38.183594 94.234375 34.203125 94.300781 C 30.667969 94.65625 26.269531 95.097656 21.589844 97.941406 C 21.394531 98.0625 21.183594 98.121094 20.96875 98.121094 Z M 37.691406 68.558594 C 37.394531 68.558594 37.09375 68.585938 36.792969 68.636719 C 29.082031 69.964844 24.148438 75.855469 24.222656 83.648438 C 24.222656 83.660156 24.222656 83.675781 24.222656 83.6875 C 23.953125 87.335938 23.617188 91.871094 20.78125 96.820312 C 20.703125 96.953125 20.769531 97.050781 20.816406 97.09375 C 20.863281 97.140625 20.960938 97.203125 21.09375 97.125 C 25.964844 94.160156 30.492188 93.710938 34.128906 93.347656 C 34.144531 93.347656 34.15625 93.34375 34.171875 93.34375 C 41.949219 93.222656 47.710938 88.152344 48.851562 80.425781 C 49.007812 79.355469 48.835938 78.28125 48.355469 77.324219 C 46.761719 74.15625 43.046875 70.523438 39.898438 69.050781 C 39.203125 68.726562 38.453125 68.558594 37.691406 68.558594 Z M 49.324219 80.496094 Z M 49.324219 80.496094 " fill-opacity="1" fill-rule="nonzero"/></g><path fill="#371a45" d="M 42.480469 70.46875 C 42.394531 70.46875 42.308594 70.441406 42.230469 70.390625 C 38.902344 68.039062 37.0625 67.511719 36.453125 67.804688 C 36.378906 67.839844 36.183594 67.933594 36.148438 68.394531 C 36.132812 68.632812 35.929688 68.808594 35.691406 68.792969 C 35.457031 68.777344 35.277344 68.570312 35.292969 68.335938 C 35.351562 67.539062 35.753906 67.183594 36.085938 67.027344 C 37.226562 66.488281 39.460938 67.382812 42.726562 69.6875 C 42.921875 69.824219 42.964844 70.09375 42.828125 70.285156 C 42.746094 70.40625 42.613281 70.46875 42.480469 70.46875 Z M 42.480469 70.46875 " fill-opacity="1" fill-rule="nonzero"/><path fill="#371a45" d="M 49.15625 81.894531 C 48.9375 81.894531 48.753906 81.726562 48.730469 81.503906 C 48.707031 81.269531 48.878906 81.058594 49.117188 81.035156 C 49.578125 80.992188 49.667969 80.792969 49.699219 80.71875 C 49.972656 80.101562 49.402344 78.273438 46.96875 75.007812 C 46.828125 74.816406 46.867188 74.546875 47.054688 74.40625 C 47.246094 74.265625 47.515625 74.304688 47.65625 74.492188 C 50.042969 77.699219 50.996094 79.914062 50.484375 81.066406 C 50.335938 81.402344 49.992188 81.8125 49.199219 81.890625 C 49.183594 81.890625 49.171875 81.894531 49.15625 81.894531 Z M 49.15625 81.894531 " fill-opacity="1" fill-rule="nonzero"/><path fill="#371a45" d="M 94.945312 37.472656 C 94.734375 37.472656 94.550781 37.320312 94.519531 37.109375 C 93.972656 33.453125 92.058594 29.867188 89.128906 27.011719 C 86.199219 24.15625 82.566406 22.332031 78.898438 21.878906 C 78.804688 21.867188 78.714844 21.824219 78.648438 21.757812 C 78.480469 21.589844 78.480469 21.316406 78.648438 21.148438 C 78.75 21.046875 78.886719 21.007812 79.019531 21.03125 C 82.867188 21.507812 86.667969 23.414062 89.726562 26.398438 C 92.789062 29.382812 94.792969 33.140625 95.367188 36.980469 C 95.402344 37.214844 95.242188 37.433594 95.007812 37.46875 C 94.984375 37.472656 94.964844 37.472656 94.945312 37.472656 Z M 94.945312 37.472656 " fill-opacity="1" fill-rule="nonzero"/><path fill="#371a45" d="M 32.300781 57.34375 C 29.539062 57.34375 26.910156 57.292969 26.40625 57.105469 C 25.675781 56.835938 24.859375 55.984375 24.671875 54.683594 C 24.425781 52.957031 25.226562 50.089844 30.441406 46.230469 C 38.453125 40.304688 49.195312 38.585938 49.304688 38.570312 C 49.566406 38.53125 49.808594 38.707031 49.851562 38.96875 C 49.890625 39.230469 49.710938 39.476562 49.449219 39.515625 C 49.34375 39.53125 38.828125 41.21875 31.011719 47 C 25.921875 50.765625 25.449219 53.34375 25.621094 54.546875 C 25.757812 55.515625 26.363281 56.070312 26.738281 56.210938 C 27.371094 56.421875 33.539062 56.421875 39.023438 56.3125 C 39.289062 56.308594 39.507812 56.519531 39.511719 56.78125 C 39.515625 57.046875 39.308594 57.265625 39.042969 57.269531 C 38.066406 57.289062 35.117188 57.34375 32.300781 57.34375 Z M 32.300781 57.34375 " fill-opacity="1" fill-rule="nonzero"/><path fill="#371a45" d="M 26.570312 57.085938 C 26.453125 57.085938 26.332031 57.035156 26.25 56.9375 C 26.222656 56.910156 25.625 56.203125 25.777344 55.273438 C 25.886719 54.578125 26.378906 53.964844 27.230469 53.460938 C 29.503906 52.113281 39.949219 52.027344 40.390625 52.027344 C 40.394531 52.027344 40.394531 52.027344 40.394531 52.027344 C 40.628906 52.027344 40.824219 52.214844 40.824219 52.453125 C 40.824219 52.6875 40.636719 52.882812 40.398438 52.882812 C 37.441406 52.902344 29.390625 53.179688 27.667969 54.199219 C 27.046875 54.566406 26.695312 54.972656 26.625 55.40625 C 26.535156 55.933594 26.894531 56.375 26.898438 56.378906 C 27.050781 56.558594 27.03125 56.832031 26.851562 56.984375 C 26.769531 57.050781 26.671875 57.085938 26.570312 57.085938 Z M 26.570312 57.085938 " fill-opacity="1" fill-rule="nonzero"/><path fill="#371a45" d="M 63.660156 92.273438 C 63.5 92.273438 63.347656 92.265625 63.207031 92.25 C 61.902344 92.097656 61.027344 91.300781 60.738281 90.578125 C 60.339844 89.574219 60.261719 79.882812 60.253906 77.949219 C 60.25 77.683594 60.464844 77.46875 60.726562 77.464844 C 60.730469 77.464844 60.730469 77.464844 60.730469 77.464844 C 60.992188 77.464844 61.207031 77.679688 61.207031 77.941406 C 61.238281 83.429688 61.398438 89.597656 61.628906 90.222656 C 61.773438 90.59375 62.347656 91.183594 63.316406 91.296875 C 64.523438 91.4375 67.085938 90.898438 70.722656 85.714844 C 76.304688 77.753906 77.71875 67.195312 77.734375 67.089844 C 77.765625 66.828125 78.007812 66.640625 78.269531 66.675781 C 78.53125 66.710938 78.714844 66.949219 78.683594 67.210938 C 78.667969 67.320312 77.226562 78.105469 71.503906 86.265625 C 68.089844 91.136719 65.414062 92.273438 63.660156 92.273438 Z M 63.660156 92.273438 " fill-opacity="1" fill-rule="nonzero"/><path fill="#371a45" d="M 62.234375 91.195312 C 61.484375 91.195312 60.9375 90.753906 60.910156 90.730469 C 60.726562 90.582031 60.699219 90.308594 60.851562 90.125 C 61 89.945312 61.269531 89.917969 61.453125 90.066406 C 61.464844 90.074219 61.910156 90.417969 62.433594 90.316406 C 62.863281 90.234375 63.261719 89.871094 63.613281 89.242188 C 64.589844 87.496094 64.660156 79.4375 64.601562 76.480469 C 64.597656 76.246094 64.785156 76.050781 65.023438 76.042969 C 65.261719 76.046875 65.457031 76.230469 65.460938 76.464844 C 65.46875 76.910156 65.648438 87.355469 64.363281 89.660156 C 63.878906 90.527344 63.28125 91.03125 62.585938 91.160156 C 62.464844 91.183594 62.347656 91.195312 62.234375 91.195312 Z M 62.234375 91.195312 " fill-opacity="1" fill-rule="nonzero"/><path fill="#000072" d="M 48.867188 44.027344 L 48.855469 44.015625 C 48.859375 44.011719 48.863281 44.015625 48.867188 44.027344 Z M 48.867188 44.027344 " fill-opacity="0.2" fill-rule="nonzero"/></svg>