<svg xmlns="http://www.w3.org/2000/svg" xmlns:xlink="http://www.w3.org/1999/xlink" width="200" zoomAndPan="magnify" viewBox="0 0 150 149.999998" height="200" preserveAspectRatio="xMidYMid meet" version="1.0"><defs><clipPath id="5f97576b93"><path d="M 30.085938 26.148438 L 127.585938 26.148438 L 127.585938 123.648438 L 30.085938 123.648438 Z M 30.085938 26.148438 " clip-rule="nonzero"/></clipPath></defs><g clip-path="url(#5f97576b93)"><path fill="#fbbb30" d="M 78.933594 26.148438 C 52 26.148438 30.085938 48.0625 30.085938 74.996094 C 30.085938 86.710938 34.234375 97.46875 41.132812 105.890625 L 48.109375 98.917969 C 42.953125 92.296875 39.855469 84.015625 39.855469 74.996094 C 39.855469 55.109375 54.804688 38.667969 74.050781 36.25 L 74.050781 46.136719 C 60.210938 48.472656 49.625 60.5 49.625 74.996094 C 49.625 89.492188 60.210938 101.519531 74.050781 103.859375 L 74.050781 113.734375 C 66.933594 112.832031 60.410156 110.035156 55.003906 105.832031 L 48.039062 112.796875 C 56.46875 119.691406 67.21875 123.847656 78.933594 123.847656 C 105.871094 123.847656 127.785156 101.933594 127.785156 74.996094 C 127.785156 63.28125 123.632812 52.523438 116.734375 44.101562 L 109.769531 51.066406 C 114.917969 57.691406 118.015625 65.980469 118.015625 74.996094 C 118.015625 94.886719 103.0625 111.324219 83.820312 113.742188 L 83.820312 103.878906 C 88.257812 103.121094 92.359375 101.375 95.886719 98.859375 L 88.800781 91.769531 C 85.894531 93.488281 82.550781 94.535156 78.933594 94.535156 C 68.15625 94.535156 59.394531 85.773438 59.394531 74.996094 C 59.394531 64.222656 68.15625 55.457031 78.933594 55.457031 C 89.710938 55.457031 98.472656 64.222656 98.472656 74.996094 C 98.472656 78.613281 97.425781 81.957031 95.707031 84.863281 L 102.796875 91.953125 C 106.210938 87.160156 108.242188 81.316406 108.242188 74.996094 C 108.242188 60.5 97.660156 48.472656 83.820312 46.136719 L 83.820312 36.261719 C 90.933594 37.160156 97.457031 39.957031 102.863281 44.160156 L 109.828125 37.195312 C 101.402344 30.304688 90.648438 26.148438 78.933594 26.148438 Z M 78.933594 65.226562 C 78.292969 65.226562 77.65625 65.289062 77.027344 65.414062 C 76.398438 65.539062 75.789062 65.726562 75.195312 65.972656 C 74.601562 66.214844 74.039062 66.515625 73.507812 66.875 C 72.972656 67.230469 72.480469 67.636719 72.027344 68.089844 C 71.570312 68.542969 71.167969 69.035156 70.8125 69.570312 C 70.453125 70.101562 70.152344 70.664062 69.90625 71.257812 C 69.664062 71.851562 69.476562 72.460938 69.351562 73.089844 C 69.226562 73.71875 69.164062 74.355469 69.164062 74.996094 C 69.164062 75.636719 69.226562 76.273438 69.351562 76.902344 C 69.476562 77.53125 69.664062 78.144531 69.90625 78.734375 C 70.152344 79.328125 70.453125 79.890625 70.8125 80.425781 C 71.167969 80.957031 71.570312 81.453125 72.027344 81.90625 C 72.480469 82.359375 72.972656 82.765625 73.507812 83.121094 C 74.039062 83.476562 74.601562 83.777344 75.195312 84.023438 C 75.789062 84.269531 76.398438 84.453125 77.027344 84.578125 C 77.65625 84.703125 78.292969 84.765625 78.933594 84.765625 C 79.574219 84.765625 80.210938 84.703125 80.839844 84.578125 C 81.46875 84.453125 82.082031 84.269531 82.671875 84.023438 C 83.265625 83.777344 83.828125 83.476562 84.363281 83.121094 C 84.894531 82.765625 85.390625 82.359375 85.84375 81.90625 C 86.296875 81.453125 86.703125 80.957031 87.058594 80.425781 C 87.414062 79.890625 87.714844 79.328125 87.960938 78.734375 C 88.207031 78.144531 88.390625 77.53125 88.515625 76.902344 C 88.640625 76.273438 88.703125 75.636719 88.703125 74.996094 C 88.703125 74.355469 88.640625 73.71875 88.515625 73.089844 C 88.390625 72.460938 88.207031 71.851562 87.960938 71.257812 C 87.714844 70.664062 87.414062 70.101562 87.058594 69.570312 C 86.703125 69.035156 86.296875 68.542969 85.84375 68.089844 C 85.390625 67.636719 84.894531 67.230469 84.363281 66.875 C 83.828125 66.515625 83.265625 66.214844 82.671875 65.972656 C 82.082031 65.726562 81.46875 65.539062 80.839844 65.414062 C 80.210938 65.289062 79.574219 65.226562 78.933594 65.226562 Z M 78.933594 65.226562 " fill-opacity="1" fill-rule="nonzero"/></g></svg>