<svg xmlns="http://www.w3.org/2000/svg" xmlns:xlink="http://www.w3.org/1999/xlink" width="150" zoomAndPan="magnify" viewBox="0 0 112.5 112.499997" height="150" preserveAspectRatio="xMidYMid meet" version="1.0"><defs><clipPath id="4cc9d737ce"><path d="M 22 22.003906 L 90 22.003906 L 90 89 L 22 89 Z M 22 22.003906 " clip-rule="nonzero"/></clipPath><clipPath id="cf5648c987"><path d="M 1.800781 24 L 110.070312 24 L 110.070312 87 L 1.800781 87 Z M 1.800781 24 " clip-rule="nonzero"/></clipPath></defs><g clip-path="url(#4cc9d737ce)"><path fill="#ffcc4d" d="M 89.015625 55.820312 C 89.015625 56.90625 88.960938 57.988281 88.855469 59.066406 C 88.75 60.144531 88.589844 61.214844 88.378906 62.28125 C 88.167969 63.34375 87.90625 64.394531 87.589844 65.429688 C 87.277344 66.46875 86.914062 67.488281 86.496094 68.488281 C 86.082031 69.488281 85.621094 70.46875 85.109375 71.425781 C 84.597656 72.382812 84.042969 73.308594 83.441406 74.210938 C 82.839844 75.113281 82.195312 75.980469 81.507812 76.820312 C 80.820312 77.65625 80.09375 78.460938 79.328125 79.226562 C 78.5625 79.992188 77.757812 80.71875 76.921875 81.40625 C 76.082031 82.097656 75.214844 82.742188 74.3125 83.34375 C 73.414062 83.945312 72.484375 84.503906 71.527344 85.011719 C 70.574219 85.523438 69.59375 85.988281 68.59375 86.402344 C 67.59375 86.816406 66.574219 87.179688 65.539062 87.496094 C 64.5 87.8125 63.453125 88.074219 62.390625 88.285156 C 61.328125 88.496094 60.253906 88.65625 59.175781 88.761719 C 58.097656 88.867188 57.019531 88.921875 55.933594 88.921875 C 54.851562 88.921875 53.769531 88.867188 52.691406 88.761719 C 51.613281 88.65625 50.542969 88.496094 49.480469 88.285156 C 48.417969 88.074219 47.367188 87.8125 46.332031 87.496094 C 45.296875 87.179688 44.277344 86.816406 43.277344 86.402344 C 42.273438 85.988281 41.296875 85.523438 40.339844 85.011719 C 39.386719 84.503906 38.457031 83.945312 37.554688 83.34375 C 36.65625 82.742188 35.785156 82.097656 34.949219 81.40625 C 34.113281 80.71875 33.308594 79.992188 32.542969 79.226562 C 31.777344 78.460938 31.050781 77.65625 30.363281 76.820312 C 29.675781 75.980469 29.03125 75.113281 28.429688 74.210938 C 27.828125 73.308594 27.269531 72.382812 26.761719 71.425781 C 26.25 70.46875 25.785156 69.488281 25.371094 68.488281 C 24.957031 67.488281 24.59375 66.46875 24.277344 65.429688 C 23.964844 64.394531 23.703125 63.34375 23.488281 62.28125 C 23.277344 61.214844 23.121094 60.144531 23.011719 59.066406 C 22.90625 57.988281 22.855469 56.90625 22.855469 55.820312 C 22.855469 54.738281 22.90625 53.65625 23.011719 52.578125 C 23.121094 51.5 23.277344 50.429688 23.488281 49.363281 C 23.703125 48.300781 23.964844 47.25 24.277344 46.214844 C 24.59375 45.175781 24.957031 44.15625 25.371094 43.15625 C 25.785156 42.152344 26.25 41.175781 26.761719 40.21875 C 27.269531 39.261719 27.828125 38.335938 28.429688 37.433594 C 29.03125 36.53125 29.675781 35.660156 30.363281 34.824219 C 31.050781 33.984375 31.777344 33.183594 32.542969 32.417969 C 33.308594 31.652344 34.113281 30.921875 34.949219 30.234375 C 35.785156 29.546875 36.65625 28.902344 37.554688 28.300781 C 38.457031 27.699219 39.386719 27.140625 40.339844 26.628906 C 41.296875 26.121094 42.273438 25.65625 43.277344 25.242188 C 44.277344 24.828125 45.296875 24.460938 46.332031 24.148438 C 47.367188 23.832031 48.417969 23.570312 49.480469 23.359375 C 50.542969 23.148438 51.613281 22.988281 52.691406 22.882812 C 53.769531 22.777344 54.851562 22.722656 55.933594 22.722656 C 57.019531 22.722656 58.097656 22.777344 59.175781 22.882812 C 60.253906 22.988281 61.328125 23.148438 62.390625 23.359375 C 63.453125 23.570312 64.5 23.832031 65.539062 24.148438 C 66.574219 24.460938 67.59375 24.828125 68.59375 25.242188 C 69.59375 25.65625 70.574219 26.121094 71.527344 26.628906 C 72.484375 27.140625 73.414062 27.699219 74.3125 28.300781 C 75.214844 28.902344 76.082031 29.546875 76.921875 30.234375 C 77.757812 30.921875 78.5625 31.652344 79.328125 32.417969 C 80.09375 33.183594 80.820312 33.984375 81.507812 34.824219 C 82.195312 35.660156 82.839844 36.53125 83.441406 37.433594 C 84.042969 38.335938 84.597656 39.261719 85.109375 40.21875 C 85.621094 41.175781 86.082031 42.152344 86.496094 43.15625 C 86.914062 44.15625 87.277344 45.175781 87.589844 46.214844 C 87.90625 47.25 88.167969 48.300781 88.378906 49.363281 C 88.589844 50.429688 88.75 51.5 88.855469 52.578125 C 88.960938 53.65625 89.015625 54.738281 89.015625 55.820312 Z M 89.015625 55.820312 " fill-opacity="1" fill-rule="nonzero"/></g><path fill="#f4900c" d="M 31.894531 70.527344 C 28.847656 70.734375 26.671875 69.574219 25.082031 67.6875 C 25.742188 69.414062 26.589844 71.035156 27.519531 72.605469 C 29.902344 73.5 32.441406 73.871094 35.375 71.761719 C 33.945312 71.058594 32.652344 70.476562 31.894531 70.527344 Z M 71.667969 26.753906 C 71.808594 27.765625 71.089844 28.300781 69.347656 27.875 C 66.394531 27.15625 63.800781 30.277344 62.3125 32.886719 C 59.382812 38.015625 47.296875 43.792969 47.289062 39.347656 C 47.285156 37.246094 36.609375 41.957031 35.246094 39.84375 C 33.957031 37.851562 30.101562 38.617188 29.304688 36.230469 C 25.792969 41.007812 23.523438 46.757812 22.992188 53.011719 C 24.160156 55.234375 25.667969 56.980469 27.175781 57.734375 C 29.21875 58.757812 38.703125 62.464844 40.085938 60.097656 C 42.398438 56.148438 56.261719 58.941406 55.933594 56.863281 C 55.296875 52.886719 63.441406 56.152344 66.367188 51.027344 C 67.855469 48.417969 71.109375 46.414062 74.066406 47.132812 C 77.519531 47.972656 81.777344 42.046875 81.457031 34.765625 C 78.761719 31.492188 75.421875 28.789062 71.667969 26.753906 Z M 81.507812 76.816406 C 80.460938 77.328125 79.433594 77.722656 78.492188 77.824219 C 71.539062 78.578125 70.035156 84.03125 65.371094 83.097656 C 62.964844 82.613281 59.6875 86.855469 55.933594 87.109375 C 54.046875 87.242188 51.328125 87.546875 48.554688 88.0625 C 50.929688 88.605469 53.394531 88.921875 55.933594 88.921875 C 66.238281 88.921875 75.4375 84.207031 81.507812 76.816406 Z M 81.507812 76.816406 " fill-opacity="1" fill-rule="nonzero"/><g clip-path="url(#cf5648c987)"><path fill="#e85e00" d="M 72.097656 26.957031 C 75.046875 28.613281 77.699219 30.710938 80 33.15625 C 87.703125 32.671875 92.402344 34.484375 92.011719 38.65625 C 91.804688 40.839844 90.199219 43.429688 87.582031 46.191406 C 81.0625 53.066406 68.066406 61.039062 53.339844 66.628906 C 43.105469 70.511719 33.980469 72.507812 27.460938 72.613281 C 20.824219 72.722656 16.886719 70.871094 17.246094 67.03125 C 17.480469 64.511719 19.574219 61.441406 22.976562 58.191406 C 22.917969 57.402344 22.855469 56.621094 22.855469 55.820312 C 22.855469 53.195312 23.191406 50.65625 23.769531 48.203125 C 10.460938 57.4375 1.800781 67.605469 1.800781 75.535156 C 1.800781 86.328125 17.769531 89.640625 39.773438 84.6875 C 44.875 83.539062 50.304688 81.945312 55.933594 79.894531 C 68 75.5 79.101562 69.679688 88.101562 63.4375 C 101.40625 54.203125 110.070312 44.035156 110.070312 36.105469 C 110.070312 25.316406 94.101562 22 72.097656 26.957031 Z M 72.097656 26.957031 " fill-opacity="1" fill-rule="nonzero"/></g><path fill="#f4900c" d="M 19.914062 55.980469 C 17.621094 58.179688 15.679688 60.695312 14.101562 63.351562 C 12.585938 65.988281 11.292969 68.957031 11.488281 71.621094 C 11.597656 74.269531 13.597656 75.847656 16.308594 76.578125 C 19.011719 77.28125 22.015625 77.464844 25.074219 77.285156 C 31.144531 77.011719 37.234375 76.003906 43.144531 74.300781 C 49.09375 72.738281 54.871094 70.507812 60.511719 68 C 71.796875 62.960938 82.378906 56.269531 91.855469 48.246094 C 92.992188 47.214844 94.242188 46.234375 95.332031 45.191406 C 96.363281 44.148438 97.335938 42.988281 98.148438 41.796875 C 99.761719 39.421875 100.703125 36.636719 99.183594 34.519531 C 97.667969 32.363281 94.558594 31.191406 91.597656 30.585938 C 88.5625 30.003906 85.378906 29.871094 82.222656 30.242188 C 85.292969 29.421875 88.523438 29.019531 91.773438 29.261719 C 94.960938 29.546875 98.492188 30.191406 101.082031 33.042969 C 102.347656 34.457031 102.933594 36.585938 102.699219 38.445312 C 102.523438 40.335938 101.792969 42.003906 100.960938 43.507812 C 100.097656 45.007812 99.132812 46.371094 98.035156 47.679688 C 96.949219 48.929688 95.84375 50.082031 94.71875 51.277344 C 85.648438 60.546875 74.796875 68.035156 62.980469 73.4375 C 51.175781 78.761719 38.3125 82.445312 25.050781 81.960938 C 21.785156 81.835938 18.378906 81.546875 15.039062 80.265625 C 13.386719 79.617188 11.695312 78.664062 10.398438 77.121094 C 9.074219 75.601562 8.4375 73.496094 8.578125 71.628906 C 8.882812 67.875 10.757812 64.96875 12.75 62.417969 C 14.804688 59.882812 17.226562 57.699219 19.914062 55.980469 Z M 19.914062 55.980469 " fill-opacity="1" fill-rule="nonzero"/></svg>