<svg xmlns="http://www.w3.org/2000/svg" xmlns:xlink="http://www.w3.org/1999/xlink" width="200" zoomAndPan="magnify" viewBox="0 0 150 149.999998" height="200" preserveAspectRatio="xMidYMid meet" version="1.0"><defs><clipPath id="e49d3531f5"><path d="M 16.285156 19.039062 L 133.894531 19.039062 L 133.894531 130.960938 L 16.285156 130.960938 Z M 16.285156 19.039062 " clip-rule="nonzero"/></clipPath><clipPath id="bc0e908c1b"><path d="M 75 19.039062 L 88.859375 61.789062 L 133.714844 61.789062 L 97.425781 88.210938 L 111.289062 130.960938 L 75 104.539062 L 38.710938 130.960938 L 52.574219 88.210938 L 16.285156 61.789062 L 61.140625 61.789062 Z M 75 19.039062 " clip-rule="nonzero"/></clipPath><clipPath id="e498e3d879"><path d="M 0.285156 0.0390625 L 117.894531 0.0390625 L 117.894531 111.960938 L 0.285156 111.960938 Z M 0.285156 0.0390625 " clip-rule="nonzero"/></clipPath><clipPath id="c1bf9da75b"><path d="M 59 0.0390625 L 72.859375 42.789062 L 117.714844 42.789062 L 81.425781 69.210938 L 95.289062 111.960938 L 59 85.539062 L 22.710938 111.960938 L 36.574219 69.210938 L 0.285156 42.789062 L 45.140625 42.789062 Z M 59 0.0390625 " clip-rule="nonzero"/></clipPath><clipPath id="b16d37b33e"><rect x="0" width="118" y="0" height="112"/></clipPath><clipPath id="89c2d05f45"><path d="M 16.289062 19.039062 L 133.707031 19.039062 L 133.707031 130.789062 L 16.289062 130.789062 Z M 16.289062 19.039062 " clip-rule="nonzero"/></clipPath><clipPath id="8ba77a24c7"><path d="M 74.996094 19.039062 L 88.855469 61.785156 L 133.707031 61.785156 L 97.421875 88.203125 L 111.28125 130.953125 L 74.996094 104.53125 L 38.710938 130.953125 L 52.570312 88.203125 L 16.289062 61.785156 L 61.136719 61.785156 Z M 74.996094 19.039062 " clip-rule="nonzero"/></clipPath></defs><g clip-path="url(#e49d3531f5)"><g clip-path="url(#bc0e908c1b)"><g transform="matrix(1, 0, 0, 1, 16, 19)"><g clip-path="url(#b16d37b33e)"><g clip-path="url(#e498e3d879)"><g clip-path="url(#c1bf9da75b)"><path fill="#ffc05d" d="M 0.285156 0.0390625 L 117.894531 0.0390625 L 117.894531 111.960938 L 0.285156 111.960938 Z M 0.285156 0.0390625 " fill-opacity="1" fill-rule="nonzero"/></g></g></g></g></g></g><g clip-path="url(#89c2d05f45)"><g clip-path="url(#8ba77a24c7)"><path stroke-linecap="butt" transform="matrix(0.75, 0, 0, 0.75, 16.287409, 19.037731)" fill="none" stroke-linejoin="miter" d="M 78.278256 0.00177548 L 96.757424 56.996574 L 156.559515 56.996574 L 108.179301 92.220537 L 126.65847 149.220544 L 78.278256 113.991373 L 29.898041 149.220544 L 48.37721 92.220537 L 0.00220432 56.996574 L 59.799087 56.996574 Z M 78.278256 0.00177548 " stroke="#000000" stroke-width="8" stroke-opacity="1" stroke-miterlimit="4"/></g></g></svg>