<svg xmlns="http://www.w3.org/2000/svg" xmlns:xlink="http://www.w3.org/1999/xlink" width="400" zoomAndPan="magnify" viewBox="0 0 300 112.499997" height="150" preserveAspectRatio="xMidYMid meet" version="1.0"><defs><clipPath id="e4699b6837"><path d="M 90.664062 8.832031 L 148 8.832031 L 148 66 L 90.664062 66 Z M 90.664062 8.832031 " clip-rule="nonzero"/></clipPath><clipPath id="04eb4cf069"><path d="M 103 28 L 206 28 L 206 100.671875 L 103 100.671875 Z M 103 28 " clip-rule="nonzero"/></clipPath></defs><g clip-path="url(#e4699b6837)"><path fill="#addaff" d="M 147.382812 37.164062 C 147.382812 38.089844 147.335938 39.015625 147.246094 39.9375 C 147.152344 40.859375 147.019531 41.777344 146.835938 42.6875 C 146.65625 43.59375 146.429688 44.492188 146.160156 45.378906 C 145.890625 46.265625 145.578125 47.140625 145.222656 47.996094 C 144.867188 48.851562 144.472656 49.6875 144.035156 50.507812 C 143.59375 51.324219 143.117188 52.117188 142.601562 52.890625 C 142.085938 53.660156 141.535156 54.402344 140.945312 55.121094 C 140.355469 55.835938 139.734375 56.523438 139.074219 57.179688 C 138.417969 57.832031 137.730469 58.457031 137.015625 59.042969 C 136.296875 59.632812 135.550781 60.183594 134.777344 60.699219 C 134.007812 61.214844 133.210938 61.6875 132.390625 62.125 C 131.574219 62.5625 130.734375 62.957031 129.875 63.3125 C 129.019531 63.667969 128.144531 63.980469 127.253906 64.25 C 126.367188 64.519531 125.46875 64.742188 124.554688 64.925781 C 123.644531 65.105469 122.726562 65.242188 121.804688 65.332031 C 120.878906 65.421875 119.953125 65.46875 119.023438 65.46875 C 118.09375 65.46875 117.167969 65.421875 116.246094 65.332031 C 115.320312 65.242188 114.402344 65.105469 113.492188 64.925781 C 112.582031 64.742188 111.679688 64.519531 110.792969 64.25 C 109.902344 63.980469 109.03125 63.667969 108.171875 63.3125 C 107.3125 62.957031 106.476562 62.5625 105.65625 62.125 C 104.835938 61.6875 104.042969 61.214844 103.269531 60.699219 C 102.496094 60.183594 101.75 59.632812 101.035156 59.042969 C 100.316406 58.457031 99.628906 57.832031 98.972656 57.179688 C 98.316406 56.523438 97.691406 55.835938 97.101562 55.121094 C 96.511719 54.402344 95.960938 53.660156 95.445312 52.890625 C 94.929688 52.117188 94.453125 51.324219 94.015625 50.507812 C 93.578125 49.6875 93.179688 48.851562 92.824219 47.996094 C 92.46875 47.140625 92.15625 46.265625 91.886719 45.378906 C 91.617188 44.492188 91.390625 43.59375 91.210938 42.6875 C 91.03125 41.777344 90.894531 40.859375 90.800781 39.9375 C 90.710938 39.015625 90.664062 38.089844 90.664062 37.164062 C 90.664062 36.238281 90.710938 35.3125 90.800781 34.390625 C 90.894531 33.46875 91.03125 32.550781 91.210938 31.640625 C 91.390625 30.734375 91.617188 29.835938 91.886719 28.949219 C 92.15625 28.058594 92.46875 27.1875 92.824219 26.332031 C 93.179688 25.476562 93.578125 24.640625 94.015625 23.820312 C 94.453125 23.003906 94.929688 22.210938 95.445312 21.4375 C 95.960938 20.667969 96.511719 19.925781 97.101562 19.207031 C 97.691406 18.492188 98.316406 17.804688 98.972656 17.148438 C 99.628906 16.496094 100.316406 15.871094 101.035156 15.285156 C 101.75 14.695312 102.496094 14.144531 103.269531 13.628906 C 104.042969 13.113281 104.835938 12.640625 105.65625 12.203125 C 106.476562 11.765625 107.3125 11.367188 108.171875 11.015625 C 109.03125 10.660156 109.902344 10.347656 110.792969 10.078125 C 111.679688 9.808594 112.582031 9.585938 113.492188 9.402344 C 114.402344 9.222656 115.320312 9.085938 116.246094 8.996094 C 117.167969 8.90625 118.09375 8.859375 119.023438 8.859375 C 119.953125 8.859375 120.878906 8.90625 121.804688 8.996094 C 122.726562 9.085938 123.644531 9.222656 124.554688 9.402344 C 125.46875 9.585938 126.367188 9.808594 127.253906 10.078125 C 128.144531 10.347656 129.019531 10.660156 129.875 11.015625 C 130.734375 11.367188 131.574219 11.765625 132.390625 12.203125 C 133.210938 12.640625 134.007812 13.113281 134.777344 13.628906 C 135.550781 14.144531 136.296875 14.695312 137.015625 15.285156 C 137.730469 15.871094 138.417969 16.496094 139.074219 17.148438 C 139.734375 17.804688 140.355469 18.492188 140.945312 19.207031 C 141.535156 19.925781 142.085938 20.667969 142.601562 21.4375 C 143.117188 22.210938 143.59375 23.003906 144.035156 23.820312 C 144.472656 24.640625 144.867188 25.476562 145.222656 26.332031 C 145.578125 27.1875 145.890625 28.058594 146.160156 28.949219 C 146.429688 29.835938 146.65625 30.734375 146.835938 31.640625 C 147.019531 32.550781 147.152344 33.46875 147.246094 34.390625 C 147.335938 35.3125 147.382812 36.238281 147.382812 37.164062 Z M 147.382812 37.164062 " fill-opacity="1" fill-rule="nonzero"/></g><path fill="#ffffff" d="M 128.117188 97.804688 C 132.199219 91.53125 141.609375 79.730469 133.457031 79.417969 C 121.78125 78.972656 104.359375 83.640625 104.910156 60.460938 C 105.445312 38.09375 103.226562 30.410156 125.59375 29.851562 C 146.707031 29.328125 146.664062 30.785156 172.792969 29.460938 C 195.253906 28.320312 205.085938 29.492188 204.039062 53.867188 C 203.257812 72.070312 203.851562 81.058594 180.96875 80.179688 C 165.605469 79.585938 153.425781 77.558594 149.855469 82.101562 C 145.355469 87.824219 141.890625 93.84375 128.121094 97.804688 Z M 128.117188 97.804688 " fill-opacity="1" fill-rule="evenodd"/><path fill="#febe34" d="M 118.148438 61.566406 C 116.394531 54.457031 113.265625 59.953125 113.714844 61.886719 C 115.957031 71.542969 136.035156 63.445312 124.132812 53.710938 C 123.675781 53.335938 119.148438 49.636719 119.796875 47.738281 C 121.644531 42.320312 126.199219 50.949219 127.457031 50.363281 C 131.996094 48.25 126.4375 39.132812 117.304688 42.289062 C 113.738281 43.523438 112.332031 48.945312 117.421875 52.667969 C 122.550781 56.421875 123.863281 58.929688 118.144531 61.566406 Z M 118.148438 61.566406 " fill-opacity="1" fill-rule="evenodd"/><path fill="#febe34" d="M 153.027344 55.957031 C 147.773438 49.894531 148.566406 42.421875 143.800781 46.21875 C 151.792969 64.175781 152.714844 66.628906 154.808594 64.070312 C 155.863281 62.78125 164.585938 48.226562 161.523438 44.246094 C 159.652344 41.8125 156.601562 48.425781 153.027344 55.957031 Z M 153.027344 55.957031 " fill-opacity="1" fill-rule="evenodd"/><path fill="#febe34" d="M 194.832031 52.800781 C 195.789062 74.316406 176.101562 65.582031 177.996094 52.800781 C 179.847656 40.316406 194.300781 40.84375 194.832031 52.800781 Z M 188.328125 48.816406 C 183.839844 45.371094 181.621094 57.640625 184.269531 59.097656 C 188.609375 61.484375 193.867188 53.070312 188.328125 48.816406 Z M 188.328125 48.816406 " fill-opacity="1" fill-rule="evenodd"/><path fill="#addaff" d="M 183.449219 30.0625 C 206.402344 31.289062 203.890625 39.183594 203.257812 62.21875 C 202.613281 85.515625 185.109375 78.652344 160.464844 78.714844 C 142.058594 78.761719 155.132812 91.761719 129.257812 97.972656 C 141.1875 95.109375 142.203125 88.023438 147.992188 75.570312 C 151.894531 67.175781 202.625 88.75 199.214844 50.203125 C 197.660156 32.59375 186.738281 31.171875 183.449219 30.058594 Z M 183.449219 30.0625 " fill-opacity="1" fill-rule="evenodd"/><path fill="#addaff" d="M 176.128906 40.140625 L 179.371094 40.140625 L 179.371094 43.378906 L 176.128906 43.378906 Z M 176.128906 40.140625 " fill-opacity="1" fill-rule="evenodd"/><path fill="#addaff" d="M 180.921875 35.359375 L 185.316406 35.359375 L 185.316406 39.746094 L 180.921875 39.746094 Z M 180.921875 35.359375 " fill-opacity="1" fill-rule="evenodd"/><path fill="#392253" d="M 121.433594 39.707031 L 121.253906 39.707031 C 117.175781 39.707031 113.964844 42.316406 113.050781 46.402344 C 111.742188 52.25 115.054688 54.734375 117.554688 56.339844 C 116.902344 56.144531 116.203125 56.109375 115.625 56.078125 C 115.09375 56.046875 114.578125 56.117188 114.074219 56.28125 C 113.570312 56.449219 113.113281 56.703125 112.707031 57.042969 C 112.300781 57.382812 111.96875 57.785156 111.71875 58.253906 C 111.464844 58.71875 111.308594 59.214844 111.25 59.742188 C 110.832031 63.296875 113.609375 66.320312 118.164062 67.265625 C 118.984375 67.4375 119.8125 67.519531 120.652344 67.523438 C 123.949219 67.523438 127.234375 66.152344 128.265625 62.746094 C 130.265625 56.136719 127.113281 54.070312 124.066406 52.070312 C 122.910156 51.3125 121.714844 50.527344 120.648438 49.429688 C 120.453125 49.230469 120.601562 48.847656 120.675781 48.6875 C 120.960938 48.082031 121.609375 47.613281 122.09375 47.648438 C 122.773438 47.699219 123.492188 48.707031 123.976562 50.289062 C 124.527344 52.085938 126.535156 51.78125 128.007812 51.5625 C 128.46875 51.496094 128.894531 51.34375 129.292969 51.101562 C 129.6875 50.859375 130.023438 50.550781 130.292969 50.175781 C 130.5625 49.796875 130.746094 49.382812 130.84375 48.929688 C 130.941406 48.476562 130.949219 48.023438 130.859375 47.566406 C 129.921875 42.503906 125.410156 39.78125 121.433594 39.707031 Z M 127.761719 48.375 C 127.703125 48.449219 127.625 48.492188 127.53125 48.496094 C 127.269531 48.535156 126.953125 48.585938 126.6875 48.617188 C 125.4375 45.285156 123.441406 44.636719 122.316406 44.558594 C 120.527344 44.425781 118.695312 45.59375 117.863281 47.382812 C 117.15625 48.894531 117.371094 50.507812 118.421875 51.585938 C 119.726562 52.929688 121.125 53.851562 122.363281 54.660156 C 125.199219 56.523438 126.621094 57.457031 125.292969 61.855469 C 124.597656 64.15625 121.496094 64.792969 118.796875 64.230469 C 116.394531 63.730469 114.082031 62.265625 114.335938 60.097656 C 114.367188 59.832031 114.484375 59.609375 114.683594 59.433594 C 114.886719 59.257812 115.121094 59.167969 115.390625 59.171875 L 115.457031 59.171875 C 115.890625 59.191406 116.222656 59.222656 116.445312 59.253906 C 116.445312 59.265625 116.4375 59.277344 116.4375 59.289062 C 115.878906 62.074219 117.523438 63.085938 118.042969 63.332031 C 119.542969 64.035156 121.585938 63.460938 122.789062 61.988281 C 123.808594 60.75 124.300781 58.625 122.628906 56.394531 C 121.890625 55.40625 120.816406 54.730469 119.675781 54.007812 C 117.257812 52.480469 115.167969 51.160156 116.082031 47.070312 C 116.683594 44.394531 118.609375 42.804688 121.253906 42.804688 L 121.378906 42.804688 C 124.097656 42.855469 127.175781 44.703125 127.808594 48.132812 C 127.8125 48.136719 127.8125 48.144531 127.808594 48.148438 C 127.828125 48.230469 127.808594 48.304688 127.761719 48.375 Z M 119.027344 57.285156 L 119.023438 57.28125 C 119.5 57.609375 119.902344 57.929688 120.140625 58.25 C 120.660156 58.941406 120.757812 59.519531 120.433594 59.96875 C 120.148438 60.367188 119.667969 60.535156 119.441406 60.535156 C 119.417969 60.320312 119.429688 60.109375 119.484375 59.898438 C 119.695312 58.824219 119.542969 57.949219 119.027344 57.285156 Z M 119.027344 57.285156 " fill-opacity="1" fill-rule="nonzero"/><path fill="#392253" d="M 164.105469 44.214844 C 163.832031 43.699219 163.46875 43.253906 163.015625 42.886719 C 162.5625 42.515625 162.058594 42.25 161.496094 42.089844 C 161.4375 42.066406 161.375 42.050781 161.316406 42.035156 C 160.832031 41.902344 160.34375 41.863281 159.84375 41.910156 C 159.347656 41.960938 158.875 42.097656 158.429688 42.324219 C 157.980469 42.546875 157.589844 42.84375 157.253906 43.214844 C 156.917969 43.585938 156.660156 44.003906 156.476562 44.46875 C 155.84375 46.082031 154.757812 48.78125 153.550781 51.445312 C 152.09375 48.589844 151.691406 47.765625 150.171875 44.652344 C 149.9375 44.175781 149.625 43.757812 149.230469 43.402344 C 148.835938 43.046875 148.386719 42.777344 147.882812 42.597656 C 147.382812 42.417969 146.867188 42.335938 146.335938 42.359375 C 145.800781 42.378906 145.292969 42.5 144.808594 42.722656 C 144.554688 42.835938 144.316406 42.972656 144.089844 43.136719 C 143.867188 43.300781 143.660156 43.484375 143.472656 43.6875 C 143.28125 43.890625 143.117188 44.113281 142.972656 44.351562 C 142.832031 44.589844 142.714844 44.839844 142.621094 45.101562 C 142.527344 45.363281 142.460938 45.628906 142.425781 45.90625 C 142.386719 46.179688 142.375 46.457031 142.394531 46.734375 C 142.414062 47.007812 142.457031 47.28125 142.53125 47.550781 C 142.605469 47.816406 142.703125 48.074219 142.828125 48.324219 C 144.804688 52.203125 146.136719 54.921875 147.113281 56.910156 C 149.175781 61.105469 149.949219 62.675781 152.4375 66.535156 C 152.746094 67.007812 153.179688 67.242188 153.746094 67.246094 L 153.769531 67.246094 C 154.34375 67.234375 154.777344 66.984375 155.074219 66.496094 C 155.199219 66.289062 155.382812 66.011719 155.613281 65.664062 C 157.15625 63.335938 160.769531 57.890625 164.339844 47.644531 C 164.542969 47.082031 164.621094 46.503906 164.582031 45.90625 C 164.539062 45.308594 164.382812 44.746094 164.105469 44.214844 Z M 161.410156 46.613281 C 158.449219 55.109375 155.480469 60.15625 153.765625 62.824219 C 152.3125 60.457031 151.539062 58.882812 149.902344 55.546875 C 148.921875 53.550781 147.582031 50.824219 145.597656 46.925781 C 145.539062 46.800781 145.503906 46.671875 145.492188 46.535156 C 145.484375 46.398438 145.503906 46.265625 145.550781 46.132812 C 145.59375 46.003906 145.664062 45.890625 145.757812 45.789062 C 145.851562 45.6875 145.960938 45.609375 146.085938 45.550781 C 146.214844 45.492188 146.351562 45.460938 146.496094 45.460938 C 146.90625 45.464844 147.199219 45.648438 147.378906 46.015625 C 149.316406 49.980469 149.453125 50.253906 152.222656 55.65625 C 152.355469 55.917969 152.546875 56.121094 152.792969 56.273438 C 153.042969 56.425781 153.3125 56.503906 153.605469 56.5 L 153.609375 56.5 C 153.902344 56.5 154.175781 56.421875 154.421875 56.269531 C 154.671875 56.113281 154.863281 55.90625 154.992188 55.644531 C 156.660156 52.316406 158.292969 48.339844 159.371094 45.59375 C 159.457031 45.371094 159.605469 45.207031 159.816406 45.097656 C 160.03125 44.988281 160.25 44.960938 160.484375 45.019531 C 160.523438 45.035156 160.566406 45.046875 160.609375 45.058594 C 160.945312 45.148438 161.191406 45.347656 161.351562 45.652344 C 161.511719 45.964844 161.535156 46.285156 161.410156 46.613281 Z M 161.410156 46.613281 " fill-opacity="1" fill-rule="nonzero"/><path fill="#392253" d="M 171.980469 54.945312 L 169.8125 54.945312 L 169.8125 52.773438 C 169.8125 52.570312 169.773438 52.371094 169.695312 52.183594 C 169.617188 51.992188 169.503906 51.824219 169.359375 51.679688 C 169.214844 51.535156 169.046875 51.421875 168.855469 51.34375 C 168.664062 51.265625 168.464844 51.226562 168.261719 51.226562 C 168.054688 51.226562 167.855469 51.265625 167.667969 51.34375 C 167.476562 51.421875 167.308594 51.535156 167.164062 51.679688 C 167.015625 51.824219 166.90625 51.992188 166.824219 52.183594 C 166.746094 52.371094 166.707031 52.570312 166.707031 52.773438 L 166.707031 54.945312 L 164.539062 54.945312 C 164.332031 54.945312 164.136719 54.984375 163.945312 55.0625 C 163.753906 55.140625 163.585938 55.253906 163.441406 55.398438 C 163.296875 55.542969 163.183594 55.710938 163.105469 55.902344 C 163.027344 56.089844 162.988281 56.289062 162.988281 56.492188 C 162.988281 56.699219 163.027344 56.898438 163.105469 57.085938 C 163.183594 57.277344 163.296875 57.445312 163.441406 57.589844 C 163.585938 57.734375 163.753906 57.847656 163.945312 57.925781 C 164.136719 58.003906 164.332031 58.042969 164.539062 58.042969 L 166.707031 58.042969 L 166.707031 60.207031 C 166.707031 60.414062 166.746094 60.609375 166.824219 60.800781 C 166.90625 60.992188 167.015625 61.160156 167.164062 61.304688 C 167.308594 61.449219 167.476562 61.5625 167.667969 61.640625 C 167.855469 61.71875 168.054688 61.757812 168.261719 61.757812 C 168.464844 61.757812 168.664062 61.71875 168.855469 61.640625 C 169.046875 61.5625 169.214844 61.449219 169.359375 61.304688 C 169.503906 61.160156 169.617188 60.992188 169.695312 60.800781 C 169.773438 60.609375 169.8125 60.414062 169.8125 60.207031 L 169.8125 58.042969 L 171.980469 58.042969 C 172.1875 58.042969 172.386719 58.003906 172.574219 57.925781 C 172.765625 57.847656 172.933594 57.734375 173.078125 57.589844 C 173.222656 57.445312 173.335938 57.277344 173.414062 57.085938 C 173.492188 56.898438 173.53125 56.699219 173.53125 56.492188 C 173.53125 56.289062 173.492188 56.089844 173.414062 55.902344 C 173.335938 55.710938 173.222656 55.542969 173.078125 55.398438 C 172.933594 55.253906 172.765625 55.140625 172.574219 55.0625 C 172.386719 54.984375 172.1875 54.945312 171.980469 54.945312 Z M 171.980469 54.945312 " fill-opacity="1" fill-rule="nonzero"/><path fill="#392253" d="M 140.621094 54.945312 L 138.453125 54.945312 L 138.453125 52.773438 C 138.460938 52.566406 138.421875 52.363281 138.347656 52.171875 C 138.269531 51.976562 138.160156 51.804688 138.011719 51.65625 C 137.867188 51.507812 137.699219 51.390625 137.503906 51.3125 C 137.3125 51.230469 137.109375 51.1875 136.902344 51.1875 C 136.691406 51.1875 136.492188 51.230469 136.300781 51.3125 C 136.105469 51.390625 135.9375 51.507812 135.792969 51.65625 C 135.644531 51.804688 135.535156 51.976562 135.457031 52.171875 C 135.378906 52.363281 135.34375 52.566406 135.347656 52.773438 L 135.347656 54.945312 L 133.175781 54.945312 C 132.96875 54.945312 132.769531 54.984375 132.582031 55.0625 C 132.390625 55.140625 132.222656 55.253906 132.078125 55.398438 C 131.933594 55.542969 131.820312 55.710938 131.742188 55.902344 C 131.664062 56.089844 131.625 56.289062 131.625 56.492188 C 131.625 56.699219 131.664062 56.898438 131.742188 57.085938 C 131.820312 57.277344 131.933594 57.445312 132.078125 57.589844 C 132.222656 57.734375 132.390625 57.847656 132.582031 57.925781 C 132.769531 58.003906 132.96875 58.042969 133.175781 58.042969 L 135.347656 58.042969 L 135.347656 60.207031 C 135.34375 60.417969 135.378906 60.617188 135.453125 60.8125 C 135.53125 61.007812 135.644531 61.179688 135.789062 61.328125 C 135.933594 61.476562 136.105469 61.589844 136.296875 61.671875 C 136.488281 61.753906 136.691406 61.792969 136.898438 61.792969 C 137.109375 61.792969 137.308594 61.753906 137.503906 61.671875 C 137.695312 61.589844 137.863281 61.476562 138.011719 61.328125 C 138.15625 61.179688 138.269531 61.007812 138.34375 60.8125 C 138.421875 60.617188 138.457031 60.417969 138.453125 60.207031 L 138.453125 58.042969 L 140.621094 58.042969 C 140.828125 58.042969 141.023438 58.003906 141.214844 57.925781 C 141.402344 57.847656 141.570312 57.734375 141.71875 57.589844 C 141.863281 57.445312 141.972656 57.277344 142.054688 57.085938 C 142.132812 56.898438 142.171875 56.699219 142.171875 56.492188 C 142.171875 56.289062 142.132812 56.089844 142.054688 55.902344 C 141.972656 55.710938 141.863281 55.542969 141.71875 55.398438 C 141.570312 55.253906 141.402344 55.140625 141.214844 55.0625 C 141.023438 54.984375 140.828125 54.945312 140.621094 54.945312 Z M 140.621094 54.945312 " fill-opacity="1" fill-rule="nonzero"/><path fill="#392253" d="M 186.816406 41.742188 C 180.980469 41.742188 176.226562 47.496094 176.226562 54.570312 C 176.226562 61.644531 180.980469 67.402344 186.816406 67.402344 C 192.65625 67.402344 197.410156 61.648438 197.410156 54.570312 C 197.410156 47.496094 192.660156 41.742188 186.816406 41.742188 Z M 186.816406 64.300781 C 182.691406 64.300781 179.332031 59.933594 179.332031 54.566406 C 179.332031 49.199219 182.691406 44.835938 186.816406 44.835938 C 190.945312 44.835938 194.304688 49.203125 194.304688 54.566406 C 194.304688 59.933594 190.945312 64.300781 186.816406 64.300781 Z M 186.816406 64.300781 " fill-opacity="1" fill-rule="nonzero"/><path fill="#392253" d="M 186.816406 47.378906 C 183.46875 47.378906 180.746094 50.605469 180.746094 54.570312 C 180.746094 58.535156 183.46875 61.761719 186.816406 61.761719 C 190.164062 61.761719 192.890625 58.535156 192.890625 54.570312 C 192.890625 50.605469 190.164062 47.378906 186.816406 47.378906 Z M 186.816406 58.660156 C 185.210938 58.660156 183.851562 56.789062 183.851562 54.570312 C 183.851562 52.351562 185.210938 50.480469 186.816406 50.480469 C 188.425781 50.480469 189.785156 52.355469 189.785156 54.574219 C 189.785156 56.789062 188.425781 58.660156 186.816406 58.660156 Z M 186.816406 58.660156 " fill-opacity="1" fill-rule="nonzero"/><g clip-path="url(#04eb4cf069)"><path fill="#392253" d="M 190.015625 28.636719 L 118.605469 28.636719 C 110.25 28.636719 103.453125 34.847656 103.453125 42.488281 L 103.453125 67.089844 C 103.453125 74.722656 110.25 80.9375 118.605469 80.9375 C 118.605469 80.9375 128.566406 80.9375 133.851562 80.953125 C 134.027344 80.953125 134.191406 80.992188 134.347656 81.066406 C 134.503906 81.144531 134.636719 81.25 134.746094 81.386719 C 134.855469 81.523438 134.925781 81.675781 134.964844 81.847656 C 135 82.019531 135 82.1875 134.957031 82.355469 C 133.886719 86.636719 131.519531 90.75 127.503906 95.304688 C 127.28125 95.5625 127.105469 95.84375 126.976562 96.160156 C 126.847656 96.472656 126.773438 96.796875 126.757812 97.136719 C 126.738281 97.476562 126.773438 97.808594 126.867188 98.132812 C 126.957031 98.460938 127.101562 98.761719 127.292969 99.039062 C 127.488281 99.320312 127.722656 99.558594 127.996094 99.757812 C 128.269531 99.960938 128.566406 100.109375 128.890625 100.210938 C 129.214844 100.3125 129.546875 100.359375 129.886719 100.347656 C 130.226562 100.339844 130.554688 100.273438 130.871094 100.15625 C 141.164062 96.324219 148.195312 90.371094 152.375 81.949219 C 152.527344 81.640625 152.75 81.394531 153.046875 81.210938 C 153.34375 81.027344 153.664062 80.9375 154.011719 80.9375 L 190.015625 80.9375 C 198.371094 80.9375 205.167969 74.722656 205.167969 67.089844 L 205.167969 42.488281 C 205.167969 34.847656 198.371094 28.636719 190.015625 28.636719 Z M 202.0625 67.089844 C 202.0625 73.015625 196.65625 77.835938 190.015625 77.835938 L 154.007812 77.835938 C 153.550781 77.835938 153.097656 77.898438 152.65625 78.023438 C 152.214844 78.148438 151.796875 78.332031 151.40625 78.574219 C 151.015625 78.816406 150.664062 79.105469 150.355469 79.445312 C 150.046875 79.785156 149.792969 80.164062 149.589844 80.574219 C 145.789062 88.230469 139.339844 93.679688 129.933594 97.242188 C 134.222656 92.347656 136.777344 87.855469 137.96875 83.101562 C 138.046875 82.792969 138.085938 82.476562 138.089844 82.15625 C 138.097656 81.832031 138.0625 81.515625 137.996094 81.203125 C 137.929688 80.890625 137.828125 80.585938 137.691406 80.296875 C 137.554688 80.007812 137.386719 79.734375 137.1875 79.480469 C 136.992188 79.230469 136.765625 79.003906 136.515625 78.800781 C 136.265625 78.597656 135.996094 78.425781 135.707031 78.285156 C 135.417969 78.144531 135.117188 78.039062 134.804688 77.96875 C 134.492188 77.894531 134.175781 77.859375 133.851562 77.859375 C 128.566406 77.84375 118.601562 77.84375 118.601562 77.84375 C 111.960938 77.84375 106.558594 73.019531 106.558594 67.09375 L 106.558594 42.488281 C 106.558594 36.5625 111.960938 31.738281 118.601562 31.738281 L 190.015625 31.738281 C 196.65625 31.738281 202.058594 36.5625 202.058594 42.488281 Z M 202.0625 67.089844 " fill-opacity="1" fill-rule="nonzero"/></g></svg>