<svg xmlns="http://www.w3.org/2000/svg" xmlns:xlink="http://www.w3.org/1999/xlink" width="200" zoomAndPan="magnify" viewBox="0 0 150 149.999998" height="200" preserveAspectRatio="xMidYMid meet" version="1.0"><defs><clipPath id="5887a59917"><path d="M 21.757812 105.824219 L 135.007812 105.824219 L 135.007812 132.089844 L 21.757812 132.089844 Z M 21.757812 105.824219 " clip-rule="nonzero"/></clipPath><clipPath id="6fbc803b65"><path d="M 69 18.09375 L 70 18.09375 L 70 19 L 69 19 Z M 69 18.09375 " clip-rule="nonzero"/></clipPath><clipPath id="c8a8149b2b"><path d="M 33 18.09375 L 103 18.09375 L 103 90 L 33 90 Z M 33 18.09375 " clip-rule="nonzero"/></clipPath></defs><g clip-path="url(#5887a59917)"><path fill="#79cb43" d="M 78.644531 108.160156 C 74.039062 108.160156 69.5625 108.328125 65.277344 108.640625 C 61.0625 106.960938 53.738281 105.851562 45.410156 105.851562 C 32.347656 105.851562 21.757812 108.582031 21.757812 111.949219 C 21.757812 114.402344 27.046875 114.523438 34.964844 114.410156 C 27.035156 117.339844 22.277344 121.078125 22.277344 125.152344 C 22.277344 134.535156 48.96875 131.683594 80.097656 131.683594 C 111.226562 131.683594 135.007812 134.535156 135.007812 125.152344 C 135.007812 115.769531 109.773438 108.160156 78.644531 108.160156 " fill-opacity="1" fill-rule="nonzero"/></g><path fill="#f8a331" d="M 46.203125 36.851562 C 46.09375 36.964844 46.007812 37.054688 45.929688 37.15625 C 46.007812 37.066406 46.121094 36.941406 46.203125 36.851562 " fill-opacity="1" fill-rule="nonzero"/><path fill="#f8a331" d="M 44.03125 39.421875 L 44.035156 39.515625 C 44.085938 39.382812 44.097656 39.324219 44.03125 39.421875 " fill-opacity="1" fill-rule="nonzero"/><path fill="#f8a331" d="M 34.390625 58.355469 C 34.484375 58.152344 34.625 57.851562 34.726562 57.652344 C 34.605469 57.863281 34.5 58.089844 34.390625 58.355469 " fill-opacity="1" fill-rule="nonzero"/><path fill="#f8a331" d="M 54.535156 26.984375 C 54.496094 27.152344 54.257812 27.480469 54.480469 27.484375 C 54.488281 27.359375 54.515625 27.109375 54.535156 26.984375 " fill-opacity="1" fill-rule="nonzero"/><path fill="#f8a331" d="M 93.585938 44.886719 C 93.582031 44.929688 93.578125 44.980469 93.570312 45.019531 C 93.589844 45.035156 93.589844 44.976562 93.585938 44.886719 " fill-opacity="1" fill-rule="nonzero"/><path fill="#f8a331" d="M 61.878906 87.941406 C 61.867188 87.9375 61.859375 87.933594 61.847656 87.929688 C 61.9375 88 61.921875 87.984375 61.878906 87.941406 " fill-opacity="1" fill-rule="nonzero"/><path fill="#f8a331" d="M 77.082031 22.421875 C 77.023438 22.375 76.933594 22.304688 76.851562 22.246094 C 76.894531 22.320312 77.152344 22.476562 77.082031 22.421875 " fill-opacity="1" fill-rule="nonzero"/><path fill="#f8a331" d="M 40.574219 75.796875 C 40.578125 75.8125 40.582031 75.820312 40.585938 75.839844 C 40.582031 75.824219 40.59375 75.761719 40.574219 75.796875 " fill-opacity="1" fill-rule="nonzero"/><path fill="#f8a331" d="M 40.929688 75.3125 C 40.808594 75.117188 40.679688 74.804688 40.441406 74.75 C 40.792969 75.179688 40.308594 76.238281 40.929688 75.3125 " fill-opacity="1" fill-rule="nonzero"/><path fill="#f8a331" d="M 41.273438 79.136719 C 41.277344 79.152344 41.277344 79.167969 41.28125 79.183594 C 41.277344 79.167969 41.277344 79.152344 41.273438 79.136719 " fill-opacity="1" fill-rule="nonzero"/><path fill="#f8a331" d="M 41.476562 79.6875 C 41.46875 79.679688 41.464844 79.671875 41.460938 79.664062 C 41.464844 79.671875 41.46875 79.679688 41.476562 79.6875 " fill-opacity="1" fill-rule="nonzero"/><g clip-path="url(#6fbc803b65)"><path fill="#f8a331" d="M 69.242188 18.375 C 69.207031 18.371094 69.171875 18.367188 69.144531 18.363281 C 69.175781 18.367188 69.207031 18.371094 69.242188 18.375 " fill-opacity="1" fill-rule="nonzero"/></g><path fill="#f8a331" d="M 45.046875 38.148438 C 45.082031 38.101562 45.121094 38.058594 45.15625 38.015625 C 45.109375 38.0625 45.074219 38.109375 45.046875 38.148438 " fill-opacity="1" fill-rule="nonzero"/><path fill="#f8a331" d="M 93.339844 42.328125 C 93.335938 42.300781 93.332031 42.273438 93.328125 42.246094 C 93.328125 42.265625 93.332031 42.292969 93.339844 42.328125 " fill-opacity="1" fill-rule="nonzero"/><g clip-path="url(#c8a8149b2b)"><path fill="#f8a331" d="M 34.089844 60.851562 C 34.070312 60.554688 34.164062 60.292969 34.257812 60 C 34.226562 60.253906 34.167969 60.535156 34.089844 60.851562 Z M 42.53125 42.429688 C 42.585938 42.800781 42.371094 43.097656 42.25 43.433594 C 42.300781 43.160156 42.34375 42.675781 42.53125 42.429688 Z M 94.027344 48.53125 C 93.394531 48.492188 95.523438 49.203125 94.933594 49.226562 C 94.40625 48.765625 93.652344 48.472656 92.976562 48.253906 C 92.980469 47.984375 93.160156 47.617188 93.191406 47.320312 C 93.210938 46.859375 93.78125 45.953125 93.355469 46.152344 C 93.457031 45.589844 93.234375 44.734375 93.542969 44.273438 C 93.582031 44.515625 93.550781 45.234375 93.605469 44.542969 C 93.410156 42.222656 93.144531 40.570312 91.113281 37.175781 C 89.585938 35.292969 88.085938 33.816406 85.742188 32.691406 C 86 32.773438 85.792969 32.628906 85.597656 32.492188 C 85.347656 32.113281 84.128906 31.828125 83.160156 31.8125 C 82.820312 31.480469 81.257812 31.625 81.671875 31.496094 C 81.546875 31.347656 81.445312 31.328125 81.78125 31.285156 C 81.347656 31.25 81.566406 30.742188 81.441406 30.421875 C 81.304688 29.578125 80.902344 28.785156 80.886719 27.929688 C 80.730469 27.707031 80.683594 27.71875 80.695312 27.847656 C 80.761719 28.28125 80.945312 28.761719 81.035156 29.195312 C 81.078125 29.371094 81.089844 29.449219 81.042969 29.3125 C 81.046875 29.433594 81.019531 29.449219 80.980469 29.386719 C 80.089844 27.457031 80.097656 25.375 79.089844 24.476562 C 78.640625 23.941406 78.132812 23.039062 77.4375 22.800781 C 77.835938 23.179688 78.21875 23.578125 78.566406 24.003906 C 78.074219 23.472656 75.136719 21.101562 76.851562 22.246094 C 76.679688 22.058594 75.703125 21.3125 75.976562 21.402344 C 76.535156 21.761719 78.21875 23.152344 78.082031 23.082031 C 78.003906 22.925781 76.859375 22.0625 77.289062 22.1875 C 76.019531 21.5 75.21875 20.476562 74.003906 20.0625 C 74.21875 20.097656 74.449219 20.164062 74.664062 20.210938 C 73.730469 19.855469 72.988281 19.214844 72.011719 18.988281 C 72.386719 19.097656 72.851562 19.269531 73.011719 19.453125 C 72.804688 19.535156 73.011719 19.601562 73.140625 19.703125 C 72.429688 19.46875 72.15625 19.367188 71.726562 19.1875 C 71.253906 18.703125 68.449219 18.125 69.914062 18.507812 C 70.554688 18.902344 68.214844 18.101562 67.882812 18.304688 C 67.09375 18.34375 68.558594 18.4375 67.898438 18.519531 C 67.265625 18.351562 66.902344 18.605469 66.207031 18.726562 C 66.113281 18.433594 65.425781 18.683594 65.195312 18.734375 C 64.769531 19.054688 63.28125 19.492188 64.378906 18.945312 C 64.816406 18.816406 63.824219 18.96875 63.625 19.15625 C 64.011719 18.757812 62.898438 19.277344 62.625 19.421875 C 61.59375 19.632812 61.460938 20.347656 60.460938 20.695312 C 60.445312 20.566406 60.34375 20.75 60.253906 20.75 C 59.410156 21.359375 60.292969 20.433594 60.792969 20.34375 C 61.246094 19.535156 58.742188 21.558594 58.253906 22.320312 C 57.996094 22.484375 58.140625 22.292969 58.285156 22.097656 C 58.003906 22.394531 57.167969 23.523438 57.628906 22.53125 C 58.308594 21.617188 56.535156 23.996094 56.195312 24.0625 C 54.421875 26.636719 53.730469 29.835938 53.46875 32.886719 C 53.480469 33.054688 53.621094 32.933594 53.613281 32.8125 C 53.699219 32.53125 53.753906 32.820312 53.761719 32.929688 C 53.78125 33.003906 53.859375 33.34375 53.839844 33.414062 C 53.667969 33.449219 53.613281 33.253906 53.476562 33.214844 C 53.289062 33.433594 52.917969 33.421875 52.65625 33.546875 C 51.71875 33.84375 50.160156 34.226562 52.011719 33.648438 C 51.730469 33.6875 51.445312 33.742188 51.167969 33.800781 C 51.167969 33.800781 51.046875 33.824219 51.046875 33.824219 C 51.644531 33.472656 52.167969 33.40625 52.4375 33.214844 C 51.21875 33.539062 49.28125 34.398438 48.273438 35.273438 C 48.273438 35.273438 47.984375 35.410156 47.984375 35.410156 C 48.335938 35.136719 48.308594 35.210938 47.945312 35.363281 C 47.21875 35.929688 46.765625 36.789062 45.933594 37.257812 C 45.828125 37.324219 45.808594 37.308594 45.929688 37.15625 C 45.746094 37.335938 44.90625 38.488281 45.046875 38.148438 C 43.941406 39.519531 43.644531 40.335938 43.199219 41.4375 C 42.957031 41.746094 43.246094 40.640625 43.425781 40.566406 C 43.609375 40.003906 42.722656 41.367188 42.722656 41.875 C 42.617188 42.160156 42.460938 42.515625 42.246094 43.003906 C 42.292969 42.773438 42.671875 41.738281 42.375 42.253906 C 42.113281 42.632812 41.277344 44.972656 41.714844 44.011719 C 42.660156 42.085938 42.082031 43.796875 41.988281 44.5625 C 41.84375 45.050781 41.714844 45.460938 41.707031 46.113281 C 41.386719 45.917969 41.566406 46.34375 41.535156 46.519531 C 41.898438 47.382812 41.5 48.265625 41.527344 48.992188 C 41.597656 49.367188 41.609375 48.609375 41.703125 48.671875 C 41.761719 48.695312 41.910156 49.648438 41.871094 49.835938 C 41.273438 50.113281 40.761719 50.605469 40.113281 50.882812 C 40.027344 50.851562 40.429688 50.601562 40.199219 50.683594 C 40.042969 50.824219 39.875 51 39.726562 51.148438 C 39.53125 51.34375 39.46875 51.191406 39.339844 51.421875 C 39.003906 52.199219 38.109375 52.597656 37.496094 53.175781 C 37.148438 53.496094 36.820312 53.851562 36.609375 54.277344 C 36.496094 54.378906 36.496094 54.332031 36.507812 54.261719 C 36.570312 53.953125 36.394531 54.269531 36.335938 54.367188 C 35.65625 55.40625 35.394531 56.609375 34.726562 57.652344 C 35.101562 57.035156 34.941406 57.820312 34.910156 58.058594 C 34.738281 59.148438 34.796875 58.8125 34.542969 59.988281 C 34.367188 59.84375 34.507812 59.261719 34.695312 59.054688 C 34.738281 57.023438 33.757812 60.660156 33.683594 61.492188 C 33.769531 62.628906 34.035156 63.734375 34.328125 64.832031 C 34.445312 65.261719 34.574219 65.730469 34.742188 66.25 C 34.601562 66.007812 34.53125 65.992188 34.476562 66.042969 C 34.203125 66.496094 34.191406 65.316406 34.050781 64.996094 C 33.925781 64.507812 33.800781 63.9375 33.789062 63.351562 C 33.792969 63.65625 33.78125 63.777344 33.753906 63.804688 C 33.730469 63.828125 33.691406 63.757812 33.671875 63.683594 C 33.890625 64.757812 34.09375 65.683594 34.242188 66.730469 C 34.355469 66.320312 35.703125 69.5 35.207031 68.746094 C 34.535156 67.519531 34.789062 68.210938 35.367188 69.007812 C 35.660156 69.316406 35.921875 69.660156 36.089844 70.070312 C 35.902344 69.761719 35.710938 69.53125 35.957031 69.882812 C 36.890625 71.367188 38.179688 73.398438 40.585938 74.246094 C 40.539062 74.28125 40.253906 74.4375 40.160156 74.398438 C 40.359375 74.464844 40.554688 74.449219 40.773438 74.5 C 41.101562 75.082031 41.1875 75.765625 41.238281 76.417969 C 40.910156 76.644531 40.757812 76.671875 40.585938 75.839844 C 40.664062 76.394531 40.613281 78.097656 41.03125 77.070312 C 41.207031 77.695312 41.0625 78.304688 41.246094 78.964844 C 41.289062 79.300781 41.226562 78.84375 41.464844 79.070312 C 41.726562 79.296875 42.09375 79.90625 41.476562 79.6875 C 41.691406 80.078125 42.445312 80.886719 42.199219 80.941406 C 42.023438 81.449219 42.96875 82.472656 43.230469 82.945312 C 42.910156 82.449219 42.851562 82.183594 43.25 82.832031 C 43.761719 83.5 44.503906 83.789062 45.117188 84.332031 C 45.960938 84.914062 44.625 84.460938 45.527344 85.3125 C 46.398438 85.402344 47.757812 86.246094 48.640625 86.703125 C 47.835938 86.558594 46.929688 86.25 46.222656 85.914062 C 46.53125 86.230469 46.765625 86.453125 47.175781 86.679688 C 47.386719 86.871094 46.703125 86.613281 46.636719 86.492188 C 46.027344 86.011719 47.09375 86.972656 47.375 87 C 48.148438 87.574219 48.878906 87.605469 49.929688 87.902344 C 50.929688 88.03125 46.613281 86.921875 48.148438 87.023438 C 48.550781 87.183594 52.023438 87.710938 50.464844 88.070312 C 50.808594 88.066406 52.691406 88.476562 51.832031 88.371094 C 51.027344 88.277344 52.417969 88.617188 52.726562 88.484375 C 53.585938 88.390625 54.527344 88.777344 55.355469 88.699219 C 53.933594 88.042969 55.621094 87.84375 55.980469 88.015625 C 56.398438 87.875 56.957031 87.78125 57.484375 87.671875 C 57.589844 87.886719 56.589844 88.222656 57.054688 88.285156 C 57.078125 88.226562 57.3125 88.136719 57.40625 88.09375 C 57.503906 88.042969 57.757812 87.980469 57.730469 88.09375 C 58.136719 88.160156 58.5625 87.738281 58.976562 87.671875 C 59.359375 87.546875 58.96875 87.652344 58.828125 87.671875 C 58.523438 87.691406 60.1875 87.0625 60.515625 87.261719 C 61.714844 87.753906 62.820312 88.515625 64.09375 88.867188 C 64.707031 89.128906 66.230469 89.242188 66.457031 89.542969 C 66.671875 89.421875 68.292969 89.5625 67.304688 89.589844 C 67.183594 89.601562 67.015625 89.578125 66.910156 89.601562 C 66.832031 89.617188 66.835938 89.648438 67.019531 89.710938 C 67.238281 89.597656 67.542969 89.640625 67.789062 89.59375 C 68.316406 89.597656 69.671875 89.316406 68.375 89.390625 C 67.835938 89.429688 67.128906 89.476562 66.679688 89.492188 C 66.832031 89.144531 67.414062 89.332031 67.71875 89.273438 C 70.367188 89.300781 72.703125 88.46875 74.953125 87.253906 C 76.433594 87.882812 77.972656 88.050781 79.558594 88.027344 C 86.632812 88.058594 92.785156 82.386719 92.851562 74.710938 C 98.957031 70.59375 102.492188 67.289062 102.082031 58.621094 C 101.25 54.042969 97.980469 50.226562 94.027344 48.53125 " fill-opacity="1" fill-rule="nonzero"/></g><path fill="#f8a331" d="M 34.429688 58.429688 C 34.476562 58.363281 34.511719 58.351562 34.542969 58.339844 C 34.554688 58.230469 34.527344 58.21875 34.429688 58.429688 " fill-opacity="1" fill-rule="nonzero"/><path fill="#f8a331" d="M 54.46875 27.578125 C 54.484375 27.550781 54.492188 27.503906 54.480469 27.484375 L 54.46875 27.578125 " fill-opacity="1" fill-rule="nonzero"/><path fill="#f8a331" d="M 57.160156 88.3125 C 57.28125 88.308594 57.4375 88.28125 57.570312 88.253906 C 57.445312 88.289062 56.859375 88.285156 57.160156 88.3125 " fill-opacity="1" fill-rule="nonzero"/><path fill="#f8a331" d="M 81.261719 87.925781 C 80.566406 87.992188 81.585938 87.914062 81.835938 87.875 C 81.691406 87.875 81.402344 87.902344 81.261719 87.925781 " fill-opacity="1" fill-rule="nonzero"/><path fill="#f8a331" d="M 72.152344 88.679688 C 72.152344 89.003906 72.324219 88.753906 72.496094 88.695312 C 72.710938 88.59375 72.273438 88.714844 72.152344 88.679688 " fill-opacity="1" fill-rule="nonzero"/><path fill="#f8a331" d="M 69.839844 89.421875 C 69.746094 89.496094 69.179688 89.574219 69.164062 89.636719 C 69.164062 89.707031 70.984375 89.277344 69.839844 89.421875 " fill-opacity="1" fill-rule="nonzero"/><path fill="#f8a331" d="M 44.734375 84.730469 C 44.621094 84.605469 43.808594 83.570312 43.871094 84.070312 C 44.292969 84.6875 44.289062 84.3125 44.902344 84.988281 C 45.042969 85.039062 44.785156 84.804688 44.734375 84.730469 " fill-opacity="1" fill-rule="nonzero"/><path fill="#f8a331" d="M 44.863281 84.703125 C 44.699219 84.570312 44.621094 84.511719 44.570312 84.476562 C 44.660156 84.554688 44.761719 84.628906 44.863281 84.703125 " fill-opacity="1" fill-rule="nonzero"/><path fill="#f8a331" d="M 41.59375 45.128906 C 41.703125 44.613281 41.507812 45.304688 41.445312 45.484375 C 41.527344 45.65625 41.566406 45.234375 41.59375 45.128906 " fill-opacity="1" fill-rule="nonzero"/><path fill="#f8a331" d="M 46.527344 36.359375 L 46.386719 36.472656 C 46.589844 36.414062 46.921875 36.390625 46.527344 36.359375 " fill-opacity="1" fill-rule="nonzero"/><path fill="#f8a331" d="M 53.410156 33.058594 C 53.445312 33.054688 53.351562 32.996094 53.320312 32.984375 C 53.308594 33.023438 53.378906 33.039062 53.410156 33.058594 " fill-opacity="1" fill-rule="nonzero"/><path fill="#f8a331" d="M 53.316406 33.007812 C 53.308594 33.007812 53.308594 33.007812 53.304688 33.011719 C 53.308594 33.011719 53.3125 33.011719 53.316406 33.007812 " fill-opacity="1" fill-rule="nonzero"/><path fill="#6f4323" d="M 60.421875 78.117188 C 60.425781 78.121094 60.429688 78.121094 60.429688 78.121094 C 60.429688 78.121094 60.425781 78.121094 60.421875 78.117188 " fill-opacity="1" fill-rule="nonzero"/><path fill="#6f4323" d="M 54.886719 61.792969 C 55.5 62.183594 56.082031 62.46875 56.636719 62.671875 C 54.480469 55.539062 53.53125 49.71875 54.296875 48.675781 C 54.355469 48.597656 54.496094 51.589844 55.335938 55.640625 C 55.734375 55.5 56.363281 55.203125 57.066406 54.203125 C 57.773438 53.199219 58.191406 51.414062 58.191406 51.414062 C 58.175781 51.953125 57.78125 53.28125 57.214844 54.21875 C 56.738281 55.003906 55.914062 55.609375 55.378906 55.859375 C 55.835938 58.023438 56.492188 60.476562 57.433594 62.914062 C 57.523438 63.140625 57.613281 63.371094 57.707031 63.597656 C 57.839844 63.917969 57.976562 64.238281 58.117188 64.558594 C 58.996094 64.332031 61.011719 64.121094 62.300781 61.425781 C 63.335938 59.253906 62.769531 55.222656 62.769531 55.222656 C 63.253906 56.460938 63.4375 59.445312 62.738281 61.488281 C 62.027344 63.566406 59.582031 64.941406 58.371094 65.113281 C 58.464844 65.308594 58.558594 65.503906 58.652344 65.699219 C 62.007812 72.492188 66.503906 77.875 66.484375 76.707031 C 66.476562 76.460938 66.273438 57.339844 66.398438 49.8125 C 64.933594 48.429688 62.820312 45.867188 62.085938 43.460938 C 62.011719 43.21875 61.914062 42.992188 61.832031 42.761719 C 61.398438 42.648438 60.976562 42.480469 60.628906 42.234375 C 59.492188 41.429688 58.546875 39.910156 58.402344 39.164062 C 58.402344 39.164062 59.484375 41.304688 60.871094 42.078125 C 61.171875 42.246094 61.457031 42.367188 61.730469 42.457031 C 60.738281 39.535156 60.332031 37.15625 60.722656 36.746094 C 60.769531 36.695312 60.832031 39.636719 62.125 42.570312 C 62.164062 42.660156 62.207031 42.753906 62.253906 42.847656 C 62.3125 42.980469 62.378906 43.113281 62.445312 43.246094 C 62.886719 43.164062 63.890625 43.109375 64.5625 42.03125 C 65.101562 41.164062 64.863281 39.519531 64.863281 39.519531 C 65.089844 40.03125 65.148438 41.242188 64.777344 42.0625 C 64.402344 42.894531 63.167969 43.421875 62.566406 43.472656 C 62.609375 43.554688 62.652344 43.636719 62.699219 43.714844 C 64.257812 46.460938 65.617188 47.726562 66.425781 48.289062 C 66.625 38.035156 67.09375 31.476562 67.730469 31.476562 C 68.21875 31.476562 68.484375 35.417969 68.707031 41.960938 C 69.304688 41.664062 70.070312 41.113281 70.914062 39.917969 C 70.972656 39.835938 71.03125 39.75 71.085938 39.660156 C 70.949219 39.433594 70.84375 39.175781 70.808594 38.90625 C 70.710938 38.171875 70.925781 37.207031 71.132812 36.84375 C 71.121094 36.875 70.753906 38.128906 70.941406 38.925781 C 70.996094 39.167969 71.074219 39.367188 71.164062 39.535156 C 72.117188 37.933594 72.675781 35.554688 72.675781 35.554688 C 72.648438 36.355469 72.09375 38.273438 71.277344 39.71875 C 71.253906 39.757812 71.230469 39.800781 71.207031 39.84375 C 71.1875 39.875 71.164062 39.910156 71.144531 39.945312 C 70.523438 40.972656 69.519531 41.800781 68.71875 42.277344 C 68.910156 48.054688 69.070312 55.792969 69.320312 64.613281 C 70.886719 63.589844 73.070312 61.75 75.824219 58.460938 C 75.933594 58.328125 76.042969 58.195312 76.148438 58.0625 C 75.253906 57.707031 73.640625 56.203125 73.480469 54.480469 C 73.324219 52.789062 74.015625 50.542969 74.617188 49.683594 C 74.617188 49.683594 73.4375 52.660156 73.828125 54.511719 C 74.3125 56.816406 75.816406 57.347656 76.445312 57.683594 C 76.613281 57.46875 76.777344 57.246094 76.9375 57.027344 C 77.050781 56.871094 77.160156 56.714844 77.269531 56.554688 C 80.699219 51.617188 82.261719 46.140625 82.304688 46.25 C 82.699219 47.191406 80.894531 51.464844 77.925781 56.519531 C 78.386719 56.464844 78.886719 56.355469 79.425781 56.171875 C 81.921875 55.316406 84.636719 51.769531 84.636719 51.769531 C 84.042969 53.101562 81.851562 55.542969 79.714844 56.566406 C 79.0625 56.875 78.339844 57.015625 77.621094 57.039062 C 77.382812 57.4375 77.136719 57.839844 76.886719 58.242188 C 74.550781 62.023438 71.523438 64.4375 69.347656 65.546875 C 69.449219 69.128906 69.566406 72.878906 69.710938 76.742188 C 71.269531 119.320312 78.625 120.253906 68.074219 120.148438 C 57.53125 120.039062 67.074219 115.996094 66.523438 79.082031 C 64.214844 78.007812 59.71875 72.175781 57.402344 65.113281 C 57.214844 64.539062 57.035156 63.96875 56.859375 63.40625 C 55.976562 63.164062 55.128906 62.773438 54.414062 62.191406 C 52.082031 60.289062 50.105469 56.617188 49.765625 54.792969 C 49.765625 54.792969 52.058594 59.988281 54.886719 61.792969 " fill-opacity="1" fill-rule="nonzero"/><path fill="#79cb43" d="M 115.59375 61.039062 C 115.683594 61.132812 115.75 61.207031 115.816406 61.289062 C 115.753906 61.214844 115.660156 61.113281 115.59375 61.039062 " fill-opacity="1" fill-rule="nonzero"/><path fill="#79cb43" d="M 117.355469 63.121094 L 117.347656 63.199219 C 117.308594 63.089844 117.296875 63.042969 117.355469 63.121094 " fill-opacity="1" fill-rule="nonzero"/><path fill="#79cb43" d="M 125.164062 78.457031 C 125.085938 78.292969 124.972656 78.046875 124.886719 77.890625 C 124.988281 78.058594 125.074219 78.242188 125.164062 78.457031 " fill-opacity="1" fill-rule="nonzero"/><path fill="#79cb43" d="M 108.847656 53.050781 C 108.878906 53.183594 109.070312 53.449219 108.890625 53.453125 C 108.882812 53.355469 108.859375 53.152344 108.847656 53.050781 " fill-opacity="1" fill-rule="nonzero"/><path fill="#79cb43" d="M 77.21875 67.550781 C 77.222656 67.585938 77.222656 67.625 77.230469 67.65625 C 77.21875 67.667969 77.214844 67.621094 77.21875 67.550781 " fill-opacity="1" fill-rule="nonzero"/><path fill="#79cb43" d="M 102.898438 102.417969 C 102.90625 102.414062 102.914062 102.414062 102.921875 102.410156 C 102.851562 102.464844 102.863281 102.453125 102.898438 102.417969 " fill-opacity="1" fill-rule="nonzero"/><path fill="#79cb43" d="M 90.585938 49.355469 C 90.59375 49.347656 90.617188 49.328125 90.648438 49.304688 C 90.886719 49.128906 90.570312 49.394531 90.585938 49.355469 " fill-opacity="1" fill-rule="nonzero"/><path fill="#79cb43" d="M 120.152344 92.582031 C 120.152344 92.597656 120.148438 92.605469 120.144531 92.617188 C 120.148438 92.605469 120.136719 92.554688 120.152344 92.582031 " fill-opacity="1" fill-rule="nonzero"/><path fill="#79cb43" d="M 119.867188 92.191406 C 119.964844 92.035156 120.066406 91.777344 120.261719 91.734375 C 119.976562 92.082031 120.367188 92.941406 119.867188 92.191406 " fill-opacity="1" fill-rule="nonzero"/><path fill="#79cb43" d="M 119.585938 95.289062 C 119.585938 95.300781 119.582031 95.3125 119.582031 95.324219 C 119.582031 95.3125 119.585938 95.300781 119.585938 95.289062 " fill-opacity="1" fill-rule="nonzero"/><path fill="#79cb43" d="M 119.421875 95.734375 C 119.425781 95.726562 119.433594 95.722656 119.4375 95.714844 C 119.433594 95.722656 119.425781 95.726562 119.421875 95.734375 " fill-opacity="1" fill-rule="nonzero"/><path fill="#79cb43" d="M 96.9375 46.074219 C 96.964844 46.070312 96.992188 46.070312 97.015625 46.066406 C 96.988281 46.070312 96.960938 46.074219 96.9375 46.074219 " fill-opacity="1" fill-rule="nonzero"/><path fill="#79cb43" d="M 116.53125 62.089844 C 116.503906 62.054688 116.472656 62.015625 116.441406 61.980469 C 116.480469 62.023438 116.507812 62.058594 116.53125 62.089844 " fill-opacity="1" fill-rule="nonzero"/><path fill="#79cb43" d="M 77.417969 65.476562 C 77.421875 65.453125 77.425781 65.429688 77.429688 65.410156 C 77.425781 65.425781 77.421875 65.449219 77.417969 65.476562 " fill-opacity="1" fill-rule="nonzero"/><path fill="#79cb43" d="M 125.265625 79.789062 C 125.347656 80.027344 125.417969 80.238281 125.402344 80.476562 C 125.34375 80.222656 125.292969 79.992188 125.265625 79.789062 Z M 118.796875 66.371094 C 118.699219 66.097656 118.523438 65.855469 118.566406 65.558594 C 118.71875 65.757812 118.757812 66.152344 118.796875 66.371094 Z M 70.335938 78.671875 C 69.871094 85.347656 73.066406 88.632812 77.8125 91.703125 C 77.652344 95.941406 80.800781 100.109375 83.921875 101.429688 C 86.355469 102.628906 89.691406 102.90625 92.351562 101.847656 C 94.152344 102.929688 96.046875 103.480469 98.167969 103.5 C 98.414062 103.542969 98.886719 103.394531 99.011719 103.675781 C 98.71875 103.832031 96.792969 103.371094 97.335938 103.667969 C 97.726562 103.714844 98.65625 103.902344 98.824219 103.765625 C 98.683594 103.777344 97.832031 103.761719 98.417969 103.671875 C 99.292969 103.761719 99.945312 103.414062 100.917969 103.226562 C 102.144531 103.007812 103.421875 101.832031 104.453125 101.839844 C 104.777344 102 105.976562 102.304688 105.121094 102.152344 C 105.238281 102.167969 105.707031 102.339844 105.828125 102.464844 C 106.175781 102.660156 106.511719 102.363281 106.804688 102.699219 C 107.183594 102.644531 106.371094 102.375 106.457031 102.199219 C 107.339844 102.398438 107.773438 102.464844 108.671875 102.484375 C 108.652344 102.746094 108.449219 102.960938 108.179688 103.035156 C 108.453125 103.132812 108.890625 102.945312 109.183594 102.945312 C 109.640625 102.949219 111.632812 102.765625 111.035156 102.765625 C 110.339844 102.851562 111.863281 102.519531 112.144531 102.523438 C 110.925781 102.21875 113.765625 101.773438 114.132812 101.660156 C 114.921875 101.757812 111.832031 102.429688 112.574219 102.386719 C 113.425781 102.148438 114.019531 102.121094 114.644531 101.65625 C 115.023438 101.355469 115.878906 100.914062 114.980469 101.390625 C 114.410156 101.65625 115.320312 101.070312 115.382812 100.964844 C 115.871094 100.699219 114.039062 101.371094 113.617188 101.417969 C 114.335938 101.046875 115.4375 100.363281 116.140625 100.289062 C 116.34375 100.148438 116.566406 99.800781 116.269531 99.777344 C 116.066406 99.613281 117.398438 98.917969 117.726562 98.5625 C 118.378906 97.886719 118.019531 98.351562 118.820312 97.132812 C 118.953125 96.648438 118.601562 96.761719 118.964844 96.398438 C 119.128906 96.054688 119.671875 95.714844 119.101562 95.742188 C 119.191406 95.652344 119.484375 94.902344 119.585938 95.289062 C 119.703125 95.003906 119.691406 92.8125 119.9375 94.015625 C 120.078125 93.558594 120.148438 93.078125 120.144531 92.617188 C 119.554688 94.289062 119.542969 92.011719 119.980469 91.550781 C 120.082031 91.484375 120.25 91.507812 120.363281 91.484375 C 120.398438 91.484375 120.453125 91.453125 120.488281 91.449219 C 120.460938 91.453125 120.402344 91.445312 120.363281 91.433594 C 119.902344 91.285156 120.480469 91.316406 120.660156 91.140625 C 121.796875 90.601562 123.328125 88.910156 123.40625 88.511719 C 123.996094 87.457031 124.175781 87.648438 124.863281 86.144531 C 124.78125 86.40625 124.566406 86.957031 124.335938 86.957031 C 125.109375 85.71875 125.664062 83.894531 125.675781 82.871094 C 125.777344 82.214844 125.28125 84.292969 125.246094 84.828125 C 125.058594 84.746094 125.09375 84.496094 124.875 84.847656 C 125.011719 84.429688 125.117188 84.050781 125.214844 83.703125 C 125.449219 82.8125 125.667969 81.917969 125.734375 81 C 125.671875 80.320312 124.882812 77.378906 124.914062 79.023438 C 125.066406 79.191406 125.179688 79.660156 125.039062 79.777344 C 125.058594 79.625 124.820312 78.734375 124.863281 79.019531 C 124.78125 78.015625 124.523438 76.769531 123.585938 75.226562 C 123.539062 75.148438 123.394531 74.890625 123.445312 75.144531 C 123.242188 75.175781 122.972656 74.410156 122.644531 74.261719 C 122.152344 73.792969 121.425781 73.472656 121.152344 72.84375 C 121.078125 72.65625 120.984375 72.777344 120.839844 72.621094 C 120.71875 72.5 120.582031 72.359375 120.457031 72.242188 C 120.269531 72.175781 120.597656 72.378906 120.527344 72.40625 C 120 72.179688 119.585938 71.78125 119.105469 71.554688 C 119.101562 71.324219 119.195312 69.988281 119.351562 70.957031 C 119.382812 70.871094 119.40625 70.746094 119.414062 70.566406 C 119.085938 70.042969 119.328125 69.238281 119.386719 68.605469 C 119.378906 68.464844 119.363281 68.496094 119.238281 68.539062 C 119.179688 68.125 119.25 67.710938 119.019531 67.464844 C 118.902344 66.527344 118.53125 65.332031 119.320312 67.054688 C 119.34375 67.113281 119.363281 67.160156 119.375 67.1875 C 119.132812 66.480469 119.042969 65.988281 118.695312 65.414062 C 118.453125 64.996094 118.761719 65.835938 118.796875 66.023438 C 118.625 65.628906 118.5 65.339844 118.414062 65.109375 C 118.214844 64.320312 117.511719 63.308594 118.078125 64.597656 C 118.203125 65.125 117.90625 64.519531 117.878906 64.363281 C 117.765625 64.199219 117.003906 62.359375 116.445312 62.074219 C 115.945312 61.226562 115.253906 61.164062 114.621094 60.246094 C 114.027344 59.550781 114.148438 59.925781 113.675781 59.65625 C 113.589844 59.148438 110.40625 57.9375 110.65625 58.160156 C 110.847656 58.230469 111.246094 58.359375 111.671875 58.589844 L 111.574219 58.570312 C 111.347656 58.523438 111.121094 58.480469 110.890625 58.449219 C 112.390625 58.914062 111.128906 58.605469 110.367188 58.363281 C 110.011719 58.320312 109.738281 57.984375 109.476562 58.253906 C 109.328125 58.292969 109.472656 57.941406 109.472656 57.867188 C 109.476562 57.65625 109.585938 57.621094 109.625 57.875 C 109.628906 57.886719 109.652344 57.894531 109.667969 57.898438 C 109.617188 55.476562 108.898438 52.761719 107.5 50.683594 C 107.03125 50.523438 106.5625 49.550781 106.101562 49.144531 C 106.734375 49.882812 106.394531 49.917969 105.960938 49.253906 C 105.492188 49.140625 105.019531 48.214844 104.425781 47.894531 C 103.660156 47.367188 103.339844 47.425781 104.285156 47.933594 C 104.882812 48.535156 104.203125 47.882812 103.992188 47.945312 C 103.371094 47.773438 103.261719 47.269531 102.820312 47.128906 C 101.820312 46.710938 101.554688 46.660156 100.726562 46.460938 C 101.101562 46.71875 101.539062 46.820312 100.871094 46.679688 C 100.414062 46.550781 99.753906 46.015625 99.394531 46.363281 C 98.828125 46.265625 98.535156 46.054688 98.023438 46.195312 C 97.5625 46.152344 98.289062 46.097656 98.222656 46.035156 C 98.191406 46.027344 98.132812 46.023438 98.035156 46.019531 C 95.824219 46.242188 96.566406 46.046875 93.777344 47.152344 C 93.882812 47.070312 94.050781 47.015625 93.882812 46.949219 C 94.011719 46.800781 94.390625 46.664062 94.691406 46.574219 C 93.070312 47.101562 93 47.53125 92.367188 47.757812 C 91.816406 48.261719 90.5 49.0625 89.929688 49.726562 C 89.015625 50.6875 91.964844 47.886719 91.386719 48.695312 C 90.789062 49.230469 90.671875 49.1875 91.398438 48.839844 C 90.777344 49.289062 88.796875 51.25 89.824219 50.132812 C 89.96875 49.96875 90.140625 49.816406 90.296875 49.660156 C 89.636719 49.808594 88.585938 51.566406 88.585938 51.585938 C 88.261719 52.054688 87.875 54.011719 87.429688 54.996094 C 87.203125 54.984375 87.664062 54.097656 87.660156 53.746094 C 87.402344 53.535156 87.476562 54.671875 87.296875 54.878906 C 87.078125 55.476562 86.960938 56.511719 86.933594 56.640625 C 86.808594 56.722656 86.863281 56.730469 87.066406 56.730469 C 86.617188 56.832031 86.179688 56.710938 85.777344 56.882812 C 83.554688 57.171875 84.167969 57.421875 82.425781 58.253906 C 79.941406 59.789062 77.617188 63.257812 77.363281 65.984375 C 77.507812 64.769531 77.097656 67.085938 77.21875 67.550781 C 77.335938 66.394531 77.390625 68.070312 77.414062 68.484375 C 77.375 68.761719 77.261719 68.207031 77.320312 68.835938 C 77.503906 69.113281 77.597656 69.886719 77.722656 70.273438 C 77.648438 70.296875 77.570312 70.320312 77.496094 70.34375 C 76.972656 70.464844 76.453125 70.90625 76.019531 71.054688 C 76.21875 70.84375 76.585938 70.742188 76.839844 70.601562 C 77.339844 70.15625 75.757812 71.269531 76.21875 70.753906 C 72.835938 72.738281 71.105469 75.148438 70.335938 78.671875 " fill-opacity="1" fill-rule="nonzero"/><path fill="#79cb43" d="M 125.128906 78.515625 C 125.089844 78.460938 125.066406 78.453125 125.039062 78.445312 C 125.03125 78.355469 125.050781 78.347656 125.128906 78.515625 " fill-opacity="1" fill-rule="nonzero"/><path fill="#79cb43" d="M 108.898438 53.527344 C 108.886719 53.507812 108.878906 53.46875 108.890625 53.453125 L 108.898438 53.527344 " fill-opacity="1" fill-rule="nonzero"/><path fill="#79cb43" d="M 106.71875 102.71875 C 106.625 102.714844 106.496094 102.695312 106.390625 102.671875 C 106.488281 102.699219 106.964844 102.699219 106.71875 102.71875 " fill-opacity="1" fill-rule="nonzero"/><path fill="#79cb43" d="M 87.199219 102.40625 C 87.761719 102.457031 86.9375 102.394531 86.734375 102.367188 C 86.851562 102.367188 87.085938 102.390625 87.199219 102.40625 " fill-opacity="1" fill-rule="nonzero"/><path fill="#79cb43" d="M 94.578125 103.015625 C 94.585938 103.269531 94.433594 103.078125 94.300781 103.03125 C 94.125 102.949219 94.480469 103.042969 94.578125 103.015625 " fill-opacity="1" fill-rule="nonzero"/><path fill="#79cb43" d="M 96.453125 103.617188 C 96.527344 103.675781 96.984375 103.738281 97 103.792969 C 96.996094 103.847656 95.523438 103.5 96.453125 103.617188 " fill-opacity="1" fill-rule="nonzero"/><path fill="#79cb43" d="M 116.785156 99.816406 C 116.898438 99.703125 117.492188 98.902344 117.480469 99.285156 C 117.140625 99.78125 117.144531 99.480469 116.648438 100.027344 C 116.535156 100.070312 116.742188 99.878906 116.785156 99.816406 " fill-opacity="1" fill-rule="nonzero"/><path fill="#79cb43" d="M 116.679688 99.792969 C 116.8125 99.6875 116.878906 99.640625 116.917969 99.613281 C 116.84375 99.675781 116.761719 99.734375 116.679688 99.792969 " fill-opacity="1" fill-rule="nonzero"/><path fill="#79cb43" d="M 119.328125 67.746094 C 119.242188 67.328125 119.398438 67.886719 119.449219 68.035156 C 119.378906 68.171875 119.351562 67.832031 119.328125 67.746094 " fill-opacity="1" fill-rule="nonzero"/><path fill="#79cb43" d="M 115.332031 60.640625 L 115.445312 60.734375 C 115.28125 60.6875 115.011719 60.667969 115.332031 60.640625 " fill-opacity="1" fill-rule="nonzero"/><path fill="#79cb43" d="M 109.757812 57.96875 C 109.730469 57.964844 109.804688 57.917969 109.832031 57.910156 C 109.839844 57.941406 109.785156 57.953125 109.757812 57.96875 " fill-opacity="1" fill-rule="nonzero"/><path fill="#79cb43" d="M 109.835938 57.925781 C 109.839844 57.925781 109.839844 57.925781 109.84375 57.929688 C 109.839844 57.929688 109.835938 57.929688 109.835938 57.925781 " fill-opacity="1" fill-rule="nonzero"/><path fill="#6f4323" d="M 108.328125 84.765625 C 107.878906 85.054688 107.449219 85.265625 107.042969 85.414062 C 108.628906 80.164062 109.328125 75.878906 108.765625 75.109375 C 108.722656 75.050781 108.617188 77.253906 108 80.238281 C 107.703125 80.132812 107.242188 79.914062 106.722656 79.179688 C 106.203125 78.441406 105.894531 77.125 105.894531 77.125 C 105.90625 77.523438 106.199219 78.5 106.617188 79.191406 C 106.964844 79.769531 107.574219 80.214844 107.964844 80.398438 C 107.628906 81.992188 107.148438 83.796875 106.453125 85.59375 C 106.386719 85.761719 106.320312 85.925781 106.253906 86.09375 C 106.15625 86.332031 106.054688 86.566406 105.949219 86.800781 C 105.304688 86.636719 103.820312 86.480469 102.871094 84.496094 C 102.109375 82.898438 102.527344 79.929688 102.527344 79.929688 C 102.171875 80.84375 102.035156 83.039062 102.550781 84.542969 C 103.074219 86.074219 104.875 87.085938 105.765625 87.210938 C 105.695312 87.355469 105.628906 87.5 105.554688 87.644531 C 103.085938 92.640625 99.777344 96.605469 99.792969 95.746094 C 99.796875 95.5625 99.945312 81.488281 99.855469 75.945312 C 100.933594 74.929688 102.488281 73.042969 103.03125 71.269531 C 103.085938 71.09375 103.15625 70.925781 103.214844 70.753906 C 103.535156 70.671875 103.84375 70.546875 104.101562 70.367188 C 104.9375 69.773438 105.632812 68.65625 105.742188 68.109375 C 105.742188 68.109375 104.945312 69.683594 103.925781 70.253906 C 103.703125 70.375 103.492188 70.464844 103.292969 70.53125 C 104.019531 68.378906 104.320312 66.628906 104.03125 66.328125 C 104 66.292969 103.949219 68.457031 103 70.613281 C 102.96875 70.683594 102.9375 70.75 102.90625 70.820312 C 102.859375 70.917969 102.8125 71.015625 102.765625 71.109375 C 102.441406 71.054688 101.703125 71.011719 101.207031 70.21875 C 100.808594 69.578125 100.984375 68.371094 100.984375 68.371094 C 100.816406 68.746094 100.773438 69.636719 101.046875 70.242188 C 101.324219 70.855469 102.230469 71.242188 102.675781 71.28125 C 102.644531 71.339844 102.609375 71.398438 102.578125 71.457031 C 101.429688 73.480469 100.429688 74.410156 99.835938 74.824219 C 99.6875 67.277344 99.339844 62.449219 98.875 62.449219 C 98.511719 62.449219 98.316406 65.347656 98.15625 70.164062 C 97.714844 69.949219 97.148438 69.542969 96.53125 68.664062 C 96.488281 68.601562 96.445312 68.539062 96.402344 68.472656 C 96.503906 68.304688 96.582031 68.117188 96.609375 67.917969 C 96.679688 67.378906 96.523438 66.667969 96.371094 66.398438 C 96.375 66.421875 96.648438 67.34375 96.511719 67.929688 C 96.46875 68.109375 96.410156 68.257812 96.34375 68.378906 C 95.644531 67.203125 95.234375 65.449219 95.234375 65.449219 C 95.253906 66.042969 95.660156 67.453125 96.261719 68.515625 C 96.28125 68.546875 96.296875 68.578125 96.316406 68.605469 C 96.328125 68.632812 96.34375 68.65625 96.359375 68.683594 C 96.816406 69.4375 97.558594 70.050781 98.148438 70.398438 C 98.007812 74.652344 97.886719 80.351562 97.703125 86.84375 C 96.550781 86.089844 94.941406 84.734375 92.914062 82.3125 C 92.835938 82.214844 92.753906 82.117188 92.675781 82.019531 C 93.335938 81.757812 94.523438 80.652344 94.640625 79.382812 C 94.757812 78.136719 94.246094 76.484375 93.804688 75.851562 C 93.804688 75.851562 94.671875 78.042969 94.386719 79.40625 C 94.027344 81.101562 92.921875 81.496094 92.457031 81.742188 C 92.335938 81.582031 92.214844 81.421875 92.09375 81.257812 C 92.011719 81.140625 91.929688 81.027344 91.851562 80.910156 C 89.328125 77.273438 88.175781 73.242188 88.144531 73.324219 C 87.855469 74.015625 89.179688 77.164062 91.367188 80.882812 C 91.027344 80.84375 90.660156 80.765625 90.261719 80.628906 C 88.425781 80 86.425781 77.386719 86.425781 77.386719 C 86.867188 78.367188 88.480469 80.164062 90.050781 80.917969 C 90.53125 81.148438 91.0625 81.25 91.59375 81.265625 C 91.769531 81.558594 91.949219 81.855469 92.132812 82.152344 C 93.855469 84.9375 96.082031 86.710938 97.683594 87.53125 C 97.609375 90.167969 97.519531 92.929688 97.417969 95.773438 C 96.265625 127.117188 90.855469 127.804688 98.621094 127.726562 C 106.382812 127.644531 99.355469 124.671875 99.761719 97.496094 C 101.460938 96.703125 104.773438 92.410156 106.476562 87.210938 C 106.613281 86.789062 106.746094 86.367188 106.875 85.953125 C 107.527344 85.777344 108.152344 85.488281 108.675781 85.0625 C 110.394531 83.660156 111.851562 80.957031 112.097656 79.613281 C 112.097656 79.613281 110.410156 83.4375 108.328125 84.765625 " fill-opacity="1" fill-rule="nonzero"/></svg>