<svg xmlns="http://www.w3.org/2000/svg" xmlns:xlink="http://www.w3.org/1999/xlink" width="150" zoomAndPan="magnify" viewBox="0 0 112.5 112.499997" height="150" preserveAspectRatio="xMidYMid meet" version="1.0"><defs><clipPath id="789e8b3e45"><path d="M 54 26 L 94.320312 26 L 94.320312 59 L 54 59 Z M 54 26 " clip-rule="nonzero"/></clipPath><clipPath id="445b861197"><path d="M 16 84 L 37 84 L 37 98.933594 L 16 98.933594 Z M 16 84 " clip-rule="nonzero"/></clipPath><clipPath id="4d69aef34d"><path d="M 60 10.078125 L 71 10.078125 L 71 21 L 60 21 Z M 60 10.078125 " clip-rule="nonzero"/></clipPath></defs><path fill="#5ce1e6" d="M 60.8125 19.933594 C 60.8125 19.933594 62.375 12.421875 67.171875 11.816406 C 71.964844 11.207031 67.640625 17.597656 67.640625 17.597656 L 64.265625 19.75 L 62.34375 20.105469 " fill-opacity="1" fill-rule="nonzero"/><path fill="#5ce1e6" d="M 19.417969 30.796875 C 19.417969 30.796875 23.070312 24.265625 32.976562 26.925781 C 42.882812 29.585938 46.847656 42.230469 46.707031 42.238281 C 46.5625 42.246094 46.949219 46.679688 46.949219 46.679688 L 45.863281 47.128906 C 45.863281 47.128906 39.703125 41.363281 33.636719 41.308594 C 27.570312 41.253906 22.023438 42.089844 21.988281 37.867188 C 21.949219 33.648438 21.925781 33.203125 21.925781 33.203125 " fill-opacity="1" fill-rule="nonzero"/><path fill="#5ce1e6" d="M 36.152344 85.753906 C 36.152344 85.753906 33.703125 95.730469 24.460938 97.464844 C 15.21875 99.199219 16.800781 90.253906 19.023438 88.421875 C 21.242188 86.585938 26.96875 85.039062 27.042969 85.226562 C 27.117188 85.414062 35.46875 85.472656 35.46875 85.472656 L 36.152344 85.75 Z M 36.152344 85.753906 " fill-opacity="1" fill-rule="nonzero"/><path fill="#5ce1e6" d="M 46.742188 75.402344 C 46.742188 75.402344 47.894531 72.613281 45.914062 69.476562 C 43.9375 66.34375 37.386719 60.25 37.363281 60.441406 C 37.339844 60.632812 35.121094 64.800781 36.953125 68.757812 C 38.785156 72.71875 41.0625 74.339844 41.167969 74.496094 C 41.273438 74.648438 46.742188 75.402344 46.742188 75.402344 Z M 46.742188 75.402344 " fill-opacity="1" fill-rule="nonzero"/><path fill="#5ce1e6" d="M 61.316406 74.210938 C 61.316406 74.210938 69.730469 71.277344 78.011719 75.277344 C 86.292969 79.277344 88.25 89.714844 87.820312 89.992188 C 87.390625 90.269531 84.222656 90.4375 84.050781 90.765625 C 83.878906 91.09375 84.179688 96.664062 83.988281 96.675781 C 83.796875 96.683594 75.21875 95.40625 69.523438 90.277344 C 63.832031 85.148438 63.257812 79.625 63.257812 79.625 Z M 61.316406 74.210938 " fill-opacity="1" fill-rule="nonzero"/><path fill="#5ce1e6" d="M 56.53125 55.910156 C 56.53125 55.910156 58.441406 57.289062 63.757812 42.515625 C 69.074219 27.746094 82.4375 28.265625 82.835938 28.53125 C 83.230469 28.796875 86.886719 29.457031 86.886719 29.457031 L 86.230469 32.160156 L 86.316406 33.726562 C 86.316406 33.726562 93.242188 36.070312 92.789062 36.476562 C 92.335938 36.882812 88.273438 40.71875 86.921875 44.984375 C 85.570312 49.25 82.148438 55.898438 74.566406 57.175781 C 66.980469 58.457031 59.429688 57.417969 58.847656 57.164062 C 58.261719 56.90625 56.535156 55.914062 56.535156 55.914062 Z M 56.53125 55.910156 " fill-opacity="1" fill-rule="nonzero"/><g clip-path="url(#789e8b3e45)"><path fill="#000000" d="M 73.425781 58.644531 C 72.867188 58.726562 72.304688 58.757812 71.742188 58.746094 C 69.425781 58.703125 67.128906 58.492188 64.839844 58.226562 C 62.464844 57.949219 60.089844 57.765625 57.691406 57.808594 C 56.953125 57.824219 56.210938 57.808594 55.480469 57.707031 C 55.21875 57.667969 54.976562 57.570312 54.914062 57.238281 C 54.835938 56.84375 55.152344 56.675781 55.433594 56.5 C 57.105469 55.46875 58.910156 54.957031 60.886719 55.125 C 63.089844 55.3125 65.289062 55.519531 67.492188 55.714844 C 69.714844 55.914062 71.933594 56.007812 74.164062 55.816406 C 77.886719 55.496094 81.277344 53.453125 83.210938 50.253906 C 84.039062 48.890625 84.695312 47.449219 85.320312 45.984375 C 86.144531 44.042969 86.847656 42.050781 87.890625 40.207031 C 88.625 38.90625 89.488281 37.714844 90.652344 36.761719 C 90.714844 36.710938 90.773438 36.652344 90.835938 36.597656 C 90.996094 36.460938 90.949219 36.355469 90.777344 36.289062 C 90.378906 36.140625 89.984375 35.972656 89.574219 35.855469 C 88.519531 35.558594 87.453125 35.3125 86.40625 34.996094 C 85.964844 34.863281 85.53125 34.660156 85.148438 34.40625 C 84.4375 33.9375 84.175781 33.15625 84.507812 32.378906 C 84.738281 31.84375 85.121094 31.371094 85.453125 30.886719 C 85.59375 30.679688 85.757812 30.492188 85.9375 30.320312 C 86.171875 30.089844 86.121094 29.964844 85.871094 29.929688 C 85.089844 29.824219 84.308594 29.675781 83.519531 29.625 C 81.691406 29.503906 79.867188 29.632812 78.074219 30.035156 C 75.546875 30.605469 73.328125 31.792969 71.332031 33.417969 C 68.792969 35.492188 66.785156 37.992188 65.484375 41.011719 C 64.886719 42.40625 64.414062 43.855469 63.875 45.277344 C 63.148438 47.214844 62.539062 49.199219 61.460938 50.984375 C 60.492188 52.582031 59.289062 53.964844 57.765625 55.0625 C 57.683594 55.121094 57.605469 55.1875 57.515625 55.234375 C 57.300781 55.351562 57.078125 55.371094 56.910156 55.160156 C 56.746094 54.949219 56.816406 54.734375 56.96875 54.550781 C 57.058594 54.4375 57.167969 54.34375 57.273438 54.25 C 58.335938 53.292969 59.023438 52.09375 59.621094 50.808594 C 60.640625 48.617188 61.050781 46.253906 61.628906 43.9375 C 62.003906 42.4375 62.417969 40.953125 63.023438 39.535156 C 64.039062 37.160156 65.449219 35.042969 67.242188 33.179688 C 69.089844 31.257812 71.199219 29.691406 73.632812 28.589844 C 76.347656 27.367188 79.207031 26.886719 82.175781 27 C 83.597656 27.054688 85.011719 27.183594 86.390625 27.542969 C 86.722656 27.628906 87.054688 27.734375 87.371094 27.863281 C 88.820312 28.453125 89.222656 29.691406 88.382812 31.015625 C 88.089844 31.476562 87.726562 31.894531 87.398438 32.332031 C 87.183594 32.621094 87.191406 32.6875 87.539062 32.796875 C 88.234375 33.011719 88.953125 33.167969 89.636719 33.410156 C 90.707031 33.785156 91.757812 34.21875 92.816406 34.625 C 92.855469 34.644531 92.898438 34.660156 92.9375 34.683594 C 94.28125 35.476562 94.414062 36.667969 93.273438 37.695312 C 92.792969 38.132812 92.277344 38.535156 91.820312 38.992188 C 90.804688 40.011719 90.105469 41.253906 89.535156 42.558594 C 88.78125 44.285156 88.105469 46.050781 87.355469 47.777344 C 86.363281 50.050781 85.21875 52.242188 83.527344 54.097656 C 81.636719 56.175781 79.320312 57.53125 76.585938 58.128906 C 75.546875 58.359375 74.484375 58.492188 73.425781 58.644531 Z M 73.425781 58.644531 " fill-opacity="1" fill-rule="nonzero"/></g><path fill="#000000" d="M 27.527344 39.667969 C 29.273438 39.535156 31.011719 39.519531 32.75 39.773438 C 34.726562 40.0625 36.628906 40.644531 38.472656 41.398438 C 40.183594 42.097656 41.855469 42.875 43.402344 43.90625 C 44.511719 44.644531 45.429688 45.585938 46.273438 46.605469 C 46.3125 46.652344 46.347656 46.703125 46.382812 46.753906 C 46.535156 46.957031 46.652344 47.175781 46.476562 47.417969 C 46.28125 47.683594 46.011719 47.652344 45.765625 47.523438 C 44.753906 47.007812 43.730469 46.507812 42.738281 45.957031 C 40.679688 44.808594 38.582031 43.746094 36.339844 42.992188 C 34.390625 42.335938 32.402344 41.941406 30.320312 41.917969 C 28.8125 41.902344 27.335938 42.238281 25.835938 42.183594 C 25.148438 42.164062 24.453125 42.167969 23.78125 42.050781 C 21.519531 41.671875 20.128906 40.101562 19.804688 37.808594 C 19.609375 36.410156 19.808594 35.0625 20.269531 33.742188 C 20.296875 33.664062 20.308594 33.582031 20.34375 33.511719 C 20.492188 33.214844 20.34375 33.113281 20.074219 33.070312 C 19.832031 33.03125 19.597656 32.972656 19.359375 32.910156 C 17.386719 32.398438 17.128906 30.628906 18.261719 29.292969 C 19.460938 27.882812 20.980469 26.929688 22.667969 26.226562 C 26.222656 24.753906 29.808594 24.84375 33.351562 26.207031 C 39.46875 28.558594 43.683594 32.851562 46.046875 38.964844 C 46.78125 40.871094 47.230469 42.839844 47.371094 44.878906 C 47.402344 45.324219 47.394531 45.769531 47.398438 46.21875 C 47.398438 46.335938 47.394531 46.476562 47.335938 46.570312 C 47.269531 46.679688 47.136719 46.804688 47.035156 46.804688 C 46.941406 46.804688 46.796875 46.660156 46.761719 46.554688 C 46.6875 46.304688 46.644531 46.039062 46.625 45.78125 C 46.5 44.183594 46.003906 42.679688 45.472656 41.1875 C 44.394531 38.171875 42.84375 35.429688 40.617188 33.105469 C 38.03125 30.402344 34.953125 28.511719 31.269531 27.71875 C 27.664062 26.941406 24.382812 27.683594 21.472656 29.96875 C 21.316406 30.09375 21.195312 30.253906 21.058594 30.398438 C 21.246094 30.460938 21.429688 30.527344 21.617188 30.585938 C 21.808594 30.648438 22.007812 30.699219 22.195312 30.773438 C 23.328125 31.207031 23.773438 32.199219 23.339844 33.332031 C 23.183594 33.730469 22.996094 34.113281 22.839844 34.507812 C 22.429688 35.542969 22.222656 36.609375 22.417969 37.722656 C 22.613281 38.867188 23.214844 39.507812 24.371094 39.65625 C 25.109375 39.746094 25.863281 39.707031 26.613281 39.714844 C 26.917969 39.71875 27.222656 39.6875 27.527344 39.671875 Z M 27.527344 39.667969 " fill-opacity="1" fill-rule="nonzero"/><path fill="#000000" d="M 84.613281 91.996094 C 84.753906 92.710938 84.910156 93.421875 85.042969 94.140625 C 85.144531 94.699219 85.261719 95.257812 85.285156 95.820312 C 85.332031 96.945312 84.515625 97.675781 83.410156 97.476562 C 82.597656 97.328125 81.789062 97.105469 80.996094 96.859375 C 78.320312 96.03125 75.679688 95.105469 73.160156 93.867188 C 70.925781 92.765625 68.855469 91.429688 67.058594 89.6875 C 65.230469 87.914062 63.933594 85.808594 63.148438 83.390625 C 62.671875 81.921875 62.414062 80.40625 62.136719 78.886719 C 61.867188 77.414062 61.46875 75.964844 61.128906 74.503906 C 61.101562 74.386719 61.0625 74.269531 61.039062 74.152344 C 60.933594 73.589844 61.097656 73.445312 61.6875 73.507812 C 61.941406 73.535156 62.210938 73.484375 62.46875 73.449219 C 63.691406 73.28125 64.910156 73.09375 66.136719 72.9375 C 67.851562 72.722656 69.578125 72.761719 71.292969 72.894531 C 74.378906 73.132812 77.34375 73.824219 80.054688 75.394531 C 82.429688 76.769531 84.242188 78.710938 85.65625 81.03125 C 87.164062 83.503906 88.296875 86.148438 89.164062 88.910156 C 89.265625 89.234375 89.332031 89.585938 89.335938 89.925781 C 89.347656 90.835938 88.5625 91.507812 87.660156 91.414062 C 87.164062 91.359375 86.675781 91.230469 86.179688 91.140625 C 85.859375 91.085938 85.542969 91.011719 85.21875 90.996094 C 84.898438 90.980469 84.648438 91.230469 84.640625 91.539062 C 84.636719 91.6875 84.652344 91.832031 84.660156 91.980469 L 84.613281 91.988281 Z M 64.640625 74.039062 C 64.074219 74.070312 63.503906 74.085938 62.941406 74.132812 C 62.324219 74.1875 62.320312 74.207031 62.660156 74.691406 C 63.371094 75.683594 63.78125 76.789062 64.007812 77.984375 C 64.242188 79.242188 64.496094 80.492188 64.816406 81.726562 C 65.53125 84.46875 66.9375 86.800781 69.078125 88.679688 C 70.585938 90 72.261719 91.058594 74.039062 91.960938 C 76.710938 93.3125 79.53125 94.285156 82.367188 95.207031 C 82.605469 95.28125 82.871094 95.28125 83.121094 95.320312 C 83.082031 95.085938 83.0625 94.847656 83.007812 94.613281 C 82.757812 93.589844 82.5 92.566406 82.5 91.5 C 82.503906 89.90625 83.457031 88.855469 84.914062 88.890625 C 85.417969 88.90625 85.921875 88.957031 86.425781 89 C 86.628906 89.019531 86.757812 88.996094 86.652344 88.746094 C 86.628906 88.691406 86.617188 88.628906 86.59375 88.574219 C 85.703125 86.304688 84.726562 84.074219 83.457031 81.984375 C 82.644531 80.640625 81.675781 79.410156 80.503906 78.367188 C 78.746094 76.804688 76.6875 75.769531 74.441406 75.101562 C 71.238281 74.144531 67.957031 73.898438 64.636719 74.039062 Z M 64.640625 74.039062 " fill-opacity="1" fill-rule="nonzero"/><g clip-path="url(#445b861197)"><path fill="#000000" d="M 28.511719 84.066406 C 30.769531 83.960938 32.976562 84.222656 35.128906 84.894531 C 35.433594 84.992188 35.730469 85.132812 36.023438 85.277344 C 36.257812 85.394531 36.417969 85.585938 36.296875 85.871094 C 36.179688 86.144531 35.945312 86.152344 35.679688 86.101562 C 34.925781 85.949219 34.175781 85.75 33.414062 85.683594 C 30.792969 85.457031 28.179688 85.535156 25.617188 86.179688 C 23.910156 86.613281 22.3125 87.304688 20.957031 88.472656 C 20.0625 89.246094 19.40625 90.175781 19.089844 91.332031 C 18.554688 93.308594 19.566406 95.136719 21.339844 95.945312 C 23.421875 96.894531 25.492188 96.710938 27.511719 95.726562 C 28.828125 95.085938 29.90625 94.117188 30.859375 93.03125 C 31.945312 91.800781 32.960938 90.511719 34.007812 89.246094 C 34.195312 89.019531 34.363281 88.765625 34.582031 88.574219 C 34.695312 88.472656 34.851562 88.414062 35.003906 88.441406 C 35.304688 88.492188 35.335938 88.753906 35.226562 88.984375 C 34.988281 89.476562 34.757812 89.972656 34.488281 90.445312 C 33.855469 91.535156 33.226562 92.625 32.550781 93.683594 C 31.910156 94.699219 31.164062 95.632812 30.308594 96.476562 C 28.964844 97.8125 27.339844 98.601562 25.5 98.929688 C 23.710938 99.246094 21.925781 99.148438 20.261719 98.339844 C 17.894531 97.191406 16.46875 95.378906 16.4375 92.667969 C 16.421875 91.351562 16.859375 90.15625 17.605469 89.082031 C 19.191406 86.796875 21.480469 85.566406 24.082031 84.824219 C 24.683594 84.648438 25.296875 84.492188 25.917969 84.390625 C 26.777344 84.25 27.644531 84.171875 28.511719 84.066406 Z M 28.511719 84.066406 " fill-opacity="1" fill-rule="nonzero"/></g><path fill="#000000" d="M 35.519531 61.746094 C 35.625 61.402344 35.757812 61.050781 35.925781 60.734375 C 36.472656 59.691406 37.65625 59.574219 38.382812 60.011719 C 38.933594 60.34375 39.472656 60.726562 39.941406 61.164062 C 41.503906 62.613281 43.027344 64.101562 44.40625 65.730469 C 45.597656 67.128906 46.667969 68.605469 47.300781 70.347656 C 47.839844 71.832031 48.007812 73.339844 47.492188 74.871094 C 47.46875 74.949219 47.441406 75.027344 47.410156 75.101562 C 47.003906 76.066406 46.976562 76.09375 45.933594 75.996094 C 45.066406 75.917969 44.199219 75.808594 43.335938 75.703125 C 40.289062 75.324219 38.230469 73.582031 36.84375 70.941406 C 36.039062 69.402344 35.511719 67.765625 35.34375 66.023438 C 35.308594 65.679688 35.195312 62.808594 35.519531 61.746094 Z M 46.359375 72.253906 C 45.917969 70.707031 45.058594 69.378906 44.0625 68.144531 C 42.390625 66.070312 40.449219 64.261719 38.480469 62.476562 C 38.304688 62.3125 38.101562 62.171875 37.902344 62.03125 C 37.652344 61.855469 37.5625 61.878906 37.503906 62.199219 C 37.394531 62.816406 37.265625 63.4375 37.257812 64.0625 C 37.238281 66.203125 37.671875 68.25 38.675781 70.15625 C 39.429688 71.585938 40.417969 72.828125 41.933594 73.480469 C 43.289062 74.0625 44.703125 74.503906 46.089844 75.019531 C 46.359375 75.121094 46.472656 75.003906 46.511719 74.765625 C 46.570312 74.390625 46.488281 72.699219 46.363281 72.253906 Z M 46.359375 72.253906 " fill-opacity="1" fill-rule="nonzero"/><g clip-path="url(#4d69aef34d)"><path fill="#000000" d="M 70.132812 13.800781 C 70.085938 15.257812 69.25 17.898438 67.070312 19.6875 C 65.957031 20.601562 64.648438 20.972656 63.210938 20.839844 C 62.765625 20.796875 62.324219 20.761719 61.882812 20.71875 C 61.761719 20.707031 61.636719 20.691406 61.519531 20.667969 C 60.589844 20.492188 60.359375 20.171875 60.484375 19.25 C 60.707031 17.566406 61.367188 16.042969 62.277344 14.632812 C 63.265625 13.105469 64.457031 11.753906 65.992188 10.746094 C 66.558594 10.375 67.164062 10.121094 67.863281 10.097656 C 68.761719 10.070312 69.414062 10.445312 69.78125 11.226562 C 70 11.691406 70.179688 12.339844 70.132812 13.796875 Z M 67.792969 13.054688 C 67.792969 13.011719 67.800781 12.972656 67.796875 12.933594 C 67.777344 12.527344 67.664062 12.453125 67.316406 12.640625 C 67.015625 12.804688 66.71875 12.988281 66.441406 13.1875 C 65.0625 14.183594 63.929688 15.425781 62.933594 16.789062 C 62.421875 17.488281 61.40625 19.367188 61.34375 19.558594 C 61.535156 19.539062 61.730469 19.546875 61.914062 19.5 C 62.523438 19.347656 63.132812 19.1875 63.730469 19 C 64.636719 18.722656 65.453125 18.300781 66.089844 17.570312 C 67.210938 16.269531 67.714844 14.742188 67.792969 13.054688 Z M 67.792969 13.054688 " fill-opacity="1" fill-rule="nonzero"/></g></svg>