<svg xmlns="http://www.w3.org/2000/svg" xmlns:xlink="http://www.w3.org/1999/xlink" width="150" zoomAndPan="magnify" viewBox="0 0 112.5 112.499997" height="150" preserveAspectRatio="xMidYMid meet" version="1.0"><defs><clipPath id="fb988f6c57"><path d="M 18 81 L 84 81 L 84 99.457031 L 18 99.457031 Z M 18 81 " clip-rule="nonzero"/></clipPath><clipPath id="1623e0efcf"><path d="M 11.199219 44 L 22 44 L 22 55 L 11.199219 55 Z M 11.199219 44 " clip-rule="nonzero"/></clipPath><clipPath id="97589562b8"><path d="M 57 16.578125 L 94 16.578125 L 94 55 L 57 55 Z M 57 16.578125 " clip-rule="nonzero"/></clipPath><clipPath id="65eb531822"><path d="M 89 18 L 105.28125 18 L 105.28125 43 L 89 43 Z M 89 18 " clip-rule="nonzero"/></clipPath></defs><path fill="#5ce1e6" d="M 76.390625 39.574219 C 76.832031 39.410156 77.328125 39.410156 77.769531 39.574219 L 79.589844 40.402344 L 79.371094 38.414062 C 79.316406 37.917969 79.480469 37.476562 79.8125 37.09375 L 81.136719 35.601562 L 79.203125 35.21875 C 78.707031 35.105469 78.324219 34.832031 78.101562 34.445312 L 77.109375 32.679688 L 76.0625 34.445312 C 75.839844 34.832031 75.453125 35.105469 74.957031 35.21875 L 73.027344 35.601562 L 74.351562 37.09375 C 74.683594 37.476562 74.847656 37.917969 74.792969 38.414062 L 74.574219 40.402344 Z M 76.390625 39.574219 " fill-opacity="1" fill-rule="evenodd"/><path fill="#ffd2ee" d="M 94.921875 26.503906 L 94.921875 38.085938 C 94.921875 38.691406 94.921875 39.296875 94.867188 39.847656 C 97.402344 39.1875 99.445312 37.476562 100.988281 34.777344 C 103.195312 30.859375 103.636719 26.117188 103.472656 23.691406 C 100.933594 25.125 97.074219 26.0625 94.921875 26.503906 Z M 94.921875 26.503906 " fill-opacity="1" fill-rule="evenodd"/><path fill="#ffd2ee" d="M 59.242188 38.085938 L 59.242188 26.503906 C 57.089844 26.0625 53.230469 25.125 50.691406 23.691406 C 50.527344 26.117188 50.96875 30.859375 53.175781 34.777344 C 53.617188 35.601562 54.113281 36.265625 54.664062 36.925781 C 54.664062 36.925781 54.71875 36.925781 54.71875 36.980469 C 55.988281 38.414062 57.53125 39.410156 59.296875 39.847656 C 59.242188 39.296875 59.242188 38.691406 59.242188 38.085938 Z M 59.242188 38.085938 " fill-opacity="1" fill-rule="evenodd"/><path fill="#ffd2ee" d="M 62.550781 21.375 L 62.550781 38.085938 C 62.550781 39.242188 62.660156 40.347656 62.9375 41.394531 C 62.9375 41.449219 62.9375 41.503906 62.9375 41.558594 C 64.257812 46.910156 68.503906 51.046875 73.855469 52.257812 C 73.910156 52.3125 73.964844 52.3125 74.019531 52.3125 C 75.011719 52.535156 76.0625 52.644531 77.109375 52.644531 C 78.15625 52.644531 79.148438 52.535156 80.140625 52.3125 C 80.199219 52.3125 80.253906 52.3125 80.308594 52.257812 C 85.65625 51.046875 89.902344 46.910156 91.226562 41.558594 C 91.226562 41.503906 91.226562 41.449219 91.226562 41.394531 C 91.503906 40.347656 91.613281 39.242188 91.613281 38.085938 L 91.613281 21.375 Z M 69.5 32.957031 L 73.578125 32.128906 L 75.621094 28.488281 C 75.949219 27.992188 76.503906 27.660156 77.109375 27.660156 C 77.660156 27.660156 78.210938 27.992188 78.542969 28.488281 L 80.582031 32.128906 L 84.664062 32.957031 C 85.269531 33.066406 85.769531 33.507812 85.933594 34.058594 C 86.097656 34.664062 85.988281 35.273438 85.546875 35.714844 L 82.734375 38.800781 L 83.230469 42.9375 C 83.285156 43.542969 83.011719 44.097656 82.570312 44.480469 C 82.238281 44.703125 81.90625 44.8125 81.578125 44.8125 C 81.355469 44.8125 81.136719 44.757812 80.914062 44.648438 L 77.109375 42.9375 L 73.304688 44.648438 C 72.753906 44.867188 72.089844 44.8125 71.59375 44.480469 C 71.152344 44.097656 70.878906 43.542969 70.933594 42.9375 L 71.429688 38.800781 L 68.617188 35.714844 C 68.175781 35.273438 68.066406 34.664062 68.230469 34.058594 C 68.449219 33.507812 68.890625 33.066406 69.5 32.957031 Z M 69.5 32.957031 " fill-opacity="1" fill-rule="evenodd"/><path fill="#5ce1e6" d="M 75.234375 55.84375 L 75.234375 61.136719 L 78.929688 61.136719 L 78.929688 55.84375 C 78.324219 55.898438 77.714844 55.953125 77.109375 55.953125 C 76.449219 55.953125 75.839844 55.898438 75.234375 55.84375 Z M 75.234375 55.84375 " fill-opacity="1" fill-rule="evenodd"/><path fill="#5ce1e6" d="M 80.582031 64.445312 L 73.578125 64.445312 C 73.578125 64.445312 73.523438 64.445312 73.523438 64.445312 L 69.386719 64.445312 L 69.386719 68.417969 L 84.832031 68.417969 L 84.832031 64.445312 L 80.640625 64.445312 C 80.640625 64.445312 80.582031 64.445312 80.582031 64.445312 Z M 80.582031 64.445312 " fill-opacity="1" fill-rule="evenodd"/><path fill="#5ce1e6" d="M 65.804688 71.726562 L 88.359375 71.726562 L 88.359375 82.976562 L 65.804688 82.976562 Z M 65.804688 71.726562 " fill-opacity="1" fill-rule="evenodd"/><path fill="#ffd2ee" d="M 64.148438 86.285156 L 27.199219 86.285156 C 25.046875 86.285156 23.28125 88.050781 23.28125 90.203125 L 23.28125 93.675781 C 23.28125 95.828125 25.046875 97.589844 27.199219 97.589844 L 77.9375 97.589844 C 80.085938 97.589844 81.851562 95.828125 81.851562 93.675781 L 81.851562 90.203125 C 81.851562 88.050781 80.140625 86.339844 77.992188 86.285156 Z M 69.773438 88.4375 L 69.773438 95.496094 C 69.773438 96.15625 69.332031 96.820312 68.671875 97.039062 C 68.503906 97.09375 68.339844 97.148438 68.121094 97.148438 C 67.625 97.148438 67.183594 96.929688 66.851562 96.488281 L 64.09375 93.070312 L 64.09375 95.496094 C 64.09375 96.378906 63.320312 97.148438 62.4375 97.148438 C 61.5 97.148438 60.785156 96.378906 60.785156 95.496094 L 60.785156 88.4375 C 60.785156 87.71875 61.226562 87.113281 61.886719 86.835938 C 62.550781 86.617188 63.265625 86.835938 63.707031 87.386719 L 66.464844 90.808594 L 66.464844 88.4375 C 66.464844 87.5 67.238281 86.78125 68.121094 86.78125 C 69.058594 86.78125 69.773438 87.5 69.773438 88.4375 Z M 57.421875 95.496094 C 57.421875 96.378906 56.648438 97.148438 55.765625 97.148438 C 54.828125 97.148438 54.113281 96.378906 54.113281 95.496094 L 54.113281 88.4375 C 54.113281 87.5 54.828125 86.78125 55.765625 86.78125 C 56.648438 86.78125 57.421875 87.5 57.421875 88.4375 Z M 49.425781 95.769531 C 49.3125 96.378906 48.871094 96.875 48.265625 97.039062 C 48.101562 97.09375 47.933594 97.148438 47.769531 97.148438 C 47.328125 97.148438 46.886719 96.929688 46.613281 96.597656 L 42.972656 92.902344 L 39.386719 96.597656 C 38.945312 97.09375 38.339844 97.261719 37.730469 97.039062 C 37.125 96.875 36.683594 96.378906 36.574219 95.769531 L 35.359375 89.59375 C 35.195312 88.65625 35.800781 87.828125 36.683594 87.664062 C 37.566406 87.445312 38.449219 88.050781 38.613281 88.933594 L 39.222656 92.019531 L 41.8125 89.375 C 42.421875 88.710938 43.578125 88.710938 44.183594 89.375 L 46.777344 92.019531 L 47.382812 88.933594 C 47.550781 88.050781 48.429688 87.5 49.3125 87.664062 C 50.195312 87.828125 50.800781 88.65625 50.636719 89.59375 Z M 49.425781 95.769531 " fill-opacity="1" fill-rule="evenodd"/><path fill="#ffd2ee" d="M 44.625 70.457031 L 46.777344 60.695312 L 42.308594 53.25 C 41.980469 53.304688 41.648438 53.359375 41.261719 53.359375 C 41.042969 53.359375 40.765625 53.304688 40.542969 53.304688 L 37.84375 58.601562 Z M 44.625 70.457031 " fill-opacity="1" fill-rule="evenodd"/><path fill="#5ce1e6" d="M 41.261719 50.050781 C 41.59375 50.050781 41.921875 49.941406 42.199219 49.777344 C 42.75 49.445312 43.082031 48.894531 43.082031 48.230469 C 43.082031 47.238281 42.253906 46.414062 41.261719 46.414062 C 40.269531 46.414062 39.496094 47.238281 39.496094 48.230469 C 39.496094 48.949219 39.882812 49.554688 40.433594 49.832031 C 40.710938 49.941406 40.984375 50.050781 41.261719 50.050781 Z M 41.261719 50.050781 " fill-opacity="1" fill-rule="evenodd"/><path fill="#5ce1e6" d="M 49.753906 42.386719 C 49.753906 43.710938 50.691406 44.8125 51.90625 45.144531 C 51.90625 45.144531 51.960938 45.144531 51.960938 45.144531 C 51.960938 45.144531 51.960938 45.144531 52.015625 45.144531 C 52.179688 45.199219 52.347656 45.199219 52.566406 45.199219 C 54.113281 45.199219 55.378906 43.929688 55.378906 42.386719 C 55.378906 42.164062 55.324219 41.945312 55.269531 41.726562 C 54.332031 41.117188 53.449219 40.402344 52.621094 39.628906 C 52.621094 39.628906 52.566406 39.628906 52.566406 39.628906 C 51.023438 39.628906 49.753906 40.84375 49.753906 42.386719 Z M 49.753906 42.386719 " fill-opacity="1" fill-rule="evenodd"/><path fill="#5ce1e6" d="M 28.851562 40.015625 C 28.851562 38.085938 27.253906 36.484375 25.269531 36.484375 C 23.28125 36.484375 21.683594 38.085938 21.683594 40.015625 C 21.683594 42 23.28125 43.601562 25.269531 43.601562 C 25.597656 43.601562 25.984375 43.542969 26.316406 43.488281 C 26.59375 43.378906 26.8125 43.269531 27.03125 43.160156 C 28.136719 42.550781 28.851562 41.394531 28.851562 40.015625 Z M 28.851562 40.015625 " fill-opacity="1" fill-rule="evenodd"/><path fill="#5ce1e6" d="M 19.589844 51.320312 C 19.589844 50.328125 18.816406 49.5 17.824219 49.5 C 16.773438 49.5 16.003906 50.328125 16.003906 51.320312 C 16.003906 52.3125 16.773438 53.140625 17.824219 53.140625 C 18.210938 53.140625 18.59375 52.976562 18.871094 52.753906 C 19.3125 52.421875 19.589844 51.925781 19.589844 51.320312 Z M 19.589844 51.320312 " fill-opacity="1" fill-rule="evenodd"/><path fill="#ffd2ee" d="M 52.898438 48.507812 L 46.886719 75.367188 C 46.777344 76.027344 46.226562 76.523438 45.507812 76.632812 C 44.847656 76.746094 44.183594 76.414062 43.855469 75.808594 L 34.535156 59.539062 C 34.476562 59.484375 34.476562 59.484375 34.476562 59.484375 L 31.222656 53.746094 L 37.566406 74.484375 C 37.84375 75.253906 37.457031 76.082031 36.738281 76.46875 C 36.023438 76.855469 35.195312 76.632812 34.699219 75.972656 L 21.40625 58.765625 L 26.648438 83.03125 C 26.8125 82.976562 26.976562 82.976562 27.199219 82.976562 L 62.496094 82.976562 L 62.496094 70.070312 C 62.496094 69.1875 63.265625 68.417969 64.148438 68.417969 L 66.078125 68.417969 L 66.078125 62.792969 C 66.078125 61.910156 66.796875 61.136719 67.734375 61.136719 L 71.925781 61.136719 L 71.925781 55.179688 C 66.246094 53.472656 61.777344 49.058594 60.011719 43.378906 C 59.570312 43.324219 59.074219 43.214844 58.632812 43.101562 C 58.304688 46.027344 55.875 48.34375 52.898438 48.507812 Z M 52.898438 48.507812 " fill-opacity="1" fill-rule="evenodd"/><path fill="#3d3d3d" d="M 46.335938 95.660156 C 45.894531 95.660156 45.453125 95.496094 45.121094 95.164062 L 41.539062 91.414062 L 37.898438 95.164062 C 37.457031 95.605469 36.851562 95.769531 36.242188 95.605469 C 35.636719 95.441406 35.195312 94.945312 35.085938 94.335938 L 33.871094 88.105469 C 33.707031 87.222656 34.3125 86.339844 35.195312 86.175781 C 36.078125 86.011719 36.960938 86.5625 37.125 87.5 L 37.730469 90.585938 L 40.324219 87.886719 C 40.929688 87.222656 42.089844 87.222656 42.695312 87.886719 L 45.289062 90.585938 L 45.894531 87.5 C 46.058594 86.5625 46.941406 86.011719 47.824219 86.175781 C 48.707031 86.339844 49.3125 87.222656 49.148438 88.105469 L 47.933594 94.335938 C 47.824219 94.945312 47.382812 95.441406 46.777344 95.605469 C 46.613281 95.660156 46.445312 95.660156 46.335938 95.660156 Z M 46.335938 95.660156 " fill-opacity="1" fill-rule="evenodd"/><path fill="#3d3d3d" d="M 54.277344 95.660156 C 53.394531 95.660156 52.621094 94.945312 52.621094 94.007812 L 52.621094 86.949219 C 52.621094 86.011719 53.394531 85.292969 54.277344 85.292969 C 55.214844 85.292969 55.933594 86.011719 55.933594 86.949219 L 55.933594 94.007812 C 55.933594 94.945312 55.214844 95.660156 54.277344 95.660156 Z M 54.277344 95.660156 " fill-opacity="1" fill-rule="evenodd"/><path fill="#3d3d3d" d="M 66.6875 95.660156 C 66.191406 95.660156 65.691406 95.441406 65.363281 95.054688 L 62.605469 91.636719 L 62.605469 94.007812 C 62.605469 94.890625 61.886719 95.660156 60.949219 95.660156 C 60.066406 95.660156 59.296875 94.890625 59.296875 94.007812 L 59.296875 86.949219 C 59.296875 86.230469 59.738281 85.625 60.398438 85.402344 C 61.0625 85.128906 61.777344 85.347656 62.21875 85.898438 L 65.03125 89.320312 L 65.03125 86.949219 C 65.03125 86.011719 65.75 85.292969 66.6875 85.292969 C 67.566406 85.292969 68.339844 86.011719 68.339844 86.949219 L 68.339844 94.007812 C 68.339844 94.722656 67.898438 95.332031 67.238281 95.550781 C 67.015625 95.605469 66.851562 95.660156 66.6875 95.660156 Z M 66.6875 95.660156 " fill-opacity="1" fill-rule="evenodd"/><g clip-path="url(#fb988f6c57)"><path fill="#3d3d3d" d="M 76.449219 99.410156 L 25.710938 99.410156 C 21.738281 99.410156 18.484375 96.210938 18.484375 92.1875 L 18.484375 88.710938 C 18.484375 84.742188 21.738281 81.488281 25.710938 81.488281 L 76.449219 81.488281 C 80.472656 81.488281 83.671875 84.742188 83.671875 88.710938 L 83.671875 92.1875 C 83.671875 96.210938 80.472656 99.410156 76.449219 99.410156 Z M 25.710938 84.796875 C 23.558594 84.796875 21.792969 86.5625 21.792969 88.710938 L 21.792969 92.1875 C 21.792969 94.394531 23.558594 96.101562 25.710938 96.101562 L 76.449219 96.101562 C 78.652344 96.101562 80.363281 94.394531 80.363281 92.1875 L 80.363281 88.710938 C 80.363281 86.5625 78.652344 84.796875 76.449219 84.796875 Z M 25.710938 84.796875 " fill-opacity="1" fill-rule="evenodd"/></g><path fill="#3d3d3d" d="M 23.835938 84.796875 C 23.0625 84.796875 22.34375 84.300781 22.179688 83.527344 L 15.726562 53.527344 C 15.5625 52.589844 16.113281 51.707031 16.996094 51.542969 C 17.050781 51.542969 17.105469 51.542969 17.160156 51.484375 C 17.273438 51.429688 17.328125 51.375 17.4375 51.265625 C 18.152344 50.714844 19.203125 50.878906 19.753906 51.597656 L 30.230469 65.273438 L 23.722656 44.039062 C 23.503906 43.214844 23.945312 42.277344 24.828125 42 C 24.992188 41.945312 25.101562 41.945312 25.269531 41.945312 C 25.324219 41.835938 25.433594 41.726562 25.542969 41.667969 C 26.371094 41.226562 27.363281 41.503906 27.804688 42.277344 L 43.136719 69.023438 L 48.488281 44.921875 C 48.707031 44.039062 49.589844 43.488281 50.472656 43.65625 C 51.355469 43.875 51.960938 44.757812 51.742188 45.640625 L 45.453125 73.875 C 45.289062 74.539062 44.734375 75.035156 44.074219 75.144531 C 43.359375 75.253906 42.695312 74.925781 42.363281 74.316406 L 29.734375 52.257812 L 36.132812 73.050781 C 36.351562 73.820312 36.023438 74.648438 35.304688 74.980469 C 34.589844 75.367188 33.707031 75.144531 33.210938 74.539062 L 19.972656 57.277344 L 25.433594 82.8125 C 25.65625 83.695312 25.046875 84.574219 24.164062 84.796875 C 24.054688 84.796875 23.945312 84.796875 23.835938 84.796875 Z M 23.835938 84.796875 " fill-opacity="1" fill-rule="evenodd"/><path fill="#3d3d3d" d="M 47.050781 60.585938 C 46.5 60.585938 45.949219 60.308594 45.617188 59.8125 L 40.160156 50.605469 C 39.664062 49.777344 39.9375 48.785156 40.710938 48.289062 C 41.539062 47.847656 42.53125 48.121094 42.972656 48.894531 L 48.488281 58.105469 C 48.984375 58.875 48.707031 59.925781 47.933594 60.367188 C 47.660156 60.53125 47.382812 60.585938 47.050781 60.585938 Z M 34.476562 58.875 C 34.203125 58.875 33.925781 58.820312 33.707031 58.65625 C 32.878906 58.269531 32.546875 57.277344 32.988281 56.449219 L 36.738281 49.113281 C 37.179688 48.289062 38.171875 47.957031 39 48.34375 C 39.773438 48.785156 40.105469 49.777344 39.71875 50.605469 L 35.914062 57.9375 C 35.636719 58.546875 35.085938 58.875 34.476562 58.875 Z M 34.476562 58.875 " fill-opacity="1" fill-rule="evenodd"/><g clip-path="url(#1623e0efcf)"><path fill="#3d3d3d" d="M 16.335938 54.960938 C 13.519531 54.960938 11.207031 52.699219 11.207031 49.832031 C 11.207031 47.019531 13.519531 44.757812 16.335938 44.757812 C 19.148438 44.757812 21.464844 47.019531 21.464844 49.832031 C 21.464844 52.699219 19.148438 54.960938 16.335938 54.960938 Z M 16.335938 48.066406 C 15.339844 48.066406 14.515625 48.839844 14.515625 49.832031 C 14.515625 50.878906 15.339844 51.652344 16.335938 51.652344 C 17.328125 51.652344 18.152344 50.824219 18.152344 49.832031 C 18.152344 48.839844 17.328125 48.066406 16.335938 48.066406 Z M 16.335938 48.066406 " fill-opacity="1" fill-rule="evenodd"/></g><path fill="#3d3d3d" d="M 23.78125 45.476562 C 19.972656 45.476562 16.886719 42.386719 16.886719 38.582031 C 16.886719 34.777344 19.972656 31.6875 23.78125 31.6875 C 27.585938 31.6875 30.671875 34.777344 30.671875 38.582031 C 30.671875 42.386719 27.585938 45.476562 23.78125 45.476562 Z M 23.78125 34.996094 C 21.792969 34.996094 20.195312 36.59375 20.195312 38.582031 C 20.195312 40.566406 21.792969 42.164062 23.78125 42.164062 C 25.765625 42.164062 27.363281 40.566406 27.363281 38.582031 C 27.363281 36.59375 25.765625 34.996094 23.78125 34.996094 Z M 23.78125 34.996094 " fill-opacity="1" fill-rule="evenodd"/><path fill="#3d3d3d" d="M 39.828125 51.871094 C 37.015625 51.871094 34.699219 49.554688 34.699219 46.742188 C 34.699219 43.929688 37.015625 41.667969 39.828125 41.667969 C 42.640625 41.667969 44.902344 43.929688 44.902344 46.742188 C 44.902344 49.554688 42.640625 51.871094 39.828125 51.871094 Z M 39.828125 44.976562 C 38.835938 44.976562 38.007812 45.75 38.007812 46.742188 C 38.007812 47.734375 38.835938 48.5625 39.828125 48.5625 C 40.820312 48.5625 41.59375 47.734375 41.59375 46.742188 C 41.59375 45.75 40.820312 44.976562 39.828125 44.976562 Z M 39.828125 44.976562 " fill-opacity="1" fill-rule="evenodd"/><path fill="#3d3d3d" d="M 51.078125 47.074219 C 47.714844 47.074219 44.957031 44.316406 44.957031 40.953125 C 44.957031 37.589844 47.714844 34.832031 51.078125 34.832031 C 51.519531 34.832031 51.90625 34.886719 52.347656 34.941406 C 53.230469 35.105469 53.78125 35.988281 53.617188 36.925781 C 53.449219 37.808594 52.566406 38.359375 51.683594 38.195312 C 51.464844 38.140625 51.300781 38.140625 51.078125 38.140625 C 49.535156 38.140625 48.265625 39.410156 48.265625 40.953125 C 48.265625 42.496094 49.535156 43.765625 51.078125 43.765625 C 52.621094 43.765625 53.890625 42.496094 53.890625 40.953125 C 53.890625 40.511719 53.835938 40.125 53.671875 39.792969 C 53.285156 38.96875 53.671875 37.972656 54.496094 37.589844 C 55.324219 37.203125 56.316406 37.589844 56.648438 38.414062 C 57.035156 39.242188 57.199219 40.070312 57.199219 40.953125 C 57.199219 44.316406 54.441406 47.074219 51.078125 47.074219 Z M 51.078125 47.074219 " fill-opacity="1" fill-rule="evenodd"/><g clip-path="url(#97589562b8)"><path fill="#3d3d3d" d="M 75.621094 54.464844 C 65.75 54.464844 57.75 46.46875 57.75 36.652344 L 57.75 18.230469 C 57.75 17.347656 58.523438 16.578125 59.40625 16.578125 L 91.835938 16.578125 C 92.714844 16.578125 93.488281 17.347656 93.488281 18.230469 L 93.488281 36.652344 C 93.488281 46.46875 85.4375 54.464844 75.621094 54.464844 Z M 61.0625 19.886719 L 61.0625 36.652344 C 61.0625 44.648438 67.566406 51.15625 75.621094 51.15625 C 83.617188 51.15625 90.179688 44.648438 90.179688 36.652344 L 90.179688 19.886719 Z M 61.0625 19.886719 " fill-opacity="1" fill-rule="evenodd"/></g><path fill="#3d3d3d" d="M 88.523438 84.796875 L 62.714844 84.796875 C 61.777344 84.796875 61.0625 84.078125 61.0625 83.140625 L 61.0625 68.582031 C 61.0625 67.699219 61.777344 66.929688 62.714844 66.929688 L 88.523438 66.929688 C 89.460938 66.929688 90.179688 67.699219 90.179688 68.582031 L 90.179688 83.140625 C 90.179688 84.078125 89.460938 84.796875 88.523438 84.796875 Z M 64.371094 81.488281 L 86.871094 81.488281 L 86.871094 70.292969 L 64.371094 70.292969 Z M 64.371094 81.488281 " fill-opacity="1" fill-rule="evenodd"/><path fill="#3d3d3d" d="M 84.996094 70.292969 L 66.246094 70.292969 C 65.308594 70.292969 64.589844 69.519531 64.589844 68.636719 L 64.589844 61.304688 C 64.589844 60.421875 65.308594 59.703125 66.246094 59.703125 L 84.996094 59.703125 C 85.878906 59.703125 86.648438 60.421875 86.648438 61.304688 L 86.648438 68.636719 C 86.648438 69.519531 85.878906 70.292969 84.996094 70.292969 Z M 67.898438 66.929688 L 83.339844 66.929688 L 83.339844 62.957031 L 67.898438 62.957031 Z M 67.898438 66.929688 " fill-opacity="1" fill-rule="evenodd"/><path fill="#3d3d3d" d="M 79.09375 62.957031 L 72.089844 62.957031 C 71.207031 62.957031 70.4375 62.242188 70.4375 61.304688 L 70.4375 52.421875 C 70.4375 51.542969 71.207031 50.769531 72.089844 50.769531 C 73.027344 50.769531 73.746094 51.542969 73.746094 52.421875 L 73.746094 59.703125 L 77.441406 59.703125 L 77.441406 52.421875 C 77.441406 51.542969 78.210938 50.769531 79.09375 50.769531 C 80.03125 50.769531 80.75 51.542969 80.75 52.421875 L 80.75 61.304688 C 80.75 62.242188 80.03125 62.957031 79.09375 62.957031 Z M 79.09375 62.957031 " fill-opacity="1" fill-rule="evenodd"/><path fill="#3d3d3d" d="M 59.847656 42.054688 C 59.847656 42.054688 59.792969 42.054688 59.738281 42.054688 C 53.007812 41.613281 48.15625 36.652344 46.445312 28.433594 C 45.949219 26.007812 45.175781 19.445312 47.550781 18.230469 C 48.375 17.789062 49.3125 18.011719 49.976562 18.726562 C 51.242188 20.050781 56.429688 21.484375 59.683594 22.035156 C 60.621094 22.203125 61.226562 23.027344 61.0625 23.910156 C 60.894531 24.847656 60.011719 25.457031 59.128906 25.289062 C 57.917969 25.070312 52.457031 24.078125 49.257812 22.257812 C 49.09375 24.628906 49.480469 29.425781 51.683594 33.34375 C 53.617188 36.707031 56.429688 38.527344 59.957031 38.746094 C 60.894531 38.800781 61.558594 39.574219 61.5 40.511719 C 61.445312 41.394531 60.730469 42.054688 59.847656 42.054688 Z M 59.847656 42.054688 " fill-opacity="1" fill-rule="evenodd"/><g clip-path="url(#65eb531822)"><path fill="#3d3d3d" d="M 91.335938 42.054688 C 90.511719 42.054688 89.792969 41.394531 89.738281 40.511719 C 89.628906 39.574219 90.34375 38.800781 91.28125 38.746094 C 94.8125 38.527344 97.625 36.707031 99.5 33.34375 C 101.761719 29.425781 102.148438 24.628906 101.980469 22.257812 C 98.726562 24.078125 93.324219 25.070312 92.109375 25.289062 C 91.171875 25.457031 90.34375 24.847656 90.179688 23.910156 C 90.015625 23.027344 90.621094 22.203125 91.503906 22.035156 C 94.8125 21.484375 99.996094 20.050781 101.265625 18.726562 C 101.925781 18.011719 102.863281 17.789062 103.691406 18.230469 C 106.0625 19.445312 105.289062 26.007812 104.792969 28.433594 C 103.085938 36.652344 98.230469 41.613281 91.449219 42.054688 C 91.449219 42.054688 91.394531 42.054688 91.335938 42.054688 Z M 91.335938 42.054688 " fill-opacity="1" fill-rule="evenodd"/></g><path fill="#3d3d3d" d="M 80.085938 43.324219 C 79.867188 43.324219 79.644531 43.269531 79.425781 43.160156 L 75.621094 41.449219 L 71.816406 43.160156 C 71.261719 43.433594 70.65625 43.378906 70.160156 42.992188 C 69.664062 42.664062 69.386719 42.054688 69.5 41.503906 L 69.941406 37.3125 L 67.128906 34.222656 C 66.742188 33.78125 66.574219 33.175781 66.796875 32.625 C 66.960938 32.019531 67.457031 31.632812 68.007812 31.523438 L 72.089844 30.640625 L 74.1875 27 C 74.460938 26.503906 75.011719 26.171875 75.621094 26.171875 C 76.226562 26.171875 76.777344 26.503906 77.054688 27 L 79.09375 30.640625 L 83.230469 31.523438 C 83.78125 31.632812 84.277344 32.019531 84.445312 32.625 C 84.664062 33.175781 84.5 33.78125 84.113281 34.222656 L 81.300781 37.3125 L 81.742188 41.503906 C 81.796875 42.054688 81.578125 42.664062 81.078125 42.992188 C 80.804688 43.214844 80.472656 43.324219 80.085938 43.324219 Z M 71.539062 34.167969 L 72.917969 35.65625 C 73.195312 35.988281 73.359375 36.484375 73.304688 36.925781 L 73.082031 38.96875 L 74.902344 38.140625 C 75.34375 37.917969 75.839844 37.917969 76.28125 38.140625 L 78.15625 38.96875 L 77.882812 36.925781 C 77.882812 36.484375 77.992188 35.988281 78.324219 35.65625 L 79.703125 34.167969 L 77.714844 33.726562 C 77.273438 33.671875 76.832031 33.34375 76.613281 32.957031 L 75.621094 31.191406 L 74.628906 32.957031 C 74.40625 33.34375 73.964844 33.671875 73.523438 33.726562 Z M 71.539062 34.167969 " fill-opacity="1" fill-rule="evenodd"/></svg>