<svg xmlns="http://www.w3.org/2000/svg" xmlns:xlink="http://www.w3.org/1999/xlink" width="150" zoomAndPan="magnify" viewBox="0 0 112.5 112.499997" height="150" preserveAspectRatio="xMidYMid meet" version="1.0"><defs><clipPath id="49048bba6f"><path d="M 8.078125 8.078125 L 100.667969 8.078125 L 100.667969 100.667969 L 8.078125 100.667969 Z M 8.078125 8.078125 " clip-rule="nonzero"/></clipPath></defs><g clip-path="url(#49048bba6f)"><path fill="#fbb040" d="M 100.667969 54.375 C 100.667969 79.929688 79.960938 100.667969 54.375 100.667969 C 28.789062 100.667969 8.078125 79.960938 8.078125 54.375 C 8.078125 28.820312 28.789062 8.078125 54.375 8.078125 L 54.558594 8.078125 C 44.589844 13.328125 37.800781 23.789062 37.800781 35.824219 C 37.800781 53.140625 51.84375 67.183594 69.15625 67.183594 C 83.726562 67.183594 95.945312 57.277344 99.464844 43.820312 C 100.238281 47.214844 100.667969 50.734375 100.667969 54.375 Z M 100.667969 54.375 " fill-opacity="1" fill-rule="nonzero"/></g><path fill="#000000" d="M 87.519531 76.59375 C 87.519531 76.878906 87.492188 77.160156 87.4375 77.4375 C 87.382812 77.714844 87.300781 77.988281 87.191406 78.25 C 87.082031 78.511719 86.949219 78.761719 86.792969 78.996094 C 86.636719 79.230469 86.457031 79.449219 86.253906 79.652344 C 86.054688 79.851562 85.835938 80.03125 85.601562 80.1875 C 85.363281 80.347656 85.117188 80.480469 84.855469 80.585938 C 84.589844 80.695312 84.320312 80.777344 84.042969 80.832031 C 83.765625 80.886719 83.484375 80.917969 83.199219 80.917969 C 82.917969 80.917969 82.636719 80.890625 82.355469 80.832031 C 82.078125 80.777344 81.808594 80.695312 81.546875 80.585938 C 81.285156 80.480469 81.035156 80.347656 80.800781 80.1875 C 80.5625 80.03125 80.34375 79.851562 80.144531 79.652344 C 79.945312 79.449219 79.765625 79.230469 79.609375 78.996094 C 79.449219 78.761719 79.316406 78.511719 79.207031 78.25 C 79.101562 77.988281 79.019531 77.714844 78.960938 77.4375 C 78.90625 77.160156 78.878906 76.878906 78.878906 76.59375 C 78.878906 76.3125 78.90625 76.03125 78.960938 75.753906 C 79.019531 75.472656 79.101562 75.203125 79.207031 74.941406 C 79.316406 74.679688 79.449219 74.429688 79.609375 74.195312 C 79.765625 73.960938 79.945312 73.742188 80.144531 73.539062 C 80.34375 73.339844 80.5625 73.160156 80.800781 73.003906 C 81.035156 72.84375 81.285156 72.710938 81.546875 72.605469 C 81.808594 72.496094 82.078125 72.414062 82.355469 72.359375 C 82.636719 72.300781 82.917969 72.273438 83.199219 72.273438 C 83.484375 72.273438 83.765625 72.300781 84.042969 72.359375 C 84.320312 72.414062 84.589844 72.496094 84.855469 72.605469 C 85.117188 72.710938 85.363281 72.84375 85.601562 73.003906 C 85.835938 73.160156 86.054688 73.339844 86.253906 73.539062 C 86.457031 73.742188 86.636719 73.960938 86.792969 74.195312 C 86.949219 74.429688 87.082031 74.679688 87.191406 74.941406 C 87.300781 75.203125 87.382812 75.472656 87.4375 75.753906 C 87.492188 76.03125 87.519531 76.3125 87.519531 76.59375 Z M 87.519531 76.59375 " fill-opacity="0.1" fill-rule="nonzero"/><path fill="#000000" d="M 89.15625 70.609375 C 89.15625 70.828125 89.113281 71.042969 89.03125 71.246094 C 88.945312 71.449219 88.824219 71.628906 88.667969 71.785156 C 88.511719 71.941406 88.332031 72.0625 88.128906 72.148438 C 87.921875 72.234375 87.710938 72.273438 87.488281 72.273438 C 87.269531 72.273438 87.054688 72.234375 86.851562 72.148438 C 86.648438 72.0625 86.46875 71.941406 86.3125 71.785156 C 86.15625 71.628906 86.035156 71.449219 85.949219 71.246094 C 85.867188 71.042969 85.824219 70.828125 85.824219 70.609375 C 85.824219 70.386719 85.867188 70.175781 85.949219 69.96875 C 86.035156 69.765625 86.15625 69.585938 86.3125 69.429688 C 86.46875 69.273438 86.648438 69.152344 86.851562 69.070312 C 87.054688 68.984375 87.269531 68.941406 87.488281 68.941406 C 87.710938 68.941406 87.921875 68.984375 88.128906 69.070312 C 88.332031 69.152344 88.511719 69.273438 88.667969 69.429688 C 88.824219 69.585938 88.945312 69.765625 89.03125 69.96875 C 89.113281 70.175781 89.15625 70.386719 89.15625 70.609375 Z M 89.15625 70.609375 " fill-opacity="0.1" fill-rule="nonzero"/><path fill="#000000" d="M 32 23.820312 C 32 24.042969 31.957031 24.253906 31.871094 24.457031 C 31.789062 24.660156 31.667969 24.84375 31.511719 25 C 31.355469 25.15625 31.175781 25.273438 30.96875 25.359375 C 30.765625 25.445312 30.554688 25.488281 30.332031 25.488281 C 30.109375 25.488281 29.898438 25.445312 29.695312 25.359375 C 29.488281 25.273438 29.308594 25.15625 29.152344 25 C 28.996094 24.84375 28.878906 24.660156 28.792969 24.457031 C 28.707031 24.253906 28.664062 24.042969 28.664062 23.820312 C 28.664062 23.597656 28.707031 23.386719 28.792969 23.183594 C 28.878906 22.976562 28.996094 22.796875 29.152344 22.640625 C 29.308594 22.484375 29.488281 22.363281 29.695312 22.28125 C 29.898438 22.195312 30.109375 22.152344 30.332031 22.152344 C 30.554688 22.152344 30.765625 22.195312 30.96875 22.28125 C 31.175781 22.363281 31.355469 22.484375 31.511719 22.640625 C 31.667969 22.796875 31.789062 22.976562 31.871094 23.183594 C 31.957031 23.386719 32 23.597656 32 23.820312 Z M 32 23.820312 " fill-opacity="0.1" fill-rule="nonzero"/></svg>